<?xml version="1.0" encoding="UTF-8"?>
<svg id="Livello_1" data-name="Livello 1" xmlns="http://www.w3.org/2000/svg" viewBox="0 0 141.73 141.73">
  <defs>
    <style>
      .cls-1 {
        fill: #b5afa7;
      }

      .cls-2 {
        fill: #dbd4d2;
      }

      .cls-3 {
        fill: #dad5d2;
      }

      .cls-4 {
        fill: #bcafa7;
      }

      .cls-5 {
        fill: #826d5f;
      }

      .cls-6 {
        fill: #c2b6b0;
      }

      .cls-7 {
        fill: #d7ddda;
      }

      .cls-8 {
        fill: #fefefe;
      }

      .cls-9 {
        fill: #e5e5e1;
      }

      .cls-10 {
        fill: #ddd7d1;
      }

      .cls-11 {
        fill: #c5b9b7;
      }

      .cls-12 {
        fill: #867268;
      }

      .cls-13 {
        fill: #a38e83;
      }

      .cls-14 {
        fill: #afa59e;
      }

      .cls-15 {
        fill: #b8b0a8;
      }

      .cls-16 {
        fill: #dbd6d5;
      }

      .cls-17 {
        fill: #dededa;
      }

      .cls-18 {
        fill: #fff;
      }

      .cls-19 {
        fill: #af897d;
      }

      .cls-20 {
        fill: #a3948a;
      }

      .cls-21 {
        fill: #947a6b;
      }

      .cls-22 {
        fill: #9b786a;
      }

      .cls-23 {
        fill: #9c8a7f;
      }

      .cls-24 {
        fill: #bcb5af;
      }

      .cls-25 {
        fill: #aa9588;
      }

      .cls-26 {
        fill: #ab998e;
      }

      .cls-27 {
        fill: #c5bfb9;
      }

      .cls-28 {
        fill: #fcfdfc;
      }

      .cls-29 {
        fill: #967f72;
      }

      .cls-30 {
        fill: #998174;
      }

      .cls-31 {
        fill: #806155;
      }

      .cls-32 {
        fill: #f0f8f8;
      }

      .cls-33 {
        fill: #dddbd8;
      }

      .cls-34 {
        fill: #cec8c4;
      }

      .cls-35 {
        fill: #995c55;
      }

      .cls-36 {
        fill: #937a6b;
      }

      .cls-37 {
        fill: #9c8577;
      }

      .cls-38 {
        fill: #d8d5cf;
      }

      .cls-39 {
        fill: #937f71;
      }

      .cls-40 {
        fill: #c5b9b2;
      }

      .cls-41 {
        fill: #c3bbb4;
      }

      .cls-42 {
        fill: #b2aaa3;
      }

      .cls-43 {
        fill: #a9a298;
      }

      .cls-44 {
        fill: #a3a297;
      }

      .cls-45 {
        fill: #e9e5e2;
      }

      .cls-46 {
        fill: #cecdc8;
      }

      .cls-47 {
        fill: #d3d6d0;
      }

      .cls-48 {
        fill: #8a6e5e;
      }

      .cls-49 {
        fill: #b19f98;
      }

      .cls-50 {
        fill: #f9fcfc;
      }

      .cls-51 {
        fill: #a69183;
      }

      .cls-52 {
        fill: #927765;
      }

      .cls-53 {
        fill: #d6d1cd;
      }

      .cls-54 {
        fill: #aa9f95;
      }

      .cls-55 {
        fill: #856557;
      }

      .cls-56 {
        fill: #d0c9c6;
      }

      .cls-57 {
        fill: #b4aca4;
      }

      .cls-58 {
        fill: #d0d6d1;
      }

      .cls-59 {
        fill: #9e8778;
      }

      .cls-60 {
        fill: #baaca5;
      }

      .cls-61 {
        fill: #998376;
      }

      .cls-62 {
        fill: #c1b8b3;
      }

      .cls-63 {
        fill: #e4e3df;
      }

      .cls-64 {
        fill: #92887f;
      }

      .cls-65 {
        fill: #b6aea6;
      }

      .cls-66 {
        fill: #907c6f;
      }

      .cls-67 {
        fill: #94928a;
      }

      .cls-68 {
        fill: #ac988e;
      }

      .cls-69 {
        fill: #d2cbc4;
      }

      .cls-70 {
        fill: #c7b7b2;
      }

      .cls-71 {
        fill: #eaf3f1;
      }

      .cls-72 {
        fill: #ae9895;
      }

      .cls-73 {
        fill: #c0b5af;
      }

      .cls-74 {
        fill: #958f85;
      }

      .cls-75 {
        fill: #8f6c5d;
      }

      .cls-76 {
        fill: #a1887c;
      }
    </style>
  </defs>
  <path class="cls-8" d="M65.35,63.51l1.31.2.58,10.24v.96l.96,1.89c1.08-.91,1.51-.38.96.96,1.21-.08,2.27.96,3.15,3.08,1.19-.45,2.34.73,3.48,3.58.55.55,1.21.86,1.89.96.61.15,1.26.71,1.89.96.86.1.81.43,0,.96-1.59-.96-.93,1.24,1.89,6.63.35,1.11.66,2.4.96,3.81,0,1.51.55,3.96-.96,4.74-1.71.1-1.71.43,0,.96-.58,2.22-2.5,4.21-4.74,4.74l-.96-.96c-1.06.98-3.4.76-4.74,0-2.87-1.26-.96-2.62.96-3.81-1.24-1.44-.68-1.94.96-.96,2.27-1.13,1.97-6.03-.96-9.48,1.82,2.24,4.21,7.72.96,8.55-.86-.18-.81-.5,0-.96-.1-2.9-1.56-9.91-4.74-7.59-1.34-1.01-.73-2.19.96-1.89.78-.5,1.74.13,2.85,1.89l-5.7-6.63c.98.83,2.14,1.99.96,2.85,1.03,2.45-.38,7.06-2.85,8.55h.96c-.33-1.56.98-2.9,1.89-.96-.5,2.62-.78,4.92-.96,7.59-.48,2.52-1.06,2.37-1.89,0-.61.15-.91.78-.96,1.89,1.56.66,3.08,4.16,1.89,5.7.61.28.91.91.96,1.89.83,1.79.73,3.81,2.85,4.74-.28,1.82-1.03,1.71-1.89,0-1.61,0-3.1-1.16-4.49-3.48-2.27-.76-2.98-1.49-2.14-2.22-2.5-3.78-3.13-6.3-1.89-7.59-.48-1.31-.81-2.9-.96-4.74-.35-2.62,1.49-7.39,3.81-8.55-.96-2.95,2.62-8.14,4.74-5.7-2.52.53-2.82-.13-.96-1.89-.63.33-.78-.25-.96-.96l-.96-1.89.96,1.89v.96c-.28.83-.58.81-.96,0-2.52.33-2.65.1-.96-1.89-.15-.61-.81-1.29-.96-1.89.28-.83.58-.81.96,0,.38-.28.68.03.96.96-.76-.55-.43-1.13,0-1.89-1.29-.25-2.52-3.93-.96-4.74-.88-1.41-.88-4.16,0-5.7.96-2.75.96-4.01,0-3.81.48-.76.96-1.64,1.89-1.89h.96v-.05Z"/>
  <path class="cls-8" d="M82.44,93.89c-.28.83-.58.81-.96,0-.43-.73-.71-1.29,0-1.89.93.25.88,1.08.96,1.89Z"/>
  <path class="cls-30" d="M87.18,25.56c2.92,2.27.15,17.47-2.29,17.37-.2,0-.38-.55-.55-1.24-.28,2.27-.61,2.42-2.85,1.89-.91,2.95-7.74,1.64-7.59-.96-.48-.66-.61-1.29,0-1.89.38-2.45,1.03-4.66,1.89-6.63-1.08-1.36-.58-1.92.96-.96-.15-4.11,3.08-7.94,5.5-2.52,4.74-1.59,2.85-2.57-1.08-3.86l-.61-2.14c-.63-.28-.61-.61,0-.96,1.82.18,5.17,1.06,6.63,1.89Z"/>
  <path class="cls-21" d="M56.82,25.56c4.01-1.41,10.01,4.41,5.7,6.63-.4,1.08-1.03,2.04-1.89,2.85.53,2.22.86,4.44.96,6.63,1.77-3.23,3.03-3.86,3.81-1.89.91-1.08,1.87-.38,1.89.96.81.25.71,1.44,0,1.89-.25.83-.58.81-.96,0l-.96.96c-.25.86-.58.83-.96,0,.38,2.12-.58,2.42-2.85.96l-1.39,1.94c-.15-1.36-1.21-1.69-2.42-1.94-.55,1.92-6.38.68-3.81-1.89-1.59-3.83-2.52-6.68-2.85-8.55v-.96c-2.27-.03-1.97-3.91,0-4.74l.96-.96,1.89-1.89c.98-.45,1.87-.45,2.85,0h.03Z"/>
  <path class="cls-39" d="M64.41,121.4c-7.09-3.5-6.3-11.85.55-4.01l2.29,1.16c.63-.03,1.26,0,1.89,0,2.17-.08,4.51.2,6.63,0l.96-.96c.15-2.55.81-2.55,1.89,0-.68-1.06,1.44-1.59,2.85-1.89,4.56-.71-2.04,6.03-4.74,6.63.68,1.29-.76,1.56-1.89.96-2.8-.48-5.14.1-7.01,1.74l-1.54-1.74-.96-1.89c-.28.81-.61.81-.96,0h.03Z"/>
  <path class="cls-12" d="M89.07,130.91c2.7,4.03.98,5.14-5.19,3.3l-23.47.08c-2.42.78-4.26.93-5.5.43-.55.13-1.29-.08-1.89,0-.55-.13-.96-.3-.96-.96.13-.58-.18-1.49,0-1.89.3-.38.61-.38.96,0,5.65.81,11.45.81,17.07,0,.66-.68,1.31-.71,1.89,0,.18-.86.5-.81.96,0,3.71-.58,7.51-.88,11.4-.96.98-.1,4.14-.23,4.74,0Z"/>
  <path class="cls-18" d="M75.79,68.27c9.98-2.85,8.88,10.59,3.03,7.39-.83-.45-.53-3.86-3.03-1.69-.83-.18-.81-.5,0-.96-2.5-.76-2.4-1.99,0-2.85-.45-.83-.45-1.46,0-1.89Z"/>
  <path class="cls-69" d="M62.5,25.56c.88-.25,1.21.08.96.96,1.89-.33,2.32,0,1.89,1.89,1.16.61.83,2.19-.96,4.74.83.18.81.5,0,.96,2.47-.63,2.57-.05.96,1.89.86.18.81.5,0,.96v.96c.83.25.83.58,0,.96-2.5,2.27-4.84-5.17-2.85-6.63,0-.08.86-.55.71-1.24-.55-2.52-3.98-5.04-6.4-5.4.63.05,1.26-.03,1.89,0,.43-.38.43-.68,0-.96,0-.28.05-.68,0-.96l-.96-.96c-.1-.28.13-.68,0-.96l.96-.96c-1.49-.83-1.74-1.41,0-1.89.28-.76.58-.76.96,0,1.49.63,1.97,1.82.61,2.67l2.24,3.96Z"/>
  <path class="cls-18" d="M107.1,47.4l-.96.96c-1.79,1.36-2.32,1.24-4.51.23-7.59-3.5,10.11-10.51,5.45-1.19h.03Z"/>
  <path class="cls-51" d="M87.18,51.18c-1.29.96-1.71.45-.96-.96.23-.68.55-.66.96,0-.1.3.1.71,0,.96Z"/>
  <path class="cls-51" d="M84.33,41.7c.45,1.87,1.39,3.43,2.85,4.74.05.28,0,.66,0,.96.98.88.1,2.24-.96,2.85-.25.86-.55.83-.96,0-1.74,3.2-9.18,2.02-6.56-2.47l-.1-1.31c.45-1.46,1.41-2.42,2.85-2.85.96-2.02,1.44-1.51,2.85-1.89l.03-.03Z"/>
  <path class="cls-18" d="M83.37,55.92c-.71.91-1.89,2.09-2.32,2.9-.68,1.31-.4,3.61-.53,3.76-.48.53-5.3-1.46-6.63-.96-.3.43-.61.43-.96,0-.83-.3-.83-.63,0-.96l-.96-.96c-.83-.28-.83-.61,0-.96.25-1.34,3.25-1.21,4.74-.96.18-.86.5-.83.96,0,1.01-.76,1.94-1.06,2.85-.96.23-.86.53-.83.96,0,.61-1.01,1.24-1.31,1.89-.96v.05Z"/>
  <path class="cls-34" d="M71.04,57.83c.91-.86,1.34-.3.96.96.13.23-.13.68,0,.96l.96.96c.1.28-.13.68,0,.96l.96.96v1.92c.35,1.36.68,1.99.96,1.89.28-.48.61-.48.96,0,.1.55-.08,1.29,0,1.89s-.03,1.26,0,1.89c-1.19.48-2.45,1.11-3.81,1.89l-1.69-1.24c.23-3.2.55-8.22-2.09-10.16-.43-.3-.43-.61,0-.96-.38-.5-.08-1.13.96-1.89-.08-1.16.55-1.16,1.89,0l-.05-.03Z"/>
  <path class="cls-8" d="M52.06,49.29c1.19-1.21,2.14-.25,2.85,2.85,1.06,1.89,3.45,2.52,7.19,1.92l1.36,1.89c1.29.23,4.01-4.21,3.23-6.78,5.45-4.11,5.98,2.04,6.18,6.28l2.95,1.46c1.59-.63,1.82-.58.96.96-1.36.25-3,.93-4.74.96-.18-.3-.71-.58-.96-.96-1.11-.2-1.54-.91-1.89-1.89.03-.61.05-1.29,0-1.89.58-.76.98-1.46,0-.96-1.87.45-2.09,3.05-2.85,3.81l-.96.96c-.25.2-1.97.4-2.85.96-2.62,2.42-5.65.53-7.59-1.89-1.24-2.07-3.18-4.89-3.81-7.59.28-.83.58-.81.96,0l-.03-.08Z"/>
  <path class="cls-8" d="M72,72.06c1.03-3.4,1.49-6.03,3.81-1.89.08,1.31.05,1.64,0,2.85-.83,1.26-.83,2.19,0,2.85,0,.3.03.63,0,.96-.73,1.41-1.24,2.09-2.85,1.89-.28.83-.58.81-.96,0-1.66.48-2.17-1.66-.96-2.85-.23-1.08.08-2.34.96-3.81Z"/>
  <path class="cls-8" d="M89.07,29.34c-.43.38-.43.68,0,.96.58,8.07-3.45,11.83-3.53,13.77,0,.66,1.49,1.69,1.61,2.37-1.66-1.13-4.64-2.7-2.85-4.74.5-.15,1.29.1,1.89,0,.38-5.29,2.75-10.72.96-16.14,2.24,1.29,1.61,1.59,1.89,3.81l.03-.03Z"/>
  <path class="cls-56" d="M74.85,123.32c-.03.61-.35.91-.96.96-1.24.15-2.55-.1-3.81,0-.48.81-.48,1.46,0,1.89,0,.33-.08.73,0,.96.28,1.16.91,2.09,1.89,2.85.48.25.45.58,0,.96-.13.81-1.34.66-1.89,0-1.16.76-1.64.3-.96-.96l-.96-.96c-.86-.25-.83-.58,0-.96l-.96-1.89c-.83-.33-.83-.63,0-.96-.81-.58-1.13-1.21-.96-1.89,1.61.3,6.61-2.75,8.55,0h.05Z"/>
  <path class="cls-2" d="M60.61,112.88l-1.89.96c1.11.4,1.44,1.99.96,4.74-.28.53-.61.53-.96,0-.61-.28-.58-.61,0-.96-.58-.13-.96-.28-.96-.96v-.96l-.96-.96c-.15-.61-.81-1.29-.96-1.89.45-.38.45-.68,0-.96-.08-.3.05-.66,0-.96-.83-.3-.83-.63,0-.96-1.06-1.92-.43-5.19,1.89-4.74.28-.83.58-.81.96,0,.35,1.84,2.09,6.51,1.89,7.59l.03.05Z"/>
  <path class="cls-18" d="M62.5,58.77c-.93.58-1.21,3.48-4.08,2.75-2.37-.61-2.67-3.23-3.5-4.64l7.59,1.89Z"/>
  <path class="cls-18" d="M81.48,123.32s1.24.63.55,1.84c-1.61,2.87-6.35,2.92-6.25-.88.93-.88,1.87-1.51,2.85-1.89-.23-.86.1-1.16.96-.96,1.64-1.92,2.27-1.29,1.89,1.89Z"/>
  <path class="cls-18" d="M38.82,14.14c-3-2.34,3.5-7.29,4.72-3.28.93,3.13-3.56,4.19-4.72,3.28Z"/>
  <path class="cls-38" d="M53.97,42.63c.08.61-.08,1.29,0,1.89,1.44-.86,2.65,0,3.78,0,6.25,1.77,2.87,5.29-2.22,2.45-1.21,0-2.37.78-3.48,2.32h-.96c-.15-.63-.1-2.14,0-2.85l.96-.96c-.81-.3-.81-.61,0-.96.5-1.94,1.13-2.57,1.89-1.89h.03Z"/>
  <path class="cls-18" d="M75.79,117.62c-2.98-4.36,2.55-7.03,4.74-2.85.15.88-.48,1.82-1.89,2.85-.48.15-1.31-.1-1.89,0-.3.43-.61.43-.96,0Z"/>
  <path class="cls-2" d="M61.56,92c-1.08,2.45-3,6.28-3.81,8.55v1.89c-.15,1.77-.78,2.72-1.89,2.85.15-1.51-.23-3.28,0-4.74l.96-.96c.13-.55-.15-1.36,0-1.89l.96-.96c.08-.28-.08-.66,0-.96l.96-1.89c.08-.3-.08-.66,0-.96l.96-.96c.08-.58,0-1.29,0-1.89.28-.83.58-.81.96,0,.71-.1,1.01.53.96,1.89l-.05.03Z"/>
  <path class="cls-18" d="M67.26,125.21c.13.25-.13.68,0,.96l.96,1.89c.13.25-.13.71,0,.96l.96.96c.33.28.53.76.96.96.83.28.81.58,0,.96h-1.89c-.76-4.44-7.06-1.87-3.81-8.55,1.13,0,2.09.61,2.85,1.89l-.03-.03Z"/>
  <path class="cls-33" d="M69.15,91.04c-.23.63-.81,1.31-.96,1.89-.08.3.08.66,0,.96-.43.38-.43.68,0,.96-.15.63-.83,1.34-.96,1.89-.88-.1-1.34.63-1.89.96-.28.61-.61.58-.96,0l2.85-8.55c1.21-.71,2.4.66,1.89,1.89h.03Z"/>
  <path class="cls-62" d="M66.3,104.33c-.18,2.5,0,5.09,0,7.59-.28.73-.58.71-.96,0-.15-.43.28-1.21-.1-1.77l-1.79.83c.18-1.49-.28-3.4,0-4.74,0-1.01.33-1.64.96-1.89.25-.18,1.36.13,1.89,0v-.03Z"/>
  <path class="cls-18" d="M63.46,84.39c.78.25.76.58,0,.96l-1.89,1.89c.81.3.81.61,0,.96l-.96.96c.78.3.78.63,0,.96h-.96c.05-3.68-3.03-5.8,2.85-7.59.13.58.88,1.36.96,1.89v-.03Z"/>
  <path class="cls-35" d="M55.87,131.84h3.81c1.19-1.84,2.6-1.84,3.81,0h6.63c-4.46,1.59-12.46,1.59-17.07,0,.33-1.16,2.14-1.03,2.85,0h-.03Z"/>
  <path class="cls-18" d="M102.36,8.46q-.18.25,0,0c.55.23,2.75-.61,1.89,1.41-.3.73-2.29,2.57-3.3,2.37l-1.44-4.74c1.56-.55,2.09.63,2.85.93v.03Z"/>
  <path class="cls-8" d="M51.13,34.11c2.98-.4,1.13.58,1.56,2.65s1.01,3.83,1.29,5.88l-1.89,1.89c-.71-.45-.91-3-.96-4.74-.13-1.87.05-3.81,0-5.7v.03Z"/>
  <path class="cls-8" d="M61.56,70.16c.61,1.31.66,3.38,0,4.74.98,1.56.55,2.12-.96.96-.83-.33-1.46-.96-1.89-1.89-.08-1.13-.23-3.88,0-4.74l.96-.96c.86,0,1.19,1.44,1.89,1.89Z"/>
  <path class="cls-18" d="M46.39,70.16q.18-.25,0,0c-4.44-4.56,7.19-3.56,2.37.96-1.64.4-1.61-.18-2.37-.96Z"/>
  <path class="cls-18" d="M58.71,130.91c.93-4.87,4.61-3.58,4.74.96h-3.81c-.55-.13-.96-.3-.96-.96h.03Z"/>
  <path class="cls-18" d="M47.32,100.52c.68,7.29-3.53,7.29-2.85,0h2.85Z"/>
  <path class="cls-3" d="M72,78.71c.61.71.91.71.96,0,.18-.68.63-.98,0-1.89h2.85c-.03.3.05.63,0,.93l-.96.96c-.08.61.05,1.29,0,1.89.13,1.34.91,2.04,1.89,2.85v.96c-.28.63-.61.61-.96,0-2.7-2.12-4.59-3.86-6.63-6.63-.48-.98-.23-1.92.96-1.89.28-.71.58-.71.96,0-.08,1.84.66,1.97.96,2.85l-.03-.03Z"/>
  <path class="cls-18" d="M89.07,22.71c-1.97,1.97-5.77-1.79-3.78-3.78,1.51-1.54,5.32,2.24,3.78,3.78Z"/>
  <path class="cls-8" d="M89.07,130.91c1.06.38.71,2.24,1.13,2.65.73.66,1.97,0,2.65.2,0,4.89-5.77.96-6.18.96h-29.88c2.04,2.85-.76,2.8-1.89,0,8.02-1.84,20.35-1.19,29-1.01,3.96.08,5.87,3.3,5.17-2.8h0Z"/>
  <path class="cls-18" d="M83.37,119.51c-.5-.33-.5-.63,0-.96-.81-.3-.81-.61,0-.96l.96-.96c-1.74-.53-1.84-1.49,0-1.89.28-.83.58-.81.96,0,0,.5,1.64,1.71.86,4.14-.45,1.36-2.42,2.52-2.75.61l-.03.03Z"/>
  <path class="cls-18" d="M51.13,28.41c-.28,1.08.05,3.35,0,4.74-2.24-.08-2.87.78-2.87-1.44,0-3.96,2.17-2.65,2.87-3.3Z"/>
  <path class="cls-18" d="M52.06,44.55c-.08.33.1.71,0,.96l-.96.96c-1.56-.15-1.71-1.64-1.89-2.85l.96-1.89c-.08-.55.53-1.44.96-1.89.08,1.11,1.89.83.96,4.74l-.03-.03Z"/>
  <path class="cls-8" d="M84.33,130.91c-3.81.35-7.16.88-11.4.96-.76-1.01-.3-1.46.96-.96,2.95.58,7.26-.4,10.44,0h0Z"/>
  <path class="cls-18" d="M58.71,118.58c1.54,1.03,4.11,2.85,1.89,3.81-.15,0-1.29,1.94-2.4.03-.91-1.56-.15-3.43-.43-4.77h.96c.13.23-.13.71,0,.96l-.03-.03Z"/>
  <path class="cls-42" d="M82.44,97.67c-1.44-.66-.91-2.55-.96-3.81h.96c.1,1.24,0,2.55,0,3.81Z"/>
  <path class="cls-42" d="M79.59,87.23c.03.33-.08.68,0,.96l.96.96c.35-.3.68,0,.96.96.1.58-.08,1.29,0,1.89s0,1.26,0,1.89c-1.16-.93-4.34-6.76-3.78-7.59.73-.13,1.39.93,1.89.96l-.03-.03Z"/>
  <path class="cls-8" d="M57.76,105.29c-2.12,1.03-2.22,2.52-1.89,4.74-2.07.81-2.67-.4-.96-1.89-.1-1.94.53-1.84.96-2.85.4-.96,1.34-1.94,1.89-2.85.78.71.55,2.02,0,2.85Z"/>
  <path class="cls-18" d="M55.87,110.03c.03.3-.05.66,0,.96-1.82.15-3.63.18-4.72-1.44.15-.63.76-.35.93-.48.61-.66,1.26-.98,1.89-.96h.96c.05.96.93,1.69.96,1.89l-.03.03Z"/>
  <path class="cls-8" d="M79.59,19.86v2.85c-.1.61-.23,1.03-.96.96-4.39,4.89-3.05-2.17,0-3.81h.96Z"/>
  <path class="cls-53" d="M63.46,79.65c-.1.61-.25,1.01-.96.96h-.96c-.18-.78.13-1.97,0-2.85l-.96-.96c-.86-.18-.81-.5,0-.96,0-.08.93-.35.96-.96.28-.83.58-.81.96,0,.05,1.69.63,3.15.96,4.74v.03Z"/>
  <path class="cls-8" d="M64.41,121.4c.33.08.73-.1.96,0l.96,1.89c.33.63.66,1.26.96,1.89-.98-.5-1.89-1.46-2.85-1.89-1.56-.71-2.09-.78-3.81-.96-.05-1.59-1.21-2.57-1.89-3.81h.96c1.79-.35,3.38.58,4.74,2.85l-.03.03Z"/>
  <path class="cls-18" d="M58.71,17.97c.78.28.76.58,0,.96-.08.61.13,1.34,0,1.89-.3.43-.61.4-.96,0-.28-.55-2.65-.88-1.89-2.85.83-.18,2.24.23,2.85,0Z"/>
  <path class="cls-18" d="M72.94,100.52v.96c.83.28.81.58,0,.96-.86.25-.71.13-.96.96-.98,1.34-2.32,2.77-2.85,0-.71-.28-.68-.58,0-.96,1.11-.91,2.32-1.71,3.81-1.89v-.03Z"/>
  <path class="cls-18" d="M92.4,10.38c1.69,0,1.61,3.78,0,3.76s-1.61-3.78,0-3.76Z"/>
  <path class="cls-18" d="M79.59,86.3c.15-2.09,0-2.85,2.85-1.41.08,1.74-1.39,2.42-2.85,2.37-.03-.3,0-.66,0-.96Z"/>
  <path class="cls-15" d="M62.5,69.21c-.28.83-.58.81-.96,0,.05-.3-.05-.63,0-.96l.96-1.89c.13-.28-.13-.73,0-.96l1.92-.45c.4,1.51-1.77,3.4-1.92,4.26Z"/>
  <path class="cls-16" d="M75.79,73.95c-.05.63.05,1.26,0,1.89-4.46.48-3.83-1.89,0-2.85v.96Z"/>
  <path class="cls-8" d="M69.15,106.22c.76.15,1.39.78,1.89,1.89.91-.78,3.48-.55,4.74,0-3.5,3.03-9.43-.61-8.4-5.04l.81-.66c.3,1.06.61,2.32.96,3.81h0Z"/>
  <path class="cls-1" d="M62.5,74.9h-.96c.03-1.51-.2-3.33,0-4.74.05-.3-.05-.63,0-.96h.96c-.25,1.54-.05,4.01,0,5.7Z"/>
  <path class="cls-14" d="M81.48,102.44c0,.33.08.68,0,.96l-1.92.45.98-4.26h.93c0,.93.08,1.89,0,2.85Z"/>
  <path class="cls-18" d="M58.71,73.95c2.02-.23,2.12-.13,1.89,1.89v.96c-.43-.13-1.36.3-1.77-.13-.45-.5-.08-1.92-.13-2.72Z"/>
  <path class="cls-8" d="M84.33,104.33l.96.96c.15.45-.08,1.29,0,1.89-.63.96-.73,1.89,0,2.85.03.3-.03.63,0,.96,0,1.49-1.24,1.21-1.89,0,.18-.86.1-2.82,0-3.81.58-.76.98-1.46,0-.96-.03-.2-2.67-2.82.96-1.89h-.03Z"/>
  <path class="cls-8" d="M88.12,49.29l-.96.96c-.25.1-.66-.1-.96,0,.13-.76.93-1.82.96-2.85.98-.08,1.08,1.13.96,1.89Z"/>
  <path class="cls-8" d="M87.18,51.18c-1.61,3.61-2.27,2.8-3.81,4.74-.66.28-1.24.68-1.89.96-1.77-1.21-.78-1.46.96-1.89-.83-.28-.81-.58,0-.96.28-.83.58-.81.96,0,.5-.61,1.13-1.24,1.89-1.89-2.6-.35-2.24-.86,0-1.89.3-.08.68.08.96,0-.08.43.38,1.13.96.96l-.03-.03Z"/>
  <path class="cls-18" d="M55.87,131.84h-2.85c-.45-.3-.43-.61,0-.96,1.56-1.13,2.12-.93,2.85.96Z"/>
  <path class="cls-8" d="M50.17,41.7c.03.23,2.9,2.12-.96,1.89-.1-.68.4-1.46.96-1.89Z"/>
  <path class="cls-66" d="M69.15,103.37c2.12-.1,2.12.86,0,2.85-1.21-.3-1.24-3.13-.96-3.81.08-.15.78.15.96,0v.96Z"/>
  <path class="cls-8" d="M83.37,119.51c-.43.93-1.49.13-1.89,3.81l-1.89-1.89c.23-1.41,2.57-4.03,3.81-2.85-.13.25.13.68,0,.96l-.03-.03Z"/>
  <path class="cls-18" d="M73.89,130.91l-.96.96h-.96c-.83-.28-.81-.58,0-.96-.08-.33.13-.76,0-.96.08.08,1.79.93,1.89.96h.03Z"/>
  <path class="cls-43" d="M75.79,107.18c.4-.05,3.15-2.82.96.96-.28.08-.63-.05-.96,0-.83-.28-.81-.58,0-.96Z"/>
  <path class="cls-8" d="M53.97,108.11c-.43.71-1.46.68-1.89.96l1.44-1.89.48.93h-.03Z"/>
  <path class="cls-65" d="M85.29,110.03c-1.44-.13-1.44-2.72,0-2.85.1.93-.08,1.92,0,2.85Z"/>
  <path class="cls-72" d="M74.85,65.42c.43.3.4.61,0,.96l-.93.96c-.08-.93.08-1.92,0-2.85.28-.45.61-.45.96,0,.08.28-.08.66,0,.96l-.03-.03Z"/>
  <path class="cls-41" d="M83.37,113.81c-.43-.96,0-1.34.96-.96.91,1.19.4,1.71-.96.96Z"/>
  <path class="cls-41" d="M85.29,110.96c.05.63-.03,1.26,0,1.89-.28.83-.58.81-.96,0-1.34,1.26-1.82.73-.96-.96.08-.25-.08-.63,0-.96h1.89l.03.03Z"/>
  <path class="cls-41" d="M84.33,114.77c-.08.61.13,1.36,0,1.89l-.96.96c-.1.3.1.71,0,.96-1.36.81-2.72,1.66-3.81,2.85-.3.33-.66.63-.96.96-.23,1.16-1.59,1.26-1.89,0,2.12-1.66,4.41-3.78,5.67-6.18l-.93-.45c-.63-.96.76-1.97,1.89-1.89,1.01-.48,1.41-.05.96.96l.03-.05Z"/>
  <path class="cls-8" d="M84.33,112.88c-.61.03-.71.73-.96.96-.71.61-1.56,1.66-1.89,1.89-.76.55-2.12,1.66-2.85,1.89-.86-1.21-1.74-3.15,0-2.85,0,3.66.55,1.31,1.92,0,.71-.71,2.57-2.04,2.85-2.85l.96.96h-.03Z"/>
  <path class="cls-8" d="M85.29,114.77h-.96c-.71.1-1.03-.25-.96-.96,0-.08.96-.03.96-.96h.96c.03.63-.03,1.26,0,1.89v.03Z"/>
  <path class="cls-18" d="M71.04,57.83c-.58.13-1.46-.18-1.89,0,.13-.48-.03-1.29,0-1.89,1.03.3,1.36,1.11,1.89,1.89Z"/>
  <path class="cls-8" d="M78.63,122.36c-.71.81,1.59,1.54-2.85,1.89-.63.05-1.29-.08-1.89,0,.28-.33.58-.73.96-.96.58-.33,1.13-.35,1.89-.96h1.89v.03Z"/>
  <path class="cls-8" d="M56.82,25.56c-.61-.1-2.42-.15-2.85,0,2.6-1.56,1.64-.1,2.85,0Z"/>
  <path class="cls-4" d="M77.7,85.34s-.48.73-.96.45c-.58-.35-.68-1.19-.96-1.39h.96l.96.96v-.03Z"/>
  <path class="cls-8" d="M79.59,9.42l-1.41.93-.48-.93c.35.23,1.54-.23,1.89,0Z"/>
  <path class="cls-18" d="M79.59,23.67c.63.3.63.63,0,.96-1.64.61-1.92.53-.96-.96l.96-.96c0,.3.05.66,0,.96Z"/>
  <path class="cls-37" d="M69.15,54.03c-.03-.3,0-.63,0-.96l.48-.93c.98.1.76,1.97-.48,1.89Z"/>
  <path class="cls-49" d="M65.35,63.51l-.48.93c-.63-.15-.43-.93-.48-.93v-.96c.3-.4.61-.4.96,0,.81.3.81.63,0,.96Z"/>
  <path class="cls-8" d="M61.56,68.27c.25-1.54.81-1.56.96-1.89l-.96,1.89Z"/>
  <path class="cls-18" d="M81.48,90.08c-.53-.13-.68-.68-.96-.96-.38-.3-.38-.61,0-.96,1.16.15.81,1.13.96,1.89v.03Z"/>
  <path class="cls-8" d="M57.76,95.78c.33-1.24.93-1.79.96-1.89l-.96,1.89Z"/>
  <path class="cls-44" d="M83.37,107.18c-.03-.3.05-.66,0-.96l.48-.93c.98.1.76,1.97-.48,1.89Z"/>
  <path class="cls-60" d="M66.3,113.81c-.28-.61-.63-1.03-.96-1.89h.96v1.89Z"/>
  <path class="cls-8" d="M70.09,126.17l-.93-.48.93-1.41v1.89Z"/>
  <path class="cls-8" d="M72,129.95c-.3-.45-2.34-.93-1.89-2.85.05.15,1.77,2.75,1.89,2.85Z"/>
  <path class="cls-18" d="M87.18,50.22c.15-.05.4-.91.96-.96-.2,1.29-.93.88-.96.96Z"/>
  <path class="cls-18" d="M65.35,57.83l.96-.96c-.33.33-.61.63-.96.96Z"/>
  <path class="cls-8" d="M68.2,59.73c-.5,1.13-1.44,2.07-2.85,2.85h-.96c1.08-1.64,2.92-4.01,4.74-4.74-.13.48-.63,1.44-.96,1.89h.03Z"/>
  <path class="cls-8" d="M73.89,62.57c-.38-.23-.78-.55-.96-.96h.96v.96Z"/>
  <path class="cls-8" d="M74.85,64.47h-.96c-.03-.3,0-.63,0-.96.43.15.81.5.96.96Z"/>
  <path class="cls-8" d="M75.79,66.36h-.96v-.96c.45.13.86.5.96.96Z"/>
  <path class="cls-18" d="M58.71,69.21l.96-.96s-.93.88-.96.96Z"/>
  <path class="cls-8" d="M61.56,77.75c-.35-.2-.71-.88-.96-.96,0,.2.91.66.96.96Z"/>
  <path class="cls-8" d="M74.85,78.71l.96-.96c-.08.61-.93.88-.96.96Z"/>
  <path class="cls-8" d="M76.74,83.45c-2.45-1.24-2.04-1.24-1.89-2.85l1.89,2.85Z"/>
  <path class="cls-8" d="M80.53,89.15c-.25-.25-.76-.33-.96-.96h.96v.96Z"/>
  <path class="cls-8" d="M58.71,92.93c.15-.66.93-.88.96-.96l-.96.96Z"/>
  <path class="cls-8" d="M68.2,94.85l-.93-.48.93-.48c-.08.3.08.66,0,.96Z"/>
  <path class="cls-18" d="M56.82,97.67c.2-.71.93-.88.96-.96l-.96.96Z"/>
  <path class="cls-18" d="M55.87,100.52c.13-.73.93-.88.96-.96l-.96.96Z"/>
  <path class="cls-18" d="M85.29,105.29l-.96-.96c.76.2.71.15.96.96Z"/>
  <path class="cls-8" d="M55.87,112.88c-.08-.3.08-.66,0-.96l.93.48-.93.48Z"/>
  <path class="cls-8" d="M57.76,115.73h-.96v-.96s.78.3.96.96Z"/>
  <path class="cls-18" d="M57.76,116.66c-.2-.3-.73-.55-.96-.96h.96c.08.3-.08.66,0,.96Z"/>
  <path class="cls-8" d="M58.71,117.62h-.96c-.08-.3.08-.66,0-.96.2.3.73.55.96.96Z"/>
  <path class="cls-8" d="M75.79,118.58v-.96h.96c-.1.45-.53.91-.96.96Z"/>
  <path class="cls-8" d="M53.02,131.84h-.96c.23-.58.55-.66.96-.96v.96Z"/>
  <polygon class="cls-8" points="59.65 131.84 58.71 131.84 58.71 130.91 59.65 131.84"/>
  <path class="cls-8" d="M99.51,132.8c.18,1.69-3.18,5.07-4.74,3.81.38-.55.55-1.44.96-1.89.55-.66,2.92-2.37,3.81-2.85v.96l-.03-.03Z"/>
  <path class="cls-8" d="M53.02,134.69h-.96c0-.3-.05-.66,0-.96l.96.96Z"/>
  <path class="cls-8" d="M59.65,18.9h-.96v-.96c.96-.4,1.89-1.39,2.85-1.89.2,1.26-.28,3.63-1.89,2.85Z"/>
  <path class="cls-8" d="M57.76,21.75c-.13-.28.13-.71,0-.96h.96c-.1.45-.5.81-.96.96Z"/>
  <path class="cls-8" d="M58.71,23.67s-.68-.25-.96-.96l.96.96Z"/>
  <path class="cls-8" d="M80.53,24.6c-.23.81-.55.78-.96,0,.1-.08-.05-.63,0-.96h.96v.96Z"/>
  <path class="cls-8" d="M58.71,25.56v-.96l.93.48-.93.48Z"/>
  <path class="cls-18" d="M52.06,27.45c.53-.43.73-1.21,1.89-1.89-.13.05-1.82,1.79-1.89,1.89Z"/>
  <path class="cls-8" d="M51.13,28.41c.33-.3.61-.68.96-.96-.28.38-.93.86-.96.96Z"/>
  <path class="cls-18" d="M89.07,30.3l-.93-.48.93-.48c.05.3,0,.63,0,.96Z"/>
  <path class="cls-46" d="M68.2,61.62c2.6,1.99,1.71,8.72-.96,10.44.53.86.53,1.49,0,1.89l-1.89-10.44c.05-.3-.05-.66,0-.96.83-.88,1.94-1.92,2.85-.96v.03Z"/>
  <path class="cls-27" d="M65.35,84.39c.2.43.76,1.56.96,1.89-3.33-.43-3.88,3.73-4.74,5.7-.88-.3-.96-1.08-.96-1.89,0-.3-.05-.68,0-.96l.96-.96c.13-.25-.15-.76,0-.96.35-1.74.98-2.37,1.89-1.89.08-.25.03-.68,0-.96h1.89v.03Z"/>
  <path class="cls-57" d="M72.94,102.44v-.96c2.17-1.77.03-6.38-.96-8.55,2.72,2.67,3.73,4.74,2.7,8.9-.53,2.14-1.64.55-1.77.61h.03Z"/>
  <path class="cls-73" d="M72,92.93c-.73-.73-2.09-1.19-2.85-1.89-.58-.55-1.51-1.31-1.89-1.89-.63-.98-.61-2.27-.96-2.85,2.12.28,4.84,4.77,5.7,6.63Z"/>
  <path class="cls-57" d="M72,103.37s.86.58.5.96c-1.24,1.29-3.53.2-1.44,2.82.83.28.81.58,0,.96-.93-.23-1.61-.98-1.89-1.89-.23-.71.15-1.99,0-2.85h2.85-.03Z"/>
  <path class="cls-22" d="M75.79,107.18v.96c-1.01.13-3.91.2-4.74,0v-.96c1.51-.15,3.28.23,4.74,0Z"/>
  <path class="cls-64" d="M70.09,75.86c-.23.71,0,1.56-.96,1.89-.25-.35-.78-.66-.96-.96-1.49-3.78,2.37-5.22,1.89-.96l.03.03Z"/>
  <path class="cls-13" d="M67.26,74.9v-2.85c3.03-2.12,3.73,2.72,0,2.85Z"/>
  <path class="cls-28" d="M72,72.06c-.43,1.54-1.06,2.8-1.89,3.81-1.92-1.26-2.07-1.54-1.89.96-.25-.45-.91-.25-.96-1.89,0-.18.91-.78.86-1.44-.08-.78-.86-1.26-.86-1.41-.13-3.5.58-6.98.96-10.44-.81-.33-.81-.63,0-.96,2.07-1.79,2.7.33,3.33,1.92.98,2.55,1.08,6.83.48,9.48l-.03-.03Z"/>
  <path class="cls-74" d="M63.46,81.56c-.25-.3-1.16-.15-.96-.96l.96-.96c.13.58-.15,1.41,0,1.89v.03Z"/>
  <path class="cls-54" d="M64.41,83.45c-.15-.38-.61-.78-.96-1.89.28.33,1.51.1.96,1.89Z"/>
  <path class="cls-55" d="M65.35,84.39l-.48.93-.48-.93v-.96c.1.3.78.61.96.96Z"/>
  <path class="cls-29" d="M76.74,16.05v.96c1.71.76.1,7.39-.4,8.27-3.03.68-6.05,1.08-9.08,1.24-.3.83-.61.83-.96,0-1.39.81-2.34.81-2.85,0-.3-.33-.66-.61-.96-.96-4.66-5.32.03-14.95,3.43-5.35l.38-1.31q.79-.84,0,0c-1.66,1.06-2.5-2.62-1.89-3.81-.25-.61.08-1.26.96-1.89.23-.1.63.1.96,0,3.15-4.44,8.7-1.31,10.44,2.85h-.03Z"/>
  <path class="cls-8" d="M66.3,13.23c-.35-2.17,1.82-2.22,2.57-3.18s-.58-3.83,3.61-2.55c.86.25.2,1.99.66,2.62,1.79,2.45,3.28-2.19,3.61,5.95-5.42-1.64-4.46-4.56-10.44-2.85h0Z"/>
  <path class="cls-61" d="M64.41,15.12c.05.35,1.34,3.05,1.89,3.81-1.01-1.01.83-2.95,1.89-1.89s-.88,2.9-1.89,1.89c.53.68,3.3,1.71,1.89,2.85-.4.33-2.14-.05-2.87-.45-2.75-1.54-.13-4.31-2.8-5.24-1.56,3.18.23,3.83.93,6.63l-2.85-1.41,1.92,4.26c-1.44-1.74-3.5-3.78-2.85-6.63.18-.81,1.46-1.94,1.89-2.85.63-.33,1.26-.63,1.89-.96.28-.48.61-.45.96,0Z"/>
  <path class="cls-61" d="M67.26,26.49c-.53-5.47,1.36-1.03,3.33-1.29,1.59-.2,2.9-1.84,5.19-.61-1.13-2.37-.68-3.76-3.35-1.92.15-3.66-3.93-.83-3.28-6.61,1.61-.4.58,1.41,1.03,1.79.61.5,4.06-2.14,4.64,1.03l-2.85.96,4.26,2.85c.91-1.44.45-3.93.48-5.7h.96l.96,1.89c0,.3.08.71,0,.96-.28,1.08-2.22,2.65-1.92,4.26.18,1.24,1.44-.43,1.92-.45.08,0,.58,1.19.96.96.68,2.85-1.66,3.71-3.81,1.89.1,4.99-5.7,3.38-7.59,0-.3.81-.61.81-.96,0l.03-.03Z"/>
  <path class="cls-8" d="M78.63,18.9l-.96-1.89c1.19.18.93,1.01.96,1.89Z"/>
  <path class="cls-8" d="M64.41,15.12h-.96c.4-.91,1.01-1.46,1.89-1.89-.13.55-.98,1.56-.96,1.89h.03Z"/>
  <path class="cls-23" d="M60.61,112.88c1.97,2.02,4.94,3.28,6.63,5.7-.88.05-2.7,1.11-2.82.96-.58-.68-.33-5.45-4.77-4.74l.96,3.78,1.87-1.89,1.92,4.74c-2.27-.53-2.34-1.08-4.74-2.85-.1-1.61-.43-3.23-.96-4.74-.05-1.46.66-1.54,1.89-.96h.03Z"/>
  <path class="cls-11" d="M58.71,105.29h-.96c-.05-.93.08-1.92,0-2.85-.1-1.11-.55-.33,0-1.89,1.19,1.46.68,3.25.96,4.74Z"/>
  <path class="cls-6" d="M64.41,104.33s-.93,1.79-.96,1.89v-2.85l.96.96Z"/>
  <path class="cls-70" d="M64.41,97.67h.96s.13.93-.48.93l-.48-.93Z"/>
  <path class="cls-36" d="M80.53,24.6c.88.08,5.85,2.17,6.23,2.8,1.99,3.33-6.81,8.42-6.71,1.94-2.34.58-2.29,2.8-3.33,3.78-1.21.03-1.64-.81-1.89-1.89-.28-1.19.05-2.77.96-4.74.83-.38,3.58-1.87,3.81-1.89.28-.05.66,0,.96,0h-.03Z"/>
  <path class="cls-17" d="M72,38.85c1.36.53,1.66,1.49.96,2.85.4-.58.71-.28.96.96,2.7,1.66,4.56,1.59,7.59.96-.63,1.36,1.61,3.61-2.85,2.85-.91,2.72-7.34,1.01-6.63-1.89-1.74-1.41-2.7-2.67-2.85-3.81-.58-1.99-.33-3.81,1.89-3.81,1.71-2.04,2.57.35.96,1.89h-.03Z"/>
  <path class="cls-40" d="M68.2,26.49c3.93-.4,3,1.26,5.24,1.89.15.05.33-.98,2.34-1.89,4.14,1.79-.18,3.23-.96,4.74,1.36,1.16.68,2.42-.96,2.85.66-1.74,1.51-1.87,1.89,0,.48.61.98,3.78.91,4.16-.1.68-1.41.53-1.56.78-.76,1.24,2.22.68-1.24,1.69-.15.78-.48,1.08-.96.96-2.02-2.19-.96-1.51-.96-2.85,0-2.07.63-3.66,1.89-4.74-.35,1.82-.83,2.98-2.85,2.85-.61,1.29-1.29,2.52-1.89,3.81-.28.81-.58.81-.96,0-.83-.18-.81-.5,0-.96-1.66-2.09-1.99-3.68-.96-4.74-.35-2.29,1.44-3.83,3.81-3.81q.96-.35,0,0c-1.89,1.21-3.15,1.21-3.81,0-.61-.3-.61-.63,0-.96-1.56-.83-.43-3.2.96-3.81l.05.03Z"/>
  <path class="cls-26" d="M74.85,31.26c2.02-.23,2.12-.13,1.89,1.89-.28.28-.88.93-.96.96-.48.15-1.31-.13-1.89,0,.23-1.08.45-1.87.96-2.85Z"/>
  <path class="cls-5" d="M73.89,42.63c-.33-.2-.66-.63-.96-.96.15-.43.53-.83.96-.96v1.92Z"/>
  <path class="cls-76" d="M69.15,40.74c1.49.76,2.4,2.24,2.85,3.81-2.14,1.84-4.36,3.43-6.63,4.74,1.19,1.13.58,1.71-.96,1.89-.28.61-.61.58-.96,0-.43,3.63-7.26,4.26-8.55.96-.08-.13-1.36.2-1.61-.18-.18-.28,1.06-1.97-1.24-2.67.91-8.45,4.79.18,7.59-1.89,1.26-.93-1.26-2.65-1.89-2.85,1.24,0,2.62.13,3.81,0q.76,1.46,0,0c.15,0,1.87-.71,2.85-.96,1.11-.23,1.44.4.96,1.89l.96-.96c-.18-.91.45-1.54,1.89-1.89-.78-.13-.63-1.31,0-1.89.23.13.71-.13.96,0h-.03Z"/>
  <path class="cls-59" d="M61.56,41.7c-1.49-6.08-1.74-2.19-6.63-3.81l.96-7.59c2.09.58,2.04,3.08,3.1,4.51.3.43,1.54.13,1.64.23,2.24-.33,4.16,5.65.96,6.63l-.03.03Z"/>
  <path class="cls-25" d="M62.5,32.19c.43,2.42.15,5.47,2.85,6.63.81.3.81.63,0,.96h-1.29c-1.01,1.13-.55,2.37-2.52,1.89,1.36-1.64.18-5.12-.96-6.63-.05-2.24-.63-3.28,1.89-2.85h.03Z"/>
  <path class="cls-47" d="M68.2,42.63c-.38,1.16-1.08,1.31-1.89,1.89l-.96.96c-.43-.03-.76.05-.93-.48v-1.41c.3-.08.66.08.93,0l.96-.96c.28-.1.66.08.96,0,.28-.83.58-.81.96,0h-.03Z"/>
  <path class="cls-63" d="M67.26,38.85c.63-.1.91.25.96.96v.96c-.25.81-.58.81-.96,0-.48-.23-1.77-.78-1.89-.96s.1-.63,0-.96c-.08-.3.08-.66,0-.96h.96l.96.96h-.03Z"/>
  <path class="cls-59" d="M59.65,39.81s.35,2.02-.45,1.89c-2.6-1.49-.63-2.98.45-1.89Z"/>
  <path class="cls-75" d="M68.2,42.63h-.96v-1.89c.25.13.71-.13.96,0-.03.61.15,1.49,0,1.89Z"/>
  <path class="cls-37" d="M65.35,43.59l.96-.96c-.3.1-.63.86-.96.96Z"/>
  <path class="cls-23" d="M66.3,123.32c-.4-.08-.78.08-.93-.48v-1.41c1.29.61.58,1.19.93,1.89Z"/>
  <path class="cls-8" d="M72,130.91v.96h-1.89v-.96c.4.18,1.31-.13,1.89,0Z"/>
  <path class="cls-9" d="M67.26,26.49c.2-.1.61.03.96,0,.63,1.71-.63,2.75-.96,3.81l-1.89,2.85c-.28.61-.61.61-.96,0,.03-1.44.43-3.4.96-4.74-1.24-1.26-.76-1.79.96-1.89.2-.13.66.13.96,0l-.03-.03Z"/>
  <path class="cls-68" d="M71.04,31.26c-1.49.98-2.52,2.7-3.81,3.81.38,2.6.18,2.62-1.89.96-.08-.55-.93-1.44-.96-1.89l1.89-.96c-.5-.83,0-1.77.96-1.89,1.31-.96,3,.05,3.81,0v-.03Z"/>
  <path class="cls-45" d="M68.2,39.78c-.33-.3-.63-.63-.96-.96l-.96-.96-.96-.96c-.08-.28.05-.63,0-.96.55-.38,1.44-.55,1.89-.96.45,1.56.83,3.1.96,4.74l.03.05Z"/>
  <path class="cls-61" d="M66.3,26.49c-.53.35-.73,1.31-.96,1.89-1.08-.25-1.34-1.34-1.89-1.89,3.68.73-.68-2.65,2.85-3.81v3.81Z"/>
  <path class="cls-71" d="M66.3,33.15c-.58.63-.93,1.01-1.89.96v-.96h.96c.28-.83.58-.81.96,0h-.03Z"/>
  <path class="cls-19" d="M66.3,37.89h-.96c-.08-.28.08-.66,0-.96.33.3.63.63.96.96Z"/>
  <path class="cls-8" d="M101.88,45.48c.61.33.61.63,0,.96v-.96Z"/>
  <path class="cls-8" d="M51.13,9.42c.66.33-.55,1.61-1.89.93-.66-.33.55-1.61,1.89-.93Z"/>
  <path class="cls-37" d="M65.35,49.29c-3.28-5.22,4.89-.98,3.81-6.63,1.59.78.38.98,2.85,1.89,1.92.71,4.66,1.49,6.63,1.89,1.87.38,2.7,1.46,5.7,0v2.85c-.66.71-5.77-1.61-4.74,1.89,2.19.61,3.91-.55,5.7-.93-.1.53.18,1.74,0,1.89-.5.71-1.13,1.34-1.89,1.89h-.96c-2.02-.05-3.28-.68-3.81-1.89-1.89-.98-3.58.88-1.89,1.89.3-1.94,4.79-1.21,2.85.96-.5,1.16-2.55,2.65-3.81,1.89-5.45,2.14-4.46-3.58-5.7-7.59-3.28.23-4.29,6.88-4.72,7.16-.91.58-1.64-.53-1.92-.53-1.71-1.46-.73-4.06,1.41-4.16l.48-2.5v.03Z"/>
  <path class="cls-30" d="M82.9,44.55c.61.33.61.63,0,.96v-.96Z"/>
  <path class="cls-51" d="M79.59,54.99c.63-2.02,2.19-1.99,2.85,0l-.96,1.89c-.25.1-.66-.1-.96,0l-2.85.96c-.3.08-.63-.05-.96,0l-.96-.96c1.24-.48,1.82-1.59,3.81-1.89h.03Z"/>
  <path class="cls-8" d="M80.53,56.88c-.91.28-1.46.63-2.85.96l2.4-1.87.45.93v-.03Z"/>
  <path class="cls-8" d="M72.94,60.68c-.3-.28-.78-.58-.96-.96.38.23.78.55.96.96Z"/>
  <path class="cls-20" d="M68.2,60.68c-.03.3.03.63,0,.96l-2.85.96c.35-1.74,2.4-2.17,2.85-2.85v.96-.03Z"/>
  <path class="cls-48" d="M54.91,52.14v-4.74c2.8,1.41,5.75,1.41,8.52,0,.76,4.46-1.39,2.27-4.24,2.85-1.41.28-3.33,1.64-2.37,2.85.25.33,5.55-2.24,6.63-1.89.43.48.76.48.96,0,.25-.38.08-1.51.96-1.89.4.63,2.67,1.11,1.89,1.89-.08.08-1.19-.18-1.51.33-.88,1.31-1.01,3.23-2.27,4.44-2.22.05-5.72-.05-7.94-.93-1.34-.53-.35-2.45-.61-2.87l-.03-.03Z"/>
  <path class="cls-24" d="M71.04,75.86h-.96c.5-1.69,1.84-3.58,1.89-3.81-.18.55-.93,3.61-.96,3.81h.03Z"/>
  <path class="cls-67" d="M72.94,78.71c-.15.61.45,1.92-.48,1.92s-.25-1.24-.48-1.92h.96Z"/>
  <path class="cls-8" d="M68.2,128.06l-.96-1.89c.23.5.66,1.29.96,1.89Z"/>
  <path class="cls-8" d="M69.15,129.95l-.96-.96c.13.25.66.68.96.96Z"/>
  <path class="cls-31" d="M60.61,112.88c-.23,1.29-.96,1.01-1.89.96-.61-1.77-2.14-3.58-1.89-5.7,1.99.88,2.19,3.13,3.78,4.74Z"/>
  <path class="cls-8" d="M51.13,46.44c.05-.43.5-.83.96-.96-.18.4.1,1.06-.96.96Z"/>
  <path class="cls-8" d="M63.46,85.34c-.35,1.26-1.54,1.41-1.89,1.89v-2.85l1.89.96Z"/>
  <path class="cls-8" d="M60.61,89.15c.1-.45.5-.81.96-.96-.18.35-.66.66-.96.96Z"/>
  <path class="cls-8" d="M102.36,8.46c.45.45-.88,1.51-.96.48,0-.33.73-.68.96-.48Z"/>
  <path class="cls-8" d="M46.39,70.16c-.45-.45.88-1.51.96-.48,0,.33-.73.68-.96.48Z"/>
  <path class="cls-8" d="M83.37,117.62c.13-.45.5-.78.96-.96-.1.45-.5.81-.96.96Z"/>
  <path class="cls-52" d="M78.63,52.14c1.11.53,4.41-1.34,3.81,1.89v.96c-.91.1-1.97-.13-2.85,0-.08-1.13-2.09-1.16-2.85-.96-1.79-.76-1.36-4.92,1.89-1.89Z"/>
  <path class="cls-51" d="M85.29,52.14c1.77.66-.43,2.27-1.89,1.89-.66-2.98,1.49-1.51,1.89-1.89Z"/>
  <path class="cls-50" d="M73.89,34.11c-.43,1.94-.48,3.76,0,5.7l-1.89-.96c0-.68-.03-1.97-.96-1.89.18-.35-.25-1.24.08-1.79l1.54.4c-1.16-2.32-.45-1.11,1.21-1.46h.03Z"/>
  <path class="cls-58" d="M61.56,44.55c.55-.23,1.92,1.16,1.89,1.89h-2.85s.86-1.84.96-1.89Z"/>
  <path class="cls-10" d="M65.35,45.48l.96-.96c-.28.2-.03,1.01-.96.96Z"/>
  <path class="cls-37" d="M63.46,51.18h.96c-.13.18.18.78-.48.93l-.48-.93Z"/>
  <path class="cls-21" d="M67.26,38.85l-.96-.96.96.96Z"/>
  <path class="cls-69" d="M67.26,31.26c-.33.78-.1.98-.96,1.89h-.96c0-1.39.53-2.45,1.89-2.85-.1.3.1.71,0,.96h.03Z"/>
  <path class="cls-51" d="M78.63,52.14c-2.02-.23-2.12-.13-1.89,1.89-.18.05-1.74,3.56-2.85.45-.68-1.94,2.72-.76,1.92-3.78-.23-.86-2.34.15-1.92-1.41,2.29-.73,4.03,2.5,4.74,2.85Z"/>
  <path class="cls-51" d="M72.48,53.07c.61.33.61.63,0,.96v-.96Z"/>
  <path class="cls-32" d="M71.04,29.34c-1.99.28-2.17.1-1.89-1.89l1.89,1.89Z"/>
  <path class="cls-7" d="M71.04,31.26c.23,0,1.21-1.36,1.89-.93v.93c-.58.13-1.61-.18-1.89,0Z"/>
</svg>