<?xml version="1.0" encoding="UTF-8"?>
<svg id="Livello_1" data-name="Livello 1" xmlns="http://www.w3.org/2000/svg" viewBox="0 0 141.73 141.73">
  <defs>
    <style>
      .cls-1 {
        fill: #a9a8a9;
      }

      .cls-2 {
        fill: #b3b2b1;
      }

      .cls-3 {
        fill: #8f8b93;
      }

      .cls-4 {
        fill: #fafafa;
      }

      .cls-5 {
        fill: #ababac;
      }

      .cls-6 {
        fill: #cccaca;
      }

      .cls-7 {
        fill: #bab9bc;
      }

      .cls-8 {
        fill: #ebebec;
      }

      .cls-9 {
        fill: #83848b;
      }

      .cls-10 {
        fill: #a5a4a5;
      }

      .cls-11 {
        fill: #fbfafa;
      }

      .cls-12 {
        fill: #d8d6d8;
      }

      .cls-13 {
        fill: #efeeed;
      }

      .cls-14 {
        fill: #9c9b9e;
      }

      .cls-15 {
        fill: #cccbcd;
      }

      .cls-16 {
        fill: #bdbbbd;
      }

      .cls-17 {
        fill: #8a848b;
      }

      .cls-18 {
        fill: #98979b;
      }

      .cls-19 {
        fill: #fefefe;
      }

      .cls-20 {
        fill: #a3a1a1;
      }

      .cls-21 {
        fill: #faf9fa;
      }

      .cls-22 {
        fill: #8e8a94;
      }

      .cls-23 {
        fill: #807e83;
      }

      .cls-24 {
        fill: #9e9a9f;
      }

      .cls-25 {
        fill: #f0f0f0;
      }

      .cls-26 {
        fill: #8a8c8b;
      }

      .cls-27 {
        fill: #838083;
      }

      .cls-28 {
        fill: #f8f7f7;
      }

      .cls-29 {
        fill: #bebdc0;
      }

      .cls-30 {
        fill: #b9b6ba;
      }

      .cls-31 {
        fill: #a9a5aa;
      }

      .cls-32 {
        fill: #dfdfe2;
      }

      .cls-33 {
        fill: #eeeded;
      }

      .cls-34 {
        fill: #b8b6b7;
      }

      .cls-35 {
        fill: #a7a2a7;
      }

      .cls-36 {
        fill: #a09da5;
      }

      .cls-37 {
        fill: #b2b2b6;
      }

      .cls-38 {
        fill: #98979e;
      }

      .cls-39 {
        fill: #858288;
      }

      .cls-40 {
        fill: #a6a6aa;
      }

      .cls-41 {
        fill: #f2f1f2;
      }

      .cls-42 {
        fill: #bababc;
      }

      .cls-43 {
        fill: #aeaeb3;
      }

      .cls-44 {
        fill: #bebbbe;
      }

      .cls-45 {
        fill: #fff;
      }

      .cls-46 {
        fill: #fbfbfb;
      }

      .cls-47 {
        fill: #f6f4f5;
      }

      .cls-48 {
        fill: #98949a;
      }

      .cls-49 {
        fill: #9f9aa3;
      }

      .cls-50 {
        fill: #a59fa5;
      }

      .cls-51 {
        fill: #f3f3f3;
      }

      .cls-52 {
        fill: #e2e2e2;
      }

      .cls-53 {
        fill: #bab8bc;
      }

      .cls-54 {
        fill: #bbb9bc;
      }

      .cls-55 {
        fill: #a5a3a8;
      }

      .cls-56 {
        fill: #e9e9eb;
      }

      .cls-57 {
        fill: #8d8a8f;
      }

      .cls-58 {
        fill: #afafb1;
      }

      .cls-59 {
        fill: #b4b2b3;
      }

      .cls-60 {
        fill: #afaeaf;
      }

      .cls-61 {
        fill: #d8d6d9;
      }

      .cls-62 {
        fill: #a6a5a8;
      }

      .cls-63 {
        fill: #abaaad;
      }

      .cls-64 {
        fill: #8d898f;
      }

      .cls-65 {
        fill: #aaa9ab;
      }

      .cls-66 {
        fill: #87838b;
      }

      .cls-67 {
        fill: #97979c;
      }

      .cls-68 {
        fill: #88858c;
      }

      .cls-69 {
        fill: #f0eff0;
      }

      .cls-70 {
        fill: #a9a7aa;
      }

      .cls-71 {
        fill: #8e8c91;
      }

      .cls-72 {
        fill: #949297;
      }

      .cls-73 {
        fill: #b0afb2;
      }

      .cls-74 {
        fill: #88888c;
      }

      .cls-75 {
        fill: #eae9eb;
      }

      .cls-76 {
        fill: #8e8c90;
      }

      .cls-77 {
        fill: #f0f0f1;
      }

      .cls-78 {
        fill: #d2d0d1;
      }

      .cls-79 {
        fill: #c4c3c5;
      }

      .cls-80 {
        fill: #afacaf;
      }

      .cls-81 {
        fill: #888589;
      }

      .cls-82 {
        fill: #96969b;
      }

      .cls-83 {
        fill: #9c9a9d;
      }

      .cls-84 {
        fill: #89888b;
      }

      .cls-85 {
        fill: #cdcacc;
      }

      .cls-86 {
        fill: #99989d;
      }

      .cls-87 {
        fill: #a09ca3;
      }

      .cls-88 {
        fill: #a8a7aa;
      }

      .cls-89 {
        fill: #a2a1a5;
      }

      .cls-90 {
        fill: #bcbcbf;
      }

      .cls-91 {
        fill: #f8f7f9;
      }

      .cls-92 {
        fill: #98969a;
      }

      .cls-93 {
        fill: #b5b1b7;
      }

      .cls-94 {
        fill: #acaaaf;
      }

      .cls-95 {
        fill: #c7c6c7;
      }

      .cls-96 {
        fill: #bebbbc;
      }

      .cls-97 {
        fill: #cac9ca;
      }

      .cls-98 {
        fill: #95959a;
      }

      .cls-99 {
        fill: #acaaad;
      }

      .cls-100 {
        fill: #b4b2b4;
      }

      .cls-101 {
        fill: #e4e3e4;
      }

      .cls-102 {
        fill: #8d8b8e;
      }

      .cls-103 {
        fill: #959395;
      }

      .cls-104 {
        fill: #b5b5ba;
      }

      .cls-105 {
        fill: #9a9999;
      }

      .cls-106 {
        fill: #c6c5c7;
      }

      .cls-107 {
        fill: #f9f9fa;
      }

      .cls-108 {
        fill: #dcdbdd;
      }

      .cls-109 {
        fill: #dbd9db;
      }

      .cls-110 {
        fill: #e9e9e9;
      }

      .cls-111 {
        fill: #99979b;
      }

      .cls-112 {
        fill: #e0e0e1;
      }

      .cls-113 {
        fill: #e5e5e6;
      }

      .cls-114 {
        fill: #a4a3a8;
      }

      .cls-115 {
        fill: #aeadb3;
      }

      .cls-116 {
        fill: #e7e6e7;
      }

      .cls-117 {
        fill: #a4a3a7;
      }

      .cls-118 {
        fill: #bebdbe;
      }

      .cls-119 {
        fill: #8a868b;
      }

      .cls-120 {
        fill: #aba7ab;
      }

      .cls-121 {
        fill: #b1adb2;
      }

      .cls-122 {
        fill: #a29fa3;
      }

      .cls-123 {
        fill: #aaaaab;
      }

      .cls-124 {
        fill: #f9f9f9;
      }

      .cls-125 {
        fill: #9d98a0;
      }

      .cls-126 {
        fill: #9d999f;
      }

      .cls-127 {
        fill: #959398;
      }

      .cls-128 {
        fill: #b9b8ba;
      }

      .cls-129 {
        fill: #a8a6ac;
      }

      .cls-130 {
        fill: #9e9ca2;
      }

      .cls-131 {
        fill: #b2afb3;
      }

      .cls-132 {
        fill: #b1afb1;
      }

      .cls-133 {
        fill: #9a999d;
      }

      .cls-134 {
        fill: #86868d;
      }

      .cls-135 {
        fill: #cbc8ca;
      }

      .cls-136 {
        fill: #bab7ba;
      }

      .cls-137 {
        fill: #e8e7e8;
      }

      .cls-138 {
        fill: #878689;
      }

      .cls-139 {
        fill: #bbb9b9;
      }

      .cls-140 {
        fill: #a5a3a4;
      }

      .cls-141 {
        fill: #edebec;
      }

      .cls-142 {
        fill: #dadadb;
      }

      .cls-143 {
        fill: #8c898e;
      }

      .cls-144 {
        fill: #aba5a7;
      }

      .cls-145 {
        fill: #efeeef;
      }

      .cls-146 {
        fill: #bebcbd;
      }

      .cls-147 {
        fill: #bcbabb;
      }

      .cls-148 {
        fill: #cdcccd;
      }

      .cls-149 {
        fill: #f1f1f1;
      }

      .cls-150 {
        fill: #9e9aa0;
      }

      .cls-151 {
        fill: #c8c4c7;
      }

      .cls-152 {
        fill: #f4f3f4;
      }

      .cls-153 {
        fill: #a09d9f;
      }
    </style>
  </defs>
  <path class="cls-137" d="M47.17,91.35c.53-1.37,1.12-1.94,1.74-1.74,1.15.37.59,1.7,0,2.62-.75,2.49-1.61,4.8-2.62,7,.18,1.7-.77,3.81-1.74,5.24.04,1.67-.24,3.44-.88,5.24-1.45,4.91-2.03,9.87-1.74,14.86,2.07,1.52,1.52,3.52-.88,2.62-1.06.15-1.5-.79-1.34-2.86l.46-11.12c-.13-.68-.77-1.48-.88-2.62.22-5.09.51-10.04.88-14.86.33-.75.64-.77.88,0,1.34.66,1.63,1.98.84,3.96l.04,5.66c-.75,3.46-.15,2.86,1.74-1.74-.79-2.66.24-5.53,1.74-7.86l1.74-4.36.02-.04Z"/>
  <path class="cls-19" d="M64.61,48.58c.68-2.29,1.28-2.29,1.74,0l.88,1.74c.35-.77.66-.79.88,0,4.8-1.78,3.92,6.72.88,3.5-1.94,0-3.7-.29-5.24-.88-1.43,1.52-5.79,3.52-7.86,3.5.46-1.41.88-2.82,2.62-2.64l-.86-.86c1.5-1.89,3.83-3.06,6.98-3.5-.75-.33-.77-.64,0-.88l-.02.02Z"/>
  <path class="cls-114" d="M40.15,71.31c0-4.07.02-8.17,0-12.24.33-.75.64-.77.88,0,.04,1.74-.04,3.5,0,5.24h.86c-.48-4.76,1.34-1.85,2.62-1.74.75.33.77.64,0,.88-2.58,2-1.45-.04-.88.07,1.67.33-.55,4.87-2.6,5.17,2.36,3.39,2.75,12.53,0,15.72-.66,2.22-1.45,2.31-1.74,0v-.88s.88-12.24.88-12.24l-.02.02Z"/>
  <path class="cls-52" d="M55.87,44.2c.64-.75,1.81-1.04,3.5-.88,1.26-.37,4.1.66,2.62,1.74.64.48.92,1.06.88,1.74,2.75,2.22-5.24,3.92-5.24,1.74-.75-.33-.77-.64,0-.88q1.98-.48,0,0c-.53.64-1.15.62-1.74,0,.07-.55-.09-1.19,0-1.74-1.04-.51-1.12-1.28,0-1.74l-.02.02Z"/>
  <path class="cls-80" d="M56.36,50.06c2.27-.73,7.2-2.07,8.26-.64l.88.86c-3.24-.24-5.51,1.61-7.86,2.64-2.14.92-7.36,4.91-8.74.88.33-.75.64-.77.88,0,1.45-1.04,4.93-3.22,6.58-3.74Z"/>
  <path class="cls-79" d="M51.51,24.09c.33-.75.64-.77.88,0l1.26.46c1.06,3.41,2.09,6.76,3.11,10.02.92.51,2.07,1.67,1.74,2.62h-.88c-.84,1.19-1.61.35-1.74-.88-1.28-4.43-3.9-7.38-4.36-12.24v.02Z"/>
  <path class="cls-60" d="M63.75,52.92c.75.33.77.64,0,.88.73.37.75.66,0,.88-4.78,3.39-9.56,6.8-14.34,10.17l-1.39-1.43c-1.17-.13-1.45-.42-.88-.88,3.7-.77,6.58-4.84,8.74-6.12,1.06-.64,6.94-3.35,7.86-3.5Z"/>
  <path class="cls-14" d="M52.39,12.71c.59.11.99.15.88.88,2.25,1.83,1.26,8.65-.88,10.48h-.88c-.35-3.81.15-7.64.88-11.36Z"/>
  <path class="cls-127" d="M55.91,47.68c.55-.07,1.17.04,1.74,0v.88c-1.81,1.76-4.43,2.36-7.86,1.74-.33.75-.64.77-.88,0,.7-4.14,3.85-2.25,6.98-2.62h.02Z"/>
  <path class="cls-56" d="M54.99,36.32h.88c.44.35,1.48.55,1.74.88,2.38.97,4.36,4.14.88,4.36-1.17.86-2.25-.53-1.74-1.74-.9-1.1-1.5-2.27-1.74-3.5h-.02Z"/>
  <path class="cls-90" d="M51.51,38.94c.51.35,1.3.51,1.74.88.92-.18,1.78.11,2.62.88,1.26.15,1.7.75.88,1.74-.11.99-.99,1.52-1.74.88h-.88s-.88-.88-.88-.88c-1.37-.33-2.99-1.7-1.74-2.62,0,0,0-.88,0-.88Z"/>
  <path class="cls-113" d="M55.89,38.94c.15.4.15.97,0,1.74-1.96,1.61-1.83-.22-2.62-.88-.09-.53.13-1.3,0-1.74-.77-3.06,2.33-1.7,2.62.88Z"/>
  <path class="cls-29" d="M53.25,42.44l.88.88,1.74.88c.9,1.28.07,1.37,0,1.74-2.33-.44-3.04-2.25-4.36-3.5-.13-1.28.44-1.28,1.74,0Z"/>
  <path class="cls-79" d="M47.15,31.08l4.36,7.86v.88c-2.91-.84-5.31-5.77-5.24-8.74.33-.46.62-.48.88,0Z"/>
  <path class="cls-35" d="M46.27,31.08c-1.26.04-1.48-.64-.88-1.74h-1.74c-2.07-10.66,1.96-1.01,3.5,1.74,0,0-.88,0-.88,0Z"/>
  <path class="cls-7" d="M44.53,31.08c1.78,1.52,5.13,6.78,4.36,8.74-2.16-2.62-4.03-4.07-5.24-7.86.15-1.06.44-1.37.88-.88Z"/>
  <path class="cls-148" d="M54.15,35.44c.53.15.62.57.88.88,1.06,1.21,1.28,2.88,1.74,3.5-.88.22-1.32-.11-.88-.88-.75-1.06-1.72-3.08-2.62-.88-.26-.86-2.07-1.54,0-2.62.22.37.51.37.88,0Z"/>
  <path class="cls-22" d="M48.89,50.3h.88c2.44.57,2.55,3.5,0,3.5h-.88c-.15-.42-.11-2.88,0-3.5Z"/>
  <path class="cls-71" d="M47.15,62.54l.88.88c-.62,2.53-3.55,2.73-3.5,0v-.88c.73.07,2,.13,2.62,0Z"/>
  <path class="cls-87" d="M43.65,29.34c.33-.75.64-.77.88,0,.88.7,1.26,1.89,0,1.74l-.88.88c-.2-.64.15-1.83,0-2.62Z"/>
  <path class="cls-99" d="M50.63,41.56c1.12-.46,1.56-.07.88.88-.31-.29-.59-.59-.88-.88Z"/>
  <path class="cls-62" d="M49.77,40.68c.81-.2,1.1.09.88.88-.31-.29-.59-.57-.88-.88Z"/>
  <path class="cls-140" d="M48.89,39.8c.81-.24,1.1.04.88.88-.29-.31-.62-.57-.88-.88Z"/>
  <path class="cls-26" d="M53.71,36.29l-.44-.86c.13-.07.73-.04.88,0l-.44.86Z"/>
  <path class="cls-19" d="M55.89,63.4c.31-.77.59-.77.88,0,1.59.24,1.59,1.41,0,3.5l.55.73c-3.24,7.97-6.61,15.88-10.15,23.74l-1.74,4.36c-1.17,2.36-2.05,4.69-2.62,7,.59.88.11,2.22-.88,2.62-1.61-2.31-.88-6.61-.88-9.62,0-3.79-.04-7.58,0-11.36.04-5-.46-10.9,0-15.72.33-1.41.9-1.12,1.74.88,4.95-.84,9.07-2.18,13.1-6.12Z"/>
  <path class="cls-95" d="M56.75,73.91c1.21-.33,1.54.88.88,1.74-2.42-.64-2.05,3.02-3.06,5.24-1.85,4.07-3.66,8.24-5.66,12.24v-.88c.15-.79-.13-1.81,0-2.62l1.74-4.36c1.06-3.52,2.51-6.74,4.36-9.62-.11-1.06.79-2.53,1.74-1.74Z"/>
  <path class="cls-128" d="M56.8,66.9c.37-2.99,2.86-4.27,1.74-.88.62.79.33,1.96-.88,3.5-.51,2.38-1.45,4.62-3.5,6.12-.97,3.22-2.14,6.43-3.5,9.62l-1.74,4.36c-.44.62-1.3,1.1-1.74,1.74,2.36-7.51,8.3-18.37,9.6-24.47h.02Z"/>
  <path class="cls-28" d="M60.25,31.93c.73.37.75.66,0,.88.99,2.03,1.85,3.19,2.62,3.5-.84-3.35,1.5-2.2,1.74.88,1.26-.64,1.74-.13.88.88,1.04.46,1.32,1.61.88,3.5,1.03-.35,1.89-.35,2.62,0,.75.33.77.64,0,.88l.88.88c1.23.7,1.23,2.16,0,4.36l-1.74,1.74c.75.33.77.64,0,.88-.22-.11-.62.11-.88,0-.48-.51-.75-1.45,0-1.74-2.03-.62-3.77-1.78-5.24-3.5-.15-.04-1.23-1.3-2.62-1.74-1.15.44-3.19.51-2.62-.88-.29-.57-.62-1.15-.88-1.74-.22-.46-.59-.88-.86-1.32l.86-.44c.24.33.59.59.88.88.7.9.73,1.04,1.74,1.74l1.54-1.63c-1.78-4.62-1.72-7.29.2-7.99v-.02Z"/>
  <path class="cls-45" d="M64.61,48.54v.88c-6.03-1.17-9.98,6.21-14.84,4.36v-3.5c1.3-2.77,5.22-1.63,7.86-1.74,2.47-.09,5.99,1.03,5.24-1.74,2.25-1.21,2.86-.31,1.74,1.74Z"/>
  <path class="cls-42" d="M72.5,47.68v.88c1.45.7,1.37,2.18-.24,4.45l.24,1.67c.46.31.46.59,0,.88-.2,1.39-2.2.95-2.62,0-1.39,2.05-3.28,1.54-2.62-.88-.37-1.48.51-1.43,1.74-.88.68-.33,2.82.66,1.74-2.18-.51-1.32-2.09-1.01-2.62-1.32v-.88c.33-.75.64-.77.88,0,1.08-.99,2.25-1.56,3.5-1.74Z"/>
  <path class="cls-58" d="M62.04,45.04c.99.26,4.03-.31,4.36,0,.35.33-.9,1.74-.66,2.49.09.31,1.34.64,1.52,1.01-.33.75-.64.77-.88,0-.48-.11-1.5.18-1.74,0-.11-.09-.26-.62-1.74-1.74-1.28-.95-2.31-.86-.88-1.74l.02-.02Z"/>
  <path class="cls-65" d="M69,53.8c-.62.29-.79-.11-1.74.88-1.72,1.87-2.75,1.41-3.5-.88v-.88c1.41-.22,4.47-.4,5.24.88Z"/>
  <path class="cls-45" d="M66.37,48.56h.88c.18.33-.11,1.21,0,1.74-.95-.37-.97-.81-.88-1.74Z"/>
  <path class="cls-11" d="M48.05,63.4c5.46-1.08,9.67-8.81,15.72-8.74.77.37.79.66,0,.88-.7,1.21-1.87,2.09-3.5,2.62l-.88.88c-.02.57-.31.88-.88.88l-.88.88-.88.88c-.24,1.1-.57,1.56-1.74,1.74-2.2,3.37-7.22,6.28-11.45,5.13l-.79.97c-.46-.04-1.19-.7-1.74-.88.22-2.11,1.7-3.94,1.76-6.12.26-.31,1.32.81,1.74.88.84.11,2.73.15,3.5,0h.02Z"/>
  <path class="cls-38" d="M55.03,43.32c-.09-.81,1.17-.97,1.74-.88s1.85.64,2.62.88c-.53,1.19-2.47,1.04-3.5.88l-.88-.88h.02Z"/>
  <path class="cls-82" d="M57.61,47.68c.4-.02,1.96-1.59,3.5-.86v.86h-3.48s-.02,0-.02,0Z"/>
  <path class="cls-46" d="M55.91,12.71c.55-.07,1.17,0,1.74,0,.55,3.3-.04,6.91-1.83,10.86l.07,5.75c2.22,2.33,2.82,4.07,1.74,5.24-.33.4-.62.42-.88,0-1.45-2.62-4.01-7.66-4.36-10.48-.44-3.5.31-7.05.88-10.48.81-.48,1.7-.79,2.62-.88h.02Z"/>
  <path class="cls-110" d="M56.75,34.58h.88c2.93-.62,2.66,7.36.88,2.62-.51-.9-1.23-1.72-1.74-2.62h-.02Z"/>
  <path class="cls-104" d="M57.63,34.55c-.62-1.41-1.37-3.7-1.74-5.24.33-.75.64-.77.88,0,.29.86.99,1.63.88,2.62l2.62-1.74c1.26.51,1.26,1.21,0,1.74-2.14,3.79,1.56,9.07,4.36,11.36-2.22.2-4.34-.51-6.12-1.74,1.08-1.12,0-3.28-.88-4.36h.88s.86.88.86.88c.57-1.74-1.3-2.51-1.74-3.5v-.02Z"/>
  <path class="cls-51" d="M44.53,31.1c-.15-.44.09-1.19,0-1.74.33-.75.64-.77.88,0,.31.57.57,1.15.88,1.74,1.63,3.06,3.15,5.95,5.24,8.74.57.79,1.12,2,1.74,2.62-.33-.2-1.41.2-1.74,0-.26-.15-.55-.62-.88-.88-.29-.22-.64-.59-.88-.88-.29-.33-.68-.59-.88-.88-1.23-1.72-3.7-6.72-4.36-8.74v.02Z"/>
  <path class="cls-75" d="M54.13,43.32c.24.13.68-.13.88,0,.4.29.62.48.88.88-1.19-.18-1.08-.46-1.74-.88h-.02Z"/>
  <path class="cls-77" d="M53.27,42.44c.35.22.59.73.88.88-.31-.2-.62-.59-.88-.88Z"/>
  <path class="cls-109" d="M43.65,26.69c1.63.13,1.32,1.81,1.74,2.62h-1.74v-2.62Z"/>
  <path class="cls-55" d="M57.63,12.71h.88c1.48,7.16-4.38,8.61-1.74,16.6h-.88c-1.98-8.26,1.67-9.07,1.74-16.6Z"/>
  <path class="cls-19" d="M67.21,54.68c.81.24,2.09.79,2.62.88.75.33.77.64,0,.88.95.57,1.23,1.17.88,1.74.24,2.71-.68,7.6-1.34,10.9-.04.18-.22.31-.42.46,1.98,3.24,3.72,4.98,5.24,5.24.11-.88.99-1.41,1.74-.88-.53-2.55-1.1-4.89-1.74-7-.88-1.21-.9-4.27,0-5.24-.29-.81.07-1.65.88-1.74.33-.75.64-.77.88,0v.88c1.89.51,1.65,3.02,1.32,4.38l3.06,4.36c2.49-.73,3.06-.13,1.74,1.74,1.34-.33,4.36,1.37,4.36,2.62,1.59-.57,3.83-.11,5.24.88,1.92-.09,4.65.33,6.12.88-1.28,1.39-7.97,1.39-8.59,4.01-.11.51.84,5.04,1.19,5.59,2.4,3.81,1.17,1.89,2.58,5.24.51,1.21,2.58,1.61,3.06,3.99.77,3.88-.37,6.12-4.36,6.54-1.15.02-2.82-1.32-2.62-2.62-.46-.46-1.04-.46-1.74,0,.92.26.48,3.19-.88,3.5.18,2.16-.11,3.61-.88,4.36-.7.53-1.39.77-1.74,0l-4.36-3.5c-3.74-1.59-6.96-4.49-9.6-8.74-1.54-1.96-.79-4.69,0-7-.86-2.53-.46-5.95,0-8.74-1.04.48-1.19.18-.88-.88-1.41-.02-2.14-3.08-1.74-4.36-.59-.04-.88.26-.88.88,1.87,3.11,2.16,6.89.88,11.36-.11,4.87-4.21,4.65-2.62.88-3.9-3.08-5.95-6.58-6.12-10.48-1.01-.81-1.23-1.96,0-2.62-1.23-2.91,1.43-5.24,3.5-7-.51-1.15-.53-2.8.88-2.62-1.1-.75-.57-4.23.88-3.5v-.88s.88-.88.88-.88c-.31-2.88.55-4.05,2.62-3.5h-.04Z"/>
  <path class="cls-19" d="M89.96,66.05c.31-.53.59-.53.88,0,1.12.24,3.15,1.23,4.36,1.74,1.08.88.48,1.76-1.74,2.62v.88c-.35.4-.64.42-.88,0-.11,2.44-3.41,1.56-5.24.88-.97,1.59-4.03-.07-3.5-1.74-.04-1.56,1.12-1.56,3.5,0,.44-.75,1.03-1.63,1.74-2.62-.79.2-1.1-.09-.88-.88-1.01-1.45-.57-1.72.88-.88.42-.64.7-.66.88,0Z"/>
  <path class="cls-139" d="M96.08,67.81c.24.42.53.42.88,0,2.16,1.17,2.4,6.19.88,7.86-2.44.73-4.45-.57-6.12-.88-.75-.33-.77-.64,0-.88.9-1.17,2.25-1.56,4.07-1.17l-1.45-2.33c-.33.4-.62.4-.88,0,.51-.9,1.23-1.72,1.74-2.62.26.11.64-.11.88,0v.02Z"/>
  <path class="cls-24" d="M96.96,57.3c.86-.09,1.76.04,2.62,0,.35,2.33.02,3.35-.88,5.24-1.23-1.34-2.4-2.82-3.5-4.36-.51-1.45.86-2.2,1.74-.88h.02Z"/>
  <path class="cls-126" d="M89.98,65.19c.73-2.25,5.68-2.84,6.98-.88-2.18,1.59-2.51,2.38-6.12,1.74-.29-.07-.59.04-.88,0-.75-.33-.77-.64,0-.88l.02.02Z"/>
  <path class="cls-132" d="M96.1,54.68c-2.77-1.21-.92-4.71,1.74-5.24.33-.75.64-.77.88,0-.11.48.09,1.19,0,1.74-1.12.79-.68,1.48-.88,1.74.55.29.55.59,0,.88-.13.18-.64.68-.88.88-.35.73-.64.75-.88,0h.02Z"/>
  <path class="cls-142" d="M96.06,55.54c.97-.22,1.41.07.88.88v.88c-1.19.15-1.56.84-1.74.88l-.88.88h-.88c-.75-.33-.77-.64,0-.88-.77-.31-.77-.62,0-.88l.88-.88,1.74-.88Z"/>
  <path class="cls-19" d="M96.96,54.68l.81.55-.81,1.21c-.4-.11-.84-.48-.88-.88v-.88c.13-.15.73.15.88,0Z"/>
  <path class="cls-27" d="M96.5,68.64l-.44-.86c.24.11.66-.11.88,0,0,0-.44.86-.44.86Z"/>
  <path class="cls-103" d="M98.68,62.54c-.44.95-.97,1.19-1.74,1.74-.97-2.22-.42-2.93,1.74-1.74Z"/>
  <path class="cls-135" d="M58.51,75.65c.62,2.82,4.43,7.86,6.12,10.48-1.52.73-2.97-.44-4.36-3.5l-.88-1.74c.29,1.87,0,2.16-.88.88-.81-2.77-.64-3.37-.88-6.12.33-.75.64-.77.88,0Z"/>
  <path class="cls-53" d="M58.49,81.77l.88-.88.88,1.74,4.27,5.59c1.67.75,1.83,1.39.97,3.15.75.42.77.7,0,.88-3.57-2.33-5.79-6.47-6.98-10.48h-.02Z"/>
  <path class="cls-40" d="M65.52,91.41c-1.39-2.27-.79-3.19,1.74-2.62.97.48.9,1.12,0,1.74.24,2.91.24,5.81,0,8.74h-.88c-.66-2.38-1.12-4.49-.88-7,.02-.31-.07-.64,0-.88l.02.02Z"/>
  <path class="cls-15" d="M63.73,53.8c1.37-.22,2.4.57,3.5.88-.15.15-2.51,3.33-2.62,3.5l-.88.88v.88c-.51,1.26-.62,2.93-.88,3.5-1.04,1.48-1.41.62-1.74-.88-.48,2.58-1.34,3.74-2.62,3.5-.64-1.96-.86-.11-1.74.88.22-1.01-.2-2.44,0-3.5l2.62-3.5v-.88s.88-.88.88-.88c1.94-.88,3.11-1.76,3.5-2.62.02-.26.04-.64,0-.88-.04-.29.04-.59,0-.88h-.02Z"/>
  <path class="cls-92" d="M55.89,63.4c-2.64,4.14-8.19,6.61-13.1,6.12-2.25-2.88,2.25-.62,4.98-1.54,2.51-.84,5.13-2.97,7.25-4.58,0,0,.88,0,.88,0Z"/>
  <path class="cls-76" d="M55.03,63.4c.35-.26,1.12-1.19,1.74-1.74,1.67.46,1.67,1.23,0,1.74-.29-.07-.59.04-.88,0h-.88s.02,0,.02,0Z"/>
  <path class="cls-152" d="M50.63,85.27c1.23-3.7,1.63-5.84,3.5-9.62.33-.64.64-.66.88,0-1.43,2.73-2.64,6.32-4.36,9.62h-.02Z"/>
  <path class="cls-69" d="M57.65,69.52c1.15.7.79,2.62,0,3.5.48,1.61.2,2.14-.88.88-.46.44-1.52,1.32-1.74,1.74h-.88c1.15-2.27,1.92-4.05,3.5-6.12Z"/>
  <path class="cls-145" d="M50.63,85.27c-.68,2.09-.09,2-1.74,4.36.44-2.88.73-2.4,1.74-4.36Z"/>
  <path class="cls-52" d="M60.25,30.17c.13-1.1,1.3-3.94,1.74-5.24.26,2.29.55,4.62.88,7,.11-2.86.7-4.32,1.74-4.36.57,2.33.66,4.69,0,7,1.26.31,1.39,2.71,0,2.62-.62-1.15-1.37-2.71-1.74-.88-1.01-.77-1.89-1.94-2.62-3.5-.04-.29,0-.59,0-.88,0-.55-.07-1.19,0-1.74v-.02Z"/>
  <path class="cls-123" d="M70.74,35.46c-.02-1.43.29-1.74.88-.88.84-.29,1.12.29.88,1.74,1.76,1.78.07,6.58-.88,8.74.7,1.37-.4,3.7-1.74,2.62.11-.18.11-3.7,0-4.36l-.88-.88v-.88c.35-1.08.95-2.22,1.74-3.5-2.2-1.01-2.2-1.63,0-2.62v.02Z"/>
  <path class="cls-25" d="M69,38.03c.44-1.67,1.23-1.67,1.74,0,.04,5.15-.62,2.62-1.74,3.5-.88.68-.92,1.61-.88,2.62-1.61-.13-1.32-1.94-1.74-2.62-.37-1.85-.07-4.21,2.16-3.06.46.24-1.72.33.46-.42v-.02Z"/>
  <path class="cls-43" d="M69,38.06c.48,2.84-1.01,3.96-.88.88-1.45-.33-.53,1.67-1.74,2.62-1.87-3.13-.55-2.58-.88-3.5.33-.75.64-.77.88,0,.15-3.26,3.04-3.13,2.62,0Z"/>
  <path class="cls-67" d="M64.66,34.6c.37-1.56.62-2.18,1.74-.88,2.44.55,2.55,4.1,0,4.36h-.88c-.15-.46-.77-.66-.88-.88v-2.62l.02.02Z"/>
  <path class="cls-79" d="M62.87,36.32c.42.88,1.19,1.37.86,2.62-.81,1.01-3.28-4.89-3.48-6.12,1.26.62,2.05,2.29,2.62,3.5Z"/>
  <path class="cls-5" d="M69.9,47.68c.9,1.19.55,1.98-.88,1.74h-.88c-.68-2.14,1.65-1.61,1.74-1.74h.02Z"/>
  <path class="cls-25" d="M69,42.44l.88.88c-.02-.09-.81-.44-.88-.88Z"/>
  <path class="cls-4" d="M91.7,35.46c4.27-2.51,5,3.48,2.62,6.12.2,2.75-2.62,5.31-5.24,5.24-.51.64-1.08.35-1.74,0-.59,1.28-2.22,3.24-3.5,3.5-1.92.88-1.92,1.19,0,.88.29.57.64,1.15.88,1.74,4.6,4.12,9.67-4.14,12.22-8.74,2.86-2.64,2.75,3.68.88,5.24-.46,1.72-1.45,3.24-1.74,5.24l-1.74,1.74-.88.88c-.9.75-2.84.75-3.5,0-6.28-1.76-6.85-1.76-1.74,0,1.81.15,1.03,1.1,0,1.74-2.75,1.43-10.86-.7-9.6-5.24-1.59.84-2.11.33-.88-.88-1.54-2.38-1.85-2.38-.88,0-.09,2.99-1.94,1.39-2.62-.88-.4,1.89-.99,2.77-1.74,2.62-2.05-1.41-.2-4.32,0-6.12.22-2.33.79-4.07,1.74-5.24.79-.15,1.56.02,1.65.68.99,6.67-.57,4.47-.18-.18.02-.22.51-.37,1.15-.53,2-1.65,4.29,2,1.74,2.62l.88.88c.07-1.48.64-2.93,1.74-4.36.64-2.6,1.81-4.07,3.5-4.36.84,2.51,1.19,8.19-1.74,8.74-2.8-.18.31,3.13,1.76-1.43.31-2.49.59-4.93.86-7.29.33-.57.62-.57.88,0,1.3-.13,1.96,1.5,1.74,2.62,1.28.68,1.52,1.74,0,1.74.62.4,1.17.35,1.74,0-1.03-.75-1.01-1.08.2-.99.02-2,.53-3.72,1.54-5.13-.53-.31-.53-.59,0-.88v.02Z"/>
  <path class="cls-88" d="M73.33,43.34c-1.23-1.01-.92-4.16.88-3.5.55.44,1.15.75,1.74.88,1.3-.02,1.81.77.88,1.74.75.42.77.73,0,.88-.57.84-1.45.84-2.62,0-.7,1.43-.24,3.99-1.74,5.24.02-.29-.04-.59,0-.88-1.63-.35-1.06-1.56,0-2.62-.53-.31-.53-.59,0-.88l.88-.88-.02.02Z"/>
  <path class="cls-116" d="M71.62,45.06c.33-.75.64-.77.88,0-.07.86.11,1.78,0,2.62-1.19,1.23-1.72,3.3-3.5,1.74.31-.57.55-1.19.88-1.74.4-.68,1.65-2.2,1.74-2.62Z"/>
  <path class="cls-93" d="M72.5,54.7c.22-1.19.75-2.31.88-3.5.97-.13.81.84.86.88,2.55,2.16,3.13,3.63,1.74,4.36-1.52,1.15-2.09,1.15-1.74,0l-1.74-.88c.04-.29-.04-.59,0-.88v.02Z"/>
  <path class="cls-73" d="M69.88,55.56h2.62c1.19.48,1.12,1.1,0,1.74-.33.75-.64.77-.88,0-.51.44-1.1.13-1.74-.88v-.88.02Z"/>
  <path class="cls-28" d="M83,25.81c2.07-1.89,6.34-3.08,8.74-1.74,2.91-.15,5.24,4.03,2.62,6.12l-5.24.88c-1.04-.13-2.69-.99-3.5-1.74,1.28-.59.11-.59-3.5,0-1.94.22-2.25-.07-.88-.88v-.88c.29-.84.81-1.81,1.74-1.74l.02-.02Z"/>
  <path class="cls-25" d="M80.38,26.67c.26-.07.64.11.88,0v.88s-.88.88-.88.88c-.02,3.04-.9,4.49-2.62,4.36.02,2.38-1.15,4.69-3.5,7-.51,1.56-.59,1.83-.88,3.5l-.88.88c-.07.26.02.57,0,.88h-.88c.48-2.22-.33-4.91.88-8.74-.59-3.17,2.33-6.45,5.24-7-.31-1.65,1.52-4.93,2.62-2.62l.02-.02Z"/>
  <path class="cls-120" d="M78.55,15.4c2.53,7.11-7.29,8.9-6.94,16.56-.9.33-1.19-.24-.88-1.74-2.75-3.66,2-8.94,5.33-10.9.26-1.03-.35-1.78-1.83-2.22-.55-.33-.57-.62,0-.88,1.43-.55,2.42-1.5,4.32-.81Z"/>
  <path class="cls-146" d="M96.94,43.3c.75.33.77.64,0,.88-.81,4.56-5.92,11.01-10.9,10.55-3.11-.29-1.26-1.67-1.32-1.81,7.82,2.18,8.83-6.91,12.22-9.62Z"/>
  <path class="cls-118" d="M82.1,30.19c2.64.29,7.91,2.62,4.36,5.24-1.34.2-1.81.18-.88-.88l-2.62-1.74c-3.5,0-5.68-1.08-1.74-2.62.31-.79.59-.79.88,0Z"/>
  <path class="cls-63" d="M64.64,19.71h.88s.7,1.87.7,1.87c-2,3.02-3.11,6.47-3.33,10.37l-.88-.44v-6.56c.95-2.75-.2-2.71,2.62-5.24Z"/>
  <path class="cls-28" d="M80.36,36.34c1.67-1.06,4.21-1.3,6.12-.88.2.46.62,1.43.88,1.74-.33.75-.64.77-.88,0-.31.57-.59.57-.88,0-.37.73-.66.75-.88,0-.75,1.17-1.76,2.25-2.62.88-.62.79-1.23.86-1.74,0-1.43,1.06-2.29,1.06-2.62,0-.44-.33-.46-.62,0-.88-.79-1.37-.35-1.83.88-.88.53-.64,1.15-.62,1.74,0v.02Z"/>
  <path class="cls-117" d="M72.5,32.77c2.16-3.44,2.49-2.53,4.36-4.36,1.19-.62,1.41-.29.88.88-3.19,3.04-3.46,1.32-5.24,7l-.88-1.74c-.97-1.26-.73-1.98.88-1.74v-.04Z"/>
  <path class="cls-136" d="M91.72,35.44c-.66-1.32.51-1.61,1.74-1.74,3.92.97,2.49,5.35,1.74,7.86-.33.75-.64.77-.88,0,1.28-3.39,1.94-6.36-2.62-6.12h.02Z"/>
  <path class="cls-70" d="M94.32,41.56h.88c-1.3,4.38-1.65,3.96-5.24,6.12-.79-.2-1.1-.51-.88-.88,2.77-1.45,4.1-2.2,5.24-5.24Z"/>
  <path class="cls-50" d="M91.7,23.19c3.44.64,6.43,4.58,2.62,7,2-1.26-.57-5.57-2.62-6.12-.75-.33-.77-.64,0-.88Z"/>
  <path class="cls-17" d="M91.72,23.21v.88c-2.14-.57-6.76.66-8.74,1.74-.37-.31-.4-.62,0-.88,2.88-1.45,5.35-2.38,8.74-1.74Z"/>
  <path class="cls-147" d="M89.92,38.92c.26-1.32.64-1.81.88-2.62.33-.75.64-.77.88,0-.62,2.14-.7,4.14-1.74,6.12-.92.84-1.74,1.39-1.74,0-.11-.53.15-1.3,0-1.74.33-.75.64-.77.88,0,.15-.7.46-1.28.88-1.74l-.04-.02Z"/>
  <path class="cls-25" d="M70.74,30.19c-.07.86.42,1.19.88,1.74.26.33.57.62.88.88-.35.53-.55,1.19-.88,1.74-.2.31-.66.55-.88.88-3.37.07-2.09-5,0-5.24Z"/>
  <path class="cls-68" d="M64.66,19.71c1.34-1.21,3.35-3.57,4.36,0-1.15,2.51-4.01,3.19-3.5,0h-.88s.02,0,.02,0Z"/>
  <path class="cls-59" d="M83.82,50.3c.59-.33,1.63-2.93,3.5-3.5,1.1.15,1.39.44.88.88-1.39.86-2.71,2.64-4.36,3.5-.75-.33-.77-.64,0-.88h-.02Z"/>
  <path class="cls-34" d="M80.36,26.72c-2.18-.64-1.5,1.56-2.62,2.62l-.88-.88c1.01-.97,2.93-6.96,3.5-1.74Z"/>
  <path class="cls-133" d="M87.34,28.45v.86c-.57.07-1.21-.11-1.74,0-.92.18-3.33.92-3.5.88-.59-.35-.62-.66,0-.88,1.06-1.59,3.63-.73,5.24-.86Z"/>
  <path class="cls-44" d="M86.44,37.2h.88c.24.29.62.68.88.88.81.66,1.81,1.89.88,2.62h-.88c-.24-.73-1.37-1.78-1.74-2.62-.57-.33-.57-.62,0-.88h-.02Z"/>
  <path class="cls-144" d="M94.32,30.19c-1.74,1.12-3.13,1.17-5.24.88.7-1.81,4.43-.37,5.24-.88Z"/>
  <path class="cls-4" d="M88.2,38.06c.46.37,1.21.55,1.74.88-.15.77.11,1.78,0,2.62l-.86-.88-.88-2.62Z"/>
  <path class="cls-57" d="M91.72,35.44c-.11.22.09.59,0,.88h-.88c.44-1.54-1.1-3.55,2.62-2.62-.44.55-1.48,1.17-1.74,1.74Z"/>
  <path class="cls-89" d="M82.96,24.95v.88c-.11.04-1.23,1.28-1.74,1.74v-.88c.11-.04.57-1.15,1.74-1.74Z"/>
  <path class="cls-143" d="M89.08,46.8c.44.09.77.46.88.88-.33.2-1.41-.2-1.74,0l-.88-.88c.29-.09,1.37-.07,1.74,0Z"/>
  <path class="cls-72" d="M60.23,58.16c1.08-1.01,1.65-2.29,3.5-2.62,0,.11,1.5.51-.37,1.78-1.39.95-2.4.53-3.11.84h-.02Z"/>
  <path class="cls-138" d="M57.65,60.78c.88,1.5.4,2-.88.88.07-.26.7-.55.88-.88Z"/>
  <path class="cls-23" d="M58.51,59.9c.53,1.45.24,1.96-.88.88.31-.24.51-.68.88-.88Z"/>
  <path class="cls-102" d="M59.39,59.04c-.07.2,0,.57,0,.88-.33.75-.64.77-.88,0,.24-.33.62-.57.88-.88Z"/>
  <path class="cls-105" d="M60.28,58.16c-.31.29-.62.57-.88.88.26-.68.15-.57.88-.88Z"/>
  <path class="cls-85" d="M76.84,59.02c.99-1.59,2.14-.88,1.74.88.75.35.77.64,0,.88,2.49,3.19,5.24,6.41,9.12,8.52l-.37,1.08c-1.12.11-1.15-.7-3.5,0,.33,1.19-.26,1.48-1.74.88-.92-.68-1.12-1.12-1.74-1.74q.56-.44,0,0c-3.22-3.17-4.4-3.81-4.36-8.74.11-1.3.4-1.87.88-1.74l-.02-.02Z"/>
  <path class="cls-12" d="M75.98,56.4c.04-.73-2.44-2.62-1.74-4.36.79.62,2.14,2.05,2.62.88.33-.59.62-.62.88,0,.2.31.66.55.88.88-.48,1.54.13,2.97,1.85,4.29l-.97.95c.62,1.21.15,1.63-.88.88-.4-.7-1.28-.62-1.74-.88-.24-.29-.55,0-.88.88h-.88c-.99.4-1.01.11-.88-.88-1.26-1.21.31-2.25,1.74-2.62v-.02Z"/>
  <path class="cls-152" d="M60.25,82.65c1.85,2.07,2.91,2.51,4.36,3.5.59.4.86,1.06.9,1.74,1.43.35.51-1.67,1.72-2.62.37,1.15.37,2.29,0,3.5-.29.79-1.59,1.96-1.74,2.62-2.31-2.93-4.12-5.11-5.24-8.74Z"/>
  <path class="cls-131" d="M66.37,73.93c-.79-1.54-.35-2.05.88-.88.4,1.52,1.28,2.82,1.74,4.36.15,4.45-.42,8.24-1.74,11.36.02-1.17,0-2.33,0-3.5,0-3.66.46-7.91-.88-11.36v.02Z"/>
  <path class="cls-129" d="M71.62,57.28h.88v.88c.44.29.77.57.77.84-.13,2.29-1.5,9.73-3.39,10.53-.33.68-.64.68-.88,0-.37-2.09,1.06-9.16,1.74-11.36-.51-1.1-.24-1.28.88-.88Z"/>
  <path class="cls-101" d="M67.28,88.77c1.63-4.34-.13-7.69,1.74-11.36.09.26.84.59.88.88-.24,2.99-.53,5.92-.88,8.74.57,1.28.62,4.29-.88,4.36-.75.13-.81-.24-.88-.88v-1.74h.02Z"/>
  <path class="cls-62" d="M68.11,91.37c.02-.46.77-2.6.88-4.36.33-.75.64-.77.88,0,0,2.33.07,4.69,0,7v.88c.53,1.3.7,2.09-.88,1.74-.04.86-.02,1.76,0,2.62-.33.75-.64.77-.88,0-1.37-2.05-1.06-5.7,0-7.86v-.02Z"/>
  <path class="cls-78" d="M74.24,66.9c.37,1.56,4.1,4.43,1.74,7-.97.26-1.48.02-.88-.88-2.25-.02-4.6-5.46-1.74-6.12.33-.75.64-.77.88,0Z"/>
  <path class="cls-6" d="M66.37,73.88c-.75-1.94-4.01-4.14-3.48-6.98l4.36,6.12-.88.88v-.02Z"/>
  <path class="cls-97" d="M68.97,69.52h.88c2.55-.95,4.34,2.47,3.5,4.36,1.39-.4,1.89-.18.88.88-.42.13-.46,1.59-2.22.09-.77-.66-2.84-4.36-3.02-5.33h-.02Z"/>
  <path class="cls-106" d="M61.13,66.02c.33-.75.64-.77.88,0-1.1,2.71-3.17,3.22-3.5,7-.33.75-.64.77-.88,0,.09-1.15-.15-2.38,0-3.5.88-2.84,2.05-4.01,3.5-3.5Z"/>
  <path class="cls-34" d="M69.88,78.27c.42,2.27,0,6.17,0,8.74h-.88c.2-2.8-.84-6.67.88-8.74Z"/>
  <path class="cls-59" d="M83.84,70.41c.81,1.23,2.11,1.63,3.5,1.74.75.33.77.64,0,.88.46.88.09.88-.88.88-1.48-.55-3.06-1.67-4.36-2.62.42-.7,1.08-.68,1.74-.88Z"/>
  <path class="cls-122" d="M91.7,73.91v.88c-1.72-.33-3.41-.2-5.24-.88.09-.42.48-.86.88-.88,1.41-.51,4.95-1.08,4.36.88Z"/>
  <path class="cls-1" d="M61.16,66.05c-1.81-.42-.9-2.14,0-3.5l1.74.88c-.31.64-.53,1.74-.88,2.62h-.88s.02,0,.02,0Z"/>
  <path class="cls-30" d="M73.36,61.66c.33-.75.64-.77.88,0-.13,1.12-.22,4.32,0,5.24h-.88c-2.4-.4-1.78-4.71,0-5.24Z"/>
  <path class="cls-54" d="M74.24,59.04l.88.88c.07.64-.86,1.48-.88,1.74h-.88c-1.1-.95-.55-2.58.88-2.62Z"/>
  <path class="cls-48" d="M75.1,73.03c.02.07,1.08.02.88.88-.64.73-.99.64-1.74.88-.33-.26-.57-.62-.88-.88-.48-2.33.53-3.02,1.74-.88Z"/>
  <path class="cls-10" d="M57.65,73.03h.88c-.07.7-.13,2,0,2.62h-.88c-.04-.44-.73-1.19-.88-1.74.31-.29.68-.51.88-.88Z"/>
  <path class="cls-49" d="M76,59.92c0-.57-.04-1.17,0-1.74.97-.13.86.88.86.88l-.88,1.74v-.88h.02Z"/>
  <path class="cls-61" d="M69.9,56.4l1.74.88c-.18.35-.81.66-.88.88l-.88-1.74.02-.02Z"/>
  <path class="cls-18" d="M63.75,59.04c-.11.22.11.62,0,.88-.75-.55-.35-.46,0-.88Z"/>
  <path class="cls-83" d="M64.64,58.16c-.22.35-.73.59-.88.88.29-.33.53-.64.88-.88Z"/>
  <path class="cls-13" d="M94.3,70.43l2.62-.88c1.67,6.76-.35,5.26-5.24,4.38-1.45-.26-2.22-1.01-4.36-.88v-.88c2.27.2,3.24-.24,5.24-.88.29.4.57.4.88,0l.88-.88-.02.02Z"/>
  <path class="cls-47" d="M78.62,60.8c.77-1.28,1.74-1.15,2.62,0,.64.42.66,1.37,0,1.74,2.93,2.58,5.55,4.32,7.86,5.24.26.31,1.32.09.86,1.74-.95-.2-1.98.81-2.62.88l-7.44-6.1c-1.43-1.72-1.76-1.52-1.3-3.52l.02.02Z"/>
  <path class="cls-151" d="M82.08,62.54c.77-1.45,3.9.53,3.5,1.74.75.68,1.61,1.56,2.62,2.62.35.26.62.57.88.88l-.42.86c-2.82-1.59-5.86-3.08-7.44-6.1.33-.75.64-.77.88,0h-.02Z"/>
  <path class="cls-131" d="M82.12,62.5c-.64-.4-.73-1.5,0-1.74.92-1.08,2.14-.55,1.74.88,2.38-.42,6.58.57,6.12,3.5v.88c-.26-.02-.64-.04-.88,0-1.15.13-3.39-.59-3.5-1.74-.95-.48-1.78-2-3.5-1.74l.02-.04Z"/>
  <path class="cls-141" d="M85.6,64.28c1.15.59,2.6.64,3.5,1.74-.42.09-.73.48-.88.88-.7-.55-4.78-1.76-2.62-2.62Z"/>
  <path class="cls-81" d="M93.02,72.15l-.44-.86c.29-.09.64.09.88,0-.15.26,0,.7-.44.86Z"/>
  <path class="cls-119" d="M93.46,70.41h.88c-.24.31-.53.75-.88.88.11-.24-.13-.66,0-.88Z"/>
  <path class="cls-21" d="M95.18,58.21c2.95-.57,4.32,1.78,3.5,4.36-.02.11-1.63,1.67-1.74,1.74-1.37.75-5.46,1.17-6.98.88s-4.58-2.84-6.12-3.5c-1.01-1.63-.15-1.92,2.62-.88,1.67-.88,3.7-1.15,6.12-.88.26-.55.84-.86,1.74-.88l.88-.88-.02.04Z"/>
  <path class="cls-150" d="M89.96,57.28c1.12-.04,2.53.2,3.5,0-.11.22.07.59,0,.88-3.63.24-4.78.53-3.5.88,1.52,1.98-3.96,1.56-1.74,0v-1.74h1.74s0-.02,0-.02Z"/>
  <path class="cls-91" d="M93.46,59.04c-.37.48-.68.51-.88,0-.75.86-2.53,1.23-2.62,0l-.88-.88h4.38v.88Z"/>
  <path class="cls-2" d="M92.56,59.04c.29-.04.59.07.88,0s.62.07.88,0c-.51.22-.9.59-1.74.88-.75-.33-.77-.64,0-.88h-.02Z"/>
  <path class="cls-153" d="M95.2,58.16c-.2.04-.51.73-.88.88.24-.07.57-.79.88-.88Z"/>
  <path class="cls-20" d="M94.34,56.42c-.29.15-.57.81-.88.88.18-.35.62-.59.88-.88Z"/>
  <path class="cls-132" d="M94.32,56.4c.62-.7,1.34-1.28,1.74-1.74-.04.26-.02.62,0,.88-.59.29-1.17.59-1.74.88v-.02Z"/>
  <path class="cls-8" d="M67.26,90.51l.88.88c-.09,2.44-.2,5.46,0,7.86h-.88c-1.52-3.35-.09-6.03,0-8.74Z"/>
  <path class="cls-152" d="M59.37,80.91c.88.31.68,1.08.88,1.74-.46-.51-.9-.99-.88-1.74Z"/>
  <path class="cls-152" d="M58.49,66.07c.46-1.37,2.93-3.83,2.64-6.12l.88.44c-.02.81-.79,1.61-.88,2.16-.18,1.08.11,2.38,0,3.5-1.06.9-2.71,2.49-3.5,3.5.15-1.06.53-2.49.88-3.5l-.02.02Z"/>
  <path class="cls-33" d="M58.49,59.92h.88c-.2,3.04.9,4.34-2.62,3.5.11-.53-.13-1.26,0-1.74.31-.29.57-.64.88-.88.18-.29.64-.55.88-.88h-.02Z"/>
  <path class="cls-11" d="M65.49,19.73c1.04.66,2.49.48,3.5,0,.07.2.04.68,0,.88.29.81-.07,2.25-.88,1.74-1.5,1.63-2.66,3.37-3.5,5.24-.4,1.19-1.39,2.22-.88,3.92l-.86.44c-.04-4.58-.77-8.68,2.62-12.24v.02Z"/>
  <path class="cls-7" d="M64.61,27.57c1.81-5.35,1.15-2.64,3.5-5.24.66.33.68.64,0,.88-1.26,2.71-2.33,6.01-1.74,8.74,1.06-1.5,1.74-1.98,1.74,0,1.83,2.11.33,3.61-1.74,1.74-.55.35-1.17.57-1.74.88v-7s-.02,0-.02,0Z"/>
  <path class="cls-4" d="M77.63,20.02c-.42,1.19-2.75,1.87-3.81,3.22-1.32,1.7-2.47,4.84-3.08,6.96-1.17,4.03-.11,3.06,0,5.24.04.86,0,1.74,0,2.62-.55-.09-1.26.13-1.74,0-.7-.18-1.23-1.32-2.62,0v-4.36c.77-.48,1.48-.7,1.74-1.74-1.26-.37-.66-1.65,0-2.62-.42-.97-.42-2.14,0-3.5,0-1.21.29-2.07.88-2.62-.51-.88-.02-2.16.88-2.62.44-.73,3.46-2.66,4.36-3.5,2.6-2.05,4.23.48,3.39,2.93Z"/>
  <path class="cls-44" d="M79.5,59.02c-.13-1.78-3.17-4.14-.88-5.24.24.35.11,1.48.81,2.2,2.71,2.82,5.37,2.69,8.79,3.04.09.02-.02.84,1.3.88.57.02.42-.88.46-.88.84,0,1.89.13,2.62,0v.88c-2.73.92-3.24.79-6.12.88-2.36-.07-4.4-.64-6.12-1.74-.35.73-.64.75-.88,0l.02-.02Z"/>
  <path class="cls-16" d="M84.72,37.18c.29-.04.59.02.88,0,.57.33.57.62,0,.88.07,3.44.7,9.65-3.17,11.25-4.1,1.7-.4-3.77-.31-5.13l.86,2.62q-.22.18,0,0c2.51-2.03,1.63-5.9,1.74-8.74-.75-.33-.77-.64,0-.88Z"/>
  <path class="cls-147" d="M88.22,57.3c-2.36-.18-6.19-.4-6.54-3.5l8.28,3.5c-.55.02-1.17.04-1.74,0Z"/>
  <path class="cls-37" d="M81.22,41.58v.88c-.02,1.15-.33,4.29-1.74,4.36l-.88-.88c-.15-.64.35-2.05-.09-2.53-.33-.4-1.28.04-1.65-.09v-.88s1.74-.88,1.74-.88h2.62v.02Z"/>
  <path class="cls-100" d="M74.7,42.46c.86-.07,1.5.62,2.16.86.04,1.65-.7,3.41,0,5.24-2.47-.55-.97-3.83-2.62-5.24.11-.2-.11-.73.46-.86Z"/>
  <path class="cls-130" d="M82.1,38.08c.62-.09,1.63-.7,2.62-.88v.88s-3.5,4.36-3.5,4.36v-.88c-1.83-.77-1.54-1.63.88-2.62-.75-.33-.77-.64,0-.88v.02Z"/>
  <path class="cls-96" d="M75.12,49.42c2,.33,2,2.53,2.62,3.5h-.88c-.68-1.3-2.09-1.94-1.74-3.5Z"/>
  <path class="cls-66" d="M83.84,50.28v.88c-.86.46-1.5,1.1-2.62.88-.68-2.93,1.72-1.23,2.62-1.74v-.02Z"/>
  <path class="cls-111" d="M89.96,42.44c-.31.57-1.28,2.16-1.74,1.74-.07-.55.11-1.21,0-1.74h1.74Z"/>
  <path class="cls-39" d="M78.6,45.92l.88.88c-.88.04-.73-.31-.88-.88Z"/>
  <path class="cls-130" d="M85.6,37.18c.29-.02.59,0,.88,0v.88h-.88v-.88Z"/>
  <path class="cls-112" d="M77.74,38.08c.92,1.04.37,1.5-.88,1.74l-.88.88c-1.48,1.01-2.31,1.28-1.74-.88.68-1.56,2.44-4.69,3.5-2.62,0,0,0,.88,0,.88Z"/>
  <path class="cls-32" d="M75.95,40.68l.88-.88c.37-.68.66-.7.88,0,2.29-.26,2.6.31.88,1.74l-1.74.88c0-.09-1.01-.53-.88-1.74h-.02Z"/>
  <path class="cls-116" d="M73.38,43.3c-.07.42-.46.77-.88.88.11-.42.48-.75.88-.88Z"/>
  <path class="cls-61" d="M74.13,54.79c.33.4-.04,1.48.11,1.63.15,1.28-.95,3.28-1.74,1.74.07-.29-.07-.59,0-.88.11-.51-.09-1.19,0-1.74.31,0,1.32-1.12,1.63-.75Z"/>
  <path class="cls-115" d="M77.74,32.79c.97-1.56,1.23-2.73,2.62-4.36h.88c.31.26.55.7.88.88.11.07-.09.88,0,.88-.26-.02-.77-.07-.88,0q-.18-.22,0,0c-.09.04-.88,1.74-.88,1.74l2.62.88c-.77,1.37-3.19,1.98-4.36.88-1.08.68-1.28.29-.88-.88v-.02Z"/>
  <path class="cls-98" d="M81.24,27.57v.88h-.88c.26-.31.57-.62.88-.88Z"/>
  <path class="cls-94" d="M77.74,32.82c.53-.15.86.48.88.88,2.27.66,2.27,1.1,0,1.74.77.33.77.62,0,.88-.35.75-.46.55-.88.88-.81.64-3.08,1.01-3.5,2.62,1.3-3.96,1.45-3.68,3.5-7Z"/>
  <path class="cls-124" d="M85.6,34.55c-1.23,1.01-3.7,1.34-5.24.88-.51.68-1.15.64-1.74,0v-1.74c1.34-.92,2.82-.88,4.36-.88,5.92-.09,2.42.44,2.62,1.74Z"/>
  <path class="cls-36" d="M85.6,34.55c.02.07.66.31.88.88-1.56,1.17-4.25.9-6.12.88-.75-.33-.77-.64,0-.88,1.74-.53,3.02-1.48,5.24-.88Z"/>
  <path class="cls-86" d="M80.36,38.06c.18.73-.4,1.32-1.74,1.74-.31.55-.59.55-.88,0-.31.09-.66-.09-.88,0,.37-.42.53-1.23.88-1.74h2.62Z"/>
  <path class="cls-108" d="M80.38,38.03c.57,0,1.19.07,1.74,0v.88c-1.28,2.36-2.44,2.64-3.5.88l1.74-1.74.02-.02Z"/>
  <path class="cls-64" d="M80.34,35.44v.88h-1.74c.09-.22-.07-.57,0-.88.55-.09,1.28.13,1.74,0Z"/>
  <path class="cls-84" d="M69,20.59h.88c-.24.35-.48,1.78-.88,2.62-.33.75-.64.77-.88,0v-.88c.07-.07.88-1.74.88-1.74Z"/>
  <path class="cls-149" d="M77.74,64.28l4.36,4.8c.11.73-1.59.55-1.74.44-.24-.15-2.73-4.32-2.62-5.24Z"/>
  <path class="cls-125" d="M78.57,59.95c.13-.22.68-.75.88-.88.18-.11.57.07.88,0,1.54.4,2.44.79.88,1.74-.86-.09-1.76.07-2.62,0,.07-.31-.11-.73,0-.88l-.02.02Z"/>
  <path class="cls-4" d="M74.26,56.4c.13.15,1.26-.11,1.74,0,0,.26-1.23.68-1.74,2.62-.22.84-.84,2.14-.88,2.62-.15,1.39-.18,3.9,0,5.24.09.68,1.43,5.24,1.74,6.12l-1.74.88c-1.81-1.54-2.07-2.75-3.5-4.36-.07-4.01,1.81-7.58,2.62-11.36l1.74-1.74.02-.02Z"/>
  <path class="cls-3" d="M81.22,60.8c.31-.77.62-.77.88,0v1.74h-.88c-.18-.31.13-1.21,0-1.74Z"/>
  <path class="cls-141" d="M86.48,60.78c-.97.04-2.2-.26-2.62.88-.57-.26-1.19-.73-1.74-.88-.24-.07-.57.04-.88,0-.13-.55-.68-1.17-.88-1.74,1.83-.4,4.27.59,6.12,1.74Z"/>
  <path class="cls-41" d="M68.11,23.19c.35.68.35,1.56,0,2.62-.04,1.39-.33,2.55-.88,3.5.57.31.57.59,0,.88l-.88.88c.75.33.77.64,0,.88-.07.04-.11,1.1-.86.88.07-3.3-.9-7.71,2.62-9.62v-.02Z"/>
  <path class="cls-134" d="M67.23,30.22c.07-.29-.04-.59,0-.88.33-.75.64-.77.88,0-.07.81.18,1.96,0,2.62-.53.11-1.34-.15-1.74,0v-.88s.88-.88.88-.88l-.02.02Z"/>
  <path class="cls-31" d="M68.14,25.81c0,1.15.11,2.36,0,3.5h-.88c.26-1.89.35-1.92.88-3.5Z"/>
  <path class="cls-121" d="M68.11,23.21h.88c-.11.2-.68,2-.88,2.62v-2.62Z"/>
  <path class="cls-90" d="M69,36.32h-.86c-.44-3.63,1.3-3.63.86,0Z"/>
  <path class="cls-41" d="M82.54,47.68c-.95-.07.02-1.3.44-.88.2.2-.13.88-.44.88Z"/>
  <path class="cls-107" d="M78.62,39.82c1.19-.24,2.33-.62,3.5-.88-.57.77-.55,1.85-.88,2.62-.31.7-.97,2.62-1.32,2.62-.59-.57-.9-1.74-1.32-2.62-.29-.57-.62-1.15-.88-1.74.26-.07.59.07.88,0h.02Z"/>
  <path class="cls-9" d="M78.6,41.56c.55.46-1.19,1.34-1.74.88-.55-.46,1.19-1.34,1.74-.88Z"/>
  <path class="cls-74" d="M76.86,39.8c-.31.35-.18.4-.88.88.11-1.06.44-.68.88-.88Z"/>
  <path class="cls-137" d="M80.34,29.75c.07-.95,1.3.02.88.44-.2.2-.88-.13-.88-.44Z"/>
  <path class="cls-7" d="M67.26,30.19c-.09.42-.46.75-.88.88l.88-.88Z"/>
</svg>