<?xml version="1.0" encoding="UTF-8"?>
<svg id="Livello_1" data-name="Livello 1" xmlns="http://www.w3.org/2000/svg" viewBox="0 0 141.73 141.73">
  <defs>
    <style>
      .cls-1 {
        fill: #eeeceb;
      }

      .cls-2 {
        fill: #dbdddb;
      }

      .cls-3 {
        fill: #c6bfbb;
      }

      .cls-4 {
        fill: #988983;
      }

      .cls-5 {
        fill: #fdfefe;
      }

      .cls-6 {
        fill: #a28e86;
      }

      .cls-7 {
        fill: #e7eeec;
      }

      .cls-8 {
        fill: #a5948e;
      }

      .cls-9 {
        fill: #d1cecb;
      }

      .cls-10 {
        fill: #fefefe;
      }

      .cls-11 {
        fill: #8e766c;
      }

      .cls-12 {
        fill: #9e908f;
      }

      .cls-13 {
        fill: #a2968e;
      }

      .cls-14 {
        fill: #93786e;
      }

      .cls-15 {
        fill: #b8afaa;
      }

      .cls-16 {
        fill: #896f61;
      }

      .cls-17 {
        fill: #dbd0cc;
      }

      .cls-18 {
        fill: #b8b0a8;
      }

      .cls-19 {
        fill: #fff;
      }

      .cls-20 {
        fill: #c4b7b3;
      }

      .cls-21 {
        fill: #876a5b;
      }

      .cls-22 {
        fill: #aba59e;
      }

      .cls-23 {
        fill: #e3d7d6;
      }

      .cls-24 {
        fill: #9b8f89;
      }

      .cls-25 {
        fill: #b7a8a2;
      }

      .cls-26 {
        fill: #ada8a2;
      }

      .cls-27 {
        fill: #dde0dc;
      }

      .cls-28 {
        fill: #a29991;
      }

      .cls-29 {
        fill: #f5f6f5;
      }

      .cls-30 {
        fill: #b5a5a4;
      }

      .cls-31 {
        fill: #c2ada6;
      }

      .cls-32 {
        fill: #baa6a1;
      }

      .cls-33 {
        fill: #a69795;
      }

      .cls-34 {
        fill: #907a6f;
      }

      .cls-35 {
        fill: #e7f4f4;
      }

      .cls-36 {
        fill: #927e74;
      }

      .cls-37 {
        fill: #f7fbfa;
      }

      .cls-38 {
        fill: #927b70;
      }

      .cls-39 {
        fill: #f5f4f3;
      }

      .cls-40 {
        fill: #a79a95;
      }

      .cls-41 {
        fill: #9a6856;
      }

      .cls-42 {
        fill: #e8dad7;
      }

      .cls-43 {
        fill: #a89693;
      }

      .cls-44 {
        fill: #9e9893;
      }

      .cls-45 {
        fill: #a59790;
      }

      .cls-46 {
        fill: #907368;
      }

      .cls-47 {
        fill: #84685c;
      }

      .cls-48 {
        fill: #998b85;
      }

      .cls-49 {
        fill: #b18b82;
      }

      .cls-50 {
        fill: #b5a39c;
      }

      .cls-51 {
        fill: #94877f;
      }

      .cls-52 {
        fill: #968074;
      }

      .cls-53 {
        fill: #b5aea6;
      }

      .cls-54 {
        fill: #846b61;
      }

      .cls-55 {
        fill: #b5afa9;
      }

      .cls-56 {
        fill: #a8a299;
      }

      .cls-57 {
        fill: #958c84;
      }

      .cls-58 {
        fill: #dddcd9;
      }

      .cls-59 {
        fill: #a38983;
      }

      .cls-60 {
        fill: #999089;
      }

      .cls-61 {
        fill: #a29189;
      }

      .cls-62 {
        fill: #998479;
      }

      .cls-63 {
        fill: #feffff;
      }

      .cls-64 {
        fill: #a49d97;
      }

      .cls-65 {
        fill: #8c7a73;
      }

      .cls-66 {
        fill: #d3c2ba;
      }

      .cls-67 {
        fill: #96746b;
      }

      .cls-68 {
        fill: #c6b3af;
      }
    </style>
  </defs>
  <path class="cls-19" d="M108.56,61.39l-.79.95c-.81,2.54-.54,2.22.79-.95.12.16,2.54,1.92,3.02,2.23,1.47.94,3.45.47,3.05,2.44-.6,3.01-4.08,1.63-4.42,1.97-.15.15.44,2.23-.03,3.51-.94,2.52-2.49,2.33-3.29,3.12-.37-.04-.37.15,0,.56-.09.26.07.76,0,1.1-3.74.4-.81-2.74-1.07-4.68-.41-2.93-2.83,0-4.44.26-.21.38-.21.92,0,1.66-1.47,1.41-5.9-2.19-5.49-3.54.76-2.49,4.94-.25,5.49-.59,2.14-1.32-.62-1.36-1.07-1.69-2.67-1.86,3.08-3.49,2.73-4.12l-2.2-1.66c.32,3.01-3.86,3.11-3.87.56,1.26-.45,1.82-1.38,1.66-2.76,3.3-3.43,3.04-.41,4.59-.63.78-.1,1.95-1.99,3.34-1.54.97.32,1.45,3.11,1.99,3.84v-.04Z"/>
  <path class="cls-19" d="M103.59,78.51q-.65.79,0,0c.69.35,3.64,1.61,3.77,1.77.26.32.01.87.09,1,.06.4-.56,2.2-.84,2.63-.1.15.15-2.36,1.39-1.53.12.28.81.48.87,1.33.07,1.14-.65,2.83-.31,4.18-7.72,1.03-1.22-3.78-6.37-6.07-1.97-.07.4,1.95-.79,3.04-1.11,1.01-2.61.69-3.89.84-.4.25-.41.43,0,.56.66.48,1.67,1.28,2.33,1.82,2.88,2.32-.43,1.97-2.33,2.6q-1.15-.47,0,0c.16.5-.15,1.29.28,2.19.4.82,1.95,1.33,1.85,2.42-.1.98-1.88,2.51-2.13,3.68h-.56c-.28-.21-1.29-.13-1.88-.62-.34-.28-2.73-2.52-2.85-2.67-1.03-1.47.78-1.04.85-1.13q.15.11,0,0c1.44-1.95-2.08-6.51-1.64-7.16.07-.09,1.45-.37,2.14-.89,1.01-.76,3.52-3.02,3.9-3.55q.49.46,0,0c.87-1.22.79-2.23,1.1-2.76,2.35-.94,2.54-1.11.56-.56-.03-1.63,2.1-2.52,3.49-2.13.66.19.82.97.92,1.03h.03Z"/>
  <path class="cls-19" d="M89.79,5.06c1.45,1.86.03,5.72-.57,8.01-.25.92.04,1.42-1.35.82s-.1-7.28-.84-8.83"/>
  <path class="cls-19" d="M75.47,125.45v-1.1h-.03c.5-.04,1.2.44,1.83.35,2.73-.4,4.14-1.98,7.14-1.32.4.09,2.01.98,2.1,1.35.18.72-.94,4.31-1.19,4.5"/>
  <path class="cls-19" d="M100.28,7.03c-.15.15-2.46,2.98-2.63,3.21-.56.78.66,1.92-1.79,1.48.18-1.41,1.04-1.63,1.1-3.32.85-.76.85-1.13,0-1.1"/>
  <path class="cls-1" d="M68.27,10.05l1.29.82c-1.6.25-.88,2.42-.19,3.59.31.45.12.82-.56,1.1,1.91.88,1.92,1.32-.06,2.33-.29.72.1,1.09.62,1.54.73-.7,1.09-.38.56.56.1.38-.26.56-1.1.56,1.35.72,1.14,2.22-.56,2.22l-.32,1.22c-1.55-.4-1.99.31-1.33,2.1.48.16.47.34,0,.56-.54-.07-1.13.13-1.67-.26s-.37-1.11-.53-1.39c-.72.48-.81.23-.56-.56-.47-.18-.47-.35,0-.56-2.42-1.7-2.79-2.63-1.1-2.76.28-.65.18-1.07-.56-1.1.19,1.07-.41,2.46-1.66,2.22.75.79.41,1.09-.56.56-1.42.82-4.11.57-2.22-1.66-1.07-1.28.19-2.57,1.66-2.22.21-1.2,1.11-1.39,2.76-.56-.45-1.03.34-1.38,1.1-.56l1.1-.56c-.21-.6-.01-1.51.56-2.76-2.14-1.45-.06-3.54,1.94-2.27.09.06-1.88.21.28-.48-.82-.73-.47-1.07.56-.56v-.56c.13,0,.41-.54.56-.56h0Z"/>
  <path class="cls-29" d="M69.37,12.81c.88-.62,1.26-.37,1.72.44,1.13-.76,2.22-.91,3.26-.44.47.15.47.34,0,.56.47.18.47.37,0,.56l.56,2.22c1.22.57,2.51.94,3.86,1.1,1.14-1.58,4.09.34,3.32,2.22.63.45,1.19,1.38,1.66,2.76.45.16.45.34,0,.56-.15.06-.37-.04-.56,0h-1.1c-.37-.03-.73.01-1.1,0-.78,1.38-1.63.87-1.66-.56-.19-.88-.56-.7-1.1.56.13.5-.06.67-.56.56-2.22,1.28-4.08-.66-1.66-1.1.7-.45-.73-2.44-1.1-1.66-.16.48-.34.47-.56,0-.78,1.07-2.04-1.25-1.66-2.22-.66-.07-.91-.53-.78-1.38-1.53.04-2.55-.41-3.1-1.38-.01-.06-.78-.16-.53-.51.07-.12.94-.25,1.07-.59-1.11-.03-1.1-.81,0-1.1v-.59Z"/>
  <path class="cls-19" d="M106.91,49.81c.78.04.56,2.3.32,2.3-.34,0,.03-2.14.78-2.3.57.04,1.2.47,1.91.44,2.05-.09,4.21-1.28,6.37-1,.72,3.99-2.57,2.1-3.9,2.99-.81.54-.37,2.38-.51,2.52-.34.37-2.3-.7-2.96-.6-.57.1-.28,1.09-.35,1.14-1.01.29-1.01.47,0,.56v1.1c-3.84.53-1.51-1.09-1.8-2.96-.15-.89-1.7-1.72-1.54-3.39.22-2.2,1.55-.84,1.69-.84v.03Z"/>
  <path class="cls-19" d="M111.88,39.86c.22-.81.57-.76,1.04.13l1.72.98c.5.13.48.32,0,.56-.63,1.32-.63,2.58,0,3.86,0,.25,1.54,2.2-.35,2.71-.19.06-3.93-.37-4.08-.51-.38-.37,1.48-4.88-.53-4.14-1.1.41-1.94,1.92-2.93-.44-1.13-2.63,1.61-1.77,2.6-2.07.88-.26,1.83-1.16,2.52-1.09h.01Z"/>
  <path class="cls-19" d="M117.39,39.86q-.36.21,0,0c.21.18,1.32-.04,1.61.88.84,2.6-2.41,2.99-4.37,2.99-.91.01-.79-1.85,0-2.22.31-.22.32-.41,0-.56-1.64-.78-3.58-2.01-.92-2.46l-1.29.26-.56-3.59c2.52-.76,3.46,2.92,5.53,4.69Z"/>
  <path class="cls-19" d="M94.22,38.22c.47.26.84.26,1.1,0,2.29,1.17,2.48,2.9,1.66,4.97q-.15-.11,0,0c-.09.23.12.75-.01,1.09-2.14.44-3.05-1.55-4.44-2.42-.65-.4-4.37-.76-2.38-2.57.43-.38,2.7-1.57,3.24-1.58.45,0,.72.5.82.51h.01Z"/>
  <path class="cls-19" d="M88.14,74.1c1.75-.84,3.36-.21,2.74,1.82-.09.28-.6.25-1.09,2.04.07.4.26.37.56,0,.76.21,1.42,1.5,2.01,1.6.47.09,4.14-2.83,4.06.6l-.56.56c-1,.72-1.39-.07-2.19.26-.59.26-.94,1.41-1.95,1.41-1.28.01-2.02-2.35-3.59-2.23.37-2.08.38-3.96,0-6.07h0Z"/>
  <path class="cls-40" d="M83.17,73c.01.87-.59,1.61-1.82,2.23-1.88,1.36-2.01,2.27-.38,2.74.38.16.37.35,0,.56-.16.07-.43-.07-.56,0l-1.1,1.1c-.09.1.09.44,0,.56-1.5,1.67-2.79,3.51-3.86,5.52-.28.22-.28.4,0,.56-.01.18.03.37,0,.56-.16.48-.34.47-.56,0-.16.48-.34.47-.56,0-.29.06-.48-.31-.56-1.1.03-.18-.04-.38,0-.56.44-.34.63-.7.56-1.1.09-.32-.09-.81,0-1.1.4-.29.59-.57.56-1.1.06-.16-.06-.4,0-.56l.56-.56c.06-.16-.06-.4,0-.56l1.66-2.76c.07-.15-.07-.41,0-.56l1.1-1.1c.09-.13-.09-.44,0-.56l1.66-1.66c.29-.22.75-.37,1.1-.56l1.1-.56c.16-.04.38.04.56,0,.69-.47.95-.22.56.56h-.01Z"/>
  <path class="cls-3" d="M76.54,10.61c.15.04.4.01.56,0l.56-.56c.18-.06.4.06.56,0,.51.84.89,1.75,1.1,2.76.81.72-1.57.85-1.47.82,1.86-.5,3.49-.63,4.53,1.22.78-.09,2.07.47,2.45,1.28.31.19.31.37,0,.56h-1.66c-.26.22-.26.4,0,.56,1.36,0,1.57.91,2.22,1.66l.56.56c.06.13-.06.37,0,.56-.56,1.2-1.38.75-1.1-.56-.79.32-1.72.32-2.76,0-.41-.88-2.39-1.94-3.32-2.22-.48-.16-.47-.34,0-.56-.48-.15-.47-.34,0-.56-.37-1.36-.88-1.19-1.95-.43-.22.16-.59-.22-.82-.67-1.04-.06-1.6-.43-1.66-1.1.04-.18-.04-.38,0-.56.85-1.31,1.53-2.26,2.76-.56.25.25.43.25.56,0-1.75-.43-2.67-1.17-2.76-2.22-.5,1.7-2.51,3.78-2.22,1.1v-.56c.57-.34,1.09-.76,1.66-1.1l.56-.56c.12-.03.43-.03.56,0l1.1,1.1v.03Z"/>
  <path class="cls-6" d="M74.88,20.54c1.04.22,1.82.63,1.1,1.66-.01.09-.5.26-.56.54.76.03,1.55.16,2.22.56,1.5-.28,1.58.01.56,1.1-.94.38-1.67.92-2.22,1.66-.18.04-.38-.06-.56,0h-2.22c-2.49,1.72-3.49-4.02-2.57-4.22,1.31.66,2.52.23,3.67-1.31h.57Z"/>
  <path class="cls-19" d="M121.56,10.05c2.13-.6,5.53,5.4,3.29,6.06-1.85.56-1.61-1.38-2.26-2.16-.5-.59-3.87-3.1-1.04-3.92h.01Z"/>
  <path class="cls-19" d="M115.74,58.08c-.72,3.81,1.19,2.39,1.58,2.82,1.69,1.83-2.67,3.95-2.13.5-5.38,1.72-5.02-3.9.56-3.32h-.01Z"/>
  <path class="cls-52" d="M58.88,72.44c.37,0,.75-.04,1.1,0l1.1.56c.18.04.41-.06.56,0,1,1,2.1,1.92,3.32,2.76.03.12.03.43,0,.56l-.56.56-.67.41c-.94-1.36-2.01-1.72-3.2-1.09-2.44-2.74-3.49-.31-3.3,2.89.47.15.47.34,0,.56l-.56.56c-3.49-.28-2.52-6.59.56-7.73.07-.07.37.04.56,0,.47.26.84.26,1.1,0v-.03Z"/>
  <path class="cls-19" d="M93.66,61.39c.85-.12,3.24-1.55,1.38,1.66-.73,1.28-3.2.76-4.17,1.38-.28.18-1.54,3.55-1.66,0-.13-4.05,1-2.67,3.87-3.04.26.72.43.65.56,0h.01Z"/>
  <path class="cls-65" d="M66.61,26.07c-.54-.26-1.33-.72-1.44-1.35-.13-.85.6-5.98,1.97-4.46l-.54,3.05c.57-.16,1.03-.5,1.66-.56,1.82-2.71,3.46.57,1.66,2.22-.26.51-.63,1.07-1.1,1.66-.18.03-.37-.03-.56,0-.67-.12-1.22-.31-1.66-.56h.01Z"/>
  <path class="cls-22" d="M71.58,74.1c.35,4.22.41,8.48.37,12.69,0,.79-.1,1.45-.92,1.11v-8.29c-.01-5.32-.21-10.47-.56-15.46v-.56c.26-.22.26-.4,0-.56v-1.66c.09-.4.28-.59.56-.56.16-.48.34-.47.56,0-.21,4.36,0,8.87,0,13.25v.03Z"/>
  <path class="cls-19" d="M86.63,89.4c.63.54,1.89.43,2.08,1.06,1.17,4-6.7,1.48-5.13-1.85,1.44-3.05,2.17.03,3.05.79Z"/>
  <path class="cls-19" d="M124.2,106.5c.76.85,2.24.69,2.07,2.66-.12,1.35-1.97,1.88-2.76,1.33-.21-.15-1.6-4.5-1.61-4.75-.07-.75.62-1.45,1.29-1.28s.66,1.63,1.01,2.02h0Z"/>
  <path class="cls-43" d="M65.51,76.86l.56.56c.22.26.34.78.56,1.1l1.1,1.66c.07.15-.07.4,0,.56l.56,1.1c.06.16-.06.4,0,.56l.56,1.1c.06.16-.04.38,0,.56l.56.56c.09.32-.07.78,0,1.1.45.81-.73,2.7-1.19,2.38-.25-.18-1.72-5.24-1.57-5.69-.48-1.55-1.38-2.98-2.7-4.28l.48-.67c-.5-.15-.48-.32,0-.56l.56-.56c.21.16.35.38.56.56h-.03Z"/>
  <path class="cls-19" d="M94.76,19.44c.35.6.89.6,1.66,0,.06,0,.38-.81,1.1-.54,1.82,2.38-7.5,8.99-3.86-.56.63-.1,1.03,1.07,1.1,1.1Z"/>
  <path class="cls-19" d="M100.29,42.07l1.1-.56c1.03-.32,1.66-1.33,2.26.84-.73.78-.84,4.53-1.44,4.68-2.42.59-1.32-1.57-1.5-2.35-.31-1.36-1.42-1.51-.43-2.63h0Z"/>
  <path class="cls-10" d="M61.09,76.86c2.07.84,5,2.67,5.52,5.52.75,1.28,1.66,4.02,1.66,5.52l1.1-2.22c.09.4.43.73.56,1.66-.41.69-.59,1.44-.56,2.22.78.37.91,1.5,0,1.66-1.48-2.96-2.13-6.07-4.18-8.8-1.32-1.76-3.39-2.95-4.65-4.46-2.1.06-1.76-1.31,0-1.1.1-.5.29-.48.56,0h0Z"/>
  <path class="cls-39" d="M67.17,10.61c.32.07.56.18.56.56-.13.21-.45.37-.56.56-2.32-.03-3.42.89-3.32,2.76,1.03,0,1.09.92,0,1.1,0,1.28-2.98.57-2.76-.56-.37-1.51-.19-2.26.56-2.22.43-2.35,1-2.49,3.67-2.71.88-.07,1.69.51,1.85.51h0Z"/>
  <path class="cls-19" d="M97.52,15.02c-.48-.34-.48-.7,0-1.1.72-.41.78-1.31,2.05-.72,3.15,1.47,1.75,5.94-1.5,3.17-.5-.44-.44-1.22-.56-1.35h0Z"/>
  <path class="cls-26" d="M69.37,10.05c.22.26.4.26.56,0,.18,0,.37-.01.56,0,.22.25.4.25.56,0,.19.04.41-.06.56,0l1.1,1.66c.22.18.98.63,1.09.56l1.13-1.66c1.31.67.89,1.51-.56,1.66.31.16.31.35,0,.56-1.33.72-2.16,1.11-3.3,2.22l-1.66-2.22c-.13-.67-.19-1.13.56-1.1q.69-.28,0,0c-.63-.65-.82-.1-.56,1.66-.12.26.1.84,0,1.1h-1.66c-.18-.15,1.28-3.89.56-4.42h1.1-.03Z"/>
  <path class="cls-8" d="M57.78,21.1c-.34,1.44,1.09,1.36,2.22,1.66,1.14.69,2.44,1.25,3.86,1.66.18,1.66-1.86,1.76-3.32,1.66-.19-.03-.4.04-.56,0-.66-.16-.97-.4-1.1-1.1,0-.18-.01-.37,0-.56-.82-.26.13-.69.09-.66-1.72.78-4.62,1.66-2.85-1-.62-1.7.41-3.8,1.66-1.66h0Z"/>
  <path class="cls-10" d="M72.7,136.5c-.45-3.61-.44-7.94,0-11.59.16-.29.35-.28.56,0,.09.48,0,1.13,0,1.66"/>
  <path class="cls-19" d="M86.57,106.24c1.48-.85,3.26.5,2.63,2.32-.4,1.14-4.84,2.07-4.36.07.03-.15,1.61-2.32,1.75-2.39h-.01Z"/>
  <path class="cls-19" d="M91.44,98.39q-.09.48,0,0c.98.34,3.3-.79,1.94,1.66-1.55,2.8-4.52-.44-4.15-2.77,1.31-.6,2.05,1.06,2.2,1.1h.01Z"/>
  <path class="cls-10" d="M71.02,46.49l.54,3.04c3.08-.43.03,1.42-.04,2.17-.16,1.67-.54,5.82,1.16,6.1-1.73.44-1.04,1.54-1.11,3.04h-.56c-.45-.67-.4-1.98,0-2.76-.43-1.98-.44-4.09,0-6.07-.43-1.77-.6-3.8,0-5.52h.01Z"/>
  <path class="cls-57" d="M72.68,114.41c.03,1.66-.03,3.32,0,4.97-.16.48-.34.47-.56,0-.16.48-.34.47-.56,0v-.56c.38-.56.41-1.1,0-1.66v-1.66c.26-.22.26-.4,0-.56v-6.63c-.31-1.31-.31-2.6,0-3.86.16-.48.34-.47.56,0,.41,3.24.59,6.56.56,9.95h0Z"/>
  <path class="cls-19" d="M86.98,30.43c-.72,1.01-3.08.45-3.29-1.35-.41-3.77,4.78-.75,3.29,1.35Z"/>
  <path class="cls-51" d="M72.13,132.07c-.72-4.08-.41-8.65,0-12.7h.56c.03,1.66,0,3.32,0,4.97h0v12.15"/>
  <path class="cls-10" d="M56.68,15.02c.13.38.13.75,0,1.1,1.01.57.47.88-.56,1.1.5-.65,1.36-.87,1.66,0,1.45.1,1.35.59,0,1.1l-.56,1.26c-1.09.28-1.45,1.33-1.1,3.17.16.32-.18,1.5,0,1.66.79.7,2.05-1.28,3.04-1.09.59.16-.25.75-.28,1.09-2.9,1.53-5.75-1.51-4.74-4.46.45-1.32,1.38-1,1.98-2.73-.37-.01-.73.03-1.1,0-.65-3.32.62-2.36,1.66-3.32.79,0,.51.6,0,1.1h0Z"/>
  <path class="cls-10" d="M57.22,72.44c-.22.23.57,1.7-1.09.56-.32,2.42-2.27,3.65-.81,6.04.43.7,1.1.84,1.33,1.13,1.28-.28,2.17,1.06,1.66,2.22-4.44-.89-6.4-8.49-1.1-9.95Z"/>
  <path class="cls-10" d="M74.34,86.8l.56,1.66c-.19,1.41-.79,2.63-1.1,3.86,0,1.16-.88,1.13-1.1,0-.09-2.67.6-4.22,1.1-6.63.54-.04.53.69.56,1.1h-.01Z"/>
  <path class="cls-10" d="M71.02,79.63c-.91-.57-.56-2.1-.56-3.02-.04-4.14.01-8.29,0-12.42.91.57.56,2.1.56,3.02.04,4.14,0,8.3,0,12.42Z"/>
  <path class="cls-10" d="M31.83,32.69h2.76c-.56,2.95.47,4.06-3.3,4.42"/>
  <path class="cls-10" d="M71.58,74.1c.6,1.69,1.03,13.82.54,14.35-.13.15-1.2.12-1.1-.54,0-.07.56-.45.57-1.33.04-4.15-.03-8.32-.01-12.47Z"/>
  <path class="cls-10" d="M71.02,94.53c.48.13.91-.23,1.1.56-.19,3.18-.38,6.31-.56,9.39v3.86c-1.22-4.4-.47-9.29-.56-13.8-.43-.12-1.53.15-1.66,0-.09-.1,0-1.72,0-2.22.75-.7.97-.4.56.56.19.41.38.41.56,0-.69-.38-.75-.78,0-1.1.88.47.53,1.88.56,2.76h0Z"/>
  <path class="cls-10" d="M72.68,114.41c-.07-3.07-.48-6.65-.56-9.95-.44-1.55-.53-3.45,0-4.97,1.26,4.68.21,10.06.56,14.9h0Z"/>
  <path class="cls-19" d="M111.12,97.32c3.23.75,1.42,3.95-1.16,3.27-1.64-.43.35-2.9,1.16-3.27Z"/>
  <path class="cls-4" d="M80.96,22.76c.04.35-.07.79,0,1.1.22.5-.16.81-.56,1.1-.15.06-.38-.04-.56,0-1.01,1.29-3.81.19-1.66-.56-.21-.26-.38-1-.56-1.1.18-.19.34-.43.56-.56.15-.91.47-1.38,1.1-.56.69-.03,1.35.54,1.66.56h.01Z"/>
  <path class="cls-19" d="M122.37,36c-.47.29-.62.89-1.66.54-1.03-4.34,4.28-4.88,2.2-1.1-.43-.23-.62-.06-.56.56h.01Z"/>
  <path class="cls-10" d="M71.33,129.8c0-3.45.23-6.97.23-10.43h.56v12.7"/>
  <path class="cls-19" d="M94.74,121.6c.51.66-.1,3.27-1.91,2.74-2.33-.69.54-4.49,1.91-2.74Z"/>
  <path class="cls-19" d="M84.27,10.61c-.51.78-.97.57-1.66,0-.45-.04-.63-.23-.56-.56,1-.87,2.11-.59,2.22.56Z"/>
  <path class="cls-19" d="M78.2,10.05c2.76-.95,1.22.18,2.27,1.07.21.18.82-.5,1.04-.51.38-.26.75-.32,1.1,0,.94.18,1.31.54,1.1,1.1-.09.29.06.76,0,1.1-.81.37-2.23-.32-2.76-1.1-.1.48-.29.45-.56,0-.62,1.53-1.35.97-2.22-1.66h.01Z"/>
  <path class="cls-19" d="M92.56,12.81v2.76c-3.83.47-3.76-3.26,0-2.76Z"/>
  <path class="cls-19" d="M95.32,108.88c-3.64.91-3.34-3.52-.84-2.76.92.28.92,1.94.84,2.76Z"/>
  <path class="cls-10" d="M114.64,41.52c.1.69-.07,1.5,0,2.22.06.54-.03,1.11,0,1.66l-2.76-2.2c.45-.1,1.45.15,1.66,0,1.29-.95-1.45-.98-1.1-1.64.73-.06,1.48.06,2.2,0v-.03Z"/>
  <path class="cls-10" d="M114.64,40.97c.16.03,1.25-1.11,1.66.54-.54.04-1.11-.04-1.66,0-.03-.19.04-.41,0-.56h0Z"/>
  <path class="cls-10" d="M112.42,38.76c.37-.35,1.06-.59,1.38-1.1-.21,1.04,1.36.72,1.36.82-.01,1.35-2.13.19-2.19.28-.88,1.07,1.32,1.19,1.66,2.22-1.33-.25-2.52-1.07-2.76-1.1-.06-.56.19-.76.56-1.1h-.01Z"/>
  <path class="cls-64" d="M71.02,34.34c.04,2.39-.03,4.8,0,7.17-.69-.73-1.06-2.02-1.1-3.86.03-1.29,0-2.58,0-3.86.16-.48.34-.47.56,0,.26-.32.44-.15.56.56h-.01Z"/>
  <path class="cls-10" d="M51.71,48.71c.87-.7,3.68,3.2,1.94,3.29-1.69-.18-3.42-2.1-1.94-3.29Z"/>
  <path class="cls-10" d="M40.85,30.3c.41.41,1.1.53,1.47,1.03l-2.2-.28c-.44.91,1.38,1.94,1.1,2.2-.84.82-1.13-.76-1.55-1.07-.28-.21-1.09.07-1.2-.03-.45-.41,1.29-2.54,1.11-3.32.38-.31.97,1.14,1.29,1.47h-.01Z"/>
  <path class="cls-10" d="M96.97,62.51c0-1.55.84-1.91,1.66-2.76,2.13,1.44.4,4.12-1.66,2.76Z"/>
  <path class="cls-19" d="M88.69,69.68c.31.35.67.53,1.1.56,2.13,2.48-1.83,4.42-2.22-.26-.01-.47.69-.34,1.11-.28h0Z"/>
  <path class="cls-19" d="M115.19,70.24h-.56v-.56c.28.18.43.15.56.56Z"/>
  <path class="cls-19" d="M114.08,69.68c.32.06.54.19.56.56.37,0,.54.19.56.56-.16.56-.4,1.07-1.13.88-2.54-.69-4.72-3.77.03-1.98h-.01Z"/>
  <path class="cls-55" d="M71.02,46.49c.04,1.83,0,3.68,0,5.52-.16.48-.34.47-.56,0-.45-1.35-.69-9.27-.28-9.83.12-.16.44-.15.84-.1.1,1.45-.04,2.96,0,4.42h0Z"/>
  <path class="cls-10" d="M85.37,79.63c-.34,1.45-.65,1.41-1.1,0-.15-.16.31-1.14-.28-1.11l-1.38,1.11v-1.66c-.69-.15-1.11.34-1.66.56v-.56c.18-3.89,6.28-1.63,4.42,1.66Z"/>
  <path class="cls-19" d="M119.05,11.71c-.25.22-.25.4,0,.56,0,.04,1.14.31,0,.84-3.39,1.54-2.27-5.79,0-1.38h0Z"/>
  <path class="cls-10" d="M82.61,72.44s-.1-.53.85-.57c1.51-.06,3.99.82,4.68,2.22.76,1.57.85,4.59,0,6.07-.09.15-1.85,1.47-2.22,1.66-1.09-1.04-.94-1.33.56-1.1l-.34-1.29c2.02-1.98.88-5.75-2.29-5.41l-.69-1.03-.56-.56h0Z"/>
  <path class="cls-19" d="M119.05,74.1c-.38-.62-.22-1.2.56-1.1,2.46-2.96,4.91,1.58-.56,1.1Z"/>
  <path class="cls-19" d="M122.65,21.11c1.25.57,2.04,2.96.54,3.3s-1.99-2.66-.54-3.3Z"/>
  <path class="cls-19" d="M118.3,81.33c1.5-.26,2.41,2.3.4,2.67-1.5.26-2.41-2.3-.4-2.67Z"/>
  <path class="cls-19" d="M120.45,67.48c1.89-.41,3.05,2.51,1.64,2.76-.94.16-3.37-2.38-1.64-2.76Z"/>
  <path class="cls-12" d="M58.32,79.63c1.09.78,1.64,1.7,1.66,2.76-.34.07-1.32.07-1.66,0-.53-.73-1.07-1.51-1.66-2.22l.56-.56c.07-.15-.07-.41,0-.56-.78-.78-.44-1.1.56-.56.38,0,.56.37.56,1.1v.03Z"/>
  <path class="cls-56" d="M72.13,99.5c.04,1.66-.03,3.32,0,4.97h-.56c0-2.99-.47-6.72.56-9.39.25,1-.04,3.17,0,4.42Z"/>
  <path class="cls-19" d="M101.67,99.5c1.14-.19,1.79.6,2.46,1.38-1.22,1.86-4.72.47-2.46-1.38Z"/>
  <path class="cls-10" d="M71.02,41.52c.01.18,0,.37,0,.56-1.26,2.86-.56,6.72-.56,9.95.38.12.35.31,0,.56-.85-2.13-.69-5.1-.79-7.45-.07-1.5,1.16-2.77-.87-3.32l1.1-.26c.03-1.29-.03-2.58,0-3.87.38.75,1.04,3.17,1.1,3.86h.01Z"/>
  <path class="cls-59" d="M85.37,79.63c.78-.01,1.16.34,1.1,1.1-.23.31-.34.76-.56,1.1-.13.07-.38-.07-.56,0l-1.1.56c-.18,0-.38.03-.56,0-.78-.35-1.39-1.06-.56-1.66.13-.09.43.09.56,0l.56-.56v-.56c.09.1.79-.06,1.1,0h.01Z"/>
  <path class="cls-10" d="M101.39,71.9c.28.38.48.84.5,1.33-.03.37-.44.26-.5.32-.45-.6-2.66-1.61-2.76-1.94-.5-1.57,2.04-.72,2.76.28Z"/>
  <path class="cls-68" d="M60.54,12.27l.56.56h.56c-.1.57.09,1.31,0,1.92l-.54.28-1.1-1.1c-.76,1.29-1.55.84-1.66-.56-.79.01-.47-.57,0-1.1.41-.1,1.7-.06,2.22,0h-.03Z"/>
  <path class="cls-19" d="M112.71,81.29c1.5-.34,1.89,2.45.54,2.76-1.5.34-1.89-2.45-.54-2.76Z"/>
  <path class="cls-19" d="M97.52,101.16c1.14,1.14-1.04,3.36-2.2,2.2-.89-.88,1.31-3.1,2.2-2.2Z"/>
  <path class="cls-19" d="M117.95,31.03l1.1.56c.25.88-.07,1.69-.82,2.2-1.31-.5-1.95-3.15-.54-3.29.22-.01.23.53.26.54h0Z"/>
  <path class="cls-19" d="M97.53,111.09c-1.09-1.5,1.7-3.05,2.2-.82.32,1.47-1.89,1.26-2.2.82Z"/>
  <path class="cls-19" d="M99.73,33.24c1.39-1.47,2.05,1.26,1.66,1.66-.32.31-3.61.4-1.66-1.66q.15.11,0,0Z"/>
  <path class="cls-19" d="M125.67,51.46c-.4.4-2.46-.21-2.2-1.36.45-2.04,3.27.31,2.2,1.36Z"/>
  <path class="cls-10" d="M50.61,39.87c2.52-.84,2.67,2.74,1.38,2.74-.54,0-1.09-2.17-1.38-2.74Z"/>
  <path class="cls-10" d="M83.73,12.81c.25.25,1.75,3.02,1.64,3.55l-.54.31c-.01-.18.01-.37,0-.56-1.36-.91-2.85-1.86-4.46-2.82l.59-1.6c.66.04,2.35.67,2.76,1.1h.01Z"/>
  <path class="cls-10" d="M98.91,5.64c.63,1.41-.15,3.33-1.94,2.76,0-.34.07-.85,0-1.1"/>
  <path class="cls-19" d="M123.47,88.46c.26.65.51.79,1.1,1.1.07.31-.03.75,0,1.1-2.08.34-3.1-1.39-1.38-2.74.32-.04.25.53.28.54Z"/>
  <path class="cls-19" d="M117.12,125.44c-1.29.28-1.83-1.92-.54-2.2,1.35-.29,1.83,1.92.54,2.2"/>
  <path class="cls-10" d="M71.02,34.34l-.56-.56c-.23-1.97-.43-3.99-.56-6.07.04-.22-.06-.45.28-.54,1.28.12.81,5.82.84,7.17Z"/>
  <path class="cls-19" d="M125.12,97.85c1.89,1.07-1.23,5.24-1.1,0,.28-.28.65-.28,1.1,0Z"/>
  <path class="cls-60" d="M71.02,58.09c-.16.48-.34.47-.56,0-.5-.1-.47-.29,0-.56v-5.53h.56c0,2.02.03,4.05,0,6.07h0Z"/>
  <path class="cls-19" d="M117.67,87.36c1.66-.43,2.42,1.31,1.09,1.64-1.66.43-2.42-1.31-1.09-1.64Z"/>
  <path class="cls-28" d="M70.47,33.79h-.56c0-1.67-.31-4.69,0-6.07,1.2,1.5.29,4.17.56,6.07Z"/>
  <path class="cls-10" d="M90.34,49.81v.56l-.56.56c-.03.59.79,1.91.56,2.2-.12.15-.84-.09-1.1,0-.85.13-1.36-1.06-.56-1.66.31-.62.44-.95.56-1.66.15-1.38.65-1.29,1.1,0Z"/>
  <path class="cls-10" d="M108.01,49.81l.54,2.22c-1.67-1.11-.76.38-1.38.56-.48-.41-1.03-2.33-.28-2.77.37.03.73-.03,1.1,0h.01Z"/>
  <path class="cls-10" d="M70.47,57.54v.56c.38.12.35.31,0,.56h-2.76c.4-1.07,1.82-1.88,2.76-1.1h0Z"/>
  <path class="cls-19" d="M113.26,77.41c1.54-.35,1.63,2.2.54,2.2-.41,0-2.07-1.85-.54-2.2Z"/>
  <path class="cls-52" d="M60.54,76.86l-.54.28c.25.22.35.6.54.84-.35.06-.81-.09-1.1,0l-1.1,1.66c-.18-.32-.59-.6-.56-1.1-1.94-2.07,2.77-4.83,2.76-1.66h0Z"/>
  <path class="cls-19" d="M125.67,8.39h-2.2c0-2.2,2.2-2.17,2.2,0Z"/>
  <path class="cls-19" d="M98.62,32.69h-2.2c0-2.2,2.2-2.17,2.2,0Z"/>
  <path class="cls-19" d="M112.98,107.78c-1.06-.98,2.22-2.46,2.2-.82,0,.57-1.83,1.17-2.2.82Z"/>
  <path class="cls-19" d="M88.69,41.52c4.12,2.52-4.88,1.14-.56,0,.23.23.41.23.56,0Z"/>
  <path class="cls-19" d="M109.66,22.76c.38.31.76.67,1.1,1.1-.76,1.6-3.84.32-1.38-1.64.13,0,.19.53.26.54h.01Z"/>
  <path class="cls-10" d="M99.17,79.63c.62-.59,2.51-1.63,2.76,0l-3.32.56c.16-.29.37-.37.56-.56h0Z"/>
  <path class="cls-53" d="M70.47,90.12c.01.54,0,1.11,0,1.66,0,.37.03.75,0,1.1-.16.48-.34.47-.56,0-.06-.25-.31-.47-.56-.56,0-.37.01-.73,0-1.1s.18-.67,0-1.66c.16-.48.34-.47.56,0,.26-.34.45-.16.56.56Z"/>
  <path class="cls-10" d="M46.18,106.68c-1.04,1.88-1.47,1.92-2.76.26l2.76-.26Z"/>
  <path class="cls-10" d="M59.98,61.95c-.37.37-2.2-.15-2.2-1.1l2.2-.56c-.06.44.12,1.54,0,1.66Z"/>
  <path class="cls-19" d="M97.25,119.92c1.17-.26,1.72,1.38.54,1.66s-1.72-1.38-.54-1.66Z"/>
  <path class="cls-19" d="M89.24,53.12c-.75.26-.16.75-1.1,0l-.56-.56c.03-.7,1.01-.92,1.1-1.1l.56,1.66Z"/>
  <path class="cls-19" d="M90.34,49.81h-1.1c.01-.12-.91-1.57.28-2.22.37,0,.81,1.75.82,2.22Z"/>
  <path class="cls-10" d="M56.4,31.6c.98,0,.94,2.2,0,2.19s-.94-2.2,0-2.19Z"/>
  <path class="cls-10" d="M78.2,24.41c.57.75-1.19,1.38,1.66.56-.88,2.23-1.77.23-2.49.18-.4-.03-.97.82-1.36.92l.56-2.76c.06-.07,1.53.95,1.66,1.1h-.01Z"/>
  <path class="cls-19" d="M99.17,99.5c.4.18,1.55-.41,1.1.82-.75,2.01-1.73.12-2.2-.26-.54-.85.31-.73,1.1-.56Z"/>
  <path class="cls-10" d="M61.08,100.05c-.56.56-2.22-1.07-1.66-1.66s2.22,1.07,1.66,1.66Z"/>
  <path class="cls-10" d="M99.17,99.5l-1.1.56c-.45-.37-.91-.95-1.1-1.1h.56c.76-.22,1.17.35,1.66.56h-.01Z"/>
  <path class="cls-10" d="M45.08,34.34c-.19-.21-.35-2.07.82-1.64,1.7.62-.28,2.23-.82,1.64Z"/>
  <path class="cls-19" d="M89.24,124.9c-.19-.21-.35-2.07.82-1.64,1.7.62-.28,2.23-.82,1.64Z"/>
  <path class="cls-10" d="M88.69,22.2l1.38-.54c1.73,1.23-.66,2.6-1.38.54Z"/>
  <path class="cls-19" d="M32.94,88.72c-.41-1.16,1.45-1.01,1.64-.82.57.53-1.04,2.52-1.64.82"/>
  <path class="cls-30" d="M69.92,87.9c.34.54.48,1.2,0,1.66h-.56c-.09-.54-1.45-1.44.56-2.22.03.18,0,.37,0,.56h0Z"/>
  <path class="cls-10" d="M96.42,19.44v1.66l-2.16-1.2.5-.45c.18.07,1.32.04,1.66,0Z"/>
  <path class="cls-19" d="M103.05,20.54c-2.2-.37,2.17-3.1,1.1-.56l-1.1.56Z"/>
  <path class="cls-10" d="M97.52,13.91l.54.28-.54.82c-.15-.18-.97.34-1.11-.28-.31-1.36.72-.6,1.11-.82Z"/>
  <rect class="cls-19" x="121.81" y="30.49" width="1.1" height="1.66"/>
  <rect class="cls-19" x="92.56" y="30.49" width="1.66" height="1.1"/>
  <path class="cls-18" d="M73.78,92.32c-.12.47.13,1.26,0,1.66-.32.41-.76.44-1.1,0-.12-.32.01-1.17,0-1.66h1.1Z"/>
  <path class="cls-10" d="M64.95,75.75c-1.13-1.07-3.4-.94-3.32-2.76.88.38,3.02,1.85,3.32,2.76Z"/>
  <path class="cls-10" d="M119.61,73c-.23.28-.34.78-.56,1.1-.15,0-.37-.45-.56-.56-.85.03-.78-1.39,0-1.66.4.26.72.79,1.1,1.1h.01Z"/>
  <path class="cls-19" d="M118.49,71.9v1.66c-.26-.13-1.13.29-1.11-.28.04-1.42.15-2.02,1.11-1.38Z"/>
  <rect class="cls-19" x="124.58" y="70.24" width="1.1" height="1.66"/>
  <path class="cls-19" d="M85.37,68.02c2.99,1.73-.7,2.27-.56,1.1l.56-1.1Z"/>
  <rect class="cls-10" x="76" y="116.62" width="1.66" height="1.1"/>
  <path class="cls-10" d="M83.73,82.39c-.73-.12-1.17-.09-1.64-.82.26-.45.72-.59,1.1-.82l.56,1.66h-.01Z"/>
  <path class="cls-13" d="M71.02,60.85c-.04.26-.29.5-.56.56v-.56c-.5-.1-.47-.29,0-.56v-2.22h.56c0,.88.12,1.95,0,2.76h0Z"/>
  <path class="cls-10" d="M93.66,61.39l.54.26c-.82,2.23-2.16,2.07-1.09-.26.18-.03.37.03.56,0h-.01Z"/>
  <path class="cls-10" d="M76,60.85l-1.66,1.66c-.19-1.01.6-1.83,1.66-1.66Z"/>
  <path class="cls-10" d="M73.78,60.85c-.19.79-.89,1.26-1.66,1.1v-1.1h1.66Z"/>
  <path class="cls-10" d="M70.47,60.29v.56c-2.7.48-2.14-2.11,0-.56Z"/>
  <path class="cls-10" d="M62.19,58.64h-1.66v-1.1c.76-.18,1.47.29,1.66,1.1Z"/>
  <path class="cls-10" d="M66.05,33.24v1.1c-.81.18-1.14-.25-1.66-.82l1.66-.26h0Z"/>
  <path class="cls-10" d="M71.58,26.61c-.4-.09-.97-.94-1.38-.94s-1.04.91-1.38.94c0-.81.31-1.42,1.1-1.66.85-1.03,1.51.73,1.66,1.66Z"/>
  <path class="cls-23" d="M57.78,13.37c1.95.65.51,3.01-1.1,1.66.1-.16-.07-.79,0-1.1.19-.18.35-.44.56-.56.18-.23.35-.23.56,0h-.01Z"/>
  <path class="cls-10" d="M80.96,108.34c.5.26,1.11.59.28,1.1h-1.38c-.18-.91,0-.81.54-1.1.23.23.43.23.56,0Z"/>
  <path class="cls-10" d="M108.01,82.39c-1.04.37-.84,1.79-1.66,1.66.26-1-.12-2.41,1.1-2.76.04.07.51,1,.56,1.1Z"/>
  <path class="cls-10" d="M60.54,81.83q-.15-.11,0,0c-.1.12-.03.44-.56.56-.66-.87-1.13-1.82-1.66-2.76,0-.82.28-1.42,1.1-1.66-1.41,2.05.18,2.48,1.64,3.59.07.32-.53.25-.54.28h.01Z"/>
  <path class="cls-19" d="M34.03,96.75c.6.6-.5,1.7-1.1,1.1"/>
  <path class="cls-10" d="M76,58.08l-1.66-.26c.73-1.04,1.19-.94,1.66.26Z"/>
  <path class="cls-10" d="M64.39,64.17c.26.21-.97,1.47-1.66,1.1-.26-.21.97-1.47,1.66-1.1Z"/>
  <path class="cls-10" d="M89.8,70.24l-.28.54c-1.03.19-.88-.16-.82-1.1.65.07.67.06,1.1.56Z"/>
  <path class="cls-10" d="M90.34,77.97c.06.94.19,1.28-.82,1.1-.85-.29.25-1.01.26-1.1h.56Z"/>
  <path class="cls-10" d="M84.27,10.61c.01.23-.45.78-.56,1.1-.62-.16-.78-.67-1.1-1.1.54-.04,1.1.03,1.66,0Z"/>
  <path class="cls-10" d="M82.61,10.61c-.37.03-.73-.03-1.1,0,.16-.21.35-.38.56-.56.19.18.4.35.56.56h-.01Z"/>
  <path class="cls-10" d="M69.92,79.07c.6.6-.5,1.7-1.1,1.1s.5-1.7,1.1-1.1Z"/>
  <path class="cls-10" d="M70.47,115.51c.6.6-.5,1.7-1.1,1.1s.5-1.7,1.1-1.1Z"/>
  <path class="cls-33" d="M74.88,86.8c.43.28.28.67,0,1.1,0,.18.03.38,0,.56-1.32-.63-.54-1.39-.56-1.66h.56Z"/>
  <path class="cls-10" d="M70.47,90.12l-.56-.56c0-.56.01-1.1,0-1.66.84.38.53,1.48.56,2.22h0Z"/>
  <path class="cls-10" d="M55.02,125.45c-.6-.6.5-1.7,1.1-1.1s-.5,1.7-1.1,1.1"/>
  <path class="cls-10" d="M83.73,22.76v-.56c-.79-.85-.47-1.16.56-.56.37-.73,1.01-1.31,1.66-1.66.03.13.82.26.32,1.07-.44.72-1.73,1.36-2.52,1.69h-.01Z"/>
  <path class="cls-10" d="M109.66,22.76c.79.18,1.32-.37,1.1,1.1-1.17.13-1.23.07-1.1-1.1Z"/>
  <path class="cls-10" d="M64.39,24.96c-2.01,1.89-1.75,1.47-3.86,1.1,1.7-.73,2.13.5,3.32-1.66.5.03.38.25.56.56h-.01Z"/>
  <polygon class="cls-10" points="43.98 33.8 43.98 35.44 43.43 35.44 42.87 33.8 43.98 33.8"/>
  <path class="cls-10" d="M101.39,41.52c.06.94.21,1.29-.82,1.1l-.28-.54c.41-.45.62-.4,1.1-.56Z"/>
  <path class="cls-10" d="M58.32,13.37c-.19.47-.37.47-.56,0h-.56c.18-.1.35-.91,1.1-1.1v1.1h.01Z"/>
  <path class="cls-10" d="M93.66,71.88c-1.16.16-1.26.06-1.1-1.1l1.1,1.1Z"/>
  <path class="cls-10" d="M61.09,73c-.09-.01-.51,1.04-1.1-.56.47.04.94,0,1.1.56Z"/>
  <path class="cls-10" d="M71.58,118.82v-1.66c.84.07.84,1.58,0,1.66Z"/>
  <path class="cls-10" d="M75.44,125.45c-.03-.07-1.35-1.03,0-1.1l.54.84"/>
  <path class="cls-10" d="M74.88,81.83c1.06.81.67,1.33-.56,1.1.12-.38.43-.73.56-1.1Z"/>
  <path class="cls-10" d="M68.81,83.49c-1.44.1-1.31,0-.56-1.1.06.15.34.45.56,1.1Z"/>
  <path class="cls-10" d="M73.78,85.14c.18-.79.54-1.04.56-1.1.79.4.1.89-.56,1.1Z"/>
  <path class="cls-10" d="M97.52,85.7v.56s-.81.81-1.1-.54c.37-.03.75.03,1.1,0h0Z"/>
  <path class="cls-10" d="M124.57,89.56c-1.17.13-1.23.07-1.1-1.1.5.26.97.5,1.1,1.1Z"/>
  <path class="cls-10" d="M70.47,97.83c-1.16.16-1.26.06-1.1-1.1l1.1,1.1Z"/>
  <path class="cls-10" d="M84.27,98.39c-1.16.16-1.26.06-1.1-1.1l1.1,1.1Z"/>
  <path class="cls-10" d="M53.36,114.39c-1.16.16-1.26.06-1.1-1.1l1.1,1.1Z"/>
  <path class="cls-10" d="M59.98,26.07c-.98-.29-1.11.67-1.1-1.1l1.1,1.1Z"/>
  <path class="cls-10" d="M68.27,26.61c-.45.06-1.2.06-1.66,0v-.56c.35.18,1.35-.25,1.66.56Z"/>
  <path class="cls-9" d="M72.68,18.34c.18.91.87,1.72,1.66,2.22-.19,2.32-3.07,1.95-3.32,2.22-.12.12.45,3.18.56,3.3.13.15,1.22-.1,1.64,0-.28.04-.76.75-1.66.56-.04-.75-1.61-1.54-1.66-1.66-.53-1.38,1.22-2.46-1.66-2.22.6-.67-.04-1.55.56-2.22.89-.34,1.67-.26,2.22.56.69-.19,1.23-.56,1.66-1.1l-.56-.56c-.47-.18-.47-.37,0-.56-.75-.84-.41-1.14.56-.56h0Z"/>
  <path class="cls-10" d="M75.44,26.07c-.13.04-.29.48-.81.5-.6.01-.98-.4-1.39-.5.79-.13,1.38-.32,2.22,0h-.01Z"/>
  <path class="cls-10" d="M76.54,105.56c-1.16.16-1.26.06-1.1-1.1l1.1,1.1Z"/>
  <path class="cls-10" d="M119.05,31.59c-1.13.7-1.2.92-1.1-.56.35.12.92-.12,1.1.56Z"/>
  <path class="cls-10" d="M63.29,31.59l-1.1,1.1c-.16-1.16-.06-1.26,1.1-1.1Z"/>
  <path class="cls-10" d="M122.92,35.44c-.1.18-.37.44-.56.56-.5-.91-1.04-1.23.26-1.1l.28.54h.01Z"/>
  <path class="cls-10" d="M57.78,38.22s.21,1.17-.26,1.1c-1.51-.87-.37-1.73.26-1.1Z"/>
  <path class="cls-10" d="M72.68,11.15v.56c-.56-.44-.88-1-1.1-1.66.56.22.91.51,1.1,1.1Z"/>
  <path class="cls-10" d="M104.15,19.98c-.26.62-.29.69-1.1.56l1.1-.56Z"/>
  <path class="cls-10" d="M83.17,22.76c-1.16.26-.62.03-1.1,0h1.1Z"/>
  <path class="cls-10" d="M38.44,33.79c-.19.38-.94-.32-.54-1.1.19-.38.94.32.54,1.1Z"/>
  <path class="cls-10" d="M95.32,38.22l-.28.54-.82-.54c.35.06.91-.1,1.1,0Z"/>
  <path class="cls-10" d="M82.61,42.62c-.19.38-.94-.32-.54-1.1.19-.38.94.32.54,1.1Z"/>
  <path class="cls-10" d="M108.56,55.32v.56c-2.68-.29-.09-.47,0-.56Z"/>
  <path class="cls-10" d="M66.05,59.75c.38.19-.32.94-1.1.54-.38-.19.32-.94,1.1-.54Z"/>
  <path class="cls-10" d="M73.23,62.51c.38.19-.32.94-1.1.54-.38-.19.32-.94,1.1-.54Z"/>
  <path class="cls-10" d="M69.91,67.47c-.19.38-.94-.32-.54-1.1.19-.38.94.32.54,1.1Z"/>
  <path class="cls-10" d="M84.83,69.12v-.82l.56-.28c.22.56-.54,1.04-.56,1.1Z"/>
  <path class="cls-10" d="M64.41,69.68c-.54-.26,1.1-1.07,1.64-.82-.48.6-.84,1.01-1.64.82Z"/>
  <path class="cls-10" d="M72.68,71.34c-.19.38-.94-.32-.54-1.1.19-.38.94.32.54,1.1Z"/>
  <path class="cls-10" d="M58.88,72.44l-.28.54-.82-.54c.26-.07.75,0,1.1,0Z"/>
  <path class="cls-10" d="M82.07,72.44c-.18.06-.82.41-1.1.56l1.1-.56Z"/>
  <path class="cls-10" d="M50.59,74.11c.38.19-.32.94-1.1.54-.38-.19.32-.94,1.1-.54Z"/>
  <path class="cls-10" d="M106.91,74.65c-.09.09.06.37,0,.56-.72.03-.85-1.04-.28-1.1l.28.56h0Z"/>
  <path class="cls-10" d="M75.44,80.17c.41-1,.29-2.27,1.66-2.76-.48.95-.78,2.05-1.66,2.76Z"/>
  <path class="cls-10" d="M67.71,80.17c-.79-.23-1.06-.87-1.1-1.66.38.59.7.87,1.1,1.66Z"/>
  <path class="cls-10" d="M68.27,81.83l-.56-1.1c.13.31.32.54.56,1.1Z"/>
  <path class="cls-10" d="M75.44,86.24c-.31-.16-.31-.35,0-.56,1.07-1.98,1.7-4.42,3.86-5.52-1.57,1.98-2.45,4.05-3.86,6.07Z"/>
  <path class="cls-10" d="M85.37,81.83c-.13.04-.19.5-1.1.56l1.1-.56Z"/>
  <path class="cls-10" d="M74.88,87.9v-1.1h.56c-.07.45,0,.92-.56,1.1Z"/>
  <path class="cls-10" d="M49.49,93.99c.38.19-.32.94-1.1.54-.38-.19.32-.94,1.1-.54Z"/>
  <path class="cls-10" d="M73.78,93.97c-.34.95-.81.85-1.1,0h1.1Z"/>
  <path class="cls-10" d="M125.12,97.85c-.16-.09-.76.06-1.1,0l.28-.54.82.54Z"/>
  <path class="cls-10" d="M70.47,98.95c.38.19-.32.94-1.1.54-.38-.19.32-.94,1.1-.54Z"/>
  <path class="cls-10" d="M37.34,106.68c.38.19-.32.94-1.1.54-.38-.19.32-.94,1.1-.54Z"/>
  <path class="cls-10" d="M47.83,107.23c.38.19-.32.94-1.1.54-.38-.19.32-.94,1.1-.54Z"/>
  <path class="cls-10" d="M56.66,108.34c.38.19-.32.94-1.1.54-.38-.19.32-.94,1.1-.54Z"/>
  <path class="cls-10" d="M66.05,118.28c.38.19-.32.94-1.1.54-.38-.19.32-.94,1.1-.54Z"/>
  <path class="cls-19" d="M73.24,124.9h-.56v-.56c.26.07.51.29.56.56Z"/>
  <path class="cls-10" d="M41.5,116.07c.35.19.35.37,0,.56v-.56Z"/>
  <path class="cls-10" d="M71.58,115.51v-.56l.54.28-.54.28Z"/>
  <path class="cls-10" d="M55.84,111.09c.35.19.35.37,0,.56v-.56Z"/>
  <path class="cls-10" d="M78.48,109.99c.35.19.35.37,0,.56v-.56Z"/>
  <path class="cls-66" d="M80.41,108.34s.5-.03.56,0l-.28.54s-.28-.54-.28-.54Z"/>
  <path class="cls-10" d="M63.02,103.92c.35.19.35.37,0,.56v-.56Z"/>
  <path class="cls-10" d="M67.99,95.63c.35.19.35.37,0,.56v-.56Z"/>
  <path class="cls-10" d="M69.37,84.59l-.56-.56s.45.16.56.56Z"/>
  <path class="cls-10" d="M74.88,81.27c.26-.75.54-.51.56-.56l-.56.56Z"/>
  <path class="cls-10" d="M95.86,80.73l.56-.56c0,.48-.38.43-.56.56Z"/>
  <path class="cls-10" d="M83.73,80.73c.18-.12.32-.43.56-.56l-.56.56Z"/>
  <path class="cls-10" d="M79.3,79.63l1.1-1.1s-.97.95-1.1,1.1Z"/>
  <path class="cls-10" d="M66.05,77.41l-.56-.56c.19.16.38.35.56.56Z"/>
  <path class="cls-10" d="M77.1,76.86c.41-.76.98-.91,1.1-1.1l-1.1,1.1Z"/>
  <path class="cls-10" d="M78.2,75.2c.66-.84.73-1,1.66-1.66l-1.66,1.66Z"/>
  <path class="cls-10" d="M115.19,70.78c-.19-.18-.37-.37-.56-.56h.56c.03.12.03.44,0,.56Z"/>
  <path class="cls-10" d="M114.64,70.24l-.56-.56c.18.06.44-.07.56,0v.56Z"/>
  <path class="cls-10" d="M62.47,66.37c.35.19.35.37,0,.56v-.56Z"/>
  <path class="cls-10" d="M70.47,63.61v-.56l.54.28-.54.28Z"/>
  <path class="cls-10" d="M88.14,53.12c-.09-.07-.65.04-.56-.56l.56.56Z"/>
  <path class="cls-19" d="M89.8,50.91l.56-.56c.01.35-.56.51-.56.56Z"/>
  <path class="cls-10" d="M60.26,45.95c.35.19.35.37,0,.56v-.56Z"/>
  <path class="cls-10" d="M88.14,41.52c.1-.03.48-.04.56,0l-.28.54-.28-.54Z"/>
  <path class="cls-10" d="M51.98,38.76c.35.19.35.37,0,.56v-.56Z"/>
  <path class="cls-19" d="M124.3,32.69c.35.19.35.37,0,.56v-.56Z"/>
  <path class="cls-10" d="M72.4,29.37c.35.19.35.37,0,.56v-.56Z"/>
  <path class="cls-10" d="M38.72,26.61c.35.19.35.37,0,.56v-.56Z"/>
  <path class="cls-10" d="M80.41,24.96l.56-1.1c.06.25.98.51-.56,1.1Z"/>
  <path class="cls-10" d="M85.93,19.44l-.56-.56c.16.19.47.38.56.56Z"/>
  <polygon class="cls-10" points="83.17 17.23 82.63 16.95 83.17 16.68 83.17 17.23"/>
  <path class="cls-19" d="M86.21,13.37c.35.19.35.37,0,.56v-.56Z"/>
  <path class="cls-10" d="M61.09,12.81l-.56-.56c.25.03.5.29.56.56Z"/>
  <path class="cls-10" d="M119.05,12.27l-.54-.28.54-.28c.06.12-.03.35,0,.56Z"/>
  <path class="cls-10" d="M67.71,11.15l-.56-.56h.56v.56Z"/>
  <path class="cls-10" d="M77.1,10.61c.1,0,.32-.48.56-.56l-.56.56Z"/>
  <path class="cls-10" d="M76.54,10.61c-.57-.15-.89-.59-1.1-1.1.57.15.89.59,1.1,1.1Z"/>
  <path class="cls-41" d="M70.47,10.05c.19.01.38-.03.56,0l-.28.54s-.28-.54-.28-.54Z"/>
  <path class="cls-10" d="M69.37,10.05h.56l-.28.54s-.28-.54-.28-.54Z"/>
  <path class="cls-10" d="M74.34,10.05l.56-.56c-.12.03-.32.41-.56.56Z"/>
  <path class="cls-10" d="M108.56,61.39c.07.07-.6,1.11-.19,2.07s2.63.66.21,1.53l1.67,2.22c-1.33-.19-1.7,3.43-2.76,2.48-.21-.19-1.17-4.5-1.1-5.19.06-.56,1.19-4,2.2-3.08h-.03Z"/>
  <path class="cls-10" d="M100.55,59.75c.35.19.35.37,0,.56v-.56Z"/>
  <path class="cls-10" d="M105.53,58.64c.35.19.35.37,0,.56v-.56Z"/>
  <path class="cls-10" d="M97.52,90.66c-1.35.45-1.28,1.11-1.36,1.11-2.79-.23-.73-4.64.81-3.32.09.07.37,1.6.56,2.2h0Z"/>
  <path class="cls-10" d="M108.01,86.8h-2.49l-.26-2.2c.7-.59,2.96,2.04,2.76,2.2h0Z"/>
  <path class="cls-10" d="M97.52,94.53c1.06.89.19,2.27-1.38,2.19-.23-.07.23-3.17,1.38-2.19Z"/>
  <polygon class="cls-10" points="103.59 78.51 103.03 80.73 102.49 80.73 102.49 78.51 103.59 78.51"/>
  <path class="cls-10" d="M97.52,82.93c.59-.59,1.72.48,1.1,1.1s-1.69-.51-1.1-1.1Z"/>
  <path class="cls-10" d="M104.15,81.83s-.21-1.17.26-1.1l1.38,1.38c-.29.1-1.58-.22-1.64-.28Z"/>
  <path class="cls-10" d="M93.1,94.53c.26-.26.88.51.28.56-.19,0-.4-.43-.28-.56Z"/>
  <path class="cls-10" d="M95.04,86.8c.35.19.35.37,0,.56v-.56Z"/>
  <path class="cls-10" d="M100.01,82.93c.35.19.35.37,0,.56v-.56Z"/>
  <path class="cls-10" d="M88.69,6.74l1.1,1.1c-1.16.16-1.26.06-1.1-1.1"/>
  <path class="cls-10" d="M81.23,124.34c.35.19.35.37,0,.56v-.56Z"/>
  <path class="cls-61" d="M72.68,18.34c-.15.16-.54.4-.56.56-.16.48-.34.47-.56,0-.47.6-1.73.59-2.17.01-.41-.53.87-.32-.03.53-2.63-1.14-3.42-2.32,0-2.77.15-.12-.43-.75-.56-1.1,1.07.65,2.1-.31,3.3.25,1.79.84.53,2.29.56,2.51h.01Z"/>
  <path class="cls-11" d="M57.78,18.34c.65-1.13,1.94-.95,1.66.56-.54.69-1.07,1.57-1.66,2.22-.09.09-.69-.15-.97.07-.09.07.48,1.51-.69,1.58-.04-.09-.76-.26-.98-.92-.72-2.16.6-3.15,2.64-3.49h0Z"/>
  <path class="cls-34" d="M67.17,11.71c-.12.23.15,1,0,1.11-.44.35-1.97-1.88-2.2,1.66-.16,1.51-.45,1.29-1.1,0-.15-.47-1.66-1.47-1.09-2.74,1.5-.48,2.98-1,4.4-.03h-.01Z"/>
  <path class="cls-20" d="M61.09,15.02c.98.44,1.51.84,2.76.56q.15.11,0,0c-.04-.35.09-.84,0-1.1.32.07.95-.1,1.1,0,.38.26,1.36,1.82,1.1,2.22-1.48-1-1.06.23-1.66.56h-.56c-.79.28-2.02.53-2.22-.56-.37-.26-.7-.16-1.1,0h-.56c-.19.48-.37.48-.56,0-1.53-.6-1.06-2.16.56-2.22.53-.23.98.03,1.1.56h.03Z"/>
  <path class="cls-54" d="M60.54,22.2c.69-1.13,1.79-.59,3.32,1.66-.06.18.07.43,0,.56-.44-.03-3.77.72-3.86.56.07-.69-.13-1.57,0-2.22.03-.18.48-.38.56-.56h-.01Z"/>
  <path class="cls-62" d="M62.74,21.1c-.13,1.28-1,1.48,1.66,1.66.18.13-.44.76-.56,1.1l-3.32-1.66c.7-1.72.67-1.17,1.66-2.22,1.42-1.19,1.44-.34.56,1.1h0Z"/>
  <path class="cls-45" d="M56.68,16.13c1.09-2.3,3.73-.34,1.1,1.1.79-1.32,1.33-1.51,1.66-.56h.56c1.8.22,2.55.78,2.22,1.66-.92.29-1.77.47-2.76.56-.12,0-1.41-.6-1.66-.56.06-.35-.09-.82,0-1.1-.53.04-1.13.03-1.66,0,.13-.38.4-.73.56-1.1h-.01Z"/>
  <path class="cls-2" d="M61.64,16.68c.72.04,1.82-.29,2.22.56l-.56.56c-.37.16-.75.44-1.1.56l-2.22-1.66h.56c.38-.18.72-.29,1.1,0h0Z"/>
  <path class="cls-27" d="M71.58,18.88c1.13,1.44.37,2.05-1.1,1.1-.16.48-.35.48-.56,0-.15-.19-.32-.45-.56-.56l-.56-1.1,2.76.54h.01Z"/>
  <path class="cls-25" d="M62.19,19.98c.53-.56,1.64-2.24,2.2-1.66.48.51-1.17,2.27-1.66,2.76.04-.41,0-1.14-.56-1.1h.01Z"/>
  <path class="cls-50" d="M69.92,19.98c.13-.07.38.07.56,0,1.06-.63,1.54.4.56,1.1-.6-.28-1.54-.31-2.22-.56.66-.72.87-.41,1.1-.56h0Z"/>
  <path class="cls-49" d="M64.39,17.23c-.41.22-.66.35-1.1.56l.56-.56h.56-.01Z"/>
  <path class="cls-17" d="M65.49,18.88c-.19.38-.94-.32-.54-1.1.19-.38.94.32.54,1.1Z"/>
  <path class="cls-47" d="M82.07,19.44c.32-.54.69-.95.56-1.66,1.07.23,1.54.95,2.2,1.66.97.75.37,1.64-.56,2.22-.22.16-.48.23-.56.56-1.25.16-2.02-.45-2.76-1.38,1.35-.34.88-1,1.1-1.38h.01Z"/>
  <path class="cls-36" d="M74.88,10.61c.16-.06,2.48,1,3.32.56-.37.51-.37,1.28-.56,1.66-.16.29-.35.29-.56,0l-2.76.56c.04-.18-.04-.38,0-.56.26-.21.26-.38,0-.56.07-.4.32-1.58.56-1.66Z"/>
  <path class="cls-5" d="M74.88,20.54c-.1-.41-1.14-1.23-.28-1.66.97.35,5.02,3.83,1.38,3.32.04-.25-.03-.48-.28-.5-1.38,1.1-.6-.26-.84-1.16h.01Z"/>
  <path class="cls-58" d="M74.34,13.91c.97.73,1.95-.91,1.66,1.1.7.54.34.91-1.1,1.1-.13-.07-.69.13-.95-.13-1.41-1.48.37-1.95.4-2.08h0Z"/>
  <path class="cls-15" d="M77.66,16.68c.04-.82.85-.78,1.1,0v.56c-.63-.19-1.91.16-2.93-.12-.67-.19-.78-.89-.92-1,1.23-.87,2.08-.81,2.76.56h0Z"/>
  <path class="cls-6" d="M78.2,22.76c-.47-2.07,1.26-2.58,1.1-.56-.16,0-.85.4-1.1.56Z"/>
  <path class="cls-48" d="M69.92,11.71c-.15.38-.41.72-.56,1.1-.06.16.06.4,0,.56l-.54-2.22c.15-.22.81.51,1.1.56h0Z"/>
  <path class="cls-6" d="M78.48,19.98c.35.19.35.37,0,.56v-.56Z"/>
  <path class="cls-32" d="M76.26,18.34c.35.19.35.37,0,.56v-.56Z"/>
  <path class="cls-10" d="M114.36,45.95c.35.19.35.37,0,.56v-.56Z"/>
  <path class="cls-10" d="M95.86,41.52c-.19.38-.94-.32-.54-1.1.19-.38.94.32.54,1.1Z"/>
  <path class="cls-10" d="M96.97,43.17c-.26.26-.88-.51-.28-.56.19,0,.4.43.28.56Z"/>
  <path class="cls-16" d="M83.17,73c3.7-.65,5.75,2.13,4.84,5.68-.22.87-1.03,1.39-1.53,2.05-1.61-.15-.82-.62-1.1-1.1-1.32-2.3-1.35-3.67-4.42-1.66l-3.86,1.39c.85-2.27,3.61-5.93,6.06-6.35h0Z"/>
  <path class="cls-33" d="M75.44,86.24c-1.13-.29-.03-.5,0-.56v.56Z"/>
  <path class="cls-46" d="M80.96,11.71c-.13,2.17,2.95.69,2.22,3.32,1-.94,1.51-.1,1.66,1.1-.73-.72-3.67.16-3.87,0-.1-.07.48-.72.38-.97-.32-.92-2.7-1.64-3.7-1.23-.09-.67,1.03-.79,1.66-1.1.5-.25.87-.62,1.1-1.1.18-.01.38,0,.56,0h0Z"/>
  <path class="cls-37" d="M76,15.02c.66-.25,2.42-.12,3.32-.56.37.91-.44,1.29-.54,1.66-1.01-.31-1.38-.12-1.1.56-.92-.13-1.79-.63-2.76-.56-.04-.29,1.03-1.07,1.1-1.1h-.01Z"/>
  <path class="cls-44" d="M85.93,19.98c.37,1.6-1.16,1.29-1.66,1.66l.56-2.22c.22.23.78.38,1.1.56h0Z"/>
  <path class="cls-42" d="M78.76,16.13c-.04.16.03.38,0,.56-.35-.03-.75.06-1.1,0l-.56-1.1h1.38s.28.54.28.54Z"/>
  <path class="cls-10" d="M77.1,12.81h.56c-.07.16-.04.38-.26.47l-.29-.47Z"/>
  <path class="cls-10" d="M117.39,39.86c.29.26-.53.82-1.1.54-.51-.25.67-.95,1.1-.54Z"/>
  <path class="cls-10" d="M114.08,59.75v.54c-2.3.28-2.3-.82,0-.54Z"/>
  <path class="cls-10" d="M114.91,59.19c.35.19.35.37,0,.56v-.56Z"/>
  <path class="cls-21" d="M57.22,79.07c-3.64-1.07-.75-2.13-.69-2.3.15-.4-.44-.88-.41-1.23.03-.43.82-.29.94-.45.18-.25-.43-.89-.37-.95.72-.89,4.93.1,4.09,1.61,1.69-1.6,2.7,1.03,3.61,1.11.04.18-.06.38,0,.56.1,1.45-1,1.28-3.32-.56h-.56c-.06,0-.35-.45-.73-.41-1.55.18-1.35,1.1-2.02,2.07-.13.19-.43.34-.56.56h.01Z"/>
  <path class="cls-21" d="M56.68,80.17l.56-.56c-.09.18.06.63-.56.56Z"/>
  <path class="cls-10" d="M64.39,76.86l.56-.56c-.09.34-.09.6-.56.56Z"/>
  <path class="cls-10" d="M84.29,90.12l.26-1.66c1.04.73.94,1.19-.26,1.66Z"/>
  <path class="cls-10" d="M87.31,90.66c.35.19.35.37,0,.56v-.56Z"/>
  <path class="cls-52" d="M64.39,77.41c.34,1.06,3.34,3.77,2.22,4.97-1.19-2.01-3.83-3.9-5.52-5.52.19,0,.85-.72,1.06-.53.59.53-.09,2.26,2.26,1.09h-.01Z"/>
  <path class="cls-10" d="M102.77,42.07c.35.19.35.37,0,.56v-.56Z"/>
  <path class="cls-67" d="M69.92,11.71l.31-.51c.82-.06,1.53-.31,1.35.51-.54-.03-1.13.07-1.66,0Z"/>
  <path class="cls-10" d="M74.34,12.81c.04-.16-.04-.37,0-.56l.54.28c-.09.37-.41.21-.54.28Z"/>
  <path class="cls-10" d="M87.87,107.22c.35.19.35.37,0,.56v-.56Z"/>
  <path class="cls-10" d="M91.44,98.39s.6,1.06.56,1.1c-1.16.95-1.55-1.44-.56-1.1Z"/>
  <path class="cls-10" d="M111.6,98.95c.35.19.35.37,0,.56v-.56Z"/>
  <path class="cls-10" d="M78.2,10.05c.98.19,1.11,1.33,1.11,2.22.16.22.81-.53,1.1-.56.32,1.58-.67.89-1.1,1.1-2.07.38.03-1.25-1.1-2.76h-.01Z"/>
  <path class="cls-10" d="M102.77,100.6c.35.19.35.37,0,.56v-.56Z"/>
  <path class="cls-14" d="M59.98,13.91c.48.16.47.34,0,.56l-.56,2.22c-.09,0-.76.48-1.66.56.1-.32.75-.95.56-1.1h-1.66c-2.35.03-.4-.53,0-1.11.78-.26,1.11-.84,1.1-1.66.18.01.37-.01.56,0,.97.1.94.22,1.66.56h0Z"/>
  <path class="cls-7" d="M59.98,13.91c.43.21,1.28-.26,1.1,1.1-.35-.16-.85-.09-1.1-.56v-.56h0Z"/>
  <path class="cls-10" d="M113.26,82.39c.35.19.35.37,0,.56v-.56Z"/>
  <path class="cls-10" d="M99.73,33.24c.26-.26.88.51.28.56-.19,0-.4-.43-.28-.56Z"/>
  <path class="cls-24" d="M70.47,92.87c-.03.38.23,1.11-.28,1.11-.54,0-.18-.7-.28-1.11h.56Z"/>
  <path class="cls-31" d="M60.54,81.83c-.26.26-.88-.51-.28-.56.19,0,.4.43.28.56Z"/>
  <path class="cls-63" d="M72.13,19.44l.56.56c.22.34.51.67.29,1.1-1.04,2.16-1.75.09-1.95,0l-.56-1.1c.53-.21.89-.57,1.1-1.1h.56c-.01.16-.03.4,0,.56h0Z"/>
  <path class="cls-29" d="M72.68,19.98c-.22-.12-.5-.31-.56-.56.21.16.41.34.56.56Z"/>
  <path class="cls-38" d="M61.64,16.68c-.35-.03-.75-.01-1.1,0l.82-.54.28.54Z"/>
  <path class="cls-35" d="M63.85,15.57c.26-.26.88.51.28.56-.19,0-.4-.43-.28-.56Z"/>
</svg>