<?xml version="1.0" encoding="UTF-8"?>
<svg id="Livello_1" data-name="Livello 1" xmlns="http://www.w3.org/2000/svg" viewBox="0 0 141.73 141.73">
  <defs>
    <style>
      .cls-1 {
        fill: #ac9085;
      }

      .cls-2 {
        fill: #977a6a;
      }

      .cls-3 {
        fill: #e6f0ed;
      }

      .cls-4 {
        fill: #b5afa7;
      }

      .cls-5 {
        fill: #b9b1a7;
      }

      .cls-6 {
        fill: #cfcec9;
      }

      .cls-7 {
        fill: #cfc7be;
      }

      .cls-8 {
        fill: #866757;
      }

      .cls-9 {
        fill: #b8b5a7;
      }

      .cls-10 {
        fill: #9f8674;
      }

      .cls-11 {
        fill: #968273;
      }

      .cls-12 {
        fill: #917764;
      }

      .cls-13 {
        fill: #a87f75;
      }

      .cls-14 {
        fill: #afa59b;
      }

      .cls-15 {
        fill: #ad9c92;
      }

      .cls-16 {
        fill: #e4e0dc;
      }

      .cls-17 {
        fill: #a4a99d;
      }

      .cls-18 {
        fill: #9b816f;
      }

      .cls-19 {
        fill: #a89382;
      }

      .cls-20 {
        fill: #967a69;
      }

      .cls-21 {
        fill: #a48d80;
      }

      .cls-22 {
        fill: #a38c7c;
      }

      .cls-23 {
        fill: #dceff1;
      }

      .cls-24 {
        fill: #a18d7c;
      }

      .cls-25 {
        fill: #edeae7;
      }

      .cls-26 {
        fill: #b4a697;
      }

      .cls-27 {
        fill: #fefefe;
      }

      .cls-28 {
        fill: #d4d1ca;
      }

      .cls-29 {
        fill: #9c9085;
      }

      .cls-30 {
        fill: #ae9786;
      }

      .cls-31 {
        fill: #967b6d;
      }

      .cls-32 {
        fill: #b5a594;
      }

      .cls-33 {
        fill: #886a57;
      }

      .cls-34 {
        fill: #907463;
      }

      .cls-35 {
        fill: #b0aba0;
      }

      .cls-36 {
        fill: #997c6b;
      }

      .cls-37 {
        fill: #d5d8d3;
      }

      .cls-38 {
        fill: #8c7060;
      }

      .cls-39 {
        fill: #896f5e;
      }

      .cls-40 {
        fill: #ab968e;
      }

      .cls-41 {
        fill: #9a9086;
      }

      .cls-42 {
        fill: #fff;
      }

      .cls-43 {
        fill: #d3d2cb;
      }

      .cls-44 {
        fill: #9b8779;
      }

      .cls-45 {
        fill: #927563;
      }

      .cls-46 {
        fill: #816551;
      }

      .cls-47 {
        fill: #d6d2ca;
      }

      .cls-48 {
        fill: #927668;
      }

      .cls-49 {
        fill: #987d6d;
      }

      .cls-50 {
        fill: #baa698;
      }

      .cls-51 {
        fill: #daeeed;
      }

      .cls-52 {
        fill: #a0867b;
      }

      .cls-53 {
        fill: #aa968c;
      }

      .cls-54 {
        fill: #b2a8a0;
      }

      .cls-55 {
        fill: #957566;
      }

      .cls-56 {
        fill: #efe5e0;
      }

      .cls-57 {
        fill: #927564;
      }

      .cls-58 {
        fill: #bdb9af;
      }

      .cls-59 {
        fill: #b5a6a0;
      }

      .cls-60 {
        fill: #ccd4d0;
      }

      .cls-61 {
        fill: #a08b85;
      }

      .cls-62 {
        fill: #a18c7c;
      }

      .cls-63 {
        fill: #9d857e;
      }

      .cls-64 {
        fill: #c8d0cd;
      }

      .cls-65 {
        fill: #8a6d5c;
      }

      .cls-66 {
        fill: #b4a29d;
      }

      .cls-67 {
        fill: #a29083;
      }

      .cls-68 {
        fill: #846756;
      }

      .cls-69 {
        fill: #beafa1;
      }

      .cls-70 {
        fill: #e1e2df;
      }

      .cls-71 {
        fill: #b39e91;
      }

      .cls-72 {
        fill: #948c80;
      }

      .cls-73 {
        fill: #886958;
      }

      .cls-74 {
        fill: #896c5c;
      }

      .cls-75 {
        fill: #a1978e;
      }

      .cls-76 {
        fill: #dde1de;
      }

      .cls-77 {
        fill: #b09c8c;
      }

      .cls-78 {
        fill: #cab1a7;
      }

      .cls-79 {
        fill: #f6f8f7;
      }

      .cls-80 {
        fill: #eaedec;
      }

      .cls-81 {
        fill: #cdc6bd;
      }

      .cls-82 {
        fill: #b9b1a4;
      }

      .cls-83 {
        fill: #856957;
      }

      .cls-84 {
        fill: #9b8473;
      }

      .cls-85 {
        fill: #dfeae7;
      }

      .cls-86 {
        fill: #fbfbfa;
      }

      .cls-87 {
        fill: #a08976;
      }

      .cls-88 {
        fill: #b7a297;
      }

      .cls-89 {
        fill: #cfc3bd;
      }

      .cls-90 {
        fill: #9c887a;
      }

      .cls-91 {
        fill: #987b6a;
      }

      .cls-92 {
        fill: #c9baac;
      }

      .cls-93 {
        fill: #c2c3ba;
      }

      .cls-94 {
        fill: #957969;
      }

      .cls-95 {
        fill: #947b6b;
      }

      .cls-96 {
        fill: #aa9586;
      }

      .cls-97 {
        fill: #9f8878;
      }

      .cls-98 {
        fill: #c7bcb3;
      }

      .cls-99 {
        fill: #b1a59c;
      }

      .cls-100 {
        fill: #9f8373;
      }

      .cls-101 {
        fill: #896958;
      }

      .cls-102 {
        fill: #927867;
      }

      .cls-103 {
        fill: #d5d0c9;
      }

      .cls-104 {
        fill: #8f7162;
      }

      .cls-105 {
        fill: #c8b9ae;
      }

      .cls-106 {
        fill: #b39b8d;
      }

      .cls-107 {
        fill: #c5b8b1;
      }

      .cls-108 {
        fill: #a68c7d;
      }

      .cls-109 {
        fill: #9f897b;
      }

      .cls-110 {
        fill: #ab9183;
      }

      .cls-111 {
        fill: #f0efee;
      }

      .cls-112 {
        fill: #95887c;
      }

      .cls-113 {
        fill: #b49f90;
      }

      .cls-114 {
        fill: #8f7664;
      }

      .cls-115 {
        fill: #907362;
      }

      .cls-116 {
        fill: #b19e91;
      }

      .cls-117 {
        fill: #c1b3ab;
      }

      .cls-118 {
        fill: #cce7e5;
      }

      .cls-119 {
        fill: #d6cec5;
      }

      .cls-120 {
        fill: #8b705e;
      }

      .cls-121 {
        fill: #937a6a;
      }

      .cls-122 {
        fill: #a28b80;
      }

      .cls-123 {
        fill: #bfb7b1;
      }

      .cls-124 {
        fill: #aa978f;
      }

      .cls-125 {
        fill: #a69e95;
      }

      .cls-126 {
        fill: #927565;
      }

      .cls-127 {
        fill: #cac0b6;
      }

      .cls-128 {
        fill: #b4aba3;
      }

      .cls-129 {
        fill: #b3b5ad;
      }

      .cls-130 {
        fill: #a08978;
      }

      .cls-131 {
        fill: #ad9a88;
      }

      .cls-132 {
        fill: #85685b;
      }

      .cls-133 {
        fill: #998276;
      }

      .cls-134 {
        fill: #b19887;
      }

      .cls-135 {
        fill: #f0f0ee;
      }

      .cls-136 {
        fill: #a2988f;
      }

      .cls-137 {
        fill: #b9b3aa;
      }

      .cls-138 {
        fill: #9a8478;
      }

      .cls-139 {
        fill: #9e8c81;
      }

      .cls-140 {
        fill: #aa9887;
      }

      .cls-141 {
        fill: #b1a499;
      }

      .cls-142 {
        fill: #fbfcfb;
      }

      .cls-143 {
        fill: #b6aca6;
      }

      .cls-144 {
        fill: #a69689;
      }

      .cls-145 {
        fill: #dddbd5;
      }

      .cls-146 {
        fill: #86695a;
      }

      .cls-147 {
        fill: #927666;
      }

      .cls-148 {
        fill: #8e7364;
      }

      .cls-149 {
        fill: #e8ece9;
      }

      .cls-150 {
        fill: #decac2;
      }

      .cls-151 {
        fill: #f0f3f1;
      }

      .cls-152 {
        fill: #beaca0;
      }

      .cls-153 {
        fill: #948076;
      }

      .cls-154 {
        fill: #8e7c74;
      }

      .cls-155 {
        fill: #927b6c;
      }

      .cls-156 {
        fill: #a58f85;
      }

      .cls-157 {
        fill: #bbbfb4;
      }

      .cls-158 {
        fill: #a8a096;
      }

      .cls-159 {
        fill: #967d6d;
      }

      .cls-160 {
        fill: #a79284;
      }

      .cls-161 {
        fill: #937563;
      }

      .cls-162 {
        fill: #bcada0;
      }

      .cls-163 {
        fill: #c6dcd9;
      }

      .cls-164 {
        fill: #836756;
      }

      .cls-165 {
        fill: #826352;
      }

      .cls-166 {
        fill: #a08979;
      }

      .cls-167 {
        fill: #a38c7b;
      }

      .cls-168 {
        fill: #fbfcfc;
      }

      .cls-169 {
        fill: #ac8b80;
      }

      .cls-170 {
        fill: #8e6c5a;
      }

      .cls-171 {
        fill: #937061;
      }

      .cls-172 {
        fill: #b0afa7;
      }

      .cls-173 {
        fill: #a99686;
      }

      .cls-174 {
        fill: #b4aca3;
      }
    </style>
  </defs>
  <path class="cls-45" d="M46.7,67.43c1.5-.94,1.11,2.02-.64,1.26.32.44.39.86,0,1.26-.17.08-.49-.1-.64,0-1.64,1.9-3.13,3.8-4.44,5.69.05.42-.08.91,0,1.26l.64,1.26c.07.18-.07.45,0,.64.2.76.63,1.43,1.27,1.9.42.79.79,1.83,1.27,2.54,1.84,2.1,2.69,1.46,2.55-1.9.61-.94,1.77-1.36,3.51-1.28-3.97-.84-5.14-2.1-3.51-3.8.19-.35.39-.34.64,0-.42-1.09-.35-1.26.64-.64-.56-1.21.22-1.24,1.27-.64.22-.55.42-.55.64,0,.57-1.43,1.22-2.07,1.91-1.9,2.97,1.34,5.08.72,6.35-1.9l.07-1.26c1.18-.2,1.79-.62,1.84-1.28-.08-1.5,2.45-2,3.18-.64.79,2.4-1.01,1.08-.96.96.35-.87,3.55.17,1.17,1.6l.42.6c.41-.17,1.22,0,1.2.1-.32,1.16-3.13,5.44-4.38,3.07q-.9.06,0,0c1.35.44,1.88,2.1,1.57,5.01,1.39.77,2.13,1.63,2.25,2.59-.79,1.23-.79,2.7,0,4.42l.64.64c2.69-2.7,4.65,3.98,1.91,4.42-.32-1.01-.95-1.63-1.91-1.9-.54.66-1.15,1.19-1.91.64-1.23,1.02-3.18,1.6-4.75,1.08-.07-.02,1.37.17.93.82-.19.07-.46-.07-.64,0l-1.27.64-.52,1.97c-1.23-.47-2.53-.69-3.94-.71-.35.55-.46.76,0,1.26,1.2-1.08,1.33-.96,1.27.64.78-.86,1.15-.45.64.64-.59.64-1.74.34-2.55,0-.2.55-.42.55-.64,0-.05,2.97-3.33,0-4.44-1.26.2-.37.63-.37,1.27,0,1.69-1.08-1.98-2.5-4.07-3.07-.76-.3.86-.54.25,1.18.59.18.57.4,0,.64l-1.27.64v.64c.03,2.22-3.7,1.66-4.44,0l-.1-.87c-1.44-.4-2.03-1.18-1.81-2.3.73-.37,1.37-.79,1.91-1.26h.64l.64.64c-.81-2.3-.39-3.54,1.23-3.75l.19-2.59c-2.26-.76-4.39-2.69-3.97-5.06-2.33-1.93-5.73-5.49-5.73-8.21-.12-1.08-.03-1.68,1.27-1.9.19-.55.39-.54.64,0,1.84-.72,2.23,1.68,1.91,3.16.66-.13,1.3-.77,1.91-1.9l.51.18c.56-4.22,5.42-6.95,8.4-3.98v.02Z"/>
  <path class="cls-42" d="M50.52,48.46l1.49.27c1.11,2.17,1.89,4.18,2.33,6.05,1.32.74,2.79.1,4.44-1.9-.56-.18-.54-.39,0-.64.19-.55.39-.54.64,0l-2.53,4.1c.69,1.26,2.01.69,2.77.97,1.89.69-.84,1.56-1.13,1.91-.35.45-2.23,2.96-2.28,3.14-1.03.17-2.3-.47-3.82-1.9-.17.54-.39.54-.64,0-.61-.74-1.23-.96-1.91-.64-.17.54-.39.54-.64,0-1.96.12-1.74,1.83-.64,3.16,1.13-.45,2.58-.62,3.18.64,1.3.37,2.36.79,3.18,1.26-2.6.27-2.6,2.03-3.82,2.82-1,.64-2.13,1.06-3.18,1.6l-.73-.3c.44-1.53.27-2.07-.54-1.6-1.22.05-4.81.22-5.57.77-.15.12-1.15,2.39-2.04,3.36s-1.49,1.65-1.28-.34c-.86-.39-.98-1.56,0-1.9-.39-1.68-.17-2.32.64-1.9-.46-.71-.19-1.14.64-1.26-.54-.18-.54-.39,0-.64l.64-.64c-1.13-1.01,3.43-3.04,3.23-2.91-3.89,1.65-5.19,3.9-6.42,7.32,1.22.3.86,4.4-.64,3.8-.56-1.19-1.37-2.1-1.91-3.16-.39-.37-.59-1.01-.64-1.9-1.77-.47-1.82-2.08,0-2.54-.35-.12-.3-.34,0-.64-1.81-1.91-.2-7.44,1.91-8.21.24-1.76,2.04-1.7,2.55,0,1.17-.03,2.85-1.26,2.42-2.82,1.77-1.75,3.72-3.34,5.84-4.77.35-1.38,4.14-2.42,4.44-.64l.03.05Z"/>
  <path class="cls-33" d="M95.65,31.4l5.25,1.06c2.62,2.08-1.77,7.61-2.7,1.48-.61,0-1.03.22-1.27.64,3.19-.13,3.06,3.7,0,3.16-2.8,2.37-2.16,4.12,1.79,4.13l.1,2.18c.54.18.54.4,0,.64.41.76.14,1.04-.64.64-.54.59-1.77.2-1.91-.64q-.17-.12,0,0c.2.67,0,1.29-.64,1.9.51,2.18-3.36,2.89-4.44,1.26-.32.37-.78.52-1.35.45l-1.82,2.7c-.07.18.07.44,0,.64-1.49,5.49-6.54,4.03-7.79-.74l-1.74-2.42c-.03-.2,0-.42,0-.64.19-1.56.61-3.04,1.27-4.42.03-.2-.05-.44,0-.64.3-.54.3-.96,0-1.26.07-.2-.07-.45,0-.64l-.63-.67c2.11-1.7,4.02-3.59,5.71-5.64,1.54-2.23,3.87-3.07,6.99-2.54.19-.55.39-.54.64,0,1.33-.02,2.8,3.39,0,2.54-.71.34-.25.71.64.64.32-.89.76-1.73,1.27-2.54h-.64c-1.72-1.39.2-2.22,1.91-1.26v-.02Z"/>
  <path class="cls-42" d="M106.47,36.45c.95-4.74,6.57.02,5.71-6.32-2.62,2.6-6.4,1.93-3.48-1.9,5.15,2.49,2.65.08,4.75-.96,1.28-.64,5.25.34,6.2,1.13.63.52.56,1.66.81,2.37l.64.64c.86,3.28-3.31-.4-3.61-.5-2.45-.86-2.26.29-2.11,2.4,1.39.64,8.46-.18,8.82.08,1.72,1.24.81,5.95-.64,6.8-1.08.62-2.5-.89-3.48-.99-1.82-.18-3.68.64-6.11-.35-1.08-.45-2.5-2.35-2.7-2.35-.29,0-3.18,3.23-4.29,3.93-2.33,1.46-4.85,1.65-6.82,3.65-.98.66-1.15-1.02-.64-1.9-.57-.13-.56-.34,0-.64-.88-.84-.52-.91.64-.64-.86-.82-.41-1.71.64-1.9.98-.49,2.04-1.13,3.18-1.9-.54-.15-.52-.37,0-.64.08-.57.3-.79.64-.64.66-.07.93.08,1.27.64,1.25,1.5,1.45,1.5.64,0l-.03-.02Z"/>
  <path class="cls-73" d="M51.78,32.66c.19-.32.41-.32.64,0,.2.05.46-.07.64,0l1.27,1.26c1.05,2.07,2.53,3.75,4.44,5.06.17.34.44,1.34.64,1.9l.64,2.54c.03.2-.03.42,0,.64l.64,1.26c.1,1.13.08,2.65,0,3.8-.2,1.29-.63,1.71-1.27,1.26-.25,1.09-.52,1.61-1.27.64-.15.57-.37.55-.64,0-2.04,3.33-3.26-.94-.64-2.54.44-.87.51-1.7,0-2.54-.41-.17-.39-.39,0-.64-.29-.47-.51-.49-.64,0,.51,2,.08,4.12-1.27,6.32-.03.66.17,1.28.64,1.9-.12-1.8.25-2.02,1.91-1.26.2-.55.41-.55.64,0,.17-.57.39-.55.64,0v.64c-1.64,1.97-3.11,2.59-4.44,1.9-1.77-1.46-2.91-4.07-3.82-6.32-2.36-.13-2.01-3.85-.64-5.06-.71-.1-1.06-.76-1.27-1.26-1.44,1.01-2.96-.4-3.18-1.9-.84-.07-.84-.69,0-1.9-.34-1.04-.29-1.23.64-.64.51-.79,1.15-1.21,1.91-1.26,1.88,1.23,2.94,1.01,3.18-.64-3.02-.59-2.38-4.38.64-3.16h-.05Z"/>
  <path class="cls-147" d="M110.28,60.47c.29-1.95,1.3-3.36,3.02-4.25.61-5.56,1.98-6.77,4.12-3.59,1.54-.5,2.55-.22,3.02.91,3.63-.86.68,3.93-1.39,5.11l1.39,1.85c.57.15.57.37,0,.64-.81.52-1.45,1.16-1.91,1.9.3.17.27.37,0,.64,0,.2.03.44,0,.64l-.83,1.29c-5,2.62-9.39,5.98-13.16,10.08-2.2-.4-2.08-3.28,0-3.8.74-.92,1.39-1.76,1.91-2.54.05-.18-.05-.42,0-.64l.64-1.26c.02-.2,0-.42,0-.64l.64-3.16c.17-1.29,1-1.29,1.27,0,.54-.05.74-.69.64-1.9-.05-.17.03-.42,0-.64.03-.39.24-.6.64-.64h-.02Z"/>
  <path class="cls-39" d="M81.03,78.18c2.33-2.89,2.77,2.35.64,3.8.52.24.93.76,1.27,1.26.64-.94,1.33-.49,1.27.64.51.2.51.42,0,.64.56.18.54.39,0,.64.05,1.55-.02,1.71-1.27.64,0,.82-.59,1.01-1.27.64l.64.64c.32-.52.76-.3,1.27.64.12-1.81.15-2.2,1.91-2.54l-.64-.64c-.57-.32.02-1.18.64-1.26.19-.55.39-.54.64,0,.47.3.9-.12,1.27-1.26.17-1.75,1.47-1.53,2.4-.24.49.69.03,9.83-1.77,10.35q-.12.17,0,0c.59-1.76,1.23-1.98,1.91-.64.78.99.14,2.27-1.91,3.8-.08,1.29-.3,2.15-.64,2.54-.32.18-.51.18-.64.64-.19.55-.39.54-.64,0-1.15.42-1.3-.39-.64-1.26-1.15.4-.91-.96-.64-1.9-.3-.86-.51-1.91-.64-3.16-.86-1.38-1.23-.84-1.91-1.26l-1.32-.62c-3.58-.27-5.05-1.33-4.41-3.17-.22-.37-.42-.37-.64,0,1.01,1.13.96,2.2-.64,1.38l-.63,2.42c.84.89.49,1.21-.64.64-1.37-2.18-1.69-3.29-.64-5.69v-.64c.56-.62.79-1.06.64-1.9v-.64c-.47-1.01-.47-1.85,0-2.54,1.1-.15,2.2.55,3.18.64.44.18.84.29,1.27,0,.2,0,.44.03.64,0,.79-.62,1.42-1.48,1.91-2.54l.05-.03Z"/>
  <path class="cls-2" d="M111.55,73.12l.64.64c1.39.22,2.87,0,4.44-.64,2.55-.92,8.23.67,3.82,1.9-1.74,2.02-3.21,3.8-3.77,6.6-1.42-.05-2.64.29-3.87.99-.2,0-.42-.02-.64,0-2.65-.22-3.72.4-3.18,1.9.02.35.08,1.08,0,1.26-2.45-.29-5.14,1.21-6.99,2.54-.2.03-.42,0-.64,0-1.77-.82-.83-2.25.78-2.94l.51-2.81c-1.27-2.39-1.06-3.41.61-3.11l2.65-1.98c-.64-.92-.47-1.09.54-.54.15-.1.51.1.64,0,1.06-.64,2.11-1.91,3.18-3.8.12-.07.96-.03,1.27,0l.02-.02Z"/>
  <path class="cls-65" d="M93.75,66.17c.59.1,1.32-.1,1.91,0,1.05-.27,2.11-.07,3.18.64.39.08.95-.1,1.27,0,1.81,1.58,2.65,3.06,2.55,4.42,1.2-.97,1.4-.77,1.91.64-.03,1.18-.56,2.45,0,3.8-1.72,2.13-1.96,3.16-.69,3.04l-.57.74c0,.15-.52.49-.29,1.26.66,2.23,1.44-.25.51,4.22-.1.49.47,1.39.41,1.44-.63.52-1.99-.77-2.53,1.93-.12.57-.34.55-.64,0-.14,1.28-.78,1.23-1.27,0-1.45,1.14-4.38,1.8-5.81.29-1.32-1.39-2.48-7.16.73-6.62.22.5.42,1.13.64,1.9.02.2,0,.42,0,.64,2.18-1.08,3.87-3.39,5.08-6.95,1.86-2.92.37-6.08-4.44-9.49-.47.99-2.25-.03-3.18-.64-.1-.12.08-.44,0-.64-.63-.89.47-1.11,1.27-.64l-.02.03Z"/>
  <path class="cls-8" d="M75.94,66.17c.07.18-.05.44,0,.64l.64.64c.3,1.31.52,1.31.64,0h2.53c.2.05.46-.07.64,0,.91.6,1.33,1.23,1.27,1.9,1.69-.18,1.88.1.64,1.26.51.37.71.37.64,0-1.93-1.39,3.63-1.66,3.94-1.51.63.29,3.01,2.49,3.06,3.41.49.18.47.39,0,.64.12,1.33-.51,2.39-1.91,3.16.93-.13.05,1.33,0,1.26-.15-.22.57-1.65,1.27-1.26,3.34-.69,1.99,4.6-.64,3.16-.91.92-2.25.76-4-.52.79,1.44.64,2.47-.44,3.06.73.79,1.35,1.8,0,1.9-.41-.12-1.05-.3-1.27-.64-.59-.13-1.01-.55-1.27-1.26-.91-.69-.46-2.81,1.27-2.54v-.6l-1.91-.64c-.29-.15-.29-.57,0-1.26,0-.2.03-.44,0-.64-1.37-2.35-3.28-4.45-5.73-6.32-1.44-1.78-2.6-3.9-.64-5.69.05-.03.56-.03.64,0,.41.5.61,1.14.64,1.9l-.02-.03Z"/>
  <path class="cls-130" d="M46.7,99.68c2.16-1.91,5.29-3.46,4.44.64,1.44.94,3.82,4.5,1.91,5.69-1.57,2.75-2.89,1.66-1.91-1.26l-.76.15c-.68-1.36-1.06-1.41-1.15-.15.9.91.51,1.28-.64.64-1.84-.22-2.48,0-1.91.64-.2,0-.44.03-.64,0h-.64c-1.08-.03-1.71.39-1.91,1.26-.37.55-.79.77-1.27.64l-1.27,1.26c.61.34.78,1.19.64,1.9-.19.55-.39.54-.64,0-1.15,0-2.21-.2-3.18-.64-.95.15-1.59-.69-1.91-2.54-1.01-.27-.68-1.26,0-1.9v-.64c-.22-1.14-.44-2.35.64-3.16.15-.03,2.11.2,3.18,0l1.27-.64c.61-2.64,1.67-3.06,3.18-1.26-.39-.72.03-.94,1.27-.64.37-.1.91.1,1.27,0h.03Z"/>
  <path class="cls-42" d="M35.89,23.17c3.14.99.95,2.77.64,5.69q-.43-.22,0,0c-.15,1.36-1.4,1.91,1.27,3.16l.24.69c-2.18,1.56-3.11,3.02-2.79,4.37.56.22.54.42,0,.64,1.06.47,1.23,1.08,0,1.26-.83,2.69-4.75,4.38-5.69.91-.81-2.99-1.76-3.41-1.88-3.81-.24-.87.84-3.07-.69-4.67.61-.35.07-.3-.64,0-1.05-.67-.52-1.14-.64-1.26.05-.42-.15-.42-.64,0-.66-.94-1.32-1.91,0-2.54.54.29.96.29,1.27,0,1.93.25,4.21,1.5,6.35,1.26.3.32.51.32.64,0,.93-1.76.96-1.39,1.91-2.54.42-1.19.42-1.39,0-.64-2.79-.52-2.35-1.61-.64-3.16.61-.57,1.17-.1,1.27.64h.03Z"/>
  <path class="cls-38" d="M91.21,101.58c.56.18.54.39,0,.64.51.4.78.45,1.27,0,1.88-.69,4.24-1.39,5.73,0,.86.59,1.62.34,2.55,0,.29-1.48.71-1.9,1.27-1.26,1.13.34,1.77.34,1.91,0,.1-.07,2.3-.08,2.55,0,.51,1.76.73,3.44.64,5.06.15.57.37,1.21.64,1.9.47,1.43-.95,3.63-2.55,3.8-1.01.29-2.23-.08-3.18-.64-1.28.17-1.49-.47-.64-1.9,1.47-1.34-1.28-3.38-2.99-4.32l-.19-.74-1.27-.64c-.2.54-.42.54-.64,0-.22-.3-.44-.3-.64,0-.41.87-1.52.99-1.91,0-.25.22-.27.42,0,.64.66-.13.07,2.28-.41,2.72-.64.59-2.67-.59-2.77-1.46l-.64-.64c-.68.32-1.74.52-3.18.64-.19.55-.39.54-.64,0-1.39-.49-.73-1.95.64-1.9-.32-.3-.1-.5.64-.64-.22-.55.1-1.16.64-1.26.14-.82.57-.82,1.27,0-.19-.71,0-1.02.64-.64.86-.45,1.64-.45,1.27.64h-.02Z"/>
  <path class="cls-42" d="M17.46,30.76c.86.52,1.66.42,2.55,0,1.06.3,2.97,1.63,3.82,2.54-1.03.99-1.03,1.21,0,.64.17.27,1.33.35,1.18,1.46-.17,1.29-2.03,3.36-1.18,5.49-1.55.55-2.62-.87-3.6-1.06-.78-.15-1.59.62-2.72.13-1.77-.74-2.09-4.55-1.81-6.2.1-.62,1.28-1.33,1.13-2.02-.17-.84-2.52-.97-2.55-2.55,0-.39,1.52-.84,1.93-.67,1,.44.93,1.7,1.25,2.25v-.02Z"/>
  <path class="cls-42" d="M60.69,32.02c.17-.08.32-1.14,1.59-1.29,1.52-.17,3.18.84,4.76.66.25,2.54-1.71-.13-1.91,2.52.29.89.71,1.31,1.27,1.26.34-.1.88.07,1.27,0h1.91c.84,1.19,1.06,2.67.64,4.42.47,2.52.47,5.07,0,7.59.49,5.24.51,10.57,0,15.81-1.45-3.17-.25-7.34-.64-10.75-1.05-.29-.29,1.16-1.03,1.31-4.39.84-5.91-4.69,1.03-3.21v-10.75c0-.1-1.74-.1-2.11,0-.76.18-.71,3.06-3.61,1.56-.42-.22-5.47-7.12-5.66-7.63-.49-1.33,1.89-1.24,2.48-1.51q.53.57,0,0l.02.02Z"/>
  <path class="cls-22" d="M21.28,73.12c.2-.34.41-.32.64,0,1.66-.79,3.45,1.28,2.28.76l.91-.12c1.42.69,2.89,1.31,4.44,1.9.34,1.28.76,2.54,1.27,3.8.19.87-.68,1.71-2.55,2.54-.41.13-.19.34.64.64.56.18.54.39,0,.64-.08.71-.73.71-1.91,0-.24.07-.42.5-.64.64-.64.4-.96.05-1.32-.55-1.25-3.98-3.14-6.11-5.68-6.4-1.76,1.24-2.23-2.33.64-3.16-.56-.18-.54-.39,0-.64.41,0,.91-.07,1.27,0v-.03Z"/>
  <path class="cls-42" d="M81.67,28.22l.64,1.26c2.87,3.19,3.04-1.04,3.82-1.26l1.27.64c0,.49-.86,1.7-.64,2.54.56.18.54.39,0,.64-.15.57-.37.55-.64,0-1.25,2.77-2.74,4.45-4.44,5.06.49-3.73-5.41-4.89-5.12-7.86.27-2.75,3.45-2.35,5.12-.99v-.02Z"/>
  <path class="cls-77" d="M37.8,80.08c.46,1.31,1.88,2.22,3.24,3.41.47.42,1.69.15,1.88.77.35,1.21-.34,3.83-.05,5.31l-1.89-.64-.64,2.54c-1.03-1.73-2.69-2.91-4.44-3.8-.63,0-1.3-.07-1.91,0-1.81.97-2.45-2.37-.64-1.9.64-.81,1.35-.35,1.27.64.2.29.42.29.64,0-.93-.81-.52-1.19.64-.64.66-1.21.66-2.05,0-2.54-.54.27-.73.02-.64-.64-.3-.2-.29-.4,0-.64.2-.55.42-.54.64,0,.63-.27.84-.89.64-1.9.05-1.34.59-1.08,1.27,0v.02Z"/>
  <path class="cls-42" d="M123.56,127.43c-.35.57-2.97.71-3.6-.08-.47-3.02-2.67-6.82,1.15-8.38.79-.32,1.57.27,2.11.13,1.06-.25,1.64-2.13,3.26-1.71,4.14,1.06-3.24,4.84-3.4,5.49-.27,1.16,1.15,3.51.47,4.55h0Z"/>
  <path class="cls-20" d="M23.81,54.16c.59.15.57.37,0,.64q-.15,1.2,0,0c.39-1.73,1.44-1.7,1.91,0,.81-.57,1.33.74.64,1.26.74,1.66-.88,2.42-2.55,2.54,1.91.34,3.18.97,3.82,1.9,1.08.94,1.08,1.36,0,1.26-.19.97-.93,1.31-2.25.99.54,1.34-.2,2.27-2.21,2.81-.12,1.44-.66,1.26-1.27,0-.05-.18.03-.42,0-.64-2.26-1.51-2.69-2.99-1.27-4.42.03-.2,0-.42,0-.64-.59-1.04-.59-1.66,0-1.9-1.96-1.8-.47-6.77,1.91-4.42h.64l.64.64-.02-.02Z"/>
  <path class="cls-148" d="M66.41,80.08c1.47-.22,2.09,1.26,1.91,4.42.05.2-.05.44,0,.64l.64.64c.03.2-.03.44,0,.64-.24.76-.24,1.39,0,1.9-.02.42.07.87,0,1.26-.29.25-.29.45,0,.64-.05.2.05.44,0,.64.74,1.8,1.05,2.81-1.27,2.54-1.62,1.36-1.57.35-.64-1.26-.42-.17-.41-.39,0-.64,1.81-2.15.25-3.56-1.91-4.42-.49-.05-.69-.25-.64-.64-2.48-.72-1.42-1.9-2.55-4.1-.02-.71,1.94-.15,2.55-.32-.83-1.36-.41-2.12,1.27-1.9.1-.1.46.08.64,0v-.03Z"/>
  <path class="cls-109" d="M121.72,48.46c.22.05.51-.07.64,0,0,1.13-.63,2.39-1.91,3.8-.03.17-.03.47,0,.64.56.2.54.4,0,.64l-5.08.62c-.19-.13,1.93-3.12-.64-2.52.27,1.48-.46,2.84-.57,4.2-.07.79.54,1.61.52,1.81-.22,1.63-2.74-.08-3.11.3-.1.1.2,1.18-1.27,2.54-.3-.2-.3-.4,0-.64.03-.84-.03-1.7,0-2.54.1-.94,1.1-.91,1.91-.64.46-.57.42-.67.64-1.26l.64-1.9c.03-.42,0-.84,0-1.26-.46-.77-.46-1.41,0-1.9.73.13,1.99-.2,2.55,0,1.64-.1,3.13-.72,4.44-1.9.17-.05.42,0,.64,0,.27.29.49.29.64,0h-.05Z"/>
  <path class="cls-170" d="M44.79,31.4c2.15.49,4.26.71,6.35.64.2,0,.44-.02.64,0,.27.2.27.4,0,.64-2.11-.47-1.13,1.8-.64,3.16q-.69.34,0,0c.22.62,1.71,1.28,1.27,2.52-.91-.66-3.61.08-3.75-.05-.07-.07-.34-1.21-.69-1.83-.86.15-.83-.62-.64-1.26-1.45,1.9-3.11,1.43-3.82-.64-1.94.52-3.04-2.08,0-2.54-.56-.18-.54-.39,0-.64.41-.03.86,0,1.27,0h.02Z"/>
  <path class="cls-115" d="M89.93,73.12c1.57.76,2.64.76,3.18,0,.39,0,1.01-.08,1.27,0l.64,1.26c.08.17-.07.44,0,.64l.64,1.26c.03.2-.03.42,0,.64.32,1.19.17,2.2-.64,3.16-.07.62.02,1.28,0,1.9-.19.55-.39.54-.64,0l-.81-.34c.08-2.1-.91-2.42-3.01-.94-.71,1.68-2.75.35-1.91-1.26,1.89.52,1.71-1.88.64-3.16h-1.27c.1-1.04.79-1.66-.63-2.86.74.37,2.04-.39,2.53-.3h0Z"/>
  <path class="cls-120" d="M106.47,90.19c2.04,1.09,4.54,3.43.81,3.21l-1.45.59h-.64l-1.91.64c-.2.05-.46-.07-.64,0l-.64.64c-.2.05-.46-.07-.64,0-2.06.4-6.44-3.56-2.55-4.42.64-1.65,2.21-1.24,3.18,0,.1-.59.74-.81,1.91-.64.68-.07,1.93-.12,2.55,0l.03-.02Z"/>
  <path class="cls-42" d="M67.06,68.07c-.3,2.7-3.82,5.46-3.8,6.01.02.69,3.48,1.33,2.23,2.87-.83,1.04-3.55.27.3,3.12-.34.35-.44,1.65-1.27,1.9-5.42-1.26-2.96-3.95-3.82-7.59.93-.79,3.33-.59,3.8-2.86l-.63-.3c.12-1.46,1.55-3.31,3.18-3.16h0Z"/>
  <path class="cls-42" d="M50.2,15.59c-.54.22,0-1.02-.76-1.24"/>
  <path class="cls-90" d="M96.92,31.4c.79,0,1.84-.13,2.55,0l1.27.64c.78.44.81.77,1.27,1.26,1.39.5,2.79,1.73,1.91,3.16,0,.22.05.49,0,.64-1.55,1.06-3.46,1.7-5.73,1.9-.93.17-2.08-.42-1.27-1.26.19-.07,1.33-1.73,1.32-2.17,0-.55-1.28-.34-1.32-.99.24-.39.66-.6,1.27-.64,1.3.24.78,1.97,1.89,1.9l.64-3.16c-1.2.05-4.61-.1-5.08-1.28.25-.55.74-.34,1.27,0h.02Z"/>
  <path class="cls-121" d="M85.48,97.14c.14,1.61-.29,2.89-1.27,3.8.71.3.49.72-.64,1.26-.02.17-.05.49,0,.64l.64.64c.14.05.44,0,.64,0,1.55,1.48.49,3.12-3.21,4.92l-1.23,1.41c.08.5-.14.72-.64.64-1.37.69-1.3-.13-.64-1.26-.66-2.44-.2-3.65,1.39-3.63.17-.97.51-1.91,1.17-2.69.07-.18-.07-.44,0-.64l1.91-3.8c.05-.18-.05-.42,0-.64l.64-1.26c.03-.2-.02-.42,0-.64.07-.45.27-.66.64-.64.2.69.32.3.64,1.9l-.03-.02Z"/>
  <path class="cls-146" d="M58.15,100.94c.93-.67,1.57.34,1.91,1.26.2-.29.41-.27.64,0,.08.17-.08.47,0,.64l.64.64c.07.17-.07.44,0,.64l.64.64c.12.34-.12.94,0,1.26.59.45.93,1.18.64,1.9,1.64,1.23,3.73,5.96.64,3.8-1.64-.71-3.92-2.45-5.08-3.8-.57-.59-.63-1.41-.14-2.49-1.11-.84-1.28-1.7-.49-2.57-.56-.18-.56-.4,0-.64-.54-.79-.54-1.21,0-1.26-.3-.2-.3-.4,0-.64.2-.25.41-.25.64,0v.64l-.05-.02Z"/>
  <path class="cls-133" d="M91.84,58.57c1.99,1.39,2.42,2.45,1.27,3.16-.63,1.14-2.31,1.98-5.08,2.54-.57.07-1.33.05-1.91,0-2.65-.2-1.37-2.42,0-3.8.17-.08.47.08.64,0,1.13-.87,2.38-1.66,3.82-1.9.29-.08.9,0,1.27,0Z"/>
  <path class="cls-89" d="M58.8,133.81l.64-.64c.1-.1.44.08.64,0l.64-.64c.84-.18,2.58.25,3.18,0,.3-.25.3-.45,0-.64.03-.2,0-.42,0-.64v-.64c.51-.44.34-.54,1.27-.64l-.02.03c2.84.6,4.1,1.66,3.82,3.16.3,1.31-.15,1.83-1.44,1.9"/>
  <path class="cls-21" d="M55.6,68.07s-.07.6,0,.64l.64.64c.14.07.41-.03.64,0,.25.3.46.3.64,0,.41,0,.98.08,1.27,0,.42-.59.84-.81,1.27-.64l.47.79-1.74,1.11,1.91.64c-.83.08-1.71-.1-2.53,0-.79,2.87-4.44,3.75-6.35,1.9-.66.49-1.05,1.28-1.91,1.9-.49-2.37.78-4.47,3.82-6.32.1-.15-.1-.59,0-.64.52-.54,1.39-.52,1.91,0l-.03-.02Z"/>
  <path class="cls-27" d="M97.56,89.55c1.72-.4,2.15.02,1.27,1.26-1.06,2.12.64,3.93,2.55,4.42-.08.03.1.89-1.55.66-.42-.07-.3-1.14-1.11-1.5-2.33-1.04-3.43.35-5.59.84-1-.72,2.08-1.68,1.94-1.63-1.96,1.06-6.79,2.77-3.85-.27-.29-2.39,4.43-5.32,6.35-3.8v.02Z"/>
  <path class="cls-167" d="M48.61,73.74c.52.17.51.37,0,.64-.32.29-.52.71-.64,1.26-.19.13-.42.44-.64.64-.25-.3-.46-.3-.64,0-.15.2-.25,1.39-.64,1.9,6.2-1.34,8.02,4.59.64,3.16-1.94-1.81-2.16-4.55-.64-8.21.34-.18,2.35-.18,2.55.64l.02-.02Z"/>
  <path class="cls-42" d="M78.49,109.15c.29-.62.79-1.11.64-1.9-3.43.47-5.03-2.08-5.73-5.06,1.47.87,4.51-1.26,4.76-1.26,1.99.08-1.28,3.26-.27,4.35,4.32,1.56,1.08-.79,3.75-2.47-.76,2.15-1.55,4.27-2.55,6.32-.19.55-.39.54-.64,0l.03.02Z"/>
  <path class="cls-27" d="M32.09,71.86c2.47,3.48,4.24,4.01,5.73,8.21h-1.27c-.19.55-.39.54-.64,0-1.86.29-3.77-2.3-4.76-3.81l-1.6-.62c-1.81.17-3.06-.96-4.44-1.9-1.47.39-2.15-1.06-.64-1.9,1.2.35,1.74,2.94,3.6,3.06.9.05,2.53-1.73,4.02-1.16l-3.82-3.78c1.01-1.08,2.87.84,3.82,1.9h.02Z"/>
  <path class="cls-74" d="M54.96,96.5c.56.2.56.42,0,.64.05,2.17-2.53,1.13-2.55-.64.83-.08,1.71.07,2.55,0Z"/>
  <path class="cls-74" d="M53.07,93.98c.78-.89,2.53-3.34,3.19-2.2l-.64,2.2c.17.2,1.42-1.02,1.91-1.26v.64c.05.2-.07.45,0,.64l.64,1.9c.03.2-.05.44,0,.64.68,1.02.9,1.88.64,2.54.95,1.39.52,1.81-1.27,1.26-.05.18.03.42,0,.64-1.35-.08-4.16-2.4-2.55-3.8.81-.81.41-2.27-.64-1.26-.08-.08-.71-.08-1.27-.64-.51-.27-.42-.94,0-1.26l-.02-.03Z"/>
  <path class="cls-110" d="M40.35,32.02h.64c.25.3.46.3.64,0h.64c.41-.37.96-.47,1.27,0-2.25,2.15-.08,2.17,0,2.54,1.76.87,1.76,1.5,0,1.9-.98,1.58-1.81,1.18-1.27-.64,0-.44-.22-.86-.64-1.26-.22-.3-.42-.3-.64,0-.19,1.8-1.45,3.06-3.82,3.8-.37.87-1.74.25-1.91-.64.05-.2-.05-.44,0-.64-.64-2.07,3.18-5.32,5.08-5.06Z"/>
  <path class="cls-48" d="M122.99,72.48c.41-.18.83.03,1.27.64l.64,1.26c.02.18.03.45,0,.64-1.1,2.82-3.72,2.96-4.44,0-.03-.08,1.32-2.12-.3-1.26-.47.25-1.91,2.22-2.23,1.9.14-1.21-.17-2.02-1.28-2.54-.56-.18-.54-.39,0-.64.05-.32.14-.62.32-.84.2-.25,5.35.62,6.05.84h-.02Z"/>
  <path class="cls-27" d="M70.23,129.39c2.53-.22,13.13-.89,8.26,3.16-.51,1.75-4.63,1.38-3.82-1.26-2.33-.1-4.88-.27-7.65-.54v-.72c.63-.97,2.43-2.02,3.19-.64h.02Z"/>
  <path class="cls-126" d="M35.26,50.98c.71-.94,1.6.27,1.79,1.38,5.15-.77,4.66,3.12.76,4.32-.78-.03-1.93.15-2.55,0-.68.97-1.1.55-1.27-1.26-.56-.47-.98-1.11-1.27-1.9.03-.2-.03-.42,0-.64.83-1.28,1.69-1.9,2.55-1.9h-.02Z"/>
  <path class="cls-97" d="M23.19,51.62c.2.02.42,0,.64,0,.52-.4.71-.05.64.64.81,1.33.19,1.76-1.91,1.26-.59.44-1.81.57-1.94,1.04-.2.76.05,2.39.03,3.38-.96.72-2.92-1.58-1.91-2.54-.57-.15-.57-.37,0-.64.17-.71.44-1.21.83-1.51-4.43-5.39-.22-4.25,3.61-1.65v.02Z"/>
  <path class="cls-68" d="M65.15,63.63l1.91,1.9c.12.49.07,1.93,0,2.54-1.1,1.93-1.08,2.45-3.18,3.16-.81.29-1.49.89-2.53.62l.76-1.8,1.13-.1c.32-1.23-1.4,0-1.27-1.24.56.07.86-.39,1.27-.64,1.62-1.11,1.59-1.71.17-3.78l.46-.66c.37,0,1.01-.08,1.27,0h.02Z"/>
  <path class="cls-27" d="M47.34,95.24c1.66,2.17,2.84,1.29,4.44,1.26,2.42,1.51,4.32,3.41,5.73,5.69.05.22-.07.47,0,.64-.64,4.74-5.07-.67-6.35-2.54-.69-.45-1.49-1.91-1.66-1.93-1.44-.13-2.04,1.11-2.79,1.31l3.18-2.52-4.44-1.9c.2-.55.42-.55.64,0h1.27l-.02-.02Z"/>
  <path class="cls-122" d="M73.19,133.22c-.25-.94-.1-1.33.88-1.95.14-.44.35-.4.64,0l-.03.02c.78,3.39,2.06,1.38,3.82,1.26,1.22-.08,2.6-.05,3.82,0h.64c4.88,3.38-3.83,4.1-6.35,3.16"/>
  <path class="cls-42" d="M70.86,100.94c-1.76-2.02,1.1-6.57-2.87-6.27-1.22.08-2.84,1.97-4.75,1.21-.14-.87-.15-.91.63-1.26,1.4.66,2.57.13,3.04-1.31l.78.05c.39-.54,1.1-1.93,1.27-2.54l1.27,1.9c.03-3.58-.03-7.17,0-10.75.19-.55.39-.54.64,0,.59,6.27.34,12.67,0,18.96Z"/>
  <path class="cls-41" d="M70.86,49.72v.64c1.23.57,1.23,1.33,0,1.9.34.29.34.71,0,1.26.81.3.64.74,0,1.26.37,6.13.37,12.25,0,18.34.56.79.56,2.91-.64,2.54v-8.21c-.79-1.21-.49-2.49,0-3.8v-.64c-.03-5.26,0-10.55,0-15.81.19-.55.39-.54.64,0v2.54-.02Z"/>
  <path class="cls-124" d="M35.26,56.68c-1.66,3.12-1.59,4.96-1.91,8.21-.08.37-.22.64-.64.64-.22,2.17-2.43,1.48-1.91-.64.29-2.17.71-4.07,1.27-5.69.03-.2-.03-.42,0-.64l.64-.64c.03-.2-.03-.42,0-.64.81-1.51,1.23.12.81.29-.25.1-.64-2.35.46-2.18.35.3.91,1.18,1.27,1.26l.02.03Z"/>
  <path class="cls-62" d="M27,68.07c-8.04-4.32,5.35-5.56,3.8.27,1.59.69,2.47,2.1,1.28,3.53-.91.12-2.38-1.38-3.82-1.9-.19-.07-.46.07-.64,0l-.64-.64c-.17-.08-.46.07-.64,0-.96-.52-.76-.96.64-1.26h.02Z"/>
  <path class="cls-27" d="M96.3,49.72l.64.64c.61-.18.83.03.64.64.88,2.17,4.27,3.36,6.71,3.34l.93,1.09c1.23-.25,1.59,1.21.64,1.9-1.52-.89-3.29-.42-4.93-1.11-1.82-.76-2.16-3.31-4.61-2.07-.34-1.11,1.52-.3,1.27-.94-.42-1.01-3.24-3.04-4.44-3.48-.19-1.88,2.79-2.25,3.18,0l-.02-.02Z"/>
  <path class="cls-136" d="M70.23,10.52c.42,4.42.64,8.89,0,13.27.51.81.44,3.04-.64,3.16-.02-.42.03-.86,0-1.26v-3.17c-.74-.69-.86-1.36,0-1.9-.29-.17-.27-.37,0-.64-1.2-1.04-1.25-2.17,0-3.16-.52-4.62-.49-9.27,0-13.91"/>
  <path class="cls-79" d="M98.2,104.1c3.4,1.68,3.36,4.89,6.99,3.17l-.64,3.16c-1.08.32-2.53-1.36-3.18-1.26-.22-.49.27-1.18-.64-2.18-1.13-1.26-3.97-2.42-5.71-2.23-.61-.47-.19-.89,1.27-1.26.22.03.44-.05.64,0l1.27.64v-.03Z"/>
  <path class="cls-72" d="M71.5,87.67c1.22.35,1.22.91,0,1.26v2.54c.61,4.47.41,8.68-.64,12.65-.47-.39-.44-.84,0-1.26.08-.59-.02-1.28,0-1.9.2-6.3-.22-12.67,0-18.96-.63-.71-.51-2.45.64-1.9-.02,2.52.03,5.07,0,7.59v-.02Z"/>
  <path class="cls-42" d="M127.77,34.55c1.59-.39,3.41,4.27,1.2,5.01-4.02,1.33-2.89-4.59-1.2-5.01Z"/>
  <path class="cls-141" d="M49.25,104.73c.74.24,1.39.24,1.91,0,.41.74.57,1.83.64,1.9.2.22,1-.62,1.27-.64.42-2.03,2.48-1.36,1.91.64-.57.45-1.42.87-2.55,1.26-.14.27.12.92,0,1.26l-1.27.64c-.19.02-.46.03-.64,0l-1.91-1.26c-.1-.32.05-.86,0-1.26-.25-.5-.25-.92,0-1.26-.56-.22-.56-.42,0-.64,0-.08.54-.37.64-.64Z"/>
  <path class="cls-59" d="M93.75,59.83c.08.05.46.02.64,0,.81-.47,1.69-.34,2.55,0,.41.07.96-.1,1.27,0l.64.64c.17.08.49-.08.64,0l1.27,1.26c.57.49.79.71,1.27,1.26v.64c-.19.37-.41.35-.64,0-1.01-.29-2.08-.92-3.18-1.9-.17-.07-.42.05-.64,0l-1.27-.64c-.51-.05-1.47-.1-1.91,0-.37.54-.79.76-1.27.64l-1.27-3.16c.22,0,.47-.05.64,0l1.27,1.26h-.02Z"/>
  <path class="cls-166" d="M37.17,92.09c.76.32,3.58,1.7,3.82,2.22-.46.29-1.45.79-1.91.94.14.47-.29.67-1.27.64-.19-.07-.44.05-.64,0-.56-.18-.54-.39,0-.64-.93-.27-1.55-.69-1.91-1.26-.17.32-.39.3-.64,0-.47.96-.96,1.04-1.27,0-.27-1.06.35-1.9,1.91-2.54,0-.03.49-.02.64,0,.88-.08,1.32.13,1.27.64Z"/>
  <path class="cls-58" d="M70.86,28.22c-.59,1.66-.49,3.91,0,5.69v3.8c-.29.42-.17.82,0,1.26.57.12.54.34,0,.64-.19.55-.39.54-.64,0,0-.59-.61-2.81-.64-4.42-.02-1.06,0-2.12,0-3.16-.74-.6-.74-1.29,0-1.9.02-1.06,0-2.12,0-3.16,0-.25.63-1.71.64-3.16.19-.55.39-.54.64,0v4.42-.02Z"/>
  <path class="cls-42" d="M127.24,99.11c1.91-.49,3.46,2.59,2.13,3.43-3.36,2.13-5.46-2.59-2.13-3.43Z"/>
  <path class="cls-42" d="M105.2,30.76s.17-.6.32-.59c1.62,1.58,1.76,4.7-.95,5.02l-1.91-1.9c-.14-1.44.1-1.86,1.27-2.54.54.3.96.3,1.27,0h0Z"/>
  <path class="cls-42" d="M124.2,111.76c1.54.96.35,5.44-2.52,3.44-1.99-1.39.37-4.79,2.52-3.44Z"/>
  <path class="cls-139" d="M95.65,68.07c2.64.97,6.66,5.07,6.01,7.93-.24,1.09-.02,1.85-1.57,1.56v-.64c.05-.18-.03-.42,0-.64.17-2.7-1.39-5.22-4.71-7.53l.25-.69h.02Z"/>
  <path class="cls-174" d="M72.14,104.73v1.9c-.3.25-.3.45,0,.64v1.26c-.3.25-.3.45,0,.64v5.69c-.2,1.68-.79,1.61-1.27,0,.05-3.36-.07-6.75,0-10.11.2-1.68.79-1.61,1.27,0v-.02Z"/>
  <path class="cls-13" d="M67.06,130.01c.1,0,.71.64,1.54.66,3.07.08,6.18-.12,9.27-.02.51,2.23-1.77.66-3.18.62h-.64c-1.37,1.14-3.06,1.78-5.08,1.9-.35-3.54-4.21-.45-3.82-3.16.59-.05,1.3-.03,1.91,0Z"/>
  <path class="cls-27" d="M37.17,38.35c1.72-2.72,8.19.47,4.44,3.16.83,1.16.74,1.46-.64,1.9-.19.55-.39.54-.64,0,0-.32-.81-1.24-.69-2.17.03-.25,2.6-.64.69-1.33-1.55-.55-3.5-.25-5.1-.94.1-.34-.08-.87,0-1.26.68-.03,1.4.55,1.91.64h.03Z"/>
  <path class="cls-27" d="M71.5,73.12c-.19.55-.39.54-.64,0,.22-6.08,0-12.25,0-18.34.19-.55.39-.54.64,0-.83,3.58.03,13.86,0,18.34Z"/>
  <path class="cls-42" d="M21.28,22.54c.54,3.09-1.74,3.95-4.44,3.78.34-2.28,2.03-4.08,4.44-3.78Z"/>
  <path class="cls-158" d="M72.14,114.85c0,3.56-.1,7.19,0,10.75.24.42.32.86,0,1.26v.64l-.69.25c-.19-2.4-.37-4.8-.57-7.21v-5.69h1.27Z"/>
  <path class="cls-143" d="M107.09,55.42c.05.2-.05.44,0,.64l.64.64c.05.2-.05.44,0,.64l.64,1.26c.05.2-.05.44,0,.64l.64,1.26c.07.39-.02.86,0,1.26,0,1.31-1.01,1.29-1.27,0-.19.55-.39.54-.64,0-.03-.42.05-.86,0-1.26l-.64-1.26c-.05-.2.05-.45,0-.64l-.64-.64c-.07-.18.07-.45,0-.64-.24-.62-.59-1.21-.64-1.9-.27-1.66.03-1.8,1.27-.64.29-.29.51-.07.64.64Z"/>
  <path class="cls-96" d="M40.99,43.41c2.62-3.66,5.61,3.17,1.05,4.22-.07,2.49-2.79,3.14-4.24,1.48.73-1.56,1.57-3.24,2.55-5.06v-.64h.64Z"/>
  <path class="cls-27" d="M54.96,106.63c.68-1.86,3.53-.57,3.18,1.26,2.15,1.11,3.5,1.97,5.08,3.8,1.42-.13,2.18.81,1.27,1.9,1.22-.34,1.64.5.64,1.26-3.5-3.24-7.38-7.93-12.72-6.95.61-1.19,1.15-1.38,2.55-1.26Z"/>
  <path class="cls-42" d="M68.95,14.95c.24.54.46,1.18.64,1.9v3.16c-.3.25-.3.45,0,.64v1.9c-2.3-.5-.51-3.02-.63-3.16-.05-.07-1.5-.62-1.6-.62-.71,0-.78,1.66-.95,1.88.35.97-.07,1.39-1.27,1.26-3.89-1.51-3.34-4.01.64-3.8.83.29,1.05.07.64-.64,0-.1.57-1.81.64-1.9"/>
  <path class="cls-42" d="M95.01,28.22q-.12.17,0,0c.61,1.33.39,1.81.64,2.54-1.42.64-2.26.64-2.55,0-.52-1.68-1.47-4.1.95-4.42.9.42.71,1.34.96,1.9v-.02Z"/>
  <path class="cls-94" d="M20.01,73.74l.64,1.9h-1.91c-.34,1.18.56,1.11.64,1.26,1.25-.05,1.45.37.64,1.26v.64c-2.72.81-3.75-2.08-3.18-4.42.22-.4.25-.4.64-.64,1.01-.42,1.86-.42,2.55,0h-.03Z"/>
  <path class="cls-114" d="M95.65,46.56c.61.6.86,1.71.64,2.54.56.17.56.39,0,.64-1.93-.87-2.11-.15-3.18,0-.41.07-.93-.08-1.27,0-.96.45-1.3-1.24-.64-1.9,2.01-.03,2.85-.29,4.44-1.26v-.02Z"/>
  <path class="cls-155" d="M86.75,103.46c-.35.71-.41,1.33-.64,1.9l.61.71c-2.06,1.7-4.17,2.94-6.32,3.73.41-2.39,3.63-3.14,5.08-4.74l-1.25-.32c-.1-.1.42-.99.63-1.26l.64-.64c.14-.07.41.05.64,0,.47.2.68.42.64.64l-.03-.02Z"/>
  <path class="cls-15" d="M91.21,93.35c-1.91,3.02,3.61-1.06,4.44,0-.12.6-2.01,1.63-2.53,1.9-.17.08-.46-.08-.64,0-.84.79-2.15,1.71-3.18,1.26-2.48-1.83-.02-4.33,1.91-3.16Z"/>
  <path class="cls-42" d="M115.77,15.62c1.98-.34,2.89,3.29.46,3.7-1.98.34-2.89-3.29-.46-3.7Z"/>
  <path class="cls-27" d="M26.36,31.4c1.79-2.17,3.28-.08,4.8,0,1.33.07,4.39-1.76,4.41.66-3.11.12-5.49.35-8.56-.64-.2-.07-.51.08-.64,0v-.02Z"/>
  <path class="cls-42" d="M58.15,21.27c3.67.03,3.04,3.11,1,3.14-2.16.05-3.43-2.22-1.62-3.14,1.03,2.33,1.23,2.33.64,0h-.02Z"/>
  <path class="cls-27" d="M69.59,2.94v13.91c-.83-.3-.61-1.21-.64-1.9"/>
  <path class="cls-42" d="M46.7,81.34c.27,1.21.03,3.04.63,4.42-1.45.17-2.38-1.38-3.18-2.52l1.91.94c1.23-2.17-2.69-5.46-2.5-6.23.14-.59,1.28-1.06,1.52-1.68.44-1.08.07-2.44.98-3.14-.07.03.39.84.29,1.33-1.1,4.65-.46,3.23.35,6.89h0Z"/>
  <path class="cls-115" d="M89.93,71.22c.08.13-.08.44,0,.64v.64c-1.5-2.44-.54-.79-1.91,0,.27-1.9-.05-2.17-1.93-1.9l.66-1.26-3.5.64c-.3.12-.37.32-.32.62-.19.4-.41.4-.64,0-.25-.32-.39-.87-.64-1.26-.22-.5.2-.71,1.27-.64.2-.03.42,0,.64,0,2.96-1.16,4.54.34,6.35,2.54l.02-.02Z"/>
  <path class="cls-42" d="M123.63,92.72c4.19-1.04,3.85,4.03.96,3.16-1.06-.32-1.06-2.22-.96-3.16Z"/>
  <path class="cls-42" d="M72.77,50.36c.56-.6,1.2-.15,1.27.64.08.07.68-.08.63.32-.71,1.01-2.91,2.37-3.16,3.48h-.64v-1.26c.32-.54.32-.96,0-1.26v-1.9h.64c.41.66,1.15-.03,1.27,0v-.02Z"/>
  <path class="cls-83" d="M25.72,50.98l1.27,1.26c.07.18-.05.42,0,.64-.08.57-.3.99-.64,1.26.84.91.46,1.26-.64.64-.37.17-1.35-.1-1.91,0,.02-.02.03-.47,0-.64l-.64-.64h-.64c.63-.45,1.52-.94,1.91-1.26v-1.26c.35-.03,1-.07,1.27,0h.03Z"/>
  <path class="cls-42" d="M72.14,104.73h-1.27v-.64c.07-3.9.57-8.43.64-12.65,1.18,4.03.63,9.02.64,13.27l-.02.02Z"/>
  <path class="cls-108" d="M89.93,31.4c.42-.03.86.05,1.27,0,.81-.39,1.06-.2.64.64-1.03,2.5-2.09.27-2.85.24-.51-.03-3.31,1.9-4.14,2.3-.41-.82.49-1.95,1.27-2.54.15-.08.42.07.64,0l1.27-.64h.64c.51-.3.95-.3,1.27,0h0Z"/>
  <path class="cls-54" d="M71.5,80.08c-.83.3-.61,1.21-.64,1.9h-.64c.02-2.1,0-4.22,0-6.32.79-.74.61-1.6.64-2.54h.64c0,2.32.02,4.64,0,6.95Z"/>
  <path class="cls-42" d="M70.86,28.22c3.83-1.36,4.34,4.94,0,2.54-.47-.82-.42-1.68,0-2.54Z"/>
  <path class="cls-50" d="M116.63,72.48v.64l-2.55,1.28.64,1.88h-3.18c-.41-2.23,2.16-.42.63-2.52.39.03.9.05,1.27,0,.96-.77,1.81-1.19,2.55-1.26.17-.55.39-.55.64,0v-.02Z"/>
  <path class="cls-27" d="M70.21,10.53c1.18,4.03.63,9.02.64,13.27h-.64c.02-4.42-.07-8.87,0-13.27"/>
  <path class="cls-27" d="M23.19,51.62c-.9-.1-4.9-2.1-5.08-1.9l1.94,4.05c0,.45-1.17.69-1.3,1.01-.46.59-1.22.15-1.27-.64.46-.94,2.13-.37,1.91-.94-.49-.76-4.54-3.43-2.16-4.08,1.84-.49,4.97.79,5.98,2.49l-.02.02Z"/>
  <path class="cls-63" d="M103.91,66.17l.64,1.26c.05.4-.02.86,0,1.26.63,1.33.63,2.39,0,3.16-.93.22-1.27,0-1.91-.64v-3.16c-.08-.39.1-.94,0-1.26v-.64c-.22-.84-.2-1.02.64-.64.19-.3.41-.3.64,0,.08.17-.07.45,0,.64l-.02.02Z"/>
  <path class="cls-27" d="M84.18,135.09l-1.27-2.54c.76-1.55,1.5-.97,1.91.64h.02c0,.57.12,1.43,0,1.9"/>
  <path class="cls-67" d="M30.18,59.21c.07.15-.05.42,0,.64,1,1.65,1.6,3.06.64,5.06-1.4.92-2.45-.13-3.18-3.16v-1.26c.46-1.31,1.42-.1,1.22-.02-.86.34-1.59-1.91.69-1.88.39-.49.59-.27.64.64l-.02-.02Z"/>
  <path class="cls-153" d="M63.86,108.53l.64.64c.08.17-.08.47,0,.64l.64.64c.07.18-.07.45,0,.64.59.44,1.06,1.18.64,1.9.71,1.63-.14,1.91-1.27.64-.32-.59-.84-1.41-1.27-1.9l1.27-.32c-.96-1.02-1.44-2.18-1.91-3.48.19-.55.39-.54.64,0,.15.22.49.39.64.64l-.03-.03Z"/>
  <path class="cls-138" d="M100.74,88.29l.64,1.26c.15.08.46-.08.64,0,.9.52.98.89,0,1.26-1.03.1-2.03.45-3.18,0-.37-.15-.88-.96-1.27-1.26.03-1.02,1.01-1.53,1.91-1.26.42.03.84,0,1.27,0h-.02Z"/>
  <path class="cls-27" d="M20.01,78.82c-.29,1.39-3.06.1-3.5-.62-.86-1.46-.35-2.54.32-3.8.79,1.88.56,4.3,3.18,4.42Z"/>
  <path class="cls-27" d="M23.19,65.53c1.35.81,2.64,1.65,3.82,2.54-.2.42-.44.84-.64,1.26-2.94-1.16-3.46-.12-4.44-3.8,0,0,1.27,0,1.27,0Z"/>
  <path class="cls-27" d="M100.1,77.54c-.2.66-1.72,2.67-1.27,3.16.15.15,3.16-1.6,2.53,1.9-.86.39-2.82-.67-3.09-.54-.08.05-.46,1.11-1.13,1.7-.22.2-2.04,1.85-2.15.74,3.55-1.53,2.79-5.14,5.08-7.59-.05.2.07.45,0,.64h.02Z"/>
  <path class="cls-137" d="M66.41,113.59l.64.64c.12.32-.12.92,0,1.26l.64.64c.12.34-.1.92,0,1.26-.19.55-.39.54-.64,0-.66.15-1.3-.49-1.91-1.9-.08-.17.08-.47,0-.64-.22-.42-.41-.86-.64-1.26l1.27-.64c.19-.55.39-.54.64,0,.07.17-.07.44,0,.64Z"/>
  <path class="cls-42" d="M63.86,63.63c.42.99,1.54,2.32,1.25,3.41s-1.52.77-1.88,1.01c-2.35-1.39-2.55.34-3.18.64-.41.2-.86.5-1.27.64,1.37-2.55,2.45-2.62,5.08-1.9.49-2.02-3.06-3.73,0-3.8h-.02Z"/>
  <path class="cls-159" d="M24.45,71.86l.64,1.9-.3,1.26c-.79-.25-2.4-1.75-2.87-1.9l.64-1.26c.34-.08,1.6-.08,1.91,0h-.02Z"/>
  <path class="cls-42" d="M67.06,130.01c-1.03-.96,4-4.96,3.18-.64-.74.07-2.01,1.06-3.18.64Z"/>
  <path class="cls-42" d="M121.08,61.73c-.52.18-.76-.13-.64-.64.02-.18.02-.44,0-.64v-.64l2.23-1.24c2.4,2.1-.32,2.33-1.59,3.14v.02Z"/>
  <path class="cls-99" d="M47.98,69.33c-.17.08-.47-.08-.64,0-.96.29-1.39.08-1.27-.64,1.6-1.68.52-.72.64-1.26.08-.37-.14-1.11,0-1.26.07-.07,1.44-.24,1.89-.64l-.63,3.8Z"/>
  <path class="cls-123" d="M77.85,113.59c.35.17.34.39,0,.64,0,.22.05.5,0,.64l-1.27,1.26c-.15.37.07,1.33,0,1.9-.2.29-.41.29-.64,0-.44.08-.64-.35-.64-1.26-.73-1.13-.08-2.4,1.91-3.8.83-.92,1.22-.52.64.64v-.02Z"/>
  <path class="cls-27" d="M120.45,75.02c1.03,2.28,3.24,2.25,4.44,0-.46,2.89-4.07,3.95-4.12.64-2.69.71-3.28,6.01-3.55,6.27-.17.15-3.77.64-4.41.67l1.66-1.95c3.46,1.34,1.45.22,2.5-1.83.47-.92,2.64-2.91,3.48-3.81v.02Z"/>
  <path class="cls-27" d="M20.64,60.47c-.1.84-.32,1.39-.64,2.52,2.74-.3,1.6.35,1.91,1.9-2.48-.6-3.85-3.04-1.27-4.42Z"/>
  <path class="cls-2" d="M119.81,71.86c.2.03.44-.03.64,0,.84-.44,1.67-.39,2.55,0,.29.2.27.4,0,.64-1.66-.32-4.93-.4-6.35,0-.2.05-.44-.05-.64,0-1.2-.3.3-1.56,1.27-1.9.19-.03.46-.02.64,0l1.91,1.26h-.02Z"/>
  <path class="cls-75" d="M79.76,110.43c-.27.87-.69,1.71-1.27,2.54-.07.17.05.42,0,.64-.2.27-.41.25-.64,0-.05-.17-.51-.39-.64-.64v-.64c.07-.18-.07-.45,0-.64l1.27-1.9c.08-.18-.08-.45,0-.64h.64l.64,1.26v.02Z"/>
  <path class="cls-108" d="M95.65,30.76c.57.15.56.35,0,.64-.63.07-1.28-.07-1.91,0,0,.42-.02.84,0,1.26h.64c1.45.96-.19,1.86-1.27,2.54-.64.5-.93.17-.64-.64.34.08.86-.05,1.27,0,.14-.15-1.08-1.88-1.27-2.52-.81-.17-.61-.81,0-1.26.2-.02.42.02.64,0,.79-.07,1.76-.05,2.55,0l-.02-.02Z"/>
  <path class="cls-27" d="M19.37,76.92c.44-.15,2.26-.64,2.43-.5,1,.81,2.92,6.43,4.56,7.46-.19.1-.1.87-.95.64-1.35-.39-2.55-6.25-4.54-6.84-.37-.12-.81.52-.88.52-.9-.08-.51-.99-.64-1.26l.02-.02Z"/>
  <path class="cls-27" d="M39.08,95.24c.98.29,2.62,1.13,3.55,1.02.61-.07.81-1.01.9-1.02.17-.42.37-.42.64,0-1.77,3.41-3.87,1.53-6.35.64-.05-.74.88-.49,1.27-.64Z"/>
  <path class="cls-27" d="M72.14,127.5c.1.76-1.1.81-1.27.62-.25-.27.02-6.33,0-7.58,1.2,1.19.56,3.7.61,5.43.03,1.01.64,1.44.66,1.53Z"/>
  <path class="cls-128" d="M34.62,93.98c.25.29.47.29.64,0,.93.18,1.62.15,1.91,1.26-.14.52-.81.3-1.27,0-.61,0-1.35-.08-1.91,0l-.64.64c-.2.03-.42-.03-.64,0-.51-.76-.37-2.05.64-1.9h1.27Z"/>
  <path class="cls-42" d="M74.03,91.45c1.1.2,2.35,1.98,2.55,3.16-3.68-.08-2.4-5.74-5.08-5.69v-1.26c1.52.42,1.15-.99,1.91-1.9.05,1.28.22,4.69.64,5.69h-.02Z"/>
  <path class="cls-42" d="M82.31,90.83c-2.62-1.73-5.57.67-6.67-2.54-.52.03-.39,2-.32,2.54-.19.55-.39.54-.64,0-.54-1.73.81-2.65,1.27-3.8.19-.55.39-.54.64,0,.84,2.87,2.94,2.02,5.73,3.8Z"/>
  <path class="cls-88" d="M44.17,100.3c-.64.03-1.79-.76-1.91-.64l.63,1.88c-.59.1-1.4-.13-1.91,0v-.64c.02-.2-.03-.42,0-.64.29-.25.29-.47,0-.64.12-.29.42-.44.64-.64l.64-.64c.17-.03.46-.03.64,0,1.15.64,1.59,1.28,1.27,1.9v.05Z"/>
  <path class="cls-27" d="M91.84,107.25l-.64.64c-.22-.1-.46-.96-.78-1.08-2.5-.86-4.56.34-6.84,1.09l1.27,1.88c-3.28-1.11-4.51.87-6.35,3.16.39-1.02.51-1.61,1.27-2.54.19-.22.42-.44.64-.64,2.06-1.9,4.75-2.07,5.73-4.42h.64c1.93-.76,4.43-.07,5.08,1.9h-.02Z"/>
  <path class="cls-27" d="M91.84,107.89c-.3-.18-.3-.4,0-.64,1.06-.77,1.91-.99,2.55-.64-.76,1.81-1.13,1.75-2.55,1.26v.02Z"/>
  <path class="cls-42" d="M128.71,65.53q-.17-.12,0,0c-2.48,2.32-2.43-1.56-.95-1.9.9-.2,2.13.77.95,1.9Z"/>
  <path class="cls-27" d="M18.73,55.42c.08,1.29.76,2.02,1.91,2.54,0,.66.05,1.01,0,1.9-.79-1.46-2.87-2.72-3.18-4.42-.03-.91.79-.64,1.27,0v-.02Z"/>
  <path class="cls-18" d="M93.75,97.78l.64.64c.19.05.42-.02.64,0l1.27.64c.3,1.06-2.08,1.85-2.55.64l-.64-.64c1,1.44-1.64,2.3-2.55,1.26-.63-.34-1-1.16,0-1.26h.64l1.27-1.26c.27-.07.93-.03,1.27,0l.02-.02Z"/>
  <path class="cls-27" d="M37.8,49.08c-.98.17-1.84.81-2.55,1.9-.69.82-1.54,2.15-2.55,1.9.59-3.88,6.17-4.89,7.64-8.85-.05,1.9-1.35,3.68-2.55,5.06h.02Z"/>
  <path class="cls-125" d="M75.32,91.45l.64.64c.19.24.44.42.64.64.84.66,1.06,1.29.64,1.9-.1.05-.52.03-.64,0-.96-.32-2.13-2.15-2.55-3.16l.64-.64h.64c.03.22-.05.45,0,.64l-.02-.02Z"/>
  <path class="cls-42" d="M54.34,33.92c1.57,1.78,3.63,3.48,4.44,5.06-.83-1.31-2.84-.45-3.5-1.23-.14-.15-.14-2.6-.95-3.83Z"/>
  <path class="cls-35" d="M70.86,41.51v5.69h-.64v-7.59h.64c.32.52.32,1.16,0,1.9h0Z"/>
  <path class="cls-27" d="M37.17,112.31c.61-.39,1.45-.18,2.55.64.37-.77,1.03-1.6,1.91-1.9,0-.18-.52-1.31-.64-1.9.19-.55.39-.54.64,0,2.11,6.57-6.66,7.06-6.99,0l.76.17c.2,1.31.56,2.32,1.77,3.01v-.02Z"/>
  <path class="cls-27" d="M106.47,90.19c1.91.34,3.41,1.8,3.18,3.8-1.27-.05-2.55.08-3.82,0,.41-1.44,1.98-1.29,3.18-1.28l-2.55-2.52h.02Z"/>
  <path class="cls-112" d="M75.94,118c.32.2.32.42,0,.64,0,.2.03.44,0,.64-1.49,4.57-3.63,3.39-1.27-.64v-.64c0-.77.22-1.19.64-1.26.64.2.56.74.64,1.26h-.02Z"/>
  <path class="cls-169" d="M67.68,93.35c-.95,1.31-1.4,2.35-3.38,1.81l-.44-.54c.17-.08.44.07.64,0,.93-.4,1.5-.96,1.91-1.9.03-.2,0-.42,0-.64.19-.55.39-.54.64,0,.05.54,0,1.06.64,1.26h-.02Z"/>
  <path class="cls-117" d="M47.34,94.62c.1.35-.32.57-1.27.64-.2,0-.42-.02-.64,0-.42.05-.86-.03-1.27,0-.2.02-.42-.03-.64,0l-.63-.32c.1-.42.54-.25.63-.32l1.27-.64s.03-.57,0-.64c.74-1.75,3.19-.49,2.55,1.26v.02Z"/>
  <path class="cls-27" d="M32.09,59.21c-.07.49-.47,6.64-1.27,5.69.17-1.78-.17-3.38-.64-5.06l.64,1.26h.63l-.61-2.22,1.25.32Z"/>
  <path class="cls-42" d="M82.31,132.55c1.28-3.14,2.53-3.01,2.55.64-.59-.34-1.23-.57-1.91-.64-.2-.02-.42,0-.64,0h0Z"/>
  <path class="cls-42" d="M67.04,105.37c-.66,1.58-.57,2.25-2.53,1.88-.17-2.4.49-2.64,2.53-1.88Z"/>
  <path class="cls-52" d="M56.24,62.37c-.05.13,0,.44,0,.64.42,1.36.22,2-.64,1.9-.2-.03-.44.05-.64,0-1.1-.24-2.69.47-3.18-1.26.73-.44.95-1.5.64-3.16,1.52.5,2.45,1.19,3.82,1.9v-.02Z"/>
  <path class="cls-42" d="M77.22,112.95c-.51,1.21-1.35,1.83-1.91,3.8-.14.49,0,1.04-.64,1.26.03-.71-.84-1.81-.57-2.75.12-.4,2.64-2.2,3.11-2.92-.07.18.07.45,0,.64l.02-.02Z"/>
  <path class="cls-27" d="M88.02,51.62c-1.88,5.56-1.3,3.54-6.94,3.12.29-2.64-2.18-4.22-2.6-6.28,3.26,1.31,1.81,5.49,5.56,6.23,2.74.54,2.75-1.28,3.99-3.06v-.02Z"/>
  <path class="cls-42" d="M53.69,68.69c-1.82,2.87-2.35,1.85-2.47,2-.34.4-.9,3.46-1.35,4.33-.14.1-.49-.1-.64,0-.88.25-1.1.18-.64-.64-.03-.15-.05-.54,0-.64.08-.17,2.06-2.89,2.26-3.12.73-.82,1.93-1.29,2.82-1.93h.02Z"/>
  <path class="cls-27" d="M28.91,83.23c.42-.91,1.37-.89,1.91,0,.91.25.68.72,0,1.26-1.39.08-2.99,0-3.82-1.26.42-.13,1.32.03,1.91,0Z"/>
  <path class="cls-27" d="M39.08,90.83c.3,1.7-.41,1.29-1.91,1.26-.46-.18-1.2-.62-1.27-.64l3.18-.64v.02Z"/>
  <path class="cls-27" d="M109.64,61.73c.17.52,1.69,1.33,1.27,2.52l-1.6.64c-.52-.24-.19-1.16-.3-1.28-.96,0-.93-1.02,0-1.26l.64-.64v.02Z"/>
  <path class="cls-27" d="M86.75,98.4c-.59,2.18.61,2.96-3.18,3.8.03-.37.56-.87.64-1.26.46-1.09,1.08-1.93,1.91-2.54h.64-.02Z"/>
  <path class="cls-27" d="M32.71,53.52c1.3-.4,1.17.45,1.27,1.9.03.54-.52,1.63,0,2.52l-1.27-.64c.17-1.18-.15-2.6,0-3.8v.02Z"/>
  <path class="cls-27" d="M75.32,69.96c-1.39-1.75-3.8-3.29-.64-5.69-1.3,1.08-.27,4.6.64,5.69Z"/>
  <path class="cls-42" d="M50.52,31.4c-.32.89-2.75.94-3.18,0,1.15-2.13,1.96-1.46,3.18,0Z"/>
  <path class="cls-130" d="M35.89,108.53c.78.97,1.6,2.6,1.27,3.8-2.26-.99-1.4-.89-2.55-3.16,0-.2-.02-.44,0-.64.14-1.41.93-1.39,1.27,0h.02Z"/>
  <path class="cls-42" d="M67.06,91.45c.03.2-.02.42,0,.64h-.64c.03-.62,0-1.26,0-1.9-.78-.22-1.42.54-1.91.62-.79-.15-.59-.57.64-1.26,1.23-.59,1.22-3.19,1.91,1.9Z"/>
  <path class="cls-11" d="M60.06,100.94c.07.17-.05.44,0,.64v.64c-.9-.22-1.3-.67-1.91-1.26v-.64h-.64c.12-.37.96-.89,1.27-1.26.69.15,1.13.79,1.27,1.9l.02-.02Z"/>
  <path class="cls-27" d="M27.63,56.06c.08.12-.2.89.1,1.14,1.05.82,3.13-1.13,2.43,2.02-.05-.1-.47-.49-.64-.64-.91.79-1.25.4-.64-.64-.73.45-1.59.92-1.91,0-1.3.29-.71-1.19,0-1.9.2-.57.41-.55.64,0l.02.02Z"/>
  <path class="cls-27" d="M102.01,111.05c1.44.22,1.86.64,1.27,1.26-1.37-.22-3.29-1.39-4.44-2.22.22-.84,1.28.37,1.81.17.17-.07.39-1.06.73-1.11.24.55.24,1.21.64,1.9Z"/>
  <path class="cls-27" d="M70.86,30.76v3.16c-1.27-1.24-.52-3.71-.57-5.34.05-.4.34-.27.57-.35v2.54h0Z"/>
  <path class="cls-27" d="M91.21,47.82l.64,1.9s-.37.92-1.27.64l-.32-1.9-2.23,2.52c.27-.72,1.67-3.49,1.99-3.71.29-.2.96.55,1.18.55h0Z"/>
  <path class="cls-27" d="M100.1,66.79c1.84.59,2.36,4.47,2.55,1.26.24,1.01,2.33,2.37,0,3.16-1.05-1.02-1.3-3.28-2.55-4.42Z"/>
  <path class="cls-27" d="M106.47,36.45l1.91,1.58c-2.23,1.29-1.98-.69-2.53-1.58h.64-.02Z"/>
  <path class="cls-27" d="M112.17,82.6l-.44.5c-1.62.37-3.18-.59-2.74,1.39,0-.2-1.37-1.24.66-2.23,1.39-.69,2.2.37,2.52.35v-.02Z"/>
  <path class="cls-27" d="M32.71,83.87c.81.57,1.69,1.34.64,1.9-1.06,1.39-1.01,1.93.64,1.9-.12,0-.88,1.33-1.6.02-.08-.15-.91-3.01-.93-3.17-.57-.87-.25-1.14.64-.64.14-.59.35-.57.64,0h-.03Z"/>
  <path class="cls-64" d="M105.2,111.69c.47.18.46.39,0,.64-.34.08-1.5.07-1.91,0-.34-.45-1.01-.82-1.27-1.26,1.01.03,2.64-.39,3.18.64v-.02Z"/>
  <path class="cls-27" d="M40.35,32.02c-1.62-.17-1.71,1.46-2.55,2.13-1.28,1.02-1.64-.87-2.53,2.92l-.61-.37c-.34-.99,2.5-4.27,3.16-4.69,1.33-.86,2.3,0,2.55,0h-.02Z"/>
  <path class="cls-27" d="M95.65,68.07c.96,2.2,5.17,5.12,5.1,7.22-.02.52-.63.86-.64,1.01.51-1.81-2.31-5.22-3.55-6.28-1.55-1.33-2.77-.89-4.09-2.57.91.47,2.36.34,3.18.64v-.02Z"/>
  <path class="cls-27" d="M107.73,63.63c0,1.01.35,2.64-.64,3.16.1-1.51.14-3.56,0-5.06h.64c.93.6.93,1.29,0,1.9Z"/>
  <path class="cls-27" d="M74.67,118.64c0,.96-.9,2.07-.63,3.16l1.91-2.54c-.15,1.04-.49,3.81-1.91,3.8-.27-.27-.27.15,0,1.26-1.57,3.33-1.5-4.69.64-5.69l-.02.02Z"/>
  <path class="cls-27" d="M100.1,44.03c1.98,4.33,6.06,3.65,6.99,8.21-.19.55-.39.54-.64,0-1.77-.76-3.26-2.23-4.44-4.42-.61.17-.81-.03-.64-.64-1.74-.62-2.58-1.46-2.55-2.54-.07-.15.03-.4,0-.64-1.32-2.05-1.11-2.67.64-1.9.02,1.19.29,1.14.64,1.9v.02Z"/>
  <path class="cls-27" d="M40.35,91.45c-.54.15-.49-.54-.64-.64-1.47-.92-2.67-1.86-3.82-3.16,1.72-.03,4.1,1.66,4.44,3.8h.02Z"/>
  <path class="cls-27" d="M120.45,52.88c1.71-.05,2.15-.45,1.94,1.6-.25,2.54-3.18,3.85-3.19,4.42-.02.35,1.17.76,1.27.94.07.13-.03.4,0,.64l-1.6-1.9c.78-.96,2.35-1.81,2.75-2.97.95-2.67-.86-1.86-1.15-2.08-.08-.07.05-.42,0-.64h-.02Z"/>
  <path class="cls-154" d="M103.29,64.27c.08.15-.05.42,0,.64.27.2.25.4,0,.64l-.64.64c-.59-.69-1.52-1.75-1.27-2.54h.64c.34-.17.76.03,1.27.64v-.02Z"/>
  <path class="cls-42" d="M70.86,38.35l1.28.32-1.28,2.84v-3.17.02Z"/>
  <path class="cls-42" d="M70.23,67.43c-1.76-.44-.9-2.67,0-3.8v3.8Z"/>
  <path class="cls-42" d="M68.32,84.49c-.56-2.07-.25-4.97-1.91-4.42.12-.07.12-.6.34-.62,2.21-.1,1.5,3.56,1.55,5.04h.02Z"/>
  <path class="cls-42" d="M56.24,63.01c0,.22,1.25,1.75.63,2.52-.42.54-1.2-.62-1.27-.62l.64-1.9Z"/>
  <path class="cls-6" d="M45.43,105.99c.12.25-.1.45-.64.64-.42.18-.86.5-1.27.64.03-.12-1.1-1.51.34-1.9.9-.24,1.49.64,1.57.64v-.02Z"/>
  <path class="cls-155" d="M95.65,103.46c.19-.32.39-.32.64,0,0,.67-.86.86-1.27,1.26-.22.02-.59-.05-.64,0-.3.54-.3.96,0,1.26-.05.2.07.47,0,.64-.76.62-1.74.44-2.55.64-1.47-2-2.97-1.66-5.08-1.9.54-1.11,2.23-.47,3.18-.64.29-.35.49-.15.64.64.34.44,2.15,1.61,2.53,1.26l.64-2.54c-.56-.18-.54-.39,0-.64.59-.05,1.32-.03,1.91,0v.02Z"/>
  <path class="cls-155" d="M91.84,107.89c-.2-.07-.47.08-.64,0,.12-.27.35-.57.64-.64v.64Z"/>
  <path class="cls-172" d="M120.45,61.11c.42.3.2.72-.64,1.26-.2.12-.42.44-.64.64h-.64c0-.67-1.37-2.33,1.91-1.9h.02Z"/>
  <path class="cls-42" d="M65.77,57.95c.64.64-1.23,2.54-1.91,1.9s1.23-2.54,1.91-1.9Z"/>
  <path class="cls-42" d="M63.24,90.19c.56.18.54.39,0,.64-1.2.34-2.62.84-3.82,1.26l-1.27-.64v-.62c2.28.54,3.11.17,5.08-.64Z"/>
  <path class="cls-27" d="M84.84,34.55c-1.32,2.39-4.29,4.28-5.08,6.32-.63-.62-1.79,0-1.91-1.26,3.18.71,2.8-1.55,3.82-2.54.32-.32,1.45-.42,1.89-.94,1.18-1.39.14-2.82,2.55-4.12-.83.66-.88,1.83-1.27,2.54Z"/>
  <path class="cls-27" d="M89.93,71.22c-.14-.18-2.8-2.4-3.01-2.45-1,.44-2.82-.12-3.36-.08,2.82-2.32,4.46.03,6.35,2.54h.02Z"/>
  <path class="cls-4" d="M42.26,107.89c.35.18.35.4,0,.64-.22.2-.44.42-.64.64h-.64c-.14-.71-1.15-.79,0-1.6.81-.57,1.17.35,1.27.34l.02-.02Z"/>
  <path class="cls-27" d="M16.19,112.31c-.37-.37.52-1.88.95-1.88,1.76,0,0,2.84-.95,1.88Z"/>
  <path class="cls-27" d="M65.15,33.92c1.35-.15,1.42-.08,1.27,1.26-.08.03-.41.92-1.27.62.02-.62-.05-1.28,0-1.9v.02Z"/>
  <path class="cls-66" d="M109,61.73v1.9c-.12-.12-.91.08-1.27,0v-1.9h1.27Z"/>
  <path class="cls-27" d="M104.56,68.69c.88.69.2,2.15,1.27,1.9l.64-1.26s.57.17.34.6c-.25.49-1.71,1.8-2.25,1.91.02-1.04.05-2.12,0-3.16Z"/>
  <path class="cls-27" d="M88.02,95.24c.56.2.56.4,0,.64.17.87.37,1.08.64.64.17-.55.39-.55.64,0,1.22-.42,2.03-.74,3.18-1.26-.78,2.05-3.77,1.76-5.08,2.54.14-1.73-1.67-2.84.64-2.54l-.02-.02Z"/>
  <rect class="cls-42" x="56.24" y="27.6" width="1.27" height="1.9"/>
  <path class="cls-27" d="M109,85.77c-.54,1.26-1.5.03-2.57.39-1.32.42-2.26,1.7-4.43,2.15-.46-1.97,1.18-.99,2.55-1.55,1.57-.66,2.5-2.5,4.44-.97v-.02Z"/>
  <path class="cls-27" d="M107.73,105.99c-.19.55-.39.54-.64,0-.29-1.68-.96-3.28-.64-5.06.54.2,1.22,4.05,1.27,5.06h.02Z"/>
  <path class="cls-36" d="M103.29,100.3l.64.64c-.12.08.29,1.16-.3,1.28l-1.6-1.28c-.52-.15-.51-.35,0-.64.19-.42.39-.4.64,0,.15.08.44-.07.64,0h-.02Z"/>
  <path class="cls-42" d="M84.84,95.24l-.64.64c.14-1.21-.1-2.55,0-3.8,1.01,1.63.34,2.22.64,3.16Z"/>
  <path class="cls-27" d="M53.69,112.95v1.26h-1.91c.22-.91,1.03-1.44,1.91-1.26Z"/>
  <path class="cls-27" d="M66.41,20.65l.63,1.9c-.59-.35-1.3-.4-1.91-.64.14-.67,1.05-.96,1.27-1.26h.02Z"/>
  <path class="cls-27" d="M92.48,30.76c.63.5-.02,1.21,0,1.26h-.64l-.64-.64c.15,0,.68-.59,1.27-.64l.02.02Z"/>
  <path class="cls-27" d="M47.34,31.4c.78.03,1.93.89,3.18,0,.19.22.46.4.64.64-2.08.12-4.44.92-6.35-.64.84,0,1.71-.03,2.55,0h-.02Z"/>
  <path class="cls-27" d="M78.49,47.82c-.08-1.55-.19-3.44,1.27-4.42-.24,1.38-.46,3.33-1.27,4.42Z"/>
  <path class="cls-27" d="M50.52,109.79c-.98-.17-1.59-.15-1.91-1.26l1.27-.64.64,1.9Z"/>
  <path class="cls-44" d="M59.42,50.98v1.26h-.64c-.2.03-.44-.05-.64,0-.81-.12-.73-.84,0-1.26.39-.13.91-.4,1.27-.64.56.18.54.39,0,.64h.02Z"/>
  <path class="cls-97" d="M27,54.16c.03.2-.03.44,0,.64l.64.64v.64h-.64c-.15.54-.37.54-.64,0l-.64-1.26s.42-.44.64-.64c.19-.55.39-.54.64,0v-.02Z"/>
  <path class="cls-27" d="M112.17,56.68c-.47.6-1.28.3-1.91.64.02-.37-.07-1.21,0-1.26.2-.15,1.11.08,1.59,0l.32.62Z"/>
  <path class="cls-27" d="M35.89,107.89v.64h-1.27c.12-1.14-.1-2.12,1.27-2.54.02.59-.19.71,0,1.9Z"/>
  <path class="cls-27" d="M86.13,60.47c-.78,1.71-2.3,2.84,0,3.8-.61-.05-1.88.3-1.91-.32,0-1.53.56-2.74,1.91-3.48Z"/>
  <path class="cls-27" d="M88.02,64.27c.98-1.51,2.94-1.01,4.43-1.6.42-.17.56-.89.66-.92.42-.17.88-.54,1.27-.64-1.08,2.44-3.94,2.91-6.35,3.16Z"/>
  <path class="cls-27" d="M118.54,64.27c-.74,3.58-6.11,4.17-8.6,6.32-.63.54-6.47,6.84-6.66,7.29-.95,2.22,2.72-.37,3.18-.96-.69.49-1.42,2.75-3.18,2.54-.02-.29-.66-.79-.49-1.48.1-.44,1.32-1.81,1.76-2.32,1.13-1.29,4.26-4.74,5.39-5.69,2.47-2.12,6.66-2.89,8.6-5.68v-.02Z"/>
  <path class="cls-27" d="M20.01,73.12v.64h-2.55c1.23-.72,1.17-.59,2.55-.64Z"/>
  <path class="cls-163" d="M48.61,105.36v.64c-.19.47-.39.45-.64,0h-1.27l-.64-1.26s2.55.62,2.55.62Z"/>
  <path class="cls-17" d="M65.15,89.55l-.64,1.26c-.39.08-.93-.1-1.27,0v-.64c.69-.29,1.6-.49,1.91-.64v.02Z"/>
  <path class="cls-27" d="M105.2,93.98c-.32.92-1.3.49-1.91.64-.29-2.45,1.01-.69,1.91-.64Z"/>
  <path class="cls-156" d="M107.73,105.99v.64c.25.49.49.94,0,1.26-1.52-.66-.63-1.78-.64-1.9h.64Z"/>
  <path class="cls-27" d="M122.99,71.86c-.79-.1-1.81.15-2.55,0,1.2-1.21,1.57-.57,2.55,0Z"/>
  <path class="cls-27" d="M48.61,107.25l-.64-1.26h.64v1.26Z"/>
  <path class="cls-27" d="M107.09,76.92l3.18-3.8c-.27.15-1.6,3.14-2.28,3.83-.74.76-.86-.07-.9-.03Z"/>
  <path class="cls-27" d="M89.93,71.86c2.16,2.72,1.18,1.28,3.18,1.26.51,2.67-2.23.15-3.18,0v-.64c-.05-.2.07-.45,0-.64v.02Z"/>
  <path class="cls-27" d="M120.45,48.46c-.93,1.33-1.81,1.48-2.92,2.15-.39.24-.22.97-.27,1.01-.49.34-1.1-1.19-1.25-1.26,1.76-.22,2.7-1.39,4.44-1.9Z"/>
  <path class="cls-27" d="M113.46,52.26c0-.12-1.62-1.5,0-1.9v1.9Z"/>
  <path class="cls-27" d="M93.75,66.17l-1.27.64c-.05-.13-.98-.12-.63-1.26,1.52-.49,1.79.6,1.91.62h-.02Z"/>
  <path class="cls-42" d="M81.03,78.18c-.14.82-.35,1.68-.74,2.44-.34.27-.81.03-1.17.1l1.91-3.8c0,.4.07.89,0,1.26Z"/>
  <path class="cls-143" d="M107.09,54.16c-.19.55-.39.54-.64,0-1.81-.54-1.81-1.41,0-1.9h.64c.12.57-.12,1.33,0,1.9Z"/>
  <path class="cls-27" d="M45.43,99.68c-.24.05-.59.6-1.27.64l-1.27-1.9c.74.12,1.74,1.01,2.55,1.26h-.02Z"/>
  <path class="cls-27" d="M52.43,121.8c.69.69-.57,1.95-1.27,1.26s.57-1.95,1.27-1.26Z"/>
  <path class="cls-36" d="M97.56,98.4c1.42-1.26,4.36-1.31,3.18.64-1.03.69-3.56.91-4.44,0-.56-.18-.54-.39,0-.64.42-.03.84.03,1.27,0Z"/>
  <path class="cls-27" d="M105.2,112.31v-.64c1.6-.77,2.25-2.12,2.55-3.8.07-.35,0-.86,0-1.26,1.79,1.46-.86,5.22-2.55,5.69Z"/>
  <path class="cls-27" d="M96.92,59.83h-2.55c.17-.02.57-.69,1.05-.66.98.1,1.35.62,1.5.66Z"/>
  <path class="cls-42" d="M45.43,69.96c-.3,2.99-3.18,3.21-4.44,5.69,0-.05-.54-.17-.34-.6.15-.32,4.32-4.79,4.78-5.07v-.02Z"/>
  <path class="cls-16" d="M112.82,97.14c.35.18.34.4,0,.64-1.84,1.71-1.98-1.19,0-.64Z"/>
  <path class="cls-27" d="M35.26,91.45c-.12.24.2.91-.08,1.16-.46.4-.56-1.76-1.82,1.36-.19.45-1.03.82-.64,1.9-1.6-1.29.66-4.43,2.55-4.42Z"/>
  <path class="cls-27" d="M103.91,90.19c-.17,0-.95.54-1.91.64v-1.26c.63.29,1.22.55,1.91.64v-.02Z"/>
  <path class="cls-27" d="M66.41,17.49s1.01.92.63,1.26c-.49.45-1.2-.62-1.27-.62l.64-.64Z"/>
  <path class="cls-42" d="M60.69,49.08c-.1,1.44.57,2.18-1.27,1.9v-.64c.44-.27.83-.92,1.27-1.26Z"/>
  <path class="cls-27" d="M35.89,105.36c0-.42-1.88-2.49.64-3.16l-.64,3.16Z"/>
  <path class="cls-42" d="M29.54,23.8c.69.69-.57,1.95-1.27,1.26s.57-1.95,1.27-1.26Z"/>
  <path class="cls-42" d="M74.03,82.6c0-.15-1.71-2.28,0-2.54v2.54Z"/>
  <path class="cls-42" d="M56.24,30.76c-.03.89-1.17,1.11-1.91.64.27-.99,1.55-2,1.91-.64Z"/>
  <path class="cls-42" d="M69.59,32.02c-1.54-.66-1.54-1.24,0-1.9v1.9Z"/>
  <path class="cls-27" d="M20.01,30.76c-.54,1.01-1.94,1.01-2.55,0,.76.13,1.91-.18,2.55,0Z"/>
  <path class="cls-27" d="M56.24,30.76c.71,2.23-2.45,1.09-1.91.64l1.91-.64Z"/>
  <path class="cls-27" d="M23.81,33.29c.1.12-.1.47,0,.64l-.64,1.26h-.63c-.05-1.5-.42-2.17,1.27-1.9Z"/>
  <path class="cls-27" d="M68.95,35.18l-.32.62-.95-.62c.25-.05.63-1.04,1.27,0Z"/>
  <path class="cls-42" d="M60.06,43.41l-.64-2.54c.44,1.21.41,1.38.64,2.54Z"/>
  <path class="cls-42" d="M75.32,69.96c.12.15,2.09,1.75,2.84,2.52,1.71,1.71,2.35.47,2.87,3.81-1.49-2.64-3.8-3.9-5.73-6.32l.02-.02Z"/>
  <path class="cls-27" d="M95.01,80.08c.1-.99.71-2.07.64-3.16.15.96,1.39,1.85-.64,3.16Z"/>
  <path class="cls-42" d="M58.15,95.88l-.64-1.9c.2.62.44.71.64,1.9Z"/>
  <path class="cls-42" d="M66.41,92.72c-.41,2.08-.86,1.5-1.91,1.9l1.91-1.9Z"/>
  <path class="cls-29" d="M68.32,118c.02.13.03.62,0,.64-.88,1.01-2.26-.55-1.27-1.26h.64l.64.64-.02-.02Z"/>
  <path class="cls-27" d="M72.77,50.36l.32-.62c1.18-.22,1.01.18.95,1.26-.25-.18-.98-.54-1.27-.64Z"/>
  <path class="cls-42" d="M43.52,14.95c1.33-1.09,1.79,1.66.64,1.26-.57-.42-.78-.84-.64-1.26"/>
  <path class="cls-27" d="M112.82,55.42c.1-.29.63-1.8.64-1.9l-.64,1.9Z"/>
  <path class="cls-27" d="M117.9,85.13v.62c-2.65.32-2.65-.94,0-.62Z"/>
  <path class="cls-98" d="M18.73,54.78c-.05.12,0,.44,0,.64h-1.27c-.05-.27-.07-1.13,0-1.26l1.27.64v-.02Z"/>
  <path class="cls-27" d="M91.84,54.8v.62l-2.53.34c.68-.99,1.37-1.11,2.53-.94v-.02Z"/>
  <path class="cls-49" d="M32.09,83.87c-.34.12-.71-.03-.64.64h-.64v-1.26c.49-.66,1.93-.37,1.27.64l.02-.02Z"/>
  <path class="cls-27" d="M95.01,83.87l-.57-.37-.05-1.51h.64c-.02.6-.07,1.29,0,1.9l-.02-.02Z"/>
  <path class="cls-14" d="M74.03,123.06c-.08.39.12,1.01,0,1.26l-.63-1.9c.47-.17.54.64.63.64Z"/>
  <path class="cls-27" d="M90.57,58.57c-.49.13-2.99,1.48-3.82,1.9.98-1.09,2.25-2.03,3.82-1.9Z"/>
  <path class="cls-27" d="M35.89,21.91c.12.17-.08.91,0,1.26-.44-.13-.84-.47-1.27-.64.2-.18.05-.5.64-.64.19-.35.39-.34.64,0l-.02.02Z"/>
  <path class="cls-27" d="M35.26,26.32v-1.9c1.25,0,.74.99,0,1.9Z"/>
  <path class="cls-27" d="M16.82,62.99c-1.33.18-1.45.07-1.27-1.26l1.27,1.26Z"/>
  <path class="cls-27" d="M119.81,111.05c-1.33.18-1.45.07-1.27-1.26l1.27,1.26Z"/>
  <path class="cls-27" d="M82.31,29.5c-1.69.12-1.45.03-.64-1.26.73.59.54,1.16.64,1.26Z"/>
  <path class="cls-27" d="M75.94,66.17l-.64-1.9c1.18.54.37,1.11.64,1.9Z"/>
  <path class="cls-155" d="M87.39,102.84h-.64c-.32-.3-.1-.72.64-1.26.19-.07.44.07.64,0-.1.17-.46.91-.64,1.26Z"/>
  <path class="cls-27" d="M98.83,66.79c-1-.24-2.16-.45-3.18-.64.49-1.16,2.48-.07,3.18.64Z"/>
  <path class="cls-27" d="M90.57,99.04v1.26c-.22.5-.42.5-.64,0-.42-.1-.63.32-.64,1.26-.35.1-.95-.12-1.27,0,.68-1.02.15-2.39,2.55-2.54v.02Z"/>
  <path class="cls-42" d="M60.06,100.94c-.27-.6-1.05-1.29-1.27-1.9-.34-.92-.44-1.63-.64-2.54.96,1.38,2.06,2.64,1.91,4.42v.02Z"/>
  <path class="cls-42" d="M55.6,68.07c-.19-.08-1.77-.07-1.91,0,.08-.96,1.82-.96,1.91,0Z"/>
  <path class="cls-27" d="M107.09,67.43c.86,1.26,1.01,1.39-.64,1.26.22-1.08.63-1.19.64-1.26Z"/>
  <path class="cls-27" d="M104.56,35.18c.05.13,0,.42,0,.64,0,.32-.32.57-.64.64-.03-2.3-.73-1.9-1.91-3.16h.64c.81.39,1.6,1.02,1.91,1.9v-.02Z"/>
  <path class="cls-27" d="M102.65,100.3c-.17-.08-.49.08-.64,0l-1.27-1.26c-.12-.13.37-1.19-.37-1.31s-1.96.62-2.8.69c2.5-2.75,3.73-.5,5.08,1.9v-.02Z"/>
  <path class="cls-42" d="M42.88,80.7c-.91-.27-1.27-.97-1.27-1.9.08.18.93,1.26,1.27,1.9Z"/>
  <path class="cls-42" d="M78.49,80.7l-.37.62-.9-.62c.42.03.84,0,1.27,0Z"/>
  <path class="cls-42" d="M68.95,88.29l-.57-.37.57-1.53c.22,1.14.03,1.01,0,1.9Z"/>
  <path class="cls-27" d="M101.38,89.55c-.57-.35-.71-.57-.64-1.26h.64c-.07.39.05.86,0,1.26Z"/>
  <path class="cls-42" d="M77.22,94.62l-.64-1.9c.24.25,1.06.42,1.27.96.2.77-.14.71-.63.94Z"/>
  <path class="cls-27" d="M37.17,95.24v.64c-.49-.13-1.06.03-1.27-.64h1.27Z"/>
  <path class="cls-42" d="M83.58,97.78c.22-.94.63-1.19.64-1.26l-.64,1.26Z"/>
  <path class="cls-42" d="M81.67,102.2c.46-1.38.63-2.84,1.91-3.8-.42,1.39-.66,2.82-1.91,3.8Z"/>
  <path class="cls-27" d="M92.48,97.78l-.66,1.9c-.47.13-.56-.64-.63-.64.24-.55.69-1.11,1.27-1.26h.02Z"/>
  <path class="cls-27" d="M96.3,98.4v.64h-.95l-.32-.64c.41.03.86.02,1.27,0Z"/>
  <path class="cls-42" d="M70.86,104.1c-1.64-.62,0-1.18,0-1.26v1.26Z"/>
  <path class="cls-42" d="M68.95,104.11c.44.22-.37,1.08-1.27.62-.44-.22.37-1.08,1.27-.62Z"/>
  <path class="cls-27" d="M94.39,105.99l-.63-.32.63-.94c-.14.2.1.89,0,1.26Z"/>
  <path class="cls-27" d="M46.08,105.99c-.27.59-.86.45-1.27.64l.64-.64c.2,0,.42-.03.64,0h-.02Z"/>
  <path class="cls-42" d="M63.24,107.89h-.64c-.22-.64-.39-1.26-.64-1.9,1.22.2.96,1.43,1.27,1.9h.02Z"/>
  <path class="cls-27" d="M23.19,108.53c.44.22-.37,1.08-1.27.62-.44-.22.37-1.08,1.27-.62Z"/>
  <path class="cls-27" d="M52.43,109.15c-.29.82-.63.55-1.27.64l1.27-.64Z"/>
  <path class="cls-42" d="M77.22,111.69c.54-1.29,1.22-1.78,1.27-1.9l-1.27,1.9Z"/>
  <path class="cls-42" d="M66.41,112.95h-.64c-.03-.69-.41-1.28-.64-1.9,1.22.27.96,1.19,1.27,1.9h.02Z"/>
  <path class="cls-27" d="M80.4,114.23c.44.22-.37,1.08-1.27.62-.44-.22.37-1.08,1.27-.62Z"/>
  <path class="cls-27" d="M51.14,115.48c.44.22-.37,1.08-1.27.62-.44-.22.37-1.08,1.27-.62Z"/>
  <path class="cls-27" d="M67.06,117.38c.08.12-.29,2.2,1.27,1.26l-.32.64c-1.79-.2-2.18-2.47-2.85-3.8.42.77,1.47,1.34,1.91,1.9Z"/>
  <path class="cls-27" d="M18.73,120.54c.44.22-.37,1.08-1.27.62-.44-.22.37-1.08,1.27-.62Z"/>
  <path class="cls-27" d="M72.14,126.86v-1.26c0,.17,1.03.67,0,1.26Z"/>
  <path class="cls-27" d="M76.58,126.24l-.32.62c-.66-.07-.51-1.31.32-1.26.32.22.32.42,0,.64Z"/>
  <path class="cls-42" d="M26.99,14.95c.44.22-.37,1.08-1.27.62"/>
  <path class="cls-27" d="M57.51,21.27c.1-.05.42,0,.64,0l.32,1.88-.96-1.88Z"/>
  <path class="cls-42" d="M22.54,26.96c-.02.82-2.04,1.16-.64,0,.19-.35.41-.35.64,0Z"/>
  <path class="cls-27" d="M26.36,27.6l-.32.62-.95-.62c.15-.07.98-.03,1.27,0Z"/>
  <path class="cls-27" d="M87.39,28.86l-1.27-.64c.71-.07,1.27-.13,1.27.64Z"/>
  <path class="cls-27" d="M25.1,30.12c-.03-.82,1.2-.97,1.27-.32l-.64.32c-.1-.1-.56.1-.64,0h.02Z"/>
  <path class="cls-27" d="M89.93,31.4c-.41.03-.86,0-1.27,0l.95-.62.32.62Z"/>
  <path class="cls-27" d="M96.92,31.4c-.42,0-.86-.03-1.27,0-.07-.17.07-.44,0-.64.54.03,1.1.02,1.27.64Z"/>
  <path class="cls-27" d="M105.2,30.76l-.32.62-.95-.62c.17-.1.9.02,1.27,0Z"/>
  <path class="cls-27" d="M121.08,31.4h-1.27l.64-.64c0,.05.49.07.64.64h-.02Z"/>
  <path class="cls-27" d="M43.52,31.4v.64h-1.27c.19-.62.73-.57,1.27-.64Z"/>
  <path class="cls-27" d="M88.02,31.4c-.2.67-.79.49-1.27.64v-.64h1.27Z"/>
  <path class="cls-27" d="M100.74,32.02l-1.27-.64c.79.15.81.37,1.27.64Z"/>
  <path class="cls-27" d="M75.32,36.45c.44.22-.37,1.08-1.27.62-.44-.22.37-1.08,1.27-.62Z"/>
  <path class="cls-35" d="M70.86,38.35v.64l-.63-.94.63-.32v.64-.02Z"/>
  <path class="cls-27" d="M79.76,42.77c.08-.37-.1-.92,0-1.26l.63.32-.63.94Z"/>
  <path class="cls-27" d="M113.46,42.77c.44.22-.37,1.08-1.27.62-.44-.22.37-1.08,1.27-.62Z"/>
  <path class="cls-42" d="M60.69,45.3l-.64-1.26s.54.15.64,1.26Z"/>
  <path class="cls-27" d="M120.45,52.26c.34-1.78,1.72-2.12,1.91-3.8.42.24.86.13.64.94l-2.53,2.86h-.02Z"/>
  <path class="cls-42" d="M62.6,51.62c-.22.44-1.08-.37-.63-1.26.22-.44,1.08.37.63,1.26Z"/>
  <path class="cls-27" d="M27,54.16h-.64c.12-.1.14-1.04.64-1.26.1.35-.08.87,0,1.26Z"/>
  <path class="cls-27" d="M107.09,55.42c-.2-.18-.52-.39-.64-.64-.59-.13-.56-.35,0-.64h.64c.08.39-.08.89,0,1.26v.02Z"/>
  <path class="cls-27" d="M108.37,58.57l-.64-1.26s.41.39.64,1.26Z"/>
  <path class="cls-27" d="M107.09,60.47s-.44-.3-.64-1.26l.64,1.26Z"/>
  <path class="cls-27" d="M109,60.47l-.64-1.26s.47.22.64,1.26Z"/>
  <path class="cls-27" d="M110.28,60.47c-.22.2-.41.44-.64.64-.08-.52.05-1.09.64-1.26v.64-.02Z"/>
  <path class="cls-27" d="M97.56,61.73c-.49-.13-1.06.03-1.27-.64.54.05,1.1,0,1.27.64Z"/>
  <path class="cls-27" d="M101.38,63.63c.34.35,1.05,1.95,1.27,2.54.07.18-.07.44,0,.64-1.27-2.17-2.64-3.39-4.44-5.06.81.34,2.65,1.31,3.18,1.9v-.02Z"/>
  <path class="cls-27" d="M104.56,67.43l-.64-1.26c.05.13.51.2.64,1.26Z"/>
  <path class="cls-27" d="M79.76,67.43h-1.27c.27,0-.14-.37,1.27,0Z"/>
  <path class="cls-150" d="M77.22,67.43c-.34,2.65-.3.82-.64,0,.19.03.44,0,.64,0Z"/>
  <path class="cls-27" d="M82.93,68.69c-.2.03-.78.71-1.27.64-.41-.64-.86-1.26-1.27-1.9.69.24,1.49,1.34,2.55,1.26h-.02Z"/>
  <path class="cls-42" d="M47.34,69.33c-.42.22-.86.42-1.27.64-.93-1.31-.46-.77,0-1.26l1.27.64v-.02Z"/>
  <path class="cls-27" d="M117.28,70.58c-.74.57-1.54.79-1.27,1.9-.66.18-1.22,1.09-2.55,1.26,1.66-1.08,1.79-2.79,3.82-3.16Z"/>
  <path class="cls-27" d="M119.81,71.86c-.74-.15-1.45-.67-1.91-1.26.96.13,1.59.2,1.91,1.26Z"/>
  <path class="cls-27" d="M95.01,74.38l-.64-1.26c.95.32.42.79.64,1.26Z"/>
  <path class="cls-27" d="M124.89,74.38c-.46-.22-.52-1.18-.64-1.26.29.45.52.47.64,1.26Z"/>
  <path class="cls-27" d="M95.65,76.28l-.64-1.26c.05.15.46.35.64,1.26Z"/>
  <path class="cls-42" d="M41.62,78.18l-.64-1.26s.41.64.64,1.26Z"/>
  <path class="cls-27" d="M58.78,133.81c-.02-.47.46-.47.64-.64l-.64.64"/>
  <path class="cls-27" d="M60.06,133.19s.14-.52.64-.64l-.64.64Z"/>
  <path class="cls-27" d="M63.86,132.55s-.03-.42,0-.64l.63.32-.63.32Z"/>
  <path class="cls-27" d="M63.86,131.29c.02-.39-.9.15,0-.64v.64Z"/>
  <path class="cls-27" d="M54.66,130.01c.41.22.41.42,0,.64v-.64Z"/>
  <path class="cls-27" d="M115.67,128.75c.41.22.41.42,0,.64v-.64Z"/>
  <path class="cls-42" d="M76.58,126.24s-.03-.62,0-.64c.74-.32.74.96,0,.64Z"/>
  <path class="cls-27" d="M75.94,118.64c0-.2.03-.44,0-.64h.64c-.03.29-.34.55-.64.64Z"/>
  <path class="cls-42" d="M68.32,118l-.64-.64s.49-.22.64.64Z"/>
  <path class="cls-27" d="M76.58,116.11l1.27-1.26c-.37.91-1.23,1.18-1.27,1.26Z"/>
  <path class="cls-42" d="M67.68,116.11l-.64-.64s.47.15.64.64Z"/>
  <path class="cls-27" d="M77.85,114.21c0-.2.05-.49,0-.64h.64c-.08.29-.35.52-.64.64Z"/>
  <path class="cls-42" d="M67.06,114.21l-.64-.64s.46.15.64.64Z"/>
  <path class="cls-42" d="M65.15,110.43l-.64-.64c.07.12.49.29.64.64Z"/>
  <path class="cls-42" d="M72.14,109.15l-.63-.32.63-.32v.64Z"/>
  <path class="cls-42" d="M64.5,109.15l-.64-.64c.14.2.51.39.64.64Z"/>
  <path class="cls-27" d="M42.26,108.53v-.64c.44-.12.84-.5,1.27-.64-.25.89-.84.87-1.27,1.26v.02Z"/>
  <path class="cls-42" d="M72.14,107.25l-.63-.32.63-.32v.64Z"/>
  <path class="cls-27" d="M33.03,105.36c.41.22.41.42,0,.64v-.64Z"/>
  <path class="cls-42" d="M61.95,104.73l-.64-.64s.47.17.64.64Z"/>
  <path class="cls-27" d="M84.84,103.46c.1,0,.39-.52.64-.64-.07.03-.54.5-.64.64Z"/>
  <path class="cls-27" d="M84.22,103.46l-.64-.64s.59.62.64.64Z"/>
  <path class="cls-42" d="M61.33,103.46l-.64-.64c.05.1.47.27.64.64Z"/>
  <path class="cls-27" d="M86.75,102.84c-.14.42-.35.4-.64,0,.12-.66.68-1.08,1.27-1.26l-.64,1.26h.02Z"/>
  <path class="cls-42" d="M60.69,102.2h-.64v-.64c.25.15.51.35.64.64Z"/>
  <path class="cls-27" d="M40.99,101.58c-.42.12-.9.55-1.27.64l1.27-1.26v.64-.02Z"/>
  <path class="cls-27" d="M103.91,100.94l-.64-.64c.35.12.71,0,.64.64Z"/>
  <path class="cls-27" d="M40.99,100.3c.03-.22-.07-.49,0-.64l.63.32-.63.32Z"/>
  <path class="cls-27" d="M41.62,99.04l.64-.64s-.44.45-.64.64Z"/>
  <path class="cls-27" d="M94.39,98.4c-.3-.08-.54-.34-.64-.64.34.03.56.32.64.64Z"/>
  <path class="cls-27" d="M112.82,97.78v-.64c1.23.35.24.42,0,.64Z"/>
  <path class="cls-27" d="M33.36,95.88l.64-.64s.22.47-.64.64Z"/>
  <path class="cls-27" d="M102.01,95.24l.64-.64s.07.44-.64.64Z"/>
  <path class="cls-42" d="M57.51,93.35v-.64c.42-.2.83-.47,1.27-.64l-1.27,1.26v.02Z"/>
  <path class="cls-42" d="M75.94,92.09l-.64-.64c.03.12.46.4.64.64Z"/>
  <path class="cls-27" d="M110.59,90.83c.41.22.41.42,0,.64v-.64Z"/>
  <path class="cls-42" d="M68.95,90.19l-.63-.32.63-.32c-.03.2.05.44,0,.64Z"/>
  <path class="cls-42" d="M68.95,85.77l-.64-.64c.03.13.59.39.64.64Z"/>
  <path class="cls-42" d="M73.41,85.13c0-.62.64-1.8.64-1.9.74.92.46,1.56-.64,1.9Z"/>
  <path class="cls-27" d="M15.23,78.18c.41.22.41.42,0,.64v-.64Z"/>
  <path class="cls-27" d="M112.17,73.74c-.1-.13-.61-.22-.64-.64.41.03.59.62.64.64Z"/>
  <path class="cls-27" d="M14.6,73.12c.41.22.41.42,0,.64v-.64Z"/>
  <path class="cls-42" d="M124.27,73.12c-.24-.18-1-.57-1.27-.64v-.64c.68.4.86.6,1.27,1.26v.02Z"/>
  <path class="cls-27" d="M21.92,73.12c-.19-.05-.42.03-.64,0,.24-.54.69-1.13,1.27-1.26.15.3.47,1.02.32,1.23-.03.03-.63-.49-.96.03h.02Z"/>
  <path class="cls-42" d="M56.87,69.33c.19.03.44,0,.64,0l-.32.62s-.32-.62-.32-.62Z"/>
  <path class="cls-27" d="M27.63,69.96c-.44-.17-.59-.6-.64-.64l.64.64Z"/>
  <path class="cls-42" d="M56.24,69.33l-.64-.64c.27.12.46.55.64.64Z"/>
  <path class="cls-27" d="M76.58,67.43c-.41-.08-.61-.18-.64-.64,0,.05.46.18.64.64Z"/>
  <path class="cls-27" d="M103.91,65.53h-.64v-.64c.32.1.49.34.64.64Z"/>
  <path class="cls-42" d="M67.06,65.53l-1.91-1.9c.71.24,1.72,1.18,1.91,1.9Z"/>
  <path class="cls-27" d="M103.29,64.27l-1.27-.64v-.64c.34.39.81.4,1.27,1.26v.02Z"/>
  <path class="cls-27" d="M118.54,63.63v-.64h.64c-.22.2-.41.44-.64.64Z"/>
  <path class="cls-27" d="M121.08,61.73c-.39.25-.86.4-1.27.64.14-.4.59-.91.64-1.26.34.05.57.3.64.64l-.02-.02Z"/>
  <path class="cls-27" d="M100.74,61.73l-1.27-1.26c.81.49.88.94,1.27,1.26Z"/>
  <path class="cls-27" d="M75.64,60.47c.41.22.41.42,0,.64v-.64Z"/>
  <path class="cls-27" d="M98.83,60.47l-.64-.64c.44.15.57.6.64.64Z"/>
  <path class="cls-27" d="M93.75,59.83l-1.27-1.26c.91.29,1.15,1.21,1.27,1.26Z"/>
  <path class="cls-27" d="M106.47,58.57c-.02-.08-.52-.29-.64-.64l.64.64Z"/>
  <path class="cls-27" d="M74.35,57.94c.41.22.41.42,0,.64v-.64Z"/>
  <path class="cls-27" d="M32.09,58.57c.07-.44.63-.59.64-.64l-.64.64Z"/>
  <path class="cls-27" d="M98.51,56.68c.41.22.41.42,0,.64v-.64Z"/>
  <path class="cls-27" d="M107.73,56.68l-.64-.64s.52.2.64.64Z"/>
  <path class="cls-27" d="M27.63,55.42l-.64-.64s.59.3.64.64Z"/>
  <path class="cls-27" d="M27,52.26l-1.27-1.26c.66.18,1.05.64,1.27,1.26Z"/>
  <path class="cls-27" d="M24.45,52.26l-.64-.64c.14,0,.46-.62.64-.64.07.34.63.84.63.96-.03.29-.49.2-.63.3v.02Z"/>
  <path class="cls-27" d="M71.5,50.36h-.64v-.64l.64.64Z"/>
  <path class="cls-27" d="M121.08,48.46c.19,0,.46-.03.64,0l-.32.62-.32-.62Z"/>
  <path class="cls-27" d="M54.34,33.92c-.19-.27-1.17-.59-1.27-1.26.83.34.84.77,1.27,1.26Z"/>
  <path class="cls-27" d="M76.9,32.02c.41.22.41.42,0,.64v-.64Z"/>
  <path class="cls-27" d="M52.43,32.66h-.64v-.64c.29.03.54.35.64.64Z"/>
  <path class="cls-27" d="M40.99,32.02h.64l-.32.62s-.32-.62-.32-.62Z"/>
  <path class="cls-27" d="M32.71,28.86h.64c-.08.15.12.5-.32.62,0,0-.32-.62-.32-.62Z"/>
  <path class="cls-27" d="M22.54,26.96h-.64c.1-.08.32-1.29.64,0Z"/>
  <path class="cls-27" d="M69.59,25.7c-.03-.42,0-.4,0-.64v.64Z"/>
  <path class="cls-42" d="M35.89,21.91s-.47-.03-.64,0l.32-.62s.32.62.32.62Z"/>
  <path class="cls-27" d="M55.92,18.11c.41.22.41.42,0,.64v-.64Z"/>
  <path class="cls-27" d="M43.52,14.93s.57,1.24.64,1.26v.02l-1.27-.96"/>
  <path class="cls-104" d="M27.63,61.73c.66.1,2.35-.15,2.55,0,.3.25-1.79,1.51.64,3.16.64.44.95.84,1.91.64h.64c-.07.84.05,1.7,0,2.54.29.74.29,1.38,0,1.9-.07.87-.22,1.76-1.27,1.9-.12-.17-.02-.77-.34-1.23-1.03-1.48-3.24-.77-1.57-4.45l-5.71-.64,3.18,1.26c.35,1.18-.56,1.09-.63,1.26-2.65.22-3.01-.34-3.82-2.54-.1-.29-.73-2.44-.64-2.52,1.3-1.34,1.03,1.6,1.91,1.26-1.11-4.05.34-2.92,3.19-2.52l-.05-.02Z"/>
  <path class="cls-10" d="M51.78,73.12c.12-.08.71.13,1.1-.17.59-.47.57-2,1.76-1.73,0,.77.29,2.69,1.59,1.9.35-.2-1.84-1.44,1.91-1.9.78,3.51-2.82,3.8-5.41,3.54-1.77-.18-.88.2-.96-1.65h.02Z"/>
  <path class="cls-25" d="M50.52,86.39l1.91-4.42c.27.76-.64,3.09-.52,3.48.1.32.95.22,1.11.79.81,2.7,1.18,3.71-1.22,4.59-1.82,0-2.65-3.38-1.27-4.42l-.02-.02Z"/>
  <path class="cls-101" d="M50.52,86.39c.68,1.39.88,2.96,1.27,4.42-1.82.67-2.21.66-3.82-.96,2.91-1.02-.03-.77-.03-1.28,0-1.04,1.37-2.25,1.32-3.46.61-.17,1.05.82,1.27,1.26v.02Z"/>
  <path class="cls-168" d="M44.79,93.35c-.08-.18-2.04-.96-1.27-1.9.96-1.14,7.87,1.8,6.35,3.78-.05.07-.9-.02-1.27,0-.59-.08-1.01-.3-1.27-.64-.76-.47-1.27-1.39-2.55-1.26v.02Z"/>
  <path class="cls-11" d="M54.96,97.14c.81,1.24.98,3.07,2.55,3.8-.05.3-.07,1.01,0,1.26-1.5-2.3-5.27-2.6-5.73-5.69.2,0,.42.02.64,0,.42.91,1.72.66,2.55.64h-.02Z"/>
  <path class="cls-11" d="M54.34,95.88c-.05-2.82,1.96-.94,1.91,1.26-.42.02-.84,0-1.27,0-.1-.15.1-.49,0-.64-.22-.32-.42-.42-.64-.64v.02Z"/>
  <path class="cls-111" d="M56.24,80.08c.19-.55.39-.54.64,0-.03.27.34.81,0,1.9-.52,1.14-1.15,1.56-1.91,1.26-.15-.74-1.59-1.38-1.27-2.52l2.53-.64Z"/>
  <path class="cls-40" d="M37.8,69.33c-.15.5.14,1.36,0,1.9-.34,1.34-.71,4.13-1.91,3.16-.1-.39.12-1.01,0-1.26,1.15-.71.51-2.6.64-3.8.69-2.74,1.84-2.97,1.27,0Z"/>
  <path class="cls-46" d="M60.69,74.38c-.64.55-.83,4.2-2.53,2.52-.61-.59,1.44-2.69.64-3.78.93-.22,1.71.4,1.91,1.26h-.02Z"/>
  <path class="cls-78" d="M56.87,81.97c-.49,1.58-.35,2.15-2.55,1.88-.17-.45.64-.57.64-.62,0,0,1.91-1.26,1.91-1.26Z"/>
  <path class="cls-100" d="M48.61,74.38c.03.13.52.39.64.64-.37.25-.88.37-1.27.64-1.03-1.5-1.05-2.54.64-1.26l-.02-.02Z"/>
  <path class="cls-171" d="M47.34,94.62c.3.18,1,.12,1.27.64-.42.02-.84-.03-1.27,0s-.84-.03-1.27,0l1.27-.64Z"/>
  <path class="cls-53" d="M34,69.96h-.64c.02-.27-.05-1.13,0-1.9.42.52.39,1.41.64,1.9Z"/>
  <path class="cls-30" d="M63.24,87.03c.69.69-.57,1.95-1.27,1.26s.57-1.95,1.27-1.26Z"/>
  <path class="cls-119" d="M56.24,80.08c.07-.47-.3-1.06.32-1.26,1.81-.6.35.89.3,1.26h-.64.02Z"/>
  <path class="cls-92" d="M65.15,87.03c-.29-.12-.86.1-1.27-.03l.63-.6.64.64h0Z"/>
  <path class="cls-118" d="M44.79,93.98l-.32.62h-.95c.69-.57,1.22-.57,1.27-.62Z"/>
  <path class="cls-71" d="M53.07,95.24s-.52.07-.63-.32c-.24-.91.46-.74.63-.94v1.26Z"/>
  <path class="cls-100" d="M47.34,76.28c-.1.1-.56-.1-.64,0l.32-.62s.32.62.32.62Z"/>
  <path class="cls-161" d="M45.43,40.25c1.81.3,2.09,1.02,3.18,1.9.3.45.73.87,1.27,1.26.84,2.33-.25,2.87.64,5.06-1.6-.34-1.33.5-1.28,1.9-1.17-.67-1.6-1.38-3.18-1.26l-3.41,2.81c-3.14,1.28-10.39-.71-4.85-2.81,4.53-.27,2.26-.89,3.19-4.42.54-.71.81,2.65,1.89,1.26.71-.91.05-3.44-1.91-2.52-.14-.97-.12-1.26.64-1.9.29-2.86,2.43-2.07,3.82-1.26v-.02Z"/>
  <path class="cls-160" d="M37.8,49.08c-.59.67-1.69,1.01-1.91,1.9,2.36-.91,4.83.6,7.18-.12,1.05-.32,1.35-1.65,2.99-1.76l-6.69,7.64c-.83,1.06-1.45-.05-1.59-.07,5.98-4.74-1.71-2.45-2.53-3.16-.29-.25,1.22-2.18,0-2.52.44-.5.56-1.76,1.27-2.23.56-.39,1.11.35,1.28.34v-.02Z"/>
  <path class="cls-65" d="M49.88,59.83c.61-.6,1.42.08,1.91.64.19.07.44-.07.64,0l3.18,3.16c-1.27.03-2.55,0-3.82,0-.56,0-1.18.5-1.99.32-.64-.15-.91-.82-1.18-.96-2.21-1.51-2.13-2.67.64-3.16.2.05.44-.07.64,0h-.02Z"/>
  <path class="cls-107" d="M36.53,69.33c.49-4.55,1.47-5.64,5.56-7.24.15-.05.63-2.1,2.06.29-1.99.34-3.14,1.11-4.44,2.54l-.64.64c-.08.15.08.45,0,.64-.47.29-.68.72-.64,1.26-.19.54-.51,1.43-.64,1.9.15-2.12-.54-1.33-1.27,0l.02-.02Z"/>
  <path class="cls-144" d="M49.25,59.83c-1.71.54-1.1,1.83-.64,3.16-.98-.47-1.86-.84-2.84-1.28-.68-.3-1.27.52-.96-1.26,2.36.91,2.06-1.33,4.44-.64v.02Z"/>
  <path class="cls-44" d="M54.34,54.78c1.79.22,2.91-1.31,4.44-1.9-.57,1.06-2.04,2.6-3.16,2.92-1.03.29-.95-.74-1.3-1.02h.02Z"/>
  <path class="cls-52" d="M51.78,60.47c-.35-.12-1.27-.42-1.91-.64.35-1.38,1.64-.35,1.91.64Z"/>
  <path class="cls-40" d="M39.08,66.17c-.2.42-.49.84-.64,1.26-1.11-1.06-.84-1.48.64-1.26Z"/>
  <path class="cls-1" d="M39.08,65.53l.64-.64c-.19.22-.54.47-.64.64Z"/>
  <path class="cls-27" d="M33.36,65.53h-.64l.64-.64c-.02.2.02.42,0,.64Z"/>
  <path class="cls-114" d="M96.92,37.71l1.27,1.26c.27.47-.15.66-.64.64-.71.44-.49,1.06.64,1.9-.64-1.38,1.35-1.24,1.27,0-.05.15,0,.42,0,.64-.74.3-.73,1.24-.64,1.9-.91-.77,0-1.9-1.59-1.9-.98,0-1.71,2.37-2.85,1.26-.2-.2-.2-5.49,0-5.69s1.99.2,2.55,0h0Z"/>
  <path class="cls-12" d="M88.49,44.26c.17.07.15.84.27.89.24.1,2.43-.81,3.06,1.41-.86.18-5.51-.4-5.71-.64-1.01-1.26.3-2.45,2.36-1.65l.02-.02Z"/>
  <path class="cls-87" d="M82.31,45.3c.29.07,4.78.32,3.18,1.9-.32.32-1.6-1.6-1.89-1.26,1.52,3.39-.69.77-3.18,1.9-.14-.59.07-1.71.63-1.9.49-.35.91-.55,1.27-.64Z"/>
  <path class="cls-34" d="M98.2,45.3c.54.17.52.39,0,.64-.08,2.64-.71,3.7-1.91,3.16-.22-.82-.49-1.68-.64-2.54-.08-.5-1.18-1.66.64-1.9.59-.07,1.39.34,1.91.64Z"/>
  <path class="cls-114" d="M98.83,44.67c.07.17,2.11,2.15,2.55,2.54-.19.55-.39.54-.64,0-.93,1.63-2.96.47-2.55-1.26.1-.03-.1-.54,0-.64.05-.05-.07-.74.64-.64Z"/>
  <path class="cls-26" d="M92.48,34.55l.64.64c-.22.13-.27,1.33-1.27.32-1.05-.77-.96-1.93.32-1.58.32.08.29.62.32.62h-.02Z"/>
  <path class="cls-127" d="M84.2,38.97c.2.87-.34,1.68-1.27,1.9v-1.9h1.27Z"/>
  <path class="cls-162" d="M82.31,45.3c-1.11,2.18-1.17.6-1.27.64-.2-2.54.81-.72,1.27-.64Z"/>
  <path class="cls-131" d="M86.11,47.82c.69.69-.57,1.95-1.27,1.26s.57-1.95,1.27-1.26Z"/>
  <path class="cls-173" d="M88.02,34.55c.08.08-.03.87,0,1.26h-2.53c-.76-.37,2.2-1.6,2.53-1.26Z"/>
  <path class="cls-43" d="M98.2,33.92l-1.27.64c0-.3,0-.5.32-.62.3.05.64-.07.95,0v-.02Z"/>
  <path class="cls-19" d="M89.93,40.25c.44.22-.37,1.08-1.27.62-.44-.22.37-1.08,1.27-.62Z"/>
  <path class="cls-114" d="M96.3,44.67c-.3.3-1.01-.59-.32-.64.22,0,.46.49.32.64Z"/>
  <path class="cls-114" d="M97.24,43.41c.41.22.41.42,0,.64v-.64Z"/>
  <path class="cls-23" d="M93.75,32.66h.64s-.59.74-.64,0Z"/>
  <path class="cls-42" d="M100.74,38.97c.3.99-.32,1.31-.64,1.9-3.78.34-1.67-3.34.64-1.9Z"/>
  <path class="cls-27" d="M100.74,38.97c-.69.27-1.93-.22-2.53.96l1.91.94c-.14.25-.59.47-.64.64l-.3-.47c-.39-.03-.79.49-.96.47-.9-.32-1.57-1.28-.64-1.9.05,0,.15-.45.64-.64s.98-.86,1.74-1.09c1-.3,2.77.55,3.97-.81-.51,1.53-2.03,1.46-3.18,1.9Z"/>
  <path class="cls-27" d="M114.73,32.66c-.22.91-1.03,1.44-1.91,1.26v-1.26h1.91Z"/>
  <path class="cls-27" d="M117.26,36.45v.62c-1.33.05-2.91.3-3.8-.94l3.8.34v-.02Z"/>
  <path class="cls-27" d="M119.81,35.81c.3.24-1.11,1.68-1.91,1.26-.3-.24,1.11-1.68,1.91-1.26Z"/>
  <path class="cls-27" d="M122.34,35.81c.44.22-.37,1.08-1.27.62-.44-.22.37-1.08,1.27-.62Z"/>
  <path class="cls-27" d="M117.58,35.18c.41.22.41.42,0,.64v-.64Z"/>
  <path class="cls-27" d="M108.68,35.18c.41.22.41.42,0,.64v-.64Z"/>
  <path class="cls-27" d="M18.1,16.85c.73.74-.27,2.03-1.27.3-.08-.55,1.22-.35,1.27-.3Z"/>
  <path class="cls-27" d="M16.51,18.75c.41.22.41.42,0,.64v-.64Z"/>
  <path class="cls-91" d="M40.99,34.55c.19-.35.39-.34.64,0l.64,1.26c.1.59.96.49,1.27.64.79.3.47,1.26,0,1.9.24.54.47.77.64,0-.68-.6-.41-2.02.64-1.26,1.13-.81,1.15.27.64,1.26.14.52-.08,1.31,0,1.9-.93-.15-3.07.66-3.82,1.26,1.18-3.06-2.42-2.86-4.44-3.16l-.64-1.9c2.85.94,2.45-1.86,4.44-1.9h-.02Z"/>
  <path class="cls-44" d="M56.87,45.93c1.35,1.13,1.35,1.97,0,2.54-.2,1.28-2.01,2.79-.32,3.14.15.03.64-.57.95-.62.35.24.35.66,0,1.26-.41.17-1.15,1.31-1.91,1.26-.63-.66-.84-1.29-.64-1.9-1.13-2.86.29-1.34.84-2.65.46-1.06.52-2.52.42-3.66.19-.55.39-.54.64,0,.03.2-.02.42,0,.64h.02Z"/>
  <path class="cls-161" d="M47.34,35.18c.22.99-.15,2.59-1.27,2.54-.12.25-.41.45-.64.64-.02-.07-.59-1.21-.64-1.26-.71.89-1.05.34-1.27-.64-.03-.6.12-1.41,0-1.9,1.1.94,3.38.54,3.82.64v-.02Z"/>
  <path class="cls-84" d="M51.78,47.2c-1.45-1.78-.93-3.02,1.27-2.52l-.47,1.14c1.89.6.69-.12.47.74-.3.71-.56,1.24-1.27.64Z"/>
  <path class="cls-103" d="M56.87,45.93l2.55,1.58-2.55.94c.1-.66.07-1.83,0-2.54v.02Z"/>
  <path class="cls-134" d="M47.98,36.45l-.64,1.9-1.27-.64c.39-.82.49-1.81,1.27-2.54.9.22.47.97.64,1.26v.02Z"/>
  <path class="cls-80" d="M57.51,39.61c.41,1.55-.68,1.24-1.89,1.9v-1.9h1.89Z"/>
  <path class="cls-28" d="M54.96,51.62c.12.32,1.06.89.64,1.9-.63-.03-1.4-1.14-1.91-1.58l1.27-.32Z"/>
  <path class="cls-85" d="M54.96,38.97v1.26c-.93.2-1.32-.29-1.91-.94l1.91-.3v-.02Z"/>
  <path class="cls-81" d="M54.96,49.08h-1.27v-1.9c.91.22,1.45,1.02,1.27,1.9Z"/>
  <path class="cls-152" d="M48.61,42.13c.57.45.51-.87,1.27,1.26-1.35.15-1.42.08-1.27-1.26Z"/>
  <path class="cls-70" d="M56.87,45.3h-.64c-.03-.37-1-.99-.63-1.9,1.03.15,1.1,1.06,1.27,1.9Z"/>
  <path class="cls-7" d="M53.07,46.56c-.25.99.1,2.32-1.27.64l1.27-.64Z"/>
  <path class="cls-37" d="M53.69,42.15v.62c-2.65.32-2.65-.94,0-.62Z"/>
  <path class="cls-51" d="M58.15,52.26c-.2.05-.46-.07-.64,0l-.63-.32.63-.96c.22-.03.47.07.64,0v1.28Z"/>
  <path class="cls-164" d="M90.57,80.7c-.08-1.56,2.18-3.07,3.82-2.54-.1,1.21.19,2.64,0,3.8-.08.57-1.22,2.17-1.23,2.89,0,.29,1.05.15,1.18.67.15.59-1.06,2.03,1.11,2.57.78.18,1.71-1.21,1.49.82,1.08.34.25-1.26,1-1.29.59-.03,1.23.66,1.54.67-.29,1.19-1.1.99-1.91,1.26-2.4.81-4.02,2.15-6.35,3.8-1.1.77-2.47.13-1.91,3.16-.19.07-.44-.07-.64,0-.29.35-.49.15-.64-.64-.07-.2.08-.49,0-.64-.54-.99-2.91-.62-2.53-2.52,3.09.55,3.21,1.76,4.44-1.26l-.74-.42,1.2-5.76c-.68-2-.63-3.53.19-4.59v.02Z"/>
  <path class="cls-142" d="M88.66,79.44c.51.25,1.08,1.18,1.91,1.26.07,1.5,1.11,3.09,1.08,4.67,0,.44-1.45,5.46-1.71,6.08l-1.91.64c.64-2.17.2-4.42.34-6.42.07-1.01,2.2-4.12-.96-3.7.03.96-.27,1.65-1.27,1.26h-.64c-.22.99-.66.57-1.27-1.26-.34-1.66-1.13-3.33-1.27-5.06.22-.22,5,2.17,5.73,2.52h-.03Z"/>
  <path class="cls-151" d="M79.61,82.85c.17.07.14.76.3.86.29.18,1.4-1.36,1.13.47l-3.18,2.84c-.76-2.35-2.11-5.56,1.74-4.18v.02Z"/>
  <path class="cls-132" d="M86.13,98.4c0,1.85.03,1.98-1.91,2.54.25-1.28-.29-2.91,1.27-3.8.08.4.64.99.64,1.26Z"/>
  <path class="cls-116" d="M87.39,81.97l.63,2.52h-1.91c.59-.64-.02-1.21,0-1.26.24-.59.57-1.18,1.27-1.26h.02Z"/>
  <path class="cls-56" d="M82.93,85.77c.9-.5,1.71,1.36.64,1.9-.22-.03-1.03-.45-1.27-.64l-.64-.64c-.05-.97.88-.47,1.27-.64v.02Z"/>
  <path class="cls-116" d="M85.48,85.13c-.08.64-.84.47-1.28.64l1.27,1.58c-.51-.12-1.81.32-1.89.3l-.64-1.9c.44-.18,1.06-.57,1.27-.64.37-.49.83-.45,1.27,0l.02.02Z"/>
  <path class="cls-5" d="M81.67,81.97c.19.15,1.1-.17,1.27,0s-.14,1.06,0,1.26c-1.15.2-1.49-.13-1.27-1.26Z"/>
  <path class="cls-82" d="M82.31,87.67s.24,1.34-.3,1.26c-1.74-.99-.42-1.98.3-1.26Z"/>
  <path class="cls-149" d="M76.58,87.03h-.64c.19-.47-.41-1.71.32-1.9.68,0,.15,1.36.32,1.9Z"/>
  <path class="cls-116" d="M85.48,83.23l-.64,1.26c-.19.4-.41.39-.64,0,.03-.2-.05-.44,0-.64.03-.13.56-.37.49-.82-.07-.47-.44-.81-.49-1.06l1.27,1.26h.02Z"/>
  <path class="cls-76" d="M85.48,85.13c-.41.07-.93-.08-1.27,0v-.64h.64c.47-.07.69.17.64.64h-.02Z"/>
  <path class="cls-3" d="M88.02,92.09c.3.3-.59,1.01-.64.32,0-.22.49-.45.64-.32Z"/>
  <path class="cls-116" d="M82.31,87.03c-.14-.08-.68.13-.64-.64l.64.64Z"/>
  <path class="cls-116" d="M82.63,84.49c.41.22.41.42,0,.64v-.64Z"/>
  <rect class="cls-47" x="82.95" y="73.12" width="1.27" height="3.16"/>
  <path class="cls-106" d="M89.3,76.28l-1.27,1.26c0-.42-.05-.86,0-1.26.3-.1.88-.66.96-.62.35.13.24.54.3.62Z"/>
  <path class="cls-157" d="M81.67,70.6v.62c-2.65.32-2.65-.94,0-.62Z"/>
  <path class="cls-140" d="M82.93,70.58s1.22.5.3.64c-.79.3-.71-.34-.95-.64h.64Z"/>
  <path class="cls-105" d="M85.81,71.86c.41.22.41.42,0,.64v-.64Z"/>
  <path class="cls-57" d="M51.16,100.3c.17.12,1.2-.12,1.89.3,1.17.71,2.13,4.33,4.46,2.22.73,1.56,3.21,1.85.64,5.06-.59-.3-2.47-1.02-3.18-1.26-.56-.18-.54-.69-1.91-.64-.24-2.17-2.42-3.36-1.91-5.69v.02Z"/>
  <path class="cls-55" d="M37.8,110.43c1.2-.24,1.76.89,1.91,1.9.56.18.54.39,0,.64-1.39-.1-1.33-.1-2.55-.64-1.35-1.21-1.03-2.39-1.27-3.8-.03-.2.03-.42,0-.64.71.77,1.3,1.68,1.91,2.54Z"/>
  <path class="cls-69" d="M51.16,104.73c.44,2.05-.93.97-1.91,0-.24-.24-1.39-1.81-1.27-1.9,2.96-.39,2.35.35,3.18,1.9Z"/>
  <path class="cls-86" d="M40.99,111.05c.27.72-.15,1.14-1.27,1.26-2.03-.18-1.59-1.44-1.91-1.9-.19-2.84,1.72-.29,3.18.64Z"/>
  <path class="cls-61" d="M40.99,111.05h.64c-.05,1.63-.57,1.98-1.91,1.9v-.64c-.2-1.83.12-.79,1.27-1.26Z"/>
  <path class="cls-27" d="M31.65,34.94c.64.37,1.64.4,2.01.84.44.5.25,5.17-1.59,3.53,2.35-1.93.46-2.5-1.91-1.6-.25-.24,1.84-2.22-.63-1.9,2.09-3.26,1.66-1.13,2.11-.87Z"/>
  <path class="cls-27" d="M32.09,34.54l1.91-1.9c.22,1.16-.69,2.1-1.91,1.9Z"/>
  <path class="cls-27" d="M31.45,29.5v.62c-2.65.32-2.65-.94,0-.62Z"/>
  <path class="cls-27" d="M36.53,28.86c-.49.45-1.86-.34-1.27-.62.66-.32,1.6.32,1.27.62Z"/>
  <path class="cls-121" d="M100.74,99.04l1.27,1.26c.05.08.03.54,0,.64-.05.15-1.05,1.13-1.27,1.26-1.42-.92-2.18-1.08-4.05-1.08l-.39-.82-.64.64c-.83,1.11-3.11,1.01-4.44.64-.24.03-.91-.52-1.27-.64-.56-.18-.54-.39,0-.64.2,0,.42.02.64,0,1.28-.13,2.06-1.23,2.55-1.26l.64.64c1-.13,2.35-.62,2.55-.64,1.3-.1,3.29-.55,4.44,0h-.03Z"/>
  <path class="cls-18" d="M96.3,100.3c.47-.03,4.29-.17,4.44,0,.07.07.07,1.83,0,1.9-.83.35-1.76.62-2.55,0-1.91.03-3.82,0-5.73,0-.32.47-.91.47-1.27,0v-.64c1.37-.15,2.92-.49,4.44-.64l.64-.64.02.02Z"/>
  <path class="cls-155" d="M100.74,102.2c-.78.45-1.72,1.44-2.55,0,.54,0,2.45.08,2.55,0Z"/>
  <path class="cls-18" d="M89.93,100.3v.64c-.02.44-.27.52-.64.64-.76-.54-.47-1.78.32-1.88.1,0,.24.62.3.62l.02-.02Z"/>
  <path class="cls-121" d="M92.48,102.2c-.1,1.01-1.27.89-1.27,0h1.27Z"/>
  <path class="cls-121" d="M87.39,102.84c-.12.24-.52.42-.64.64-.46.07-.71-.18-.64-.64.2-.05.42.03.64,0h.64Z"/>
  <path class="cls-121" d="M93.75,103.46v.64c-1.89.05-1.93-.44,0-.64Z"/>
  <path class="cls-155" d="M98.2,104.1l-1.27-.64c.68.17.84.42,1.27.64Z"/>
  <path class="cls-121" d="M90.57,105.36l-.64-.64c.08,0,.14-.79.63-.64.08.37-.12,1.11,0,1.26l.02.02Z"/>
  <path class="cls-121" d="M96.3,103.46c-.2-.03-.42,0-.64,0l.32-.6c.07.2.32.4.32.6Z"/>
  <path class="cls-27" d="M22.22,35.81c.41.22.41.42,0,.64v-.64Z"/>
  <path class="cls-27" d="M63.86,37.71c-.81,1.01-2.8-2.84-3.18-3.16,1.96-.27,3.5,1.13,3.18,3.16Z"/>
  <path class="cls-27" d="M60.69,32.02l3.18.62-3.5.62c-.47-.13.27-1.23.32-1.24Z"/>
  <path class="cls-31" d="M29.54,75.64c.86-.52,1.4-1.44,2.53-1.26,0,3.17,2.67,2.92,3.82,5.69.95.6,1.5,2.4,0,1.9-.19-.07-.46.07-.64,0-.54-.25-.54-.03,0,.64.22.18.44.42.64.64,1.37,1.11,1.15,2.55-.64,1.9-.74.74-1.59.32-2.55-1.26-.2,0-.51-.05-.64,0-.17-.62-.73-.59-1.27-.64-.61-.05-1.3-.03-1.91,0v-.64c-.35-.29-.14-.5.64-.64.12-.57.34-.54.64,0l1.27.64c.34-.54.79-.44,1.27,0l.64-.64c-.61.67-.83.24-.64-1.26-.54-.22-.54-.42,0-.64-.54-.69-.96-.91-1.27-.64-.12.55-.34.52-.64,0-1.66.3-1.77-2.05-3.18-2.86-.12-.24,1.37-.62,1.91-.94h.02Z"/>
  <path class="cls-113" d="M32.71,80.08c.08.12-.07.42,0,.64.68,1.18-.2,2-1.27,1.26-.37.47-.81.35-1.27,0h-.64c-.49.3-.93.52-1.27,0-.12-.69-.47-1.24-.64-1.9,1.15.59,2.79-.62,3.18-.64h.64c.32-.25.74-.03,1.27.64Z"/>
  <path class="cls-49" d="M29.54,81.97l-.64.64-1.23-.07c-.05-.37.61-.52.61-.55h1.27v-.02Z"/>
  <path class="cls-27" d="M78.49,28.86c.44.22-.37,1.08-1.27.62-.44-.22.37-1.08,1.27-.62Z"/>
  <path class="cls-49" d="M32.71,83.87c.98.03,1.4.74,2.55,1.26,1.03-.49,1.22-.35.64.64-.24.15-.42.55-.64.64-.19.34-.41.34-.64,0-.44-.18-.81-.05-1.27-.64-.37-.47-.47-1.31-.64-1.9Z"/>
  <path class="cls-22" d="M35.89,83.23c.69.74,1.71.71,1.27,2.52-.37.12-1.1-.12-1.27,0-.24-.15-.44-.54-.64-.64,1.2-.45,1.49-.92.64-1.9v.02Z"/>
  <path class="cls-22" d="M36.53,80.08l1.27,2.52c-.95.29-1.3-.4-1.91-.62.61-.77.32-1.14,0-1.9h.64Z"/>
  <path class="cls-22" d="M35.26,81.97v.64c-.39-.35-1.3-.5-1.27-1.26,1.17-.35,1.11.55,1.27.62Z"/>
  <path class="cls-27" d="M34.62,86.39h.64c-.14.05-.17.59-.32.59-.17,0-.2-.54-.32-.59Z"/>
  <path class="cls-42" d="M122.99,125.6c-.22.91-1.03,1.44-1.91,1.26v-1.26h1.91Z"/>
  <path class="cls-27" d="M121.09,121.8c-.63-.3,1.27-1.23,1.89-.94-.56.69-.96,1.16-1.89.94Z"/>
  <path class="cls-27" d="M125.22,119.26c.41.22.41.42,0,.64v-.64Z"/>
  <path class="cls-104" d="M29.54,58.57l-.51.37.51,2.15c-.95.29-1.3-.4-1.91-.62-.96-.35-3.85-1.18-3.82-1.9.96-.4,1.6-.4,1.91,0,1.11-.05,2.16-.12,3.18-.64.3.07.46.47.64.64Z"/>
  <path class="cls-97" d="M23.81,54.78c3.9,2.37-.49,3.51-1.27,1.58s1.13-1.44,1.27-1.58Z"/>
  <path class="cls-165" d="M27,57.94c.63.62.19.84-1.27.64-.57-.1-1.3.07-1.91,0,2.04-.52,2.16-2.15,2.55-2.54.05-.05.42,0,.64,0v1.9h-.02Z"/>
  <path class="cls-97" d="M23.81,54.16l-.64-.64c.57-.07.56.18.64.64Z"/>
  <path class="cls-9" d="M51.16,35.81c.56.44-2.18,1.36-1.91,0h1.91Z"/>
  <path class="cls-32" d="M91.84,77.54c-1.67.32-1.33-.37-1.27-1.88h.63l.64,1.88Z"/>
  <path class="cls-129" d="M102.01,35.81c.44.22-.37,1.08-1.27.62-.44-.22.37-1.08,1.27-.62Z"/>
  <path class="cls-74" d="M58.15,100.94v-.64c.78,0-.02.6,0,.64Z"/>
  <path class="cls-95" d="M68.96,133.22c.76-.72.41-.84,0-1.9,1.69.03,3.4-.07,5.08,0l-.02-.03c.05,4.42,5.12,1.93,8.26,2.54"/>
  <path class="cls-145" d="M42.26,35.81c-.42-.2-.57-1.23-.64-1.26,1.99,1.39.57.97.64,1.26Z"/>
  <path class="cls-60" d="M41.62,34.55c-.1-.05-.42,0-.64,0l.32-.62c.22.15.2.54.32.62Z"/>
  <path class="cls-27" d="M70.86,53.52v-1.26l.63.32-.63.94Z"/>
  <path class="cls-102" d="M106.47,52.26c.02.12-.15.94,0,1.9.03.22-.07.49,0,.64-.42.15-.86.52-1.27.64-3.19.86-4.9-.59-7.03-2.84-.49-.52-.46-1.39-.61-1.58.19-.55.39-.54.64,0,3.13,1.09,4.48-.03,3.82-3.16,1.49,1.33,3.77,1.31,4.44,4.42v-.02Z"/>
  <path class="cls-33" d="M98.2,45.93l2.55,1.26c1.17,1.09,1.39,1.93.64,2.54.74,1.83-2.18,2.47-3.18,1.26h-.64c-.19-.22-.42-.44-.64-.64l-.64-.64c-.05-.18.05-.44,0-.64l.49-.37c-1.1-4.12-.2-2.15,1.42-2.79v.02Z"/>
  <path class="cls-34" d="M96.92,50.36c-.27-.12-.54-.35-.64-.64.24.12.44.44.64.64Z"/>
  <path class="cls-27" d="M69.59,20.65l-.63-.32.63-.32v.64Z"/>
  <path class="cls-27" d="M34.62,93.98c.2,0,.44-.03.64,0l-.32.62s-.32-.62-.32-.62Z"/>
  <path class="cls-27" d="M127.12,100.94c.41.22.41.42,0,.64v-.64Z"/>
  <path class="cls-27" d="M104.88,32.66c.41.22.41.42,0,.64v-.64Z"/>
  <path class="cls-27" d="M95.01,28.22c.3.3-.59,1.01-.64.32,0-.22.49-.45.64-.32Z"/>
  <path class="cls-27" d="M128.71,65.53c-.3.3-1.01-.59-.32-.64.22,0,.46.49.32.64Z"/>
  <path class="cls-36" d="M93.75,99.68l-.64-.64c.78-.07.59.64.64.64Z"/>
  <path class="cls-20" d="M28.91,57.94c-1.32,1.97-2.15.82-3.18.64.49.05,1.03-.59,1.27-.64.39-.07,1.55-.08,1.91,0Z"/>
  <path class="cls-39" d="M88.66,96.5s-.1.79-.63.64c-.08-.4.1-.96,0-1.26l.64.64-.02-.02Z"/>
  <path class="cls-34" d="M102.01,47.82c1.18.57,1,3.96.57,4.37-.19.17-5.03,1.26-4.39-1.21l3.18-1.26q.17.12,0,0c.42-1.83-2.04-.79-.64-2.54h.64c.22.2.41.44.64.64Z"/>
  <path class="cls-18" d="M102.01,100.3s-1.18-1.23-1.27-1.26c.2.2,1.2,1.23,1.27,1.26Z"/>
  <path class="cls-90" d="M97.56,39.61l.64,1.9c-1.15-.08-1.57-.07-1.89-1.6-.41-1.88.88-.24,1.25-.3h0Z"/>
  <path class="cls-93" d="M44.79,37.07c-.64-.05-.71.79-.64,1.26-.19.55-.39.54-.64,0,0-.62.05-1.28,0-1.9.41.2.64-.08,1.27.64h.02Z"/>
  <path class="cls-135" d="M44.17,38.35c.05.37,1.13,1.18.3,1.28l-1.28-.64c-.46-.44.34-.59.34-.62h.64v-.02Z"/>
  <path class="cls-24" d="M93.75,88.29c.37.18.37.4,0,.64-.24.17-1.18.72-1.27.64-.25-1.18.1-1.63,1.27-1.26v-.02Z"/>
  <path class="cls-65" d="M93.75,88.93v-.64c1.11.35.47.29,0,.64Z"/>
  <path class="cls-39" d="M78.17,83.87c.41.22.41.42,0,.64v-.64Z"/>
  <path class="cls-36" d="M95.65,100.94l.64-.64c-.15,0-.46.62-.64.64Z"/>
  <path class="cls-49" d="M31.45,81.97c.56.18.54.39,0,.64-.54-.03-1.1-.03-1.27-.64.41,0,.88.05,1.27,0Z"/>
  <path class="cls-22" d="M33.36,81.97l-.64.64c-.42,0-.84.02-1.27,0v-.64c.74-.12,1.6-.05,1.27-1.26.14.37.64.96.64,1.26Z"/>
  <path class="cls-49" d="M32.71,82.6l.64-.64c-.02.49-.12.69-.64.64Z"/>
  <path class="cls-22" d="M32.71,80.08c-.1-.13-1.06-.62-1.27-.64l.32-.62.96,1.26h-.02Z"/>
  <path class="cls-173" d="M103.91,54.16c-1.3-.22-3.67.87-3.19-1.26.64-.12,2.23.25,2.52-.03.37-.37-.59-2.07.66-1.86v3.16h.02Z"/>
  <path class="cls-34" d="M98.53,48.48c.64.57-.96,1.61-.95.94l.95-.94Z"/>
  <path class="cls-102" d="M101.38,49.72c.3-.3,1.01.59.32.64-.22,0-.46-.49-.32-.64Z"/>
</svg>