<?xml version="1.0" encoding="UTF-8"?>
<svg id="Livello_1" data-name="Livello 1" xmlns="http://www.w3.org/2000/svg" viewBox="0 0 141.73 141.73">
  <defs>
    <style>
      .cls-1 {
        fill: #c0bcb6;
      }

      .cls-2 {
        fill: #b6a39c;
      }

      .cls-3 {
        fill: #ded5cf;
      }

      .cls-4 {
        fill: #af9e95;
      }

      .cls-5 {
        fill: #977a6b;
      }

      .cls-6 {
        fill: #a87f75;
      }

      .cls-7 {
        fill: #9e8a84;
      }

      .cls-8 {
        fill: #988a7d;
      }

      .cls-9 {
        fill: #cdc2bd;
      }

      .cls-10 {
        fill: #b6a9a1;
      }

      .cls-11 {
        fill: #9f948b;
      }

      .cls-12 {
        fill: #cdcdc9;
      }

      .cls-13 {
        fill: #ccbab3;
      }

      .cls-14 {
        fill: #b7aaa4;
      }

      .cls-15 {
        fill: #dbdcd9;
      }

      .cls-16 {
        fill: #98887d;
      }

      .cls-17 {
        fill: #d7c6c2;
      }

      .cls-18 {
        fill: #a28e86;
      }

      .cls-19 {
        fill: #aa9a8f;
      }

      .cls-20 {
        fill: #9e897d;
      }

      .cls-21 {
        fill: #c5b3ac;
      }

      .cls-22 {
        fill: #9b8d80;
      }

      .cls-23 {
        fill: #bfaca5;
      }

      .cls-24 {
        fill: #af9891;
      }

      .cls-25 {
        fill: #b2a297;
      }

      .cls-26 {
        fill: #fefefe;
      }

      .cls-27 {
        fill: #af8379;
      }

      .cls-28 {
        fill: #b7aea5;
      }

      .cls-29 {
        fill: #92857a;
      }

      .cls-30 {
        fill: #beb0aa;
      }

      .cls-31 {
        fill: #d4d0c9;
      }

      .cls-32 {
        fill: #9d8f86;
      }

      .cls-33 {
        fill: #b6a59f;
      }

      .cls-34 {
        fill: #aca097;
      }

      .cls-35 {
        fill: #a69288;
      }

      .cls-36 {
        fill: #fff;
      }

      .cls-37 {
        fill: #fbfbfb;
      }

      .cls-38 {
        fill: #beb4ac;
      }

      .cls-39 {
        fill: #896a5a;
      }

      .cls-40 {
        fill: #99867a;
      }

      .cls-41 {
        fill: #957667;
      }

      .cls-42 {
        fill: #b4b5ae;
      }

      .cls-43 {
        fill: #e2f2f3;
      }

      .cls-44 {
        fill: #99776c;
      }

      .cls-45 {
        fill: #b1a79d;
      }

      .cls-46 {
        fill: #a0978b;
      }

      .cls-47 {
        fill: #d7ccc7;
      }

      .cls-48 {
        fill: #ae9e95;
      }

      .cls-49 {
        fill: #987c6d;
      }

      .cls-50 {
        fill: #dee4e1;
      }

      .cls-51 {
        fill: #a9837b;
      }

      .cls-52 {
        fill: #9d8178;
      }

      .cls-53 {
        fill: #f9f9f8;
      }

      .cls-54 {
        fill: #cfc3be;
      }

      .cls-55 {
        fill: #a9958e;
      }

      .cls-56 {
        fill: #b2958b;
      }

      .cls-57 {
        fill: #947b6f;
      }

      .cls-58 {
        fill: #9b877c;
      }

      .cls-59 {
        fill: #afa89e;
      }

      .cls-60 {
        fill: #e2dfdd;
      }

      .cls-61 {
        fill: #fbfaf9;
      }

      .cls-62 {
        fill: #a6978e;
      }

      .cls-63 {
        fill: #9b8473;
      }

      .cls-64 {
        fill: #ac9891;
      }

      .cls-65 {
        fill: #947869;
      }

      .cls-66 {
        fill: #cec7c3;
      }

      .cls-67 {
        fill: #9b8d7e;
      }

      .cls-68 {
        fill: #c7beb9;
      }

      .cls-69 {
        fill: #d0c2bd;
      }

      .cls-70 {
        fill: #958178;
      }

      .cls-71 {
        fill: #876a5e;
      }

      .cls-72 {
        fill: #cfc3bd;
      }

      .cls-73 {
        fill: #917768;
      }

      .cls-74 {
        fill: #d0c6c1;
      }

      .cls-75 {
        fill: #ad8f87;
      }

      .cls-76 {
        fill: #ac9387;
      }

      .cls-77 {
        fill: #c1b2aa;
      }

      .cls-78 {
        fill: #b7a79f;
      }

      .cls-79 {
        fill: #b6ada5;
      }

      .cls-80 {
        fill: #ab827a;
      }

      .cls-81 {
        fill: #cec8c4;
      }

      .cls-82 {
        fill: #d5cdc8;
      }

      .cls-83 {
        fill: #b29f97;
      }

      .cls-84 {
        fill: #947b6b;
      }

      .cls-85 {
        fill: #c1b7b1;
      }

      .cls-86 {
        fill: #d2cbc6;
      }

      .cls-87 {
        fill: #967c6e;
      }

      .cls-88 {
        fill: #9f6e64;
      }

      .cls-89 {
        fill: #d9d5d1;
      }

      .cls-90 {
        fill: #f2ebe9;
      }

      .cls-91 {
        fill: #c3bbb4;
      }

      .cls-92 {
        fill: #a19487;
      }

      .cls-93 {
        fill: #8d766a;
      }

      .cls-94 {
        fill: #c0b8b2;
      }

      .cls-95 {
        fill: #b2aaa3;
      }

      .cls-96 {
        fill: #c6bab4;
      }

      .cls-97 {
        fill: #bcb8b1;
      }

      .cls-98 {
        fill: #bba8a0;
      }

      .cls-99 {
        fill: #c6bab3;
      }

      .cls-100 {
        fill: #cec2bc;
      }

      .cls-101 {
        fill: #a7827a;
      }

      .cls-102 {
        fill: #a49d91;
      }

      .cls-103 {
        fill: #eae7e4;
      }

      .cls-104 {
        fill: #8b6c5c;
      }

      .cls-105 {
        fill: #95766c;
      }

      .cls-106 {
        fill: #d8bfbc;
      }

      .cls-107 {
        fill: #ccc4be;
      }

      .cls-108 {
        fill: #e2b9b3;
      }

      .cls-109 {
        fill: #816d61;
      }

      .cls-110 {
        fill: #b1887a;
      }

      .cls-111 {
        fill: #967f79;
      }

      .cls-112 {
        fill: #aca499;
      }

      .cls-113 {
        fill: #a28b80;
      }

      .cls-114 {
        fill: #bfb7b1;
      }

      .cls-115 {
        fill: #a39d92;
      }

      .cls-116 {
        fill: #cec9c4;
      }

      .cls-117 {
        fill: #a28b84;
      }

      .cls-118 {
        fill: #f6f6f5;
      }

      .cls-119 {
        fill: #b4aba3;
      }

      .cls-120 {
        fill: #8f796d;
      }

      .cls-121 {
        fill: #b5a79f;
      }

      .cls-122 {
        fill: #b4aba1;
      }

      .cls-123 {
        fill: #957c72;
      }

      .cls-124 {
        fill: #b7b3aa;
      }

      .cls-125 {
        fill: #b3a89e;
      }

      .cls-126 {
        fill: #b4a69e;
      }

      .cls-127 {
        fill: #99847b;
      }

      .cls-128 {
        fill: #b09d94;
      }

      .cls-129 {
        fill: #a1948a;
      }

      .cls-130 {
        fill: #b8a29b;
      }

      .cls-131 {
        fill: #b19991;
      }

      .cls-132 {
        fill: #ac9d96;
      }

      .cls-133 {
        fill: #8a6a5a;
      }

      .cls-134 {
        fill: #c6b9b1;
      }

      .cls-135 {
        fill: #d3d5d0;
      }

      .cls-136 {
        fill: #d8c2be;
      }

      .cls-137 {
        fill: #dad7d3;
      }

      .cls-138 {
        fill: #cbbcb5;
      }

      .cls-139 {
        fill: #d2c8c3;
      }

      .cls-140 {
        fill: #9c7f73;
      }

      .cls-141 {
        fill: #926f66;
      }

      .cls-142 {
        fill: #ded9d6;
      }

      .cls-143 {
        fill: #ba9085;
      }

      .cls-144 {
        fill: #b2a295;
      }

      .cls-145 {
        fill: #b8afa6;
      }

      .cls-146 {
        fill: #ac988e;
      }

      .cls-147 {
        fill: #cec2bd;
      }
    </style>
  </defs>
  <path class="cls-26" d="M55.27,73.21c-.26-.46-.06-1.04.58-1.73l.58-.58c.81-.72,1.57-1.1,2.31-1.15-1.07.95-2.23,2.32-3.45,3.45h-.02Z"/>
  <path class="cls-26" d="M67.36,63.43c3.1-1.64.17,2.84-1.91,3-1.18,1.3-2.26,2.03-3.26,2.19.26-.35,1.83-2.2,1.73-2.29-1.13-.11-1.83,1.01-2.87,1.73-.32-.58.06-1.36,1.15-2.31-.41-1.04.29-1.44,2.14-1.18l3.04-1.12-.02-.02Z"/>
  <path class="cls-26" d="M58.16,50.21c.34-.87,1.15-.03,1.73.58.18-.37.38-.35.58,0l1.09-.69c1.86,2.98,2.46,3.59,1.79,1.83.53-.23.52-.67.58-1.15.87-.03,1.25.73,1.15,2.31.99.72,1.96,1.68,2.87,2.87,3.01-.7.95,3.88-.58,1.15-.81-.47-1.39-.67-1.73-.58.72.86.4,1.16-.58.58l-1.15-.58c-.17.49-.35.49-.58,0-.92.14-.92.7,0,1.73.44,1.18.06,1.94-1.15,2.31.18.9.17,1.93,0,2.87.57.43.57,1.19,0,2.31-1.7,1.93-3.64,3.76-5.75,5.18l-.58.58c-1.21,1.64-2.55,3.16-4.02,4.6v.58c-.29.09-.78-.05-1.15,0-.72-.08-1.01-.53-.58-1.15h-.58c.34-.89-.43-3.16-.58-1.15.63.32.44,1.09-.58,2.31-.7-.47-.29-1.64-2.31-2.31-.46-.06-.92-.24-1.01-.64,1.99-2.11.92-2.34-1.54-2.22-1.04.05-2.02-.05-1.47-1.16-.52-.14-.5-.32,0-.58,1.48-1.73.4-2.41-3.26-2.05l-.2-.83c-1.39.76-2.89-.23-2.87-1.73l2.29-1.16c-.18-.76-2.84-1.88-1.73-2.87.83-.34,1.65.28,1.15,1.15.83.15,1.21-.03,1.15-.58-.81.43-1.48-.34-1.15-1.15.35-.15.7-.38,1.15-.58.23.28.43.28.58,0,2.03-.99-.26-2.15-.58-4.02,1.01-.32,1.07.55,1.15.57.43.05.63.23.58.58.7.03,1.67-.15,2.87-.58.89.14,1.48.53,1.73.58.67.18,1.01.47,1.15,1.15,1.18-.57,2.69.05,3.45,1.15.7-.31,1.65-.12,2.87.58v-.58c-.86.63-2.64-.4-3.45-1.15-.5-.18-.5-.37,0-.58-.6-.93-3.15-2.45-2.87-3.16.11-.38.38-.23.57-.29.89.55,1.65.55,2.31,0,.15-.03.4-.55.58-.58.29.41.67.79,1.15,1.15.14-.49.34-.47.58,0l.4-1.1c-1.24-2.25-.08-2.67,3.48-1.3.21-2.12,1.01-5.13,3.03-2.2h.03Z"/>
  <path class="cls-26" d="M106.46,59.41l1.73-.58s.76.23.57.81c-.29.84-2.23.72-1.71,2.08-.41.21-2.86.21-2.77.09.67-.93,4.29.57,5.06,1.64.41.26.98.06,1.73-.58,1.8,1.19-1.94,1.94-2.31,3.45-.17.15.02.35.58.58.08.12.41.26.58.58,3.5,3.45-2.08,3.01-4.6,2.31-.14.38-.32.37-.58,0-.73-.29-.9-.11-.58.58,2.29.55.53,3.51-1.15,1.73-.61.37-1.15.43-1.73,0-.96-1.51-.81-.64.5,2.61-2.19-.26-3.51.21-3.94,1.42.53.9-.55,1.42-1.15.58-2.74-.52-6.13-4.31-6.91-6.91-1.15-.87-2.9-2.32-3.44-3.62-.02-.05.58.61,0,.75-.58-.2-.96-.57-1.15-1.15-.38-.41-.58-.99-.58-1.73-.98-.72.47-1.21,1.15-.58.69-.41,1.27-.41,1.73,0,.32-.14.31-.34,0-.58-3.32-.99-2.6-4.91,1.16-2.52,1.1.38,1.86.26,2.29-.35,1.13.09,2.31,0,3.45,0,.28.69.84.69,1.73,0,.18-.32.2-.41.58-.58,1.04.66,2.87.29,5.53-1.12,1.31-.2,3.87-.23,4.25,1.12l-.03-.03Z"/>
  <path class="cls-26" d="M80.57,93.92v-.58c.41-.75.79-.93,1.15-.58l-1.15,1.15v.02Z"/>
  <path class="cls-26" d="M68.5,89.32c.21.03.49-.06.58,0,.57.21.95.6,1.15,1.15.5.15.49.34,0,.58.84,0,1.22.57,1.15,1.73.92-1.71,1.88-2.67,2.87-2.87.17-.5.37-.5.58,0,1.42,2.11,2.58,2.51,3.45,1.15.55-.7,1.5-.89,2.31-.58.63-.6,2.17.12,1.73,1.15-.43.57-1.01,1.15-1.73,1.73l-.58.58c-.86,1.27-1.86,2.67-2.63,3.99-.64,1.1-.64,2.31-1.41,3.5-1.73-.61-.72-3.76.58-4.6q-.23-.45,0,0c-.05,1.79-.84,2.19-1.73.58-.5-.17-.49-.35,0-.58-.2-.47-.38-.47-.58,0-1.15,2.46-.98-.96-.93-.78.2.79,0,.78-.79.21-.4.49-.58,1.07-.58,1.73-1.7-1.5-1.99-3.93-4.02-5.18,1.18.17-.61-1.6-.05-.58.09.15.08.37.05.58-.5-.31-3.29-.96-3.42-1.18-.47-.72.15-2.03,1.13-2.28.87.49,1.83.49,2.87,0v-.02Z"/>
  <path class="cls-57" d="M77.7,35.83c.02.18,0,.38,0,.58l-.58,2.87c.5.17.84.72.58,1.15-.86,1.82-1.7,3.88-2.55,6.2l-1.48.7c1.07.2.83.52,0,1.15-.18.5-.37.5-.58,0l-.58.58c-.86,1.54-1.47,1.01-1.73-.58,1.1.52,1.1,1.09,0,1.73-3.22,1.07-1.77-3.79,0-1.73-.58-.64-.43-2.02,0-2.87.03-.18-.03-.38,0-.58,1.65-2.09,3.12-4.98,3.19-7.4.76-.02,1.42-.61,1.99-1.8-.41-1.21-.37-3.09,1.15-1.73l.58,1.73h.02Z"/>
  <path class="cls-37" d="M70.81,48.48c-.38.32-2.28-.72,0,1.73.84.28.83,1.42,0,1.73.41,1.24.41,2.2,0,2.87-1.5,1.7-2.45,1.88-2.87.58-1.13-.2-2.41-1.74-2.31-2.87-.37-.18-.37-.38,0-.58-1.86-.78-1.27-3.93.58-2.31.83-.63,1.59-1.41,2.31-2.31.23,0,.96.76,1.15.58.17-.17.2-2.02,1.16-2.31-.03.18.87,2.15,0,2.87l-.02.02Z"/>
  <path class="cls-100" d="M85.17,55.37c2.48-3.36,5.59,1.94-.15,2.29-.09,0,1.6-.58,1.3.58,1.16.17,1.74.55,1.73,1.15l.58.58c.6.14,1.59-.06,2.31,0,1.83,2.48-4.02-.24-4.6.58-.24.95.76.34,1.04.69.24.31-.37,1.18.11,1.6.4.17.38.37,0,.58-.08,0-.44.53-.87.5-.46-.02-.76-.52-.86-.5.14-.28-.26-.46-1.15-.58-.5-.17-.49-.35,0-.58l-.58-.58c-.5-.18-.5-.38,0-.58,1.33-.11.95-.5-1.15-1.15-.37-.08-.61-.14-.58-.58-.5-.17-.49-.35,0-.58-.12-1.48,1.41-3.13,2.87-3.45v.03Z"/>
  <path class="cls-72" d="M64.48,13.96c2.57.55,3.71,1.51,3.45,2.87.28,1.19-.14,1.67-1.3,1.73-1.27-.7-4.42-1.02-5.03,0,1.68.2,3.03.78,4.02,1.73.38,1.71-3.74,1.62-4.6.58-1.47-.02-1.76-.38-.87-1.1l-1.42-1.21c-.09-.31.06-.79,0-1.15l.58-.58c.09-.09.4.08.58,0l.58-.58c.76-.17,2.34.23,2.87,0,.28-.23.28-.41,0-.58.03-.18,0-.38,0-.58v-.58c.46-.4.31-.49,1.15-.58l-.02.03Z"/>
  <path class="cls-124" d="M75.41,21.45c.5.17.49.35,0,.58l-.09.72c1.41-.17,2.2.17,2.38,1.01v.58c-.08.73-.44.99-1.15,1.15-2.64.26-5.88,0-8.62,0-.58-.4-1.13-.43-1.73,0-.18,0-.4.03-.58,0-2.95-.58-1.77-2.26,0-3.45.37-2.23,3.26-1.1,3.77.75,1.79.41,3.59.93,5.43,1.56.38.26.73.15,1.15,0l-.58-.58c-.81.46-2.46.53-2.31-.58-.57-.38-.76-.76-.58-1.15-.03-1.8.93-2,2.87-.58h.03Z"/>
  <path class="cls-26" d="M75.97,35.83c-1.16,2.92-2.05,4.89-3.56,7.69-.43.81-.23,1.82-1.62,1.51.34-1.97,2.12-4.42,2.87-6.33-2.15-.93-4.13.95-5.18,1.15-.92.73-.79,1.77,0,.58l.29,2.31c-4.58-.96-1.12-5.82,2.87-5.81,2.43,0,2.8,1.82,3.74-1.1.17-.5.35-.49.58,0Z"/>
  <path class="cls-26" d="M69.08,13.39c2.29-.2,11.87-.81,7.47,2.87-.46,1.59-4.19,1.25-3.45-1.15-2.11-.09-4.42-.24-6.92-.49v-.66c.57-.89,2.2-1.83,2.89-.58h.02Z"/>
  <path class="cls-36" d="M123.01,62.75c-.15.24-1.28.28-1.54,1.04-.61,1.77,2.06,4.52-1.77,4.23l.83-7.49c1.62-1.73,3.44.66,2.49,2.22Z"/>
  <path class="cls-10" d="M69.08,78.97l.99-.38c.38,0,3.5,6.74,1.31,6.13.5.17.49.35,0,.58l-.64.29c.23-1.83-.41,1.04.08,2.02.4.08.37.29,0,.58l-.58,2.31c-1.51.5-1.01-1.04-1.15-1.15-.03-2.11.05-4.22,0-6.33-.87-1.42-1.27-2.58-1.15-3.45.17-.93.23-1.12,1.15-.58l-.02-.02Z"/>
  <path class="cls-113" d="M73.1,15.12c.7,3.09,1.86,1.25,3.45,1.15,1.1-.08,2.35-.05,3.45,0h.58c4.42,3.07-3.47,3.73-5.75,2.87-.44,1.57-2.92-1.64-3.09-2.26-.23-.86-.09-1.21.79-1.77.12-.4.32-.37.58,0l-.03.02Z"/>
  <path class="cls-68" d="M57.57,48.48c.2.08.38.49.58.58.58.31.86,1.04,0,1.15-3.39-1.21-1.53,1.56-2.84,2.63-.35.28-2.63-.69-3.48-.34l.57,2.29c-.37.05-.79-.06-1.15,0-.26-.47-.44-1.04-.58-1.73-.37,0-.57-.2-.58-.58,0-.2-.05-.43,0-.58l.58-1.15c1.16-.31,2.37.14,3.45.58.69.43.87.43.58,0v-.58c0-.18-.03-.4,0-.58l1.15-1.73c.15-.12.26-.53.58-.58l1.15.58v.03Z"/>
  <path class="cls-36" d="M101.86,40.43c.24-.41.46-.84.86-1.15,2.77.84-.5,4.13-1.6,3.93-.4-.08-.89-.76-1.44-.92-.73-.2-2.34-.08-2.43-.15-.32-.31-.61-2.29,1.15-2.29l1.73.58c.35-.06.78.05,1.15,0,.15,1.12.34,1.12.58,0h.02Z"/>
  <path class="cls-139" d="M42.05,69.19c.23.18.23.38,0,.58.08.18-.09.47,0,.58q-.11.15,0,0c1.21,1.45,4.8-.35,5.18,0l-1.15,4.02c-.31-.11-.84.11-1.15,0-.83-.21-1.21-.6-1.15-1.15.11-.24.37-.43.58-.58.15-.49.35-.49.58,0,.26.67.47-.64,0-1.15-.14.66-.52.95-1.15.58-.5.06-1.19.03-1.73,0l-1.15-.58c-.18-.08-.46.08-.58,0-1.42-.95.53-3.56,1.73-2.31h-.03Z"/>
  <path class="cls-26" d="M58.72,18.56c1.34.34,1.97.96,2.31,2.31-2.12.99,2.83.67,4.26.41l.34.73,1.73,1.15-3.45.58,1.73,1.73c-.12-.02-.55.46-.86.38-2.15-.53-.73-2.6-.86-2.69-.5-.37-3.38.7-4.66-.81-1.73-2.06.7-2.14.63-2.35-.37-.41-.99-.93-1.15-1.44h-.02Z"/>
  <path class="cls-107" d="M88.06,48.48c.2.05.4.52.58.58.23.28.41.28.58,0,.35,0,.93.08,1.15,0,.83-.7,1.16.49.58,1.15.03,1.96-2.08,2.49-3.71,1.33-1.05,2.03-2.49,3.32-4.32,3.85-.12.5-.31.49-.58,0-.5-.17-.49-.35,0-.58.21-1.73,2.43-4.48,4.02-5.75-.49-.18-.49-.38,0-.58.26-.31.84-.31,1.73,0h-.02Z"/>
  <path class="cls-113" d="M80.01,19.72c.38,0,.78-.05,1.15,0,.72.12,1.02.41,1.15,1.15,0,.2.05.46,0,.58-1.57.96-5.94,2.23-6.91.58v-.58c-2.28-.2-3.44-2.11-.58-1.73,1.91-.47,3.64-.47,5.18,0h.02Z"/>
  <path class="cls-137" d="M81.16,62.28c.24-1.31,1.99-.64,1.73.58,1.97-.02,2.35.55,1.15,1.73-.11.64.09,1.21.58,1.73.06.17-.06.4,0,.58.23.69.05.96-.58.58-.89.29-1.83.29-2.87,0-1.3.11-1.77-2.05,0-2.31-1.12-.4-1.5-1.16-1.15-2.31-1.01-1.44-.28-1.19,1.15-.58Z"/>
  <path class="cls-8" d="M75.97,119.8c.34,3.35.55,6.77.55,10.13,0,.08-.24.14-.55.21-.57.41-1.12.17-1.15-.58.06-.35.55-.84.58-1.15-.55-1.9-.55-4,0-6.33-.52-.11-.49-.31,0-.58-.52-.11-.49-.31,0-.58-.44-1.34-.47-2.7,0-4.02-.46-1.86-.44-3.88,0-5.75.17-.5.35-.49.58,0-.03,2.87.03,5.76,0,8.63h-.02Z"/>
  <path class="cls-96" d="M105.88,57.68l.58.58c.18-.49.37-.49.58,0,.23.18.23.37,0,.58.69.46.5.66-.58.58-4.39-1.21-4.39-.24-8.04.89-1.12.34-1.99.84-1.74-.89.6-.26,1.99-.26,2.87-.58l.58-.58c.34-.08.81.08,1.15,0l.58-.58c.9-.17,3.71.23,4.02,0h0Z"/>
  <path class="cls-86" d="M78.85,46.17c-.08.17.06.41,0,.58.06.6.83.78,2.31.58.09.14-.09.47,0,.58l.58.58c.43.05.79-.46,1.15-.58h.58c1.28-.14,1.41,1.8,0,1.73-1.38,2.34-2.19,1.51-3.73-.11l-1.44.11c-.96-.06-2.29-.61-1.73-1.73-.76-1.54-.64-2.08,1.15-1.73.47-1.04.86-1.22,1.15-.58.26.18.26.38,0,.58l-.02-.02Z"/>
  <path class="cls-125" d="M73.1,99.68c.96-.21,1.51.34,1.65,1.68l1.22.05c-.05.57.03,1.15,0,1.73-.41.58-.43,1.15,0,1.73-.05,2.11.02,4.22,0,6.33h-.58c-.2-.64-.38-1.41-.58-2.31-.4-.12-.38-.32,0-.58v-2.31c-.38-.58-.38-1.34,0-2.31-.37.31-.75.31-1.15,0-.28.31-.47.11-.58-.58.03-1.05-.17-2.02-.58-2.87-.03-.18.05-.4,0-.58.17-.49.35-.47.58,0l.02.03Z"/>
  <path class="cls-82" d="M69.08,62.28c1.42-.79,1.8-.32,1.15,1.15.02,1.15-1.25,2.14-2.31,2.31,1.15.43.55,1.18-.58,1.15-1.76.89-3.09,2.54-4.28,4.52l-1.47.08c-.38.64-.7.63-1.15,0v-.58l1.73-1.73c.09-.12-.09-.46,0-.58l6.04-4.6c.92-.7-.46-.63-.86-.57-1.27-1.38.64-2.77,1.73-1.15h0Z"/>
  <path class="cls-111" d="M43.19,56.53l-1.71.86,1.71,3.74-2.64.53c-2.14-.23.32-.5.35-.89.09-.81-.75-2.54-.58-3.67-.23-.28-.03-.47.58-.58.75.08,1.59-.11,2.31,0h-.02Z"/>
  <path class="cls-6" d="M66.21,13.96c.09,0,.64.58,1.39.6,2.78.08,5.59-.11,8.39-.02.46,2.03-1.6.6-2.87.57h-.58c-1.24,1.04-2.77,1.62-4.6,1.73-.32-3.22-3.81-.41-3.45-2.87.53-.05,1.18-.03,1.73,0Z"/>
  <path class="cls-119" d="M96.68,51.93c.29.23.49.61.58,1.15l1.15.58c.46.43.72.67,1.15,1.15l.58,1.15c.37.17.37.37,0,.58-.26.11-.81-.09-1.15,0-1.77,1.24-3.82,1.36-1.73-.58l-.06-.76c-2.35.75-3.94-2.09-1.67-3.27-.24-1.3-.05-2.06.58-2.31.2.03.46-.06.58,0,.44.66.43,1.62,0,2.31l-.02.02Z"/>
  <path class="cls-91" d="M96.68,76.66c.5.17.49.35,0,.58-.17.29-.37.29-.58,0-.2-.05-.43.06-.58,0-1.76-1.05-3.19-2.55-4.6-4.02-.09-.11.09-.46,0-.58l-1.73-1.73c-.08-.14.05-.4,0-.58l.58-.58c2.22,2.69,3.77,5.06,6.91,6.91h0Z"/>
  <path class="cls-45" d="M80.01,80.7c.58,2.31-.41,6.62,0,9.2-.08.73-.96.75-1.15,0-1.57-.55-1.71-5.33,0-5.75.4-.58.43-1.15,0-1.73-.5-.17-.49-.35,0-.58.28-.23.28-.41,0-.58-.5-.17-.49-.35,0-.58-.23-.93.15-.93,1.15,0v.02Z"/>
  <path class="cls-9" d="M48.96,54.23c-.55,2.51,2.84,2.78,4.37,3.39.79.32,1.7.24.52,1.22-3.24-.98-5.47-1.47-7.18-4.62.55-.18,1.6.12,2.31,0h-.02Z"/>
  <path class="cls-36" d="M111.64,37.54c-.21-.21-.08-4.29,2-3.44,2.63,1.07-.49,4.94-2,3.44Z"/>
  <path class="cls-132" d="M74.25,29.5c.58.44.72.67,1.15,1.15l1.15,1.15c.08.14-.08.4,0,.58l.58,1.15c.05.18-.03.38,0,.58-.64,0-.95,1.21-1.15,1.73h-.58c-.08-.53.12-1.25,0-1.73l-.58-1.73c-.06-.18.06-.41,0-.58l-1.73-1.73c-1.16-.57-1.3-.73,0-1.15.17.08.44-.08.58,0l.58.58h0Z"/>
  <path class="cls-83" d="M101.28,72.06c.34.09.58.17.58.58.31.23.49.63.58,1.15,0,.34.08.96,0,1.15-.64.4-1.42.6-2.31.58-.18.03-.38-.03-.58,0-.5-.31-.89-.31-1.15,0-.05.03.02.38,0,.58-.17.5-.35.49-.58,0l-1.15-2.29,4.6.57-1.15-3.15c.37-.87,1.01.79,1.16.86l-.02-.02Z"/>
  <path class="cls-26" d="M77.7,23.74c-.2.03-3.87-.44-4.02-.58-1.18-1.01.96-1.1,1.73-1.15,2.29-.14,4.81.49,6.91-.58-.55,1.45-2.11,1.09-3.5,1.42-.6.14-1.04.87-1.1.89h-.02Z"/>
  <path class="cls-138" d="M110.48,67.46l1.15,1.15c.11.09.49-.09.58,0,.41.84.37,1.45-.58,1.73-.57.03-1.22-.09-1.73,0l-1.15.58c-.18.03-.4-.03-.58,0-1.04-.18-2-.37-2.87-.58-.5-.17-.49-.35,0-.58,1.67-.17,3.48.12,5.18,0-.26-.4-.52-2.19-.57-2.29h.58-.02Z"/>
  <path class="cls-78" d="M86.9,76.66c.99-.49,2.34-.31,4.02.58.28-.26.66-.26,1.15,0,.18.15.43.4.58.58.31.17.31.37,0,.58-.28.75-2.14.75-2.87.58-1.56-.47-6.27-2.63-2.87-2.31v-.02Z"/>
  <path class="cls-79" d="M94.39,57.68c1.48.63-.57,1.53-1.73,1.73-1.25.15-2.74-.11-4.02,0-.18.24-.37.23-.58,0-.5-.18-1.18-.87-1.73-1.15.69-1.59,5.36-1.19,6.33,0l.58-.58c.06-1.57.66-1.48,1.15,0h0Z"/>
  <path class="cls-139" d="M48.96,74.35l-2.29-1.15c1.67.83,2.38-.67,4.02-.58.21,1.25-.52,1.97-1.15,2.87.09.29-.09.49-.58.58.38.17.37.37,0,.58-.2-.05-.47.08-.58,0l.58-2.31q.11-.15,0,0Z"/>
  <path class="cls-26" d="M63.32,75.52c-.34.95-.53,1.91-.58,2.87-.84-2.03-1.45-.29-3.45,0-1.53-.18-1.47-.72,0-1.15-.69-1.97,4.54-4.95,4.02-1.73h.02Z"/>
  <path class="cls-142" d="M67.36,63.43c-2.25,1.57-3.53,1.45-5.18,2.31-.11-.41-1.3-.47-1.15-.86l1.15-1.44c2-.84,3.73-.84,5.18,0v-.02Z"/>
  <path class="cls-142" d="M61.03,68.03c-.14.09-.46-.09-.58,0l-.58.58c-.32.28-.7.75-1.15,1.15-.49.7-1.93.86-2.31,1.15,2.03-1.82,2.92-3.73,5.75-5.18.18.75-.76,1.68-1.15,2.31h.02Z"/>
  <path class="cls-142" d="M55.85,71.48c.17-.2.38-.41.58-.58-.2.17-.37.4-.58.58Z"/>
  <path class="cls-142" d="M55.27,73.21c-.37.35-.66.73-1.15,1.15l-1.73,1.73h-.58l-1.15-1.15c2-.29,3.68-2.09,5.18-3.45-.18.23-.2,1.33-.58,1.73Z"/>
  <path class="cls-36" d="M115.66,59.41q-.11.15,0,0c3.15,2.26-.49,3.21-1.47,1.76s-.47-3.16,1.47-1.76Z"/>
  <path class="cls-36" d="M121.99,17.99c1.15,2.08-2.14,3.93-2.87,2-.69-1.82,1.65-1.97,2.87-2Z"/>
  <path class="cls-36" d="M113.94,110.6c.34-.35,3.22,0,2.87,1.42-.76,3.06-4.32.11-2.87-1.42Z"/>
  <path class="cls-26" d="M82.3,16.85c0,.52.11,1.3,0,1.73l-.58.58c-.38.18-1.42-.26-1.73.58-1.76-.03-3.85.76-5.18,0-.5-.11-.49-.31,0-.58l6.89-.58-1.15-2.31c.69-1.41,1.36-.89,1.73.58h.02Z"/>
  <path class="cls-22" d="M74.25,121.53c.57,1.34.57,3.07,0,5.18h-.58v-2.31c-.35-2.83-.53-5.88,0-8.63.17-.5.35-.49.58,0,.38,1.86.5,3.93,0,5.75v.02Z"/>
  <path class="cls-26" d="M85.17,78.97c-.76,2.06-3.47-1.85-4.6-.58-.95-1.79-.37-2.37,1.73-1.73.67-1.44,1.45-1.82,2.31-1.15.23.96.43,2.12.58,3.45h-.02Z"/>
  <path class="cls-69" d="M57.57,76.08c.81.2,1.39.58,1.73,1.15v1.15c-.18.03-.38-.02-.58,0-1.07.46-2.22.46-3.45,0-.18-.08-.41-.4-.58-.58-.34-.26-.14-.44.58-.58.18-.11.35-.43.58-.58l1.73-1.15c.31.17.31.37,0,.58v.02Z"/>
  <path class="cls-147" d="M109.34,63.43c-1.76-.28-3.67-1.96-5.47-1.16l1.73-2.28c1.39,1.54-.66,1.38,1.44,1.71.37.06.84-.09,1.15,0l.58.58c.18.06.43-.08.58,0v.58c.5.11.49.31,0,.58v-.02Z"/>
  <path class="cls-62" d="M82.3,76.66c.37,2.6-1.44-.35-1.73,0,.03.57-.08,1.16,0,1.73.02.18,0,.38,0,.58.29.6.49,1.19,0,1.73-.11.05-.38,0-.58,0-.81-.17-1.62-.95-1.15-1.73-.29-3.33,1.68-6.88,3.45-2.31h0Z"/>
  <path class="cls-42" d="M105.32,70.33c.84.15,2.38-.44,2.87.58-.69.12-1.57-.08-2.31,0-.26.23-.26.41,0,.58-.03.17-.02.41,0,.58.49.53-.08.92-1.73,1.15h-1.73c-.31-.17-.31-.37,0-.58-.4-.24-.2-.43.58-.58.41-.14,1.56.17,1.73,0,.28-.29-.57-1.41-.58-1.73.4-.4.79-.43,1.15,0h.02Z"/>
  <path class="cls-26" d="M78.85,133.04c-.46-.5-1.22-1.27-1.73-1.73-.38-.35-.55-.69-1.15-1.15.47-1.51-.02-8.08,0-10.36,1.6,4.72-1.05,9.18,2.87,13.23Z"/>
  <path class="cls-92" d="M73.68,103.7c.14,1.77.32,3.7.58,5.75.41.55.43,1.15,0,1.73-.12,1.24-.87,1.24-1.15,0-.03-1.91.09-3.85,0-5.75v-.58c-.05-.57.06-1.16,0-1.73,0,.05.53.58.58.58h-.02Z"/>
  <path class="cls-25" d="M72.52,96.22q.21.38,0,0c.14,0,.64-.76,1.15-.58v1.74l.58-.58c.17-.5.35-.49.58,0v.58c.4,1.31-.47,1.82-1.73,1.73-.24.4-.63.2-1.15-.58-.05-.18.06-.41,0-.58-.38-1.16-1.07-1.77-1.15-2.87.24-.29,1.22,1.16,1.73,1.15h-.02Z"/>
  <path class="cls-36" d="M107.61,53.65q-.11.15,0,0c.4.26.89.38,1.15.86-1.8,2.45-3.13,1.45-2.86-1.44.99-.29,1.16.21,1.73.57l-.02.02Z"/>
  <path class="cls-7" d="M62.17,49.63l1.15,1.73c.06.15-.06.4,0,.58.15.46,1.19,1.31.29,1.73-1.31-1.27-1.31-2.32-3.16-2.87-.38-.17-.37-.37,0-.58,0-.76.93-1.74,1.73-1.15.09.12-.09.46,0,.58v-.02Z"/>
  <path class="cls-26" d="M97.26,55.95c-.17,1.71.46.89,1.73.58-1.79,1.44-4.05,2.58-6.33,2.87,1.68-.21,1.62-1.64,1.73-1.73-.72-1.77,1.39-2.9,2.87-1.73h0Z"/>
  <path class="cls-36" d="M66.21,13.96c-.93-.87,3.62-4.51,2.87-.58-.67.06-1.82.96-2.87.58Z"/>
  <path class="cls-26" d="M73.68,115.78c.26,2.64,0,5.88,0,8.63-1.07-2.57-.57-6.28-.58-9.2.76-.84,1.01-.49.58.58v-.02Z"/>
  <path class="cls-134" d="M89.77,69.75c-.15.35-.35.34-.58,0-1.09-.44-2.05-1.21-2.87-2.31-.08-.14.06-.4,0-.58-1.28-3.64,2.54,1.77,3.45,2.87v.02Z"/>
  <path class="cls-34" d="M86.34,69.19c.08.14-.08.41,0,.58l.58.58c.08.15-.08.41,0,.58l1.73,2.31c.06.17-.05.4,0,.58v.58c-.17.29-.37.29-.58,0-2.05.53-4.42-4.4-2.87-5.75.32-.2.7,0,1.15.58v-.05Z"/>
  <path class="cls-85" d="M65.05,48.48c.15-.29.34-.28.58,0,.49.09.67.28.58.58.5.2.5.38,0,.58-.31.38-1.85-1.09-.58,2.31l-.58,1.15c-.44-.75-.72-1.54-1.15-2.31.03-.18,0-.38,0-.58-.32-.55-.5-1.3,0-1.73.37-.24.83-.28,1.15,0Z"/>
  <path class="cls-26" d="M66.21,77.24c.7.15,1.24.96,1.15,1.73-1.65-.66-4.03,2.72-4.6,1.15.34-.52.53-1.3.58-2.31.96-.98,1.93-1.18,2.87-.58v.02Z"/>
  <path class="cls-36" d="M53.54,104.28c.93.93-1.38,3.22-2.29,2.29-1.19-1.21,1.1-3.48,2.29-2.29Z"/>
  <path class="cls-114" d="M78.85,42.15l.58.58c.05.15-.02.38,0,.58-.26.23-.26.41,0,.58v.58l-.58,1.15c-.31.23-.93.35-1.15.58-.99-1.04-1.5-3.3,0-4.02,0-.63.2-1.01.58-1.15.17-.34.37-.34.58,0,.11.24-.08.79,0,1.15l-.02-.03Z"/>
  <path class="cls-47" d="M48.96,57.68c.08.12-.08.4,0,.58.78.29.98.67.58,1.15-1.31-.41-2.09-.43-3.45-1.15-.47-.55-.78-.96,0-1.15.95.21,1.88.57,2.87.58v-.02Z"/>
  <path class="cls-77" d="M108.76,66.32c.14.2.44.35.58.58l-3.45-.86-.57-.86c.81.38,2.75-.69,2.86-.58.06.06.08.98.6,1.73l-.02-.02Z"/>
  <path class="cls-26" d="M70.81,11.67c.09.69-.99.73-1.15.57-.23-.24.02-5.76,0-6.89,1.09,1.09.5,3.36.55,4.94.03.92.58,1.31.6,1.39Z"/>
  <path class="cls-30" d="M85.17,47.9c-.2.35-.38.35-.58,0v-.58c.26.06.47.32.58.58Z"/>
  <path class="cls-30" d="M84.61,47.9c1.02.24,1.42.41.58,1.15.57.66-.76,2.52-1.73,2.31-.18.23-.37.23-.58,0-1.42-.38-1.22-.96.58-1.73.14-.43.95-.72,0-1.73v-.58c.15-.05.38.03.58,0,.34.08.57.21.58.58h-.02Z"/>
  <path class="cls-82" d="M61.03,72.64c1.22,1.64-1.93,4.43-3.45,3.45v-.58l1.73-2.31c.09-.12-.09-.46,0-.58.78-.81,2.14-1.39,1.73,0v.02Z"/>
  <path class="cls-33" d="M35.72,65.15c1.33.69,2.17.23,1.15,1.73.55.08,1.24-.11,1.73,0,.76.81.44,1.1-.58.58-.18.5-.38.5-.58,0-.34.18-.72.18-1.15,0-.98.14-2.09-.83-2.31-1.73.86-.79,1.36-.4,1.73-.58h.02Z"/>
  <path class="cls-124" d="M93.81,50.21h.58c.18-.26.37-.24.58,0,.84-.57.7.35.58,1.15-.15,1.53-.72,1.47-1.15,0l-1.15.58c-1.05,2.61-3.79-.75-1.15-1.73.14-.52.34-.5.58,0-.09-.58.29-.58,1.15,0h-.03Z"/>
  <path class="cls-129" d="M63.32,77.81c.17,1.38,1.48,2.61-.58,2.31-.14-.37.08-1.19,0-1.73-.17-1.19-.9-2.49.58-2.87,1.76.18,1.6,1.91,0,2.31v-.02Z"/>
  <path class="cls-36" d="M80.01,16.27c1.16-2.86,2.29-2.74,2.31.58-.53-.31-1.12-.52-1.73-.58-.18-.02-.38,0-.58,0h0Z"/>
  <path class="cls-26" d="M33.99,65.73c1.31-.34,1.25,1.22,2.31,1.73.5.17.49.35,0,.58-1.16-.53-3.93-.78-2.31-2.31Z"/>
  <path class="cls-26" d="M92.66,48.48l-.58,1.73c-.23,1.56-.55,1.41-1.15,0l-.58-1.15c.2-.08,1.34-2.37,2.31-.58h0Z"/>
  <path class="cls-36" d="M88.05,32.95c.43.43.26,2.32-1.44,1.71-1.99-.72.67-2.48,1.44-1.71Z"/>
  <path class="cls-89" d="M80.57,93.92h-.58c.18-.26.47-.43.58-.58v.58Z"/>
  <path class="cls-89" d="M83.46,91.04c.14.2.89.06.58,1.15-.35.09-.93-.11-1.15,0l-.58.58c-.15.08-.41-.08-.58,0-.38.18-.76.4-1.15.58.7-1.09-.43-.89,1.73-1.73-.05-1.01.47-.89,1.15-.58Z"/>
  <path class="cls-26" d="M38.01,67.46c1.27.32,2.57.43,3.91.32l.12.83c.5.17.5.37,0,.58-1.3.14-2.78,1.09-1.73,2.31-1.74-1.15-.92-.69,0-2.29-1.67.57-2.66-.86-3.45-1.16-.4-.55-.11-.78.58-.58.14.09.44-.09.58,0h-.02Z"/>
  <path class="cls-66" d="M70.23,30.07c-.18,0-.4-.03-.58,0l-.58.58c-.17.08-.44-.08-.58,0-.41.52-.79.72-1.15.58.06-.37-.09-.86,0-1.15l.58-.58c.14-.08.41.08.58,0l1.15-.58c.15-.06.38.05.58,0,.75.63,1.13,1.05,0,1.15Z"/>
  <path class="cls-99" d="M89.21,74.35c.53.69,1.16,1.74,1.73,2.31.4.17.38.37,0,.58-1.65-.05-4.03-1.01-2.87-2.87h1.15v-.02Z"/>
  <path class="cls-26" d="M67.92,79.53c-.17,1.38.11,1.19,1.15.57.03.96-.02,1.93,0,2.87-.12-.96-1.5-1.71-1.7-2.14s.09-1.09-.02-1.3c.17-.5.35-.49.58,0h-.02Z"/>
  <path class="cls-26" d="M24.21,64.01c.47.47-1.16,2.29-1.44,2.29-1.51,0-.11-2.67,1.44-2.29Z"/>
  <path class="cls-17" d="M72.52,28.34l.58.58c.11.2-.08.81,0,1.15-1.44-.02-3.38-.15-2.31-1.73.35-.06,1.47-.08,1.73,0Z"/>
  <path class="cls-144" d="M74.25,115.78h-.58c-.03-.26-.31-.52-.58-.58v-1.15c.14-1.33.52-1.91,1.15-1.73.41,1.13.41,2.31,0,3.45h.02Z"/>
  <path class="cls-26" d="M62.17,49.05c-.53.23-1.25,1.05-1.73,1.15-.15.4-.35.38-.58,0-.69.38-1.76-.32-1.15-1.15.41.15.95.66,1.41.61.21-.02.67-2.52,2.05-.61Z"/>
  <path class="cls-36" d="M102.73,31.23c1.22-.28,1.79,1.44.57,1.73s-1.79-1.44-.57-1.73Z"/>
  <path class="cls-122" d="M67.92,79.53h-.58c-.08-.15.06-.41,0-.58-.14-.35-1.54-.69-1.15-1.73-.12-3.81,4.45.41,1.73,2.31Z"/>
  <path class="cls-12" d="M96.1,59.97c-.72,1.28.31,1.44-2.87,1.15v-.57l1.15-.58h1.73Z"/>
  <path class="cls-46" d="M68.5,39.85v2.29c-1.9.46-.99-1.47-1.15-2.87.49-.18,1.07.58,1.15.58Z"/>
  <path class="cls-21" d="M37.45,60.55c.67.17.81.75,1.15,1.15.64,1.48-.11,1.74-1.15.58-.29-.32-1.01-.5-1.15-1.15.57-.49.7-.37,1.15-.58Z"/>
  <path class="cls-35" d="M111.06,62.86c.79.98-1.33,1.82-2.31,1.73-.2-.14.49-.78.58-1.15.05-.18-.03-.4,0-.58.18-.26.37-.26.58,0,.32.06,1.09-.08,1.15,0h0Z"/>
  <path class="cls-36" d="M107.03,57.1l.58.58c.37.44.41.64.58,1.15-.06.52-.26.49-.58,0l-.58-.58c-.18-.06-.43.08-.58,0l-.58-.58c.28-.2-.67-1.88,1.15-.58l.02.02Z"/>
  <path class="cls-26" d="M74.25,111.17c.41.37.41.76,0,1.15l-1.15,1.73c0-.96.02-1.93,0-2.87h1.15Z"/>
  <path class="cls-11" d="M85.76,76.08c.05.69-.15,1.07-.58,1.15-.05.52.12,1.38,0,1.73-1.02-.64-.49-2.37-.58-3.45,1.07-1.38,1.79-1.02,1.15.58h.02Z"/>
  <path class="cls-26" d="M37.37,43.24s-1.33.38-1.65.64c-.23-1.1.73-1.54,1.44-2.29.52.05.37,1.45.21,1.67v-.02Z"/>
  <path class="cls-126" d="M82.3,89.9l1.15,1.15-.29.57c-.26.11-.63-.09-.86,0l-1.73-1.15c-.5-.17-.49-.35,0-.58.52,0,1.36-.11,1.73,0v.02Z"/>
  <path class="cls-36" d="M84.61,47.9c-.12-.2-.43-.35-.58-.58.15-.03.43-.03.58,0v.58Z"/>
  <path class="cls-36" d="M86.34,47.9c.5.17.49.35,0,.58-.05.18.06.43,0,.58-.7.95-1.22,1.34-1.15,0-.2-.37-.35-.79-.58-1.15.18,0,.38-.02.58,0,.38.05.83-.08,1.15,0v-.02Z"/>
  <path class="cls-36" d="M114.52,64.59q-.11.15,0,0c1.65,1.7-1.56,2.12-1.15.29.24-1.05.72-.73,1.15-.29Z"/>
  <path class="cls-54" d="M68.5,89.32c-.98.9-2.41,1.59-2.87,0,.49-.12,2.32-.09,2.87,0Z"/>
  <path class="cls-26" d="M17.32,72.06c-.09-.08.83-1.64.58-2.29h.57c.93,1.21-.18,3.04-1.15,2.29Z"/>
  <path class="cls-128" d="M98.41,76.66v.58c-.49.43-.28.47-1.15.58l-.58-.58v-.58l1.15-.58h.58c-.02.18,0,.38,0,.58Z"/>
  <path class="cls-75" d="M59.88,50.21c.38.17.37.37,0,.58-.11-.05-1.15-.37-1.73-.58v-1.15c.15.06.4-.06.58,0,.21.53.57,1.02,1.15,1.15Z"/>
  <path class="cls-26" d="M70.81,28.34c-.43,1.62,1.22,1.07,2.31,1.73.75.47,1.39.84,1.73,1.73-1.56-1.27-2.57-1.73-4.6-1.73v-1.15s-.06-.46.58-.58h-.02Z"/>
  <path class="cls-26" d="M58.72,78.39c-1.05,1.33-2.4.47-3.45,0,1.13-.08,2.34.12,3.45,0Z"/>
  <path class="cls-36" d="M115.08,17.41c.15-1.42,2.48-1.82,1.73.28-.47,1.31-.92.46-1.15.29l-.58-.58v.02Z"/>
  <path class="cls-2" d="M80.01,89.9h.58v.58c-.7.55-1.56.4-2.31.58-1.28-.84-.93-1.36.58-1.15h1.15v-.02Z"/>
  <path class="cls-26" d="M40.32,107.15c-1.01.87-3.56-.9.29-1.71.08.31-.23,1.67-.29,1.71Z"/>
  <path class="cls-26" d="M77.7,39.27c-.17.41-.37.41-.58,0-.09-.86-.26-2.45.58-2.87.08.9-.17,2.08,0,2.87Z"/>
  <path class="cls-26" d="M100.14,40.43c-1.02.18-1.96,1.56-1.73-.58.63,0,1.45-.15,1.73.58Z"/>
  <path class="cls-26" d="M105.88,72.06s.87.23.57,1.15h-2.29l1.73-1.15Z"/>
  <path class="cls-26" d="M68.5,47.32c-.49.81-1.07,1.19-1.73,1.15.38-.93-.89-2.15,1.44-1.73.34.11.26.31.29.57v.02Z"/>
  <path class="cls-26" d="M81.16,47.32l-3.44,1.15c-.47-1.16,1.02-1.44,1.15-1.73.86.81,1.5-.61,2.31.58h-.02Z"/>
  <path class="cls-26" d="M73.1,103.12c-.03-.28-.44-2.25-.58-2.87,1.04.47.38,2.09.58,2.87Z"/>
  <path class="cls-81" d="M85.17,65.73h-.58c-.7-.06-.86-.5-.58-1.15-.08-.57.02-.76.58-.58,1.33.52.55,1.64.58,1.73Z"/>
  <path class="cls-26" d="M67.92,25.47c-.69,0-1.01.02-1.73,0,.08-.87,1.65-.87,1.73,0Z"/>
  <path class="cls-36" d="M96.1,17.99c.63.63-.52,1.77-1.15,1.15s.52-1.77,1.15-1.15Z"/>
  <path class="cls-26" d="M61.59,71.48c1.25.93.98,1.44-.58,1.15l-.34-.52-1.39.52c.4-.52.34-.83,1.15-1.15.26-.11.79.08,1.15,0h.02Z"/>
  <path class="cls-95" d="M85.17,67.46c.06.17-.06.41,0,.58.34.2.34.38,0,.58-1.33,1.07-1.97.31-1.15-1.15-.06-.41.15-.64.58-.58l.58.58-.02-.02Z"/>
  <path class="cls-36" d="M84.03,26.05c.63.63-.52,1.77-1.15,1.15s.52-1.77,1.15-1.15Z"/>
  <path class="cls-26" d="M86.9,76.66c-3.3-.53,2.06,2.11,2.87,2.31l-4.6-1.73c.05-.49,0-.99.58-1.15.93-1.28,1.24-.96,1.15.58v-.02Z"/>
  <path class="cls-26" d="M102.43,74.93c-.46,1.02-1.42.43-2.31.58l2.31-.58Z"/>
  <path class="cls-26" d="M84.61,65.73c.06.17-.06.4,0,.58-1.51-.78-1.22-.72-.58-1.73.17.4.43.75.58,1.15Z"/>
  <path class="cls-4" d="M100.14,55.37c.26.18.24.37,0,.58-.98.06-1.34.21-1.15-.86l.57-.29c.18.2.43.35.58.58v-.02Z"/>
  <path class="cls-29" d="M92.66,48.48c.06.11-.02.37,0,.58.47.6.47.98,0,1.15-.18.02-.38-.03-.58,0-.32-1.41-1.25-1.93.58-1.73Z"/>
  <path class="cls-26" d="M97.26,51.93c-.17.5-.35.49-.58,0-.12-.69.09-1.57,0-2.31,1.05.53.38,1.45.58,2.31Z"/>
  <path class="cls-26" d="M112.21,68.61c1.19,1.31,1.05,1.64-.58,1.73l.58-1.73Z"/>
  <path class="cls-23" d="M64.48,47.9c.2,0,.44-.05.58,0v.58c-.17.02-.55.63-1.15,0-.17.5-.35.49-.58,0,0-.2-.05-.55,0-.58.5-.32.89-.32,1.15,0Z"/>
  <path class="cls-26" d="M44.92,71.48c.44.23.34.83,0,1.15-.15-.08-.43.08-.58,0-.2-.11-.35-.43-.58-.58.14-.02.44-.67,1.15-.58l.02.02Z"/>
  <path class="cls-26" d="M75.41,34.1c-.06-.24-.43-1.28-.58-1.73l.58,1.73Z"/>
  <path class="cls-26" d="M50.67,53.08c.34.57.34.95,0,1.15-.7.46-.99.18-.58-.58v-1.15c.18.18.43.35.58.58Z"/>
  <path class="cls-74" d="M37.45,67.46l-.58.58c-.17-.06-.43.08-.58,0v-.58l.28-.44c.32.08.6.28.87.44h.02Z"/>
  <path class="cls-26" d="M99.56,112.9c-1.21.17-1.31.06-1.15-1.15l1.15,1.15Z"/>
  <path class="cls-106" d="M50.67,54.23c.41.17.4.37,0,.58-1.02-.17-1.33.49-1.15-1.15.17-.03.4-.02.58,0,.05,0,.23.58.58.58l-.02-.02Z"/>
  <path class="cls-26" d="M78.85,46.17c.06-.14-.03-.37,0-.58.08-.47,0-.96.58-1.15-.05.63.18,1.44-.58,1.73Z"/>
  <path class="cls-26" d="M88.06,48.48h-1.73v-.58c.92.2,1.3.46,1.73.58Z"/>
  <path class="cls-26" d="M77.7,24.32c.15,1.56-.03,1.04-1.15,1.15l1.15-1.15Z"/>
  <path class="cls-26" d="M26.52,71.48s-1.22.21-1.15-.28l1.44-1.44c.11.31-.23,1.65-.29,1.71Z"/>
  <path class="cls-36" d="M88.63,23.16c-1.21.17-1.31.06-1.15-1.15l1.15,1.15Z"/>
  <path class="cls-26" d="M73.1,99.1c.52.15.5.34,0,.58h-.58c-.05-.18-.44-.63-.58-1.15l1.15.58.02-.02Z"/>
  <path class="cls-26" d="M81.16,19.72c.37.05.78-.05,1.15,0,.03.38,0,.76,0,1.15l-1.15-1.15Z"/>
  <path class="cls-26" d="M15.01,74.37l-1.15,1.15c-.17-1.21-.06-1.31,1.15-1.15Z"/>
  <path class="cls-26" d="M96.1,49.63c0,.61-.55,1.91-.58,2.31-.5-.17-.49-.35,0-.58l-.58-1.15c-.29-.17-.29-.37,0-.58.28-.06.87-.05,1.15,0h.02Z"/>
  <path class="cls-26" d="M8.69,105.42s.21,1.22-.28,1.15c-1.57-.9-.38-1.8.28-1.15Z"/>
  <path class="cls-26" d="M80.57,80.7v-1.73c0,.21,1.42,1.04,0,1.73Z"/>
  <path class="cls-26" d="M63.9,50.21c-.7-.29-.61-1.1-.58-1.73h.58c-.03.57.03,1.16,0,1.73Z"/>
  <path class="cls-131" d="M46.07,57.1v1.15c-.53-.29-.93-.57-1.15-1.15.37.06.81-.08,1.15,0Z"/>
  <path class="cls-139" d="M50.67,76.66c-.34.05-.81.03-1.15,0-.38-.17-.37-.37,0-.58-.15-.37.18-.49.58-.58l.58,1.15-.02.02Z"/>
  <path class="cls-26" d="M77.7,35.83c-.81-.31-.47-1.13-.58-1.73.9.02.5,1.01.58,1.73Z"/>
  <path class="cls-26" d="M75.97,104.84c-.87-.08-.87-1.65,0-1.73-.03.57,0,1.15,0,1.73Z"/>
  <path class="cls-26" d="M9.27,12.81c.4.2-.34.98-1.15.57-.4-.2.34-.98,1.15-.57Z"/>
  <path class="cls-26" d="M115.08,17.41h1.15l-.58.58c-.09-.06-.64.11-.58-.58h.02Z"/>
  <path class="cls-26" d="M85.17,18.57c.4.2-.34.98-1.15.57-.4-.2.34-.98,1.15-.57Z"/>
  <path class="cls-26" d="M69.65,28.92c-.24.09-.76.4-1.15.58l1.15-.58Z"/>
  <path class="cls-26" d="M77.14,33.52l-.58-1.15c.08.18.38.29.58,1.15Z"/>
  <path class="cls-26" d="M101.86,40.43c-.17.29-.26,2.66-.58,0h.58Z"/>
  <path class="cls-26" d="M64.48,47.9c-.32,0-1.04-.08-1.15,0l.86-.57.29.57Z"/>
  <path class="cls-26" d="M57.57,48.48l-1.15-.58c.93-.14.99.5,1.15.58Z"/>
  <path class="cls-37" d="M66.77,48.48c.75.73.4,1.1-.58.58-.41.02-.41-.41-.58-.58.34-.09.86.09,1.15,0h.02Z"/>
  <path class="cls-26" d="M54.7,50.21c.24-1.27.28-1.04,1.15-1.73l-1.15,1.73Z"/>
  <path class="cls-26" d="M93.81,50.21c-.58.05-.99,0-1.15,0-.03-.38.03-.78,0-1.15l1.15,1.15Z"/>
  <path class="cls-26" d="M63.32,51.35c-.84-.24-1.15-.89-1.15-1.73.49.64.79.84,1.15,1.73Z"/>
  <path class="cls-26" d="M50.1,51.93c.14-.49-.24-.93.58-1.15l-.58,1.15Z"/>
  <path class="cls-36" d="M97.26,53.08c-.47-.5-.44-.44-.58-1.15h.58c.08.34-.08.81,0,1.15Z"/>
  <path class="cls-26" d="M98.41,53.65c-.41,0-1.05-.17-1.15-.58.05.05.72.17,1.15.58Z"/>
  <path class="cls-26" d="M100.14,56.53v-1.15c.14.2,1.5.55,0,1.15Z"/>
  <path class="cls-26" d="M25.36,57.1c-.2.4-.98-.34-.57-1.15.2-.4.98.34.57,1.15Z"/>
  <path class="cls-88" d="M40.9,56.53c-.11.23-.57.47-.58.58l-.58-.58c.34.06.78-.03,1.15,0h.02Z"/>
  <path class="cls-26" d="M109.92,70.33s-.21.43-1.15.58l1.15-.58Z"/>
  <path class="cls-26" d="M42.05,72.06c-.98-.06-1.04-.53-1.15-.58l1.15.58Z"/>
  <path class="cls-26" d="M88.63,73.21c-1.04-.43-1.3-1.41-1.73-2.31.95.43,1.41,1.39,1.73,2.31Z"/>
  <path class="cls-26" d="M102.43,73.21v.58c-.47-.26-.4-.83-.58-1.15.17-.37.37-.37.58,0v.58-.02Z"/>
  <path class="cls-26" d="M44.92,74.35c-.32-.11-.75.02-1.16-.26-1.15-.81-.03-.83,0-.89l1.15,1.15h.02Z"/>
  <path class="cls-26" d="M99.56,75.52c-.35.05-.99-.09-1.15,0l.29-.57.86.57Z"/>
  <path class="cls-26" d="M95.54,77.24c-2.22-.9-3.16-2.29-4.6-4.02l4.6,4.02Z"/>
  <path class="cls-26" d="M92.08,77.24c-.37.06-.84-.09-1.15,0v-.58c.11.11.75.23,1.15.58Z"/>
  <path class="cls-26" d="M55.27,77.24l-.58.58s-.67.06-.58-.57c.35-.08.95.11,1.15,0l.02-.02Z"/>
  <path class="cls-26" d="M97.26,77.81c-.46.06-1.04-.03-1.15-.58.18.05.4-.05.58,0,.28.08.47.31.58.58h-.02Z"/>
  <path class="cls-26" d="M17.89,96.8c.4.2-.34.98-1.15.57-.4-.2.34-.98,1.15-.57Z"/>
  <path class="cls-26" d="M83.46,47.9h-.58c.15-.05.35-.5.58-.58v.58Z"/>
  <path class="cls-26" d="M105.88,71.48l-.57-.29.57-.29c-.02.18.03.38,0,.58Z"/>
  <path class="cls-26" d="M90.94,72.64c-.35-.46-1.18-.58-1.73-1.73l1.73,1.73Z"/>
  <path class="cls-26" d="M79.43,43.88l-.57-.29.57-.29c.02.18,0,.38,0,.58Z"/>
  <path class="cls-26" d="M79.43,42.72c-.26-.08-.52-.32-.58-.58.26.09.49.31.58.58Z"/>
  <path class="cls-118" d="M78.85,40.99h-.58c-.21.06-.41-.14-.58-.58.32.43.32.99,0,1.73.15,1.31.72,2.34,0,4.02-.43.44-.73,1.22-1.15,1.73-.17.5-.35.49-.58,0-.98.03-1.18-.35-.58-1.15l-.58.58c-.14.63-.96.73-1.15,0,.15-.63,2.37-6.02,2.61-6.31.55-.72.73-.5,1.42-.58-.05-.34-.53-.83-.58-1.15h.58c.09.44.92,1.18,1.15,1.73l.02-.02Z"/>
  <path class="cls-26" d="M52.39,76.08l1.73-1.73c-.57.49-.67,1.09-1.73,1.73Z"/>
  <path class="cls-26" d="M57.57,75.52c-.38.38-1.21.81-1.73,1.15l3.45-3.45c-.52.69-1.15,1.73-1.73,2.31Z"/>
  <path class="cls-26" d="M60.45,70.92c.15-.95,1.42-1.33,1.73-1.73l-1.73,1.73Z"/>
  <path class="cls-26" d="M76.56,31.79l-1.15-1.15c.34.38.7.38,1.15,1.15Z"/>
  <path class="cls-26" d="M67.36,31.23l1.15-.58c-.4.24-.81,1.93-1.15.58Z"/>
  <path class="cls-36" d="M89.5,30.65c.37.2.37.38,0,.58v-.58Z"/>
  <path class="cls-26" d="M69.08,30.65l.58-.58c-.11.02-.32.47-.58.58Z"/>
  <path class="cls-26" d="M1.5,30.07c.37.2.37.38,0,.58v-.58Z"/>
  <path class="cls-26" d="M67.36,30.07c.15-.49.24-.4.58-.58l-.58.58Z"/>
  <path class="cls-26" d="M2.65,29.5c.37.2.37.38,0,.58v-.58Z"/>
  <path class="cls-26" d="M74.25,29.5l-.58-.58c.23.14.37.41.58.58Z"/>
  <path class="cls-26" d="M73.1,28.92c-.24-.11-.43-.35-.58-.58.58.18.4.28.58.58Z"/>
  <path class="cls-26" d="M49.52,76.66c-.2-.02-.4.03-.58,0v-.58h.58v.58Z"/>
  <path class="cls-36" d="M51.83,76.66v-.58h.58c-.18.11-.35.5-.58.58Z"/>
  <path class="cls-26" d="M89.21,69.75c.37.17.37.37,0,.58-.72-.06-2.48-2.12-2.87-2.87.99.72,1.94,1.51,2.87,2.31v-.02Z"/>
  <path class="cls-26" d="M86.9,70.33l-.58-.58c.05.09.41.26.58.58Z"/>
  <path class="cls-36" d="M81.74,19.14l.58-.58c-.11.44-.23.41-.58.58Z"/>
  <path class="cls-26" d="M58.72,17.41c-.02-.43.41-.43.58-.58l-.58.58Z"/>
  <path class="cls-26" d="M59.88,16.85s.12-.47.58-.58l-.58.58Z"/>
  <path class="cls-26" d="M63.32,16.27s-.03-.38,0-.58l.57.29-.57.29Z"/>
  <path class="cls-26" d="M63.32,15.12c.02-.35-.81.14,0-.58v.58Z"/>
  <path class="cls-26" d="M54.99,13.96c.37.2.37.38,0,.58v-.58Z"/>
  <path class="cls-26" d="M110.19,12.81c.37.2.37.38,0,.58v-.58Z"/>
  <path class="cls-26" d="M98.41,77.24v-.58c0,.37.79-.14,0,.58Z"/>
  <path class="cls-26" d="M6.1,69.75c.37.2.37.38,0,.58v-.58Z"/>
  <path class="cls-26" d="M92.66,78.39v-.58c.14.17,1.16.29,0,.58Z"/>
  <path class="cls-26" d="M86.34,69.19c-.35-.21-.83-.34-1.15-.58-.06-.17.06-.41,0-.58.66.2.84.63,1.15,1.15v.02Z"/>
  <path class="cls-26" d="M111.64,68.61l-1.15-1.15c.72.09.87.89,1.15,1.15Z"/>
  <path class="cls-26" d="M59.88,68.61l.58-.58c-.2.15-.37.4-.58.58Z"/>
  <path class="cls-26" d="M3.8,81.84c.37.2.37.38,0,.58v-.58Z"/>
  <path class="cls-26" d="M89.21,74.35h-.58v-.58c.2.18.41.37.58.58Z"/>
  <path class="cls-26" d="M85.17,67.46c-.32-.02-.53-.57-.58-.58,0,.05.29-.21.58.58Z"/>
  <path class="cls-26" d="M13.58,66.88c.37.2.37.38,0,.58v-.58Z"/>
  <path class="cls-26" d="M.92,88.73c.37.2.37.38,0,.58v-.58Z"/>
  <path class="cls-26" d="M83.46,91.04l-1.15-1.15c.67.2.81.64,1.15,1.15Z"/>
  <path class="cls-26" d="M109.92,62.86h-.58v-.58c.24.14.44.34.58.58Z"/>
  <path class="cls-26" d="M82.3,92.77l.58-.58c-.2.11-.37.47-.58.58Z"/>
  <path class="cls-26" d="M108.76,62.28l-.58-.58c.44.12.53.57.58.58Z"/>
  <path class="cls-26" d="M61.32,96.8c.58.52-.87,1.47-.86.86l.86-.86Z"/>
  <path class="cls-108" d="M38.59,59.97c.17-.08.43.08.58,0l-.29.57s-.29-.57-.29-.57Z"/>
  <path class="cls-26" d="M88.63,59.97c-.23-.06-.43-.52-.58-.58h.58v.58Z"/>
  <path class="cls-26" d="M99.56,58.83s.17-.47.58-.58l-.58.58Z"/>
  <path class="cls-26" d="M101.28,58.26l.58-.58c-.15.03-.4.53-.58.58Z"/>
  <path class="cls-26" d="M107.61,57.68l-.58-.58c.21.15.41.37.58.58Z"/>
  <path class="cls-26" d="M42.9,54.23c.37.2.37.38,0,.58v-.58Z"/>
  <path class="cls-26" d="M54.7,51.35c-.17.32-.37.31-.58,0l.58-.58c0,.2-.05.43,0,.58Z"/>
  <path class="cls-36" d="M94.96,50.21h-.58c.08-.28.31-.52.58-.58v.58Z"/>
  <path class="cls-26" d="M88.63,49.05c.12.05.38,0,.58,0l-.29.57-.29-.57Z"/>
  <path class="cls-26" d="M81.74,48.48l-.58-.58c.11.12.53.57.58.58Z"/>
  <path class="cls-26" d="M65.63,48.48c-.17.05-.38-.02-.58,0v-.58c.28.09.4.4.58.58Z"/>
  <path class="cls-65" d="M68.5,60.55c1.5.15,1.64.66.58,1.73-1.05.14-1.27.83-1.73,1.15-2.22.31-3.18,1.62-5.18,0-1.53-1.24-1.85-1.88,0-2.87.08-1.71,3.58-.47,4.02.58.41-1.99,2.57-3.33,2.31-.58Z"/>
  <path class="cls-49" d="M70.81,54.81c.34-.47.72-.28,1.15.58.17-.5.35-.49.58,0,.49.18.49.38,0,.58.18.57,0,.76-.58.58.73.69.35,1.07-1.15,1.15.93,1.34-.87,3.18-2.31,2.87-1.73-1.44-1.9.46-2.31.58-1.59-.41-1.56-1.19,0-1.73-.06-1.1.32-1.86,1.15-2.31.03-.05,1.19.17,1.19-.34,0-.38-.6-.67-.63-.83-.52-.18-.52-.38,0-.58.55-.31,1.62.67.57-1.15.83-.08,1.54.34,2.31.57l.03.02Z"/>
  <path class="cls-143" d="M63.32,57.68c1.12.09,2.06.67,2.87,1.73-.14.18.09,1.28,0,1.73-.6.17-2.81-.57-4.02-.58-2.08,0-5.15.17-7.2.57l-.28-1.13h7.47l-1.15-1.15c.79-.08,1.79.35,2.29-.58-.49-.17-.47-.35,0-.58Z"/>
  <path class="cls-74" d="M38.59,66.88c2.81.64,4.03.11,6.91,0l-3.45,2.87c-.08-.17.08-.43,0-.58-.08-.17.09-.46,0-.58q.11-.15,0,0c-.64-.79-2.7.24-3.67.05-.64-.14-.31-1.15-.37-1.19l.58-.58v.02Z"/>
  <path class="cls-65" d="M65.05,57.1c.17-.02.46-.58.58-.58.44-.03,1.01.17,1.73.58-.14.18.61,1.31.31,1.77s-1.38.43-1.45.53c-2.09.31-2.14.03-2.87-1.73-1.09-.32-1.1-.83,0-1.15.15.08.41-.08.58,0l1.15.58-.02-.02Z"/>
  <path class="cls-55" d="M38.59,61.7c.98,1.18,2.34,1.54,2.29,2.87-1.94.4-2.49-1.22-3.45-2.29l1.15-.58h.02Z"/>
  <path class="cls-145" d="M67.92,55.37s-.02.47,0,.58c-1.45,0-2.19-1.7-2.87-2.87.08-.37.14-.61.58-.58.47.89,1.85,1.82,2.31,2.87h-.02Z"/>
  <path class="cls-5" d="M63.32,56.53c-.03.38.05.78,0,1.15-.03.21.06.46,0,.58-2.26-.14-1.6-1.28-1.15-2.87.4-.35.98,1.05,1.15,1.15Z"/>
  <path class="cls-1" d="M58.72,63.43l-4.02,1.15c.41-1.3,3.01-.84,4.02-1.15Z"/>
  <path class="cls-130" d="M52.39,59.41c.37.17.37.37,0,.58-.03.03.06.6-.29.57-.14,0-1.76-.87-2.6-1.13-.18-.38-.41-.76-.58-1.15,1.12.26,2.48.57,3.45,1.15l.02-.02Z"/>
  <path class="cls-136" d="M57.57,59.39h-1.73v-1.15c.79-.18,1.53.31,1.73,1.15Z"/>
  <path class="cls-64" d="M51.25,54.81c-.17.03-.41.03-.58,0v-1.73c.37.57.81.81.58,1.73Z"/>
  <path class="cls-5" d="M65.05,57.1c-.47.05-1.19.06-1.15-.58.34.17.98-.03,1.15.58Z"/>
  <path class="cls-5" d="M67.36,57.1c-.79.32-1.45-.58-1.73-.58l.29-.57s1.44,1.15,1.44,1.15Z"/>
  <path class="cls-117" d="M50.1,75.52l-.58.58h-.58c.14-.23.44-.38.58-.58h.58Z"/>
  <path class="cls-56" d="M52.39,59.97v-.58c.11.06.55-.09.57.29s-.52.24-.57.29Z"/>
  <path class="cls-51" d="M60.45,50.77c-.18-.06-.41.06-.58,0v-.58c.14.03.43.03.58,0v.58Z"/>
  <path class="cls-38" d="M87.48,62.86l4.02,1.73c-1.44.31-2.87-.96-4.02-1.15v-.58Z"/>
  <path class="cls-40" d="M85.76,63.43c-.98.03-.83.38-1.15.58-.12.08-.49.44-.58.58-.26-.64.03-1.3-1.15-1.73.41-1.3,1.09-1.1,1.73,0,.66-.05,1.13-.38,1.73-.58v.86l-.57.29h-.02Z"/>
  <path class="cls-121" d="M104.74,69.75l-.58.58c-2-.52-2.72-4.39.58-.58Z"/>
  <path class="cls-58" d="M107.61,58.83c.18.02.38,0,.58,0,.23,1.74-.31.96-1.73.58.09-.26.31-.49.58-.58.17-.31.35-.29.58,0h-.02Z"/>
  <path class="cls-101" d="M103.01,72.06c-.17.06-.37.44-.58.58h-.58c-.11-.18-.43-.35-.58-.58.34.15,1.24-.11,1.73,0h.02Z"/>
  <path class="cls-44" d="M105.32,69.75v.58c-.35-.06-.83.08-1.15,0-.03-.6.23-.47.58-.58.15-.05.37.02.58,0h-.02Z"/>
  <path class="cls-73" d="M76.56,96.79c.57,1.45-.41,2.46-.58,4.6-1.9,2.98-2.29.5-2.87-1.73-.05-.18.06-.41,0-.58-.12-.35-.75-1.02-.58-1.15,1.02.29,1.59-.32,2.31-.58.64-.24,1.57,0,1.73-.58v.02Z"/>
  <path class="cls-60" d="M71.37,85.3c.17-.29.37-.29.58,0,.4,1.28.57,2.83,0,4.02.87,1.21.75,2.7-.58,3.45-.53-.18-1.04-1.21-1.15-1.73,1.51-.41.87-5.58.58-3.45-1.02-.64-.49-2.37-.57-3.45.7-.18.6.58,1.15,1.15l-.02.02Z"/>
  <path class="cls-14" d="M74.25,89.9c-1.15,1.02-1.57,3.33-2.87,2.87.41-1.13.5-2.26.58-3.45.17-.5.35-.49.58,0,.23,1.38.43,1.38.58,0,.09-.43.29-.63.58-.58.17-.53.35-.52.58,0,.66.41.75.86,0,1.15l-.03.02Z"/>
  <path class="cls-97" d="M75.41,89.32c.83-.55,1.79.03,2.87,1.73-.35.95-.47,1.97-1.71,2.29l-1.73-3.45c-.11-.49.08-.69.58-.58l-.02.02Z"/>
  <path class="cls-13" d="M67.92,92.77c-.41-.14-2.64-1.67-2.87-2.29.86-.26,4.46,1.91,4.02,2.29-.37-.03-.87.09-1.15,0Z"/>
  <path class="cls-48" d="M70.81,87.59c.03-.57-.03-1.15,0-1.73h.57c-.34,1.79,1.02,5.67-1.15,5.18-.03-.17.02-.38,0-.58l.58-2.31c.02-.18,0-.38,0-.58v.02Z"/>
  <path class="cls-140" d="M75.41,89.32c-.14.21-.34.46-.58.58-.17.08-.47-.09-.58,0v-1.15c.61-1.54,1.59-1.04,1.15.58l.02-.02Z"/>
  <path class="cls-76" d="M74.83,96.79h-.58c-.23-1.64.81-1.64.58,0Z"/>
  <path class="cls-110" d="M76.56,96.79c-.05-.14-.5-.12-.57-.29-.47-1.09,1.01-1.39.57.29Z"/>
  <path class="cls-61" d="M73.68,48.48c.87-1.45,2.23-1.44,2.31.58.5.17.49.35,0,.58.09.24-.11.44-.58.58.4.9.26,2.11-.41,3.65.99.52.41.78-.73.95-.69.9-1.22.6-1.15-.58-.49-.2-.49-.38,0-.58-.79-1.6-.81-3.56,0-5.18.12-.08.4.06.58,0h-.02Z"/>
  <path class="cls-71" d="M72.52,49.05c-.14,1.6.06,3.13.58,4.6v.58c.95.79.63,1.41-.58,1.15h-.58c-.76-.84-1.15-1.99-1.15-3.45,0-.57-.05-1.16,0-1.73s-.03-1.16,0-1.73l1.73.58Z"/>
  <path class="cls-20" d="M73.1,53.65c-1.48-1.1-1.47-3.12-.58-4.6.15-.24.34-.41.58-.58-.06,1.71.09,3.47,0,5.18Z"/>
  <path class="cls-15" d="M75.97,47.9c.78.49.9.86,0,1.15-.87-1.73-.96-1.09-2.31-.58.06-.37-.08-.83,0-1.15.35-.06.87.09,1.15,0l.58-.58.57.29c.09.23-.05.57,0,.86l.02.02Z"/>
  <path class="cls-19" d="M68.5,47.32c.11.93-1.39,2.25-1.16,3.45h-.57l-.58-1.15c.09-.12-.09-.44,0-.58.05-.08.38-.11.58-.58.4-.14.21-1.19,1.73-1.15Z"/>
  <path class="cls-20" d="M71.96,55.37c-.4-.14-.76-.46-1.15-.58v-2.87l1.15,3.45Z"/>
  <path class="cls-109" d="M65.63,52.5l-.58.58v-.86l.58-.29c.06.18-.08.43,0,.58v-.02Z"/>
  <path class="cls-36" d="M82.88,55.37l4.32-5.75,1.71,1.71c.57-.73,1.15-.95,2.02-1.15.34-.08.78.05,1.15,0,.11.49-.09,1.18,0,1.73.38,0,.76.03,1.15,0l1.15-.58c.28-.09.79.06,1.15,0v.58c-.24,4.14,1.97,1.28,2.87,3.18.57,1.19-.81.7-1.15.86-1.13.5-1.93.9-2.87,1.73-.35.06-.89-.11-1.15,0l-.58.58c-2.38.63-3.94.14-6.33,0-.14-.08-3.03.21-1.73-1.15.24-.26,2.75-.37,2.87-1.73-.75.05-1.54-.08-2.31,0-1.01,1.27-1.88,1.88-2.31,0l.03-.02Z"/>
  <path class="cls-41" d="M82.88,55.37c.52-.03.98.14,2.31,0-.66,1.44-1.34,3.15-2.87,3.45-.95.18-1.51.76-1.73,1.73-.17.5-.35.49-.58,0-.52.02-.9-.55-1.15-1.73-1.33-.83-1.13-1.21.58-1.15-1.36-1.88,1.42-2.31,2.87-2.31.17-.03.38,0,.58,0h-.02Z"/>
  <path class="cls-133" d="M84.03,61.13c.03.18-.03.4,0,.58l.58.58v.58c-.57.05-1.16.02-1.73,0-.31,0-1.04-.53-1.73-.58-1.39.17-2-.75-1.15-1.73h.58c0-.67,2.9-.29,3.45.58l-.02-.02Z"/>
  <path class="cls-146" d="M82.3,58.83v.58c-.09.35.14.53.58.58,1.93.15,4.25.4,1.15,1.15l-3.45-.58-.58-1.73c.73-.11,1.62.12,2.31,0Z"/>
  <path class="cls-43" d="M82.3,59.41l.58.58c-.57-.05-1.16.03-1.73,0v-.57h1.15v-.02Z"/>
  <path class="cls-40" d="M84.61,62.28l-.58-.58s.53.28.58.58Z"/>
  <path class="cls-84" d="M72.52,15.12c.05,4.02,4.63,1.76,7.47,2.31l-5.75.58c-.24.63.57,1.09.57,1.15v.58c0,.06-.81.52-.57,1.15h6.33l-5.18.58c-.98-.05-2.03.05-2.87.58-.06.52.21.83.58,1.15,1.24.75,1.15.43,2.31.58.5.17.49.35,0,.58-.2.37-.38.37-.58,0-2.66.12-5.38-.09-8.05,0l1.73-.86c-.81-1.96-1.13-1.36-2.87-1.44-1.34-.06-7.15.6-5.75-1.15.38-.02.76,0,1.15,0,1.51-.06,3.53.47,4.6-.58-.96-.84-2.31-1.41-4.02-1.73-.58-.32-2.14.79-1.73-1.15,2.08-.35,6.68.75,8.05-.58.69-.66.37-.76,0-1.73,1.53.03,3.07-.06,4.6,0l-.02-.03Z"/>
  <path class="cls-50" d="M61.59,18.56c2,.05,6.46-.66,4.02,1.73-2,.4-3-1.18-4.02-1.73Z"/>
  <path class="cls-113" d="M75.41,23.74c.37.05.78-.03,1.15,0,.08.6-.28.46-.58.57h-.58v-.58l.02.02Z"/>
  <path class="cls-26" d="M75.97,24.32l-.86.57-.29-.57c.18,0,.38.02.58,0s.43.05.58,0h-.02Z"/>
  <path class="cls-113" d="M73.1,23.17c-.41-.26-.87-.41-1.15-.87-.05-.37.47-.23.57-.29l.58,1.15v.02Z"/>
  <path class="cls-26" d="M120.55,66.88c.37.2.37.38,0,.58v-.58Z"/>
  <path class="cls-36" d="M81.16,69.75l.58-.58c-.76-.12-1.3-1.21-.58-1.73,1.5-2.43,1.85-.92,2.87,0,.37.32.5.69,1.15,1.15.84,2.23,1.45,3.79,2.87,5.75.78,1.07,1.64,2.28,2.87,2.87-2.15.61-2,.2-4.02-.58-.31-.12-.72-.4-1.15-.58-.24-.11-.4-.72-1.15-.58-.92.17-.52,1.54-.58,2.31-.12.17-1.33-.92-1.73-1.15-.73-.41-1.54-.76-2.29-1.15-.23,1.62.81,3.91-1.16,3.45-.53.28-.92-.29-1.15-1.73-.03.55-.58.78-1.15.58.9,1.13-.37,3.87-1.73,4.6-.52,1.25-1.31.69-1.15-.58-1.1-.96-2.06-2.31-2.87-4.02.2,1.62-.34,2.15-1.73,1.15-.18.12-.06.87-1.15.58l-.58-2.87c-.14-.12-.87.41-1.15.58-1.02.58-1.6,1.65-2.87.58-.09-.69.17-1.8,0-2.31-.5-1.53-3.07,1.33-4.02,1.73-.52.21-1.59,0-2.29.58l.57-1.73c1.39-.86,2.49-2.17,3.45-3.45.34-.46.44-.98.58-1.15.99-1.28,2.64-4.23,4.05-4.92.96-.46,1.21.21,1.7.31.38-.76,1.22-.5,1.73,0,.17-.31.37-.29.58,0,1.04-.08,1.24.89.58,2.87q-.3,1,0,0l.12-3.06c1.62-.23,3.12-.37,4.48-.4.61-.21.92-.03,1.15.58.55-.9.75-.72.58.58.7-.66,1.47-1.24,2.31-1.73.43-.14.95-.28,1.28-.02.17.14.99,3.58,1.02,4.05h-.05Z"/>
  <path class="cls-26" d="M73.1,82.41c.6.23,1.18.41,1.73.58.64-1.28,1.41-2.25,2.31-2.87.93-1.97,1.93-1.07,1.73.58v.58c.34.17.32.37,0,.58v.58c.46.46.44,1.24,0,1.73,0,1.76.24,4.14,0,5.75-.05.31-.44.78-.58,1.15-.4.09-1.38.86-1.71.58-.11-.08-.14-1.39-1.16-2.31-.15-.14-.98-.57-1.15-.58s-.47-.05-.58,0c-.64-.81-.31-2.37,0-3.45-.49.9-1.25.7-2.31-.58v-1.73l-1.15.58c-.12-1.6.66-3.91-1.16-4.6.61-.4.93-.76,1.73-1.15.98.87,1.91,3.27,2.31,4.6v-.02Z"/>
  <path class="cls-60" d="M70.23,90.46c-.06-.73-.23-1.93.58-2.31-.08.61.14,1.31-.06,1.94l-.52.35v.02Z"/>
  <path class="cls-90" d="M73.68,85.3c-.2,1.36-.4,2.7-.58,4.02l-.29,1.16-.29-1.16c-.17-1.3-.37-2.64-.58-4.02-.09-.09-.49.09-.58,0v-.58c.6.46,2.12-.21,2.31.58h.02Z"/>
  <path class="cls-52" d="M54.7,51.35s.4-.03.57.29c-.63,1.05-1.09-.26-1.15-.29h.58Z"/>
  <path class="cls-24" d="M44.92,71.48c.26.03.46-.05.57.29l-.28,1.44c-.4-.2-.26-.55-.29-.57v-1.16Z"/>
  <path class="cls-141" d="M42.05,70.33c.28.28-.53.92-.58.29,0-.2.44-.41.58-.29Z"/>
  <path class="cls-3" d="M81.74,53.65c.63.5-.18.96-.69,1.24-.08.05,1.09-1.09,1.27-.08v.58c-.41.09-2.58,1.86-2.87,2.31-1.24,1.12-3.74-.24-1.73-1.15-.4-.4-.4-.78,0-1.15.11-.52.31-.49.58,0,.34-1.57,1.28-2.38,2.87-1.73h.58l-.02-.03Z"/>
  <path class="cls-26" d="M86.34,49.05c-.5,1.12-3.15,5.15-4.02,5.75-.08.05-1.67.64-1.73.58-.76-.92.69-1.28,1.15-1.73.37-.86.96-1.83,1.73-2.31.5-.64,1.41-2.08,1.73-2.31.05-.03.66.57,1.15,0v.02Z"/>
  <path class="cls-87" d="M80.01,62.86c.2.06,2.78,2.37,2.29,2.87-.15.23-.81-.55-1.15-.58-.66,1.34-1.15,1.88-2.31.58-.83.61-1.59,1.19-2.31,1.73-.11-.14-.46-.5-.58-.58-1.7-.99-1.88-1.77-.58-2.31.08-1.53,2.95-3.24,4.02-1.73.12-.53.32-.52.58,0l.03.02Z"/>
  <path class="cls-59" d="M81.16,65.15c-.79,1.12-.08,1.79,0,2.31.09.57.58,1.54.58,1.73-.05.5-.24.69-.58.58l-2.31-4.02c.81-.23.92-.7,2.31-.58v-.02Z"/>
  <path class="cls-146" d="M80.01,60.55c.23.41-.03,1.39,1.15,1.73-.46-.03-1.09.02-1.15.58-.12-.05-.44-.03-.58,0-1.8-.05-2.41-3.65-.58-4.02.7.5.78,1.07,1.15,1.73l.02-.02Z"/>
  <path class="cls-36" d="M74.83,106v2.89c.44,2.66.44,5.39,0,8.05.17,1.24.35,2.58.58,4.02v.58h-1.15c-.03-1.91,0-3.84,0-5.75v-6.33c-.41-1.74-.93-4.98.58-5.75.15.63-.08,1.57,0,2.31l-.02-.03Z"/>
  <path class="cls-31" d="M75.41,111.17c.05,1.91,0,3.84,0,5.75-.17.5-.35.49-.58,0-.03-2.67,0-5.38,0-8.05.86.4.57,1.54.58,2.31h0Z"/>
  <path class="cls-103" d="M75.41,120.95c-.99-.78-.57-2.77-.58-4.02h.58v4.02Z"/>
  <path class="cls-26" d="M107.61,58.83c-.15-.02-.43-.05-.58,0v-.58c.26.09.46.34.58.58Z"/>
  <path class="cls-26" d="M106.46,58.26c-.2-.11-.66.06-.58-.58l.58.58Z"/>
  <path class="cls-26" d="M78.28,49.63c1.25-2.23,2.35-.96,3.74.58l1.44-.58c-.12.43-.44,1.48-.58,1.73.02.79-.9,1.9-1.73,2.31-.76.76-1.77,1.5-2.87,1.73-4.22-.75-3.93-2.08-1.73-5.18.49-.03,1.05-.03,1.73,0-.32-.17-.32-.37,0-.58h0Z"/>
  <path class="cls-18" d="M76.56,47.9l1.73,1.73c-.08.15.08.43,0,.58-.73.12-1.5-.08-2.31-.58v-.58c-.05-.37.06-.79,0-1.15h.58Z"/>
  <path class="cls-26" d="M74.83,103.7c-1.05,1.33-.57,3.94-.58,5.75-1.22-1.36-.32-3.94-.58-5.75.57,0,.89-1.13,1.15,0h.02Z"/>
  <path class="cls-31" d="M74.83,108.3v-2.31c.18,1.59,0,1.44,0,2.31Z"/>
  <path class="cls-63" d="M75.41,64.59l.58,2.31c-.31-.18-1.19.06-1.15-.58q.11-.15,0,0c-1.09-.18-.38,5.1-.58,5.75l-.57-5.18c-2.49-.46-2.8.83-3.45,2.87.03-1.02,0-1.97-.58-2.87-.15-.28-.35-.28-.58,0-1.36.72-.64.21-1.73,0,.12-.38.5-.81.58-1.15.63-1.07,1.8-1.31,3.53-.73l.49-.99c.69-1.54,3.3-1.1,3.45.58Z"/>
  <path class="cls-87" d="M70.23,63.43c1.09-1.13,1.54-1.01,1.73.58l1.73,2.29-5.75-.57c.28-1.47.5-2.02,2.31-2.31h-.02Z"/>
  <path class="cls-93" d="M89.21,70.33v-.58c.11.09.52-.09.58,0,.05.43-.14.61-.58.58Z"/>
  <path class="cls-112" d="M78.85,84.13v-1.73c.87.08.87,1.65,0,1.73Z"/>
  <path class="cls-26" d="M78.85,78.97c.23.35,1.13,1.62,1.15,1.73-.35,0-.92.08-1.15,0s-.53-1.71-1.73-.58c-.87-.31-.38-1.86.58-1.73-.58-.5-.76-.86,0-1.15.75.21.79,1.18,1.15,1.73Z"/>
  <polygon class="cls-112" points="78.85 81.84 78.85 81.26 79.41 81.55 78.85 81.84"/>
  <path class="cls-26" d="M92.66,58.26l.58-.58c-.18.08-.4.53-.58.58Z"/>
  <path class="cls-123" d="M48.96,74.35c-.28-.28.53-.92.58-.29,0,.2-.44.41-.58.29Z"/>
  <path class="cls-26" d="M115.66,59.41c.28.28-.53.92-.58.29,0-.2.44-.41.58-.29Z"/>
  <path class="cls-80" d="M56.14,77.24c.37.2.37.38,0,.58v-.58Z"/>
  <path class="cls-135" d="M72.52,96.22c.28-.31.86.55.57,1.15-.26.53-.99-.7-.57-1.15Z"/>
  <path class="cls-26" d="M107.61,53.65c.28.28-.53.92-.58.29,0-.2.44-.41.58-.29Z"/>
  <path class="cls-70" d="M78.28,40.99l-.58,1.15c-.06-.57.06-1.16,0-1.73.29-.03.66.21.58.58Z"/>
  <path class="cls-116" d="M83.46,51.35c-.66.84-.49,1.1-1.73,2.31h-.58c.28-.28,1.53-1.96,1.73-2.31h.58Z"/>
  <path class="cls-26" d="M94.39,51.35s-.17.5-1.15.58l1.15-.58Z"/>
  <path class="cls-26" d="M114.52,64.59c.28.28-.53.92-.58.29,0-.2.44-.41.58-.29Z"/>
  <path class="cls-53" d="M70.81,57.68c1.25-.4,3.36-.34,4.54.15,1.12-1.64,2.92-.05,3.51.99-.08.57.37,3.22.58,4.02-1.18.21-2.37,1.56-4.02,1.73-.17.02-3.04-.47-3.45-.58-.61-.15-1.16-.21-1.73-.58-.06-.05-1.1-1.09-1.15-1.15-.26-.4-.64-1.3-.58-1.73.14-.93,1.67-2.19,2.31-2.87l-.02.02Z"/>
  <path class="cls-20" d="M74.25,54.81c1.38.6,2.52,1.18,3.45,1.73-.12,1.36.47,1.3,1.73,1.15-.17.24-.55.93-.58,1.15-.46-.34-2.43-1.1-2.9-.89-1.42.66-.4,3.03-2.28,2.61l.57-2.29-3.45-.58c.43-.47.63-.7,1.15-1.15.93.23,1.13.05.58-.58-.05-.03.03-.38,0-.58-.02-.17.55-.9.58-1.15.4.17.76.41,1.15.58h.02Z"/>
  <path class="cls-39" d="M72.52,55.95c.23.12,1.04-.12,1.15,0,.73.9-.57,1.5-1.44,1.15l-.29-.57c.21-.18.41-.35.58-.58Z"/>
  <path class="cls-5" d="M68.79,58.26c.37.2.37.38,0,.58v-.58Z"/>
  <path class="cls-105" d="M42.05,68.61c-.28-.28.53-.92.58-.29,0,.2-.44.41-.58.29Z"/>
  <path class="cls-32" d="M72.52,89.32h-.58c.08-1.33-.05-2.69,0-4.02,1.09,1.15.46,2.52.58,4.02Z"/>
  <path class="cls-16" d="M73.68,88.73s-.23.55-.58.58c.14-1.25-.52-3.21.58-4.02.21.95-.15,2.4,0,3.45v-.02Z"/>
  <path class="cls-27" d="M74.83,47.32l.58-.58c-.12.23-.34.49-.58.58Z"/>
  <path class="cls-98" d="M76.56,50.21l-1.15,4.02c2.25.7,1.51-1.83,3.45-1.71-2.51,2.7.79.81-.58,2.87-.18.03-.38-.02-.58,0-.73.75-3.04,1.25-3.45-.58,0-.23,1.04-4.36,1.15-4.6.41-.38.83-.46,1.15,0h.02Z"/>
  <path class="cls-15" d="M78.28,50.21c-.66,1.12-.84.23-1.73,0-.32-.08-.78.06-1.15,0,.17-.38.08-.49.58-.58.76-.12,1.64.2,2.31.58h-.02Z"/>
  <path class="cls-94" d="M77.7,78.39c-.09.4-.41,1.38-.58,1.73-.83,1.8-1.33,1.76-2.31,2.87-.5-.17-.49-.35,0-.58,1.5-1.36,1.04-3.73,1.73-4.6.52-.55,1.04-.17,1.15.58h.02Z"/>
  <path class="cls-28" d="M73.68,81.84c.76.81.44,1.1-.58.58-.96-1.47-2.06-2.78-2.31-4.6.34-.17,1.02-.72,1.15-.58.06,1.65.67,3.33,1.73,4.6h.02Z"/>
  <path class="cls-102" d="M78.85,65.73c-1.57,1.71-1.16,3.58-1.16,5.75-1.33-.75.08-2.43-1.15-4.02.47-2.28,1.12-1.39,2.31-1.73Z"/>
  <path class="cls-127" d="M74.83,82.41v.58c-.12.15.14,1.02,0,1.15-1.12.93-1.33-1.12-1.73-1.73l.58-.58c.34.4.6.61,1.15.58Z"/>
  <path class="cls-120" d="M77.7,77.24c-.05.37.08.83,0,1.15l-1.15-.58c.34-.43.29-.83,1.15-.58v.02Z"/>
  <path class="cls-115" d="M70.23,69.75c-.14.43.09,1.19,0,1.73h-.57c-.37-.72.57-1.64.57-1.73Z"/>
  <path class="cls-67" d="M81.74,69.19v1.15l-.58-.58c.11-.23.57-.49.58-.58v.02Z"/>
  <path class="cls-87" d="M69.65,66.88h-.58c.12-.06.32-1.18.58,0Z"/>
  <path class="cls-104" d="M77.7,55.37c1.05,1.22,0,1.07,0,1.15-2.4-1.02-1.22,0-2.87,1.15.15-.93-.63-2.11-.58-2.87.75.32,2.75.66,3.45.58Z"/>
  <path class="cls-87" d="M74.83,66.32c-.28-.28.53-.92.58-.29,0,.2-.44.41-.58.29Z"/>
  <path class="cls-87" d="M74.54,64.59c.37.2.37.38,0,.58v-.58Z"/>
</svg>