<?xml version="1.0" encoding="UTF-8"?>
<svg id="Livello_1" data-name="Livello 1" xmlns="http://www.w3.org/2000/svg" viewBox="0 0 141.73 141.73">
  <defs>
    <style>
      .cls-1 {
        fill: #ac9085;
      }

      .cls-2 {
        fill: #977a6a;
      }

      .cls-3 {
        fill: #e6f0ed;
      }

      .cls-4 {
        fill: #b5afa7;
      }

      .cls-5 {
        fill: #b9b1a7;
      }

      .cls-6 {
        fill: #cfcec9;
      }

      .cls-7 {
        fill: #cfc7be;
      }

      .cls-8 {
        fill: #866757;
      }

      .cls-9 {
        fill: #b8b5a7;
      }

      .cls-10 {
        fill: #9f8674;
      }

      .cls-11 {
        fill: #968273;
      }

      .cls-12 {
        fill: #917764;
      }

      .cls-13 {
        fill: #a87f75;
      }

      .cls-14 {
        fill: #afa59b;
      }

      .cls-15 {
        fill: #ad9c92;
      }

      .cls-16 {
        fill: #e4e0dc;
      }

      .cls-17 {
        fill: #a4a99d;
      }

      .cls-18 {
        fill: #9b816f;
      }

      .cls-19 {
        fill: #a89382;
      }

      .cls-20 {
        fill: #967a69;
      }

      .cls-21 {
        fill: #a48d80;
      }

      .cls-22 {
        fill: #a38c7c;
      }

      .cls-23 {
        fill: #dceff1;
      }

      .cls-24 {
        fill: #a18d7c;
      }

      .cls-25 {
        fill: #edeae7;
      }

      .cls-26 {
        fill: #b4a697;
      }

      .cls-27 {
        fill: #fefefe;
      }

      .cls-28 {
        fill: #d4d1ca;
      }

      .cls-29 {
        fill: #9c9085;
      }

      .cls-30 {
        fill: #ae9786;
      }

      .cls-31 {
        fill: #967b6d;
      }

      .cls-32 {
        fill: #b5a594;
      }

      .cls-33 {
        fill: #886a57;
      }

      .cls-34 {
        fill: #907463;
      }

      .cls-35 {
        fill: #b0aba0;
      }

      .cls-36 {
        fill: #997c6b;
      }

      .cls-37 {
        fill: #d5d8d3;
      }

      .cls-38 {
        fill: #8c7060;
      }

      .cls-39 {
        fill: #896f5e;
      }

      .cls-40 {
        fill: #ab968e;
      }

      .cls-41 {
        fill: #9a9086;
      }

      .cls-42 {
        fill: #fff;
      }

      .cls-43 {
        fill: #d3d2cb;
      }

      .cls-44 {
        fill: #9b8779;
      }

      .cls-45 {
        fill: #927563;
      }

      .cls-46 {
        fill: #816551;
      }

      .cls-47 {
        fill: #d6d2ca;
      }

      .cls-48 {
        fill: #927668;
      }

      .cls-49 {
        fill: #987d6d;
      }

      .cls-50 {
        fill: #baa698;
      }

      .cls-51 {
        fill: #daeeed;
      }

      .cls-52 {
        fill: #a0867b;
      }

      .cls-53 {
        fill: #aa968c;
      }

      .cls-54 {
        fill: #b2a8a0;
      }

      .cls-55 {
        fill: #957566;
      }

      .cls-56 {
        fill: #efe5e0;
      }

      .cls-57 {
        fill: #927564;
      }

      .cls-58 {
        fill: #bdb9af;
      }

      .cls-59 {
        fill: #b5a6a0;
      }

      .cls-60 {
        fill: #ccd4d0;
      }

      .cls-61 {
        fill: #a08b85;
      }

      .cls-62 {
        fill: #a18c7c;
      }

      .cls-63 {
        fill: #9d857e;
      }

      .cls-64 {
        fill: #c8d0cd;
      }

      .cls-65 {
        fill: #8a6d5c;
      }

      .cls-66 {
        fill: #b4a29d;
      }

      .cls-67 {
        fill: #a29083;
      }

      .cls-68 {
        fill: #846756;
      }

      .cls-69 {
        fill: #beafa1;
      }

      .cls-70 {
        fill: #e1e2df;
      }

      .cls-71 {
        fill: #b39e91;
      }

      .cls-72 {
        fill: #948c80;
      }

      .cls-73 {
        fill: #886958;
      }

      .cls-74 {
        fill: #896c5c;
      }

      .cls-75 {
        fill: #a1978e;
      }

      .cls-76 {
        fill: #dde1de;
      }

      .cls-77 {
        fill: #b09c8c;
      }

      .cls-78 {
        fill: #cab1a7;
      }

      .cls-79 {
        fill: #f6f8f7;
      }

      .cls-80 {
        fill: #eaedec;
      }

      .cls-81 {
        fill: #cdc6bd;
      }

      .cls-82 {
        fill: #b9b1a4;
      }

      .cls-83 {
        fill: #856957;
      }

      .cls-84 {
        fill: #9b8473;
      }

      .cls-85 {
        fill: #dfeae7;
      }

      .cls-86 {
        fill: #fbfbfa;
      }

      .cls-87 {
        fill: #a08976;
      }

      .cls-88 {
        fill: #b7a297;
      }

      .cls-89 {
        fill: #cfc3bd;
      }

      .cls-90 {
        fill: #9c887a;
      }

      .cls-91 {
        fill: #987b6a;
      }

      .cls-92 {
        fill: #c9baac;
      }

      .cls-93 {
        fill: #c2c3ba;
      }

      .cls-94 {
        fill: #957969;
      }

      .cls-95 {
        fill: #947b6b;
      }

      .cls-96 {
        fill: #aa9586;
      }

      .cls-97 {
        fill: #9f8878;
      }

      .cls-98 {
        fill: #c7bcb3;
      }

      .cls-99 {
        fill: #b1a59c;
      }

      .cls-100 {
        fill: #9f8373;
      }

      .cls-101 {
        fill: #896958;
      }

      .cls-102 {
        fill: #927867;
      }

      .cls-103 {
        fill: #d5d0c9;
      }

      .cls-104 {
        fill: #8f7162;
      }

      .cls-105 {
        fill: #c8b9ae;
      }

      .cls-106 {
        fill: #b39b8d;
      }

      .cls-107 {
        fill: #c5b8b1;
      }

      .cls-108 {
        fill: #a68c7d;
      }

      .cls-109 {
        fill: #9f897b;
      }

      .cls-110 {
        fill: #ab9183;
      }

      .cls-111 {
        fill: #f0efee;
      }

      .cls-112 {
        fill: #95887c;
      }

      .cls-113 {
        fill: #b49f90;
      }

      .cls-114 {
        fill: #8f7664;
      }

      .cls-115 {
        fill: #907362;
      }

      .cls-116 {
        fill: #b19e91;
      }

      .cls-117 {
        fill: #c1b3ab;
      }

      .cls-118 {
        fill: #cce7e5;
      }

      .cls-119 {
        fill: #d6cec5;
      }

      .cls-120 {
        fill: #8b705e;
      }

      .cls-121 {
        fill: #937a6a;
      }

      .cls-122 {
        fill: #a28b80;
      }

      .cls-123 {
        fill: #bfb7b1;
      }

      .cls-124 {
        fill: #aa978f;
      }

      .cls-125 {
        fill: #a69e95;
      }

      .cls-126 {
        fill: #927565;
      }

      .cls-127 {
        fill: #cac0b6;
      }

      .cls-128 {
        fill: #b4aba3;
      }

      .cls-129 {
        fill: #b3b5ad;
      }

      .cls-130 {
        fill: #a08978;
      }

      .cls-131 {
        fill: #ad9a88;
      }

      .cls-132 {
        fill: #85685b;
      }

      .cls-133 {
        fill: #998276;
      }

      .cls-134 {
        fill: #b19887;
      }

      .cls-135 {
        fill: #f0f0ee;
      }

      .cls-136 {
        fill: #a2988f;
      }

      .cls-137 {
        fill: #b9b3aa;
      }

      .cls-138 {
        fill: #9a8478;
      }

      .cls-139 {
        fill: #9e8c81;
      }

      .cls-140 {
        fill: #aa9887;
      }

      .cls-141 {
        fill: #b1a499;
      }

      .cls-142 {
        fill: #fbfcfb;
      }

      .cls-143 {
        fill: #b6aca6;
      }

      .cls-144 {
        fill: #a69689;
      }

      .cls-145 {
        fill: #dddbd5;
      }

      .cls-146 {
        fill: #86695a;
      }

      .cls-147 {
        fill: #927666;
      }

      .cls-148 {
        fill: #8e7364;
      }

      .cls-149 {
        fill: #e8ece9;
      }

      .cls-150 {
        fill: #decac2;
      }

      .cls-151 {
        fill: #f0f3f1;
      }

      .cls-152 {
        fill: #beaca0;
      }

      .cls-153 {
        fill: #948076;
      }

      .cls-154 {
        fill: #8e7c74;
      }

      .cls-155 {
        fill: #927b6c;
      }

      .cls-156 {
        fill: #a58f85;
      }

      .cls-157 {
        fill: #bbbfb4;
      }

      .cls-158 {
        fill: #a8a096;
      }

      .cls-159 {
        fill: #967d6d;
      }

      .cls-160 {
        fill: #a79284;
      }

      .cls-161 {
        fill: #937563;
      }

      .cls-162 {
        fill: #bcada0;
      }

      .cls-163 {
        fill: #c6dcd9;
      }

      .cls-164 {
        fill: #836756;
      }

      .cls-165 {
        fill: #826352;
      }

      .cls-166 {
        fill: #a08979;
      }

      .cls-167 {
        fill: #a38c7b;
      }

      .cls-168 {
        fill: #fbfcfc;
      }

      .cls-169 {
        fill: #ac8b80;
      }

      .cls-170 {
        fill: #8e6c5a;
      }

      .cls-171 {
        fill: #937061;
      }

      .cls-172 {
        fill: #b0afa7;
      }

      .cls-173 {
        fill: #a99686;
      }

      .cls-174 {
        fill: #b4aca3;
      }
    </style>
  </defs>
  <path class="cls-45" d="M45.2,73.33c-2.97,2.97-7.84.24-8.4-3.98l-.51.18c-.61-1.13-1.25-1.76-1.91-1.9.32,1.48-.07,3.88-1.91,3.16-.25.54-.46.55-.64,0-1.3-.22-1.39-.82-1.27-1.9,0-2.72,3.4-6.28,5.73-8.21-.42-2.37,1.71-4.3,3.97-5.06l-.19-2.59c-1.62-.2-2.04-1.44-1.23-3.75l-.64.64h-.64c-.54-.47-1.18-.89-1.91-1.26-.22-1.13.37-1.9,1.81-2.3l.1-.87c.74-1.66,4.48-2.22,4.44,0v.64l1.27.64c.57.24.59.45,0,.64.61,1.71-1.01,1.48-.25,1.18,2.09-.57,5.76-2,4.07-3.07-.64.37-1.06.37-1.27,0,1.11-1.26,4.39-4.23,4.44-1.26.22-.55.44-.55.64,0,.81-.34,1.96-.64,2.55,0,.51,1.09.14,1.5-.64.64.07,1.6-.07,1.71-1.27.64-.46.5-.35.71,0,1.26,1.4-.02,2.7-.24,3.94-.71l.52,1.97,1.27.64c.19.07.46-.07.64,0,.44.66-1,.84-.93.82,1.57-.52,3.51.05,4.75,1.08.76-.55,1.37-.02,1.91.64.96-.27,1.59-.89,1.91-1.9,2.74.44.78,7.12-1.91,4.42l-.64.64c-.79,1.71-.79,3.19,0,4.42-.12.96-.86,1.81-2.25,2.59.3,2.91-.22,4.57-1.57,5.01q-.9-.06,0,0c1.25-2.37,4.05,1.91,4.38,3.07.02.1-.79.27-1.2.1l-.42.6c2.38,1.43-.81,2.47-1.17,1.6-.05-.12,1.76-1.44.96.96-.73,1.36-3.26.86-3.18-.64-.05-.66-.66-1.08-1.84-1.28l-.07-1.26c-1.27-2.62-3.38-3.24-6.35-1.9-.69.17-1.33-.47-1.91-1.9-.22.55-.42.55-.64,0-1.05.6-1.82.57-1.27-.64-1,.62-1.06.45-.64-.64-.25.34-.46.35-.64,0-1.62-1.7-.46-2.96,3.51-3.8-1.74.08-2.91-.34-3.51-1.28.14-3.36-.71-4-2.55-1.9-.47.71-.84,1.75-1.27,2.54-.64.47-1.06,1.14-1.27,1.9-.07.18.07.45,0,.64l-.64,1.26c-.08.35.05.84,0,1.26,1.32,1.9,2.8,3.8,4.44,5.69.15.1.47-.08.64,0,.39.4.32.82,0,1.26,1.76-.76,2.15,2.2.64,1.26v.02Z"/>
  <path class="cls-42" d="M48.99,92.33c-.3,1.78-4.09.74-4.44-.64-2.13-1.43-4.07-3.02-5.84-4.77.44-1.56-1.25-2.79-2.42-2.82-.51,1.7-2.31,1.76-2.55,0-2.11-.77-3.72-6.3-1.91-8.21-.3-.3-.35-.52,0-.64-1.82-.45-1.77-2.07,0-2.54.05-.89.25-1.53.64-1.9.54-1.06,1.35-1.97,1.91-3.16,1.5-.6,1.86,3.49.64,3.8,1.23,3.43,2.53,5.68,6.42,7.32.2.13-4.36-1.9-3.23-2.91l-.64-.64c-.54-.25-.54-.45,0-.64-.83-.12-1.1-.55-.64-1.26-.81.42-1.03-.22-.64-1.9-.98-.34-.86-1.51,0-1.9-.2-1.98.39-1.31,1.28-.34s1.89,3.24,2.04,3.36c.76.55,4.36.72,5.57.77.81.47.98-.07.54-1.6l.73-.3c1.05.54,2.18.96,3.18,1.6,1.22.79,1.22,2.55,3.82,2.82-.81.47-1.88.89-3.18,1.26-.59,1.26-2.04,1.09-3.18.64-1.1,1.33-1.32,3.04.64,3.16.25-.54.47-.54.64,0,.68.32,1.3.1,1.91-.64.25-.54.47-.54.64,0,1.52-1.43,2.79-2.07,3.82-1.9.05.18,1.93,2.69,2.28,3.14.29.35,3.02,1.23,1.13,1.91-.76.29-2.08-.29-2.77.97l2.53,4.1c-.25.54-.46.55-.64,0-.54-.25-.56-.45,0-.64-1.66-2-3.13-2.64-4.44-1.9-.44,1.86-1.22,3.88-2.33,6.05l-1.49.27-.03.05Z"/>
  <path class="cls-33" d="M94.16,109.33c-1.71.96-3.63.13-1.91-1.26h.64c-.51-.81-.95-1.65-1.27-2.54-.9-.07-1.35.3-.64.64,2.8-.86,1.33,2.55,0,2.54-.25.54-.46.55-.64,0-3.13.54-5.46-.3-6.99-2.54-1.69-2.05-3.6-3.95-5.71-5.64l.63-.67c-.07-.18.07-.44,0-.64.3-.3.3-.72,0-1.26-.05-.2.03-.44,0-.64-.66-1.38-1.08-2.86-1.27-4.42,0-.22-.03-.44,0-.64l1.74-2.42c1.25-4.77,6.3-6.23,7.79-.74.07.2-.07.45,0,.64l1.82,2.7c.57-.07,1.03.08,1.35.45,1.08-1.63,4.95-.92,4.44,1.26.64.6.84,1.23.64,1.9q-.17.12,0,0c.14-.84,1.37-1.23,1.91-.64.78-.4,1.05-.12.64.64.54.24.54.45,0,.64l-.1,2.18c-3.95.02-4.59,1.76-1.79,4.13,3.06-.54,3.19,3.29,0,3.16.24.42.66.64,1.27.64.93-6.13,5.32-.6,2.7,1.48l-5.25,1.06v-.02Z"/>
  <path class="cls-42" d="M105,104.28c.81-1.5.61-1.5-.64,0-.34.55-.61.71-1.27.64-.34.15-.56-.07-.64-.64-.52-.27-.54-.49,0-.64-1.13-.77-2.2-1.41-3.18-1.9-1.05-.18-1.5-1.08-.64-1.9-1.17.27-1.52.2-.64-.64-.56-.3-.57-.5,0-.64-.51-.87-.34-2.55.64-1.9,1.98,2,4.49,2.18,6.82,3.65,1.11.71,4,3.93,4.29,3.93.2,0,1.62-1.9,2.7-2.35,2.43-.99,4.29-.17,6.11-.35.98-.1,2.4-1.61,3.48-.99,1.45.86,2.36,5.56.64,6.8-.35.27-7.43-.55-8.82.08-.15,2.12-.34,3.26,2.11,2.4.3-.1,4.48-3.78,3.61-.5l-.64.64c-.25.71-.19,1.85-.81,2.37-.95.79-4.92,1.76-6.2,1.13-2.09-1.04.41-3.44-4.75-.96-2.92-3.83.86-4.5,3.48-1.9.86-6.33-4.76-1.58-5.71-6.32l.03-.02Z"/>
  <path class="cls-73" d="M50.34,108.09c-3.02,1.23-3.67-2.57-.64-3.16-.24-1.65-1.3-1.86-3.18-.64-.76-.05-1.4-.47-1.91-1.26-.93.59-.98.4-.64-.64-.84-1.21-.84-1.83,0-1.9.22-1.5,1.74-2.91,3.18-1.9.2-.5.56-1.16,1.27-1.26-1.37-1.21-1.72-4.92.64-5.06.91-2.25,2.04-4.85,3.82-6.32,1.33-.69,2.8-.07,4.44,1.9v.64c-.25.55-.47.57-.64,0-.24.55-.44.55-.64,0-1.66.76-2.03.54-1.91-1.26-.47.62-.68,1.24-.64,1.9,1.35,2.2,1.77,4.32,1.27,6.32.14.49.35.47.64,0-.39-.25-.41-.47,0-.64.51-.84.44-1.66,0-2.54-2.62-1.6-1.4-5.86.64-2.54.27-.55.49-.57.64,0,.74-.97,1.01-.45,1.27.64.64-.45,1.06-.03,1.27,1.26.08,1.14.1,2.67,0,3.8l-.64,1.26c-.03.22.03.44,0,.64l-.64,2.54c-.2.55-.47,1.56-.64,1.9-1.91,1.31-3.4,2.99-4.44,5.06l-1.27,1.26c-.19.07-.44-.05-.64,0-.24.32-.46.32-.64,0h.05Z"/>
  <path class="cls-147" d="M108.8,80.27c-.41-.03-.61-.25-.64-.64.03-.22-.05-.47,0-.64.1-1.21-.1-1.85-.64-1.9-.27,1.29-1.1,1.29-1.27,0l-.64-3.16c0-.22.02-.44,0-.64l-.64-1.26c-.05-.22.05-.45,0-.64-.52-.77-1.17-1.61-1.91-2.54-2.08-.52-2.2-3.39,0-3.8,3.77,4.1,8.16,7.46,13.16,10.08l.83,1.29c.03.2,0,.44,0,.64.27.27.3.47,0,.64.46.74,1.1,1.38,1.91,1.9.57.27.57.49,0,.64l-1.39,1.85c2.06,1.18,5.02,5.96,1.39,5.11-.47,1.13-1.49,1.41-3.02.91-2.15,3.17-3.51,1.97-4.12-3.59-1.72-.89-2.74-2.3-3.02-4.25h.02Z"/>
  <path class="cls-39" d="M79.48,62.53c-.49-1.06-1.11-1.91-1.91-2.54-.2-.03-.44,0-.64,0-.42-.29-.83-.18-1.27,0-.98.08-2.08.79-3.18.64-.47-.69-.47-1.53,0-2.54v-.64c.15-.84-.08-1.28-.64-1.9v-.64c-1.05-2.4-.73-3.51.64-5.69,1.13-.57,1.49-.25.64.64l.63,2.42c1.6-.82,1.66.25.64,1.38.22.37.42.37.64,0-.64-1.85.83-2.91,4.41-3.17l1.32-.62c.68-.42,1.05.12,1.91-1.26.14-1.24.34-2.3.64-3.16-.27-.94-.51-2.3.64-1.9-.66-.87-.51-1.68.64-1.26.25-.54.46-.55.64,0,.14.45.32.45.64.64.34.39.56,1.24.64,2.54,2.04,1.53,2.69,2.81,1.91,3.8-.68,1.34-1.32,1.13-1.91-.64q-.12-.17,0,0c1.81.52,2.26,9.66,1.77,10.35-.93,1.29-2.23,1.51-2.4-.24-.37-1.14-.79-1.56-1.27-1.26-.25.54-.46.55-.64,0-.63-.08-1.22-.94-.64-1.26l.64-.64c-1.76-.34-1.79-.72-1.91-2.54-.51.94-.95,1.16-1.27.64l-.64.64c.68-.37,1.27-.18,1.27.64,1.25-1.08,1.32-.91,1.27.64.54.25.56.45,0,.64.51.22.51.44,0,.64.07,1.13-.63,1.58-1.27.64-.34.5-.74,1.02-1.27,1.26,2.13,1.44,1.69,6.69-.64,3.8l-.05-.03Z"/>
  <path class="cls-2" d="M110.04,67.61c-.3.03-1.15.07-1.27,0-1.06-1.88-2.11-3.16-3.18-3.8-.14-.1-.49.1-.64,0-1.01.55-1.18.39-.54-.54l-2.65-1.98c-1.67.3-1.88-.72-.61-3.11l-.51-2.81c-1.6-.69-2.55-2.12-.78-2.94.22,0,.44-.03.64,0,1.86,1.33,4.54,2.82,6.99,2.54.08.18.02.91,0,1.26-.54,1.5.52,2.12,3.18,1.9.22.02.44,0,.64,0,1.23.71,2.45,1.04,3.87.99.56,2.81,2.03,4.59,3.77,6.6,4.41,1.23-1.27,2.82-3.82,1.9-1.57-.64-3.06-.86-4.44-.64l-.64.64-.02-.02Z"/>
  <path class="cls-65" d="M92.27,74.61c-.79.47-1.89.25-1.27-.64.08-.2-.1-.52,0-.64.93-.6,2.7-1.63,3.18-.64,4.81-3.41,6.3-6.57,4.44-9.49-1.22-3.56-2.91-5.88-5.08-6.95,0,.22.02.44,0,.64-.22.77-.42,1.39-.64,1.9-3.21.54-2.04-5.22-.73-6.62,1.44-1.51,4.36-.86,5.81.29.49-1.23,1.13-1.28,1.27,0,.3-.55.52-.57.64,0,.54,2.7,1.91,1.41,2.53,1.93.07.05-.51.96-.41,1.44.93,4.47.15,1.98-.51,4.22-.24.77.29,1.11.29,1.26l.57.74c-1.27-.12-1.03.91.69,3.04-.56,1.34-.03,2.62,0,3.8-.51,1.41-.71,1.61-1.91.64.1,1.36-.74,2.84-2.55,4.42-.32.1-.88-.08-1.27,0-1.06.71-2.13.91-3.18.64-.59.1-1.32-.1-1.91,0l.02.03Z"/>
  <path class="cls-8" d="M74.46,74.54c-.03.76-.24,1.39-.64,1.9-.08.03-.59.03-.64,0-1.96-1.8-.79-3.91.64-5.69,2.45-1.86,4.36-3.96,5.73-6.32.03-.2,0-.44,0-.64-.29-.69-.29-1.11,0-1.26l1.91-.64v-.6c-1.72.27-2.18-1.85-1.27-2.54.25-.71.68-1.13,1.27-1.26.22-.34.86-.52,1.27-.64,1.35.1.73,1.11,0,1.9,1.08.59,1.23,1.61.44,3.06,1.76-1.28,3.09-1.44,4-.52,2.64-1.44,3.99,3.85.64,3.16-.69.39-1.42-1.04-1.27-1.26.05-.07.93,1.39,0,1.26,1.4.77,2.03,1.83,1.91,3.16.47.25.49.45,0,.64-.05.92-2.43,3.12-3.06,3.41-.3.15-5.86-.12-3.94-1.51.07-.37-.14-.37-.64,0,1.23,1.16,1.05,1.44-.64,1.26.07.67-.35,1.29-1.27,1.9-.19.07-.44-.05-.64,0h-2.53c-.12-1.31-.34-1.31-.64,0l-.64.64c-.05.2.07.45,0,.64l.02-.03Z"/>
  <path class="cls-130" d="M45.17,41.07c-.35-.1-.9.1-1.27,0-1.23.3-1.66.08-1.27-.64-1.5,1.8-2.57,1.38-3.18-1.26l-1.27-.64c-1.06-.2-3.02.03-3.18,0-1.08-.81-.86-2.02-.64-3.16v-.64c-.68-.64-1.01-1.63,0-1.9.32-1.85.96-2.69,1.91-2.54.96-.44,2.03-.64,3.18-.64.25-.54.46-.55.64,0,.14.71-.03,1.56-.64,1.9l1.27,1.26c.47-.13.9.08,1.27.64.2.87.83,1.29,1.91,1.26h.64c.2-.03.44,0,.64,0-.57.64.07.86,1.91.64,1.15-.64,1.54-.27.64.64.08,1.26.47,1.21,1.15-.15l.76.15c-.98-2.92.34-4.01,1.91-1.26,1.91,1.19-.47,4.75-1.91,5.69.84,4.1-2.28,2.55-4.44.64h-.03Z"/>
  <path class="cls-42" d="M34.36,117.58c-.1.74-.66,1.21-1.27.64-1.71-1.55-2.15-2.64.64-3.16.42.76.42.55,0-.64-.95-1.14-.98-.77-1.91-2.54-.14-.32-.34-.32-.64,0-2.15-.24-4.43,1.01-6.35,1.26-.3-.29-.73-.29-1.27,0-1.32-.62-.66-1.6,0-2.54.49.42.69.42.64,0,.12-.12-.41-.59.64-1.26.71.3,1.25.35.64,0,1.54-1.6.46-3.8.69-4.67.12-.4,1.06-.82,1.88-3.81.95-3.48,4.86-1.78,5.69.91,1.23.18,1.06.79,0,1.26.54.22.56.42,0,.64-.32,1.34.61,2.81,2.79,4.37l-.24.69c-2.67,1.24-1.42,1.8-1.27,3.16q-.43.22,0,0c.3,2.92,2.5,4.7-.64,5.69h-.03Z"/>
  <path class="cls-38" d="M89.73,39.17c.37,1.09-.41,1.09-1.27.64-.64.39-.83.07-.64-.64-.69.82-1.13.82-1.27,0-.54-.1-.86-.71-.64-1.26-.74-.13-.96-.34-.64-.64-1.37.05-2.03-1.41-.64-1.9.25-.54.46-.55.64,0,1.44.12,2.5.32,3.18.64l.64-.64c.1-.87,2.13-2.05,2.77-1.46.47.44,1.06,2.86.41,2.72-.27.22-.25.42,0,.64.39-.99,1.5-.87,1.91,0,.2.3.42.3.64,0,.22-.54.44-.54.64,0l1.27-.64.19-.74c1.71-.94,4.46-2.97,2.99-4.32-.84-1.43-.64-2.07.64-1.9.95-.55,2.16-.92,3.18-.64,1.6.17,3.02,2.37,2.55,3.8-.27.69-.49,1.33-.64,1.9.08,1.61-.14,3.29-.64,5.06-.25.08-2.45.07-2.55,0-.14-.34-.78-.34-1.91,0-.56.64-.98.22-1.27-1.26-.93-.34-1.69-.59-2.55,0-1.49,1.39-3.85.69-5.73,0-.49-.45-.76-.4-1.27,0,.54.25.56.45,0,.64h.02Z"/>
  <path class="cls-42" d="M15.96,109.97c-.32.55-.25,1.81-1.25,2.25-.41.17-1.93-.29-1.93-.67.03-1.58,2.38-1.71,2.55-2.55.15-.69-1.03-1.39-1.13-2.02-.29-1.65.03-5.46,1.81-6.2,1.13-.49,1.94.29,2.72.13.98-.18,2.04-1.61,3.6-1.06-.84,2.13,1.01,4.2,1.18,5.49.15,1.11-1.01,1.19-1.18,1.46-1.03-.57-1.03-.35,0,.64-.84.91-2.75,2.23-3.82,2.54-.9-.42-1.69-.52-2.55,0v-.02Z"/>
  <path class="cls-42" d="M59.17,108.74q.53-.57,0,0c-.59-.27-2.97-.18-2.48-1.51.19-.5,5.24-7.41,5.66-7.63,2.91-1.5,2.85,1.38,3.61,1.56.37.1,2.11.1,2.11,0v-10.75c-6.94,1.48-5.42-4.05-1.03-3.21.74.15-.02,1.6,1.03,1.31.39-3.41-.81-7.58.64-10.75.51,5.24.49,10.57,0,15.81.47,2.52.47,5.07,0,7.59.42,1.75.2,3.23-.64,4.42h-1.91c-.39-.07-.93.1-1.27,0-.56-.05-.98.37-1.27,1.26.2,2.65,2.16-.02,1.91,2.52-1.59-.18-3.24.82-4.76.66-1.27-.15-1.42-1.21-1.59-1.29l-.02.02Z"/>
  <path class="cls-22" d="M19.78,67.59c-.35.07-.86,0-1.27,0-.54-.25-.56-.45,0-.64-2.87-.82-2.4-4.4-.64-3.16,2.53-.29,4.43-2.42,5.68-6.4.35-.6.68-.96,1.32-.55.22.13.41.57.64.64,1.18-.71,1.82-.71,1.91,0,.54.25.56.45,0,.64-.83.3-1.05.5-.64.64,1.88.82,2.74,1.66,2.55,2.54-.51,1.26-.93,2.52-1.27,3.8-1.55.59-3.02,1.21-4.44,1.9l-.91-.12c1.17-.52-.63,1.55-2.28.76-.24.32-.44.34-.64,0v-.03Z"/>
  <path class="cls-42" d="M80.17,112.51c-1.67,1.36-4.85,1.76-5.12-.99-.29-2.97,5.61-4.13,5.12-7.86,1.71.6,3.19,2.28,4.44,5.06.27-.55.49-.57.64,0,.54.25.56.45,0,.64-.22.84.64,2.05.64,2.54l-1.27.64c-.78-.22-.95-4.45-3.82-1.26l-.64,1.26v-.02Z"/>
  <path class="cls-77" d="M36.3,60.69c-.68,1.08-1.22,1.34-1.27,0,.2-1.01-.02-1.63-.64-1.9-.22.54-.44.55-.64,0-.29-.24-.3-.44,0-.64-.08-.66.1-.91.64-.64.66-.49.66-1.33,0-2.54-1.17.55-1.57.17-.64-.64-.22-.29-.44-.29-.64,0,.08.99-.63,1.44-1.27.64-1.81.47-1.17-2.87.64-1.9.61.07,1.28,0,1.91,0,1.76-.89,3.41-2.07,4.44-3.8l.64,2.54,1.89-.64c-.29,1.48.41,4.1.05,5.31-.19.62-1.4.35-1.88.77-1.37,1.19-2.79,2.1-3.24,3.41v.02Z"/>
  <path class="cls-42" d="M122.06,13.32c.68,1.04-.74,3.39-.47,4.55.15.66,7.53,4.43,3.4,5.49-1.62.42-2.2-1.46-3.26-1.71-.54-.13-1.32.45-2.11.13-3.82-1.56-1.62-5.36-1.15-8.38.63-.79,3.24-.66,3.6-.08h0Z"/>
  <path class="cls-20" d="M22.33,86.57l-.64.64h-.64c-2.38,2.35-3.87-2.62-1.91-4.42-.59-.24-.59-.86,0-1.9,0-.22.03-.44,0-.64-1.42-1.43-1-2.91,1.27-4.42.03-.22-.05-.45,0-.64.61-1.26,1.15-1.44,1.27,0,2.01.54,2.75,1.46,2.21,2.81,1.32-.32,2.06.02,2.25.99,1.08-.1,1.08.32,0,1.26-.64.92-1.91,1.56-3.82,1.9,1.67.12,3.29.87,2.55,2.54.69.52.17,1.83-.64,1.26-.47,1.7-1.52,1.73-1.91,0q-.15-1.2,0,0c.57.27.59.49,0,.64l.02-.02Z"/>
  <path class="cls-148" d="M64.92,60.64c-.19-.08-.54.1-.64,0-1.67.22-2.09-.54-1.27-1.9-.61-.17-2.57.39-2.55-.32,1.13-2.2.07-3.38,2.55-4.1-.05-.39.15-.59.64-.64,2.16-.86,3.72-2.27,1.91-4.42-.41-.25-.42-.47,0-.64-.93-1.61-.98-2.62.64-1.26,2.31-.27,2.01.74,1.27,2.54.05.2-.05.44,0,.64-.29.18-.29.39,0,.64.07.39-.02.84,0,1.26-.24.5-.24,1.14,0,1.9-.03.2.03.44,0,.64l-.64.64c-.05.2.05.44,0,.64.19,3.16-.44,4.64-1.91,4.42v-.03Z"/>
  <path class="cls-109" d="M120.27,92.28c-.15-.29-.37-.29-.64,0-.22,0-.47.05-.64,0-1.32-1.18-2.8-1.8-4.44-1.9-.56.2-1.82-.13-2.55,0-.46-.49-.46-1.13,0-1.9,0-.42.03-.84,0-1.26l-.64-1.9c-.22-.59-.19-.69-.64-1.26-.81.27-1.81.3-1.91-.64-.03-.84.03-1.7,0-2.54-.3-.24-.3-.44,0-.64,1.47,1.36,1.17,2.44,1.27,2.54.37.39,2.89-1.33,3.11.3.02.2-.59,1.02-.52,1.81.12,1.36.84,2.72.57,4.2,2.57.6.46-2.39.64-2.52l5.08.62c.54.24.56.44,0,.64-.03.17-.03.47,0,.64,1.28,1.41,1.91,2.67,1.91,3.8-.14.07-.42-.05-.64,0h.05Z"/>
  <path class="cls-170" d="M43.28,109.35c-.41,0-.86.03-1.27,0-.54-.25-.56-.45,0-.64-3.04-.45-1.94-3.06,0-2.54.71-2.07,2.36-2.54,3.82-.64-.19-.64-.22-1.41.64-1.26.35-.62.63-1.76.69-1.83.14-.13,2.84.6,3.75-.05.44,1.24-1.05,1.9-1.27,2.52q-.69-.34,0,0c-.49,1.36-1.47,3.63.64,3.16.27.24.27.44,0,.64-.2.02-.44,0-.64,0-2.09-.07-4.21.15-6.35.64h-.02Z"/>
  <path class="cls-115" d="M88.43,67.62c-.49.08-1.79-.67-2.53-.3,1.42-1.19.73-1.81.63-2.86h1.27c1.06-1.28,1.25-3.68-.64-3.16-.84-1.61,1.2-2.94,1.91-1.26,2.09,1.48,3.09,1.16,3.01-.94l.81-.34c.25-.54.46-.55.64,0,.02.62-.07,1.28,0,1.9.81.96.96,1.97.64,3.16-.03.22.03.44,0,.64l-.64,1.26c-.07.2.08.47,0,.64l-.64,1.26c-.25.08-.88,0-1.27,0-.54-.76-1.6-.76-3.18,0h0Z"/>
  <path class="cls-120" d="M104.94,50.54c-.63.12-1.88.07-2.55,0-1.17.17-1.81-.05-1.91-.64-.96,1.24-2.53,1.65-3.18,0-3.89-.86.49-4.82,2.55-4.42.19.07.44-.05.64,0l.64.64c.19.07.44-.05.64,0l1.91.64h.64l1.45.59c3.73-.22,1.23,2.12-.81,3.21l-.03-.02Z"/>
  <path class="cls-42" d="M65.56,72.68c-1.62.15-3.06-1.7-3.18-3.16l.63-.3c-.47-2.27-2.87-2.07-3.8-2.86.86-3.65-1.6-6.33,3.82-7.59.83.25.93,1.55,1.27,1.9-3.85,2.86-1.13,2.08-.3,3.12,1.25,1.55-2.21,2.18-2.23,2.87-.02.55,3.5,3.31,3.8,6.01h0Z"/>
  <path class="cls-42" d="M47.94,126.4c.76-.22.22-1.46.76-1.24"/>
  <path class="cls-90" d="M95.41,109.35c-.52.34-1.01.55-1.27,0,.47-1.18,3.89-1.33,5.08-1.28l-.64-3.16c-1.11-.07-.59,1.66-1.89,1.9-.61-.03-1.03-.25-1.27-.64.03-.66,1.32-.44,1.32-.99.02-.44-1.13-2.1-1.32-2.17-.81-.84.34-1.43,1.27-1.26,2.26.2,4.17.84,5.73,1.9.05.15,0,.42,0,.64.88,1.43-.52,2.65-1.91,3.16-.46.49-.49.82-1.27,1.26l-1.27.64c-.71.13-1.76,0-2.55,0h-.02Z"/>
  <path class="cls-121" d="M84.02,43.59c-.32,1.6-.44,1.21-.64,1.9-.37.02-.57-.18-.64-.64-.02-.22.03-.44,0-.64l-.64-1.26c-.05-.22.05-.45,0-.64l-1.91-3.8c-.07-.2.07-.45,0-.64-.66-.77-1-1.71-1.17-2.69-1.59.02-2.04-1.19-1.39-3.63-.66-1.13-.73-1.95.64-1.26.51-.08.73.13.64.64l1.23,1.41c3.7,1.8,4.76,3.44,3.21,4.92-.2,0-.51-.05-.64,0l-.64.64c-.05.15-.02.47,0,.64,1.13.54,1.35.96.64,1.26.98.91,1.4,2.18,1.27,3.8l.03-.02Z"/>
  <path class="cls-146" d="M56.71,39.79v.64c-.24.25-.44.25-.64,0-.3-.24-.3-.44,0-.64-.54-.05-.54-.47,0-1.26-.56-.24-.56-.45,0-.64-.79-.87-.63-1.73.49-2.57-.49-1.08-.44-1.9.14-2.49,1.17-1.34,3.45-3.09,5.08-3.8,3.09-2.17,1,2.57-.64,3.8.29.72-.05,1.44-.64,1.9-.12.32.12.92,0,1.26l-.64.64c-.07.2.07.47,0,.64l-.64.64c-.08.17.08.47,0,.64-.24.27-.44.29-.64,0-.34.92-.98,1.93-1.91,1.26l.05-.02Z"/>
  <path class="cls-133" d="M89.07,82.17c-1.44-.24-2.69-1.02-3.82-1.9-.17-.08-.47.08-.64,0-1.37-1.38-2.65-3.59,0-3.8.57-.05,1.33-.07,1.91,0,2.77.55,4.46,1.39,5.08,2.54,1.15.71.73,1.76-1.27,3.16-.37,0-.98.08-1.27,0Z"/>
  <path class="cls-89" d="M66.03,5.67c1.28.07,1.74.59,1.44,1.9.29,1.5-.98,2.55-3.82,3.16l.02.03c-.93-.1-.76-.2-1.27-.64v-.64c0-.22.03-.44,0-.64.3-.18.3-.39,0-.64-.59-.25-2.33.18-3.18,0l-.64-.64c-.2-.08-.54.1-.64,0l-.64-.64"/>
  <path class="cls-21" d="M54.14,72.66c-.52.52-1.39.54-1.91,0-.1-.05.1-.49,0-.64-3.04-1.85-4.31-3.95-3.82-6.32.86.62,1.25,1.41,1.91,1.9,1.91-1.85,5.56-.97,6.35,1.9.83.1,1.71-.08,2.53,0l-1.91.64,1.74,1.11-.47.79c-.42.17-.84-.05-1.27-.64-.29-.08-.86,0-1.27,0-.19-.3-.39-.3-.64,0-.24.03-.51-.07-.64,0l-.64.64c-.07.03,0,.64,0,.64l.03-.02Z"/>
  <path class="cls-27" d="M96.07,51.21c-1.93,1.53-6.64-1.41-6.35-3.8-2.94-3.04,1.89-1.33,3.85-.27.14.05-2.94-.91-1.94-1.63,2.16.49,3.26,1.88,5.59.84.81-.35.69-1.43,1.11-1.5,1.66-.24,1.47.62,1.55.66-1.91.49-3.61,2.3-2.55,4.42.88,1.24.46,1.66-1.27,1.26v.02Z"/>
  <path class="cls-167" d="M47.1,66.99c-.2.82-2.21.82-2.55.64-1.52-3.66-1.3-6.4.64-8.21,7.38-1.43,5.56,4.5-.64,3.16.39.5.49,1.7.64,1.9.19.3.39.3.64,0,.22.2.46.5.64.64.12.55.32.97.64,1.26.51.27.52.47,0,.64l-.02-.02Z"/>
  <path class="cls-42" d="M76.96,31.61c.25-.54.46-.55.64,0,1,2.05,1.79,4.17,2.55,6.32-2.67-1.68.57-4.03-3.75-2.47-1.01,1.09,2.26,4.27.27,4.35-.25,0-3.29-2.13-4.76-1.26.69-2.97,2.3-5.53,5.73-5.06.15-.79-.35-1.28-.64-1.9l-.03.02Z"/>
  <path class="cls-27" d="M30.58,68.88c-.95,1.06-2.8,2.97-3.82,1.9l3.82-3.78c-1.49.57-3.13-1.21-4.02-1.16-1.86.12-2.4,2.7-3.6,3.06-1.5-.84-.83-2.28.64-1.9,1.39-.94,2.64-2.07,4.44-1.9l1.6-.62c1-1.51,2.91-4.1,4.76-3.81.25-.54.46-.55.64,0h1.27c-1.49,4.2-3.26,4.74-5.73,8.21h-.02Z"/>
  <path class="cls-74" d="M50.91,44.24c.02-1.76,2.6-2.81,2.55-.64.56.22.56.44,0,.64-.84-.07-1.72.08-2.55,0Z"/>
  <path class="cls-74" d="M51.59,46.73c-.42-.32-.51-.99,0-1.26.56-.55,1.18-.55,1.27-.64,1.05,1.01,1.45-.45.64-1.26-1.6-1.39,1.2-3.71,2.55-3.8.03.22-.05.45,0,.64,1.79-.55,2.21-.13,1.27,1.26.25.66.03,1.51-.64,2.54-.05.2.03.44,0,.64l-.64,1.9c-.07.18.05.44,0,.64v.64c-.49-.24-1.74-1.46-1.91-1.26l.64,2.2c-.66,1.14-2.42-1.31-3.19-2.2l.02-.03Z"/>
  <path class="cls-110" d="M33.77,103.67c-.05-.2.05-.44,0-.64.17-.89,1.54-1.51,1.91-.64,2.36.74,3.63,2,3.82,3.8.22.3.42.3.64,0,.42-.4.64-.82.64-1.26-.54-1.81.29-2.22,1.27-.64,1.76.4,1.76,1.02,0,1.9-.08.37-2.25.39,0,2.54-.3.47-.86.37-1.27,0h-.64c-.19-.3-.39-.3-.64,0h-.64c-1.91.27-5.73-2.99-5.08-5.06Z"/>
  <path class="cls-48" d="M121.51,68.26c-.69.22-5.84,1.09-6.05.84-.19-.22-.27-.52-.32-.84-.54-.25-.56-.45,0-.64,1.11-.52,1.42-1.33,1.28-2.54.32-.32,1.76,1.65,2.23,1.9,1.62.86.27-1.18.3-1.26.73-2.96,3.34-2.82,4.44,0,.03.18.02.45,0,.64l-.64,1.26c-.44.6-.86.82-1.27.64h.02Z"/>
  <path class="cls-27" d="M68.72,11.35c-.76,1.38-2.57.34-3.19-.64v-.72c2.77-.27,5.32-.44,7.65-.54-.81-2.64,3.31-3.01,3.82-1.26,4.86,4.05-5.73,3.38-8.26,3.16h-.02Z"/>
  <path class="cls-126" d="M33.79,89.76c-.86,0-1.72-.62-2.55-1.9-.03-.22.03-.44,0-.64.29-.79.71-1.43,1.27-1.9.17-1.81.59-2.23,1.27-1.26.63-.15,1.77.03,2.55,0,3.9,1.19,4.39,5.09-.76,4.32-.19,1.11-1.08,2.32-1.79,1.38h.02Z"/>
  <path class="cls-97" d="M21.69,89.14c-3.83,2.6-8.04,3.75-3.61-1.65-.39-.3-.66-.81-.83-1.51-.57-.27-.57-.49,0-.64-1.01-.96.95-3.26,1.91-2.54.02.99-.24,2.62-.03,3.38.14.47,1.35.6,1.94,1.04,2.09-.5,2.72-.07,1.91,1.26.07.69-.12,1.04-.64.64-.22,0-.44-.02-.64,0v.02Z"/>
  <path class="cls-68" d="M63.63,77.11c-.25.08-.9,0-1.27,0l-.46-.66c1.42-2.07,1.45-2.67-.17-3.78-.41-.25-.71-.71-1.27-.64-.14-1.24,1.59-.02,1.27-1.24l-1.13-.1-.76-1.8c1.05-.27,1.72.34,2.53.62,2.09.71,2.08,1.23,3.18,3.16.07.6.12,2.05,0,2.54l-1.91,1.9h-.02Z"/>
  <path class="cls-27" d="M45.86,45.48h-1.27c-.22.55-.44.55-.64,0l4.44-1.9-3.18-2.52c.74.2,1.35,1.44,2.79,1.31.17-.02.96-1.48,1.66-1.93,1.28-1.86,5.71-7.27,6.35-2.54-.07.17.05.42,0,.64-1.4,2.28-3.31,4.18-5.73,5.69-1.6-.03-2.79-.91-4.44,1.26l.02-.02Z"/>
  <path class="cls-122" d="M75.1,5.04c2.52-.94,11.23-.22,6.35,3.16h-.64c-1.22.05-2.6.08-3.82,0-1.76-.12-3.04-2.13-3.82,1.26l.03.02c-.29.4-.51.44-.64,0-.98-.62-1.13-1.01-.88-1.95"/>
  <path class="cls-42" d="M69.36,58.77c-.25.54-.46.55-.64,0-.03-3.58.03-7.17,0-10.75l-1.27,1.9c-.17-.6-.88-2-1.27-2.54l-.78.05c-.47-1.44-1.64-1.97-3.04-1.31-.78-.35-.76-.39-.63-1.26,1.91-.76,3.53,1.13,4.75,1.21,3.97.3,1.11-4.25,2.87-6.27.34,6.3.59,12.7,0,18.96Z"/>
  <path class="cls-41" d="M69.36,91.01v2.54c-.25.54-.46.55-.64,0,0-5.26-.03-10.55,0-15.81v-.64c-.49-1.31-.79-2.59,0-3.8v-8.21c1.2-.37,1.2,1.75.64,2.54.37,6.1.37,12.21,0,18.34.64.52.81.96,0,1.26.34.55.34.97,0,1.26,1.23.57,1.23,1.33,0,1.9v.64-.02Z"/>
  <path class="cls-124" d="M33.75,84.1c-.35.08-.91.96-1.27,1.26-1.1.17-.71-2.28-.46-2.18.42.17,0,1.8-.81.29-.03-.22.03-.44,0-.64l-.64-.64c-.03-.22.03-.44,0-.64-.56-1.63-.98-3.53-1.27-5.69-.52-2.12,1.69-2.81,1.91-.64.42,0,.56.27.64.64.32,3.26.25,5.09,1.91,8.21l-.02.03Z"/>
  <path class="cls-62" d="M25.49,72.68c-1.4-.3-1.6-.74-.64-1.26.19-.07.47.08.64,0l.64-.64c.19-.07.46.07.64,0,1.44-.52,2.91-2.02,3.82-1.9,1.18,1.43.3,2.84-1.28,3.53,1.55,5.83-11.84,4.59-3.8.27h-.02Z"/>
  <path class="cls-27" d="M94.82,91.01c-.39,2.25-3.36,1.88-3.18,0,1.2-.44,4.02-2.47,4.44-3.48.25-.64-1.6.17-1.27-.94,2.45,1.24,2.79-1.31,4.61-2.07,1.64-.69,3.41-.22,4.93-1.11.95.69.59,2.15-.64,1.9l-.93,1.09c-2.43-.02-5.83,1.18-6.71,3.34.19.6-.03.82-.64.64l-.64.64.02-.02Z"/>
  <path class="cls-136" d="M68.09,137.84c-.49-4.64-.52-9.29,0-13.91-1.25-.99-1.2-2.12,0-3.16-.27-.27-.29-.47,0-.64-.86-.54-.74-1.21,0-1.9v-3.17c.03-.4-.02-.84,0-1.26,1.08.12,1.15,2.35.64,3.16.64,4.38.42,8.85,0,13.27"/>
  <path class="cls-79" d="M96.71,36.61l-1.27.64c-.2.05-.42-.03-.64,0-1.45-.37-1.88-.79-1.27-1.26,1.74.18,4.58-.97,5.71-2.23.91-1.01.42-1.7.64-2.18.64.1,2.09-1.58,3.18-1.26l.64,3.16c-3.63-1.71-3.6,1.5-6.99,3.17v-.03Z"/>
  <path class="cls-72" d="M70,53.06c.03,2.52-.02,5.07,0,7.59-1.15.55-1.27-1.19-.64-1.9-.22-6.3.2-12.67,0-18.96-.02-.62.08-1.31,0-1.9-.44-.42-.47-.87,0-1.26,1.05,3.96,1.25,8.18.64,12.65v2.54c1.22.35,1.22.91,0,1.26v-.02Z"/>
  <path class="cls-42" d="M127.47,101.18c2.21.74.39,5.39-1.2,5.01-1.69-.42-2.82-6.33,1.2-5.01Z"/>
  <path class="cls-141" d="M47.11,35.37c-.56-.22-.56-.42,0-.64-.25-.34-.25-.76,0-1.26.05-.4-.1-.94,0-1.26l1.91-1.26c.19-.03.46-.02.64,0l1.27.64c.12.34-.14.99,0,1.26,1.13.39,1.98.81,2.55,1.26.57,2-1.49,2.67-1.91.64-.27-.02-1.06-.86-1.27-.64-.07.07-.24,1.16-.64,1.9-.52-.24-1.17-.24-1.91,0-.1-.27-.64-.55-.64-.64Z"/>
  <path class="cls-59" d="M92.27,80.91l-1.27,1.26c-.17.05-.42,0-.64,0l1.27-3.16c.47-.12.9.1,1.27.64.44.1,1.4.05,1.91,0l1.27-.64c.22-.05.47.07.64,0,1.1-.97,2.16-1.61,3.18-1.9.24-.35.46-.37.64,0v.64c-.47.55-.69.77-1.27,1.26l-1.27,1.26c-.15.08-.47-.08-.64,0l-.64.64c-.3.1-.86-.07-1.27,0-.86.34-1.74.47-2.55,0-.19-.02-.56-.05-.64,0h.02Z"/>
  <path class="cls-166" d="M34.41,49.3c-.15.02-.64.03-.64,0-1.55-.64-2.18-1.48-1.91-2.54.3-1.04.79-.96,1.27,0,.25-.3.47-.32.64,0,.35-.57.98-.99,1.91-1.26-.54-.25-.56-.45,0-.64.2-.05.46.07.64,0,.98-.03,1.4.17,1.27.64.46.15,1.45.66,1.91.94-.24.52-3.06,1.9-3.82,2.22.05.5-.39.72-1.27.64Z"/>
  <path class="cls-58" d="M69.36,112.51v4.42c-.25.54-.46.55-.64,0-.02-1.44-.64-2.91-.64-3.16,0-1.04.02-2.1,0-3.16-.74-.6-.74-1.29,0-1.9,0-1.04-.02-2.1,0-3.16.03-1.61.64-3.83.64-4.42.25-.54.46-.55.64,0,.54.3.57.52,0,.64-.17.44-.29.84,0,1.26v3.8c-.49,1.78-.59,4.03,0,5.69v-.02Z"/>
  <path class="cls-42" d="M127.88,38.21c1.33.84-.22,3.91-2.13,3.43-3.33-.84-1.23-5.56,2.13-3.43Z"/>
  <path class="cls-42" d="M103.7,109.99c-.3-.3-.73-.3-1.27,0-1.17-.67-1.4-1.09-1.27-2.54l1.91-1.9c2.7.32,2.57,3.44.95,5.02-.15.02-.32-.59-.32-.59h0Z"/>
  <path class="cls-42" d="M120.19,25.55c2.87-2,4.05,2.49,2.52,3.44-2.15,1.34-4.51-2.05-2.52-3.44Z"/>
  <path class="cls-139" d="M94.14,72.68l-.25-.69c3.33-2.3,4.88-4.82,4.71-7.53-.03-.22.05-.45,0-.64v-.64c1.55-.29,1.33.47,1.57,1.56.64,2.86-3.38,6.95-6.01,7.93h-.02Z"/>
  <path class="cls-174" d="M70.64,35.99c-.47,1.61-1.06,1.68-1.27,0-.07-3.36.05-6.75,0-10.11.47-1.61,1.06-1.68,1.27,0v5.69c-.3.18-.3.39,0,.64v1.26c-.3.18-.3.39,0,.64v1.9-.02Z"/>
  <path class="cls-13" d="M63.65,10.73c-.39-2.7,3.46.39,3.82-3.16,2.03.12,3.72.76,5.08,1.9h.64c1.4-.03,3.68-1.61,3.18.62-3.09.1-6.2-.1-9.27-.02-.83.02-1.44.66-1.54.66-.61.03-1.32.05-1.91,0Z"/>
  <path class="cls-27" d="M35.64,102.39c-.51.08-1.23.67-1.91.64-.08-.39.1-.92,0-1.26,1.6-.69,3.55-.39,5.1-.94,1.91-.69-.66-1.08-.69-1.33-.12-.92.69-1.85.69-2.17.25-.54.46-.55.64,0,1.39.44,1.47.74.64,1.9,3.75,2.69-2.72,5.88-4.44,3.16h-.03Z"/>
  <path class="cls-27" d="M70,85.97c-.25.54-.46.55-.64,0,0-6.1.22-12.26,0-18.34.25-.54.46-.55.64,0,.03,4.48-.83,14.77,0,18.34Z"/>
  <path class="cls-42" d="M15.34,114.42c2.7-.17,4.98.69,4.44,3.78-2.42.3-4.1-1.5-4.44-3.78Z"/>
  <path class="cls-158" d="M70.64,25.9h-1.27v-5.69c.2-2.4.39-4.8.57-7.21l.69.25v.64c.32.4.24.84,0,1.26-.1,3.56,0,7.19,0,10.75h0Z"/>
  <path class="cls-143" d="M104.95,85.97c-1.23,1.16-1.54,1.02-1.27-.64.05-.69.41-1.28.64-1.9.07-.18-.07-.45,0-.64l.64-.64c.05-.18-.05-.44,0-.64l.64-1.26c.05-.4-.03-.84,0-1.26.25-.54.46-.55.64,0,.25-1.29,1.27-1.31,1.27,0-.02.4.07.87,0,1.26l-.64,1.26c-.05.2.05.44,0,.64l-.64,1.26c-.05.2.05.44,0,.64l-.64.64c-.05.2.05.44,0,.64-.14.71-.35.92-.64.64Z"/>
  <path class="cls-96" d="M38.85,97.34v-.64c-.98-1.81-1.82-3.49-2.55-5.06,1.45-1.66,4.17-1.01,4.24,1.48,4.56,1.04,1.57,7.88-1.05,4.22h-.64Z"/>
  <path class="cls-27" d="M50.91,32.85c5.34.97,9.22-3.71,12.72-6.95,1,.76.57,1.6-.64,1.26.91,1.09.15,2.03-1.27,1.9-1.59,1.83-2.94,2.69-5.08,3.8.35,1.83-2.5,3.12-3.18,1.26-1.4.12-1.94-.07-2.55-1.26Z"/>
  <path class="cls-42" d="M65.58,125.17c-.07-.08-.64-1.8-.64-1.9.41-.71.19-.92-.64-.64-3.99.22-4.53-2.28-.64-3.8,1.2-.13,1.62.29,1.27,1.26.17.22.24,1.88.95,1.88.1,0,1.55-.55,1.6-.62.12-.13-1.67-2.65.63-3.16v1.9c-.3.18-.3.39,0,.64v3.16c-.19.72-.41,1.36-.64,1.9"/>
  <path class="cls-42" d="M93.52,112.51c-.25.55-.07,1.48-.96,1.9-2.42-.32-1.47-2.74-.95-4.42.29-.64,1.13-.64,2.55,0-.25.72-.03,1.21-.64,2.54q-.12-.17,0,0v-.02Z"/>
  <path class="cls-94" d="M18.55,67c-.69.42-1.54.42-2.55,0-.39-.24-.42-.24-.64-.64-.57-2.33.46-5.22,3.18-4.42v.64c.81.89.61,1.31-.64,1.26-.08.15-.98.08-.64,1.26h1.91l-.64,1.9h.03Z"/>
  <path class="cls-114" d="M94.16,94.16c-1.59-.97-2.43-1.23-4.44-1.26-.66-.66-.32-2.35.64-1.9.34.08.86-.07,1.27,0,1.06.15,1.25.87,3.18,0,.56.25.56.47,0,.64.22.82-.03,1.93-.64,2.54v-.02Z"/>
  <path class="cls-155" d="M85.29,37.27c.03.22-.17.44-.64.64-.24-.05-.51.07-.64,0l-.64-.64c-.2-.27-.73-1.16-.63-1.26l1.25-.32c-1.45-1.6-4.68-2.35-5.08-4.74,2.15.79,4.26,2.03,6.32,3.73l-.61.71c.24.57.29,1.19.64,1.9l.03-.02Z"/>
  <path class="cls-15" d="M87.81,44.24c1.03-.45,2.33.47,3.18,1.26.19.08.47-.08.64,0,.52.27,2.42,1.29,2.53,1.9-.83,1.06-6.35-3.02-4.44,0-1.93,1.18-4.39-1.33-1.91-3.16Z"/>
  <path class="cls-42" d="M114.73,121.43c2.43.4,1.52,4.03-.46,3.7-2.43-.4-1.52-4.03.46-3.7Z"/>
  <path class="cls-27" d="M24.87,109.33c.14-.08.44.07.64,0,3.07-.99,5.46-.76,8.56-.64-.02,2.42-3.07.59-4.41.66-1.52.08-3.01,2.17-4.8,0v-.02Z"/>
  <path class="cls-42" d="M56.67,119.48c.59-2.33.39-2.33-.64,0-1.81-.92-.54-3.19,1.62-3.14,2.04.03,2.67,3.11-1,3.14h.02Z"/>
  <path class="cls-27" d="M67.45,125.79c.03-.69-.19-1.6.64-1.9v13.91"/>
  <path class="cls-42" d="M45.2,59.41c-.81,3.66-1.45,2.23-.35,6.89.1.49-.35,1.29-.29,1.33-.91-.71-.54-2.07-.98-3.14-.24-.62-1.39-1.09-1.52-1.68-.19-.77,3.73-4.06,2.5-6.23l-1.91.94c.79-1.14,1.72-2.69,3.18-2.52-.59,1.38-.35,3.21-.63,4.42h0Z"/>
  <path class="cls-115" d="M88.41,69.5c-1.81,2.2-3.4,3.7-6.35,2.54-.22,0-.44.03-.64,0-1.06.07-1.49-.13-1.27-.64.25-.39.39-.94.64-1.26.24-.4.46-.4.64,0-.05.3.02.5.32.62l3.5.64-.66-1.26c1.88.27,2.2,0,1.93-1.9,1.37.79.41,2.44,1.91,0v.64c-.08.2.08.5,0,.64l-.02-.02Z"/>
  <path class="cls-42" d="M123.09,44.86c2.89-.87,3.23,4.2-.96,3.16-.1-.94-.1-2.84.96-3.16Z"/>
  <path class="cls-42" d="M71.27,90.37c-.12.03-.86-.66-1.27,0h-.64v-1.9c.32-.3.32-.72,0-1.26v-1.26h.64c.25,1.11,2.45,2.47,3.16,3.48.05.4-.54.25-.63.32-.07.79-.71,1.24-1.27.64v-.02Z"/>
  <path class="cls-83" d="M24.19,89.76c-.27.07-.91.03-1.27,0v-1.26c-.39-.32-1.28-.81-1.91-1.26h.64l.64-.64c.03-.17.02-.62,0-.64.56.1,1.54-.17,1.91,0,1.1-.62,1.49-.27.64.64.34.27.56.69.64,1.26-.05.22.07.45,0,.64l-1.27,1.26h-.03Z"/>
  <path class="cls-42" d="M70.66,36.03c-.02,4.25.54,9.24-.64,13.27-.07-4.22-.57-8.75-.64-12.65v-.64h1.27l.02.02Z"/>
  <path class="cls-108" d="M88.43,109.35c-.32.3-.76.3-1.27,0h-.64l-1.27-.64c-.22-.07-.49.08-.64,0-.78-.59-1.67-1.71-1.27-2.54.83.4,3.63,2.33,4.14,2.3.76-.03,1.82-2.27,2.85.24.42.84.17,1.02-.64.64-.41-.05-.84.03-1.27,0h0Z"/>
  <path class="cls-54" d="M70,67.62h-.64c-.03-.94.15-1.8-.64-2.54,0-2.1.02-4.22,0-6.32h.64c.03.69-.19,1.6.64,1.9.02,2.32,0,4.64,0,6.95Z"/>
  <path class="cls-42" d="M69.36,109.99c4.34-2.4,3.83,3.9,0,2.54-.42-.86-.47-1.71,0-2.54Z"/>
  <path class="cls-50" d="M115.14,68.24c-.25.55-.47.55-.64,0-.74-.07-1.59-.49-2.55-1.26-.37-.05-.88-.03-1.27,0,1.54-2.1-1.03-.29-.63-2.52h3.18l-.64,1.88,2.55,1.28v.64-.02Z"/>
  <path class="cls-27" d="M68.72,130.21c-.07-4.4.02-8.85,0-13.27h.64c-.02,4.25.54,9.24-.64,13.27"/>
  <path class="cls-27" d="M21.71,89.14c-1.01,1.7-4.14,2.97-5.98,2.49-2.38-.66,1.67-3.33,2.16-4.08.22-.57-1.45,0-1.91-.94.05-.79.81-1.23,1.27-.64.14.32,1.3.55,1.3,1.01l-1.94,4.05c.19.2,4.19-1.8,5.08-1.9l.02.02Z"/>
  <path class="cls-63" d="M102.44,74.59c-.07.18.08.47,0,.64-.24.3-.46.3-.64,0-.84.39-.86.2-.64-.64v-.64c.1-.32-.08-.87,0-1.26v-3.16c.64-.64.98-.86,1.91-.64.63.77.63,1.83,0,3.16-.02.4.05.86,0,1.26l-.64,1.26.02.02Z"/>
  <path class="cls-27" d="M83.35,5.66c.12.47,0,1.33,0,1.9h-.02c-.41,1.61-1.15,2.18-1.91.64l1.27-2.54"/>
  <path class="cls-67" d="M28.7,81.51c-.05.91-.25,1.13-.64.64-2.28.03-1.55-2.22-.69-1.88.2.08-.76,1.29-1.22-.02v-1.26c.73-3.02,1.77-4.08,3.18-3.16.96,2,.35,3.41-.64,5.06-.05.22.07.49,0,.64l.02-.02Z"/>
  <path class="cls-153" d="M62.4,32.18c-.15.25-.49.42-.64.64-.25.54-.46.55-.64,0,.47-1.29.95-2.45,1.91-3.48l-1.27-.32c.42-.49.95-1.31,1.27-1.9,1.13-1.28,1.98-.99,1.27.64.42.72-.05,1.46-.64,1.9-.07.18.07.45,0,.64l-.64.64c-.08.17.08.47,0,.64l-.64.64.03-.03Z"/>
  <path class="cls-138" d="M99.26,52.46c-.42,0-.84-.03-1.27,0-.9.27-1.88-.24-1.91-1.26.39-.3.9-1.11,1.27-1.26,1.15-.45,2.15-.1,3.18,0,.98.37.9.74,0,1.26-.19.08-.49-.08-.64,0l-.64,1.26h.02Z"/>
  <path class="cls-27" d="M15.34,66.35c-.68-1.26-1.18-2.33-.32-3.8.44-.72,3.21-2.02,3.5-.62-2.62.12-2.38,2.54-3.18,4.42Z"/>
  <path class="cls-27" d="M20.42,75.22c.98-3.68,1.5-2.64,4.44-3.8.2.42.44.84.64,1.26-1.18.89-2.47,1.73-3.82,2.54,0,0-1.27,0-1.27,0Z"/>
  <path class="cls-27" d="M98.58,63.21c.07.18-.05.44,0,.64-2.3-2.45-1.54-6.06-5.08-7.59.1-1.11,1.93.54,2.15.74.68.59,1.05,1.65,1.13,1.7.27.13,2.23-.92,3.09-.54.63,3.49-2.38,1.75-2.53,1.9-.46.49,1.06,2.5,1.27,3.16h-.02Z"/>
  <path class="cls-137" d="M64.92,27.8c-.25.54-.46.55-.64,0l-1.27-.64c.24-.4.42-.84.64-1.26.08-.17-.08-.47,0-.64.61-1.41,1.25-2.05,1.91-1.9.25-.54.46-.55.64,0-.1.34.12.92,0,1.26l-.64.64c-.12.34.12.94,0,1.26l-.64.64c-.07.2.07.47,0,.64Z"/>
  <path class="cls-42" d="M62.38,77.11c-3.06-.07.49-1.78,0-3.8-2.64.72-3.72.66-5.08-1.9.41.13.86.44,1.27.64.63.3.83,2.03,3.18.64.35.24,1.59-.08,1.88,1.01s-.83,2.42-1.25,3.41h.02Z"/>
  <path class="cls-159" d="M22.97,68.88c-.3.08-1.57.08-1.91,0l-.64-1.26c.47-.15,2.08-1.65,2.87-1.9l.3,1.26-.64,1.9h.02Z"/>
  <path class="cls-42" d="M68.74,11.37c.83,4.32-4.21.32-3.18-.64,1.17-.42,2.43.57,3.18.64Z"/>
  <path class="cls-42" d="M119.58,79.03c1.27.81,3.99,1.04,1.59,3.14l-2.23-1.24v-.64c.02-.2.02-.45,0-.64-.12-.5.12-.82.64-.64v.02Z"/>
  <path class="cls-99" d="M47.11,75.22c-.46-.4-1.82-.57-1.89-.64-.14-.15.08-.89,0-1.26-.12-.54.96.42-.64-1.26-.12-.72.3-.92,1.27-.64.17.08.47-.08.64,0l.63,3.8Z"/>
  <path class="cls-123" d="M76.35,27.14c.57,1.16.19,1.56-.64.64-1.99-1.39-2.64-2.67-1.91-3.8,0-.91.2-1.34.64-1.26.24-.29.44-.29.64,0,.07.57-.15,1.53,0,1.9l1.27,1.26c.05.13,0,.42,0,.64.34.25.35.47,0,.64v-.02Z"/>
  <path class="cls-27" d="M118.96,65.74c-.84-.91-3.01-2.89-3.48-3.81-1.05-2.05.96-3.17-2.5-1.83l-1.66-1.95c.64.03,4.24.52,4.41.67.27.25.86,5.56,3.55,6.27.05-3.31,3.67-2.25,4.12.64-1.2-2.25-3.41-2.28-4.44,0v.02Z"/>
  <path class="cls-27" d="M20.41,75.85c-.3,1.55.83,2.2-1.91,1.9.32,1.13.54,1.68.64,2.52-2.58-1.38-1.22-3.81,1.27-4.42Z"/>
  <path class="cls-2" d="M118.33,68.88l-1.91,1.26c-.19.02-.46.03-.64,0-.96-.34-2.47-1.6-1.27-1.9.2.05.44-.05.64,0,1.42.4,4.7.32,6.35,0,.27.24.29.44,0,.64-.88.39-1.71.44-2.55,0-.2.03-.44-.03-.64,0h.02Z"/>
  <path class="cls-75" d="M78.26,30.33l-.64,1.26h-.64c-.08-.18.08-.45,0-.64l-1.27-1.9c-.07-.18.07-.45,0-.64v-.64c.14-.25.59-.47.64-.64.24-.25.44-.27.64,0,.05.22-.07.47,0,.64.57.82,1,1.66,1.27,2.54v.02Z"/>
  <path class="cls-108" d="M94.18,109.97c-.79.05-1.76.07-2.55,0-.22-.02-.44.02-.64,0-.61-.45-.81-1.09,0-1.26.19-.64,1.4-2.37,1.27-2.52-.41.05-.93-.08-1.27,0-.29-.81,0-1.14.64-.64,1.08.67,2.72,1.58,1.27,2.54h-.64c-.02.42,0,.84,0,1.26.63.07,1.28-.07,1.91,0,.56.29.57.49,0,.64l.02-.02Z"/>
  <path class="cls-27" d="M17.86,63.81c.14-.27-.25-1.18.64-1.26.07,0,.51.64.88.52,1.99-.59,3.19-6.45,4.54-6.84.84-.24.76.54.95.64-1.64,1.02-3.56,6.65-4.56,7.46-.17.13-1.99-.35-2.43-.5l-.02-.02Z"/>
  <path class="cls-27" d="M36.32,44.86c2.48-.89,4.58-2.77,6.35.64-.27.42-.47.42-.64,0-.08-.02-.29-.96-.9-1.02-.93-.1-2.57.74-3.55,1.02-.39-.15-1.32.1-1.27-.64Z"/>
  <path class="cls-27" d="M69.99,14.78c-.05,1.73.59,4.23-.61,5.43.02-1.24-.25-7.31,0-7.58.17-.18,1.37-.13,1.27.62-.02.08-.63.52-.66,1.53Z"/>
  <path class="cls-128" d="M31.86,46.76c-1.01.15-1.15-1.14-.64-1.9.22.03.44-.03.64,0l.64.64c.56.08,1.3,0,1.91,0,.46-.3,1.13-.52,1.27,0-.29,1.11-.98,1.08-1.91,1.26-.17-.29-.39-.29-.64,0h-1.27Z"/>
  <path class="cls-42" d="M72.55,49.3c-.42,1.01-.59,4.42-.64,5.69-.76-.91-.39-2.32-1.91-1.9v-1.26c2.69.05,1.4-5.61,5.08-5.69-.2,1.18-1.45,2.96-2.55,3.16h.02Z"/>
  <path class="cls-42" d="M75.09,53.71c-.25.54-.46.55-.64,0-.46-1.14-1.81-2.07-1.27-3.8.25-.54.46-.55.64,0-.07.54-.2,2.5.32,2.54,1.1-3.21,4.05-.81,6.67-2.54-2.79,1.78-4.88.92-5.73,3.8Z"/>
  <path class="cls-88" d="M42.67,40.5c.32.62-.12,1.26-1.27,1.9-.19.03-.47.03-.64,0l-.64-.64c-.22-.2-.52-.35-.64-.64.29-.17.29-.39,0-.64-.03-.22.02-.44,0-.64v-.64c.51.13,1.32-.1,1.91,0l-.63,1.88c.12.12,1.27-.67,1.91-.64v.05Z"/>
  <path class="cls-27" d="M90.36,33.49c-.66,1.97-3.16,2.65-5.08,1.9h-.64c-.98-2.35-3.67-2.52-5.73-4.42-.22-.2-.46-.42-.64-.64-.76-.92-.88-1.51-1.27-2.54,1.84,2.28,3.07,4.27,6.35,3.16l-1.27,1.88c2.28.76,4.34,1.95,6.84,1.09.32-.12.56-.97.78-1.08l.64.64h.02Z"/>
  <path class="cls-27" d="M90.34,32.87c1.42-.49,1.79-.55,2.55,1.26-.64.35-1.49.13-2.55-.64-.3-.24-.3-.45,0-.64v.02Z"/>
  <path class="cls-42" d="M126.27,77.11c-1.49-.34-1.54-4.22.95-1.9q-.17.12,0,0c1.18,1.13-.05,2.1-.95,1.9Z"/>
  <path class="cls-27" d="M17.23,85.31c-.47.64-1.3.91-1.27,0,.3-1.7,2.38-2.96,3.18-4.42.05.89,0,1.24,0,1.9-1.15.52-1.82,1.24-1.91,2.54v-.02Z"/>
  <path class="cls-18" d="M92.23,42.95c-.34.03-1,.07-1.27,0l-1.27-1.26h-.64c-1-.1-.63-.92,0-1.26.91-1.04,3.55-.18,2.55,1.26l.64-.64c.47-1.21,2.85-.42,2.55.64l-1.27.64c-.22.02-.46-.05-.64,0l-.64.64-.02-.02Z"/>
  <path class="cls-27" d="M36.29,91.66c1.2,1.38,2.5,3.16,2.55,5.06-1.47-3.96-7.04-4.97-7.64-8.85,1.01-.25,1.86,1.08,2.55,1.9.71,1.09,1.57,1.73,2.55,1.9h-.02Z"/>
  <path class="cls-125" d="M73.84,49.28c-.05.18.03.42,0,.64h-.64l-.64-.64c.42-1.01,1.59-2.84,2.55-3.16.12-.03.54-.05.64,0,.42.6.2,1.24-.64,1.9-.2.22-.46.4-.64.64l-.64.64.02-.02Z"/>
  <path class="cls-42" d="M53.79,103c.66-.77,2.67.08,3.5-1.23-.81,1.58-2.87,3.28-4.44,5.06.81-1.23.81-3.68.95-3.83Z"/>
  <path class="cls-35" d="M69.36,99.24c.32.74.32,1.38,0,1.9h-.64v-7.59h.64v5.69h0Z"/>
  <path class="cls-27" d="M35.68,28.42c-1.22.69-1.57,1.7-1.77,3.01l-.76.17c.34-7.06,9.1-6.57,6.99,0-.25.54-.46.55-.64,0,.12-.59.64-1.71.64-1.9-.88-.3-1.54-1.13-1.91-1.9-1.1.82-1.94,1.02-2.55.64v-.02Z"/>
  <path class="cls-27" d="M104.95,50.56l2.55-2.52c-1.2.02-2.77.17-3.18-1.28,1.27-.08,2.55.05,3.82,0,.24,2-1.27,3.46-3.18,3.8h-.02Z"/>
  <path class="cls-112" d="M74.46,22.74c-.08.52,0,1.06-.64,1.26-.42-.07-.64-.49-.64-1.26v-.64c-2.36-4.03-.22-5.21,1.27-.64.03.2,0,.44,0,.64.32.22.32.44,0,.64h.02Z"/>
  <path class="cls-169" d="M66.2,47.4c-.64.2-.59.72-.64,1.26-.25.54-.46.55-.64,0,0-.22.03-.44,0-.64-.41-.94-.98-1.5-1.91-1.9-.2-.07-.47.08-.64,0l.44-.54c1.98-.54,2.43.5,3.38,1.81h.02Z"/>
  <path class="cls-117" d="M45.85,46.14c.64,1.75-1.81,3.01-2.55,1.26.03-.07,0-.64,0-.64l-1.27-.64c-.08-.07-.52.1-.63-.32l.63-.32c.22.03.44-.02.64,0,.41.03.84-.05,1.27,0,.22.02.44,0,.64,0,.95.07,1.37.29,1.27.64v.02Z"/>
  <path class="cls-27" d="M29.34,81.85l.61-2.22h-.63l-.64,1.26c.47-1.68.81-3.28.64-5.06.79-.94,1.2,5.21,1.27,5.69l-1.25.32Z"/>
  <path class="cls-42" d="M80.81,8.19c.22,0,.44.02.64,0,.68-.07,1.32-.3,1.91-.64-.02,3.65-1.27,3.78-2.55.64h0Z"/>
  <path class="cls-42" d="M63.01,33.49c1.96-.37,1.88.3,2.53,1.88-2.04.76-2.7.52-2.53-1.88Z"/>
  <path class="cls-52" d="M54.75,78.36c-1.37.71-2.3,1.39-3.82,1.9.3-1.66.08-2.72-.64-3.16.49-1.73,2.08-1.02,3.18-1.26.2-.05.44.03.64,0,.86-.1,1.06.54.64,1.9,0,.2-.05.5,0,.64v-.02Z"/>
  <path class="cls-42" d="M75.71,27.78c.07.18-.07.45,0,.64-.47-.72-2.99-2.52-3.11-2.92-.27-.94.61-2.05.57-2.75.64.22.51.77.64,1.26.56,1.97,1.4,2.59,1.91,3.8l-.02-.02Z"/>
  <path class="cls-27" d="M86.52,89.11c-1.23-1.78-1.25-3.59-3.99-3.06-3.75.74-2.3,4.92-5.56,6.23.42-2.07,2.89-3.65,2.6-6.28,5.64-.42,5.07-2.44,6.94,3.12v-.02Z"/>
  <path class="cls-42" d="M52.18,72.06c-.9-.64-2.09-1.11-2.82-1.93-.2-.24-2.18-2.96-2.26-3.12-.05-.1-.03-.49,0-.64-.46-.82-.24-.89.64-.64.15.1.51-.1.64,0,.46.87,1.01,3.93,1.35,4.33.12.15.64-.87,2.47,2h-.02Z"/>
  <path class="cls-27" d="M25.51,57.51c.83-1.26,2.43-1.34,3.82-1.26.68.54.91,1.01,0,1.26-.54.89-1.49.91-1.91,0-.59-.03-1.49.13-1.91,0Z"/>
  <path class="cls-27" d="M37.59,49.94l-3.18-.64c.07-.02.81-.45,1.27-.64,1.5-.03,2.21-.44,1.91,1.26v.02Z"/>
  <path class="cls-27" d="M108.15,79.03l-.64-.64c-.93-.24-.96-1.26,0-1.26.12-.12-.22-1.04.3-1.28l1.6.64c.42,1.19-1.1,2-1.27,2.52v.02Z"/>
  <path class="cls-27" d="M85.27,42.34h-.64c-.83-.6-1.45-1.44-1.91-2.54-.08-.39-.61-.89-.64-1.26,3.78.84,2.58,1.61,3.18,3.8h.02Z"/>
  <path class="cls-27" d="M31.22,87.24c-.15-1.19.17-2.62,0-3.8l1.27-.64c-.52.89.03,1.98,0,2.52-.1,1.44.03,2.3-1.27,1.9v.02Z"/>
  <path class="cls-27" d="M73.18,76.48c-3.16-2.4-.74-3.95.64-5.69-.91,1.09-1.94,4.62-.64,5.69Z"/>
  <path class="cls-42" d="M45.85,109.35c.42-.94,2.85-.89,3.18,0-1.22,1.46-2.03,2.13-3.18,0Z"/>
  <path class="cls-130" d="M34.38,32.21c-.34,1.39-1.13,1.41-1.27,0-.02-.2,0-.44,0-.64,1.15-2.27.29-2.17,2.55-3.16.34,1.19-.49,2.82-1.27,3.8h-.02Z"/>
  <path class="cls-42" d="M63.65,51.2c-1.23-.69-1.44-1.11-.64-1.26.49.08,1.13.84,1.91.62,0-.64.03-1.28,0-1.9h.64c-.02.22.03.44,0,.64-.69,5.09-.68,2.49-1.91,1.9Z"/>
  <path class="cls-11" d="M58.55,39.79c-.14,1.11-.57,1.75-1.27,1.9-.3-.37-1.15-.89-1.27-1.26h.64v-.64c.61-.59,1.01-1.04,1.91-1.26v.64c-.05.2.07.47,0,.64l-.02-.02Z"/>
  <path class="cls-27" d="M26.12,84.71c-.24.55-.44.57-.64,0-.71-.71-1.3-2.18,0-1.9.32-.92,1.18-.45,1.91,0-.61-1.04-.27-1.43.64-.64.17-.15.59-.54.64-.64.69,3.14-1.39,1.19-2.43,2.02-.3.25-.02,1.02-.1,1.14l-.02.02Z"/>
  <path class="cls-27" d="M99.87,31.59c-.34-.05-.56-1.04-.73-1.11-.52-.2-1.59,1.01-1.81.17,1.15-.82,3.07-2,4.44-2.22.59.62.17,1.04-1.27,1.26-.41.69-.41,1.34-.64,1.9Z"/>
  <path class="cls-27" d="M69.36,109.99v2.54c-.24-.08-.52.05-.57-.35.05-1.63-.69-4.1.57-5.34v3.16h0Z"/>
  <path class="cls-27" d="M89.72,92.92c-.22,0-.9.76-1.18.55-.32-.22-1.72-2.99-1.99-3.71l2.23,2.52.32-1.9c.9-.29,1.27.64,1.27.64l-.64,1.9h0Z"/>
  <path class="cls-27" d="M101.15,69.54c2.33.79.24,2.15,0,3.16-.19-3.21-.71.67-2.55,1.26,1.25-1.14,1.5-3.39,2.55-4.42Z"/>
  <path class="cls-27" d="M104.99,104.29h-.64c.56-.89.3-2.87,2.53-1.58l-1.91,1.58h.02Z"/>
  <path class="cls-27" d="M110.68,58.13c-.32-.02-1.13,1.04-2.52.35-2.03-.99-.66-2.03-.66-2.23-.44,1.98,1.11,1.02,2.74,1.39l.44.5v-.02Z"/>
  <path class="cls-27" d="M31.25,56.87c-.29.57-.51.59-.64,0-.9.5-1.22.24-.64-.64.02-.17.84-3.02.93-3.17.73-1.31,1.49.02,1.6.02-1.66-.03-1.71.5-.64,1.9,1.05.55.17,1.33-.64,1.9h.03Z"/>
  <path class="cls-64" d="M103.7,29.04c-.54,1.02-2.16.6-3.18.64.25-.44.93-.81,1.27-1.26.41-.07,1.57-.08,1.91,0,.46.25.47.45,0,.64v-.02Z"/>
  <path class="cls-27" d="M38.87,108.73c-.25,0-1.22.86-2.55,0-.66-.42-3.5-3.7-3.16-4.69l.61-.37c.9,3.8,1.25,1.9,2.53,2.92.84.67.93,2.3,2.55,2.13h.02Z"/>
  <path class="cls-27" d="M94.16,72.66c-.81.3-2.26.17-3.18.64,1.32-1.68,2.53-1.24,4.09-2.57,1.23-1.06,4.05-4.47,3.55-6.28.02.15.63.49.64,1.01.07,2.1-4.14,5.02-5.1,7.22v-.02Z"/>
  <path class="cls-27" d="M106.24,79.01h-.64c.14-1.5.1-3.54,0-5.06,1,.52.64,2.15.64,3.16.93.6.93,1.29,0,1.9Z"/>
  <path class="cls-27" d="M73.19,22.12c-2.15-1.01-2.21-9.02-.64-5.69-.27,1.11-.27,1.53,0,1.26,1.42-.02,1.76,2.75,1.91,3.8l-1.91-2.54c-.27,1.09.63,2.2.63,3.16l.02.02Z"/>
  <path class="cls-27" d="M98.6,96.73c-.35.76-.63.71-.64,1.9-1.76.77-1.96.15-.64-1.9.03-.24-.07-.49,0-.64-.03-1.08.81-1.91,2.55-2.54-.17-.6.03-.81.64-.64,1.18-2.18,2.67-3.66,4.44-4.42.25-.54.46-.55.64,0-.93,4.57-5.02,3.88-6.99,8.21v.02Z"/>
  <path class="cls-27" d="M38.84,49.3c-.34,2.13-2.72,3.83-4.44,3.8,1.15-1.29,2.35-2.23,3.82-3.16.15-.1.1-.79.64-.64h-.02Z"/>
  <path class="cls-27" d="M118.97,87.86c.05-.22-.08-.57,0-.64.29-.22,2.09.59,1.15-2.08-.41-1.16-1.98-2.02-2.75-2.97l1.6-1.9c-.03.24.07.5,0,.64-.1.18-1.28.59-1.27.94.02.57,2.94,1.88,3.19,4.42.2,2.05-.24,1.65-1.94,1.6h.02Z"/>
  <path class="cls-154" d="M101.79,76.46c-.51.6-.93.81-1.27.64h-.64c-.25-.79.68-1.85,1.27-2.54l.64.64c.25.24.27.44,0,.64-.05.22.08.49,0,.64v-.02Z"/>
  <path class="cls-42" d="M69.36,102.41v-3.17l1.28,2.84-1.28.32v.02Z"/>
  <path class="cls-42" d="M68.74,77.11c-.9-1.13-1.76-3.36,0-3.8v3.8Z"/>
  <path class="cls-42" d="M66.81,56.25c-.05,1.48.66,5.14-1.55,5.04-.22-.02-.22-.55-.34-.62,1.66.55,1.35-2.35,1.91-4.42h-.02Z"/>
  <path class="cls-42" d="M54.11,75.84c.07,0,.84-1.16,1.27-.62.63.77-.63,2.3-.63,2.52l-.64-1.9Z"/>
  <path class="cls-6" d="M43.94,34.73c-.08,0-.68.87-1.57.64-1.44-.39-.3-1.78-.34-1.9.41.13.84.45,1.27.64.54.18.76.39.64.64v-.02Z"/>
  <path class="cls-155" d="M94.16,37.3c-.59.03-1.32.05-1.91,0-.54-.25-.56-.45,0-.64l-.64-2.54c-.39-.35-2.2.82-2.53,1.26-.15.79-.35.99-.64.64-.95-.17-2.64.47-3.18-.64,2.11-.24,3.61.1,5.08-1.9.81.2,1.79.02,2.55.64.07.17-.05.44,0,.64-.3.3-.3.72,0,1.26.05.05.42-.02.64,0,.41.4,1.27.59,1.27,1.26-.25.32-.46.32-.64,0v.02Z"/>
  <path class="cls-155" d="M90.34,33.49c-.29-.07-.52-.37-.64-.64.17-.08.44.07.64,0v.64Z"/>
  <path class="cls-172" d="M118.94,79.63c-3.28.44-1.91-1.23-1.91-1.9h.64c.22.2.44.52.64.64.84.54,1.06.96.64,1.26h-.02Z"/>
  <path class="cls-42" d="M62.37,80.89c.68-.64,2.55,1.26,1.91,1.9-.68.64-2.58-1.26-1.91-1.9Z"/>
  <path class="cls-42" d="M56.66,49.92v-.62l1.27-.64c1.2.42,2.62.92,3.82,1.26.54.25.56.45,0,.64-1.98-.81-2.8-1.18-5.08-.64Z"/>
  <path class="cls-27" d="M84.61,108.73c-2.42-1.29-1.37-2.72-2.55-4.12-.44-.52-1.57-.62-1.89-.94-1.01-.99-.64-3.24-3.82-2.54.12-1.26,1.28-.64,1.91-1.26.79,2.03,3.77,3.93,5.08,6.32.39.71.44,1.88,1.27,2.54Z"/>
  <path class="cls-27" d="M88.41,69.52c-1.89,2.5-3.53,4.85-6.35,2.54.54.03,2.36-.52,3.36-.08.2-.05,2.87-2.27,3.01-2.45h-.02Z"/>
  <path class="cls-4" d="M40.74,32.84c-.1-.02-.46.91-1.27.34-1.15-.81-.14-.89,0-1.6h.64c.2.22.42.44.64.64.35.24.35.45,0,.64l-.02-.02Z"/>
  <path class="cls-27" d="M15.64,30.32c-.42,0-1.32-1.51-.95-1.88.95-.96,2.7,1.88.95,1.88Z"/>
  <path class="cls-27" d="M63.65,106.85c-.05-.62.02-1.28,0-1.9.86-.3,1.18.59,1.27.62.15,1.34.08,1.41-1.27,1.26v.02Z"/>
  <path class="cls-66" d="M106.24,79.01v-1.9c.35-.08,1.15.12,1.27,0v1.9h-1.27Z"/>
  <path class="cls-27" d="M103.06,68.9c.54.12,1.99,1.43,2.25,1.91.24.44-.34.6-.34.6l-.64-1.26c-1.06-.25-.39,1.21-1.27,1.9.05-1.04.02-2.12,0-3.16Z"/>
  <path class="cls-27" d="M86.54,45.48c-2.31.3-.51-.81-.64-2.54,1.32.77,4.31.49,5.08,2.54-1.15-.52-1.96-.84-3.18-1.26-.25.55-.47.55-.64,0-.27-.44-.47-.24-.64.64.56.24.56.44,0,.64l.02-.02Z"/>
  <rect class="cls-42" x="54.75" y="111.25" width="1.27" height="1.9"/>
  <path class="cls-27" d="M107.5,54.96c-1.94,1.53-2.87-.32-4.44-.97-1.37-.55-3.01.42-2.55-1.55,2.16.45,3.11,1.73,4.43,2.15,1.06.35,2.03-.87,2.57.39v-.02Z"/>
  <path class="cls-27" d="M106.22,34.75c-.05,1.01-.73,4.85-1.27,5.06-.32-1.78.35-3.38.64-5.06.25-.54.46-.55.64,0h-.02Z"/>
  <path class="cls-36" d="M101.81,40.44c-.2.07-.49-.08-.64,0-.25.4-.46.42-.64,0-.51-.29-.52-.49,0-.64l1.6-1.28c.59.12.19,1.19.3,1.28l-.64.64h.02Z"/>
  <path class="cls-42" d="M82.71,48.66c-.1-1.24.14-2.59,0-3.8l.64.64c-.3.94.37,1.53-.64,3.16Z"/>
  <path class="cls-27" d="M50.29,26.54h1.91v1.26c-.88.18-1.69-.35-1.91-1.26Z"/>
  <path class="cls-27" d="M64.9,120.1c-.22-.3-1.13-.59-1.27-1.26.61-.24,1.32-.29,1.91-.64l-.63,1.9h-.02Z"/>
  <path class="cls-27" d="M90.97,110c-.59-.05-1.11-.64-1.27-.64l.64-.64h.64c-.02.05.63.76,0,1.26l-.02.02Z"/>
  <path class="cls-27" d="M45.86,109.35c-.84.03-1.71,0-2.55,0,1.91-1.56,4.27-.76,6.35-.64-.19.24-.46.42-.64.64-1.25-.89-2.4-.03-3.18,0h.02Z"/>
  <path class="cls-27" d="M78.26,97.34c-1.45-.97-1.35-2.87-1.27-4.42.81,1.09,1.03,3.04,1.27,4.42Z"/>
  <path class="cls-27" d="M48.38,32.85l-1.27-.64c.32-1.11.93-1.09,1.91-1.26l-.64,1.9Z"/>
  <path class="cls-44" d="M57.91,89.76c.54.25.56.45,0,.64-.35-.24-.88-.5-1.27-.64-.73-.42-.81-1.14,0-1.26.2.05.44-.03.64,0h.64v1.26h-.02Z"/>
  <path class="cls-97" d="M25.51,86.57c-.25.54-.46.55-.64,0-.22-.2-.64-.64-.64-.64l.64-1.26c.27-.54.49-.54.64,0h.64v.64l-.64.64c-.03.2.03.44,0,.64v-.02Z"/>
  <path class="cls-27" d="M110.36,84.69c-.47-.08-1.39.15-1.59,0-.07-.05.02-.89,0-1.26.63.34,1.44.03,1.91.64l-.32.62Z"/>
  <path class="cls-27" d="M34.39,34.75c-1.37-.42-1.15-1.39-1.27-2.54h1.27v.64c-.19,1.19.02,1.31,0,1.9Z"/>
  <path class="cls-27" d="M82.72,76.79c.03-.62,1.3-.27,1.91-.32-2.3.96-.78,2.08,0,3.8-1.35-.74-1.91-1.95-1.91-3.48Z"/>
  <path class="cls-27" d="M92.87,79.63c-.39-.1-.84-.47-1.27-.64-.1-.03-.24-.76-.66-.92-1.49-.59-3.45-.08-4.43-1.6,2.42.25,5.27.72,6.35,3.16Z"/>
  <path class="cls-27" d="M117.05,76.46c-1.94-2.79-6.13-3.56-8.6-5.68-1.13-.96-4.26-4.4-5.39-5.69-.44-.5-1.66-1.88-1.76-2.32-.17-.69.47-1.19.49-1.48,1.76-.22,2.48,2.05,3.18,2.54-.46-.59-4.12-3.17-3.18-.96.19.45,6.03,6.75,6.66,7.29,2.48,2.15,7.85,2.74,8.6,6.32v-.02Z"/>
  <path class="cls-27" d="M15.96,66.99h2.55v.64c-1.39-.05-1.32.08-2.55-.64Z"/>
  <path class="cls-163" d="M44.56,36.01l.64-1.26h1.27c.25-.45.46-.47.64,0v.64s-2.55.62-2.55.62Z"/>
  <path class="cls-17" d="M63.65,51.21c-.3-.15-1.22-.35-1.91-.64v-.64c.34.1.88-.08,1.27,0l.64,1.26v.02Z"/>
  <path class="cls-27" d="M101.79,46.12c.61.15,1.59-.29,1.91.64-.9.05-2.2,1.81-1.91-.64Z"/>
  <path class="cls-156" d="M105.59,34.75c.02-.12-.88-1.24.64-1.9.49.32.25.77,0,1.26v.64h-.64Z"/>
  <path class="cls-27" d="M118.94,68.88c.74-.15,1.76.1,2.55,0-.98.57-1.35,1.21-2.55,0Z"/>
  <path class="cls-27" d="M47.11,34.75h-.64l.64-1.26v1.26Z"/>
  <path class="cls-27" d="M106.49,63.79c.68.69,2.01,3.68,2.28,3.83l-3.18-3.8s.15-.79.9-.03Z"/>
  <path class="cls-27" d="M88.43,68.9c.07-.18-.05-.44,0-.64v-.64c.95-.15,3.68-2.67,3.18,0-1.99-.02-1.01-1.46-3.18,1.26v.02Z"/>
  <path class="cls-27" d="M114.51,90.38c.15-.07.76-1.6,1.25-1.26.05.03-.12.77.27,1.01,1.11.67,1.99.82,2.92,2.15-1.74-.5-2.69-1.68-4.44-1.9Z"/>
  <path class="cls-27" d="M111.96,90.38c-1.62-.4,0-1.78,0-1.9v1.9Z"/>
  <path class="cls-27" d="M92.27,74.58c-.12.02-.39,1.11-1.91.62-.35-1.14.57-1.13.63-1.26l1.27.64h.02Z"/>
  <path class="cls-42" d="M79.53,63.83l-1.91-3.8c.35.07.83-.17,1.17.1.39.76.61,1.61.74,2.44.07.37,0,.86,0,1.26Z"/>
  <path class="cls-143" d="M105.59,88.49h-.64c-1.81-.49-1.81-1.36,0-1.9.25-.54.46-.55.64,0-.12.57.12,1.33,0,1.9Z"/>
  <path class="cls-27" d="M43.95,41.07c-.81.25-1.81,1.14-2.55,1.26l1.27-1.9c.68.03,1.03.59,1.27.64h.02Z"/>
  <path class="cls-27" d="M49.66,17.68c.69-.69,1.96.57,1.27,1.26s-1.96-.57-1.27-1.26Z"/>
  <path class="cls-36" d="M94.8,42.34c-.54-.25-.56-.45,0-.64.88-.91,3.41-.69,4.44,0,1.18,1.95-1.76,1.9-3.18.64-.42-.03-.84.03-1.27,0Z"/>
  <path class="cls-27" d="M106.25,34.13c0-.4.07-.91,0-1.26-.3-1.68-.95-3.02-2.55-3.8v-.64c1.69.47,4.34,4.23,2.55,5.69Z"/>
  <path class="cls-27" d="M93.92,81.57c-.47.03-.88-.64-1.05-.66h2.55c-.15.03-.52.55-1.5.66Z"/>
  <path class="cls-42" d="M43.94,70.76c-.46-.29-4.63-4.75-4.78-5.07-.2-.44.34-.55.34-.6,1.27,2.49,4.14,2.7,4.44,5.69v-.02Z"/>
  <path class="cls-16" d="M111.32,42.96c.34.24.35.45,0,.64-1.98.55-1.84-2.35,0-.64Z"/>
  <path class="cls-27" d="M31.22,44.88c-.39,1.08.46,1.44.64,1.9,1.27,3.12,1.37.96,1.82,1.36.29.25-.03.92.08,1.16-1.89.02-4.16-3.12-2.55-4.42Z"/>
  <path class="cls-27" d="M102.42,50.54c-.69.08-1.28.35-1.91.64v-1.26c.96.1,1.74.64,1.91.64v-.02Z"/>
  <path class="cls-27" d="M64.28,122.62c.07,0,.78-1.08,1.27-.62.39.34-.63,1.26-.63,1.26l-.64-.64Z"/>
  <path class="cls-42" d="M57.92,90.4v-.64c1.84-.29,1.17.45,1.27,1.9-.44-.34-.83-.99-1.27-1.26Z"/>
  <path class="cls-27" d="M35.04,38.55c-2.52-.67-.64-2.74-.64-3.16l.64,3.16Z"/>
  <path class="cls-42" d="M26.77,115.68c.69-.69,1.96.57,1.27,1.26s-1.96-.57-1.27-1.26Z"/>
  <path class="cls-42" d="M72.54,60.69c-1.71-.25,0-2.39,0-2.54v2.54Z"/>
  <path class="cls-42" d="M52.84,109.35c.74-.47,1.88-.25,1.91.64-.35,1.36-1.64.35-1.91-.64Z"/>
  <path class="cls-42" d="M68.09,110.63c-1.54-.66-1.54-1.24,0-1.9v1.9Z"/>
  <path class="cls-27" d="M15.96,109.99c.61-1.01,2.01-1.01,2.55,0-.64.18-1.79-.13-2.55,0Z"/>
  <path class="cls-27" d="M52.84,109.35c-.54-.45,2.62-1.6,1.91.64l-1.91-.64Z"/>
  <path class="cls-27" d="M21.05,105.55h.63l.64,1.26c-.1.17.1.52,0,.64-1.69.27-1.32-.4-1.27-1.9Z"/>
  <path class="cls-27" d="M66.18,105.57l.95-.62.32.62c-.64,1.04-1.01.05-1.27,0Z"/>
  <path class="cls-42" d="M57.92,99.87l.64-2.54c-.24,1.16-.2,1.33-.64,2.54Z"/>
  <path class="cls-42" d="M73.8,70.76c1.93-2.42,4.24-3.68,5.73-6.32-.52,3.34-1.17,2.1-2.87,3.81-.74.77-2.72,2.37-2.84,2.52l-.02-.02Z"/>
  <path class="cls-27" d="M94.16,63.83c.07-1.09-.54-2.17-.64-3.16,2.03,1.31.79,2.2.64,3.16Z"/>
  <path class="cls-42" d="M56.02,46.76l.64-1.9c-.2,1.19-.44,1.28-.64,1.9Z"/>
  <path class="cls-42" d="M63.01,46.12c1.05.4,1.5-.18,1.91,1.9l-1.91-1.9Z"/>
  <path class="cls-29" d="M66.84,22.72l-.64.64h-.64c-1-.71.39-2.27,1.27-1.26.03.02.02.5,0,.64l.02-.02Z"/>
  <path class="cls-27" d="M72.54,89.75c.07,1.08.24,1.48-.95,1.26l-.32-.62c.29-.1,1.01-.45,1.27-.64Z"/>
  <path class="cls-42" d="M42.03,125.79c-.14-.42.07-.84.64-1.26,1.15-.4.69,2.35-.64,1.26"/>
  <path class="cls-27" d="M111.96,87.23c-.02-.1-.54-1.61-.64-1.9l.64,1.9Z"/>
  <path class="cls-27" d="M116.41,54.99v.62c-2.65.32-2.65-.94,0-.62Z"/>
  <path class="cls-98" d="M17.23,85.95l-1.27.64c-.07-.13-.05-.99,0-1.26h1.27c0,.2-.05.52,0,.64v-.02Z"/>
  <path class="cls-27" d="M90.34,85.93c-1.17.17-1.86.05-2.53-.94l2.53.34v.62-.02Z"/>
  <path class="cls-49" d="M30.58,56.86c.66,1.01-.78,1.29-1.27.64v-1.26h.64c-.07.67.3.52.64.64l-.02-.02Z"/>
  <path class="cls-27" d="M93.53,56.86c-.07.6-.02,1.29,0,1.9h-.64l.05-1.51.57-.37.02-.02Z"/>
  <path class="cls-14" d="M71.91,18.32l.63-1.9c.12.25-.08.87,0,1.26-.08,0-.15.81-.63.64Z"/>
  <path class="cls-27" d="M85.26,80.27c.83.42,3.33,1.76,3.82,1.9-1.57.13-2.84-.81-3.82-1.9Z"/>
  <path class="cls-27" d="M34.41,118.86c-.25.34-.46.35-.64,0-.59-.13-.44-.45-.64-.64.42-.17.83-.5,1.27-.64-.08.35.12,1.09,0,1.26l.02.02Z"/>
  <path class="cls-27" d="M33.77,116.32v-1.9c.74.91,1.25,1.9,0,1.9Z"/>
  <path class="cls-27" d="M14.06,79.01c-.19-1.33-.07-1.44,1.27-1.26l-1.27,1.26Z"/>
  <path class="cls-27" d="M117.05,30.95c-.19-1.33-.07-1.44,1.27-1.26l-1.27,1.26Z"/>
  <path class="cls-27" d="M80.17,112.51c-.81-1.29-1.05-1.38.64-1.26-.1.1.08.67-.64,1.26Z"/>
  <path class="cls-27" d="M73.8,76.48l.64-1.9c-.27.79.54,1.36-.64,1.9Z"/>
  <path class="cls-155" d="M86.54,39.17c-.2-.07-.46.07-.64,0-.74-.54-.96-.96-.64-1.26h.64c.19.35.54,1.09.64,1.26Z"/>
  <path class="cls-27" d="M94.16,74.59c1.01-.18,2.18-.4,3.18-.64-.69.71-2.69,1.8-3.18.64Z"/>
  <path class="cls-27" d="M89.07,41.72c-2.4-.15-1.88-1.51-2.55-2.54.32.12.91-.1,1.27,0,.02.94.22,1.36.64,1.26.22-.5.42-.5.64,0v1.28Z"/>
  <path class="cls-42" d="M58.57,39.82c.15,1.78-.95,3.04-1.91,4.42.2-.91.3-1.61.64-2.54.22-.6,1-1.29,1.27-1.9v.02Z"/>
  <path class="cls-42" d="M52.2,72.68c.14.07,1.72.08,1.91,0-.08.96-1.82.96-1.91,0Z"/>
  <path class="cls-27" d="M104.95,72.06c1.66-.13,1.5,0,.64,1.26-.02-.07-.42-.18-.64-1.26Z"/>
  <path class="cls-27" d="M103.06,105.55c-.3.87-1.1,1.51-1.91,1.9h-.64c1.18-1.26,1.88-.86,1.91-3.16.32.07.64.32.64.64,0,.22.05.5,0,.64v-.02Z"/>
  <path class="cls-27" d="M101.15,40.43c-1.35,2.4-2.58,4.65-5.08,1.9.84.07,2.06.81,2.8.69s.25-1.18.37-1.31l1.27-1.26c.15-.08.47.08.64,0v-.02Z"/>
  <path class="cls-42" d="M40.12,61.95c0-.92.35-1.63,1.27-1.9-.34.64-1.18,1.71-1.27,1.9Z"/>
  <path class="cls-42" d="M75.73,60.05l.9-.62.37.62c-.42,0-.84-.03-1.27,0Z"/>
  <path class="cls-42" d="M67.45,54.35l-.57-1.53.57-.37c.03.89.22.76,0,1.9Z"/>
  <path class="cls-27" d="M99.88,52.46h-.64c-.07-.69.07-.91.64-1.26.05.4-.07.87,0,1.26Z"/>
  <path class="cls-42" d="M76.35,47.06c-.2.54-1.03.71-1.27.96l.64-1.9c.49.24.83.17.63.94Z"/>
  <path class="cls-27" d="M34.41,45.5c.2-.67.78-.5,1.27-.64v.64h-1.27Z"/>
  <path class="cls-42" d="M82.72,44.22c-.02-.07-.42-.32-.64-1.26l.64,1.26Z"/>
  <path class="cls-42" d="M82.08,42.34c-1.28-.96-1.45-2.42-1.91-3.8,1.25.97,1.49,2.4,1.91,3.8Z"/>
  <path class="cls-27" d="M90.97,42.96c-.57-.15-1.03-.71-1.27-1.26.07,0,.15-.77.63-.64l.66,1.9h-.02Z"/>
  <path class="cls-27" d="M93.53,42.34l.32-.64h.95v.64c-.41-.02-.86-.03-1.27,0Z"/>
  <path class="cls-42" d="M69.36,37.91c0-.08-1.64-.64,0-1.26v1.26Z"/>
  <path class="cls-42" d="M66.18,36.01c.9-.45,1.71.4,1.27.62-.9.45-1.71-.4-1.27-.62Z"/>
  <path class="cls-27" d="M92.89,36.01l-.63-.94.63-.32c.1.37-.14,1.06,0,1.26Z"/>
  <path class="cls-27" d="M44.6,34.75c-.22.03-.44,0-.64,0l-.64-.64c.41.18,1,.05,1.27.64h.02Z"/>
  <path class="cls-42" d="M61.73,32.85c-.3.47-.05,1.7-1.27,1.9.25-.64.42-1.26.64-1.9h.64-.02Z"/>
  <path class="cls-27" d="M20.42,31.59c.9-.45,1.71.4,1.27.62-.9.45-1.71-.4-1.27-.62Z"/>
  <path class="cls-27" d="M49.66,30.95c.64.08.98-.18,1.27.64l-1.27-.64Z"/>
  <path class="cls-42" d="M77,30.95c-.05-.12-.73-.6-1.27-1.9l1.27,1.9Z"/>
  <path class="cls-42" d="M64.9,27.8c-.3.71-.05,1.63-1.27,1.9.24-.62.61-1.21.64-1.9h.64-.02Z"/>
  <path class="cls-27" d="M77.64,25.9c.9-.45,1.71.4,1.27.62-.9.45-1.71-.4-1.27-.62Z"/>
  <path class="cls-27" d="M48.38,24.64c.9-.45,1.71.4,1.27.62-.9.45-1.71-.4-1.27-.62Z"/>
  <path class="cls-27" d="M63.65,25.26c.68-1.33,1.06-3.59,2.85-3.8l.32.64c-1.55-.94-1.18,1.14-1.27,1.26-.44.55-1.49,1.13-1.91,1.9Z"/>
  <path class="cls-27" d="M15.96,19.58c.9-.45,1.71.4,1.27.62-.9.45-1.71-.4-1.27-.62Z"/>
  <path class="cls-27" d="M70.64,15.15v-1.26c1.03.59,0,1.09,0,1.26Z"/>
  <path class="cls-27" d="M75.09,15.15c-.83.05-.98-1.19-.32-1.26l.32.62c.32.22.32.42,0,.64Z"/>
  <path class="cls-42" d="M24.22,125.17c.9-.45,1.71.4,1.27.62"/>
  <path class="cls-27" d="M56.98,117.6l-.32,1.88c-.22,0-.54.05-.64,0l.96-1.88Z"/>
  <path class="cls-42" d="M20.41,113.78c-1.4-1.16.63-.82.64,0-.24.35-.46.35-.64,0Z"/>
  <path class="cls-27" d="M23.6,113.14l.95-.62.32.62c-.29.03-1.11.07-1.27,0Z"/>
  <path class="cls-27" d="M84.63,112.52l1.27-.64c0,.77-.56.71-1.27.64Z"/>
  <path class="cls-27" d="M23.58,110.63c.08-.1.54.1.64,0l.64.32c-.07.66-1.3.5-1.27-.32h-.02Z"/>
  <path class="cls-27" d="M88.11,109.97l-.95-.62c.41,0,.86-.03,1.27,0l-.32.62Z"/>
  <path class="cls-27" d="M94.16,109.99c.07-.2-.07-.47,0-.64.41.03.84,0,1.27,0-.17.62-.73.6-1.27.64Z"/>
  <path class="cls-27" d="M102.44,109.99l.95-.62.32.62c-.37-.02-1.1.1-1.27,0Z"/>
  <path class="cls-27" d="M119.6,109.35c-.15.57-.64.59-.64.64l-.64-.64h1.28Z"/>
  <path class="cls-27" d="M40.76,108.71h1.27v.64c-.54-.07-1.08-.02-1.27-.64Z"/>
  <path class="cls-27" d="M85.26,109.35v-.64c.47.15,1.06-.03,1.27.64h-1.27Z"/>
  <path class="cls-27" d="M97.98,109.37l1.27-.64c-.46.27-.47.49-1.27.64Z"/>
  <path class="cls-27" d="M72.55,103.67c.9-.45,1.71.4,1.27.62-.9.45-1.71-.4-1.27-.62Z"/>
  <path class="cls-35" d="M69.36,102.38v.64l-.63-.32.63-.94v.64-.02Z"/>
  <path class="cls-27" d="M78.89,98.92l-.63.32c-.1-.34.08-.89,0-1.26l.63.94Z"/>
  <path class="cls-27" d="M110.7,97.36c.9-.45,1.71.4,1.27.62-.9.45-1.71-.4-1.27-.62Z"/>
  <path class="cls-42" d="M58.55,96.7l.64-1.26c-.1,1.11-.64,1.26-.64,1.26Z"/>
  <path class="cls-27" d="M118.97,88.49l2.53,2.86c.22.81-.22.71-.64.94-.19-1.68-1.57-2.02-1.91-3.8h.02Z"/>
  <path class="cls-42" d="M60.47,90.38c-.46-.89.41-1.7.63-1.26.46.89-.41,1.7-.63,1.26Z"/>
  <path class="cls-27" d="M25.51,87.85c-.51-.22-.52-1.16-.64-1.26h.64c-.08.39.1.91,0,1.26Z"/>
  <path class="cls-27" d="M105.59,85.34c-.08.37.08.87,0,1.26h-.64c-.56-.29-.59-.5,0-.64.12-.25.44-.45.64-.64v.02Z"/>
  <path class="cls-27" d="M106.24,83.43l.64-1.26c-.24.87-.64,1.26-.64,1.26Z"/>
  <path class="cls-27" d="M104.95,81.53c.2-.96.64-1.26.64-1.26l-.64,1.26Z"/>
  <path class="cls-27" d="M106.86,81.53l.64-1.26c-.17,1.04-.64,1.26-.64,1.26Z"/>
  <path class="cls-27" d="M108.79,80.26v.64c-.59-.17-.73-.74-.64-1.26.24.2.42.44.64.64v-.02Z"/>
  <path class="cls-27" d="M94.8,79.65c.2-.67.78-.5,1.27-.64-.17.64-.73.59-1.27.64Z"/>
  <path class="cls-27" d="M99.88,77.1c-.52.59-2.36,1.56-3.18,1.9,1.81-1.66,3.18-2.89,4.44-5.06-.07.2.07.45,0,.64-.22.59-.93,2.18-1.27,2.54v-.02Z"/>
  <path class="cls-27" d="M102.42,74.58l.64-1.26c-.14,1.06-.59,1.13-.64,1.26Z"/>
  <path class="cls-27" d="M77,73.32h1.27c-1.4.37-1,0-1.27,0Z"/>
  <path class="cls-150" d="M75.09,73.32c.34-.82.3-2.65.64,0-.2,0-.46-.03-.64,0Z"/>
  <path class="cls-27" d="M81.46,72.06c-1.06-.08-1.86,1.02-2.55,1.26.41-.64.86-1.26,1.27-1.9.49-.07,1.06.6,1.27.64h.02Z"/>
  <path class="cls-42" d="M45.85,71.4l-1.27.64c-.46-.49-.93.05,0-1.26.41.22.84.42,1.27.64v-.02Z"/>
  <path class="cls-27" d="M111.96,67c1.33.17,1.89,1.08,2.55,1.26-.27,1.11.52,1.33,1.27,1.9-2.03-.37-2.16-2.08-3.82-3.16Z"/>
  <path class="cls-27" d="M116.41,70.14c.46-.59,1.17-1.11,1.91-1.26-.32,1.06-.95,1.13-1.91,1.26Z"/>
  <path class="cls-27" d="M92.87,67.62l.64-1.26c-.22.47.3.94-.64,1.26Z"/>
  <path class="cls-27" d="M122.76,67.62c.12-.08.19-1.04.64-1.26-.12.79-.35.81-.64,1.26Z"/>
  <path class="cls-27" d="M93.52,65.73l.64-1.26c-.19.91-.59,1.11-.64,1.26Z"/>
  <path class="cls-42" d="M39.48,63.83l.64-1.26c-.24.62-.64,1.26-.64,1.26Z"/>
  <path class="cls-27" d="M57.28,6.93l.64.64c-.19-.17-.66-.17-.64-.64"/>
  <path class="cls-27" d="M59.21,8.19c-.51-.12-.64-.64-.64-.64l.64.64Z"/>
  <path class="cls-27" d="M62.99,8.51l-.63.32c-.03-.22,0-.64,0-.64l.63.32Z"/>
  <path class="cls-27" d="M62.37,10.09c-.9-.79.02-.25,0-.64v.64Z"/>
  <path class="cls-27" d="M53.16,10.09c.41.22.41.42,0,.64v-.64Z"/>
  <path class="cls-27" d="M114.18,11.35c.41.22.41.42,0,.64v-.64Z"/>
  <path class="cls-42" d="M75.09,15.15s0-.64,0-.64c.74-.32.74.96,0,.64Z"/>
  <path class="cls-27" d="M75.09,22.74h-.64c.03-.2,0-.44,0-.64.3.08.61.35.64.64Z"/>
  <path class="cls-42" d="M66.18,23.38l.64-.64c-.15.86-.64.64-.64.64Z"/>
  <path class="cls-27" d="M76.35,25.9l-1.27-1.26c.03.08.9.35,1.27,1.26Z"/>
  <path class="cls-42" d="M65.54,25.28l.64-.64c-.17.49-.64.64-.64.64Z"/>
  <path class="cls-27" d="M77,27.17h-.64c.05-.15,0-.44,0-.64.29.12.56.35.64.64Z"/>
  <path class="cls-42" d="M64.92,27.17l.64-.64c-.19.49-.64.64-.64.64Z"/>
  <path class="cls-42" d="M63.01,30.95l.64-.64c-.15.35-.57.52-.64.64Z"/>
  <path class="cls-42" d="M70.64,32.23l-.63-.32.63-.32v.64Z"/>
  <path class="cls-42" d="M62.37,32.23l.64-.64c-.14.25-.51.44-.64.64Z"/>
  <path class="cls-27" d="M40.76,32.23c.42.39,1.01.37,1.27,1.26-.42-.13-.83-.52-1.27-.64v-.64.02Z"/>
  <path class="cls-42" d="M70.64,34.13l-.63-.32.63-.32v.64Z"/>
  <path class="cls-27" d="M31.54,34.75c.41.22.41.42,0,.64v-.64Z"/>
  <path class="cls-42" d="M59.82,36.65l.64-.64c-.17.47-.64.64-.64.64Z"/>
  <path class="cls-27" d="M83.99,37.93c-.25-.12-.54-.64-.64-.64.1.13.57.6.64.64Z"/>
  <path class="cls-27" d="M82.08,37.93l.64-.64c-.05.02-.64.64-.64.64Z"/>
  <path class="cls-42" d="M59.19,37.93l.64-.64c-.17.37-.59.54-.64.64Z"/>
  <path class="cls-27" d="M85.24,37.91l.64,1.26c-.59-.18-1.15-.6-1.27-1.26.29-.4.51-.42.64,0h-.02Z"/>
  <path class="cls-42" d="M58.55,39.19v-.64h.64c-.14.29-.39.49-.64.64Z"/>
  <path class="cls-27" d="M39.49,39.15v.64l-1.27-1.26c.37.08.84.52,1.27.64v-.02Z"/>
  <path class="cls-27" d="M101.78,40.44l.64-.64c.07.64-.29.52-.64.64Z"/>
  <path class="cls-27" d="M40.12,40.76l-.63.32c-.07-.15.03-.42,0-.64l.63.32Z"/>
  <path class="cls-27" d="M40.76,42.34l-.64-.64c.2.18.64.64.64.64Z"/>
  <path class="cls-27" d="M92.25,42.98c.1-.3.34-.55.64-.64-.08.32-.3.6-.64.64Z"/>
  <path class="cls-27" d="M111.32,43.6v-.64c.24.22,1.23.29,0,.64Z"/>
  <path class="cls-27" d="M32.5,45.5l-.64-.64c.86.17.64.64.64.64Z"/>
  <path class="cls-27" d="M101.15,46.14l-.64-.64c.71.2.64.64.64.64Z"/>
  <path class="cls-42" d="M56.02,47.42l1.27,1.26c-.44-.17-.84-.44-1.27-.64v-.64.02Z"/>
  <path class="cls-42" d="M73.8,49.3l.64-.64c-.19.24-.61.52-.64.64Z"/>
  <path class="cls-27" d="M109.09,49.28c.41.22.41.42,0,.64v-.64Z"/>
  <path class="cls-42" d="M67.45,51.2l-.63-.32.63-.32c.05.2-.03.44,0,.64Z"/>
  <path class="cls-42" d="M66.81,55.61l.64-.64c-.05.25-.61.5-.64.64Z"/>
  <path class="cls-42" d="M72.55,57.51c0-.1-.64-1.28-.64-1.9,1.1.34,1.39.97.64,1.9Z"/>
  <path class="cls-27" d="M13.73,61.93c.41.22.41.42,0,.64v-.64Z"/>
  <path class="cls-27" d="M110.04,67.64c.03-.42.54-.5.64-.64-.05.02-.24.6-.64.64Z"/>
  <path class="cls-27" d="M13.11,66.99c.41.22.41.42,0,.64v-.64Z"/>
  <path class="cls-42" d="M122.77,67.64c-.41.66-.59.86-1.27,1.26v-.64c.27-.07,1.03-.45,1.27-.64v.02Z"/>
  <path class="cls-27" d="M20.41,67.62c.34.52.93,0,.96.03.15.2-.17.92-.32,1.23-.57-.13-1.03-.72-1.27-1.26.22-.03.46.05.64,0h-.02Z"/>
  <path class="cls-42" d="M55.69,70.8l.32.62c-.2,0-.46-.03-.64,0,0,0,.32-.62.32-.62Z"/>
  <path class="cls-27" d="M25.49,71.42c.05-.03.2-.47.64-.64l-.64.64Z"/>
  <path class="cls-42" d="M54.11,72.06l.64-.64c-.19.08-.37.52-.64.64Z"/>
  <path class="cls-27" d="M74.44,73.96c.03-.45.24-.55.64-.64-.19.45-.64.59-.64.64Z"/>
  <path class="cls-27" d="M101.78,75.85v-.64h.64c-.15.3-.32.54-.64.64Z"/>
  <path class="cls-42" d="M63.65,77.11l1.91-1.9c-.19.72-1.2,1.66-1.91,1.9Z"/>
  <path class="cls-27" d="M101.79,76.49c-.46.86-.93.87-1.27,1.26v-.64l1.27-.64v.02Z"/>
  <path class="cls-27" d="M117.69,77.75h-.64v-.64c.24.2.42.44.64.64Z"/>
  <path class="cls-27" d="M119.6,79c-.07.34-.3.59-.64.64-.05-.35-.51-.86-.64-1.26.41.24.88.39,1.27.64l.02-.02Z"/>
  <path class="cls-27" d="M97.98,80.27l1.27-1.26c-.39.32-.46.77-1.27,1.26Z"/>
  <path class="cls-27" d="M74.14,79.63c.41.22.41.42,0,.64v-.64Z"/>
  <path class="cls-27" d="M96.69,80.91l.64-.64c-.07.03-.2.49-.64.64Z"/>
  <path class="cls-27" d="M90.98,82.17l1.27-1.26c-.12.05-.35.97-1.27,1.26Z"/>
  <path class="cls-27" d="M104.33,82.81c.12-.35.63-.55.64-.64l-.64.64Z"/>
  <path class="cls-27" d="M72.86,82.17c.41.22.41.42,0,.64v-.64Z"/>
  <path class="cls-27" d="M31.23,82.81c-.02-.05-.57-.2-.64-.64l.64.64Z"/>
  <path class="cls-27" d="M97.01,83.43c.41.22.41.42,0,.64v-.64Z"/>
  <path class="cls-27" d="M105.59,84.71l.64-.64c-.12.44-.64.64-.64.64Z"/>
  <path class="cls-27" d="M25.49,85.97l.64-.64c-.05.34-.64.64-.64.64Z"/>
  <path class="cls-27" d="M24.24,89.75l1.27-1.26c-.22.62-.61,1.08-1.27,1.26Z"/>
  <path class="cls-27" d="M22.96,88.5c.14.1.59.02.63.3,0,.12-.56.62-.63.96-.19-.02-.51-.64-.64-.64l.64-.64v.02Z"/>
  <path class="cls-27" d="M69.36,91.02v-.64h.64l-.64.64Z"/>
  <path class="cls-27" d="M119.9,91.66l.32.62c-.19.03-.46,0-.64,0l.32-.62Z"/>
  <path class="cls-27" d="M51.57,108.09c.1-.67,1.08-.99,1.27-1.26-.42.49-.44.92-1.27,1.26Z"/>
  <path class="cls-27" d="M75.41,108.09c.41.22.41.42,0,.64v-.64Z"/>
  <path class="cls-27" d="M50.29,108.73v-.64h.64c-.1.29-.35.6-.64.64Z"/>
  <path class="cls-27" d="M39.82,108.11l.32.62h-.64s.32-.62.32-.62Z"/>
  <path class="cls-27" d="M31.54,111.26c.44.12.24.47.32.62h-.64s.32-.62.32-.62Z"/>
  <path class="cls-27" d="M20.41,113.78h.64c-.32,1.29-.54.08-.64,0Z"/>
  <path class="cls-27" d="M68.09,115.68c0-.24-.03-.22,0-.64v.64Z"/>
  <path class="cls-42" d="M34.07,119.46l-.32-.62c.17.03.64,0,.64,0,0,0-.32.62-.32.62Z"/>
  <path class="cls-27" d="M54.43,122c.41.22.41.42,0,.64v-.64Z"/>
  <path class="cls-27" d="M41.4,125.49l1.27-.96v.02c-.07.02-.64,1.26-.64,1.26"/>
  <path class="cls-104" d="M26.18,79c-2.85.4-4.31,1.53-3.19-2.52-.88-.34-.61,2.6-1.91,1.26-.08-.08.54-2.23.64-2.52.81-2.2,1.17-2.75,3.82-2.54.07.17.98.08.63,1.26l-3.18,1.26,5.71-.64c-1.67-3.68.54-2.97,1.57-4.45.32-.45.22-1.06.34-1.23,1.05.13,1.2,1.02,1.27,1.9.29.52.29,1.16,0,1.9.05.84-.07,1.7,0,2.54h-.64c-.96-.2-1.27.2-1.91.64-2.43,1.65-.34,2.91-.64,3.16-.2.15-1.89-.1-2.55,0l.05-.02Z"/>
  <path class="cls-10" d="M50.27,67.62c.08-1.85-.81-1.46.96-1.65,2.58-.25,6.18.03,5.41,3.54-3.75-.45-1.55-1.7-1.91-1.9-1.3-.79-1.59,1.13-1.59,1.9-1.18.27-1.17-1.26-1.76-1.73-.39-.3-.98-.08-1.1-.17h-.02Z"/>
  <path class="cls-25" d="M49.04,54.34c-1.39-1.04-.56-4.42,1.27-4.42,2.4.87,2.03,1.88,1.22,4.59-.17.57-1.01.47-1.11.79-.12.39.79,2.72.52,3.48l-1.91-4.42.02-.02Z"/>
  <path class="cls-101" d="M49.02,54.37c-.22.44-.66,1.43-1.27,1.26.05-1.21-1.32-2.42-1.32-3.46,0-.5,2.94-.25.03-1.28,1.6-1.61,1.99-1.63,3.82-.96-.39,1.46-.59,3.02-1.27,4.42v.02Z"/>
  <path class="cls-168" d="M43.3,47.42c1.28.13,1.79-.79,2.55-1.26.25-.34.68-.55,1.27-.64.37.02,1.22-.07,1.27,0,1.52,1.98-5.39,4.92-6.35,3.78-.78-.94,1.18-1.71,1.27-1.9v.02Z"/>
  <path class="cls-11" d="M53.48,43.6c-.83-.02-2.13-.27-2.55.64-.22-.02-.44,0-.64,0,.46-3.09,4.22-3.39,5.73-5.69-.07.25-.05.96,0,1.26-1.57.72-1.74,2.55-2.55,3.8h.02Z"/>
  <path class="cls-11" d="M52.84,44.88c.22-.22.42-.32.64-.64.1-.15-.1-.49,0-.64.42,0,.84-.02,1.27,0,.05,2.2-1.96,4.08-1.91,1.26v.02Z"/>
  <path class="cls-111" d="M52.21,60.03c-.32-1.14,1.11-1.78,1.27-2.52.76-.3,1.39.12,1.91,1.26.34,1.09-.03,1.63,0,1.9-.25.54-.46.55-.64,0l-2.53-.64Z"/>
  <path class="cls-40" d="M35.04,71.42c-.14-1.19.51-3.09-.64-3.8.12-.25-.1-.87,0-1.26,1.2-.97,1.57,1.81,1.91,3.16.14.54-.15,1.39,0,1.9.57,2.97-.57,2.74-1.27,0Z"/>
  <path class="cls-46" d="M59.21,66.36c-.2.86-.98,1.48-1.91,1.26.79-1.09-1.25-3.19-.64-3.78,1.71-1.68,1.89,1.97,2.53,2.52h.02Z"/>
  <path class="cls-78" d="M53.46,57.51c0-.05-.81-.17-.64-.62,2.2-.27,2.06.3,2.55,1.88,0,0-1.91-1.26-1.91-1.26Z"/>
  <path class="cls-100" d="M47.13,66.35c-1.69,1.28-1.67.24-.64-1.26.39.27.9.39,1.27.64-.12.25-.61.5-.64.64l.02-.02Z"/>
  <path class="cls-171" d="M44.58,45.48c.42.03.84-.03,1.27,0s.84-.02,1.27,0c-.27.52-.96.45-1.27.64l-1.27-.64Z"/>
  <path class="cls-53" d="M31.86,72.68c-.05-.77.02-1.63,0-1.9h.64c-.25.49-.22,1.38-.64,1.9Z"/>
  <path class="cls-30" d="M60.47,52.46c.69-.69,1.96.57,1.27,1.26s-1.96-.57-1.27-1.26Z"/>
  <path class="cls-119" d="M54.73,60.67h.64c.05.37,1.5,1.86-.3,1.26-.63-.2-.25-.79-.32-1.26h-.02Z"/>
  <path class="cls-92" d="M63.65,53.71l-.64.64-.63-.6c.41-.13.98.08,1.27-.03h0Z"/>
  <path class="cls-118" d="M42.03,46.14h.95l.32.62c-.05-.05-.57-.05-1.27-.62Z"/>
  <path class="cls-71" d="M51.57,46.76c-.17-.2-.86-.03-.63-.94.1-.39.63-.32.63-.32v1.26Z"/>
  <path class="cls-100" d="M45.53,65.09l-.32-.62c.08.1.54-.1.64,0,0,0-.32.62-.32.62Z"/>
  <path class="cls-161" d="M43.94,100.48c-1.39.81-3.53,1.6-3.82-1.26-.76-.64-.78-.92-.64-1.9,1.96.92,2.62-1.61,1.91-2.52-1.08-1.39-1.35,1.97-1.89,1.26-.93-3.53,1.33-4.15-3.19-4.42-5.54-2.1,1.71-4.08,4.85-2.81l3.41,2.81c1.57.12,2.01-.59,3.18-1.26-.05,1.39-.32,2.23,1.28,1.9-.9,2.18.2,2.72-.64,5.06-.54.39-.96.81-1.27,1.26-1.08.87-1.37,1.6-3.18,1.9v-.02Z"/>
  <path class="cls-160" d="M36.3,91.64c-.17-.02-.73.72-1.28.34-.71-.47-.83-1.73-1.27-2.23,1.22-.34-.29-2.27,0-2.52.83-.71,8.51,1.58,2.53-3.16.14-.02.76-1.13,1.59-.07l6.69,7.64c-1.64-.12-1.94-1.44-2.99-1.76-2.35-.72-4.81.79-7.18-.12.22.89,1.32,1.23,1.91,1.9v-.02Z"/>
  <path class="cls-65" d="M48.4,80.91c-.2.07-.44-.05-.64,0-2.77-.49-2.85-1.65-.64-3.16.27-.13.54-.81,1.18-.96.81-.18,1.44.32,1.99.32,1.27,0,2.55-.03,3.82,0l-3.18,3.16c-.2.07-.46-.07-.64,0-.49.55-1.3,1.24-1.91.64h.02Z"/>
  <path class="cls-107" d="M35.02,71.4c.73,1.33,1.42,2.12,1.27,0,.14.47.46,1.36.64,1.9-.03.54.17.97.64,1.26.08.18-.08.49,0,.64l.64.64c1.3,1.43,2.45,2.2,4.44,2.54-1.44,2.39-1.91.34-2.06.29-4.09-1.6-5.07-2.69-5.56-7.24l-.02-.02Z"/>
  <path class="cls-144" d="M47.76,80.93c-2.38.69-2.08-1.55-4.44-.64-.3-1.78.29-.96.96-1.26.98-.44,1.86-.81,2.84-1.28-.46,1.33-1.06,2.62.64,3.16v.02Z"/>
  <path class="cls-44" d="M52.82,85.97c.35-.29.27-1.31,1.3-1.02,1.11.32,2.58,1.86,3.16,2.92-1.54-.59-2.65-2.12-4.44-1.9h-.02Z"/>
  <path class="cls-52" d="M48.38,80.91c.64-.22,1.55-.52,1.91-.64-.27.99-1.55,2.02-1.91.64Z"/>
  <path class="cls-40" d="M36.94,73.32c.15.42.44.84.64,1.26-1.49.22-1.76-.2-.64-1.26Z"/>
  <path class="cls-1" d="M38.23,75.85l-.64-.64c.1.17.46.42.64.64Z"/>
  <path class="cls-27" d="M31.86,75.85l-.64-.64h.64c.02.22-.02.44,0,.64Z"/>
  <path class="cls-114" d="M95.43,103.03c-.56-.2-2.35.2-2.55,0s-.2-5.49,0-5.69c1.15-1.11,1.88,1.26,2.85,1.26,1.59,0,.68-1.13,1.59-1.9-.08.66-.1,1.6.64,1.9,0,.22-.05.49,0,.64.08,1.24-1.91,1.38-1.27,0-1.13.84-1.35,1.46-.64,1.9.49-.02.91.17.64.64l-1.27,1.26h0Z"/>
  <path class="cls-12" d="M86.98,96.46c-2.06.81-3.38-.39-2.36-1.65.2-.24,4.85-.82,5.71-.64-.63,2.22-2.82,1.31-3.06,1.41-.12.05-.1.82-.27.89l-.02-.02Z"/>
  <path class="cls-87" d="M79.55,94.8c-.56-.18-.76-1.31-.63-1.9,2.48,1.13,4.7-1.49,3.18,1.9.29.34,1.57-1.58,1.89-1.26,1.6,1.58-2.89,1.83-3.18,1.9-.35-.08-.78-.29-1.27-.64Z"/>
  <path class="cls-34" d="M94.8,96.08c-1.82-.24-.73-1.39-.64-1.9.15-.86.42-1.71.64-2.54,1.2-.54,1.82.52,1.91,3.16.52.25.54.47,0,.64-.52.3-1.32.71-1.91.64Z"/>
  <path class="cls-114" d="M96.69,95.44c-.1-.1.1-.6,0-.64-.41-1.73,1.62-2.89,2.55-1.26.25-.54.46-.55.64,0-.44.39-2.48,2.37-2.55,2.54-.71.1-.59-.59-.64-.64Z"/>
  <path class="cls-26" d="M91,106.19s0,.54-.32.62c-1.28.35-1.37-.81-.32-1.58,1-1.01,1.05.18,1.27.32l-.64.64h.02Z"/>
  <path class="cls-127" d="M81.44,101.77v-1.9c.93.22,1.47,1.02,1.27,1.9h-1.27Z"/>
  <path class="cls-162" d="M79.55,94.8c.1.03.15-1.55,1.27.64-.46.08-1.47,1.9-1.27-.64Z"/>
  <path class="cls-131" d="M83.35,91.66c.69-.69,1.96.57,1.27,1.26s-1.96-.57-1.27-1.26Z"/>
  <path class="cls-173" d="M83.99,104.93h2.53c-.03.39.08,1.18,0,1.26-.34.34-3.29-.89-2.53-1.26Z"/>
  <path class="cls-43" d="M96.71,106.81c-.3.07-.64-.05-.95,0-.32-.12-.32-.32-.32-.62l1.27.64v-.02Z"/>
  <path class="cls-19" d="M87.16,99.87c.9-.45,1.71.4,1.27.62-.9.45-1.71-.4-1.27-.62Z"/>
  <path class="cls-114" d="M94.48,96.72c-.69-.05.02-.94.32-.64.14.15-.1.64-.32.64Z"/>
  <path class="cls-114" d="M95.75,96.7c.41.22.41.42,0,.64v-.64Z"/>
  <path class="cls-23" d="M92.89,108.09h-.64c.05-.74.64,0,.64,0Z"/>
  <path class="cls-42" d="M98.6,99.87c.32.59.95.91.64,1.9-2.31,1.44-4.43-2.23-.64-1.9Z"/>
  <path class="cls-27" d="M102.42,103.67c-1.2-1.36-2.97-.5-3.97-.81-.76-.24-1.25-.91-1.74-1.09s-.59-.64-.64-.64c-.93-.62-.25-1.58.64-1.9.17-.02.57.5.96.47l.3-.47c.05.17.51.39.64.64l-1.91.94c.61,1.18,1.84.69,2.53.96,1.15.44,2.67.37,3.18,1.9Z"/>
  <path class="cls-27" d="M111.32,108.09v-1.26c.88-.18,1.69.35,1.91,1.26h-1.91Z"/>
  <path class="cls-27" d="M115.76,104.28l-3.8.34c.9-1.24,2.47-.99,3.8-.94v.62-.02Z"/>
  <path class="cls-27" d="M116.41,103.67c.79-.42,2.21,1.02,1.91,1.26-.79.42-2.21-1.02-1.91-1.26Z"/>
  <path class="cls-27" d="M119.58,104.31c.9-.45,1.71.4,1.27.62-.9.45-1.71-.4-1.27-.62Z"/>
  <path class="cls-27" d="M116.08,104.93c.41.22.41.42,0,.64v-.64Z"/>
  <path class="cls-27" d="M107.18,104.93c.41.22.41.42,0,.64v-.64Z"/>
  <path class="cls-27" d="M15.34,123.59c1-1.73,1.99-.44,1.27.3-.05.05-1.35.25-1.27-.3Z"/>
  <path class="cls-27" d="M15.02,121.36c.41.22.41.42,0,.64v-.64Z"/>
  <path class="cls-91" d="M39.51,106.19c-1.99-.03-1.59-2.84-4.44-1.9l.64-1.9c2.03-.3,5.63-.1,4.44-3.16.74.6,2.89,1.41,3.82,1.26-.08.59.14,1.38,0,1.9.51.99.49,2.07-.64,1.26-1.05.76-1.32-.66-.64-1.26-.17-.77-.41-.54-.64,0,.47.64.79,1.6,0,1.9-.3.15-1.17.05-1.27.64l-.64,1.26c-.25.34-.46.35-.64,0h.02Z"/>
  <path class="cls-44" d="M55.36,94.82c-.02.22.03.44,0,.64-.25.54-.46.55-.64,0,.1-1.14.03-2.6-.42-3.66-.56-1.31-1.98.2-.84-2.65-.2-.6.02-1.24.64-1.9.76-.05,1.5,1.09,1.91,1.26.35.6.35,1.02,0,1.26-.3-.05-.79-.66-.95-.62-1.69.35.12,1.86.32,3.14,1.35.57,1.35,1.41,0,2.54h-.02Z"/>
  <path class="cls-161" d="M45.85,105.55c-.44.1-2.72-.3-3.82.64.12-.49-.03-1.29,0-1.9.22-.97.56-1.53,1.27-.64.05-.05.63-1.19.64-1.26.24.18.52.39.64.64,1.11-.05,1.49,1.55,1.27,2.54v-.02Z"/>
  <path class="cls-84" d="M51.56,94.18c.22.86,1.42.13-.47.74l.47,1.14c-2.2.5-2.72-.74-1.27-2.52.71-.6.96-.07,1.27.64Z"/>
  <path class="cls-103" d="M55.37,94.84c.07-.71.1-1.88,0-2.54l2.55.94-2.55,1.58v.02Z"/>
  <path class="cls-134" d="M46.49,104.31c-.17.29.25,1.04-.64,1.26-.78-.72-.88-1.71-1.27-2.54l1.27-.64.64,1.9v.02Z"/>
  <path class="cls-80" d="M54.12,101.13v-1.9c1.22.66,2.3.35,1.89,1.9h-1.89Z"/>
  <path class="cls-28" d="M52.2,88.81c.51-.44,1.28-1.55,1.91-1.58.42,1.01-.52,1.58-.64,1.9l-1.27-.32Z"/>
  <path class="cls-85" d="M53.46,101.76l-1.91-.3c.59-.66.98-1.14,1.91-.94v1.26-.02Z"/>
  <path class="cls-81" d="M52.2,93.56v-1.9h1.27c.19.87-.35,1.68-1.27,1.9Z"/>
  <path class="cls-152" d="M48.38,97.36c-.76,2.13-.69.81-1.27,1.26-.15-1.34-.08-1.41,1.27-1.26Z"/>
  <path class="cls-70" d="M54.11,97.34c-.37-.91.59-1.53.63-1.9h.64c-.17.84-.24,1.75-1.27,1.9Z"/>
  <path class="cls-7" d="M50.31,93.54c1.37-1.68,1.01-.35,1.27.64l-1.27-.64Z"/>
  <path class="cls-37" d="M52.2,97.98v.62c-2.65.32-2.65-.94,0-.62Z"/>
  <path class="cls-51" d="M56.66,88.5v1.26c-.17-.07-.42.03-.64,0l-.63-.96.63-.32c.19.07.44-.05.64,0v.02Z"/>
  <path class="cls-164" d="M89.07,60.06c-.81-1.06-.86-2.59-.19-4.59l-1.2-5.76.74-.42c-1.23-3.02-1.35-1.81-4.44-1.26-.37-1.9,1.99-1.53,2.53-2.52.08-.15-.07-.44,0-.64.15-.79.35-.99.64-.64.2.07.46-.07.64,0-.56,3.02.81,2.39,1.91,3.16,2.33,1.65,3.95,2.99,6.35,3.8.81.27,1.62.07,1.91,1.26-.3.02-.95.71-1.54.67-.74-.03.08-1.63-1-1.29.22,2.03-.71.64-1.49.82-2.18.54-.96,1.98-1.11,2.57-.14.52-1.18.39-1.18.67.02.72,1.15,2.32,1.23,2.89.19,1.16-.1,2.59,0,3.8-1.64.54-3.9-.97-3.82-2.54v.02Z"/>
  <path class="cls-142" d="M87.2,61.31c-.73.35-5.51,2.74-5.73,2.52.14-1.73.93-3.39,1.27-5.06.61-1.83,1.05-2.25,1.27-1.26h.64c1-.39,1.3.3,1.27,1.26,3.16.42,1.03-2.69.96-3.7-.14-2,.3-4.25-.34-6.42l1.91.64c.25.62,1.71,5.64,1.71,6.08.03,1.58-1.01,3.17-1.08,4.67-.83.08-1.4,1.01-1.91,1.26h.03Z"/>
  <path class="cls-151" d="M78.11,57.91c-3.85,1.38-2.5-1.83-1.74-4.18l3.18,2.84c.27,1.83-.84.29-1.13.47-.17.1-.14.79-.3.86v.02Z"/>
  <path class="cls-132" d="M83.99,43.6c-1.55-.89-1.01-2.52-1.27-3.8,1.94.55,1.91.69,1.91,2.54,0,.27-.56.86-.64,1.26Z"/>
  <path class="cls-116" d="M85.88,58.77c-.69-.08-1.03-.67-1.27-1.26-.02-.05.59-.62,0-1.26h1.91l-.63,2.52h-.02Z"/>
  <path class="cls-56" d="M81.44,54.99c-.39-.17-1.32.34-1.27-.64l.64-.64c.24-.18,1.05-.6,1.27-.64,1.06.54.25,2.4-.64,1.9v.02Z"/>
  <path class="cls-116" d="M83.97,55.63c-.44.45-.9.49-1.27,0-.2-.07-.83-.45-1.27-.64l.64-1.9c.08-.02,1.39.42,1.89.3l-1.27,1.58c.44.17,1.2,0,1.28.64l-.02.02Z"/>
  <path class="cls-5" d="M81.44,57.51c-.14.2.17,1.09,0,1.26s-1.08-.15-1.27,0c-.22-1.13.12-1.46,1.27-1.26Z"/>
  <path class="cls-82" d="M80.51,51.82c.54-.08.3,1.26.3,1.26-.73.72-2.04-.27-.3-1.26Z"/>
  <path class="cls-149" d="M74.77,55.61c-.73-.18-.14-1.43-.32-1.9h.64c-.17.54.35,1.9-.32,1.9Z"/>
  <path class="cls-116" d="M83.97,57.51l-1.27,1.26c.05-.25.42-.59.49-1.06.07-.45-.46-.69-.49-.82-.05-.2.03-.44,0-.64.24-.39.46-.4.64,0l.64,1.26h-.02Z"/>
  <path class="cls-76" d="M84.01,55.61c.05.47-.17.71-.64.64h-.64v-.64c.34.08.86-.07,1.27,0h.02Z"/>
  <path class="cls-3" d="M85.88,48.34c.05-.69.95.02.64.32-.15.13-.64-.1-.64-.32Z"/>
  <path class="cls-116" d="M80.17,54.35c-.03-.77.51-.55.64-.64l-.64.64Z"/>
  <path class="cls-116" d="M81.13,55.61c.41.22.41.42,0,.64v-.64Z"/>
  <rect class="cls-47" x="81.46" y="64.47" width="1.27" height="3.16"/>
  <path class="cls-106" d="M87.5,65.09c-.08.03-.66-.52-.96-.62-.05-.4,0-.84,0-1.26l1.27,1.26c-.07.08.05.49-.3.62Z"/>
  <path class="cls-157" d="M80.17,69.52v.62c-2.65.32-2.65-.94,0-.62Z"/>
  <path class="cls-140" d="M80.8,70.16c.24-.3.15-.94.95-.64.91.13-.3.64-.3.64h-.64Z"/>
  <path class="cls-105" d="M84.31,68.24c.41.22.41.42,0,.64v-.64Z"/>
  <path class="cls-57" d="M49.66,40.46c-.51-2.33,1.67-3.53,1.91-5.69,1.37.05,1.35-.45,1.91-.64.71-.24,2.58-.96,3.18-1.26,2.57,3.21.08,3.49-.64,5.06-2.33-2.12-3.29,1.51-4.46,2.22-.69.42-1.72.18-1.89.3v.02Z"/>
  <path class="cls-55" d="M34.39,32.85c.03-.22-.03-.44,0-.64.24-1.41-.08-2.59,1.27-3.8,1.22-.54,1.17-.54,2.55-.64.54.25.56.45,0,.64-.15,1.01-.71,2.13-1.91,1.9-.61.86-1.2,1.76-1.91,2.54Z"/>
  <path class="cls-69" d="M46.49,37.91c-.12-.08,1.03-1.66,1.27-1.9.98-.97,2.35-2.05,1.91,0-.83,1.55-.22,2.28-3.18,1.9Z"/>
  <path class="cls-86" d="M36.32,30.33c.32-.45-.12-1.71,1.91-1.9,1.11.12,1.54.54,1.27,1.26-1.45.92-3.36,3.48-3.18.64Z"/>
  <path class="cls-61" d="M38.23,28.43v-.64c1.33-.08,1.86.27,1.91,1.9h-.64c-1.15-.47-1.47.57-1.27-1.26Z"/>
  <path class="cls-27" d="M28.04,104.93c2.47.32.37-1.66.63-1.9,2.36.91,4.26.34,1.91-1.6,1.84-1.65,2.03,3.02,1.59,3.53-.37.44-1.37.47-2.01.84-.46.25-.02,2.39-2.11-.87Z"/>
  <path class="cls-27" d="M32.5,108.11l-1.91-1.9c1.22-.2,2.13.74,1.91,1.9Z"/>
  <path class="cls-27" d="M29.95,110.63v.62c-2.65.32-2.65-.94,0-.62Z"/>
  <path class="cls-27" d="M33.77,112.51c-.59-.29.78-1.08,1.27-.62.34.3-.61.94-1.27.62Z"/>
  <path class="cls-121" d="M99.28,41.7c-1.15.55-3.14.1-4.44,0-.2-.02-1.55-.5-2.55-.64l-.64.64c-.49-.03-1.27-1.13-2.55-1.26-.22-.02-.44,0-.64,0-.54-.25-.56-.45,0-.64.35-.12,1.03-.67,1.27-.64,1.33-.37,3.61-.47,4.44.64l.64.64.39-.82c1.88,0,2.64-.15,4.05-1.08.22.13,1.22,1.11,1.27,1.26.03.1.05.55,0,.64l-1.27,1.26h.03Z"/>
  <path class="cls-18" d="M94.78,40.46l-.64-.64c-1.52-.15-3.07-.49-4.44-.64v-.64c.35-.47.95-.47,1.27,0,1.91,0,3.82-.03,5.73,0,.79-.62,1.72-.35,2.55,0,.07.07.07,1.83,0,1.9-.15.17-3.97.03-4.44,0l-.02.02Z"/>
  <path class="cls-155" d="M96.69,38.55c.83-1.44,1.77-.45,2.55,0-.1-.08-2.01,0-2.55,0Z"/>
  <path class="cls-18" d="M88.41,40.43c-.07,0-.2.62-.3.62-.79-.1-1.08-1.34-.32-1.88.37.12.63.2.64.64v.64l-.02-.02Z"/>
  <path class="cls-121" d="M89.72,38.55c0-.89,1.17-1.01,1.27,0h-1.27Z"/>
  <path class="cls-121" d="M85.26,37.91c-.22-.03-.44.05-.64,0-.07-.45.19-.71.64-.64.12.22.52.4.64.64h-.64Z"/>
  <path class="cls-121" d="M92.25,36.65v.64c-1.93-.2-1.89-.69,0-.64Z"/>
  <path class="cls-155" d="M95.44,37.29l1.27-.64c-.42.22-.59.47-1.27.64Z"/>
  <path class="cls-121" d="M89.06,35.41c-.12.15.08.89,0,1.26-.49.15-.54-.64-.63-.64l.64-.64-.02.02Z"/>
  <path class="cls-121" d="M94.48,37.89l-.32-.6c.22,0,.44.03.64,0,0,.2-.25.4-.32.6Z"/>
  <path class="cls-27" d="M20.73,104.29c.41.22.41.42,0,.64v-.64Z"/>
  <path class="cls-27" d="M59.19,106.19c.37-.32,2.36-4.17,3.18-3.16.32,2.03-1.22,3.43-3.18,3.16Z"/>
  <path class="cls-27" d="M58.87,107.48l3.5.62-3.18.62c-.05-.02-.79-1.11-.32-1.24Z"/>
  <path class="cls-31" d="M28.02,65.1c-.54-.32-2.03-.71-1.91-.94,1.4-.81,1.52-3.16,3.18-2.86.3-.52.52-.55.64,0,.3.27.73.05,1.27-.64-.54-.22-.54-.42,0-.64-.19-1.5.03-1.93.64-1.26l-.64-.64c-.47.44-.93.54-1.27,0l-1.27.64c-.3.54-.52.57-.64,0-.78-.13-1-.35-.64-.64v-.64c.61.03,1.3.05,1.91,0,.54-.05,1.1-.02,1.27-.64.14.05.44,0,.64,0,.96-1.58,1.81-2,2.55-1.26,1.79-.66,2.01.79.64,1.9-.2.22-.42.45-.64.64-.54.67-.54.89,0,.64.19-.07.46.07.64,0,1.5-.5.95,1.29,0,1.9-1.15,2.77-3.82,2.52-3.82,5.69-1.13.18-1.67-.74-2.53-1.26h-.02Z"/>
  <path class="cls-113" d="M29.95,61.31h-.64c-.39-.02-2.03-1.23-3.18-.64.17-.66.52-1.21.64-1.9.34-.52.78-.3,1.27,0h.64c.46-.35.9-.47,1.27,0,1.06-.74,1.94.08,1.27,1.26-.07.22.08.52,0,.64-.52.67-.95.89-1.27.64Z"/>
  <path class="cls-49" d="M28.04,58.75h-1.27s-.66-.18-.61-.55l1.23-.07.64.64v-.02Z"/>
  <path class="cls-27" d="M75.73,111.26c.9-.45,1.71.4,1.27.62-.9.45-1.71-.4-1.27-.62Z"/>
  <path class="cls-49" d="M31.86,54.97c.46-.59.83-.45,1.27-.64.24-.34.46-.34.64,0,.22.08.41.49.64.64.57.99.39,1.13-.64.64-1.15.52-1.57,1.23-2.55,1.26.17-.59.27-1.43.64-1.9Z"/>
  <path class="cls-22" d="M34.39,57.53c.84-.97.56-1.44-.64-1.9.2-.1.41-.49.64-.64.17.12.9-.12,1.27,0,.44,1.81-.57,1.78-1.27,2.52v.02Z"/>
  <path class="cls-22" d="M34.39,60.67c.32-.76.61-1.13,0-1.9.61-.22.96-.91,1.91-.62l-1.27,2.52h-.64Z"/>
  <path class="cls-22" d="M32.5,59.39c-.03-.76.88-.91,1.27-1.26v.64c-.15.07-.1.97-1.27.62Z"/>
  <path class="cls-27" d="M33.45,53.77c.15,0,.19.54.32.59h-.64c.12-.05.15-.59.32-.59Z"/>
  <path class="cls-42" d="M119.58,15.15v-1.26c.88-.18,1.69.35,1.91,1.26h-1.91Z"/>
  <path class="cls-27" d="M121.49,19.88c-.63.29-2.52-.64-1.89-.94.93-.22,1.33.25,1.89.94Z"/>
  <path class="cls-27" d="M123.72,20.84c.41.22.41.42,0,.64v-.64Z"/>
  <path class="cls-104" d="M27.4,82.81c-1.01-.52-2.06-.59-3.18-.64-.3.4-.95.4-1.91,0-.03-.72,2.85-1.55,3.82-1.9.61-.22.96-.91,1.91-.62l-.51,2.15.51.37c-.19.17-.34.57-.64.64Z"/>
  <path class="cls-97" d="M21.05,84.39c.78-1.93,5.17-.79,1.27,1.58-.14-.13-2.04.35-1.27-1.58Z"/>
  <path class="cls-165" d="M25.52,82.81v1.9c-.22,0-.59.05-.64,0-.39-.39-.51-2.02-2.55-2.54.61-.07,1.33.1,1.91,0,1.45-.2,1.89.02,1.27.64h.02Z"/>
  <path class="cls-97" d="M21.67,87.23l.64-.64c-.08.45-.07.71-.64.64Z"/>
  <path class="cls-9" d="M47.76,104.93c-.27-1.36,2.47-.44,1.91,0h-1.91Z"/>
  <path class="cls-32" d="M89.7,65.09h-.63c-.07-1.51-.41-2.2,1.27-1.88l-.64,1.88Z"/>
  <path class="cls-129" d="M99.24,104.31c.9-.45,1.71.4,1.27.62-.9.45-1.71-.4-1.27-.62Z"/>
  <path class="cls-74" d="M56.66,40.44v-.64s.78.64,0,.64Z"/>
  <path class="cls-95" d="M80.8,6.92c-3.14.6-8.21-1.88-8.26,2.54l.02-.03c-1.69.07-3.4-.03-5.08,0,.41-1.06.76-1.18,0-1.9"/>
  <path class="cls-145" d="M40.12,106.19c.07-.03.22-1.06.64-1.26-.07.29,1.35-.13-.64,1.26Z"/>
  <path class="cls-60" d="M39.8,106.81l-.32-.62c.22,0,.54.05.64,0-.12.08-.1.47-.32.62Z"/>
  <path class="cls-27" d="M69.99,88.17l-.63.32v-1.26l.63.94Z"/>
  <path class="cls-102" d="M104.97,88.47c-.68,3.11-2.96,3.09-4.44,4.42.66-3.12-.69-4.25-3.82-3.16-.25.54-.46.55-.64,0,.15-.18.12-1.06.61-1.58,2.13-2.25,3.83-3.7,7.03-2.84.41.12.84.49,1.27.64-.07.15.03.42,0,.64-.15.96.02,1.78,0,1.9v-.02Z"/>
  <path class="cls-33" d="M96.71,94.84c-1.62-.64-2.52,1.33-1.42-2.79l-.49-.37c.05-.2-.05-.45,0-.64l.64-.64c.22-.2.46-.42.64-.64h.64c1-1.21,3.92-.57,3.18,1.26.74.6.52,1.44-.64,2.54l-2.55,1.26v.02Z"/>
  <path class="cls-34" d="M94.78,91.02c.1-.29.37-.52.64-.64-.2.2-.41.52-.64.64Z"/>
  <path class="cls-27" d="M68.09,120.74l-.63-.32.63-.32v.64Z"/>
  <path class="cls-27" d="M33.45,46.14l.32.62c-.2.03-.44,0-.64,0,0,0,.32-.62.32-.62Z"/>
  <path class="cls-27" d="M125.63,39.17c.41.22.41.42,0,.64v-.64Z"/>
  <path class="cls-27" d="M103.38,107.45c.41.22.41.42,0,.64v-.64Z"/>
  <path class="cls-27" d="M92.87,112.2c.05-.69.95.02.64.32-.15.13-.64-.1-.64-.32Z"/>
  <path class="cls-27" d="M126.9,75.85c-.69-.05.02-.94.32-.64.14.15-.1.64-.32.64Z"/>
  <path class="cls-36" d="M91.61,41.7l.64-.64c-.05,0,.14.71-.64.64Z"/>
  <path class="cls-20" d="M25.51,82.81c-.24-.05-.78-.69-1.27-.64,1.03-.18,1.86-1.33,3.18.64-.35.08-1.52.07-1.91,0Z"/>
  <path class="cls-39" d="M87.18,44.22l-.64.64c.1-.3-.08-.86,0-1.26.52-.15.63.64.63.64l.02-.02Z"/>
  <path class="cls-34" d="M99.87,93.56h-.64c-1.4-1.75,1.06-.71.64-2.54q.17-.12,0,0l-3.18-1.26c-.64-2.47,4.21-1.38,4.39-1.21.42.4.61,3.8-.57,4.37-.24.2-.42.44-.64.64Z"/>
  <path class="cls-18" d="M99.24,41.7c.08-.03,1.27-1.26,1.27-1.26-.07.03-1.06,1.06-1.27,1.26Z"/>
  <path class="cls-90" d="M96.07,101.13c-.37-.07-1.66,1.58-1.25-.3.32-1.53.74-1.51,1.89-1.6l-.64,1.9h0Z"/>
  <path class="cls-93" d="M43.28,103.67c-.63.72-.86.44-1.27.64.05-.62,0-1.28,0-1.9.25-.54.46-.55.64,0-.07.47,0,1.31.64,1.26h-.02Z"/>
  <path class="cls-135" d="M42.67,102.38h-.64s-.79-.18-.34-.62l1.28-.64c.83.1-.25.91-.3,1.28v-.02Z"/>
  <path class="cls-24" d="M92.25,52.44c-1.17.37-1.52-.08-1.27-1.26.08-.08,1.03.47,1.27.64.37.24.37.45,0,.64v-.02Z"/>
  <path class="cls-65" d="M92.25,52.46v-.64c.47.35,1.11.29,0,.64Z"/>
  <path class="cls-39" d="M76.67,56.23c.41.22.41.42,0,.64v-.64Z"/>
  <path class="cls-36" d="M94.8,40.44l-.64-.64c.19.02.49.64.64.64Z"/>
  <path class="cls-49" d="M28.68,58.77c.17-.6.73-.6,1.27-.64.54.25.56.45,0,.64-.39-.05-.86,0-1.27,0Z"/>
  <path class="cls-22" d="M31.22,60.03c.34-1.21-.52-1.14-1.27-1.26v-.64c.42-.02.84,0,1.27,0l.64.64c0,.3-.51.89-.64,1.26Z"/>
  <path class="cls-49" d="M31.86,58.79l-.64-.64c.52-.05.63.15.64.64Z"/>
  <path class="cls-22" d="M31.23,60.67l-.96,1.26-.32-.62c.2-.02,1.17-.5,1.27-.64h.02Z"/>
  <path class="cls-173" d="M102.4,86.59v3.16c-1.25.2-.29-1.49-.66-1.86-.29-.29-1.88.08-2.52-.03-.47-2.13,1.89-1.04,3.19-1.26h-.02Z"/>
  <path class="cls-34" d="M96.08,91.32c-.02-.67,1.59.37.95.94l-.95-.94Z"/>
  <path class="cls-102" d="M100.21,90.38c.69.05-.02.94-.32.64-.14-.15.1-.64.32-.64Z"/>
</svg>