<?xml version="1.0" encoding="UTF-8"?>
<svg id="Livello_1" data-name="Livello 1" xmlns="http://www.w3.org/2000/svg" viewBox="0 0 141.73 141.73">
  <defs>
    <style>
      .cls-1 {
        fill: #92857e;
      }

      .cls-2 {
        fill: #86726f;
      }

      .cls-3 {
        fill: #a46b68;
      }

      .cls-4 {
        fill: #b8b2b2;
      }

      .cls-5 {
        fill: #b3d0d0;
      }

      .cls-6 {
        fill: #b3adac;
      }

      .cls-7 {
        fill: #83736c;
      }

      .cls-8 {
        fill: #c2bab8;
      }

      .cls-9 {
        fill: #938a88;
      }

      .cls-10 {
        fill: #ad9897;
      }

      .cls-11 {
        fill: #f1f5f4;
      }

      .cls-12 {
        fill: #8f7e78;
      }

      .cls-13 {
        fill: #8d817f;
      }

      .cls-14 {
        fill: #aaa09d;
      }

      .cls-15 {
        fill: #ba9a9b;
      }

      .cls-16 {
        fill: #86756f;
      }

      .cls-17 {
        fill: #a29a98;
      }

      .cls-18 {
        fill: #ab9d98;
      }

      .cls-19 {
        fill: #8d7b78;
      }

      .cls-20 {
        fill: #8d7c79;
      }

      .cls-21 {
        fill: #fefefe;
      }

      .cls-22 {
        fill: #ae958d;
      }

      .cls-23 {
        fill: #a27e7b;
      }

      .cls-24 {
        fill: #958b88;
      }

      .cls-25 {
        fill: #a9908b;
      }

      .cls-26 {
        fill: #e9f1f0;
      }

      .cls-27 {
        fill: #766861;
      }

      .cls-28 {
        fill: #987e7a;
      }

      .cls-29 {
        fill: #837370;
      }

      .cls-30 {
        fill: #f8fafa;
      }

      .cls-31 {
        fill: #a29898;
      }

      .cls-32 {
        fill: #fff;
      }

      .cls-33 {
        fill: #e2e4e2;
      }

      .cls-34 {
        fill: #8a8180;
      }

      .cls-35 {
        fill: #b7b3b3;
      }

      .cls-36 {
        fill: #d5d1cf;
      }

      .cls-37 {
        fill: #978582;
      }

      .cls-38 {
        fill: #b5a6a3;
      }

      .cls-39 {
        fill: #88736f;
      }

      .cls-40 {
        fill: #876b68;
      }

      .cls-41 {
        fill: #dabcba;
      }

      .cls-42 {
        fill: #a88785;
      }

      .cls-43 {
        fill: #fcfdfd;
      }

      .cls-44 {
        fill: #8c7e79;
      }

      .cls-45 {
        fill: #afa2a1;
      }

      .cls-46 {
        fill: #948481;
      }

      .cls-47 {
        fill: #bfa4a1;
      }

      .cls-48 {
        fill: #dddbd9;
      }

      .cls-49 {
        fill: #faf9f8;
      }

      .cls-50 {
        fill: #d8b6b5;
      }

      .cls-51 {
        fill: #b19895;
      }

      .cls-52 {
        fill: #85736e;
      }

      .cls-53 {
        fill: #d2d0d1;
      }

      .cls-54 {
        fill: #d3c7c0;
      }

      .cls-55 {
        fill: #a6807e;
      }

      .cls-56 {
        fill: #f0f7f7;
      }

      .cls-57 {
        fill: #9b9693;
      }

      .cls-58 {
        fill: #a48582;
      }

      .cls-59 {
        fill: #dcd9d7;
      }

      .cls-60 {
        fill: #edf1f1;
      }

      .cls-61 {
        fill: #b0cbcb;
      }

      .cls-62 {
        fill: #cdd4d3;
      }

      .cls-63 {
        fill: #786c62;
      }

      .cls-64 {
        fill: #b3b3af;
      }

      .cls-65 {
        fill: #e5e4e2;
      }

      .cls-66 {
        fill: #98837f;
      }

      .cls-67 {
        fill: #786f67;
      }

      .cls-68 {
        fill: #a89895;
      }

      .cls-69 {
        fill: #a09591;
      }

      .cls-70 {
        fill: #9f9391;
      }

      .cls-71 {
        fill: #705546;
      }

      .cls-72 {
        fill: #e3e5e3;
      }

      .cls-73 {
        fill: #9e7e78;
      }

      .cls-74 {
        fill: #c8c9c9;
      }

      .cls-75 {
        fill: #988b88;
      }

      .cls-76 {
        fill: #b29391;
      }

      .cls-77 {
        fill: #b2adac;
      }

      .cls-78 {
        fill: #796764;
      }

      .cls-79 {
        fill: #9a918e;
      }

      .cls-80 {
        fill: #d8dcdb;
      }

      .cls-81 {
        fill: #a4918e;
      }

      .cls-82 {
        fill: #a79d99;
      }

      .cls-83 {
        fill: #80706b;
      }

      .cls-84 {
        fill: #816d68;
      }

      .cls-85 {
        fill: #aea8a3;
      }

      .cls-86 {
        fill: #b9cac9;
      }

      .cls-87 {
        fill: #a19793;
      }

      .cls-88 {
        fill: #a79893;
      }

      .cls-89 {
        fill: #f3f2f1;
      }

      .cls-90 {
        fill: #a29897;
      }

      .cls-91 {
        fill: #817670;
      }

      .cls-92 {
        fill: #ada7a6;
      }

      .cls-93 {
        fill: #e8dbda;
      }

      .cls-94 {
        fill: #938885;
      }

      .cls-95 {
        fill: #a59c9c;
      }

      .cls-96 {
        fill: #897f7c;
      }

      .cls-97 {
        fill: #9b908e;
      }

      .cls-98 {
        fill: #998785;
      }

      .cls-99 {
        fill: #b9ada5;
      }

      .cls-100 {
        fill: #97928e;
      }

      .cls-101 {
        fill: #7d6a61;
      }

      .cls-102 {
        fill: #e8eeed;
      }

      .cls-103 {
        fill: #967c78;
      }

      .cls-104 {
        fill: #7f7775;
      }

      .cls-105 {
        fill: #807c76;
      }

      .cls-106 {
        fill: #bab1b1;
      }

      .cls-107 {
        fill: #b0a9a9;
      }

      .cls-108 {
        fill: #b08e8c;
      }

      .cls-109 {
        fill: #fbfcfc;
      }

      .cls-110 {
        fill: #6e5547;
      }
    </style>
  </defs>
  <path class="cls-110" d="M85.25,46.71c-.01.18.03.37,0,.56l-.56,1.11c-.03.18.04.38,0,.56-1.15,1.46-1.52,2.94-1.11,4.45,0,.19-.03.38,0,.56v.56c5.78,2.29-.8,4.11-3.89,1.11-.46.15-1.02.15-1.67,0-.18-.03-.37.03-.56,0l-2.23-.56c-.18-.04-.4.06-.56,0-5.64-2.46-10.21-10.18-3.89-14.47h.56c.78-.53,2.6-.46,2.78.56l.7-.09c.22,1.52.74,1.92,1.52,1.2-.49-.1-.47-.3,0-.56.62-3.2,4.32-4.41,6.69-2.23,1.11.22,1.88,1.67,2.23,2.78.04.16-.03.37,0,.56.55,1.23.52,2.66,0,3.89h0Z"/>
  <path class="cls-71" d="M74.13,26.67c.47.15.46.34,0,.56-1.86.83-2.97.83-3.34,0-1.42.13-3.43-1.02-4.45-2.23v.56c1.48.47,2.78,1.23,3.89,2.23,6.51,1.58,1.98,9.93-3.34,6.12-1.52-.89-3.02-2-4.45-3.34-2.09-2.41-3.37-5.38-3.89-8.9-1.42-2.26-1.02-6.88.96-2.65l1.82.98c1.41-.35,2.88-.72,4.45-1.11h.56c.65-.22,1.39-.4,2.23-.56h.56l2.23.56c.18.03.38-.04.56,0,.72.21,1.09.58,1.11,1.11,2.71,1.07,3.36,4.9,1.11,6.69h-.01Z"/>
  <path class="cls-89" d="M75.8,30.56c1.02,1.36.15,2.07-1.11,2.78-.96,1.14-2.97,2.75-4.45,2.78-.86.41-1.11.27-.56-.56-.75-.52-1.85-.77-2.78-1.11-.49-.16-.47-.34,0-.56,4.87,2.1,7.54-3.55,3.34-6.12-.74-.75-.44-.72.56-.56.93.21,2.32-.13,3.34,0,.49.16.47.34,0,.56-1.23.07-.86.25,1.11.56,3.59-2.74,3.33.13.56,2.23h-.01Z"/>
  <path class="cls-52" d="M64.66,67.87c-1.04.31-.9-.8-.56-1.67-.49-.16-.49-.35,0-.56l-.56-.56c.12,1.09-.7.98-1.11,0-.18.47-.37.47-.56,0-1.04.87-1.52,1.14-1.15-.16-.61-1.27-2.63-6.91-.52-5.4.09.09-.09.46,0,.56,1.79,1.09,3.85,2.16,4.45-.56.16-.03.38,0,.56,0,.59-.5,1.32-.25,1.11.56,0,.98-.59,2.07-1.67,2.23.47,1.14,1.24,1.66,2.29,1.57l.5,1.21c.47.16.47.34,0,.56.52.81.19,1.3-.95,1.43-.09,1.14-.71,1.41-1.83.8h0Z"/>
  <path class="cls-75" d="M59.08,55.62c.5.1.47.3,0,.56v.56c.01.18-.03.38,0,.56l.56.56c.09.27-.06.77,0,1.11-.86.77-1.45-.81-1.67-1.67-.06-.16.06-.38,0-.56l-.56-1.11c-.09-.09-.49.09-.56,0-.4-.37-.59-.74-.56-1.11-.75-.95-.58-1.72.74-1.92-.12-.83,0-1.35.92-1.42-1.12-.55-.55-.83.56-1.11-.25-.12-.47-.25-.65-.44-1.15-1.32,1.61-1.95-.22-.93-.41.24-.89.27-1.36.25v.56c.49.19.49.37,0,.56.49.16.47.34,0,.56-.16.49-.34.47-.56,0-.21.33-.38.15-.56-.56-.71-.07-.92-1.07-.56-1.67-.07-.35.3-.55,1.11-.56-.8-1.63,1.33-3.4,2.78-2.23-.31-1.51.06-1.88,1.11-1.11.07.15-.07.4,0,.56.25-.16.62-.16,1.11,0,.98-.59,1.41,1.64,0,1.67.25.9.62,1.46,1.11,1.67.49.1.47.3,0,.56-.04,1.01-.71,2.09-1.98,3.25.72,1.86.46,3-.8,3.43l.06-.03Z"/>
  <path class="cls-106" d="M85.25,109.06c-.07.33.09.8,0,1.11l-.56,1.11c-.09.31.09.81,0,1.11l-.56.56c-.1.3.1.83,0,1.11l-.56.56c-.06.16.06.4,0,.56l-.56.56c-.07.16.07.4,0,.56l-.56.56c-.07.15.07.4,0,.56l-.56.56c-.07.15.07.41,0,.56l-.56.56c-.07.15.07.41,0,.56l-.56.56c-.07.13.09.41,0,.56l-1.11,1.11c-.09.13.09.43,0,.56l-1.11,1.11c-.09.12.09.43,0,.56l-1.67,1.67c-.09.1.09.44,0,.56l-.56.56-3.34,3.34c-.12.09-.43-.09-.56,0l-1.11,1.11h-.56l-.12-.72c4.62-4.85,9.1-9.79,11.8-15.98v-.56l.56-1.11c.06-.16-.06-.4,0-.56l.56-.56c.06-.16-.06-.38,0-.56.36-1.49.92-2.62,1.67-3.34.16-.49.34-.47.56,0-.03.18.03.38,0,.56l-.56.56.04-.06Z"/>
  <path class="cls-21" d="M86.92,82.9c-.55.15-.52.64-.56,1.11-.16.49-.34.47-.56,0-2.65-6.83-10.47,1.38-3.34,1.67-.61-1.09-.3-2.1,1.11-1.67,1.97,3.43-.96,5.44-3.89,3.34-1.57-.31-3.08-3.4-1.67-4.45-.37-.38-.41-.78,0-1.11.59-2.01,3.51-3.83,5.01-2.23.15-.27.34-.25.56,0,.13-.49.33-.47.56,0,.52-.31,1.15-.09,1.11.56.75-.19,1.82.93,1.67,1.67.71.34.86.95,0,1.11Z"/>
  <path class="cls-33" d="M70.22,73.43c.47.18.47.37,0,.56-.18.47-.37.47-.56,0-.34.55-.9.92-1.67,1.11-.56.3-.95.03-1.11-.56-.44-.81-1.2-1.18-2.23-1.11-.04-.15.03-.37,0-.56-.5-.13-.49-.33,0-.56-.49-.19-.49-.37,0-.56-.34-.41-.43-.77,0-1.11.95-.75.95-1.49,0-2.23-.49-.13-.47-.33,0-.56,1.17-.38,2.13-1.23,2.78-2.23.16-.49.34-.47.56,0,.53-.03.74,0,.56.56,1.11.9.93,1.27-.56,1.11-.18.46-.36.46-.56,0-.93.27-.93.44,0,.56.98.01,1.14.31.56,1.11,1.41-.34,1.97-.15,1.67.56,1.08-.31,1.64,1.08.56,1.67.5.13.49.33,0,.56.59.4.59,1.23,0,1.67h0Z"/>
  <path class="cls-33" d="M70.22,73.99c.16-.44.34-.43.56,0,.49.16.47.34,0,.56-.56.19-.74,0-.56-.56Z"/>
  <path class="cls-2" d="M71.34,62.29c-.13.89-.5,1.8-1.11,2.78-.3.56-1.55.87-2.23.56h-.56c.09-.13-.09-.41,0-.56l-1.12-.46c.59-1.04.59-1.82,0-2.32-.75-.44-.53-1.63,0-2.23-.07-.89.5-.5,1.11,0,.09.12-.07.4,0,.56,1.72-.53,3.02-.35,3.89.56.04.06.04.96,0,1.11h.03Z"/>
  <path class="cls-13" d="M84.14,18.31c.19,1.02-.07,2.4-1.11,1.67.49.52.16.77-.56.56-.25.62-1.11.95-1.67.56-.04.37-.41.37-1.11,0-3.54-1.26-1.66-5.84,1.11-3.34l.56.56c.37.35.38.67,1.11.56.56-.72,1.11-1.09,1.67-1.11.49.13.47.33,0,.56v-.03Z"/>
  <path class="cls-69" d="M86.37,86.24l-.56.56c-.06.18.07.43,0,.56l-1.11,1.11c-.12.07-.38-.06-.56,0l-1.11.56c-.49.04-1.18.04-1.67,0-.89-.18-1.45-.55-1.67-1.11-.36-.16-.34-.35,0-.56,2.68.28,3.99-.03,3.89-3.34-.49-.16-.47-.34,0-.56,1.02-.25,1.41.53.56,1.11l.56,1.11c-.16-.46.03-1.02.56-1.67.16-.49.34-.47.56,0h.56c-.06.7.13,1.64,0,2.23h-.01Z"/>
  <path class="cls-46" d="M84.14,23.33c0,.52.07,1.2,0,1.67l-.56.56c-.06.34.07.8,0,1.11l-.56.56c-.07.31.04.75,0,1.11-.28.27-.28.44,0,.56.49.16.47.34,0,.56.1.87-.24,1.33-1.11,1.67-.16.49-.34.47-.56,0-.07-.33.06-.77,0-1.11-.93-.5-.89-.53,0-1.11-1.46.4-1.45.04-.56-1.11l-.4-.62c.8-.77,1.27-1.64,1.51-2.72-.81.71-1.11.4-.56-.56.37-.87,1.3-2,2.23-2.23.89-.78,1.21-.46.56.56.43.25.3.72,0,1.11h.01Z"/>
  <path class="cls-92" d="M74.67,34.47c-.16.49-.34.47-.56,0l-.56.56c.47.52.15.72-.56.56-.15-.01-.41-.03-.56,0l-.56.56-.56.56c-.13.09-.44-.09-.56,0l-2.78,2.78c-.09.12.09.41,0,.56-.33.49-.7.68-1.11.56-.28.3-.28.47,0,.56-.03.18.04.38,0,.56-.18.24-.36.24-.56,0-.16.49-.34.47-.56,0-.16.49-.34.47-.56,0-.31-.49-.31-1.04,0-1.67.09-.61.46-1.17,1.11-1.67.12-.09.43.09.56,0,1.09-1.17,2.2-1.91,3.34-2.23,1.46-.95,2.85-2.06,4.45-2.78.49.19.37.78,0,1.11l.04-.03Z"/>
  <path class="cls-31" d="M76.34,30.56c-.16.49-.34.47-.56,0,.24-.49,1.85-2.63,1.67-2.78-.81-.18-1.54.5-2.23.55-.49-.16-.47-.34,0-.56-.49-.15-.47-.33,0-.56h.56l2.78-1.67h.56c.5-.77,1.35-1.51,2.23-1.67.13.21.46.37.56.56-.56,2.44-3.52,5.13-5.56,6.12h-.01Z"/>
  <path class="cls-83" d="M85.81,31.69c-.03.19.06.41,0,.56-1.41,1.61-4.08,1.12-3.89-1.11-.12-.67.07-1.51,0-2.23.13-.21.78.49,1.11.56.1-.46.84-.43,1.11,0,.37-.15.74.04,1.11.56l.56.56c.06.12-.03.35,0,.56.37.19.37.37,0,.56v-.03Z"/>
  <path class="cls-104" d="M61.32,19.99c-.58-.04-1.11.04-1.66-.27-.99-.56-.71-1.91-1.67-1.95l.55,3.89c-.47.06-.84-.31-1.11-1.11-.03-.18,0-.37,0-.56-.68-1.78-.52-3.85,1.11-5.01.15-.04.37,0,.56,0,1.17.07,1.91.74,1.11,1.67-.15-.03-.49-.04-.56,0-.37,1.14.19,2.25,1.67,3.34Z"/>
  <path class="cls-39" d="M86.92,55.62c-.03.19.04.4,0,.56-.65.95-1.72,1.35-2.78,1.67-.44.06-1.24.07-1.67,0-1.32-.5-2.23-1.24-2.78-2.23,1.92.46,3.52,1.49,5.56,1.11-.74-1.32-.22-2.09-1.67-1.11-.04-.35.06-.78,0-1.11h.56c.18.04.4-.06.56,0,1.95-2.19,3.05-1.64,2.23,1.11h-.01Z"/>
  <path class="cls-70" d="M66.33,52.28l-.56.56c-.06.18.06.41,0,.56l-.56.56c-.09.13.09.44,0,.56l-1.11,1.11c-.12.09-.41-.09-.56,0l-.56.56c-.15.06-.38-.06-.56,0l-1.11.56c-.33.06-.75,0-1.11,0-.61-.01-.98-.21-1.11-.56v-.56c1.6-.87,3.11-1.89,4.53-3.06.47-1.15,1.2-1.79,2.16-1.94.16-.49.34-.47.56,0-.04.55.09,1.17,0,1.67v-.03Z"/>
  <path class="cls-37" d="M76.91,32.8c-.13.07-.38-.06-.56,0l-1.11,1.11c-.13.53.01,1.55,0,2.23-.96.78-1.11-.92-.56-1.67,0-.37-.06-.8,0-1.11.15-.71.77-2.06,1.11-2.78h.56c1.32-.64,2.51-1.6,3.58-2.9l.87.1c.12.35.52.8.56,1.11-1.54,1.05-3.02,2.35-4.45,3.89h0Z"/>
  <path class="cls-21" d="M74.13,65.07q-.59-.37,0,0c-.04.18.04.4,0,.56,1.26.92.84,1.88-.56,2.23-.92.72-1.29.35-1.11-1.11-.37.53-.55.35-.56-.56-.18.47-.37.47-.56,0l-.56-.56c-.13.47-.33.46-.56,0-.49-.16-.47-.34,0-.56-1.57-2.14.68-1.43,1.11-2.78,1.83-.07,3.45-.35,3.34,1.92-.03.47-.53.75-.56.87h.03Z"/>
  <path class="cls-77" d="M58.53,45.59c-2.04-1.41-3.43.03-2.78,2.23-.36.33-.5.64-1.11.56-.16.49-.34.47-.56,0-.01-.18,0-.37,0-.56-.47-.86-.52-1.94,0-2.78.03-.19-.04-.4,0-.56l1.67-1.67c.33-.09,1.89-.09,2.23,0,.68.16,1.27.53,1.67,1.11.09.12-.07.4,0,.56-.37.33-.71.87-1.11,1.11h-.01Z"/>
  <path class="cls-59" d="M75.8,72.32c-.49.53-1.05.9-1.67,1.11-.12.64-.67,1.01-1.67,1.11-.55.4-1.35,0-1.67-.56-.16-.04-.38.04-.56,0-.07-.12.06-.37,0-.56.24-.58.24-1.14,0-1.67-.03-.18.03-.37,0-.56-.46-1.36.89-1.63,1.67-.56.4-.74,1.2-.21,1.11.56.04.38.25.34.56,0,.4-.62.96-.62,1.67,0,.16-.49.34-.47.56,0v.56c0,.18-.01.37,0,.56h0Z"/>
  <path class="cls-59" d="M70.78,76.21l-1.11-1.11c-1.17,0-1.14-.89,0-1.11.18.03.38-.04.56,0,.13.21.36.41.56.56.62-.12,1.3.09,1.67.56-.36.86-.7,1.14-1.67,1.11h-.01Z"/>
  <path class="cls-34" d="M76.34,41.7c-.58.01-.37-1.23,0-1.67.44-.98,1.36-1.66,2.23-2.23.15-.06.37.04.56,0,.56-.34,1.11-.34,1.67,0,.19.03.4-.04.56,0l.56.56c.16-.24.36-.22.56,0,.47.35.65.72.56,1.11-3.14-.96-4.85-.55-6.69,2.23h-.03Z"/>
  <path class="cls-35" d="M66.88,107.39l-1.67,1.67c-.33.22-.81.33-1.11.56l-2.78,2.78c-.16.21-.38.37-.56.56-.72.53-.95.25-.56-.56,1.45-2.16,3.3-4.01,5.56-5.56.15-.07.38.06.56,0l.56-.56h.56c.49,0,.71.01.56.56.37.16.36.35,0,.56-.25.12-.89-.12-1.11,0h-.01Z"/>
  <path class="cls-107" d="M60.75,134.11c-.37-.03-.78.06-1.11,0-1.61-.92-2.96-2.31-3.89-3.89-.04-.16.03-.37,0-.56.15-.4.34-.58.56-.56.16-.28.36-.27.56,0,.07.34-.1.9,0,1.11.89,1.17,2.07,2.06,3.34,2.78.15.06.38-.06.56,0l3.34.56c.47.16.47.34,0,.56-1.07.44-2.29.55-3.34,0h-.03Z"/>
  <path class="cls-6" d="M84.14,79.55c-.13-.06-.37.04-.56,0-.22-.27-.4-.27-.56,0-2.88-.19-2.85.5-5.01,2.23-.16.49-.34.47-.56,0-.04-1.63,1.48-2.59,2.78-3.34.15-.06.37.04.56,0,.72-.41,1.49-.34,2.23,0,.36.06.86-.09,1.11,0,.4.16.38.35,0,.56.49.16.47.34,0,.56h.01Z"/>
  <path class="cls-72" d="M57.97,51.17c-.3,1.6.46,5.56-1.39,2.22l-.28,1.12c-.18.25-.36.24-.56,0-.09-.12.07-.38,0-.56l-.56-.56c-.03-.18.03-.38,0-.56.41-.3.59-1.04.56-2.23h.56c.44-.46,1.75-.25,1.67.56h0Z"/>
  <path class="cls-68" d="M60.75,113.52l-.56.56c-.07.16.07.41,0,.56l-.56.56c-.19.37-.37.74-.56,1.11l-.56.56c-.07.15.07.4,0,.56l-.56.56c-.07.15.07.4,0,.56l-.56.56c.24.16.22.35,0,.56l-.56.56c-.16.49-.34.47-.56,0-.25-.15-.24-.33,0-.56.04-.18-.06-.4,0-.56.9-2.54,2.2-4.78,3.89-6.69.31.07.49.25.56.56.03.13.03.41,0,.56l.04-.04Z"/>
  <path class="cls-101" d="M66.88,34.47c-.16-.06-.4.06-.56,0-1.66-.77-3.85-2.01-3.89-3.89,2.71.47,2.88,1.45,4.45,3.34v.56h0Z"/>
  <path class="cls-81" d="M85.81,16.1c-.4.8-.4,1.55,0,2.23-.03.18.03.37,0,.56l-.56.56c-.1.49.12,1.23,0,1.67l-.56.56c-.04.18.06.4,0,.56-.16.49-.34.47-.56,0-.06-.27-.3-.47-.56-.56.18-1.04.37-2.14.56-3.34.03-.18,0-.37,0-.56-.3-2.2,2.51-6.15,1.67-1.67h.01Z"/>
  <path class="cls-100" d="M74.67,108.5c-.84-.1-1.58-.67-2.23-1.67h-.56c-.96-.38-1.82-.28-2.78,0h-.56c-.16.37-.36.35-.56,0l-.56-.56c1.26-.96,3.46-1.08,5.01-.56.18,0,.38-.03.56,0l.56.56c.18.18.44.35.56.56.37.3.74.62.56,1.11.37.18.37.37,0,.56Z"/>
  <path class="cls-64" d="M79.13,87.9c-1.12-.06-1.83-1.69-2.23-2.78-.1-.25.07-.77,0-1.11v-.56c.03-.35-.07-.83,0-1.11.16-.49.34-.47.56,0,.22-.15.41.04.56.56,0,1.98.44,2.91,1.67,4.45l-.56.56h0Z"/>
  <path class="cls-90" d="M88.59,94.02l-.56,1.67c-.03.74.04,1.49,0,2.23-.16.49-.34.47-.56,0-.16.49-.34.47-.56,0v-1.11c.03-.37-.03-.74,0-1.11.18-1.49.55-2.8,1.11-3.89.16-.49.34-.47.56,0,0,.74.03,1.49,0,2.23v-.03Z"/>
  <path class="cls-45" d="M74.67,115.73c-.06.16.07.41,0,.56l-2.23,2.78c-.25.22-.8.33-1.11.56h-.56c-.16.31-.36.31-.56,0,1.39-1.88,2.87-3.55,4.45-5.01.16-.49.34-.47.56,0,0,.18.03.38,0,.56l-.56.56h.01Z"/>
  <path class="cls-4" d="M69.67,132.43c-.13.07-.38-.06-.56,0l-.56.56c-.15.07-.41-.07-.56,0l-.56.56c-.15.06-.37-.04-.56,0l-1.67.56c-.37.04-.74-.01-1.11,0,.09-.07-.07-.4,0-.56-.09-.24.09-.41.56-.56.18-.01.37.03.56,0l1.11-.56c.18-.04.38.04.56,0l.56-.56c.16-.06.38.06.56,0l.56-.56c.16-.03.38,0,.56,0,2.14-1.08,1.98-.46.56,1.11h-.01Z"/>
  <path class="cls-65" d="M64.66,68.41c.49.13.49.33,0,.56-.19,1.21-.58,1.58-1.11,1.11-.37,1.43-.64,1.42-1.11,0-.52-.31-1.26-.72-1.67-1.11.93-.95,1.86-1.69,2.78-2.23-.87-.74-.52-1.12.56-.56.13.28.52,1.41.56,1.67.03.18-.01.37,0,.56h-.01Z"/>
  <path class="cls-74" d="M75.8,40.59h-.56c-.16.49-.34.47-.56,0-.72.4-.92-.15-.56-1.67-.06-.92,0-1.86,0-2.78-.56-.46-.72-.87,0-1.11-.25-.18-.24-.35,0-.56h.56c-.03.61-.13,1.41.56,1.67-.01.92-.04,1.86,0,2.78l.56.56c.49.24.37.68,0,1.11Z"/>
  <path class="cls-9" d="M75.8,67.87l-.56.56c-.34.06-.75-.04-1.11,0-.44-.06-.64-.25-.56-.56-.13-.86.34-1.52.56-2.23.33.07.96-.1,1.11,0,.59.38.95.99,1.11,1.67.12.5-.52.5-.56.56h.01Z"/>
  <path class="cls-25" d="M75.8,110.72c.18.38.3.72,0,1.11-.03.68.13,1.66,0,2.23-.16.28-.36.28-.56,0-.21.28-.38.09-.56-.56v-.56c.01-.18,0-.37,0-.56.44-.68.44-1.55,0-2.23,0-.19.01-.37,0-.56-.36-.53-.36-.92,0-1.11-.03-.19.04-.38,0-.56.16-.34.36-.33.56,0,.07.13-.06.38,0,.56l.56.56c.09.47-.03,1.12,0,1.67h0Z"/>
  <path class="cls-21" d="M86.37,14.42c-.01.89.33,2.32-.56,2.78-.36-.06-.36-.43,0-1.11.06-.55-.03-1.12,0-1.67-.34-.64-1.61,2.5-1.67,3.34-.5.22-1.21,1.05-1.67,1.11,2.32-2.97,3.18-6.26,2.78-10.01.65-.07.89-.19,1.11.55-.36,1.64-.46,3.37,0,5.01h.01Z"/>
  <path class="cls-95" d="M70.22,120.75c-.13.07-.38-.07-.56,0l-.56.56c-.18.03-.37-.01-.56,0l-1.02.34c-5.56-.49.07-1.58,2.68-2.01.16-.04.38.04.56,0,.15.3-.04.67-.56,1.11h.03Z"/>
  <path class="cls-22" d="M75.8,25c-.03.18.03.38,0,.56l-.56.56c-.18.19-.37.38-.56.56-.16.49-.34.47-.56,0,1.21-3.73,1.78-3.27-1.11-6.69.16-.47.34-.46.56,0h.56l1.67,2.23c.06.15-.04.37,0,.56.5.65.47,1.58,0,2.23v-.03Z"/>
  <path class="cls-12" d="M66.88,74.54c-.31.71-1.69.04-2.23-.56-.07-.09.06-.37,0-.56,1.29-1.63,3.2-.64,2.23,1.11h0Z"/>
  <path class="cls-10" d="M87.48,101.27l-.56,1.67c-.06.35.07.8,0,1.11l-.56.56c-.16.49-.34.47-.56,0-.28-.16-.27-.34,0-.56v-.56c.19-1.48.56-2.78,1.11-3.89.16-.49.34-.47.56,0,0,.55.06,1.12,0,1.67h.01Z"/>
  <path class="cls-21" d="M75.8,71.76c0-.18-.01-.38,0-.56-.36-1.26-.53-1.26-.56,0-.61.89-1.12.1-1.67,0-1.01-.35-1.05-.83,0-1.11l.56-.56c-.47-.13-.44-.31,0-.56,2.23.31,4.41.5,1.67,2.78h0Z"/>
  <path class="cls-94" d="M69.67,75.1v.56c-.18-.01-.37.03-.56,0l-1.11-.56v-1.67c.7-.21,1.27.47,1.67.55v1.11h0Z"/>
  <path class="cls-82" d="M88.04,83.44c.4.52.43,1.2,0,1.67.46.3.34.7,0,1.11-.16.49-.34.47-.56,0,.03-.99-.15-1.92-.56-2.78-.03-.18.01-.37,0-.56-.04-.35.09-.93,0-1.11.16-.49.34-.47.56,0l.56.56c.09.28-.04.75,0,1.11Z"/>
  <path class="cls-61" d="M55.75,124.64c.43.81.44,1.92,0,2.78.49.25.37.7,0,1.11-.16.49-.34.47-.56,0-.09-.49.04-1.12,0-1.67-.4-.72-.33-1.49,0-2.23.04-.55-.09-1.17,0-1.67.16-.49.34-.47.56,0,.43.43.43,1.24,0,1.67h0Z"/>
  <path class="cls-21" d="M74.67,40.59c.65.93.37,1.23-.56.56-.87-.49-1.8-.59-2.78-.56-.24-.18-.24-.35,0-.56,1.35-.31,3.21.83,2.78-1.11,0,.18.71.68.56,1.67Z"/>
  <path class="cls-41" d="M88.59,90.13c-.16.49-.34.47-.56,0-.38-.12-.37-.31,0-.56-.4-1.01-.4-2.32,0-3.34,0-.37.01-.74,0-1.11.16-.49.34-.47.56,0,.06,1.66,0,3.34,0,5.01Z"/>
  <path class="cls-47" d="M66.33,50.04c0,.18.01.37,0,.56h-.56c-1.49-.56-1.54-4.23,0-5.01.16-.49.34-.47.56,0v.56c.49,1.24.5,2.66,0,3.89Z"/>
  <path class="cls-21" d="M74.67,114.62c-.07.18-1.91,2.71-2.22,3.08-.62.77-1.58,1.2-2.25,1.94-1.64.49-3.08,1.46-5.01,1.12.03.96,2.74.62,3.34.55-.7,1.11-3.83.74-3.89-.56l.56-.56c.65-.13,1.54.15,2.35-.13,3.8-1.27,5.15-3.93,7.11-7.11-.01.18.03.38,0,.56.33.41.44.8,0,1.11h0Z"/>
  <path class="cls-21" d="M57.43,20.55c.3.4.86.72,1.11,1.11,2.06,3.17,1.27,5.25,3.89,8.9,1.26,1.75,1.46,2.74,3.89,3.89-2.8-1.21-3.64-1.69-5.24-4.5-.72-1.27-3.45-8.14-3.67-9.42h.01Z"/>
  <path class="cls-76" d="M86.37,14.42c-.93-1.04-.93-3.98,0-5.01.25.87.01,3.79,0,5.01Z"/>
  <path class="cls-21" d="M61.32,19.99c-.92-.77-3.45-2.41-1.67-3.34,0,3.79,3.58,2.5,6.12,2.23-1.61.46-2,1.29-4.45,1.11Z"/>
  <path class="cls-21" d="M70.78,131.32c-.43.64-.38.7-1.11,1.11l.56-1.11h-1.11c4.01-3.52,7.14-6.61,10.03-11.14l.56-.56c.59-.96.72-2.06,1.11-2.78l.56-.56c.21-.4.31-1.11.56-1.67h.56c-3.11,8.34-7.65,10.67-11.69,16.7h-.04Z"/>
  <path class="cls-8" d="M86.92,81.77c-.06-.1-1.57-1.6-1.67-1.67-.28-.49.06-.64.56-.56.56.43.7.59,1.11,1.11l.56.56c.09.13-.07.4,0,.56h-.56Z"/>
  <path class="cls-21" d="M64.1,133.54c-1.42.37-2.22-.21-3.34-.56,1.29-.09,2.62.12,3.89,0,0,.35-.52.47-.56.56h.01Z"/>
  <path class="cls-21" d="M66.33,50.04c.07-1.29,0-2.6,0-3.89.92.71.92,3.2,0,3.89Z"/>
  <path class="cls-21" d="M67.44,106.27c-.22-.18-.22-.35,0-.56,1.26-.5,3.98-1.12,5.01,0-1.97-.09-3.15.15-5.01.56Z"/>
  <path class="cls-87" d="M74.13,74.54l-.56.56c-.13.06-.36-.03-.56,0l-.56-.56c.09-.25-.21-.8.09-1.05s1.14-.03,1.58-.06c.47.15.47.34,0,.56-.04.19.06.41,0,.56h.01Z"/>
  <path class="cls-21" d="M57.43,19.99c-1.24-1.36-.77-4.42,1.11-5.01-1.35,1.39-1.24,3.18-1.11,5.01Z"/>
  <path class="cls-73" d="M66.33,45.59h-.56c-1.82-.21-.59-2.78,0-3.89h.56c.28.16.28.35,0,.56v3.34h0Z"/>
  <path class="cls-21" d="M85.25,46.71c.09-1.05.15-2.91,0-3.89.92.71.92,3.2,0,3.89Z"/>
  <path class="cls-21" d="M86.92,97.92c.49.35.38,1.17,0,1.67-.12,1.11-.46,2.99-1.11,3.89.09-2.09.33-4.88,1.11-6.69-.03.37.03.74,0,1.11h0Z"/>
  <path class="cls-21" d="M88.04,91.8c-.07.72-.72,3.12-1.11,3.89.15-2.04.5-4.22.56-6.12.16-.49.34-.47.56,0v.56c.49.35.38,1.17,0,1.67h-.01Z"/>
  <path class="cls-21" d="M67.44,44.48l.56-.56c.59-1.78.62-2.93,2.78-3.34-5.8,4.91-1.41,11.54,3.89,14.47-4.1-1.51-7.94-5.92-7.23-10.58h0Z"/>
  <path class="cls-23" d="M56.3,122.97c.03.55,0,1.11,0,1.67-.16.49-.34.47-.56,0,0-.56-.03-1.12,0-1.67-.99-2.65,1.54-2.84.56,0Z"/>
  <path class="cls-21" d="M55.19,52.84c-.5-.24-1.01-3.48-1.11-4.45h.56c-.04.58.52,1.26.56,1.67.46.9.86,2.22,0,2.78h-.01Z"/>
  <path class="cls-21" d="M59.08,14.99c2.17-.15,1.72.03,1.66,2.23-.44.15-.47-.55-.55-.56.19-.92-.41-1.24-1.11-1.67Z"/>
  <path class="cls-21" d="M60.75,134.11c1.01.09,2.31.06,3.34,0-.92.8-2.47,1.02-3.34,0Z"/>
  <path class="cls-5" d="M88.04,89.57h-.56c.03-1.09.06-2.25,0-3.34h.56c.03,1.09.06,2.25,0,3.34Z"/>
  <path class="cls-21" d="M75.8,72.32c.01.18.95.81.55,1.67h-2.22c.04-.18-.04-.38,0-.55l1.67-1.11h0Z"/>
  <path class="cls-32" d="M76.34,41.7v.56c-.75,1.85-2.5-1.17-.56-1.11v-.56c0-.37.03-.75,0-1.11.13.03.5.03.56,0v2.23h0Z"/>
  <path class="cls-21" d="M54.08,47.82c-.87-.37-.87-2.41,0-2.78-.12.75-.04,1.97,0,2.78Z"/>
  <path class="cls-50" d="M56.3,127.42c-.16.49-.34.47-.56,0-.04-.92-.01-1.86,0-2.78h.56c.03.92.04,1.86,0,2.78Z"/>
  <path class="cls-21" d="M60.75,68.98c-2.29-2.16-.22-2.06-.21-3.62,0-.52-2.16-7.04-2.59-8.08.22,1.66,1.58,1.57,1.67,1.67.13.15.4.4.56.56-2.06-.15-.64.41-.43,1.26.5,2.07.16,4.01,2.1,4.3.33,1.15-.04,2.46-1.11,3.89h0Z"/>
  <path class="cls-21" d="M66.33,60.07c-.25-.07-.56-.53-1.11-.56l.31-.55c1.29-.28,1.38.33,1.92,1.09-.36-.06-.83.09-1.11,0h-.01Z"/>
  <path class="cls-21" d="M67.44,60.62c1.21-.74,3.28-1.11,3.89.56-.83-1.33-3.48.28-3.89-.56Z"/>
  <path class="cls-21" d="M69.11,18.31c.72.01,1.83-.28,2.23.56-.24-.03-1.57.68-2.23-.56Z"/>
  <path class="cls-21" d="M69.11,106.83c1.48-.47.86-.95,2.78,0-.78-.13-1.92,0-2.78,0Z"/>
  <path class="cls-32" d="M88.59,134.65h-1.11v-1.67c.8.19,1.27.9,1.11,1.67Z"/>
  <path class="cls-21" d="M87.48,86.24c0-.15-.43-2.03-.56-2.78.9.47.52,1.89.56,2.78Z"/>
  <path class="cls-21" d="M86.92,55.62c.09-.72-.06-1.49,0-2.23-.9-.01-.92,1.46-1.15,1.66-.46.37-.93-.49-1.07-.53l1.39-2.22c.99.78,1.73,1.61,1.32,2.94l-.47.38h-.01Z"/>
  <path class="cls-21" d="M81.36,31.12h.56c.41,2.32,2.09,2,3.89,1.11-.89,2.12-3.88,1.48-4.45-1.11h0Z"/>
  <path class="cls-21" d="M80.8,17.77c-3.56-1.89-3.56,2.57-1.11,3.34-5.25-2.25.04-5.8,1.14-4.11.12.18-.13.61-.03.77Z"/>
  <path class="cls-32" d="M82.47,21.66v-.56c-.44-.16-.44-.34,0-.56.18-.09.37-.4.56-.56,1.7-.61.68,2.04-.56,1.67h0Z"/>
  <path class="cls-21" d="M85.25,107.94c-.15.64-1.24,2.62-1.67,3.34.55-1.67.55-4.05,1.67-5.56.49.13.49.33,0,.56.4.43.47,1.27,0,1.67h0Z"/>
  <path class="cls-58" d="M85.81,17.2c0,.35.04.77,0,1.11-1.48-.65,0-2.1,0-2.23v1.11h0Z"/>
  <path class="cls-85" d="M64.1,72.87c-.7.4-1.72.34-1.67-.56.1-1.8,1.36-1.2,2.23,0,.01.18-.03.38,0,.56h-.56,0Z"/>
  <path class="cls-21" d="M64.66,73.99c.53.58,1.72.35,2.23.56.38.15.75.37,1.11.56s.74.37,1.11.56c-1.23-.18-3.67-.13-4.45-1.67h0Z"/>
  <path class="cls-21" d="M80.8,78.44c.15-.03.43-.56.9-.58.86-.01,1.15.55,1.32.58h-2.23.01Z"/>
  <path class="cls-21" d="M64.66,59.51c0,3.25-2.77,2.35-4.45.56.84.47,1.83.67,2.78.56.38.16.75-.03,1.11-.56.06,0,.24-.49.56-.56h0Z"/>
  <path class="cls-21" d="M83.59,53.39c0-.18-.71-.5-.47-1.78.16-.89.89-2.06,1.6-2.68-.38,1.54-1.33,2.78-1.11,4.45h-.01Z"/>
  <path class="cls-21" d="M83.59,21.66c-.74,1.2-1.24,1.42-2.23,2.23-.65.55-1.51,1.27-2.23,1.67v-.56c1.8-1.48,1.97-1.52,3.34-3.34.25-.33,2.09-1.07.56-1.67.62-.5,1.32-.65,1.11-1.67-.1.77.87,1.01-.56,3.34h.01Z"/>
  <path class="cls-21" d="M66.33,18.88v-.56c.5-.15,1.55.03,2.23,0-.4.86-1.49.5-2.23.56Z"/>
  <path class="cls-21" d="M74.67,112.39c.06-.71.03-1.51,0-2.23.83.18.87,2,0,2.23Z"/>
  <path class="cls-21" d="M75.8,25c.07-.52.1-1.76,0-2.23.87.24.83,2.04,0,2.23Z"/>
  <path class="cls-32" d="M55.19,126.87c0-.12-.56-.46-.56-.92,0-.84.56-1.21.56-1.32v2.23Z"/>
  <path class="cls-28" d="M56.3,128.54c.25.18.25.35,0,.56-.1.31.04.59-.56.56-.4-.34-.4-.74,0-1.11-.03-.37.01-.74,0-1.11h.56c-.01.37.04.75,0,1.11h0Z"/>
  <path class="cls-21" d="M75.23,55.06l2.23.56c-1.11-.16-1.42-.34-2.23-.56Z"/>
  <path class="cls-21" d="M85.25,42.26c-.19-.75-1.69-2.16-2.23-2.78-.24-.28-.34-.9-.56-1.11,1.43,1.02,2.6,1.98,2.78,3.89h.01Z"/>
  <path class="cls-15" d="M85.81,107.39c0,.18.03.38,0,.56h-.56c.1-.47-.09-1.15,0-1.67.16-.49.34-.47.56,0,.47.12.28.71,0,1.11Z"/>
  <path class="cls-21" d="M84.14,57.84l2.78-1.67c-.43,1.48-1.54,1.52-2.78,1.67Z"/>
  <path class="cls-53" d="M85.81,106.27h-.56c.03-.18,0-.37,0-.56s-.01-.37,0-.56c.16-.49.34-.47.56,0,.22-.1.4.07.56.56-.03.18.01.37,0,.56-.16.49-.34.47-.56,0Z"/>
  <path class="cls-21" d="M86.92,102.94l.56-1.67c-.1,1.08-.55,1.58-.56,1.67Z"/>
  <path class="cls-98" d="M87.48,99.03v.56h-.56c.06-.55-.03-1.12,0-1.67h.56c.47.12.3.71,0,1.11Z"/>
  <path class="cls-21" d="M88.04,95.69c.03-.61-.18-1.41.56-1.67-.03.61.18,1.41-.56,1.67Z"/>
  <path class="cls-55" d="M88.59,91.8h-.56c.06-.55-.03-1.12,0-1.67h.56v1.67Z"/>
  <path class="cls-21" d="M88.59,85.11h-.56c-.03-.55.06-1.12,0-1.67.72.27.53,1.07.56,1.67Z"/>
  <path class="cls-21" d="M56.3,122.97c-.03-.52.24-1.67-.28-1.67-.55.15-.25,1.17-.28,1.67h-.56c.21-1.18.09-2.44,1.11-3.34-.03.15,0,.4,0,.56.24.15.41.53.56,1.11-.07.59.21,1.38-.56,1.67h.01Z"/>
  <path class="cls-32" d="M74.13,36.14c-.36-.12-.8-.52-1.11-.56.09-.3.36-.38.56-.56h.56v1.11h-.01Z"/>
  <path class="cls-21" d="M62.42,70.09c1.09.59.89,1.57,0,2.23.53.64.89.64,1.67.56-1.7,1.8-3.98-2.1-1.67-2.78h0Z"/>
  <path class="cls-32" d="M74.13,27.78v-.56c.04-.18-.06-.38,0-.56h.56c.07.28.47.41.56.56.07.12-.04.37,0,.56-.37.43-.77.41-1.11,0h-.01Z"/>
  <path class="cls-21" d="M81.36,30.01c-1.7-1.38-2.72,2.09-3.48,2.66-.37.28-.84.04-.98.12,1.15-1.46,2.57-3.52,4.45-3.89.04.35-.06.77,0,1.11h0Z"/>
  <path class="cls-21" d="M65.21,134.11l1.67-.56c-.3.07-.55.44-1.67.56Z"/>
  <path class="cls-21" d="M79.13,37.8c.13-.03.36-.52.84-.53.44-.01.71.52.83.53h-1.67Z"/>
  <path class="cls-21" d="M76.91,85.11c.3.75,1.49,2.22,2.23,2.78.18-.31.37-.31.56,0,.59.31,1.14.71,1.67,1.11-2.56-.27-4.04-1.23-4.45-3.89h-.01Z"/>
  <path class="cls-21" d="M99.18,102.92c-.38-.19.33-.95,1.11-.55.38.19-.33.95-1.11.55Z"/>
  <path class="cls-21" d="M87.48,99.03v-1.11h.56c-.03.47-.01.96-.56,1.11Z"/>
  <path class="cls-32" d="M86.37,105.72c-.37-.33-.38-.81,0-1.11.18-.25.36-.24.56,0-.09.49.24,1.14-.56,1.11Z"/>
  <path class="cls-21" d="M85.81,107.39v-1.11h.56c-.04.47,0,.93-.56,1.11Z"/>
  <path class="cls-21" d="M85.81,105.16h-.56c.04-.47,0-.93.56-1.11,0,.18-.03.38,0,.56.36.18.36.35,0,.56h0Z"/>
  <path class="cls-21" d="M84.7,48.37l.56-1.11c-.13.93-.55,1.05-.56,1.11Z"/>
  <path class="cls-21" d="M84.14,78.99v-.56c1.39.5.96.58,1.67,1.11-.3.47-1.27-.09-1.67-.56h0Z"/>
  <path class="cls-21" d="M84.7,111.28l.56-1.11c-.21.77-.53,1.05-.56,1.11Z"/>
  <path class="cls-21" d="M84.14,23.33c0-.35.06-.8,0-1.11h.56c-.13.37.04.95-.56,1.11Z"/>
  <path class="cls-21" d="M83.03,29.45v-.56c.33.09.89-.1,1.11,0,.27.16.27.35,0,.56-.27-.1-.77.07-1.11,0Z"/>
  <path class="cls-21" d="M83.03,89.02l1.11-.56c-.09.03-.18.46-1.11.56Z"/>
  <path class="cls-21" d="M82.47,114.06c.19-.49.49-.95.56-1.11.15.55-.49.92-.56,1.11Z"/>
  <path class="cls-21" d="M78.02,55.62c.09,0,.19-.35,1.67,0l2.78,2.23c-2.13-.34-2.59-1.78-4.45-2.23h0Z"/>
  <path class="cls-21" d="M80.8,21.66c-.46-.16-.44-.34,0-.56.61-.03,1.14-.31,1.67-.56v.56c-.49.25-1.12.59-1.67.56Z"/>
  <path class="cls-32" d="M79.69,21.09c.24.07.78,0,1.11,0v.56c-.67-.04-.81-.43-1.11-.56Z"/>
  <path class="cls-21" d="M77.47,81.77c.36.16.34.34,0,.56h-.56c.67-2.41,1.05-2.97,3.34-3.89-1.09.93-2.43,1.83-2.78,3.34h0Z"/>
  <path class="cls-21" d="M76.34,40.03v-.56c.74-.5.38-.95,2.23-1.67l-2.23,2.23Z"/>
  <path class="cls-21" d="M75.8,27.22c.71-.9,1.82-1.17,2.78-1.67-.74.56-1.21,1.8-2.78,1.67Z"/>
  <path class="cls-21" d="M76.34,67.31c-.03-.1-1.04-1.61-1.11-1.67.8.24,1.11.86,1.11,1.67Z"/>
  <path class="cls-32" d="M75.8,111.84c0-.37.03-.75,0-1.11l.55.83-.55.28Z"/>
  <path class="cls-21" d="M74.13,19.99c.86.68,1.36,1.12,1.67,2.23-.06-.13-1.57-2.13-1.67-2.23Z"/>
  <path class="cls-21" d="M74.67,109.61c-.7-.92-1.3-1.52-2.23-2.23v-.56c.75.22,1.43,1.35,2.23,1.67.04.35-.03.75,0,1.11h0Z"/>
  <path class="cls-21" d="M72.45,119.08l2.23-2.78c-.81,1.61-.96,1.64-2.23,2.78Z"/>
  <path class="cls-21" d="M73,19.99c-.34-.4-.77-.72-1.11-1.11.64.13,1.08.21,1.67.56v.56h-.56Z"/>
  <path class="cls-21" d="M66.88,38.36l2.78-2.78c.22.15.38.35.56.56-1.04.67-2.38,1.52-3.34,2.23h0Z"/>
  <path class="cls-21" d="M65.21,133s.31-.37,1.11-.56l-1.11.56Z"/>
  <path class="cls-21" d="M60.21,112.39c-.83,1.14-3.52,5.58-3.89,6.69,1.39-4.56,4.04-8.27,7.8-11.14l.56-.56c.33-.22.75-.38,1.11-.56-1.83,2.06-3.88,3.24-5.56,5.56h-.01Z"/>
  <path class="cls-21" d="M61.32,56.73l1.11-.56s-.22.4-1.11.56Z"/>
  <path class="cls-21" d="M65.21,40.03c-.09.56-3.39,4.67-3.79,4.97-.15.12-.4.09-.68.04-.84.38-.75.87-1.11,0,2.35-2.2,4.01-4.73,6.69-6.69-.4.49-.7,1.26-1.11,1.67Z"/>
  <path class="cls-21" d="M59.08,56.73c-.01-.18,0-.37,0-.56l1.11.56h-1.11Z"/>
  <path class="cls-21" d="M56.86,130.22l3.34,2.78c-1.48-.58-2.6-1.23-3.34-2.78Z"/>
  <path class="cls-21" d="M55.75,130.22l3.89,3.89c-1.67-.33-3.51-2.2-3.89-3.89Z"/>
  <path class="cls-21" d="M57.97,42.81c.81,0,1.43.31,1.67,1.11-.06-.07-1.57-1.09-1.67-1.11Z"/>
  <path class="cls-21" d="M57.97,56.73s-.52-1.07-.56-1.11l.56,1.11Z"/>
  <path class="cls-21" d="M56.86,120.75c-.36-.16-.34-.34,0-.56.07-.25.5-.43.56-.56-.12.41.03.95-.56,1.11h0Z"/>
  <path class="cls-108" d="M56.86,121.3c-.53-.18-.52-.64-.56-1.11h.56c-.06.16.04.38,0,.56-.04.15.03.37,0,.56h0Z"/>
  <path class="cls-21" d="M55.75,129.65c-.8.03-.47-.64-.56-1.11h.56c.03.37-.04.75,0,1.11Z"/>
  <path class="cls-21" d="M54.08,44.48c.18-.61,1.07-1.51,1.67-1.67l-1.67,1.67Z"/>
  <path class="cls-21" d="M55.19,53.39l.56.56s-.47-.16-.56-.56Z"/>
  <path class="cls-21" d="M55.75,54.5h.56l.56,1.11c-.13-.18-.67-.5-1.11-1.11h-.01Z"/>
  <path class="cls-21" d="M56.3,129.09c.04-.15-.03-.35,0-.56.25.07.5.3.56.56h-.56Z"/>
  <path class="cls-32" d="M57.43,119.64c.04-.18-.04-.38,0-.56.18-.24.36-.24.56,0-.1.25-.52.43-.56.56Z"/>
  <path class="cls-21" d="M57.43,119.08c.07-.27.31-.46.56-.56-.07.15.06.4,0,.56h-.56Z"/>
  <path class="cls-21" d="M57.97,117.97l.56-.56c-.15.31-.52.47-.56.56Z"/>
  <path class="cls-21" d="M58.53,116.84l.56-.56c-.12.24-.49.4-.56.56Z"/>
  <path class="cls-21" d="M59.08,57.29s.41.12.56.56l-.56-.56Z"/>
  <path class="cls-21" d="M59.64,115.17l.56-.56c-.15.31-.5.46-.56.56Z"/>
  <path class="cls-21" d="M60.21,114.06l.56-.56c-.09.47-.55.52-.56.56Z"/>
  <path class="cls-21" d="M61.32,112.39c.99-1.29,1.49-1.8,2.78-2.78l-2.78,2.78Z"/>
  <path class="cls-32" d="M62.99,60.62c.31-.04.77-.49,1.11-.56-.27.64-.71,1.39-1.11.56Z"/>
  <path class="cls-21" d="M62.99,56.17l.56-.56c-.09.06-.16.4-.56.56Z"/>
  <path class="cls-32" d="M64.1,107.94c.19-.16.36-.41.56-.56-.16.21-.34.4-.56.56Z"/>
  <path class="cls-32" d="M64.1,55.62l1.11-1.11c-.47.62-.5.64-1.11,1.11Z"/>
  <path class="cls-32" d="M64.66,120.75c-.03-.53.16-.47.56-.56l-.56.56Z"/>
  <path class="cls-21" d="M65.21,109.06l1.67-1.67c-.1.06-.9,1.14-1.67,1.67Z"/>
  <path class="cls-21" d="M65.21,53.95l.56-.56c-.13.31-.47.43-.56.56Z"/>
  <path class="cls-21" d="M65.77,52.84l.56-.56c-.07.41-.55.52-.56.56Z"/>
  <path class="cls-32" d="M65.77,18.88c.13-.03.33-.49.56-.56v.56c-.18,0-.37-.01-.56,0Z"/>
  <path class="cls-21" d="M66.33,106.83c.16-.21.37-.37.56-.56-.16.04-.36.47-.56.56Z"/>
  <path class="cls-21" d="M66.33,42.26v-.56h.56c-.06.27-.31.46-.56.56Z"/>
  <path class="cls-21" d="M66.88,132.43s.25-.46.56-.56l-.56.56Z"/>
  <path class="cls-32" d="M66.88,106.27c.18-.18.37-.49.56-.56v.56c-.18.04-.38-.04-.56,0Z"/>
  <path class="cls-21" d="M66.88,41.14c-.3-.16-.28-.35,0-.56.28-.22.8-.33,1.11-.56-.27.43-.49,1.11-1.11,1.11h0Z"/>
  <path class="cls-21" d="M67.44,133.54l.56-.56s-.13.4-.56.56Z"/>
  <path class="cls-32" d="M67.44,44.48c.06-.41.55-.52.56-.56l-.56.56Z"/>
  <path class="cls-21" d="M68,131.87s.18-.49.56-.56l-.56.56Z"/>
  <path class="cls-21" d="M68,107.39v-.56h.56v.56c-.16.07-.41-.07-.56,0Z"/>
  <path class="cls-21" d="M68,39.47c.98-1.26,1.46-1.82,2.78-2.78l-2.78,2.78Z"/>
  <path class="cls-21" d="M68.55,133c.13-.22.33-.47.56-.56-.13.22-.31.44-.56.56Z"/>
  <path class="cls-32" d="M68.55,107.39v-.56h.56c-.13.04-.33.46-.56.56Z"/>
  <path class="cls-21" d="M69.11,121.3l.56-.56s-.18.49-.56.56Z"/>
  <path class="cls-21" d="M69.67,75.66v-.56l1.11,1.11c-.28,0-.8-.53-1.11-.56h0Z"/>
  <path class="cls-21" d="M70.22,120.75l.56-1.11h.56c-.27.19-.38.74-1.11,1.11h-.01Z"/>
  <path class="cls-32" d="M70.78,40.59c.16-.13.28-.49.56-.56v.56c-.18,0-.38-.03-.56,0Z"/>
  <path class="cls-21" d="M71.34,131.32l1.11-1.11c-.21.13-.44,1.07-1.11,1.11Z"/>
  <path class="cls-32" d="M71.34,36.69c.16-.21.38-.37.56-.56-.13.06-.31.41-.56.56Z"/>
  <path class="cls-32" d="M71.89,106.83c.19.03.4-.04.56,0v.56c-.21-.16-.38-.47-.56-.56Z"/>
  <path class="cls-21" d="M71.89,36.14c.18-.19.28-.47.56-.56-.13.03-.34.46-.56.56Z"/>
  <path class="cls-21" d="M72.45,75.1c-.47-.18-.47-.37,0-.56.22.12.38.37.56.56-.16.01-.38.01-.56,0Z"/>
  <path class="cls-21" d="M73,130.22c.81-1.42,2.07-2.37,3.34-3.34-1.21,1.35-1.82,2.17-3.34,3.34Z"/>
  <path class="cls-21" d="M73,105.72c.19.03.41.38.56.56-.18-.19-.41-.34-.56-.56Z"/>
  <path class="cls-21" d="M73.56,75.1l.56-.56c-.16.41-.13.38-.56.56Z"/>
  <path class="cls-59" d="M73.56,68.41c.1-.31.3-.28.56,0,.04.12,0,.37,0,.56-.96.71-1.26.41-.56-.56Z"/>
  <path class="cls-32" d="M73.56,19.99v-.56c.21.12.36.4.56.56-.07-.07-.37.04-.56,0Z"/>
  <path class="cls-21" d="M74.67,107.94c-.07-.31-.38-.78-.56-1.11.62.19.81.61,1.11,1.11h-.56.01Z"/>
  <path class="cls-21" d="M74.67,115.73l.56-.56c-.07.37-.55.52-.56.56Z"/>
  <path class="cls-21" d="M75.23,114.62c-.36-.13-.34-.31,0-.56h.56c-.07.33-.18.55-.56.56Z"/>
  <path class="cls-21" d="M75.23,108.5l.56.56c-.03-.15-.47-.35-.56-.56Z"/>
  <path class="cls-21" d="M75.23,68.41c.13-.22.4-.37.56-.56-.12.21-.34.52-.56.56Z"/>
  <path class="cls-21" d="M75.23,38.92c.24.07.47.55.56.56,0-.13-.55-.41-.56-.56Z"/>
  <path class="cls-21" d="M75.23,33.9c.15-.59.58-.9,1.11-1.11l-1.11,1.11Z"/>
  <path class="cls-21" d="M75.23,26.11l.56-.56c-.04.22-.41.38-.56.56Z"/>
  <path class="cls-32" d="M76.34,126.87c.21-.16.36-.4.56-.56-.16.21-.38.37-.56.56Z"/>
  <path class="cls-21" d="M76.91,83.44v.56c-.1-.49-.03-.27,0-.56Z"/>
  <path class="cls-21" d="M76.91,125.76l1.67-1.67c-.65.9-1.27,1.2-1.67,1.67Z"/>
  <path class="cls-21" d="M78.58,123.53l1.11-1.11c-.44.67-.98.92-1.11,1.11Z"/>
  <path class="cls-32" d="M78.58,25.56c.19-.15.36-.38.56-.56v.56c-.13.07-.41-.07-.56,0Z"/>
  <path class="cls-32" d="M79.13,120.19c.15-.22.44-.38.56-.56l-.56.56Z"/>
  <path class="cls-21" d="M79.69,121.86l1.11-1.11c-.43.7-1.02.96-1.11,1.11Z"/>
  <path class="cls-21" d="M80.8,120.19l.56-.56c-.18.3-.49.44-.56.56Z"/>
  <path class="cls-32" d="M80.8,116.84c.15-.3.5-.44.56-.56l-.56.56Z"/>
  <path class="cls-32" d="M80.8,17.77c.1.16.38.38.56.56-.21-.13-.37-.46-.56-.56Z"/>
  <path class="cls-21" d="M81.36,119.08l.56-.56c-.16.31-.5.46-.56.56Z"/>
  <path class="cls-21" d="M81.36,37.8c.18.06.41-.07.56,0v.56c-.21-.1-.38-.38-.56-.56Z"/>
  <path class="cls-21" d="M81.92,117.97l.56-.56c-.15.31-.5.46-.56.56Z"/>
  <path class="cls-32" d="M81.92,114.62c.09-.21.49-.38.56-.56-.06.16.06.4,0,.56h-.56Z"/>
  <path class="cls-32" d="M81.92,38.36v-.56c.24.12.37.43.56.56-.09-.09-.4.07-.56,0Z"/>
  <path class="cls-32" d="M82.47,116.84l.56-.56c-.13.31-.52.46-.56.56Z"/>
  <path class="cls-32" d="M83.03,28.34c-.01.18.01.37,0,.56-.21-.06-.44.07-.55-.28l.55-.28Z"/>
  <path class="cls-21" d="M83.03,115.73l.56-.56c-.13.31-.52.47-.56.56Z"/>
  <path class="cls-21" d="M83.03,112.39c.15-.4.55-.52.56-.56l-.56.56Z"/>
  <path class="cls-21" d="M83.03,27.22l.56-.56c-.1.41-.55.52-.56.56Z"/>
  <path class="cls-21" d="M83.59,114.62l.56-.56c-.15.41-.55.52-.56.56Z"/>
  <path class="cls-21" d="M83.59,54.5c-.03-.18.04-.38,0-.56l.56.56h-.56Z"/>
  <path class="cls-21" d="M83.59,25.56l.56-.56c-.07.43-.55.52-.56.56Z"/>
  <path class="cls-21" d="M84.14,112.95l.56-.56c-.13.43-.55.52-.56.56Z"/>
  <path class="cls-32" d="M84.14,29.45v-.56c.74.35.71.62,1.11,1.11-.25-.19-.78-.44-1.11-.56h0Z"/>
  <path class="cls-21" d="M84.7,88.46l1.11-1.11c-.43.67-.43.7-1.11,1.11Z"/>
  <path class="cls-21" d="M84.7,21.66l.56-.56c-.12.44-.55.52-.56.56Z"/>
  <path class="cls-21" d="M85.25,109.06l.56-.56c-.07.37-.55.52-.56.56Z"/>
  <path class="cls-21" d="M85.25,30.01c.16.19.4.35.56.56-.01-.04-.46-.47-.56-.56Z"/>
  <path class="cls-21" d="M85.25,19.44l.56-.56c-.06.38-.55.52-.56.56Z"/>
  <path class="cls-21" d="M85.81,86.79l.56-.56c-.1.44-.55.52-.56.56Z"/>
  <path class="cls-21" d="M85.81,31.69c.03-.15.03-.4,0-.56l.55.28-.55.28Z"/>
  <path class="cls-21" d="M86.37,104.6c.06-.27.3-.47.56-.56-.04.18.03.38,0,.56h-.56Z"/>
  <path class="cls-21" d="M86.92,80.66l.56.56c-.12-.19-.4-.35-.56-.56Z"/>
  <path class="cls-21" d="M87.48,81.77c.09.18.43.34.56.56-.03-.09-.5-.28-.56-.56Z"/>
  <path class="cls-80" d="M76.34,42.26c-.03.74.03,1.49,0,2.22-.28.58-1.88-2.74-2.22-3.34.49.04.49-.15.56-.56h.56c.33.07.56.18.56.56-.04.65-1.52,1.27.56,1.11h-.03Z"/>
  <path class="cls-99" d="M70.22,27.78c-1.48-.92-2.63-.46-3.89-2.23-.36-.16-.36-.35,0-.56.7-.01,3.54,2.03,4.45,2.23l-.56.56h0Z"/>
  <path class="cls-54" d="M66.33,25v.56s-.53.07-.55-.28c.1-.3.3-.27.55-.28Z"/>
  <path class="cls-71" d="M75.23,28.34c-1.09.07-2.23-.04-3.34,0v-.55h3.33v.56h.01Z"/>
  <path class="cls-11" d="M66.33,62.29c.58-.12,1.12-.33,1.66-.56,1.29,2.72-.25,1.95-.53,2.6-.12.27.06.61,0,.74l-3.34-.56c0-.81.24-1.49.56-2.22.61-.84.93-1.11,1.11,0h.56-.01Z"/>
  <path class="cls-44" d="M60.75,68.98c-1.49-.67.33-3.14,1.11-3.89.19.03.38-.04.56,0,.74.03,1.23.99,1.11,1.67-.3,1.42-.56,3.21-2.78,2.23h0Z"/>
  <path class="cls-78" d="M66.33,62.29c-.16.35-.36.35-.56,0-.28-.09-.77.06-1.11,0,.22-.5.83-2.56,1.67-2.23.46.18.59,1.72,0,2.23Z"/>
  <path class="cls-93" d="M63.55,66.74c-.8-.24-1.11-.86-1.11-1.67.34.07.84-.1,1.11,0l.56.56c.07.13-.07.4,0,.56-.24.09-.5.31-.56.56h0Z"/>
  <path class="cls-44" d="M63.55,65.07l.56.56s-.52-.55-.56-.56Z"/>
  <path class="cls-43" d="M65.77,45.59c0,1.46.24,3.74,0,5.01-.5,2.65-3.67,5.74-6.69,5.01-.06-3.96-.27-4.04,2.78-6.69.56-.1.95-.47,1.11-1.11-.89.04-.77-.71,0-1.11-.13-1.55,1.09-4.88,2.23-5.01h.56v3.89h0Z"/>
  <path class="cls-97" d="M65.21,41.7c-.52,1.27-2,3.93-2.23,5.01-.68.77-.86.44-.56-.56-.33-.9-.03-1.51.56-2.23l.56-1.11q.11-.15,0,0l-.56,1.11c-.58.81-.83,1.23-.56,2.23.41.61.22,1.41-.56,1.11-.77,1.36-1.42.92-1.11-.56.41-1.38-.03-1.58,0-1.67.86-2.2,2.96-3.49,4.45-5.01l.52.33c.06.53-.34.9-.52,1.35h.01Z"/>
  <path class="cls-109" d="M58.53,45.59c-1.7,1.04-1.46,1.02-2.78,2.23-2.14.35-1.04-2.81-.33-3.39,1.17-.98,3.14-.81,3.12,1.17h-.01Z"/>
  <path class="cls-30" d="M58.53,50.04c-.56.75-1.63.61-2.23,0,0-.18.01-.37,0-.56v-.56c.65-1.49,1.48-2.78,3.34-2.78.22,1.43-.81,2.66-1.11,3.89h0Z"/>
  <path class="cls-18" d="M62.99,47.82c0,.13.7.83.62,1.92-.07,1.23-1.97,3.82-2.84,3.09-1.05-.87,1.43-1.39,1.64-2,.38-1.11-.52-1.73-.53-1.89v-.56c.12-.78.56-1.17,1.11-.56h0Z"/>
  <path class="cls-26" d="M61.88,48.37c-.89.47-1.36,1.29-2.22,1.67-.3-1.33.8-2.31,1.11-3.34l1.11.56c.83.03.72.74,0,1.11Z"/>
  <path class="cls-14" d="M55.75,50.6c.4.92,1.07,3.02-.56,2.23-.15-.8.1-1.91,0-2.78.19.15.46.33.56.56h0Z"/>
  <path class="cls-14" d="M57.97,51.17l-1.67-.56v-.56h2.23c-.09.35-.49.77-.56,1.11h0Z"/>
  <path class="cls-14" d="M56.3,48.93v.56c-.03-.35-.33.19,0-.56Z"/>
  <path class="cls-17" d="M85.81,84.01h-.56c-1.91-2.25-6.09-2.49-3.34,1.11.8-.65,1.04-.34.56.56-2.66,2.28-5.28-2.99-1.52-4.59,2.25-.96,4.93.18,4.87,2.93h0Z"/>
  <path class="cls-19" d="M83.59,84.01c-.4.5-.65,1.27-1.11,1.67-.25-.07-.47-.55-.56-.56-2.99-1.27.77-4.66,1.67-1.67v.56Z"/>
  <path class="cls-57" d="M85.25,80.11c-.28-.21-.77-.4-1.11-.56v-.56c.38,0,1.57.41,1.67.56.16.22-.18.65-.56.56Z"/>
  <path class="cls-103" d="M78.02,82.9c-.31-.04-.5-.25-.56-.56-.03-.15-.03-.41,0-.56h.56v1.11h0Z"/>
  <path class="cls-57" d="M83.03,79.55l.28-.55.28.55c-.16-.04-.37,0-.56,0Z"/>
  <path class="cls-105" d="M62.42,72.32c-.83-1.01.09-2.13,0-2.23.21.13.92-.13,1.11,0,.55-.12.92.43,1.11,1.67,0,.18-.01.37,0,.56h-2.23.01Z"/>
  <path class="cls-67" d="M64.66,68.41c2.93-.38,2.57,2.69,0,2.23-.67-.15-.67-.71,0-1.67-.01-.18.01-.37,0-.56Z"/>
  <path class="cls-66" d="M70.22,71.2c0-.09-.49-1.61-.56-1.67-.36-.72-.13-1.01.56-.56.37-.86,1.24-.38,1.11.56.78-.13,1.2.56.56,1.11l-1.67.56Z"/>
  <path class="cls-27" d="M69.11,67.31c.81,1.52.72,2.4-1.11,1.67-.4-.35-.61-.5-.56-1.11-.49-.16-.47-.34,0-.56.19,0,.41-.03.56,0,.55-.64.86-.92,1.11,0Z"/>
  <path class="cls-7" d="M67.44,70.65c.98-1.12,2.2,2.22.83,2.22-.56,0-1.18-1.82-.83-2.22Z"/>
  <path class="cls-88" d="M69.67,69.54s-.93.1-1.67-.56c1.49.27,1.14-.35,1.11-1.67.52-.72.89-.16,1.11,1.67-.06.27-.3.47-.56.56h.01Z"/>
  <path class="cls-85" d="M64.66,70.65c.03.37-.03.74,0,1.11-.61-.22-.93-1.55-1.11-1.67l1.11-1.11c.06.55-.04,1.12,0,1.67Z"/>
  <path class="cls-63" d="M70.22,73.43c-.38-1.39.03-1.43,0-1.67,1.35.58,1.35,1.09,0,1.67Z"/>
  <path class="cls-65" d="M67.44,67.87l-1.12.27c.53-2.12,1.01-.83,1.12-.83v.56Z"/>
  <path class="cls-52" d="M68.55,66.2l-.56-.56,2.23-.56v.56c-.04,1.46-.78,1.91-1.67.56h0Z"/>
  <path class="cls-102" d="M85.25,84.01c.16.58-.1,1.55,0,2.23-.62.09-.49-.47-.55-.56l-.56-1.11c-.18-.3.04-.61-.56-1.11-2.01-1.69-2.75-.35-1.67,1.67-.52-.09-1.12.07-1.67,0-.84-3.91,4.13-4.41,5.01-1.11h0Z"/>
  <path class="cls-3" d="M84.7,85.68c-.43-.55-.37-.8-.56-1.11l.56,1.11Z"/>
  <path class="cls-91" d="M79.13,87.9c-.1-.34.31-.58.56-.56v.56c-.15-.07-.44.09-.56,0Z"/>
  <path class="cls-60" d="M80.8,27.78c-1.01,1.18-3.18,2.46-4.17,3.89l-.28-1.11,5.56-6.12c.72,1.26-.1,2.14-1.11,3.34h0Z"/>
  <path class="cls-73" d="M66.88,40.59v.56c-1.12,0-.31-.31,0-.56Z"/>
  <path class="cls-21" d="M73.56,35.01c.15-.12.25-.49.56-.56v.56h-.56Z"/>
  <path class="cls-96" d="M74.13,65.07c-.46,1.17-3.03-.09-2.78-1.39.24-1.2,3.99-1.73,2.78,1.39Z"/>
  <path class="cls-48" d="M73.56,68.41l-.56,1.67h.56c-.03.37.04.75,0,1.11-.16.49-.34.47-.56,0-.46-.15-.72-.27-1.11-.56-.22-.16-.33-.93-.56-1.11-.75-.62-.44-1.18.56-1.11-.53-.31-.34-.87.56-1.67.3.22.92.83,1.11,1.11.12.18.46.31.56.56-.18.01-.37,0-.56,0Z"/>
  <path class="cls-36" d="M70.22,67.87c.93.28,1.05.83,0,1.11-.44-.4-.62-1.42-1.11-1.67-.22-.1-.78.09-1.11,0,.21-.27.37-.98.56-1.11.07-.04,1.45-.52,1.67-.56.16-.03.38,0,.56,0,.27.16.27.35,0,.56.68.46.13,1.42-.56,1.67h-.01Z"/>
  <path class="cls-84" d="M70.78,67.87c-.16.49-.34.47-.56,0,.12-.58-.09-1.21.56-1.67.16-.31.36-.3.56,0,.18.04.41-.06.56,0,.52.9-.01,2.07-1.11,1.67h-.01Z"/>
  <path class="cls-38" d="M71.89,68.41c-.31.89-1.41.28-1.11-.56.8-.24,1.11-.86,1.11-1.67.27.12.38.43.56.56-.03.61-.36,1.12-.56,1.67Z"/>
  <path class="cls-52" d="M70.78,66.2v-.56c.28,0,.53.27.56.56h-.56Z"/>
  <path class="cls-24" d="M75.8,71.2h-.56l-.55-.28c-.18-1.46-.07-1.58,1.39-1.39.99.13-.27,1.58-.28,1.67Z"/>
  <path class="cls-79" d="M75.8,72.32s-.03.75,0,1.11c-.55.04-1.12-.03-1.67,0,.21-.72.62-2.03,1.67-1.11Z"/>
  <path class="cls-1" d="M73,71.2c.16.04.37-.04.56,0-.31,2.85-2.78.95-.56,0Z"/>
  <path class="cls-29" d="M70.78,74.54v-.56c.62.16,1.07.25,1.67.56-.06.18.06.4,0,.56-.95-.1-.84.04-1.67-.56Z"/>
  <path class="cls-20" d="M75.23,114.62h-.56c.1-.24-.06-.77,0-1.11.25.09.47.3.56.56.04.13,0,.37,0,.56h0Z"/>
  <path class="cls-42" d="M75.23,40.59h.56v.56l-.56-.56Z"/>
  <path class="cls-51" d="M86.37,105.72c-.37.06-.43-.27-.56-.56-.06-.13.03-.35,0-.56h.56c-.07.33.06.75,0,1.11h0Z"/>
  <path class="cls-16" d="M73,70.09c-1.27-1.18-.98-1.57.56-1.67.06.27.3.52.56.56,0,.18.04.44,0,.56l-1.11.56h-.01Z"/>
  <path class="cls-59" d="M73.56,70.09c-.18.04-.38-.03-.56,0l1.11-.56c-.18.43-.09.43-.56.56h.01Z"/>
  <path class="cls-52" d="M65.77,62.29h.56s.07.52-.28.55-.25-.53-.28-.55Z"/>
  <path class="cls-40" d="M62.99,47.82c-.24.5-.81.4-1.11.56,0-.35-.06-.8,0-1.11.03-.16.44-.62.56-1.11.1.19.41.34.56.56-.06.3,0,.77,0,1.11h-.01Z"/>
  <path class="cls-56" d="M62.42,46.15c-1.11-1.88-.3-1.18.56-2.23-.18.74-.38,1.49-.56,2.23Z"/>
  <path class="cls-62" d="M62.99,43.92c.12-.44-.25-1.15.56-1.11.28,1.07-.4.92-.56,1.11Z"/>
  <path class="cls-86" d="M63.55,42.81c-.27-.27.52-.89.56-.28,0,.19-.43.4-.56.28Z"/>
  <path class="cls-49" d="M71.34,69.54c-.28-.24-.86-.33-1.11-.56.07-.34-.07-.77,0-1.11h.56l1.11.56c-.15.38-.04.87-.56,1.11Z"/>
</svg>