<?xml version="1.0" encoding="UTF-8"?>
<svg id="Livello_1" data-name="Livello 1" xmlns="http://www.w3.org/2000/svg" viewBox="0 0 141.73 141.73">
  <defs>
    <style>
      .cls-1 {
        fill: #a46b68;
      }

      .cls-2 {
        fill: #b8b2b2;
      }

      .cls-3 {
        fill: #b3d0d0;
      }

      .cls-4 {
        fill: #b3adac;
      }

      .cls-5 {
        fill: #c2bab8;
      }

      .cls-6 {
        fill: #ad9897;
      }

      .cls-7 {
        fill: #ba9a9b;
      }

      .cls-8 {
        fill: #a29a98;
      }

      .cls-9 {
        fill: #8d7b78;
      }

      .cls-10 {
        fill: #8d7c79;
      }

      .cls-11 {
        fill: #fefefe;
      }

      .cls-12 {
        fill: #a27e7b;
      }

      .cls-13 {
        fill: #a9908b;
      }

      .cls-14 {
        fill: #987e7a;
      }

      .cls-15 {
        fill: #fff;
      }

      .cls-16 {
        fill: #b7b3b3;
      }

      .cls-17 {
        fill: #dabcba;
      }

      .cls-18 {
        fill: #afa2a1;
      }

      .cls-19 {
        fill: #d8b6b5;
      }

      .cls-20 {
        fill: #b19895;
      }

      .cls-21 {
        fill: #d2d0d1;
      }

      .cls-22 {
        fill: #a6807e;
      }

      .cls-23 {
        fill: #9b9693;
      }

      .cls-24 {
        fill: #b0cbcb;
      }

      .cls-25 {
        fill: #b3b3af;
      }

      .cls-26 {
        fill: #a89895;
      }

      .cls-27 {
        fill: #a09591;
      }

      .cls-28 {
        fill: #a79d99;
      }

      .cls-29 {
        fill: #a29897;
      }

      .cls-30 {
        fill: #817670;
      }

      .cls-31 {
        fill: #a59c9c;
      }

      .cls-32 {
        fill: #998785;
      }

      .cls-33 {
        fill: #97928e;
      }

      .cls-34 {
        fill: #e8eeed;
      }

      .cls-35 {
        fill: #967c78;
      }

      .cls-36 {
        fill: #bab1b1;
      }

      .cls-37 {
        fill: #b0a9a9;
      }

      .cls-38 {
        fill: #b08e8c;
      }
    </style>
  </defs>
  <path class="cls-36" d="M47.68,76.49c.17.63-.13,1.57.08,2.18l1.23,2.14c.2.6-.13,1.6.08,2.18l1.19,1.06c.23.57-.16,1.63.08,2.18l1.19,1.06c.13.32-.09.79.04,1.1l1.19,1.06c.16.31-.12.79.04,1.1l1.19,1.06c.16.29-.12.79.04,1.1l1.19,1.06c.16.29-.12.82.04,1.1l1.19,1.06c.16.29-.12.82.04,1.1l1.19,1.06c.16.26-.15.82.04,1.1l2.35,2.1c.19.25-.15.85.04,1.1l2.35,2.1c.19.23-.15.85.04,1.1l3.55,3.16c.19.2-.15.88.04,1.1l1.19,1.06,7.09,6.32c.25.17.88-.2,1.15-.04l2.35,2.1,1.15-.04.19-1.43c-9.81-9.19-19.35-18.57-25.33-30.52l-.04-1.1-1.23-2.14c-.13-.32.09-.79-.04-1.1l-1.19-1.06c-.13-.32.1-.76-.04-1.1-.83-2.91-2.06-5.07-3.66-6.44-.37-.95-.73-.9-1.15.04.07.35-.03.76.04,1.1l1.19,1.06-.1-.11Z"/>
  <path class="cls-11" d="M42.46,25.25c1.13.25,1.11,1.21,1.23,2.14.37.95.73.9,1.15-.04,4.97-13.6,21.6,1.95,6.98,3.04,1.17-2.19.46-4.14-2.39-3.2-3.81,6.88,2.35,10.62,8.22,6.28,3.2-.72,6.09-6.9,3.13-8.86.73-.78.8-1.57-.08-2.18-1.35-3.91-7.46-7.27-10.45-4.03-.32-.51-.72-.47-1.15.04-.31-.95-.7-.91-1.15.04-1.08-.57-2.38-.09-2.24,1.18-1.56-.32-3.67,1.96-3.32,3.4-1.44.72-1.7,1.92.08,2.18Z"/>
  <path class="cls-27" d="M43.81,31.77l1.19,1.06c.13.34-.12.85.04,1.1l2.35,2.1c.25.14.79-.14,1.15-.04l2.32,1.02c1.01.05,2.43,0,3.43-.12,1.81-.41,2.94-1.18,3.36-2.3.72-.34.67-.72-.04-1.1-5.48.74-8.21.23-8.22-6.28.99-.35.95-.7-.04-1.1-2.11-.42-2.85,1.15-1.08,2.22l-1.08,2.22c.3-.91-.13-2-1.27-3.24-.37-.95-.73-.9-1.15.04l-1.15.04c.17,1.36-.16,3.23.15,4.38h.03Z"/>
  <path class="cls-16" d="M85.3,71.91l3.55,3.16c.68.41,1.69.58,2.32,1.02l5.9,5.26c.35.39.82.7,1.19,1.06,1.52.99,1.96.43,1.12-1.14-3.12-4.14-7.05-7.63-11.8-10.52-.31-.13-.79.14-1.15.04l-1.19-1.06-1.15.04c-1,.03-1.46.08-1.12,1.14-.75.35-.71.72.04,1.1.52.21,1.81-.3,2.28-.08l.03-.03Z"/>
  <path class="cls-37" d="M99.69,123.91c.76-.08,1.61.06,2.28-.08,3.25-1.91,5.92-4.74,7.73-7.91.08-.32-.09-.72-.04-1.1-.33-.77-.74-1.11-1.19-1.06-.35-.54-.75-.5-1.15.04-.13.67.27,1.76.08,2.18-1.74,2.36-4.11,4.18-6.68,5.7-.3.13-.79-.09-1.15.04l-6.83,1.34c-.96.35-.95.7.04,1.1,2.22.8,4.75.91,6.87-.24h.06Z"/>
  <path class="cls-4" d="M47.95,18.49c.27-.13.76.06,1.15-.04.44-.54.8-.55,1.15-.04,5.91-.58,5.9.78,10.45,4.03.37.95.73.9,1.15-.04-.02-3.2-3.21-4.98-5.94-6.36-.31-.11-.76.11-1.15.04-1.52-.76-3.09-.56-4.59.16-.73.14-1.77-.11-2.28.08-.81.35-.77.72.04,1.1-.99.35-.95.7.04,1.1l-.03-.03Z"/>
  <path class="cls-26" d="M98.29,83.49l1.19,1.06c.16.31-.12.82.04,1.1l1.19,1.06c.42.71.81,1.43,1.23,2.14l1.19,1.06c.16.29-.12.79.04,1.1l1.19,1.06c.16.29-.12.79.04,1.1l1.19,1.06c-.48.34-.43.71.04,1.1l1.19,1.06c.37.95.73.9,1.15-.04.51-.31.46-.66-.04-1.1-.1-.35.09-.79-.04-1.1-2.03-4.93-4.85-9.22-8.45-12.85-.63.17-.99.53-1.12,1.14-.05.26-.03.82.04,1.1l-.09-.08Z"/>
  <path class="cls-33" d="M69.36,74.64c1.72-.26,3.21-1.42,4.47-3.44l1.15-.04c1.95-.82,3.72-.68,5.71-.2l1.15-.04c.36.71.75.67,1.15-.04l1.12-1.14c-2.65-1.8-7.18-1.87-10.34-.75-.36.01-.79-.03-1.15.04l-1.12,1.14c-.35.36-.89.73-1.12,1.14-.74.61-1.48,1.27-1.08,2.22-.75.37-.73.75.04,1.1Z"/>
  <path class="cls-25" d="M58.81,34.51c2.3-.2,3.65-3.44,4.4-5.62.2-.5-.2-1.5-.08-2.18l-.04-1.1c-.08-.69.1-1.63-.08-2.18-.37-.95-.73-.9-1.15.04-.47-.27-.85.12-1.12,1.14.13,3.89-.71,5.75-3.13,8.86l1.19,1.06v-.03Z"/>
  <path class="cls-29" d="M39.79,47.2l1.27,3.24c.11,1.45.01,2.94.15,4.38.37.95.73.9,1.15-.04.37.95.73.9,1.15-.04l-.08-2.18c-.09-.72.01-1.45-.08-2.18-.47-2.92-1.31-5.45-2.54-7.56-.37-.95-.73-.9-1.15.04.05,1.45.04,2.93.15,4.38l-.03-.06Z"/>
  <path class="cls-18" d="M69.85,88.84c.13.32-.12.82.04,1.1l4.78,5.3c.53.42,1.66.58,2.32,1.02l1.15-.04c.36.6.75.58,1.15-.04-2.98-3.59-6.14-6.76-9.49-9.53-.37-.95-.73-.9-1.15.04.01.35-.03.76.04,1.1l1.19,1.06-.03-.03Z"/>
  <path class="cls-2" d="M81.26,121.26c.28.14.79-.14,1.15-.04l1.19,1.06c.31.13.85-.17,1.15-.04l1.19,1.06c.31.11.76-.11,1.15-.04l3.47.98c.76.06,1.52-.08,2.28-.08-.19-.14.12-.79-.04-1.1.17-.47-.21-.81-1.19-1.06-.37-.02-.76.08-1.15.04l-2.32-1.02c-.37-.07-.79.11-1.15.04l-1.19-1.06c-.34-.1-.79.14-1.15.04l-1.19-1.06c-.34-.05-.79.03-1.15.04-4.48-1.97-4.1-.76-1.08,2.22l.03.03Z"/>
  <path class="cls-13" d="M67.2,79.07c-.34.77-.56,1.44.08,2.18.11,1.33-.16,3.26.15,4.38.35.54.75.53,1.15-.04.44.54.8.15,1.12-1.14l-.04-1.1c-.04-.35-.03-.73-.04-1.1-.96-1.3-1.02-3.02-.15-4.38-.01-.38-.06-.72-.04-1.1.69-1.07.67-1.83-.08-2.18.05-.38-.12-.75-.04-1.1-.36-.66-.75-.61-1.15.04-.14.27.15.75.04,1.1l-1.12,1.14c-.15.94.14,2.2.11,3.28v.03Z"/>
  <path class="cls-31" d="M79.34,98.36c.28.14.78-.17,1.15-.04l1.19,1.06c.37.05.76-.06,1.15-.04l2.12.6c11.39-1.35-.26-3.1-5.64-3.76-.34-.08-.79.11-1.15.04-.28.59.14,1.3,1.23,2.14h-.06Z"/>
  <path class="cls-6" d="M42.56,61.35l1.27,3.24c.15.69-.1,1.57.08,2.18l1.19,1.06c.37.95.73.9,1.15-.04.57-.34.52-.69-.04-1.1l-.04-1.1c-.5-2.89-1.34-5.42-2.54-7.56-.37-.95-.73-.9-1.15.04.04,1.07-.05,2.21.11,3.28h-.03Z"/>
  <path class="cls-28" d="M40.19,26.41c-.79,1.04-.8,2.38.11,3.28-.92.61-.65,1.39.08,2.18.37.95.73.9,1.15-.04-.13-1.94.17-3.78.97-5.5.05-.35-.06-.72-.04-1.1.07-.7-.25-1.82-.08-2.18-.37-.95-.73-.9-1.15.04l-1.12,1.14c-.16.56.14,1.48.08,2.18Z"/>
  <path class="cls-24" d="M109.32,104.97c-.83,1.63-.78,3.81.19,5.46-.99.53-.71,1.39.08,2.18.37.95.73.9,1.15-.04.15-.96-.17-2.2-.11-3.28.77-1.45.57-2.96-.15-4.38-.13-1.07.1-2.3-.11-3.28-.37-.95-.73-.9-1.15.04-.85.87-.8,2.47.11,3.28v.03Z"/>
  <path class="cls-17" d="M39.52,39.57c.37.95.73.9,1.15-.04.78-.26.74-.64-.04-1.1.75-2,.66-4.59-.23-6.56-.03-.73-.08-1.45-.08-2.18-.37-.95-.73-.9-1.15.04,0,3.26.23,6.56.34,9.84Z"/>
  <path class="cls-11" d="M69.78,86.66c.16.34,4.1,5.18,4.77,5.88,1.33,1.47,3.33,2.24,4.75,3.64,3.41.84,6.42,2.66,10.38,1.85,0,1.89-5.58,1.41-6.83,1.31,1.5,2.13,7.92,1.18,7.95-1.38l-1.19-1.06c-1.35-.21-3.15.4-4.84-.09-7.89-2.23-10.84-7.36-15.1-13.46.04.35-.03.76.04,1.1-.64.84-.86,1.6.08,2.18v.03Z"/>
  <path class="cls-11" d="M78.9,119.16c.92,1.22.84,1.34,2.35,2.1l-1.23-2.14,2.28-.08c-8.47-6.62-15.12-12.47-21.36-21.15l-1.19-1.06c-1.28-1.85-1.63-3.98-2.47-5.38l-1.19-1.06c-.45-.77-.71-2.16-1.27-3.24l-1.15.04c6.95,16.15,16.43,20.39,25.14,31.95l.09.03Z"/>
  <path class="cls-5" d="M42.39,23.04c.11-.21,3.11-3.25,3.32-3.4.54-.98-.16-1.24-1.19-1.06-1.13.88-1.39,1.21-2.2,2.26l-1.12,1.14c-.17.27.18.78.04,1.1l1.15-.04Z"/>
  <path class="cls-11" d="M92.79,123.04c2.94.62,4.54-.56,6.83-1.34-2.65-.08-5.37.42-7.99.28.02.7,1.1.89,1.19,1.06h-.03Z"/>
  <path class="cls-11" d="M84.07,69.74c.44-.36.43-.71-.04-1.1-2.62-.9-8.25-1.92-10.3.36,4.03-.31,6.48.07,10.34.75Z"/>
  <path class="cls-11" d="M43.48,54.75c-.98.73-.71,2.32.11,3.28.32,2.17,1.15,5.83,2.54,7.56-.32-4.09-1-9.56-2.73-13.04.09.72-.01,1.45.08,2.18v.03Z"/>
  <path class="cls-11" d="M40.76,42.81c.2,1.42,1.7,6.07,2.54,7.56-.44-4-1.32-8.24-1.57-11.98-.37-.95-.73-.9-1.15.04l.04,1.1c-.98.73-.71,2.32.11,3.28h.03Z"/>
  <path class="cls-12" d="M108.08,101.73c-.02,1.08.08,2.18.11,3.28.37.95.73.9,1.15-.04-.04-1.1-.02-2.21-.11-3.28,1.86-5.27-3.35-5.47-1.15.04Z"/>
  <path class="cls-11" d="M99.69,123.91c-2.06.25-4.74.28-6.87.24,1.94,1.5,5.14,1.83,6.87-.24Z"/>
  <path class="cls-3" d="M40.61,38.43l1.15-.04c-.14-2.15-.27-4.41-.23-6.56l-1.15.04c.01,2.15.03,4.42.23,6.56Z"/>
  <path class="cls-19" d="M108.38,110.46c.37.95.73.9,1.15-.04.03-1.8-.1-3.66-.19-5.46l-1.15.04c0,1.8.04,3.66.19,5.46Z"/>
  <path class="cls-11" d="M80.67,70.96c-3.07-.82-1.83-1.8-5.71.2,1.6-.32,3.95-.14,5.71-.2Z"/>
  <path class="cls-15" d="M42.55,126.96l2.28-.08-.11-3.28c-1.63.43-2.55,1.86-2.16,3.36Z"/>
  <path class="cls-11" d="M41.54,31.85c-.01-.29.74-4.01.97-5.5-1.82.99-.93,3.75-.97,5.5Z"/>
  <path class="cls-11" d="M47.6,74.29c.35,1.24,2.73,5.05,3.66,6.44-1.24-3.24-1.4-7.92-3.81-10.8-.99.3-.98.67.04,1.1-.79.87-.89,2.53.11,3.28v-.03Z"/>
  <path class="cls-11" d="M69.63,82.27c-.17-1.39-.16-2.96-.15-4.38-1.69.41-1.66,3.98.15,4.38Z"/>
  <path class="cls-15" d="M110.62,109.31c0-.23,1.12-.94,1.09-1.84-.06-1.65-1.24-2.34-1.24-2.54l.15,4.38Z"/>
  <path class="cls-14" d="M108.46,112.67c-.5.37-.49.71.04,1.1.23.6-.05,1.16,1.19,1.06.8-.7.77-1.48-.08-2.18.04-.73-.08-1.45-.08-2.18l-1.15.04c.06.72-.04,1.48.08,2.18v-.03Z"/>
  <path class="cls-7" d="M46.41,73.25c.01.35-.03.76.04,1.1l1.15-.04c-.24-.92.1-2.27-.11-3.28-.37-.95-.73-.9-1.15.04-.96.27-.53,1.41.08,2.18Z"/>
  <path class="cls-21" d="M46.33,71.05l1.15-.04c-.07-.35-.03-.73-.04-1.1s0-.73-.04-1.1c-.37-.95-.73-.9-1.15.04-.46-.19-.82.17-1.12,1.14.07.35,0,.73.04,1.1.37.95.73.9,1.15-.04Z"/>
  <path class="cls-11" d="M43.83,64.59l-1.27-3.24c.29,2.11,1.23,3.07,1.27,3.24Z"/>
  <path class="cls-32" d="M42.41,56.97l.04,1.1,1.15-.04c-.16-1.07-.02-2.21-.11-3.28l-1.15.04c-.96.27-.56,1.41.08,2.18Z"/>
  <path class="cls-11" d="M41.02,50.45c-.1-1.19.27-2.77-1.27-3.24.1,1.19-.27,2.77,1.27,3.24Z"/>
  <path class="cls-22" d="M39.63,42.85l1.15-.04c-.16-1.07-.02-2.21-.11-3.28l-1.15.04.11,3.28Z"/>
  <path class="cls-11" d="M39.18,29.73l1.15-.04c.02-1.08-.2-2.2-.11-3.28-1.47.57-1.02,2.13-1.04,3.32Z"/>
  <path class="cls-11" d="M108.08,101.73c.03-1.02-.6-3.26.46-3.3,1.13.25.6,2.28.69,3.26l1.15-.04c-.51-2.31-.35-4.78-2.51-6.48.07.29.03.78.04,1.1-.48.31-.81,1.07-1.08,2.22.19,1.16-.33,2.71,1.27,3.24h-.03Z"/>
  <path class="cls-11" d="M90.55,124.22l-3.47-.98c.61.12,1.15.83,3.47.98Z"/>
  <path class="cls-11" d="M63.18,28.89c-.56,1.5-2.92,4.46-4.4,5.62-.39-.6-.78-.58-1.15.04-1.19.65-2.29,1.47-3.36,2.3,5.24-.7,8.21-2.7,8.88-7.95h.03Z"/>
  <path class="cls-11" d="M18.64,65.44c.78-.4-.73-1.84-2.32-1-.78.4.73,1.84,2.32,1Z"/>
  <path class="cls-11" d="M42.41,56.97l-.08-2.18-1.15.04c.09.93.1,1.89,1.23,2.14Z"/>
  <path class="cls-15" d="M45.14,70.01c.74-.67.73-1.62-.08-2.18-.38-.48-.75-.44-1.15.04.22.95-.41,2.25,1.23,2.14Z"/>
  <path class="cls-11" d="M46.41,73.25l-.08-2.18-1.15.04c.12.93.06,1.83,1.23,2.14Z"/>
  <path class="cls-11" d="M46.26,68.87l1.15-.04c-.12-.93-.06-1.83-1.23-2.14.01.35.09.75.04,1.1-.72.37-.71.72.04,1.1v-.03Z"/>
  <path class="cls-11" d="M47.91,17.39l-.04-1.1c-2.82,1.09-1.94,1.2-3.36,2.3.64.91,2.61-.26,3.39-1.22v.03Z"/>
  <path class="cls-11" d="M48.95,80.81l-1.23-2.14c.48,1.5,1.17,2.02,1.23,2.14Z"/>
  <path class="cls-11" d="M50.87,36.99l-2.32-1.02c.18.05.4.89,2.32,1.02Z"/>
  <path class="cls-11" d="M53.73,86.11c-.43-.94-1.07-1.82-1.23-2.14-.27,1.08,1.07,1.77,1.23,2.14Z"/>
  <path class="cls-11" d="M61.8,22.37c-.72.34-.68.69.04,1.1l1.15-.04c-1.53-4.69-2.36-5.76-7.13-7.4,2.31,1.75,5.11,3.43,5.94,6.36v-.03Z"/>
  <path class="cls-15" d="M67.28,81.28c-.03-.73-.11-1.48-.08-2.18l-1.07,1.66,1.14.51Z"/>
  <path class="cls-11" d="M69.44,76.82c1.37-1.85,2.57-3.08,4.44-4.54l-.04-1.1c-1.53.49-2.86,2.74-4.47,3.44-.07.7.11,1.48.08,2.18v.03Z"/>
  <path class="cls-11" d="M74.64,95.24l-4.78-5.3c1.78,3.11,2.09,3.15,4.78,5.3Z"/>
  <path class="cls-11" d="M90.47,122.04s-.66-.7-2.32-1.02l2.32,1.02Z"/>
  <path class="cls-11" d="M99.34,81.24c1.78,2.18,7.61,10.7,8.45,12.85-3.17-8.84-8.86-15.94-16.77-21.31l-1.19-1.06c-.68-.41-1.58-.7-2.32-1.02,3.91,3.91,8.18,6.08,11.8,10.52l.03.03Z"/>
  <path class="cls-11" d="M107.42,115.99l-6.68,5.7c3-1.24,5.26-2.6,6.68-5.7Z"/>
  <path class="cls-11" d="M109.7,115.91l-7.73,7.91c3.41-.76,7.05-4.58,7.73-7.91Z"/>
  <path class="cls-11" d="M106.77,97.41c.72-.34.68-.69-.04-1.1-.17-.49-1.06-.81-1.19-1.06.27.8,0,1.86,1.23,2.14v.03Z"/>
  <path class="cls-38" d="M106.81,98.48c1.08-.39,1.02-1.29,1.08-2.22l-1.15.04c.13.32-.06.76.04,1.1.1.29-.04.73.04,1.1v-.03Z"/>
  <path class="cls-11" d="M109.66,114.81c1.64,0,.93-1.28,1.08-2.22l-1.15.04c-.04.73.14,1.48.08,2.18Z"/>
  <path class="cls-11" d="M108.5,113.75c-.1-.29.04-.7-.04-1.1-.51.16-1.01.62-1.12,1.14l1.15-.04Z"/>
  <path class="cls-15" d="M105.54,95.27c-.1-.35.06-.76-.04-1.1-.38-.45-.75-.44-1.15.04.23.49,1.09.81,1.19,1.06Z"/>
  <path class="cls-11" d="M105.51,94.17c-.17-.52-.67-.88-1.19-1.06.16.29-.09.79.04,1.1l1.15-.04Z"/>
  <path class="cls-11" d="M104.31,92.03l-1.19-1.06c.32.6,1.1.89,1.19,1.06Z"/>
  <path class="cls-11" d="M103.07,89.86l-1.19-1.06c.26.46,1.03.75,1.19,1.06Z"/>
  <path class="cls-11" d="M100.68,86.66l-1.19-1.06c.32.6,1.06.86,1.19,1.06Z"/>
  <path class="cls-11" d="M99.45,84.52l-1.19-1.06c.21.92,1.16.98,1.19,1.06Z"/>
  <path class="cls-11" d="M97.06,81.32c-2.12-2.46-3.19-3.44-5.9-5.26l5.9,5.26Z"/>
  <path class="cls-15" d="M91.05,72.78c-.41-.31-.76-.79-1.19-1.06.35.39.73.76,1.19,1.06Z"/>
  <path class="cls-15" d="M90.76,97.97c.02-1.05-.37-.92-1.19-1.06l1.19,1.06Z"/>
  <path class="cls-11" d="M88.84,75.07l-3.55-3.16c.22.11,1.93,2.17,3.55,3.16Z"/>
  <path class="cls-11" d="M86.38,70.76c-.35-.39-.78-.7-1.19-1.06.34.08.76.9,1.19,1.06Z"/>
  <path class="cls-11" d="M87,121.06s-.55-.88-1.19-1.06l1.19,1.06Z"/>
  <path class="cls-15" d="M85.22,69.7c-.38-.34-.79-.93-1.19-1.06l.04,1.1c.37.07.79-.11,1.15-.04Z"/>
  <path class="cls-11" d="M85.92,123.28l-1.19-1.06s.3.77,1.19,1.06Z"/>
  <path class="cls-11" d="M84.65,120.04s-.4-.95-1.19-1.06l1.19,1.06Z"/>
  <path class="cls-11" d="M82.99,71.99l-.04-1.1-1.15.04.04,1.1c.34.13.85-.17,1.15-.04Z"/>
  <path class="cls-11" d="M83.61,122.28c-.29-.43-.7-.91-1.19-1.06.29.43.67.85,1.19,1.06Z"/>
  <path class="cls-15" d="M81.86,72.02l-.04-1.1-1.15.04c.28.08.7.88,1.19,1.06Z"/>
  <path class="cls-11" d="M81.65,99.36l-1.19-1.06s.4.95,1.19,1.06Z"/>
  <path class="cls-11" d="M79.34,98.36l-1.23-2.14-1.15.04c.56.36.84,1.42,2.35,2.1h.03Z"/>
  <path class="cls-11" d="M77.75,119.2l-2.35-2.1c.43.25.98,2.06,2.35,2.1Z"/>
  <path class="cls-15" d="M74.96,71.16c-.39.07-.82-.06-1.15.04l.04,1.1c.41-.33.76-.96,1.12-1.14Z"/>
  <path class="cls-11" d="M74.27,117.14c-1.77-2.73-4.41-4.5-7.09-6.32,2.58,2.56,3.88,4.14,7.09,6.32Z"/>
  <path class="cls-11" d="M72.6,69.06c-.39.07-.82.78-1.12,1.14.35-.39.83-.7,1.12-1.14Z"/>
  <path class="cls-11" d="M69.32,73.53c.13-.61.74-1.57,1.08-2.22-1.26.42-1.63,1.25-2.2,2.26l1.15-.04h-.03Z"/>
  <path class="cls-11" d="M69.85,88.84l-1.19-1.06c.18.72,1.16.98,1.19,1.06Z"/>
  <path class="cls-11" d="M68.62,86.7c.72-.29.68-.63-.04-1.1l-1.15.04c.17.63.4,1.06,1.19,1.06Z"/>
  <path class="cls-11" d="M68.21,74.68l-1.12,1.14c.05-.29.95-.73,1.12-1.14Z"/>
  <path class="cls-15" d="M67.18,110.82c-.44-.3-.76-.76-1.19-1.06.35.39.82.7,1.19,1.06Z"/>
  <path class="cls-11" d="M63.07,25.61l.04,1.1c.18-.97.04-.52-.04-1.1Z"/>
  <path class="cls-11" d="M65.95,108.68l-3.55-3.16c1.4,1.72,2.69,2.26,3.55,3.16Z"/>
  <path class="cls-11" d="M62.36,104.41l-2.35-2.1c.96,1.27,2.07,1.73,2.35,2.1Z"/>
  <path class="cls-15" d="M61.01,97.89c-.32-.42-.94-.72-1.19-1.06l1.19,1.06Z"/>
  <path class="cls-11" d="M59.97,101.21l-2.35-2.1c.93,1.33,2.16,1.81,2.35,2.1Z"/>
  <path class="cls-11" d="M57.58,98.01l-1.19-1.06c.38.57,1.03.84,1.19,1.06Z"/>
  <path class="cls-15" d="M57.35,91.45c-.32-.57-1.06-.84-1.19-1.06l1.19,1.06Z"/>
  <path class="cls-11" d="M56.35,95.87l-1.19-1.06c.36.6,1.06.86,1.19,1.06Z"/>
  <path class="cls-11" d="M55.12,93.74l-1.19-1.06c.32.6,1.06.86,1.19,1.06Z"/>
  <path class="cls-15" d="M54.89,87.17c-.2-.4-1.03-.72-1.19-1.06.13.32-.09.79.04,1.1l1.15-.04Z"/>
  <path class="cls-15" d="M53.92,91.57l-1.19-1.06c.29.6,1.09.86,1.19,1.06Z"/>
  <path class="cls-11" d="M52.69,89.43l-1.19-1.06c.29.6,1.1.89,1.19,1.06Z"/>
  <path class="cls-11" d="M52.46,82.87c-.33-.77-1.16-.98-1.19-1.06l1.19,1.06Z"/>
  <path class="cls-11" d="M51.46,87.29l-1.19-1.06c.33.8,1.16.98,1.19,1.06Z"/>
  <path class="cls-11" d="M50.22,84.05l-1.19-1.06c.3.83,1.16.98,1.19,1.06Z"/>
  <path class="cls-11" d="M47.4,36.01l-2.35-2.1c.93,1.28.93,1.33,2.35,2.1Z"/>
  <path class="cls-11" d="M47.68,76.49l-1.19-1.06c.18.72,1.16.98,1.19,1.06Z"/>
  <path class="cls-11" d="M45.01,32.81l-1.19-1.06c.24.86,1.16.98,1.19,1.06Z"/>
  <path class="cls-11" d="M45.06,67.81c-.14-.52-.64-.91-1.19-1.06.1.35-.03.76.04,1.1l1.15-.04Z"/>
  <path class="cls-11" d="M42.31,20.87l-1.12,1.14c.23-.39.8-.73,1.12-1.14Z"/>
  <path class="cls-11" d="M41.23,23.08c-.17.35-.86.7-1.12,1.14.05-.18,1.01-.59,1.12-1.14Z"/>
  <path class="cls-8" d="M44.82,27.35l1.15-.04c3.77-4.55,12.35-5.31,6.94,1.94-1.68-1.22-2.15-.59-1.12,1.14,5.62,4.28,10.64-6.24,2.82-9.11-4.68-1.73-10.11.7-9.8,6.1v-.03Z"/>
  <path class="cls-9" d="M49.37,27.19c.85.96,1.42,2.45,2.39,3.2.51-.16.94-1.11,1.12-1.14,6.05-2.71-1.9-9.09-3.55-3.16l.04,1.1Z"/>
  <path class="cls-23" d="M45.71,19.67c.56-.43,1.55-.84,2.24-1.18l-.04-1.1c-.79.03-3.19.92-3.39,1.22-.32.45.41,1.26,1.19,1.06Z"/>
  <path class="cls-35" d="M60.75,24.62c.64-.11,1.02-.53,1.12-1.14.05-.29.03-.82-.04-1.1l-1.15.04.08,2.18v.03Z"/>
  <path class="cls-23" d="M50.23,18.41l-.61-1.05-.54,1.09c.33-.1.76-.03,1.15-.04Z"/>
  <path class="cls-34" d="M45.97,27.31c-.29,1.14.32,3.04.15,4.38,1.28.13.97-.96,1.09-1.14l1.08-2.22c.34-.59-.13-1.19,1.08-2.22,4.02-3.45,5.63-.89,3.55,3.16,1.06-.21,2.31.07,3.43-.12,1.47-7.73-8.78-8.36-10.37-1.82v-.03Z"/>
  <path class="cls-1" d="M47.21,30.55c.84-1.1.71-1.59,1.08-2.22l-1.08,2.22Z"/>
  <path class="cls-30" d="M58.81,34.51c.19-.68-.68-1.11-1.19-1.06l.04,1.1c.3-.16.92.14,1.15-.04Z"/>
  <path class="cls-10" d="M68.62,86.7l1.15-.04c-.23-.46.07-1.51-.08-2.18-.51.19-.95.61-1.12,1.14-.08.26.03.73.04,1.1v-.03Z"/>
  <path class="cls-20" d="M45.14,70.01c.76.09.86-.55,1.12-1.14.11-.27-.08-.69-.04-1.1l-1.15.04c.17.63-.07,1.48.08,2.18v.03Z"/>
</svg>