<?xml version="1.0" encoding="UTF-8"?>
<svg id="Livello_1" data-name="Livello 1" xmlns="http://www.w3.org/2000/svg" viewBox="0 0 141.73 141.73">
  <defs>
    <style>
      .cls-1 {
        fill: #8b6f6b;
      }

      .cls-2 {
        fill: #a7978d;
      }

      .cls-3 {
        fill: #a08f88;
      }

      .cls-4 {
        fill: #b4aca7;
      }

      .cls-5 {
        fill: #dad4d0;
      }

      .cls-6 {
        fill: #846659;
      }

      .cls-7 {
        fill: #cebbb4;
      }

      .cls-8 {
        fill: #ada298;
      }

      .cls-9 {
        fill: #c0cfc9;
      }

      .cls-10 {
        fill: #917767;
      }

      .cls-11 {
        fill: #9a8a82;
      }

      .cls-12 {
        fill: #ab9991;
      }

      .cls-13 {
        fill: #cdc8c2;
      }

      .cls-14 {
        fill: #ac9f9a;
      }

      .cls-15 {
        fill: #f8f8f7;
      }

      .cls-16 {
        fill: #eae5e3;
      }

      .cls-17 {
        fill: #fefefe;
      }

      .cls-18 {
        fill: #e3e0dd;
      }

      .cls-19 {
        fill: #b0a89e;
      }

      .cls-20 {
        fill: #86695c;
      }

      .cls-21 {
        fill: #b1a6a1;
      }

      .cls-22 {
        fill: #a38a7b;
      }

      .cls-23 {
        fill: #fff;
      }

      .cls-24 {
        fill: #8d7566;
      }

      .cls-25 {
        fill: #e7e1dd;
      }

      .cls-26 {
        fill: #c7b9b3;
      }

      .cls-27 {
        fill: #958980;
      }

      .cls-28 {
        fill: #876d61;
      }

      .cls-29 {
        fill: #aa9b94;
      }

      .cls-30 {
        fill: #b4aca6;
      }

      .cls-31 {
        fill: #a28984;
      }

      .cls-32 {
        fill: #aca29b;
      }

      .cls-33 {
        fill: #968881;
      }

      .cls-34 {
        fill: #9f8775;
      }

      .cls-35 {
        fill: #aca09a;
      }

      .cls-36 {
        fill: #b0998f;
      }

      .cls-37 {
        fill: #9b8f85;
      }

      .cls-38 {
        fill: #bfb1ad;
      }

      .cls-39 {
        fill: #dbcec8;
      }

      .cls-40 {
        fill: #8d7063;
      }

      .cls-41 {
        fill: #92776b;
      }

      .cls-42 {
        fill: #998075;
      }

      .cls-43 {
        fill: #a6968d;
      }

      .cls-44 {
        fill: #cfc9c5;
      }

      .cls-45 {
        fill: #e7e9e7;
      }

      .cls-46 {
        fill: #9b8c82;
      }

      .cls-47 {
        fill: #e8e8e6;
      }

      .cls-48 {
        fill: #af9b91;
      }

      .cls-49 {
        fill: #e9edec;
      }

      .cls-50 {
        fill: #ac9f97;
      }

      .cls-51 {
        fill: #b2a49f;
      }

      .cls-52 {
        fill: #ac9c98;
      }

      .cls-53 {
        fill: #a99f96;
      }

      .cls-54 {
        fill: #8b7265;
      }

      .cls-55 {
        fill: #f6fbfc;
      }

      .cls-56 {
        fill: #a1938c;
      }

      .cls-57 {
        fill: #b3a9a0;
      }

      .cls-58 {
        fill: #e2dedb;
      }

      .cls-59 {
        fill: #92786b;
      }

      .cls-60 {
        fill: #937a6a;
      }

      .cls-61 {
        fill: #bfb7b1;
      }

      .cls-62 {
        fill: #a09086;
      }

      .cls-63 {
        fill: #a2988f;
      }

      .cls-64 {
        fill: #c9c4bf;
      }

      .cls-65 {
        fill: #988d81;
      }

      .cls-66 {
        fill: #b6aca6;
      }

      .cls-67 {
        fill: #b4aca2;
      }

      .cls-68 {
        fill: #b7aea9;
      }

      .cls-69 {
        fill: #8b665c;
      }

      .cls-70 {
        fill: #93766b;
      }

      .cls-71 {
        fill: #a7958e;
      }

      .cls-72 {
        fill: #bcada7;
      }

      .cls-73 {
        fill: #af9b93;
      }

      .cls-74 {
        fill: #93877f;
      }

      .cls-75 {
        fill: #e2e5e4;
      }
    </style>
  </defs>
  <path class="cls-23" d="M100.86,81.53c2.16.91,4.06,2.24,5.73,3.97-.07.83-.68,1.42-.76,2.04-.07.57.53,1.59.3,1.91-.12.18-1.46.27-1.76.46q-.45-.42,0,0c-.09.06-1.29,1.09-1.53,1.32-.55.53-.54,1.89-1.41,2.16-1.14.36-3.33-1.12-3.67-.83-.55.48,1.01,1.23,1.32,1.98,2.01,4.92-4.26.56-3.98-1.72.16-1.32,2.21-2.11-1.3-3.34q.37-.39,0,0c-3.28-1.15-2.4,1.36-3.83,1.7-.8.19-1.94-.69-2.95-.34s-.48,2.59-2.19,2.11c-3.38-.95-3.06-8.12,1.46-6.11.67.61.07,1.05-1.77,1.32q-.25.48,0,0l.09-.43c1.09.27,1.86.39,2.11-.88.54-1.17.89-1.62,1.77-2.64-1,.3-1.51-.21-2.2-.45-.22-2.21,3-2.6,4.4-1.77.29-.26.6-.28.88,0,.45-.37,1.03-.18.88.45,1.08.56.83,2.14-.45,2.2-1.19.6-1.19,1.03,0,1.32.2-.61.68-.87,1.45-.8-.3-1.17-.21-2.08.32-2.73.01-.22.3-.37.88-.45.08-.39.23-.37.45,0l.88-.45c.14-.39.29-.39.45,0,.13-.32.28-.32.45,0-.59,1.41-.01,3,1.1,3.96,2.05-.73.26-4.02.67-4.4.5-.48,2.07.45,2.2.43h.01Z"/>
  <path class="cls-23" d="M84.99.86c.12,1.28.88,6.15-1.97,5.28-.84-.26-.3-2.2-1.32-1.76-1.17.52-.34,1.87-.22,2.64v.88c-.14.39-.29.39-.45,0l-.88.88.53.3c-.33,1.41,0,3.15,1.18,4.05l-.39.49.29.52c-.89,1.84.36,2.13,1.91,1.69.42-1.02.87-.87,1.32.45.76.21,1.45.26,2.2,0,.68-.82.98-.53.88.88.29.12.28.27,0,.45l-.45.88c.37.14.37.29,0,.45l-1.77,1.77c-.12.4-.27.39-.45,0l-.45.45c-.14.39-.29.39-.45,0l-.45.45c-.12.39-.27.37-.45,0l-.45.45c-.11.36-.26.35-.45,0l-.88.88c-.13.39-.27.39-.45,0-.45-.4-.15-.98.88-1.77-.55-.12-.49-.69,0-.88.18-.33.21-.56,0-.88-.4-.11-.39-.26,0-.45-2-1.78-4.42-2.3-4.85.88.36.12.35.27,0,.45,2.27.22,2.72.81,1.32,1.77.39.11.37.26,0,.45-.48.66-1.07,1.25-1.77,1.77.66.25.21.82-.45.88l-.88.88c.37.13.37.27,0,.45l-2.65,5.29c.37.14.37.28,0,.45-.32.75-1.28.43-1.32-.45-.4-1.73-.35-3.57,0-5.29-.69-.94-.7-2.6,0-3.53-.7-1.1-.12-2.05,1.75-2.82-1.84,1.09-2.45.05-1.83-3.14,2.48.35,3.12-4.7.34-3.37l-.69-.81c-.28-.37-.26-1.29,0-1.77l.25-1.04c1.65.15,2.88-.33,3.68-1.44.98.22,1.89.02,2.68-.61.11-.39.26-.37.45,0,.55-.46,1.11-.97,1.69-1.53-.88-2.1-.55-3.06.96-2.87.23-.34.68-.48,1.32-.45l1.09.09c.29,1.86.36,1.69.64.11-1.64-.93-1.49-2.65.47-2.41.13-.39.27-.37.45,0h.04Z"/>
  <path class="cls-23" d="M41.8,67.43c.54.08,1.42.8,1.76.22-.69-.29-.75-1.71-.97-1.89-.14-.12-3.84-.61-1.67-2.08,2.38-1.62,4.64,1.98,5.27,1.53.19-.13-.12-.57,1.35-1.3l.88-.45c1.35-.16.71.63.88.88q-.69.38,0,0c.15.23.8.22.9,1.11.12,1.04-.54,2.59-.06,3.89-.36.25-1.6,1.59-1.72,1.62-1.37-.4-1.37-.26,0,.45-.37,1.02-1.7-.07-2.66.19-.64.16-1.89,1.26-2.75,1.67-1.22.59-2.1-.29-2.08,1.22.37.14.36.28,0,.45-.8.34-1.52.35-2.37.39-1.6.06-3.78.55-5.56.94-.76-.47-1.14-.98-.45-1.77,1.07-.32,1.58-.82.88-1.77-.4-.57-.2-.55.45-.45.28.02.6,0,.88,0,.5.05.93-.13,1.32-.45.12-.48.26-1.75.88-1.77.25.42.4.69.88.88.85.55,1.46,1.15,2.62.87-.08-.63.37-1.24.46-1.75.2-.18.2-.32,0-.45.07-.25-.06-.62,0-.88.2-.18.2-.32,0-.45.06-.21.32-.3.45-.45l.45-.45v.02Z"/>
  <path class="cls-23" d="M32.54,71.84h-.45v-.45c.2.02.37.25.45.45Z"/>
  <path class="cls-23" d="M31.67,71.39l.45.45c.68.15,1.12.45,1.32.88.95.46.34,2.27-.88,1.77.04,1.28-.41,2.01-1.32,2.2-.2-.08-.61.07-.88,0,.32-1.99-1.03-4.8,1.32-5.29h-.01Z"/>
  <path class="cls-23" d="M15.8,88.58c2.72-2,2.17-1.16,5.08-.25.34.11,1.07-.36,1.55-.02.57.41.68,2.78.87,2.9.26.19,5.89-2.37,1.76,2.2-.43-.97-.59-.97-.45,0,.07.83-1.03,1.58-.88,1.76.05.06,1.02.13,1.46.43.76.52-.33,1.11,1.18.45.43.04.66-.06.88-.45.47-.33.62-.66.88-.88l.45-.45c.5,0,.66.54.88.88l.45.45c-.35,1.28-1.94,1.59-2.65,2.2q-.3-.16,0,0c-.09.08-.12,1.19-.67,1.32-1.1.25-1.45-1.69-1.55-1.76-.13-.09-1.09.69-1.63.8-.96.19-1.99-.06-2.78.09-.14-.63-.43-.48-.88.45-.33.23-.74,1.3-1.31,1.55-2.25.94-.77-2.72-.89-2.87-.68.21-1.66,1.49-2.39,1.3-.45-.12-.54-.96-.82-1.16-.97-.7-3.58-1.39-.75-2.34h.88c.67.52,1.26,1.83,2.4,1.79.32,0,.13-1.04,1.57-1.36.81.34,1.1.34.88,0-.29-1.82-.68-1.96-.88-2.65-.37-.2-.82-.35-1.32-.45-.12-.36.04-1.24,0-1.77-.62-.47-1.05-.91-1.32-1.32-.22-.34-.34-.62,0-.88v.02Z"/>
  <path class="cls-23" d="M31.22,134.87c-.47-.04-1.08-1.7-1.76-2-.54-.23-2.28,1.48-2.65.01-.33-1.32,1.67-2.13,1.66-2.64,0-.27-.88-.81-.78-1.31.09-.46,1.69-.9,1.73-1.34.04-.4-2.21-2.67.48-2.87.07.26-.08.74,0,.88.16.45.49.45.88.45,3.05-.19,1.91,2.52,3.71,2.61.2,0,2.78-.33,2.9-.41.09-.07-.71-1.72.21-2.2,1.3.64,0,2.38.22,2.65.12.14,3.79-1.01,1.76,1.32-.68-.45-1.9.33-.88.45.09.12.07,2.88-.07,3.02-.13.13-.95.07-1.45.5-.18.15-2.95,3.35-3.08,3.55-.52.78.04,1.3-1.12,2.18q-.3-.16,0,0c-2.9,2.2.01-2.19,0-2.42,0-.08-.9-.6-1.32-1.11l-.45-.45c-.06-.11.04-.3,0-.45.54-.34.54-.49,0-.45v.02Z"/>
  <path class="cls-23" d="M92.93,68.31c.89.46,2.07.86,1.77,0,.18-.02.9-1.02,1.56-.01s-.21,1.69-.23,2.23v.88c0,2.78,1.41,2.34,3.08,3.97v.45c.39.13.37.27,0,.45-.11.37-.26.36-.45,0l-1.77,1.32c.23,1.05-2.18,1.56-2.2.45l.45-2.2h-2.65v-1.32c-.11-.5.94-.46,1.05-.25.23.43-1.17-.09-1.05-.63-.22-.11-.35-1.25-.45-1.32-.4-.28-2.16,1.43-3.06.87-.32-1.41-1.18-4.79.73-5.24.88-.2,1.35.74,2.12.82.49.05.89-.4,1.1-.41v-.04Z"/>
  <path class="cls-23" d="M87.19,64.78v.88s.49.12.26.42c-.18.22-2.49,2.26-2.67,2.21-1.7-.41-.05-2.95-.67-3.97h0c-.07-.12-.32-.35-.45-.45-.53,0-.68-.28-.45-.88-.08-.41.26-1.21-.22-1.32-.88.96-4.29,3.63-3.77.68.08-.46,1.49-.34,1.35-1.34-.18-1.24-1.41.27-2.21.05-1.64-.45-1.37-1.94-1.32-3.36,1.62.42,3.91-.59,5.29-.26,2.03.48,5.05,3.7,5.25,5.77.05.5-.36,1.07-.4,1.55h.01Z"/>
  <path class="cls-23" d="M114.08,84.61c-.18-.2-.32-.2-.45,0-.3,0-.9.16-.89-.22-.22-.98,1.31-2.33.81-3.22-.06-.11-1.58-1.5-1.71-1.59-.46-.34-1.25-.18-1.94-.7-.26-.2-1.53-2.07-1.58-2.44-.16-1.22.75-1.85.75-2.18,0-.45-1.7-1.73.16-2.65,1.72-.84,4.3,1.16,3.9,2.53-.13.45-.85.84-.77,1.37.05.32,2.24,2.69,2.52,3.71s.33,4.99-.8,5.39h0Z"/>
  <path class="cls-23" d="M88.96,45.39c-.11.34.19.21.45,0,1.99-1.09,2.3-.94,4.37.05.5.7-.96,2.45-.84,2.6.05.06.91.16,1.32.45.61.62,1.07,1.99,0,2.2-3.16,0-.3-2.87-3.53-3.08-.49.63,2.85,5.01-.15,4.78-.52-.04-2.92-2.26-3.38-2.79-.75-.82-.11-.49,0-.68,1.44.34,1.58.19.45-.45.82-1.35.91-2.47.36-4.11s-3.36.53-2.56-2.49c2.59-.62,5.05.83,3.53,3.53Z"/>
  <path class="cls-5" d="M84.99,8.36v.45q-.81.45,0,0h.45c.48.27,2.46,1.31,2.56,1.43.29.33,0,.95.08,1.22-.26,1.11-1.1,2.21-2.54,3.31.95.25,1.34.6.77,1.53-.39.2-.83.2-1.32,0-.35-.08-.83-.32-1.32-.45-1.6,1.03-2.34.3-2.2-2.2-.84-1.38-1.69-3.2-1.32-4.85l.88-.88c.08-.06.3.06.45,0-.14-.37.07-.54.45-.45,1.11.29,1.94.3,3.08.88h0Z"/>
  <path class="cls-23" d="M113.64,106.22c1.04,1.6,1.22,3.9-.88,2.89-1.36-.66-.29-2.62-1.56-2.46-1.49.19-1.3,2.04-2.64,2.21-.32-.07-1.53-3.42-1.49-3.68.36-1.97,2.76-.53,3.6-.69.28-.06,1.07-2.27,3.1-1.83,1.12,1.04.41,2.06-.16,3.12-.21.15-.21.3,0,.45h.02Z"/>
  <path class="cls-23" d="M82.81,77.11c-.64-.8.02-1.91-.04-2.34-.04-.29-2.12-.66-1.25-3.08.22-.62,3.69-2.27,4.51-2,1.48.48.29,2.69.28,3.71-.01.82.67,1.83.42,2.59-.28.87-2.97,1.17-3.91,1.14h-.01Z"/>
  <path class="cls-23" d="M48.41,9.68v.45c-.2.47-.06,1.21-.88,1.32-.18-.2-.32-.2-.45,0-.47-.2-.78-1.14-1.34-1.53-2.86-2.03-4.1,2.31-4.84,1.52,1.01-2.39-.2-1.51-.67-2.18-.91-1.3,1.51-2.9,2.6-2.71.21.04,1.07,2.23,2.93,1.36-.36-.8-.96-1.44-.89-2.41.09-1.17,3.12,1.66,3.3,1.99.34.57.32,1.55.22,2.19h0Z"/>
  <path class="cls-70" d="M84.11,26.43c1.38-.6,3.22,1.08,3.53,2.65.08.29,0,.94,0,1.32l-.45,1.32c-.05.14.06.34,0,.45-.98,1.23-2.59,1.98-4.11,1.29-1.17-.54-1.77-1.34-.29-1.72.14.01.29-.01.45,0,1.69-.75.81-3.71-1.21-3.88l-.12-.54c-.83.37-3.01.9-2.73-.25.25-1.03,4.04-1.71,4.93-.63h0Z"/>
  <path class="cls-23" d="M108.42,99.24c-.25.37,0,1.21-.07,1.7-2.39.57-1.46-1.34-3.08-2.44.47-2.32,1.09,1.43,1.99.23-1.21-5.11,1.64-2.55,2.87-3.31.52-.33.97-2.52,2.65-1.34,2.11,1.48-1.28,2.76-1.75,3.16s-.68,1-1.21,1.45c-.35.3-1.26.32-1.42.55h.01Z"/>
  <path class="cls-40" d="M61.19,25.55c.63.18,1.07.47,1.32.88.21.43-.22.59-1.32.45.37.49.16.87-.45.88-1.12.5-1.65,1.12-2.2,2.2-.27,1.6.8,1.98,2.24,2.18.49.48-2,1.6-2.24.47-1.75,1.16-3.79-1.64-3.08-3.53-.01-.11-.02-.43,0-.45.68-1.53,2-2.55,3.97-3.08.56-.07,1.18.02,1.77,0h-.01Z"/>
  <path class="cls-23" d="M95.57,5.26c-.55.77-2.19-.34-2.42-.32-.62.05-3.82,4.9-4.6,1.41-.15-.69-1.02-3.56-.9-3.71.06-.08,1.55-.47,1.89-.39.73.19,1.59,1.65,3.27,1.59.67-.02,1.11-.81,1.62-.74.64.08,1.53,1.64,1.16,2.17h0Z"/>
  <path class="cls-23" d="M93.37,37.45c.95-2.04.94-1.29,3.08-.89-1.23-2.76,2.1-1.51,1.31-.46-.07.09-1.12.09-1.26.69-.04.14.33,2.6.4,2.85-.82.35-.82.49,0,.45.02.08.75.49,1.03,1.38.52,1.66.66,3.62-1.48,2.37-.84-.49-.8-2.6-1.36-3.49-.47-.73-1.57-.95-1.98-1.6-.36-.59.26-.78.26-.87.36-.15.36-.29,0-.45v.02Z"/>
  <path class="cls-42" d="M59.87,7.48c.14,0,.3-.02.45,0-.08.77.06.93.45.45.14.02.29-.01.45,0,.34-.15.63.28.88,1.32.04.27,0,.6,0,.88v.45c-.02.15.04.32,0,.45-.35.84-.8,1.57-1.32,2.2-.71.96-1.01.73-.88-.45-.81,1.48-1.15.45-1.32-.88-1.49.55-2.24-1.84-1.77-3.08v-.45c.11-.07.33.07.45,0l.45-.45c.12-.05.3.05.45,0l.45-.45c.13-.02.29.01.45,0,.37.21.67.21.88,0h-.02Z"/>
  <path class="cls-23" d="M24.17,121.2c-1.09-1.1,1.43-1.65,1.76-1.98,1.01-1.02.3-2.99,3.35-1.58,2.03.94.61,4.67-1.36,5.32-1.02-.34.27-2.59-.88-2.62-.15,0-2.23,1.51-2.87.87Z"/>
  <path class="cls-23" d="M40.04,79.33c.35.25.67.55.88.88.6.95,3.87-.6,5.73,2.2.8.19,1.11.32.45.88-.47.04-.96.55-1.93.43-1.31-.15-3.44-1.71-5.12-1.76-.42-.11-.87-.55-1.32-1.32.78.22,1.1,1.67.45,2.2-.46-.14-1.52.07-1.76-.67-.47-1.46,1.1-1.31,1.32-1.53.3-.32-.23-1.17,1.32-1.32h-.01Z"/>
  <path class="cls-41" d="M65.16,83.73c1.35,1.55,2.53,3.46,3.53,5.73.05.13-.05.3,0,.45.54.9,1.14,2.08.88,3.08,1.16,3.22-1.02,1.91-1.32-.45-.57-.55-1.16-1.29-1.77-2.2-.05-.13.05-.32,0-.45-1.25-1.58-2.13-3.2-2.65-4.85-.18-1.05-.04-1.64.45-1.77.33-.28.62-.14.88.45h.01Z"/>
  <path class="cls-23" d="M113.14,86.89c.34.2.71,2.12.32,2.61-.3.37-1.16.25-1.45.53-.37.36-.18,1.75-1.31,2.03-1.38.35-2.85-1.15-2.3-2.55,2.23-.69,3.02.18,2.6-2.68.61.09,1.69-.21,2.14.07h0Z"/>
  <path class="cls-23" d="M34.75,117.24c-.04.35.12.49.45.45.14-.02.29.01.45,0l.88.45c-.61,2.88-3.38,3.89-4.22.47-1.19-4.93,2.83-4.77,2.45-1.36Z"/>
  <path class="cls-23" d="M104.39,82.86c-.01-2.82,4.16-2.44,6.13-2.16.21,1.26.3,2.96-1.22,3.26-1.26.25-1.39-.88-2.69,1.11-.76-.2-2.39-1.28-2.2-2.2h-.01Z"/>
  <path class="cls-23" d="M29.9,100.05c0,.59.15.74.45.45.07.07,1.53-.28.88,1.1-.45.95-2.08.55-2.2.67-.14.13.3,3.01,0,3.97-.23.32-.64.35-.88,0-.36-.54-.32-1.59-.88-1.98-.42-.29-2.2-.28-2.19-.88.02-.98,1.86-.73,2.18-.89.56-.28.82-1.08.89-1.09.54-.18.54-.32,0-.45,0-1.18-.39-2.21,1.07-1.71.49.18.59.76.7.83v-.02Z"/>
  <path class="cls-23" d="M107.03,67.86c-.96.22-.96.37,0,.45,0,.06.57.37.4.98-.96,3.22-6.04-1.64-1.72-2.75.57-.43.57-.59,0-.45-2.08-2.34-.98-1.96.88-2.2l.45-.45c.2-.02.37,0,.43.22-.21.89.43,1.93.4,2.67s-.74,1.1-.84,1.51h.01Z"/>
  <path class="cls-23" d="M102.18,12.33c.23-.01.67-.32,1.32-.88.33-.01,1.38.29,1.77.45.33.36.77.66,1.32.88.52,1.66-1.85.8-2.39.91-1.26.27-1.73,1.22-3.55.86-2.26-.46-1.28-4.11.22-3.31.07.04,1.29,1.03,1.31,1.1h-.01Z"/>
  <path class="cls-58" d="M64.72,25.1c.47-.8,1.29-.15,1.77.45.63.22.6.59.88.88l.45.45c.06.11-.06.32,0,.45l.45.45c.04.12-.01.29,0,.45.19.53-.57.48-.98.32-.06-.02,1.28-.04.98.56.18.15.29.28.45.45.28,1.15-.15,1.3-1.32.45-.4.08-.83-.06-1.32-.45-.12-.06-.33.06-.45,0l-.88-.88c-.13-.05-.3.05-.45,0l-.45-.45c-.21-.08-.62.07-.88,0l-.88-.45c-.28-.04-.6,0-.88,0h-.45c-.06-.48,0-.68.45-.88,1.25-.14,1.98-.2,3.08.48.05.04-1.05-.06,0-.48-1.7-1.58-2.33-4.22.45-1.77h-.01Z"/>
  <path class="cls-23" d="M54.14,82.41c.29-.23.57-.27.88,0,.37.96.68,1.59.88,2.65-1.41,0-1.41.14,0,.45-.68.87-1.01.69-1.73,1.16-.37.25-.42,1.01-.71,1.07-1.32.27-1.56-.76-1.52-1.78l.45-.88c-.01-.74-.66-1.75-.45-2.65.39-.68,1.85-.57,2.2,0h.01Z"/>
  <path class="cls-23" d="M31.67,83.73c-.66-.28-.88-1.94-.88-2.64l3.08-.45c-.01.28.05.6,0,.88-.2.37,1.31.69.45,0,2.05-1.52,3.24,2.44.66,2.65-.27.02-2.51-.34-2.86-.45-.18-.2-.32-.2-.45,0Z"/>
  <path class="cls-23" d="M58.11,123.42c.13-.02.3,0,.45,0,.2.25.49.25.88,0,.8.29,1.08,1.38,1.12,2.19s-.59.7-.69.89c-.19-.15-.19-.29,0-.45q.09-.12,0,0c-.2.09-.2.34,0,.45-.55,1.02-.87.55-.45,1.77q-.09.12,0,0c.22.66,1.63,2.07.22,2.65-.37.15,0-.71-.53-.87-.69-.2-1.19.08-2.14-.43-.39-.21-.8-.54-.2-.9.18.21.33.21.45,0,.25-.26,1.12-1.32,1.15-1.52.19-1.28-1.89-3.09-.71-3.76.18.21.32.21.45,0h.01Z"/>
  <path class="cls-23" d="M102.18,56.41c1.55-1.32,2.01-2,3.98-.22l-.9,3.31c-1.92.42-2.66-1.62-3.96-2.65l.88-.45h0Z"/>
  <path class="cls-23" d="M79.26,75.81l.45.45c.01.29,0,.59,0,.88-1.49.08-4.27.2-5.08-1.3-.67-1.23,2.8-2.3,3.31-3.54-1.19,1.98,1.12,2.46,1.32,3.53h0Z"/>
  <path class="cls-23" d="M107.91,53.76c-.05-.08-.66-.22-.81-.74-.16-.57.08-2.52.41-2.74,2.16-1.44,5.13,5.33.62,4.81-.52-.08-.07-1.03-.22-1.32q.65-.97,0,0h0Z"/>
  <path class="cls-23" d="M103.06,17.17c1.35,2.03-5.38,3.24-5.61,1.11-.2-1.76,5.45-1.37,5.61-1.11Z"/>
  <path class="cls-28" d="M62.52,22.02c.25-.94,1.14.09,1.02.57-.08.33-1.32,0-1.02-.57Z"/>
  <path class="cls-28" d="M63.39,17.17c2.31,1.48,2.06,2.78-.45,3.08-.06.13.06.33,0,.45v.45c.46.6.37,1.15-.45.88h-.45c-.95-.08-1.53-.96-1.77-2.65,0-.28-.06-.68,0-.88.73-.47,1.66-1.01,2.65-1.32.14,0,.3-.02.45,0h.01Z"/>
  <path class="cls-23" d="M89.84,58.61c-.22.54-1.15-.09-1.11-.22.01-.07,1.08.23,1.11.67-.98,4.49-6.86-3.91.22-2.65,1.67.3.89,1.49-.22,2.2Z"/>
  <path class="cls-17" d="M44.89,73.59c1.03,0,3.4,2.12,1.32,2.65-.33.89-.95-.4-.9-.35,1.01.89,2.17,2.75.9,3h-.45c-.47-.68-.55-1.98-1.58-2.6-.91-.55-1.82-.26-2.82-.93.35-.5,1.09-.8,2.2-.88.3-.13.59-.3.88-.45,0,0,.45-.45.45-.45Z"/>
  <path class="cls-23" d="M112.76,19.38q-.12-.09,0,0c-.59.74-2.16,1.45-3.08,1.32-.06.42.05.89,0,1.32l-3.97-1.11c.23-1.46,1.34-2.4,2.82-2.45l1.15,2.23c.07-.49-.2-1.36.07-1.69.28-.35,3.75-1.71,3.46.14-.04.16-.37.14-.43.22h-.01Z"/>
  <path class="cls-17" d="M102.18,81.09c.52.13.95.42,1.32.88.06.02.42.6.88.88.91.56,1.9.59,2.2,2.2.02.13.01.3,0,.45-3.01-.09-3-3.9-6.17-2.21l.45-1.76c.07,0,1.28-.39,1.32-.45h0Z"/>
  <path class="cls-23" d="M112.76,62.58c-.06-.6-.75-1.36.56-1.92,2.26-.97,2.66,3.03,1.89,4.15-.33.47-1.77.59-1.99.4-.16-.14.09-1.07-.01-1.31.13-3.36.63-1.14.37-1.03-.28.12-.57-.06-.81-.29h-.01Z"/>
  <path class="cls-17" d="M25.49,82.86l.36-.57,2.72,1.02.88.88.64,1.03c-.89,1.89-2.13,2.41-3.72,1.62-.28-.35-.3-.49-.45-.88.33-.42.2-.86,0-1.32-.05-.46-.46-.95-.45-1.77h.01Z"/>
  <path class="cls-17" d="M59.42,81.53c1.01.07,1.45.36,1.32.88h.45c.85.54,1.55,1.36,2.2,2.2.42-.13.56.02.45.45,1.52,1.79,1.86,2.92,2.65,4.85-.47-.08-.69-.75-.88-.88-.52-.09-.8-.35-.88-.88-1.3-2.8-3.83-5.54-7.05-6.17-.26-.21-.11-.35.45-.45.4-.84.91-.84,1.32,0h-.02Z"/>
  <path class="cls-23" d="M29.45,84.18c1.1,1.12,2.83,1.45,1.73,3.5-1.89-.61-3.7.57-4.81-.86.49-.46,2.14.09,2.2,0,.21-.3-.5-1.73.87-2.06v-.59h.01Z"/>
  <path class="cls-23" d="M58.54,86.38c.06.39.21.36.45,0,2.06-.71,1.46,2.73,1.1,3.53-.9,1.94-1.9.41-2.41-.88.16-.09.16-.23,0-.45-.18-.8-1.22-2.25.88-2.2h-.01Z"/>
  <path class="cls-23" d="M61.64,128.26q.3.16,0,0c.07-.87-.15-3.81,1.53-3.08,2.06.89-1.17,6.76-1.98,4.16-.18-.56.43-1,.45-1.07h0Z"/>
  <path class="cls-53" d="M73.09,102.25l.62,2.55c-.6,2.6-.75,6.7-.04,9.5l-.59.29c-.13.39-.27.37-.45,0v-8.37c-.61-2.35-.36-4.68,0-7.05-.34-.86-.67-3.54.45-3.53v6.62h0Z"/>
  <path class="cls-45" d="M56.79,8.79c.64.9,1.14,2.24,1.77,3.08,1.08,1.58.76,1.8-.88.88.21,1.65-3.01,1.23-2.2-.45l-.56-.21c.37-1.15.71-2.11,1.01-2.88.14-.14.28-.32.45-.45h.45l-.02.02Z"/>
  <path class="cls-66" d="M68.24,92.55c.35.54.95.94.89,1.76h.43c-.02-.43.05-.89,0-1.32.13-.39.27-.37.45,0,.04.14-.04.3,0,.45l.45.88c.05.27-.01.6,0,.88v.45c-.27.33-.27.62,0,.88.13-.39.27-.37.45,0,.01.29-.01.59,0,.88l.45,1.32c.05.28-.05.6,0,.88.41,1.26.09,2.28-.88.88-.07-.26.07-.63,0-.88l-.45-.88c-.04-.14.04-.3,0-.45l-.45-1.32c-.04-.13.05-.3,0-.45l-.45-.45c-.05-.13.05-.3,0-.45l-.45-.45c-.05-.13.05-.3,0-.45l-.45-.88c-.02-.14,0-.29,0-.45-.18-.3-.27-.57,0-.88v.04Z"/>
  <path class="cls-23" d="M32.54,38.77c-.06.07-.08,1.35-1.1,1.31-1.93-.07,1.15-5.7,2.42-4.39.83.86-.91,2.55-1.32,3.08q-.16-.29,0,0Z"/>
  <path class="cls-17" d="M62.07,22.02c2.13.69,3.01,1.72,2.65,3.08-.55-.21-1.15-.47-1.77-.43l2.2,1.98-.88.22c-.46.36-1.41-.04-1.77-.45-.67.04-1.12-.25-1.32-.88.59-.02,1.18.02,1.77,0-.32-.75-1.16-1.22-1.77-1.76l-.45-.45c-.43,0-1.22.13-1.32-.45.18-.4.61-.54,1.32-.45.69-.63-.16-.36-.34-1.22-.13-.68-.13-1.18-.11-1.86.57.89,1.07,1.84,1.77,2.65h.01Z"/>
  <path class="cls-13" d="M73.09,95.63c-.78.73-.43,2.42-.45,3.53-.13.39-.27.37-.45,0,.02-2.71-.21-5.74,0-8.37l.45-3.53c.75.18.42,1.37.45,1.98.08,2.12,0,4.27,0,6.39Z"/>
  <path class="cls-63" d="M73.54,125.62v1.76c.29,3.08.45,6.2,0,9.25.35.56.3,2.12-.45,2.2-.01-.29.02-.6,0-.88v-2.21c-.52-.48-.6-.95,0-1.32-.2-.12-.19-.26,0-.45-.83-.73-.87-1.51,0-2.2-.36-3.22-.34-6.47,0-9.7.13-.39.27-.37.45,0-.01,1.17,0,2.35,0,3.53v.02Z"/>
  <path class="cls-56" d="M83.23,25.55c.74.2,1.03.49.88.88-1.35-.27-3.77-.42-4.4.88.69.09,1.55-.12,2.2,0,.6.47.16.76-1.32.88-.29,0-.6-.02-.88,0l-.45.45c-.13.04-.29-.01-.45,0-.36.26-.64.42-.88,0-.73-.27-.06-1.19.45-1.77.41-.83.85-1.12,1.32-.88.19-.08.62.07.88,0l.45-.45c.55-.08,1.63-.06,2.2,0h0Z"/>
  <path class="cls-7" d="M46.2,76.24c.14.04.3-.04.45,0,.77.19,1.07.48.88.88.12.11.18.23.45.45l.45.45c.11.06.3-.05.45,0l.45.45c.25.05.6,0,.88,0,.39.22.68.22.88,0h.45c.55-.26.73-.13.45.45,1.19,2.14-2.76,1.87-3.92.4l-.48.48c-.07.68-.5.54-1.32-.45v-.45s.33-.25.22-.47c-.45-1-1.39-1.73-1.56-2.83.27-.5.93.55,1.32.66h-.01Z"/>
  <path class="cls-37" d="M72.21,52.44v1.32c.36.88.36,1.78,0,2.65v.45c.3,1.91.53,3.85,0,5.73-.13.39-.27.37-.45,0v-3.09c-.35-4.1-.34-8.23,0-12.34.13-.39.27-.37.45,0v5.29Z"/>
  <path class="cls-60" d="M99.98,76.68c.27.5-.37,1.11-.88,1.32-1.87,1.28-5.53,3.16-6.61.45-.39-.13-.37-.27,0-.45h.45c.18.2.32.2.45,0,.43.04.89-.02,1.32,0,.16,0,.53.42,1.11.27.66-.18.77-.54,1.09-.7.57-.69,1.17-1.12,1.77-1.32.15.04.33-.05.45,0,.63-.64,1.01-.45.88.45h-.02Z"/>
  <path class="cls-27" d="M71.77,31.72c.85.4.85.93,0,1.32l.45.13c-.2,2.79-.35,5.53-.45,8.25-.13.39-.27.37-.45,0v-4.86c-.46-2.93-.46-5.87,0-8.82-.43-.49-.35-1.71.45-1.32-.02,1.76,0,3.54,0,5.29h0Z"/>
  <path class="cls-17" d="M73.97,104.45c.16-.42.46-.27.88.45-.39.75-.53.21-1.32,0,.26,2.73-.34,5.98-.04,8.63.11.96.83.42.93.86.25,1.09-.76.5-.89.66-.56.56-.69.32-.45-.45v-12.34c.57.63.36,1.31.88,2.2h.01Z"/>
  <path class="cls-11" d="M81.47,85.94c-.05.12.05.3,0,.45l-2.2,3.08c-.06.12.06.32,0,.45l-1.77,3.08c-1.31.28-.83-1.22-.45-2.2-.3-.27-.25-.57,0-.88,0-.14-.02-.29,0-.45l.45-.88c.04-.14-.05-.32,0-.45l.45-.45c.06-.13-.07-.35,0-.45.3-.27.66-.35.88,0l.45.02c.3-1.44,1.49-3.28,2.2-1.35h0Z"/>
  <path class="cls-50" d="M76.17,96.52c0,.29.04.6,0,.88l-.45.88c-.02.14.02.29,0,.45l-.45,1.32c-.02.14.02.3,0,.45l-.45,1.77c-.09.53.07,1.21,0,1.77-.2.18-.2.32,0,.45-.02.16.05.35,0,.45-.4,0-.67-.08-.88-.45v-1.77c.2-.18.2-.32,0-.45,0-.14-.01-.29,0-.45l.45-1.77c.02-.14-.02-.29,0-.45.3-.69.46-1.42.45-2.2.05-.28-.05-.62,0-.88.13-.39.27-.37.45,0,.13-.46.71-.52.88,0Z"/>
  <path class="cls-17" d="M58.1,68.31l-.88.66c2.37.9.46,1.3-.45,2.86l1.76.45c-.52-.04-3.33-.21-3.53-.45-.7-.82.84-1,1.07-1.29.37-.49-.25-2.67,2.01-2.23h.01Z"/>
  <path class="cls-9" d="M58.11,81.53l-.45.45c-.26-.05-.6.04-.88,0-.09.69-.47.57-.88,0-.49.15-1.08.29-1.77.45-.73-.02-1.49.07-2.2,0-.57-.06-1.21.08-1.77,0-.82-.22-.88-.73,0-.88.53-1.11,2.81-1.34,3.08,0,.18.21.32.21.45,0,.94-1.32,3.49-1.35,4.4,0h.01Z"/>
  <path class="cls-46" d="M75.29,29.95c.73-.25.84-.22.45.45-.14.43-.45.88-.88,1.32-.07.11.07.34,0,.45-1.05,1.5-3.79,4.03-2.2.88-.5-.55-.33-.9.45-.88.05-.14-.05-.33,0-.45.45-1.14,1.03-2.03,1.77-2.65.85-.43.93.2.45.88h-.02Z"/>
  <path class="cls-23" d="M101.28,37.91c1.05.75-.68,3.65-2.16,2.59s.87-3.5,2.16-2.59Z"/>
  <path class="cls-74" d="M71.33,11v1.77c1.17-.02,1.09,3.77.88,4.68-1.02.27-1.04,2.41,0,2.52-.12.96-.41,1.94-.88,2.94.36.54.15.74-.45.45v-3.53c-.26-3.35-.36-6.84,0-10.14.13-.39.27-.37.45,0,1.3.09,1.17.84,0,1.32h0Z"/>
  <path class="cls-17" d="M72.21,72.71c.4,2.59.35,5.34,0,7.94.37,1.22.41,2.76,0,3.97-.73-.46-.45-1.67-.45-2.41-.05-3.6.01-7.21,0-10.81.76-.61.87.73.45,1.32h0Z"/>
  <path class="cls-23" d="M30.34,42.74c-.87-2.35,1.25-.47,2.2-.21s2.1-.66,2.65,1.09c-1.73-.9-2.14.19-3.34.43-1.59.34-.89-.56-1.07-.87.11-.18-.05-.32-.45-.45Z"/>
  <path class="cls-61" d="M73.54,115.04c-.15.19,0,4.05,0,4.85-.33.55-.34,1.21,0,1.77v.45h-.45c-.13.39-.27.37-.45,0v-2.2c-.69-.35-.52-.78,0-1.32v-3.97h.45l.45.45h0Z"/>
  <path class="cls-23" d="M26.37,6.15l.45.45s.71-.01.23.45l-1.56.88c-.19-.21-.33-.21-.45,0-.42.32-1.85,1.67-2.2,1.32.32-1.7,1.73-3.22,3.53-3.08h0Z"/>
  <path class="cls-17" d="M71.77,59.49c-.82-.56-.16-1.89-.66-2.67-.22-.35-1.84-.42-1.1-1.3.19-.23,1.14,1.12,1.31.88.01-3.08,0-6.17,0-9.25.13-.35.27-.34.45,0v12.34h0Z"/>
  <path class="cls-30" d="M60.75,13.2c-.18.57-.47,1.16-.88,1.77-.06.27.07.8,0,.88-.07.07-.61-.04-.88,0-.39-.22-.68-.22-.88,0-.14.02-.29,0-.45,0-.78.88-2.42.81-2.2-.45.43-.68,1.17-1.12,2.2-1.32.67-.34,1.41-.78,2.2-1.32.3.11.59.32.88.45Z"/>
  <path class="cls-23" d="M103.51,67.86c.3,2.19-.7,2.4-2.65,2.2-.3-2.19.7-2.4,2.65-2.2Z"/>
  <path class="cls-60" d="M91.61,81.53c.39.13.37.27,0,.45-.29-.02-.59.02-.88,0-.85-.57.21-.89.88-.45Z"/>
  <path class="cls-60" d="M99.09,78.45c-.05.13.04.29,0,.45l-.88.88c.37.13.37.28,0,.45l-1.77,1.32c-.14.02-.3-.04-.45,0l-.88.45h-.45c-.91.33-2.28.18-3.08-.45-.39-.13-.37-.27,0-.45.62-1.01,2-1.48,4.15-1.42,1.19-.66,2.31-1.07,3.34-1.23h.01Z"/>
  <path class="cls-44" d="M63.39,21.58l2.2,2.2c.07.09-.07.34,0,.45l.88.88v.45c-.13-.05-.88-.12-1.77-.45-.37-1.48-1.72-2.03-2.65-3.08h.45c-.09.09.07.46.22.45.48-.04-.01-.64-.22-.45.12-.3.34-.57.45-.88.14-.2.28-.2.45,0,.05.14-.06.34,0,.45h0Z"/>
  <path class="cls-23" d="M111.44,59.05c-2.79-5.4,3.72-.21,1.1.88-1.42.59-.91-.52-1.1-.88q.29-.16,0,0Z"/>
  <path class="cls-23" d="M112.17,27.89c-.25-.34-1.09-.48-1.18-.81l1.1-1.1,1.99,2.86c-1.53,1.72-1.38-.23-1.91-.95Z"/>
  <path class="cls-23" d="M111.88,14.53c-1.16-2.31,2.04-1.92,2.2-1.76.45.45-.32,3.02-1.76,2.2l-.45-.45Z"/>
  <path class="cls-52" d="M59.87,31.72c.09.02.39.04.45,0,.33-.49.62-.63.88-.45l.45.45c.22.27.07.56-.45.88-.12.15-.28.35-.45.45-1.6,1.62-4.86-.08-2.2-.45.37.05,1.76.15,1.77-.22-1.83-.76-2.41-.53-1.77-2.42.32.71.75,1.3,1.32,1.77Z"/>
  <path class="cls-23" d="M37.83,112.83c-.14.09-.21.64-.74.8-.85.25-3.21.45-3.24-1.01,1.34-.07,2.68-.47,3.97-.67.67.04.66.71,0,.88h.01Z"/>
  <path class="cls-23" d="M104.39,5.71c.23-.09.78.19,1.21-.11.28-.19.39-1.02.77-1.22,1.35-.69,1.7,1.43.35,2.12-.35.18-1.84.47-2.33.53-.74.02-.55-.91,0-1.32Z"/>
  <path class="cls-60" d="M87.19,77.56c.14-.01.29,0,.45,0,.3-.14.57-.22.88,0,.43,0,.88-.01,1.32,0,.97.16,1.26.46.88.88l-.49.87c-3.06-.5-4.52.34-6.88,2.17l-.56-.39c-1.43-.11-.35-1.3.7-1.52l1.93-1.57c.12-.06.3.05.45,0l.45-.45c.14-.04.29.02.45,0,.18.21.32.21.45,0h-.01Z"/>
  <path class="cls-23" d="M25.49,82.86c0-.26.27-2.67.66-2.64.5.05.54,1.3.8,1.62s1.09.91,1.63,1.46c-1.67,1.21-1.5-.53-3.08-.45Z"/>
  <path class="cls-23" d="M92.32,7.95c2.92-.16,2.92,2.3,0,2.13-1.02-.52-1.02-1.62,0-2.13Z"/>
  <path class="cls-23" d="M45.32,97.4c-.06-.2-.06-.49,0-.88.6-.66.8-.29,1.32-.45.61.46.9.46.88,0,.08,0,.97-.98,1.32.22.6,2.05-2.49,1.38-3.53,1.1Z"/>
  <path class="cls-36" d="M55.46,12.33c.75.78.21,2.06-.88,2.2-.21.73-.78.86-.88,0-.01-.45,0-.88,0-1.32v-.89c.02-1.58.73-2.48,2.2-3.08,1.09.04-.14,1.19-.33,1.67s-.04,1.29-.11,1.41h-.01Z"/>
  <path class="cls-17" d="M70.89,9.68c.29,3.08,0,6.95,0,10.14-.81-3.27-.43-7.16-.45-10.58.59-.64.77-.37.45.45h0Z"/>
  <path class="cls-11" d="M82.79,81.09c.19.2.35.4.36.61.07.87-3.5,4.59-4.33,5.12-.13.29-.28.28-.45,0v-.45l.45-.45c.06-.12-.06-.32,0-.45l.45-.45c.06-.12-.06-.33,0-.45l1.32-1.77c.07-.11-.07-.34,0-.45.49-.83,1.77-2.62,2.2-1.32v.04Z"/>
  <path class="cls-17" d="M71.33,36.57c-.75-.36-.22-1.53-.54-2.11-.22-.4-1.24-.45-2.11-2.3.74-.62,1.51.76,1.66,1.51,0,.05-.52-.49.09-.63.81-1.31.43-3.62.45-5.29.13-.39.27-.37.45,0-.09,2.93,0,5.89,0,8.82h0Z"/>
  <path class="cls-67" d="M72.65,72.71c-.13.39-.27.37-.45,0-.01-.48.13-1.11-.45-1.32v-.88c.21-.18.21-.32,0-.45v-.45c.21-.18.21-.32,0-.45v-1.32c.21-.18.21-.32,0-.45v-.45c.12-.64.26-1.23.45-1.77.13-.39.27-.37.45,0v7.52Z"/>
  <path class="cls-17" d="M74.86,32.15c-.73,1.04-2.6,2.76-2.65,2.95-.32,1.29.04,4.66,0,6.3-.13.39-.27.37-.45,0v-8.37c-.06-.89.63-.82.88,0,.15.22-.29,1.21.22,1.32l1.99-2.2Z"/>
  <path class="cls-17" d="M55.46,29.07c.09.61.6,1.07,0,2.2,1.48-.8.48.98,3.08,1.32l-.45.88c.95.07,1.79.04,2.65-.43-2.1,2.76-7.13-1.22-5.29-3.97h.01Z"/>
  <path class="cls-72" d="M78.82,25.55c.43.28.29.71-.45,1.32-.16.59-.26,1.19-.45,1.77.34.18.19.47-.45.88-.13.06-.33-.06-.45,0l-1.32.88c-.15-.13-.35-.26-.45-.45-.02-1.1.27-1.84.88-2.2.13-.29.28-.28.45,0l.88-.45q.09-.12,0,0c-.12.61-.32.59-.88.45-.25-.09-.25-.39,0-.88.41-.87,1.44-2.18,2.2-1.32h.02Z"/>
  <path class="cls-23" d="M81.91,66.11c.21,0,.35-.01.43.22.78,3.33-2.8,2.31-2.19,0,.09-.23.22-.22.43-.22.34-.2.77-.2,1.32,0Z"/>
  <path class="cls-23" d="M46.65,110.63c-.11-.01-.64.95-1.31-.22,1.02-2.3,4.74-.55,3.51.66-.46.45-1.62-.42-1.76-.43-.02-.32-.19-.28-.45,0Z"/>
  <path class="cls-17" d="M73.09,131.79c-.57-.21-.42-.84-.45-1.32-.12-2.76,0-5.6,0-8.37h.45v9.7Z"/>
  <path class="cls-18" d="M56.34,20.26c.6.26,1.18.59,1.77.88l.45.45c.12.06.33-.06.45,0l.45.45c.37.16.94.15,1.32.45-.55.52-.61.43-1.32.45-.14,0-.32.04-.45,0l-.45-.45c-.14-.05-.33.05-.45,0l-1.32-.88c-.09-.07-.35.07-.45,0l-.45-.45c-.07-.07.07-.35,0-.45-.71-.21-1.01-.5-.88-.88.13-.23.27-.22.45,0,.28-.18.57-.04.88.45h0Z"/>
  <path class="cls-23" d="M44,106.66c.21-.14.2-.89.89-.7,2.3.61,1.21,2.68-1.03,1.96-.52-.16-1.02-.91-.73-1.25.09-.12.74.09.88,0q.3.16,0,0h-.01Z"/>
  <path class="cls-3" d="M68.69,29.52c.07.08-.07.36,0,.45l.45.45.45.45c.06.11-.06.32,0,.45l.88,1.32c.02.12,0,.3,0,.45-.01.3.18.9-.22.88-.42-.71-1.01-1.18-1.55-1.76l-.88-1.77c-.34.29-.49.02-.45-.45l1.32-.45h0Z"/>
  <path class="cls-17" d="M73.97,136.64h-.45c.01-3.08-.05-6.18,0-9.25.82,2.81.43,6.29.45,9.25Z"/>
  <path class="cls-23" d="M96.89,66.1c-1.15-1.15,2.24-2.79,2.64-1.09.29,1.22-2.41,1.32-2.64,1.09Z"/>
  <path class="cls-17" d="M72.65,106.22c-.45-.14-.37-.53-.45-.88-.73-.69-.85-2.2-.45-3.08.76-.6.43-2.12.45-3.08h.45c-.01,2.34,0,4.71,0,7.05h0Z"/>
  <path class="cls-23" d="M32.98,32.61c1.04,1.41-3.23,1.84-2.64-.89.25-.22,2.55.77,2.64.89Z"/>
  <path class="cls-23" d="M109.24,8.36c-.91,1.35-2.04-1.17-.9-2,.88-.64,1.77.08,1.77.9,0,.26-.75.48-.87.66-.21.18-.21.32,0,.45h0Z"/>
  <path class="cls-23" d="M104.39,74.48c.28-.56.47-1.12.45-1.77l1.75.67c-1.3.27-1.32,1.91-1.72,2.24-.73.6-1.23-.23-1.35-.25.07-.42.49-.7.88-.88h0Z"/>
  <path class="cls-29" d="M77.5,93v.45l-.45.88c-.04.14.05.33,0,.45-.33.64-.63.8-.88.45-.55.05-.66-.42-.45-.88-.33-.26-.26-.56,0-.88,0-.14-.01-.3,0-.45l.45-.45c.04-.14-.04-.3,0-.45l.45-.88c.05-.14-.05-.32,0-.45.13-.39.27-.37.45,0,.05.96.43,1.93.45,2.2h-.01Z"/>
  <path class="cls-17" d="M72.65,65.22h-.45c-.34-.82-.35-1.83,0-2.65.01-1.91,0-3.83,0-5.73,1.01,2.42.45,5.67.45,8.37h0Z"/>
  <path class="cls-23" d="M99.06,57.69c-1.03.76-2.35-.48-2.16-1.72l2.21.22c.61.19,0,1.45-.06,1.5Z"/>
  <path class="cls-17" d="M91.61,81.09v.45c-.37.02-.76.01-.88.45-1.16-.07-2.35.05-3.53,0l.45,1.53-1.34.22c-.52-.18-1.24-.91-1.77-.68-.71.32-1.9,2.24-3.08,2.88-.37-.14-.37-.29,0-.45.48-.83,1.22-1.56,2.2-2.2,1.51-1.69,3.71-2.42,6.61-2.2.19-1.25.91-1.17,1.32,0h.01Z"/>
  <path class="cls-17" d="M94.69,81.98c-.12.43-.5.41-.88.45-.46,1.17-.87,1.17-1.32,0-.11-.01-.47-.41-.88-.45v-.45c1.23-.07,2.33.42,3.08.45Z"/>
  <path class="cls-51" d="M83.67,22.46c.2.14.2.28,0,.45-.13.05-.32-.05-.45,0l-1.77,1.32c-.12.06-.33-.06-.45,0-.81.86-1.55,1.3-2.2,1.32-1.03-.34.11-1.67.88-1.32,0-.49,1.15-1.8,1.77-1.32.11-.07.33.06.45,0l.88-.88s.37-.02.45,0c.63-.28.73-.14.45.45h0Z"/>
  <path class="cls-8" d="M71.33,5.26c1.08.42,1.45,3.94,0,4.4h-.45c-.02-.2-.23-.4-.45-.45v-3.97h.45c.14.02.3-.04.45,0h0Z"/>
  <path class="cls-23" d="M34.75,65.22c.19.2.34.2.45,0,.63.26.3.52.45.88-.36.15-.36.29,0,.45,1,4.1-1.85.21-1.77-1.1-.01-.39.59-.23.89-.22h-.01Z"/>
  <path class="cls-23" d="M103.51,49.79c-.12-.12-.54-2.81,1.1-2.2,1.77.67-.2,3.08-1.1,2.2Z"/>
  <path class="cls-48" d="M101.74,74.48c.14-.2.28-.19.45,0,.9.02.77.53,0,.88-.74.66-1.48,1.1-2.2,1.32-.3-.13-.57-.33-.88-.45v-.45c.14-.37.43-.67.88-.88.11-.06.32.06.45,0l.45-.45c.23-.07.61.05.88,0h-.01Z"/>
  <path class="cls-23" d="M40.47,15.85c.81-.07,1.32.6,1.32,1.32-.2.19-.2.34,0,.45-.61,1.12-1.84-.21-2.65-.88-.09-.56.76-.76,1.32-.88h0Z"/>
  <path class="cls-17" d="M73.09,79.33c-.05,2.34.04,4.71,0,7.05-.55.07-.68.14-.88-.43.15-1.79.3-3.56.45-5.29-.33-.59-.33-1.18,0-1.77.26-.42.41-.27.45.45h-.01Z"/>
  <path class="cls-17" d="M58.54,78.01c.39.13.37.27,0,.45-.3,1.25-3.44,1.19-3.97,0-.39-.13-.37-.27,0-.45,1.96-.16,1.62-.45,3.97,0Z"/>
  <path class="cls-17" d="M63.39,17.17c2.07.4,1.84,1.73,1.76,3.53l-2.2-.43c.75-1.69,1.7-.78,1.76-.88.4-.68-1.07-1.5-1.32-2.2h.01Z"/>
  <path class="cls-35" d="M71.77,26.43c-.57.21-.42.84-.45,1.32h-.45v-4.4l.45-.45c.13-.39.27-.37.45,0-.04,1.17.01,2.35,0,3.53Z"/>
  <path class="cls-65" d="M72.65,74.92c.19.32.28.62,0,.88.46.63.57,1.23,0,1.77.2.12.19.26,0,.45.47.25.42.56,0,.88v1.77c-.13.39-.27.37-.45,0-.04-2.64.08-5.31,0-7.94h.45v2.2h0Z"/>
  <path class="cls-23" d="M43.12,111.07c.39,2.71-3.72,2.89-1.75.67.25-.28,1.53-.9,1.75-.67Z"/>
  <path class="cls-17" d="M82.79,31.72c-.7.76-.19,1.14.55,1.44,1.75.7,2.47,0,3.85-1-.75,1.28-1.79,1.85-3.29,1.79-2.34-.11-3.79-2.49-1.11-2.24Z"/>
  <path class="cls-23" d="M90.73,21.58c.49-.66,2.42.02,2.2,1.09-.33,1.56-3.14.15-2.2-1.09Z"/>
  <path class="cls-23" d="M51.49,129.58c-.28.28-2.45-.01-2.2-1.09.39-1.69,3.21.08,2.2,1.09Z"/>
  <path class="cls-23" d="M98.66,68.76c.28.28-.01,2.45-1.09,2.2-1.69-.39.08-3.21,1.09-2.2Z"/>
  <path class="cls-17" d="M99.98,107.55l-.45,2.41c-.27.89-2.1-.98-1.75-1.52l2.19-.89h0Z"/>
  <path class="cls-17" d="M47.52,79.76c.88-.82,2.3.89,2.65,1.77v.88c-.14-.02-.3.04-.45,0-.74.98-1.48.02-1.77-.88-1.23-.84-1.08-1.19-1.77-2.2.22.26,1.11.27,1.32.45h.01Z"/>
  <path class="cls-23" d="M55.02,127.37c-.37-.06-1.25.21-.88-.66.76-1.75,2.72-2.01,2.2.66-.29.02-.59-.01-.88,0-.18-.2-.33-.2-.45,0Z"/>
  <path class="cls-23" d="M99.94,35.29c.41.54.28,2.21-1.05,1.71-1.71-.64,0-3.09,1.05-1.71Z"/>
  <path class="cls-17" d="M81.91,27.31c2.66.49,2.92,2.78,1.76,4.85-.33.09-.37-.43-.43-.45,1.66-2.41-.16-3.49-2.65-3.53l1.32-.88h0Z"/>
  <path class="cls-23" d="M100.02,73.11c-.41-.54-.28-2.21,1.05-1.71,1.71.64,0,3.09-1.05,1.71Z"/>
  <path class="cls-19" d="M72.21,41.42v1.32c-.2.18-.2.32,0,.45v1.32c-.13.49-.27.93-.45,1.32-.13.39-.27.37-.45,0v-4.4h.89Z"/>
  <path class="cls-17" d="M55.9,9.23c-1.99,1.97-.57,1.28-.93,2.13-.04.07-1.18.37-1.28.95,0-.6-.37-2.08-.26-2.23.16-.2,2.19-.87,2.46-.86Z"/>
  <path class="cls-23" d="M105.71,60.81c.19.19.42,2.33-1.1,1.76-1.89-.7.08-2.76,1.1-1.76Z"/>
  <path class="cls-17" d="M32.1,71.84c-.15-.14-.3-.29-.45-.45.12-.02.32-.01.45,0v.45Z"/>
  <path class="cls-17" d="M32.54,74.48c.28.73,1.16.98.45,1.77-.29.06-.66.41-.88.45h-.45c-.15,0-.35.04-.45,0,.48-.52.26-1.77.53-2.13.19-.23.71-.01.8-.07h0Z"/>
  <path class="cls-17" d="M33.87,72.28c-.21.05-.41.23-.45.45-.61-.28-.82-.43-1.32-.88.14.02.3-.04.45,0,.45.11,1.25.43,1.32.45h0Z"/>
  <path class="cls-17" d="M33.42,72.71c.2.09.8-.11.88,0,.28.35-.46,1.51-.47,1.96,0,.48,1.11-.07.9.68l-2.2-.88c.22-.18.71-.43.77-.55.23-.46.05-.84.11-1.22h.01Z"/>
  <path class="cls-4" d="M55.46,15.41c.26.76-.13,1.02-.88.88-.04.12.02.28,0,.45-.25.39-.25.68,0,.88.04.15-.05.33,0,.45.82,1.78-.35,1.58-.88,0-.07-.22.05-.6,0-.88v-.45c-.01-.14,0-.29,0-.45.11-.96.4-1.41.88-1.32.82-1.03,1.35-.8.88.45Z"/>
  <path class="cls-23" d="M47.97,126.06c1.17,1.17-2.61,3-1.76.67.21-.59,1.5-.93,1.76-.67Z"/>
  <path class="cls-23" d="M35.62,94.76l.45.45c0,1.09-.77,2.9-1.77,1.32v-.45c.28-.84.33-1.55,1.32-1.32Z"/>
  <path class="cls-21" d="M88.08,19.38c-.46,1.17-1.59,1.98-2.65,2.65-.08.06-.29-.04-.45,0-.14.19-.28.19-.45,0-.39-.13-.37-.27,0-.45-.2-.14-.19-.28,0-.45.12-.06.32.06.45,0l.45-.45c.12-.06.33.06.45,0,.54-.57,1.14-1.02,1.77-1.32.13-.39.27-.37.45,0h-.01Z"/>
  <path class="cls-23" d="M33.87,40.1c.55-.75.64-1.05,1.76-.88.4,1.65-.93,1.7-2.2,1.76-.25-.83.32-.71.43-.88q.12.09,0,0h.01Z"/>
  <path class="cls-68" d="M71.77,102.25c.13,1.03.23,2.06.45,3.08h-.45l-.45-.45c-.11-.33.09-.96,0-1.32l-.45-1.32c-.04-.14.04-.3,0-.45-.14-.83.07-.88.88-.88.06.42-.06.9,0,1.32h.01Z"/>
  <path class="cls-23" d="M47.97,99.17c.32.21.32.66,0,1.32l-.45.45s-.26.55-.64.45c-1.39-.94-.23-2.01,1.09-2.21Z"/>
  <path class="cls-23" d="M47.97,100.93v-.45l.45-1.77c1.56.11.7,1.58-.45,2.2h0Z"/>
  <path class="cls-17" d="M59.42,25.55c-.52.7-3.16,1.84-3.44,2.28-.07.12.37.64.28.75-.16.18-.68-.02-.81.06.2-2.17,2.04-2.85,3.97-3.08h0Z"/>
  <path class="cls-17" d="M56.34,73.59c-.28.2-4.47.86-3.08-.43.19-.18,3.08-.84,3.08.43Z"/>
  <path class="cls-23" d="M35.62,108.42c-.45,1.14-1.48,1.48-2.65,1.31-.11-1.55,1.46-1.38,2.65-1.31Z"/>
  <path class="cls-17" d="M59.42,78.01c2.06.61,3.01,2.32,4.85,1.77l-.88.66c2.37,2.58,4.15,5.75,5.28,9.04-.28-.68-1.55-1.76-1.6-1.87-.54-1.07-.14-2.68-1.92-3.86-1.17-1.75-2.65-3.22-4.4-4.4-.14.37-.29.37-.45,0-.82-.46-1.12-.9-.88-1.32Z"/>
  <path class="cls-17" d="M83.22,52.89c.74.74-.76,2-1.76,1.76-.54-1.17,1.17-2.34,1.76-1.76Z"/>
  <path class="cls-23" d="M73.09,79.33l-.45-.45v-.88c.21-.18.21-.32,0-.45v-1.77c.13-.39.27-.37.45,0,.82,2.2.02,2.32,0,3.53h0Z"/>
  <path class="cls-17" d="M89.84,58.61c.04.09.02.34,0,.45-2.33.82-2.55-2.14-1.1-1.77.22.35,1.02,1.07,1.1,1.32Z"/>
  <path class="cls-23" d="M29.02,38.33l.45.88c.06.84-.07,1.25-1.1.88-1.18-.45-.54-2.04.66-1.76Z"/>
  <path class="cls-17" d="M38.72,80.65c.73-.41,1.32.76,1.32,1.32,0,.25-.56.87-.45,1.32-.34.08-.37-.42-.43-.45l-.45-2.2Z"/>
  <path class="cls-23" d="M37.18,83.73c1.08-.23,1.46,1.53.43,1.76s-1.46-1.53-.43-1.76Z"/>
  <path class="cls-32" d="M72.21,85.94c-.09-.27.02-.93,0-1.32-.07-1.31.01-2.66,0-3.97h.45c0,1.66.37,3.97-.45,5.29h0Z"/>
  <path class="cls-23" d="M30.78,45.39c.78.98-2.52,2.37-1.76.22.26-.71,1.53-.49,1.76-.22Z"/>
  <path class="cls-23" d="M32.98,89.47l-.45-.45c.25-2.08,3.03.21,1.09.88-.61.21-.61-.41-.66-.43h.01Z"/>
  <path class="cls-23" d="M103.51,81.98c-.13-.07-1.01,1.04-1.32-.88.15-.18-.4-1.15.66-.88.61.43.75,1.04.67,1.76Z"/>
  <path class="cls-23" d="M49.73,82.41c-.35.27-.59.91-.9,1.11s-.4-.23-.42-.23c-.94-.18-1.08-.47-.45-.88-.06-.25.05-.6,0-.88.15.11,1.66.87,1.77.88Z"/>
  <path class="cls-23" d="M51.94,116.37c-.21.18-.21.32,0,.45.02.08,1,.52-.66.88-1.28-1.01-.8-2.64.66-1.32Z"/>
  <path class="cls-17" d="M62.95,17.17c-.82.55-1.7,2.14-2.65,1.32.37-1.3,1.52-1.32,2.65-1.32Z"/>
  <path class="cls-23" d="M38.72,76.68c.47.15.91-.33,1.11-.3,1.8.18.55,3.28-1.11.3Z"/>
  <path class="cls-23" d="M44.88,118.57c-.83.89-2.2-2.34-.67-1.76.56.21.94,1.46.67,1.76Z"/>
  <path class="cls-17" d="M58.99,86.38s-.07.47.16.73c.21.22.68.12.71.16.97,1.31-2.83,1.26-1.31-.89.15,0,.4-.04.45,0h-.01Z"/>
  <path class="cls-23" d="M27.25,35.69c.47,2.76-3.34.19-.88-.45.35.01.69.12.88.45Z"/>
  <path class="cls-23" d="M56.78,120.77c.33.33.2,1.78-1.1,1.31-1.52-.55.52-1.9,1.1-1.31Z"/>
  <path class="cls-23" d="M37.39,42.3q-.09.12,0,0c.13.14.68.04.43.88-1.36.2-1.96-.4-1.76-1.76.12-.16,1.1.66,1.32.88Z"/>
  <path class="cls-17" d="M112.76,62.58l.87-.67c-.56.84,1.58,2.2-.42,1.99-.35-.77-.3.15-.45-1.32Z"/>
  <path class="cls-57" d="M72.21,65.22c-.02.64.13,1.26-.45,1.77v-4.4h.45c0,.88.04,1.77,0,2.65h0Z"/>
  <path class="cls-23" d="M96.45,21.13c-.33.33-1.78.2-1.31-1.1.55-1.52,1.9.52,1.31,1.1Z"/>
  <path class="cls-23" d="M77.06,66.1c-.33.33-1.78.2-1.31-1.1.55-1.52,1.9.52,1.31,1.1Z"/>
  <path class="cls-17" d="M25.05,106.22c.41.14,1.24-.11,1.77,0-.11.47-.91,1.24-1.32,1.32l-.88-1.1s.43-.22.43-.22Z"/>
  <path class="cls-17" d="M60.31,70.51c-.42,1.16-2.65,1.44-2.2,0h2.2Z"/>
  <path class="cls-17" d="M76.62,52.87c-.73.64-3.35-1.19.22-1.31.13.05-.18,1.26-.22,1.31Z"/>
  <path class="cls-17" d="M68.24,92.55v.88c-.73-.8-1.41-2.08-1.77-3.08,1.26.39,1.31,1.51,1.77,2.2Z"/>
  <path class="cls-23" d="M70,115.92c-.78.84-1.97-1.77-.66-1.76.46,0,.94,1.46.66,1.76Z"/>
  <path class="cls-17" d="M92.04,77.56l.45.45v.45c-.55,1.19-1.22,1.21-1.77,0l-.88-.88c.74.02,1.48-.04,2.2,0h0Z"/>
  <path class="cls-7" d="M53.26,78.01c.18.21.32.21.45,0,.29-.02.59.02.88,0v.45c-.01,1.29-1.65,1.63-2.2.45-.57-.16-.48-.59,0-.88.29-.02.6.02.88,0h0Z"/>
  <path class="cls-23" d="M66.04,120.77c.7.7-.62,2.01-1.32,1.32s.62-2.01,1.32-1.32Z"/>
  <path class="cls-17" d="M87.64,29.07c-.46-1.65-2-2.34-3.53-2.65l-.88-.88c2.08.23,4.12,1.21,4.4,3.53Z"/>
  <path class="cls-43" d="M72.21,90.79c.14-1.1-.45-2.76.45-3.53.46,1.23-.37,2.78-.45,3.53Z"/>
  <path class="cls-23" d="M29.45,113.27c1.01.53.43,2.76-.88,0,.15-.4.63-.29.88,0Z"/>
  <path class="cls-23" d="M36.95,32.6c-.75.67-1.98-.57-1.32-1.32.42-.47,1.79.9,1.32,1.32Z"/>
  <path class="cls-17" d="M94.69,68.31l.45.88c-.91.06-1.91.12-2.2-.88.57-.06,1.18.06,1.77,0h-.01Z"/>
  <path class="cls-26" d="M43.56,74.48c-.62.26-1.16.78-2.2.88-.19-.12-.36-.22-.45-.45-.04-.09,0-.29,0-.45h2.65,0Z"/>
  <path class="cls-23" d="M112.54,99.62c.78,0,.75,1.76,0,1.75s-.75-1.76,0-1.75Z"/>
  <path class="cls-23" d="M90.28,75.36c.13.13.28,1.67-.66,1.31-1.59-.61-.12-2.08.66-1.31Z"/>
  <path class="cls-23" d="M108.13,124.74c.78,0,.75,1.76,0,1.75s-.75-1.76,0-1.75Z"/>
  <path class="cls-23" d="M31.67,124.74c.19-.19.19-.34,0-.45.55-1.98,2.17.47.66.88-.56.15-.49-.14-.66-.43Z"/>
  <path class="cls-23" d="M90.72,14.08c1.21-.27,1.12,1.08.88,1.32s-1.59.33-1.32-.88l.45-.45Z"/>
  <path class="cls-17" d="M57.67,15.85c-.53,1.44-2.06.74-3.08.45.16-.45.42-.75.88-.88,1.63,1.45.91.52,2.2.45h0Z"/>
  <path class="cls-25" d="M60.75,23.35c.64,0,2.18-.49,1.98.89l-1.53-.45c-.15-.14-.3-.29-.45-.45Z"/>
  <path class="cls-2" d="M72.21,47.15h-.88v-.45l.45-.88c.08-.45-.18-1.1.45-1.32v2.65h-.01Z"/>
  <path class="cls-23" d="M94.24,48.47c.95.64,1.01.93.88,2.2-.29.01-.59,0-.88,0,.54-.69.26-1.44,0-2.2Z"/>
  <path class="cls-23" d="M99.09,27.31l.45.45c-.13,1.39-1.73.68-1.32-.88.85-.26.81.37.88.43Z"/>
  <path class="cls-17" d="M93.81,115.92c-.15-.16-.28-1.65.66-1.31,1.36.49-.22,1.78-.66,1.31Z"/>
  <path class="cls-23" d="M25.93,84.61c1.41-.34,1.31,1.71,0,1.32-.32-.91.04-1.05,0-1.32Z"/>
  <path class="cls-17" d="M107.03,67.86c-.04.13,0,.29,0,.45l-2.2.43c.25-.97,1.37-.94,2.2-.88Z"/>
  <path class="cls-17" d="M36.07,71.84c-.19.71-.21,1.01,0,1.76l-1.32-1.32c.27,0,.89-.48,1.32-.45h0Z"/>
  <path class="cls-17" d="M67.8,72.28c.28,1.08-.47.87-1.31,1.32v-1.32h1.31Z"/>
  <path class="cls-17" d="M92.49,73.59c.78.39,1.25-.86,1.32,1.32l-1.32-.43v-.88h0Z"/>
  <path class="cls-39" d="M103.06,74.04l.45.45c.13.05.3-.04.45,0,0,.45-.43.74-1.32.88-.14,0-.32-.02-.45,0,.08-.16-.06-.62,0-.88-.22-.13-.22-.28,0-.45.21-.05.66-.04.88,0Z"/>
  <path class="cls-22" d="M59.42,78.01l.88,1.32c-.6,1.21-2.07.37-1.77-.88v-.45c.27.05.64-.07.88,0h.01Z"/>
  <path class="cls-17" d="M88.96,17.17c.67.6.43,1.32-.45,1.32-.2-1.31-.35-1.76-.45-1.32-.26-.21-.62-.81-.88-.88-.04-1.51.4-2.69,1.32-3.53.53,1.83-.23,3.03.45,4.4Z"/>
  <path class="cls-23" d="M43.12,119.89c.82-1.52,2.32,1.72.22.88-.3-.12-.19-.39-.22-.43.19-.19.19-.34,0-.45Z"/>
  <path class="cls-17" d="M53.7,18.05c.5.93.98,1.48.88,0,.23.57,1.49,1.45,1.77,2.2-.29-.13-.56-.4-.88-.45-.18-.2-.32-.2-.45,0-.13.34.68.61.88.88-1.32-.06-1.85-1.56-2.2-2.65h0Z"/>
  <path class="cls-17" d="M72.21,56.41v-2.65c.73.45.7,2.23,0,2.65Z"/>
  <path class="cls-17" d="M65.16,59.05h-1.32c.33-1.78.81-1.67,1.32,0Z"/>
  <path class="cls-17" d="M62.96,61.69c-.26-.26.36-1.31.66-1.31,1.22,0,0,1.98-.66,1.31Z"/>
  <path class="cls-17" d="M105.71,66.11c.19-1.11,1.55.19,1.32.43-.33.36-1.25,0-1.32,0v-.45h0Z"/>
  <path class="cls-17" d="M49.29,85.06c.25-2.25,2.68.19.45.45l-.45-.45Z"/>
  <path class="cls-17" d="M65.6,69.19c.08.07.83,1.76-.21,1.31-1.18-.49-.62-1.99.21-1.31Z"/>
  <path class="cls-17" d="M96.01,70.51c-.02.29,0,.59,0,.88l-1.77-.66,1.77-.22Z"/>
  <path class="cls-50" d="M76.17,95.2c.4.08.37.23,0,.45-.08.55-.41.8-.88.45-.32-.26-.25-.56,0-.88v-.45c.06-.28.11-.48.45-.45,0,.05.43.12.45.88h-.01Z"/>
  <path class="cls-17" d="M68.62,7.99s-.23.88-.15,1.24l-1.55-1.76c.46.35,1.46.34,1.7.52Z"/>
  <path class="cls-17" d="M103.51,11.44l-1.55,2.19c-.34-.33.37-.88.22-1.31.22-.7.62-.86,1.32-.88Z"/>
  <path class="cls-17" d="M81.02,24.23c-.16,1.11-2.54,1.34-1.32,1.77-.33.15-.76.83-1.32.88.13-.47-.02-.41.45-1.32.7-.42,1.5-.96,2.2-1.32Z"/>
  <rect class="cls-23" x="41.8" y="76.68" width="1.32" height=".88"/>
  <path class="cls-17" d="M47.97,82.41c.07.28.33.59.45.88-.39.07-.89-.04-1.32,0-.16-.28-.26-.61-.45-.88h1.32Z"/>
  <path class="cls-17" d="M81.03,98.28c.26-.26,1.31.36,1.31.66,0,1.22-1.98,0-1.31-.66Z"/>
  <path class="cls-17" d="M77.5,80.64l-1.76-.21c.68-.96,1.36-.86,1.76.21Z"/>
  <path class="cls-17" d="M57.22,40.97c.26-.26,1.31.36,1.31.66,0,1.22-1.98,0-1.31-.66Z"/>
  <path class="cls-73" d="M68.24,28.2c.04.29-.02.59,0,.88-.21-.18-1.32-.07-1.32-.88h1.32Z"/>
  <path class="cls-17" d="M77.94,39.65v.88c-.64.14-.91-.2-1.32-.66l1.32-.21h0Z"/>
  <path class="cls-17" d="M96.89,39.65c.04.14-.04.3,0,.45-1.71,1.25-2.16-.83,0-.45Z"/>
  <path class="cls-23" d="M36.5,63.89h-1.32v-.88c.61-.14,1.17.23,1.32.88Z"/>
  <path class="cls-17" d="M51.93,73.16v.88c-.64.14-.91-.2-1.32-.66l1.32-.21h0Z"/>
  <path class="cls-17" d="M51.49,75.36c.13.12,1.42-1.31,2.2-.88-.56.94-2.82,1.96-2.64,0,.78-.19.28.74.45.88h-.01Z"/>
  <path class="cls-17" d="M46.65,76.24c.35.09.91-.07,1.32,0l-.43.88c-.28-.26-.77-.35-.88-.88h-.01Z"/>
  <path class="cls-17" d="M85.44,78.01c-.8.45-1.16,1.38-1.77,1.92-.21.19-.91-.13-1.12.26-.14.27.33.69.25.9-.73.13-.96-.5-2.2,1.32,1.11-2.14,2.67-3.4,4.85-4.4Z"/>
  <path class="cls-17" d="M74.41,99.6c.12-.9.35-1.65.45-2.2-.02.7.27,1.83-.45,2.2Z"/>
  <path class="cls-23" d="M53.26,110.19c-.15.63-.71,1.01-1.32.88v-.88h1.32Z"/>
  <path class="cls-17" d="M35.62,117.68c.73-.06,1.48.04,2.2,0,.07.49-.39.39-.45.43h-.45c-.15,0-.33.04-.45,0-.33-.09-.74,0-.88-.45h.01Z"/>
  <path class="cls-17" d="M72.65,119.89c-1.42.22-1.1-.86,0-1.32v1.32Z"/>
  <path class="cls-17" d="M104.39,7.03c-.28.04-.6,0-.88,0-.67-.04-.66-.73,0-.88.3-.12.57-.33.88-.45v1.32Z"/>
  <path class="cls-17" d="M106.59,12.76c-1.04.02-1.52.29-1.32-.88.6.22,1.04-.01,1.32.88Z"/>
  <path class="cls-17" d="M54.57,14.53c.37.14.37.29,0,.45-.06.3-.68.97-.88,1.32-.05-.59.01-1.18,0-1.77h.88Z"/>
  <path class="cls-23" d="M88.96,17.17c.06.13.76.33.87.67.32.94-.75.63-1.31,1.1-.37-.11-.36-.26,0-.45l.45-1.32h0Z"/>
  <path class="cls-71" d="M84.56,21.58v.45c.21.13.21.28,0,.45-.13.04-.3-.04-.45,0h-.45c-.5.07-.41-.43-.45-.45l.45-.45c.13-.05.3.04.45,0h.45Z"/>
  <path class="cls-17" d="M82.79,48.47l-1.32-.21c.59-.83.95-.75,1.32.21Z"/>
  <path class="cls-17" d="M71.77,100.93l-.88.88c-.08-.32-.3-.77-.45-1.32l.88.45v-1.32c.04.18.36.62.45,1.32Z"/>
  <path class="cls-17" d="M74.86,102.25l.45-1.77c-.13.67-.39,1.43-.45,1.77Z"/>
  <path class="cls-17" d="M62.07,9.23l-.88-1.32c.25-2.14.73.21.88,1.32Z"/>
  <path class="cls-23" d="M103.51,6.15v.88c-.74-.04-1.02.25-.88-.66-.02-.46.64-.13.88-.22Z"/>
  <path class="cls-17" d="M52.37,85.06c.91.53.49,1.1-.45.88.02-.78.45-.83.45-.88Z"/>
  <path class="cls-23" d="M30.78,36.13c.48.48-.4,1.36-.88.88s.4-1.36.88-.88Z"/>
  <path class="cls-17" d="M46.65,110.63c-.29-1.24,1.05-1.35.88-.22l-.43.22c-.14-.01-.29.02-.45,0Z"/>
  <path class="cls-23" d="M61.19,118.12c.48.48-.4,1.36-.88.88s.4-1.36.88-.88Z"/>
  <path class="cls-17" d="M60.75,27.75c.13-.02.3,0,.45,0-2.1.98-3.08,1.94-1.32,3.97-.73-.14-1.3-1.03-1.32-1.77.46-1.35.73-1.86,2.2-2.2Z"/>
  <path class="cls-17" d="M103.94,28.2c.48.48-.4,1.36-.88.88s.4-1.36.88-.88Z"/>
  <path class="cls-17" d="M37.83,111.95c.71-.11,1.05-.09.89.66-.11.49-.68.09-.89.22v-.88Z"/>
  <path class="cls-17" d="M30.78,126.06c-.08,0-.23.78-1.32.43l.45-.88c.08.14.68.27.88.45Z"/>
  <path class="cls-23" d="M37.39,86.83c.48.48-.4,1.36-.88.88s.4-1.36.88-.88Z"/>
  <path class="cls-17" d="M57.22,119.01c.48.48-.4,1.36-.88.88s.4-1.36.88-.88Z"/>
  <path class="cls-63" d="M73.54,121.65c-.66-.14-.69-1.58,0-1.77v1.77Z"/>
  <path class="cls-17" d="M101.74,120.32c.48.48-.4,1.36-.88.88s.4-1.36.88-.88Z"/>
  <path class="cls-17" d="M35.19,117.68s-.18.67-.88.43c-.21-.6.43-.83.43-.88l.45.45Z"/>
  <path class="cls-17" d="M70.44,108.42c.48.48-.4,1.36-.88.88s.4-1.36.88-.88Z"/>
  <path class="cls-23" d="M56.79,81.98c-.05.25.07.82,0,.88-.29.29-.83-.43-.88-.45-.39-.13-.37-.27,0-.45.28,0,.61-.04.88,0h0Z"/>
  <path class="cls-17" d="M55.9,81.98v.45c-.26-.05-.6.01-.88,0s-.59,0-.88,0c.3-.66,1.18-.43,1.77-.45h-.01Z"/>
  <path class="cls-17" d="M98.21,80.21c-.22.2-1.29,1.24-1.32,1.32h-.45c.13-1.03,1.51-1.09,1.77-1.32h0Z"/>
  <path class="cls-17" d="M40.04,79.33c1.5-.14.6.43.88.88-.83.14-1.03-.05-.88-.88Z"/>
  <path class="cls-17" d="M47.97,100.93c-.09.06-.29-.04-.45,0,.12-.16.35-.29.45-.45v.45Z"/>
  <path class="cls-17" d="M47.97,100.48c.06-.41-.09-.96,0-1.32.07-.29,0-.47.45-.45.19.86-.04,1.12-.45,1.77Z"/>
  <path class="cls-17" d="M48.41,70.96v.45c-2.89-1.46-.15-.41,0-.45Z"/>
  <path class="cls-17" d="M62.95,67.88c.21.16-.77,1.17-1.32.88-.21-.16.77-1.17,1.32-.88Z"/>
  <path class="cls-17" d="M81.91,66.11h-1.32l.26-.4,1.07.4Z"/>
  <path class="cls-17" d="M67.8,64.78c.48.48-.4,1.36-.88.88s.4-1.36.88-.88Z"/>
  <path class="cls-23" d="M92.49,63.46c.48.48-.4,1.36-.88.88s.4-1.36.88-.88Z"/>
  <polygon class="cls-17" points="58.54 64.78 57.67 64.77 58.11 63.46 58.54 63.46 58.54 64.78"/>
  <path class="cls-17" d="M73.97,101.81c.07-.9.41-1.55.45-1.77l-.45,1.77Z"/>
  <path class="cls-17" d="M59.42,123.42c-.53,1.03-1.04,1.34-.88,0,.28.01.7-.07.88,0Z"/>
  <path class="cls-17" d="M69.12,84.63s.16.94-.21.88c-1.21-.69-.29-1.38.21-.88Z"/>
  <path class="cls-17" d="M47.52,96.08c.16,1.34-.35,1.03-.88,0,.21-.06.6,0,.88,0Z"/>
  <path class="cls-17" d="M33.42,51.55c-.93.13-1.01.05-.88-.88l.88.88Z"/>
  <path class="cls-17" d="M75.74,41.85c-.52.5-1.42-.19-.21-.88.39-.06.25.84.21.88Z"/>
  <path class="cls-17" d="M28.13,100.93c.33.05.74-.21.88.22.43,1.26-.81.2-.88.21v-.45h0Z"/>
  <path class="cls-17" d="M102.18,126.94s.16.94-.21.88c-1.21-.69-.29-1.38.21-.88Z"/>
  <path class="cls-17" d="M71.33,103.58c-.08-.3-.29-.71-.45-1.32l.45,1.32Z"/>
  <path class="cls-58" d="M68.69,32.15c-.14-.15-.29-.29-.45-.45-.45-.52-.6-.95-.45-1.32,1.14,1.12.53,1.01.88,1.77h.01Z"/>
  <path class="cls-17" d="M87.19,31.72l.45-1.32c0,.98-.3.94-.45,1.32Z"/>
  <path class="cls-17" d="M70.01,93h-.45c-.08-.8-.59-2.27-.88-3.08.94.75,1.02,2.03,1.32,3.08Z"/>
  <path class="cls-17" d="M100.86,104.47v.43c-1.84.22-1.84-.66,0-.43Z"/>
  <path class="cls-17" d="M49.73,18.49c-.52.5-1.42-.19-.21-.88.39-.06.25.84.21.88Z"/>
  <path class="cls-17" d="M40.47,15.85c-.18.01-1.02.73-1.32.88-.05-.04-.47.05-.43-.22.42-.62,1.02-.74,1.76-.67h0Z"/>
  <path class="cls-17" d="M53.7,89.46c-.52.5-1.42-.19-.21-.88.39-.06.25.84.21.88Z"/>
  <path class="cls-17" d="M75.74,94.32l-.45.45c.02-.48-.14-1.1.45-1.32v.88Z"/>
  <path class="cls-17" d="M27.25,95.63c.13,1.05-.08,1.01-.88.45.13-.06.84-.41.88-.45Z"/>
  <path class="cls-23" d="M96.45,13.2c-.52.5-1.42-.19-.21-.88.39-.06.25.84.21.88Z"/>
  <path class="cls-17" d="M34.3,81.53l.45.43c-2.16.08-.94-.11-.88-.43h.45-.01Z"/>
  <path class="cls-23" d="M99.09,79.33c-.3,1.56-.59.62-.88.88.07-.07-.07-.36,0-.45.29-.39.59-.54.88-.45h0Z"/>
  <path class="cls-17" d="M70.01,98.28c-.08-.3-.3-.86-.45-1.32l.45,1.32Z"/>
  <path class="cls-23" d="M61.19,96.08c-.52.5-1.42-.19-.21-.88.39-.06.25.84.21.88Z"/>
  <path class="cls-17" d="M29.45,113.27c-.16-.08-.62.06-.88,0-.01-.02-.52.06-.45-.43.52.01,1.29-.25,1.32.43Z"/>
  <path class="cls-17" d="M52.37,78.01v.88c-.11.39-.26.37-.45,0l-.45-.45c.07,0,.46-.4.88-.45h.01Z"/>
  <path class="cls-23" d="M65.6,89.03c-.09-.07-.6.13-.8-.08-.22-.23-.01-.66-.08-.8l.88.88Z"/>
  <path class="cls-17" d="M71.33,98.73c-.59-.22-.41-.84-.45-1.32.62.22.36.87.45,1.32Z"/>
  <path class="cls-17" d="M76.17,96.52c-.63-.2-.49-.48,0-.88v-.45l.88-.45c-.22.53-.4,1.56-.88,1.77Z"/>
  <path class="cls-17" d="M103.51,75.36c-.29-.02-.59,0-.88,0l1.32-.88h.45c-.21.42-.42.71-.88.88h-.01Z"/>
  <path class="cls-17" d="M75.29,100.05l.45-1.32c-.12.73-.43,1.25-.45,1.32Z"/>
  <path class="cls-17" d="M60.31,73.59c-.93.13-1.01.05-.88-.88l.88.88Z"/>
  <path class="cls-17" d="M84.56,88.15c-.07.05.06.63,0,.88l-.88-.67.88-.22-.45-.88c.5-.33,2.6,1.45,2.2-.45h.45s.35.2.22.43c-.66,1.21-2.21.74-2.44.89h.01Z"/>
  <path class="cls-17" d="M37.83,70.96c-.83.14-1.03-.05-.88-.88.55-.07.69.76.88.88Z"/>
  <path class="cls-17" d="M70.89,96.52h-.45c-.35-.21-.23-.62,0-.88v-.45c.59.22.41.84.45,1.32Z"/>
  <path class="cls-17" d="M30.34,100.48l-.22.43c-1.05.11-.62-.15-.21-.88.18.11.29.3.45.45h-.01Z"/>
  <path class="cls-23" d="M35.18,100.05c.5.52-.19,1.42-.88.21-.06-.39.84-.25.88-.21Z"/>
  <path class="cls-17" d="M53.26,64.34c-.93.13-1.01.05-.88-.88l.88.88Z"/>
  <path class="cls-17" d="M83.67,63.89c-.12-.08-.62.06-.88,0l.43-.88c.05.27.35.6.45.88Z"/>
  <path class="cls-17" d="M75.29,96.08c.39.13.37.27,0,.45h-.45c.08-.43-.19-1.1.45-1.32v.88Z"/>
  <path class="cls-17" d="M70.89,59.49c-.93.13-1.01.05-.88-.88l.88.88Z"/>
  <path class="cls-17" d="M59.87,7.48l-.22.43-.66-.43c.28-.02.6-.01.88,0Z"/>
  <path class="cls-17" d="M60.75,7.91l-.43.45v-.88c.29.05.41.43.43.45h0Z"/>
  <path class="cls-17" d="M34.75,7.91c.22-.07.9-.14.89.22.02.36-.66.29-.89.22-.28-.13-.27-.28,0-.45Z"/>
  <path class="cls-17" d="M48.41,10.11l-.43-.22c.07-.29.43-.2.43-.22.36.26.06.3,0,.45Z"/>
  <path class="cls-17" d="M59.87,14.96c.21-1.03.29-.77.88-1.77.43-.74.59-1.65,1.32-2.2-.43,1.66-1.11,2.67-2.2,3.97Z"/>
  <path class="cls-5" d="M88.52,12.76c-1.16.22-1.23,0-.45-.88h.45c.04.28,0,.6,0,.88Z"/>
  <path class="cls-17" d="M69.57,13.2c.3.15-.26.75-.88.43-.3-.15.26-.75.88-.43Z"/>
  <path class="cls-17" d="M58.99,15.85c-.28.05-.61-.05-.88,0l.22-.43.66.43Z"/>
  <path class="cls-17" d="M54.57,17.61l-.43-.22.43-.66c-.04.23-.05.67,0,.88Z"/>
  <path class="cls-17" d="M85.44,22.02c.89-.6,1.9-1.97,2.65-2.65-.36-.55-.15-.77.45-.45-.29,1.52-1.75,2.49-3.08,3.08h-.01Z"/>
  <path class="cls-17" d="M58.11,22.46c-.67-.29-.83-.54-1.32-.88.64.01,1.14.25,1.32.88Z"/>
  <path class="cls-17" d="M81.47,24.23c.34-.76,1.07-1.03,1.77-1.32-.32.81-1.09.97-1.77,1.32Z"/>
  <path class="cls-17" d="M99.54,27.75h-.88l.45-.45c.15.12.48,0,.45.45h-.01Z"/>
  <path class="cls-17" d="M62.95,28.2c-.62-.16-.83-.43-.88-.45l.88.45Z"/>
  <path class="cls-17" d="M78.82,28.63c-.32.49-.82.66-1.32.88.12-.3.34-.59.45-.88.29-.02.6.04.88,0Z"/>
  <path class="cls-17" d="M67.36,29.95c.13.07.3.3.45.45l.45,1.32c-.71-.75-1.32-1.6-2.2-2.2.28.15.84.16,1.32.45h-.01Z"/>
  <path class="cls-17" d="M61.19,32.6c.14-.19.45-.7.45-.88l-.45-.45c-.26,0-.62.32-.88.45.14-.07.37-.82.67-.88,1.32.19,1.52,1.28.22,1.76h-.01Z"/>
  <path class="cls-17" d="M70.44,32.6l-.88-1.32c.09.2.59.11.88,1.32Z"/>
  <path class="cls-17" d="M84.99,34.81c.3.15-.26.75-.88.43-.3-.15.26-.75.88-.43Z"/>
  <path class="cls-17" d="M27.25,35.69l-.88-.45c.5-.13.8-.07.88.45Z"/>
  <path class="cls-17" d="M93.37,37.45c1.25-.18,1.25.62,0,.45.02-.15-.05-.35,0-.45Z"/>
  <path class="cls-17" d="M29.45,39.22l-.45-.88c.62.14.41.36.45.88Z"/>
  <path class="cls-17" d="M30.78,43.18c-.09-.16-.39-.29-.45-.45.47,0,1.51.3,1.1.87l-.67-.43h.01Z"/>
  <path class="cls-17" d="M81.02,44.07c.3.15-.26.75-.88.43-.3-.15.26-.75.88-.43Z"/>
  <path class="cls-17" d="M89.39,45.39s.19.41-.66.45l-.22-.22c.16-.3.42-.2.43-.22h.45Z"/>
  <path class="cls-17" d="M71.33,46.7v-.88h.45c-.07.35.01.76-.45.88Z"/>
  <path class="cls-17" d="M74.85,48.47c.3.15-.26.75-.88.43-.3-.15.26-.75.88-.43Z"/>
  <path class="cls-17" d="M87.19,48.91c.11-.18.35-.29.45-.45l.88.67-1.31-.22h-.01Z"/>
  <path class="cls-17" d="M84.55,50.68c.3.15-.26.75-.88.43-.3-.15.26-.75.88-.43Z"/>
  <path class="cls-23" d="M107.91,56.4c-.15.3-.75-.26-.43-.88.15-.3.75.26.43.88Z"/>
  <path class="cls-17" d="M102.18,56.41l-.88.45c-.05-.69.76-.34.88-.45Z"/>
  <path class="cls-17" d="M48.41,63.46l-.88.45c.28-.14.39-.39.88-.45Z"/>
  <path class="cls-17" d="M66.04,63.46c.3.15-.26.75-.88.43-.3-.15.26-.75.88-.43Z"/>
  <path class="cls-17" d="M87.19,65.66l-.43-.27.43-.62c-.02.29.05.62,0,.88h0Z"/>
  <path class="cls-17" d="M35.62,66.11c.05.12-.04.29,0,.45-1.25.18-1.25-.62,0-.45Z"/>
  <path class="cls-17" d="M73.09,75.81h-.45v-.88c.4.2.33.57.45.88Z"/>
  <path class="cls-17" d="M102.18,75.36c-.11.2-2.69,2.76-3.08,3.08-.39-.09-.36-.25,0-.45.02-.07.83-1.26.88-1.32.53-.57,1.41-1.15,2.2-1.32h0Z"/>
  <path class="cls-17" d="M79.71,76.24h-.88c-.08-.5.45-.41.45-.45.13.12.43.3.45.45h-.01Z"/>
  <path class="cls-17" d="M88.52,77.56c-.29,0-.59-.02-.88,0l.66-.43.22.43Z"/>
  <path class="cls-17" d="M51.05,78.45l-.22.43-.66-.43c.29,0,.6.01.88,0Z"/>
  <path class="cls-17" d="M79.26,84.61c.34-.67.52-1.44,1.32-1.77-.4.6-.47,1.46-1.32,1.77Z"/>
  <path class="cls-17" d="M55.9,85.06c.06.28.43-.11,0,.45l-1.34.22c-1.79-.28-.02-1.78,1.34-.67Z"/>
  <path class="cls-17" d="M70.44,85.06c.3.15-.26.75-.88.43-.3-.15.26-.75.88-.43Z"/>
  <path class="cls-17" d="M78.82,86.83c.37.14.37.29,0,.45h-.88c.13-.19.16-.41.45-.45h.45-.01Z"/>
  <path class="cls-17" d="M79.26,89.47c.55-1.14.97-2.51,2.2-3.08-.26.75-1.49,2.54-2.2,3.08Z"/>
  <path class="cls-17" d="M77.06,89.47c.05-.37,0-.74.45-.88-.08.34.02.74-.45.88Z"/>
  <path class="cls-17" d="M49.73,89.03c.3.15-.26.75-.88.43-.3-.15.26-.75.88-.43Z"/>
  <path class="cls-17" d="M77.06,90.79h-.45c.11-.3-.05-.75.45-.88-.01.29-.01.6,0,.88Z"/>
  <path class="cls-17" d="M77.5,93c.13-1.11.81-2.53,1.77-3.08-.48,1-.97,2.32-1.77,3.08Z"/>
  <path class="cls-17" d="M76.17,92.11c.15-.56.42-.83.45-.88l-.45.88Z"/>
  <path class="cls-17" d="M70.44,94.32l-.45-.88s.32.16.45.88Z"/>
  <path class="cls-17" d="M77.06,94.32l.45-.88c.01.8-.43.83-.45.88Z"/>
  <path class="cls-17" d="M68.69,94.76c-.02-.07-.3-.2-.45-.88l.45.88Z"/>
  <path class="cls-17" d="M29.9,95.63h-.88l.45-.45c.06.08.46.16.45.45h-.01Z"/>
  <path class="cls-17" d="M34.3,96.52c-.05-.07-.39-.08-.37-.21,0-.13.35-.15.37-.23l.43.22-.43.22Z"/>
  <path class="cls-23" d="M66.47,96.52c.3.15-.26.75-.88.43-.3-.15.26-.75.88-.43Z"/>
  <path class="cls-17" d="M75.74,98.28l.45-.88c-.08.76-.43.83-.45.88Z"/>
  <path class="cls-23" d="M32.54,98.29c.3.15-.26.75-.88.43-.3-.15.26-.75.88-.43Z"/>
  <path class="cls-17" d="M70.44,99.6s-.28-.3-.45-.88l.45.88Z"/>
  <path class="cls-17" d="M84.99,99.17c.3.15-.26.75-.88.43-.3-.15.26-.75.88-.43Z"/>
  <path class="cls-17" d="M84.55,100.05c.3.15-.26.75-.88.43-.3-.15.26-.75.88-.43Z"/>
  <path class="cls-17" d="M29.02,106.22c-.14.42-.19.56-.66.43-.3-.07-.19-.37-.22-.43h.88Z"/>
  <path class="cls-17" d="M105.26,111.52c.3.15-.26.75-.88.43-.3-.15.26-.75.88-.43Z"/>
  <path class="cls-17" d="M70.44,120.77c-.22.34-.63.29-.88,0l.22-.43.66.43Z"/>
  <path class="cls-23" d="M70.44,120.77c-.09.9-1.17.26-.88,0,.07-.06.61.04.88,0Z"/>
  <path class="cls-17" d="M73.54,126.5v-.88l.3.53-.3.35Z"/>
  <path class="cls-17" d="M70.22,71.84c.28.15.28.29,0,.45v-.45Z"/>
  <path class="cls-17" d="M71.77,70.51v-.45l.43.22-.43.22Z"/>
  <path class="cls-17" d="M40.92,70.07c.02-.15-.04-.32,0-.45l.43.22-.43.22Z"/>
  <path class="cls-57" d="M71.77,69.63v-.45l.43.22-.43.22Z"/>
  <path class="cls-17" d="M40.92,68.74c.04-.14-.04-.3,0-.45l.43.22-.43.22Z"/>
  <path class="cls-17" d="M64.93,67.43c.25.28.89.57.45.87-.21-.26-.89-.56-.45-.87Z"/>
  <path class="cls-57" d="M71.77,67.86v-.45l.43.22-.43.22Z"/>
  <path class="cls-17" d="M41.35,67.86c.06-.18.27-.47.45-.45-.12.18-.3.29-.45.45Z"/>
  <path class="cls-17" d="M34.75,65.22c.15,0,.35-.04.45,0l-.22.43s-.22-.43-.22-.43Z"/>
  <path class="cls-23" d="M109.89,64.34c.28.15.28.29,0,.45v-.45Z"/>
  <path class="cls-17" d="M63.17,63.89c.28.15.28.29,0,.45v-.45Z"/>
  <path class="cls-17" d="M106.59,63.89l.45-.45s-.09.4-.45.45Z"/>
  <path class="cls-23" d="M108.13,57.72c.28.15.28.29,0,.45v-.45Z"/>
  <path class="cls-17" d="M63.17,55.09c.28.15.28.29,0,.45v-.45Z"/>
  <path class="cls-17" d="M79.49,47.59c.28.15.28.29,0,.45v-.45Z"/>
  <path class="cls-17" d="M72.21,43.18l-.43-.22.43-.22v.45Z"/>
  <path class="cls-17" d="M72.87,35.69c.28.15.28.29,0,.45v-.45Z"/>
  <path class="cls-17" d="M68.91,34.8c.28.15.28.29,0,.45v-.45Z"/>
  <path class="cls-17" d="M27.92,32.15c.28.15.28.29,0,.45v-.45Z"/>
  <path class="cls-17" d="M78.6,31.72c.28.15.28.29,0,.45v-.45Z"/>
  <path class="cls-17" d="M74.86,31.72c.27-.4.59-1.02.88-1.32.27-.27.96-.68,1.32-.88l-2.2,2.2Z"/>
  <path class="cls-17" d="M64.93,30.84c.25.28.89.57.45.87-.21-.26-.89-.56-.45-.87Z"/>
  <path class="cls-17" d="M69.57,30.83c-.16-.13-.29-.29-.45-.45.12.15.34.26.45.45Z"/>
  <path class="cls-58" d="M69.12,30.4c-.15-.14-.32-.27-.45-.45.14.15.32.28.45.45Z"/>
  <path class="cls-17" d="M65.6,29.52c-.6-.3-.82-.86-.88-.88l.88.88Z"/>
  <path class="cls-17" d="M79.26,28.63l.45-.45s-.12.36-.45.45Z"/>
  <path class="cls-17" d="M64.27,28.63c-.25-.09-.37-.42-.45-.45l.45.45Z"/>
  <path class="cls-17" d="M68.24,27.75l-.45-.45s.35.13.45.45Z"/>
  <path class="cls-17" d="M67.8,26.87l-.45-.45c.14.14.34.28.45.45Z"/>
  <path class="cls-17" d="M80.59,25.98l.45-.45c-.12.01-.29.4-.45.45Z"/>
  <path class="cls-17" d="M66.49,25.1l-.88-.88c.11.16.84.35.88.88Z"/>
  <path class="cls-17" d="M65.6,23.78c-.89-.54-1.69-1.3-2.2-2.2.98.5,1.56,1.36,2.2,2.2Z"/>
  <path class="cls-17" d="M83.67,22.9v-.45h.45c-.11.16-.26.37-.45.45Z"/>
  <path class="cls-17" d="M58.99,22.9c-.21-.05-.37-.25-.45-.45.19.07.34.27.45.45Z"/>
  <path class="cls-17" d="M84.56,22.46v-.45h.45c-.07.2-.23.37-.45.45Z"/>
  <path class="cls-17" d="M59.42,22.02l-.45-.45c.25.13.37.41.45.45Z"/>
  <path class="cls-17" d="M58.54,21.58l-.45-.45c.19.09.32.37.45.45Z"/>
  <path class="cls-17" d="M56.34,21.58c-.22-.18-.28-.28-.45-.45l.45.45Z"/>
  <path class="cls-17" d="M63.39,21.13h-.45c.05-.14-.06-.33,0-.45.16.11.36.26.45.45Z"/>
  <path class="cls-17" d="M41.8,17.61l-.43-.22.43-.22c0,.15.04.37,0,.45Z"/>
  <path class="cls-17" d="M53.7,17.17c-.06-.36,0-.42,0-.45v.45Z"/>
  <path class="cls-17" d="M112.32,14.96c-.15-.09-.36-.28-.45-.45l.45.45Z"/>
  <path class="cls-17" d="M90.28,14.53c.09-.4.05-.35.45-.45l-.45.45Z"/>
  <path class="cls-17" d="M88.52,11.88h-.45v-.45c.05.14.42.32.45.45Z"/>
  <path class="cls-17" d="M36.95,11.44c.21-.21.7.41.22.45-.15,0-.32-.34-.22-.45Z"/>
  <path class="cls-17" d="M47.52,11.44c-.13-.04-.32.05-.45,0l.22-.43s.22.43.22.43Z"/>
  <path class="cls-23" d="M36.95,11.44c-.21.21-.7-.41-.22-.45.15,0,.32.34.22.45Z"/>
  <path class="cls-17" d="M62.07,10.56v-.45c0,.11.07.02,0,.45Z"/>
  <path class="cls-17" d="M85.44,8.79h-.45v-.45c.16.08.29.35.45.45Z"/>
  <path class="cls-17" d="M56.79,8.79h-.45c.14-.12.26-.32.45-.45v.45Z"/>
  <path class="cls-17" d="M109.24,8.36l-.43-.22.43-.22c-.07.09.07.34,0,.45Z"/>
  <path class="cls-17" d="M57.22,8.36c.11-.07.21-.34.45-.45l-.45.45Z"/>
  <path class="cls-23" d="M34.75,8.36c-.15-.05-.35.06-.43-.22,0-.27.29-.18.43-.22v.45Z"/>
  <path class="cls-17" d="M81.91,7.48c-.11.18-.26.37-.45.45-.46-.37,0-.84,0-.88.08.19.25.39.45.45h0Z"/>
  <path class="cls-17" d="M58.11,7.91l.45-.45c-.12.02-.28.39-.45.45Z"/>
  <path class="cls-17" d="M56.79,128.7c.11-.07.37.07.45,0l-.22.43s-.22-.43-.22-.43Z"/>
  <path class="cls-17" d="M84.77,127.37c.28.15.28.29,0,.45v-.45Z"/>
  <path class="cls-23" d="M70.44,126.5c-.13.28-.28.28-.45,0-.28-.13-.28-.28,0-.45.42,0,.37.11.45.45Z"/>
  <path class="cls-23" d="M70.44,126.94l-.22.43c-.27-.27-.61-.45-.67-.88.13-.27.28-.26.45,0,0,0,.45.45.45.45Z"/>
  <path class="cls-17" d="M55.46,127.37c-.14,0-.3.02-.45,0l.22-.43s.22.43.22.43Z"/>
  <path class="cls-17" d="M70.01,126.5h-.45c-.05-.35.11-.45.45-.45v.45Z"/>
  <path class="cls-17" d="M70.44,126.94c-.22.11-.5-.14-.45-.45h.45c.01.08.02.43,0,.45Z"/>
  <path class="cls-17" d="M31.67,124.74c-.04-.06-.02-.36,0-.45l.43.22-.43.22Z"/>
  <path class="cls-17" d="M57.67,123.42c.14-.02.3.02.45,0l-.22.43s-.22-.43-.22-.43Z"/>
  <path class="cls-23" d="M31,121.65c.28.15.28.29,0,.45v-.45Z"/>
  <path class="cls-17" d="M43.12,120.32s-.02-.4,0-.45l.43.22-.43.22Z"/>
  <path class="cls-23" d="M36.95,118.12h.45c-.54.46-.18,0-.45,0Z"/>
  <path class="cls-17" d="M51.94,116.8l-.43-.22.43-.22s-.04.28,0,.45Z"/>
  <path class="cls-17" d="M113.64,106.22c-.06-.08-.41-.09-.41-.21s.36-.13.41-.22v.45h0Z"/>
  <path class="cls-17" d="M71.77,105.34c-.3,0-.36-.19-.45-.45l.45.45Z"/>
  <path class="cls-17" d="M74.86,104.45l-.43-.22.43-.22c-.02.14.02.29,0,.45Z"/>
  <path class="cls-17" d="M73.97,102.7v-.45l.43.22-.43.22Z"/>
  <path class="cls-17" d="M33.2,98.73c.28.15.28.29,0,.45v-.45Z"/>
  <path class="cls-17" d="M45.32,97.4c-.57-.15-.4-.45,0-.88l.43.22-.43.67h0Z"/>
  <path class="cls-17" d="M69.57,96.52s-.36-.2-.45-.45l.45.45Z"/>
  <path class="cls-17" d="M86.97,95.2c.28.15.28.29,0,.45v-.45Z"/>
  <path class="cls-17" d="M69.12,95.63s-.33-.13-.45-.45l.45.45Z"/>
  <path class="cls-17" d="M36.07,95.2l-.45-.45c.32.07.45,0,.45.45Z"/>
  <path class="cls-17" d="M28.13,94.76c.13-.11.07-.54.45-.45l-.45.45Z"/>
  <path class="cls-17" d="M75.74,93c.04-.29.43-.41.45-.45l-.45.45Z"/>
  <path class="cls-17" d="M32.98,89.47c-.09-.06-.5.07-.45-.45l.45.45Z"/>
  <path class="cls-17" d="M57.67,89.03c-.05-.12.04-.29,0-.45l.88.67-.88-.22Z"/>
  <path class="cls-17" d="M77.5,88.15c.11-.32.42-.4.45-.45l-.45.45Z"/>
  <path class="cls-17" d="M78.39,86.38c.04-.25.4-.35.45-.45l-.45.45Z"/>
  <path class="cls-17" d="M78.82,85.5c.12-.25.4-.36.45-.45,0,0-.45.45-.45.45Z"/>
  <path class="cls-23" d="M49.73,85.5c-.33.04-.48-.11-.45-.45l.45.45Z"/>
  <path class="cls-17" d="M114.08,84.61c-.11.04-.29,0-.45,0l.22-.43.22.43Z"/>
  <path class="cls-17" d="M32.1,83.73c-.14-.05-.33.05-.45,0l.22-.43s.22.43.22.43Z"/>
  <path class="cls-17" d="M56.79,82.86c.21-.21.7.41.22.45-.15,0-.32-.34-.22-.45Z"/>
  <path class="cls-17" d="M99.09,79.33l-.88.45c.26-.29.35-.77.88-.88-.04.14.02.3,0,.45h0Z"/>
  <path class="cls-23" d="M46.2,79.33c-.11-.15-.33-.27-.45-.45h.45c.05.15-.06.37,0,.45Z"/>
  <path class="cls-23" d="M92.93,78.01c.14,0,.29-.01.45,0l-.22.43-.22-.43Z"/>
  <path class="cls-17" d="M53.26,78.01c.14-.01.29.01.45,0l-.22.43s-.22-.43-.22-.43Z"/>
  <path class="cls-17" d="M49.29,78.45l-.45-.45c.25.09.4.43.45.45Z"/>
  <path class="cls-23" d="M92.49,78.01l-.45-.45c.43.02.41.43.45.45Z"/>
  <path class="cls-17" d="M86.76,77.56c.14-.02.29.01.45,0l-.22.43-.22-.43Z"/>
  <path class="cls-17" d="M85.87,78.01l.45-.45c-.12.02-.28.39-.45.45Z"/>
  <path class="cls-17" d="M48.41,78.01l-.45-.45c.16.13.32.37.45.45Z"/>
  <path class="cls-23" d="M31.67,76.68h.45c-.46.05-.28,0-.45,0Z"/>
  <path class="cls-17" d="M53.04,76.24c.28.15.28.29,0,.45v-.45Z"/>
  <path class="cls-17" d="M99.09,75.81c.04-.15-.06-.36,0-.45.07-.09.64-.3.88-.45l-.88.88h0Z"/>
  <path class="cls-17" d="M100.42,74.92l.45-.45c-.12.04-.27.36-.45.45Z"/>
  <path class="cls-17" d="M103.51,74.48l-.45-.45c.33.05.41.43.45.45Z"/>
  <path class="cls-17" d="M102.18,74.48h-.45c.06-.21.22-.4.45-.45v.45Z"/>
  <path class="cls-23" d="M44.44,74.04l.45-.45s-.25.35-.45.45Z"/>
  <path class="cls-23" d="M93.81,82.41c.8,2.37,1.22,4.15-1.77,3.53-1.44.39-1.52-1.31,0-1.32.13-.74.18-1.49.45-2.2.39.05.93.04,1.32,0h0Z"/>
  <path class="cls-17" d="M92.04,84.61c-.08.43-.52.76,0,1.32l.22.87-3.31-1.3c1.22-.02,1.75-1.98,3.08-.89h.01Z"/>
  <polygon class="cls-23" points="103.51 86.82 100.86 86.6 103.06 84.63 103.51 86.82"/>
  <path class="cls-17" d="M88.95,86.83s.01,1.1.89.88c.19.76-.69.27-.84.46-.25.29,1.85,2.12-1.79.86-.04-.68,1.18-.75,1.29-.91.06-.08-.95-2.23.47-1.28h-.01Z"/>
  <path class="cls-23" d="M99.97,87.27c.69.64-1.18,1.38-1.76,1.76-.29-.81,1.34-2.16,1.76-1.76Z"/>
  <path class="cls-17" d="M95.95,86.46c.09.08.02.61.18.71.19.12,1.64-.6,1.64.32,0,1.41-2.71-.49-3.08-.22.07-.5.8-1.17,1.26-.8h0Z"/>
  <path class="cls-17" d="M100.42,83.73c.26-.26,1.31.36,1.31.66,0,1.22-1.98,0-1.31-.66Z"/>
  <path class="cls-17" d="M96.45,84.63v.88c-.64.14-.91-.2-1.32-.66l1.32-.21h0Z"/>
  <path class="cls-17" d="M104.39,89.91c-.61.13-1.17-.23-1.32-.88h1.32v.88Z"/>
  <path class="cls-17" d="M99.54,90.8c.81.86-1.69,1.5-2.2,1.31.06-.95,1.02-.48,1.1-.53.22-.15.37-1.55,1.1-.78h0Z"/>
  <path class="cls-17" d="M84.11,89.47c.48.48-.4,1.36-.88.88s.4-1.36.88-.88Z"/>
  <path class="cls-17" d="M93.81,89.47c-.47-.47.39-1.37.88-.88s-.41,1.35-.88.88Z"/>
  <path class="cls-17" d="M85,89.91h.43c.11.81.02,1.29-.66,1.76l.23-1.76h-.01Z"/>
  <path class="cls-17" d="M97.34,89.03s.16.94-.21.88c-1.21-.69-.29-1.38.21-.88Z"/>
  <path class="cls-17" d="M96.01,81.53l-.88.45s.22-.28.88-.45Z"/>
  <path class="cls-17" d="M89.84,82.42c.3.15-.26.75-.88.43-.3-.15.26-.75.88-.43Z"/>
  <path class="cls-17" d="M103.51,88.15c.3.15-.26.75-.88.43-.3-.15.26-.75.88-.43Z"/>
  <path class="cls-17" d="M101.29,88.6c.3.15-.26.75-.88.43-.3-.15.26-.75.88-.43Z"/>
  <path class="cls-17" d="M105.04,85.94c.28.15.28.29,0,.45v-.45Z"/>
  <path class="cls-17" d="M88.29,85.94c.28.15.28.29,0,.45v-.45Z"/>
  <path class="cls-17" d="M95.36,82.86c.28.15.28.29,0,.45v-.45Z"/>
  <path class="cls-23" d="M79.71,2.18c.39.45.83.88,1.32,1.32-1.8,2.03,1.23,3.81-2.65,4.4h-.45c-.64,2.46-1.53,1.19-2.39,1.41-.59.14-.46,1.09-1.01,1.24-.85.23-2.24-.11-3.21.43v-5.73c.26.06.77.6.88.45-.16-.77.23-3.61,0-3.97.29.02.6-.04.88,0,.32-1.48,2.26-1.97,3.08-.88,1.43-.09.54.82.59.76.34-.5.6-1.02.74-1.64,1.85-.2,1.89,1.38,2.2,2.2h.01Z"/>
  <path class="cls-23" d="M71.33,12.76l3.53-.43c-.48,1.41-.02,4.4-1.34,5.07-1.42.71-2.11-.71-1.75,2.42.26.29,3.61-2.45,2.55.57-.54,1.57-2.25.96-2.54,1.22-.13.11,0,.95-.02,1.3h-.45v-10.14h.01Z"/>
  <path class="cls-17" d="M77.94,7.91c-.59.01-1.17,0-1.76,0l.88-.66c-1.69-2.03-1.99-1.05-2.2,1.1-1.09,0-1.91-.53-2.13-1.6-.27-1.34,1.96-.62,2.06-.69.67-.43,1.26-4.4,2.05-.78.23.02.32-1.8,1.1-.88.19.22-.82,1.53,0,1.1.46-.93,1.46-.26,1.76.45.46,1.1-2.06.02-1.32,1.98-.14.02-.29,0-.45,0h.01Z"/>
  <path class="cls-54" d="M81.02,18.5c1.19.75,1.23,1.31.88,2.65.13.54-.74,1.73-1.32,1.32-1.26.06-1.32-.49-.45-1.32-.77-.43-1.66-.74-2.65-.88-.02-.09-.04-.36,0-.45-.02-2.16,2.45-3.38,3.53-1.32h.01Z"/>
  <path class="cls-23" d="M81.47,13.65c.12.2.91.4,1.09.86s-.35,1.22-.21,1.35c.11.11.97-.08,1.32,0-2.13,2.42-4.44-.39-2.2-2.2Z"/>
  <path class="cls-62" d="M77.06,25.55c.36.18.22.61-.45,1.32-.04.46-.18.75-.45.88-.33.97.06,1.93-.88,2.2-.13-.25-.06-.69-.45-.88-.25-.76.05-1.64.88-2.65.06-.12-.06-.33,0-.45l.88-.88c.82-1.04,1.22-.62.45.45h.01Z"/>
  <path class="cls-14" d="M80.59,22.46c.43.54-.71,1.6-1.32,1.32-.12.37-.27.37-.45,0-.67.16-.67-.13,0-.88-.25-.08-.22-.23,0-.45.02-.14-.02-.3,0-.45.52-1.34.95-1.63,1.32-.88.14.45.15.93.45,1.32Z"/>
  <path class="cls-23" d="M82.34,18.93c-.25.62-1,.04-1.32-.45-.12-.04-.3-.35-.69-.41-3.4-.52-1.91.23-2.2,1.31-.06.23-.61.33-.64.42-.71-.09.11-1.56.25-1.73,1.48-1.75,3.64-.98,4.6.86h.01Z"/>
  <path class="cls-23" d="M77.5,20.26c1.67-.46,2.18-.67,2.65.88l-1.32.88c.05-.28.6-.75.45-.88-.19-.15-1.53.18-1.77-.89h0Z"/>
  <path class="cls-38" d="M78.82,23.78c.54.6-.93,2.11-1.77,1.77.06-.3-.19-.54-.45-.45.18-.25.26-.68.45-.88l1.77-1.32v.88Z"/>
  <path class="cls-12" d="M82.34,18.93c.06.11-.05.29,0,.45.21.29.2.57,0,.88-.05.27.07.66,0,.88-.13.23-.28.23-.45,0l-.34-.27c.26-1.16.68-1.3-.54-1.79v-.6c.45.13.91.19,1.31.45h.01Z"/>
  <path class="cls-23" d="M81.47,22.9c-.35.21-1.46,1.04-1.77,1.32-.63.61-.89.34-.45-.45.73-.2.93-.93,1.32-1.32s1.12-.6,1.32-1.32h.45c-.15.47-.9,1.07-.88,1.77h0Z"/>
  <path class="cls-23" d="M73.09,32.15c-.11.33,0,.74-.45.88-.05-.07-.69.05-.88,0v-1.32l1.32.45Z"/>
  <path class="cls-33" d="M88.52,18.5c-.01.14.02.3,0,.45-.16.14-.29.3-.45.45h-.45v-.45c.02-.14-.02-.3,0-.45l.45-.88c.04-.14-.04-.3,0-.45.07-.22-.05-.6,0-.88h.43c-.04.73.07,1.48,0,2.2h.01Z"/>
  <path class="cls-23" d="M86.31,16.28c.27-.87.67-.88.88,0-1.63.83-1.19.22-2.2,0,.43.02.89-.04,1.32,0Z"/>
  <path class="cls-23" d="M74.86,29.07c-.41.87-1.41,1.87-1.77,2.65.87-1.66,1.23-4.18,2.65-5.29-.53,1.02-.6,2.04-.88,2.65h0Z"/>
  <path class="cls-23" d="M85.44,19.81l-1.32-.21c.59-.83.95-.75,1.32.21Z"/>
  <path class="cls-23" d="M87.64,18.5c.14-.68.43-.83.45-.88l-.45.88Z"/>
  <path class="cls-23" d="M82.34,20.26v-.88c.02.11.32.18.33.34.02.34-.32.46-.33.54Z"/>
  <path class="cls-23" d="M75.74,25.98c.18-.37.49-.74.88-.88-.33.46-.85.83-.88.88Z"/>
  <path class="cls-23" d="M78.82,22.9c-.48.42-1.38.89-1.77,1.32l1.77-1.77c-.02.14,0,.29,0,.45Z"/>
  <path class="cls-23" d="M81.91,22.9l.88-.88c-.11.06-.36.59-.88.88Z"/>
  <path class="cls-23" d="M83.23,22.02l.45-.45s-.06.55-.45.45Z"/>
  <path class="cls-23" d="M84.56,21.58h-.45c.11-.18.25-.35.45-.45v.45Z"/>
  <path class="cls-23" d="M84.99,21.13c.07-.04.2-.3.45-.45l-.45.45Z"/>
  <path class="cls-23" d="M87.64,19.38c-.66.36-1.11.95-1.77,1.32l1.77-1.77v.45Z"/>
  <path class="cls-17" d="M80.14,8.79c.13-.59.55-.62.88-.88l-.88.88Z"/>
  <path class="cls-17" d="M44,70.51c.5,2.21-1.39,1.16-2.64.21l2.64-.21Z"/>
  <path class="cls-17" d="M49.29,64.34c-.48,1.21-2.9,2.95-1.97.56.89.6.47-1.03,1.97-.56Z"/>
  <path class="cls-17" d="M45.72,69.69s.29,1.02.49,1.26c-.84.18-1.18-.56-1.76-1.1.04-.41,1.11-.28,1.26-.16h0Z"/>
  <path class="cls-17" d="M47.09,68.31l-.88.88c-.13-.93-.05-1.01.88-.88Z"/>
  <path class="cls-17" d="M36.95,74.05c.3.15-.26.75-.88.43-.3-.15.26-.75.88-.43Z"/>
  <path class="cls-17" d="M38.05,72.28c.28.15.28.29,0,.45v-.45Z"/>
  <path class="cls-17" d="M47.31,69.19c.28.15.28.29,0,.45v-.45Z"/>
  <path class="cls-17" d="M49.07,68.31c.28.15.28.29,0,.45v-.45Z"/>
  <path class="cls-17" d="M45.1,67.86c.28.15.28.29,0,.45v-.45Z"/>
  <path class="cls-17" d="M46.42,67.43c.28.15.28.29,0,.45v-.45Z"/>
  <path class="cls-17" d="M44.22,66.11c.28.15.28.29,0,.45v-.45Z"/>
  <path class="cls-17" d="M49.51,65.66c.28.15.28.29,0,.45v-.45Z"/>
  <path class="cls-17" d="M27.25,97.85c-.34.32-1.29-.23-.88-.43.46-.22,1.11.22.88.43Z"/>
  <path class="cls-17" d="M31.22,127.39c-.27.29-.43,1.42-.66,1.31-1.07-.48-.42-1.45.66-1.31Z"/>
  <path class="cls-17" d="M36.95,130.02c-.55.29-1.53-.7-1.32-.88.55-.29,1.53.7,1.32.88Z"/>
  <path class="cls-17" d="M32.98,128.71c.5.52-.19,1.42-.88.21-.06-.39.84-.25.88-.21Z"/>
  <path class="cls-17" d="M98.66,76.24c-.29,1.07-1.11.98-1.77,1.32.46-.28.8-1.66.91-1.76.13-.11.63.39.85.43Z"/>
  <path class="cls-17" d="M91.6,69.19c-.29.52-1.3,1.71-1.76,1.31-.19-.15,1.19-1.69,1.76-1.31Z"/>
  <path class="cls-17" d="M91.39,70.51c.28.15.28.29,0,.45v-.45Z"/>
  <path class="cls-17" d="M97.11,74.92c.28.15.28.29,0,.45v-.45Z"/>
  <path class="cls-17" d="M83.22,60.37c-1.87.22-1.97-.19-2.2-1.76l2.2,1.76Z"/>
  <path class="cls-17" d="M84.56,60.81c.12.12,1.3.23,1.31.66s-1.97,1.72-1.76-.66c.13-.39.27-.37.45,0Z"/>
  <path class="cls-17" d="M78.37,58.61c.48.48-.4,1.36-.88.88s.4-1.36.88-.88Z"/>
  <path class="cls-17" d="M84.11,64.34c-.35-.29,1.76-1.09,2.2-.88v.43l-2.2.45Z"/>
  <path class="cls-17" d="M79.26,60.37c-.52.5-1.42-.19-.21-.88.39-.06.25.84.21.88Z"/>
  <path class="cls-23" d="M84.56,60.81h-.45c.2-2.13.37-.06.45,0Z"/>
  <path class="cls-17" d="M81.91,61.26c.3.15-.26.75-.88.43-.3-.15.26-.75.88-.43Z"/>
  <polygon class="cls-17" points="111.44 72.71 110.77 74.48 109.24 73.15 111.44 72.71"/>
  <rect class="cls-17" x="110.56" y="76.68" width=".88" height="1.32"/>
  <path class="cls-17" d="M90.72,50.24s.3,1.08.22,1.31c-2-.55-.85-1.94-.22-1.31Z"/>
  <path class="cls-20" d="M84.99,8.79c.54.89-2.61,3.96-2.87,3.96-1.55.01-2.38-6.52,2.87-3.96Z"/>
  <path class="cls-6" d="M88.08,11.88c.11.2.41.78.45.88.02,1.37.07,2.82-1.32,3.53-.22-.06-.6.02-.88,0-.29-.87-1.97-.46-1.71-1.48.47-1.87,2.32-2.14,3.48-3.37.07.04-.06.33,0,.45h-.01Z"/>
  <path class="cls-15" d="M86.3,10.12c.07.06.53,1.67.45,1.76-1.03,1.05-1.92-2.96-.45-1.76Z"/>
  <path class="cls-17" d="M113.19,104.45c-.15.3-.75-.26-.43-.88.15-.3.75.26.43.88Z"/>
  <path class="cls-17" d="M112.32,104.47c-.16.37-1.23,1.48-1.31,1.31-.15-.8.48-1.46,1.31-1.31Z"/>
  <path class="cls-17" d="M113.42,107.55c.28.15.28.29,0,.45v-.45Z"/>
  <path class="cls-17" d="M109.01,107.55c.28.15.28.29,0,.45v-.45Z"/>
  <path class="cls-17" d="M109.01,105.78c.28.15.28.29,0,.45v-.45Z"/>
  <path class="cls-17" d="M85.44,72.27c-.87.12-1.77.29-2.64.23.73-.76,2.1-1.77,2.64-.23Z"/>
  <path class="cls-17" d="M85.87,75.36l-1.76-.21c.68-.96,1.36-.86,1.76.21Z"/>
  <path class="cls-17" d="M82.57,73.59c.28.15.28.29,0,.45v-.45Z"/>
  <path class="cls-17" d="M42.24,7.48c.3.15-.26.75-.88.43-.3-.15.26-.75.88-.43Z"/>
  <path class="cls-17" d="M42.46,8.79c.28.15.28.29,0,.45v-.45Z"/>
  <path class="cls-17" d="M112.1,95.2c.28.15.28.29,0,.45v-.45Z"/>
  <path class="cls-31" d="M64.27,26.87l.21.89-3.3-.89c.06-.02,1.22-.41,1.32-.45.88-.22.9-.34,1.77.45Z"/>
  <path class="cls-75" d="M58.54,11.88c.64.88.5.6,1.32.88-.12,1.24-1.07,2.21-2.2,1.32.07-.34.07-.77,0-1.32.94.11.98.06.88-.88Z"/>
  <path class="cls-17" d="M29.45,118.12c-.09.75-1.72,1.75-2.2,1.31-.84-.76,1.44-1.31,2.2-1.31Z"/>
  <path class="cls-17" d="M42.02,81.53c.28.15.28.29,0,.45v-.45Z"/>
  <path class="cls-10" d="M62.52,81.09l.45.45c.74-.28,1.69,1.11,1.32,1.77.04.06-.08.4.13.76.07.13,2.31.94-.57,1.01-.13-.15-.3-.29-.45-.45-.64-.81-1.37-1.55-2.2-2.2-.13-.05-.3.05-.45,0-.13-.42.02-.56.45-.45.13-.8.42-1.09.88-.88.12-.4.26-.39.45,0h0Z"/>
  <path class="cls-22" d="M65.16,83.73c-.27-.18-.6-.28-.88-.45-.4-.62-.76-1.26-1.32-1.77l-.45-.45c-.14.04-.32-.05-.45,0-.42.12-.56-.02-.45-.45-1.24.39-1.7-.34-.88-1.32,2.1.89,3.78,2.06,4.4,4.4v.02Z"/>
  <path class="cls-17" d="M34.52,119c.28.15.28.29,0,.45v-.45Z"/>
  <polygon class="cls-17" points="109.68 81.1 109.02 83.29 107.91 81.53 109.68 81.1"/>
  <path class="cls-17" d="M107.02,83.73c-.15.3-.75-.26-.43-.88.15-.3.75.26.43.88Z"/>
  <path class="cls-17" d="M59.42,128.26c.21.21-.41.7-.45.22,0-.15.34-.32.45-.22Z"/>
  <path class="cls-17" d="M59.87,126.5c-.41.19-.41-.62,0-.45.02,0,.02.43,0,.45Z"/>
  <path class="cls-17" d="M59.87,126.06c-.21-.21.41-.7.45-.22,0,.15-.34.32-.45.22Z"/>
  <rect class="cls-17" x="76.18" y="74.93" width=".88" height="1.32"/>
  <polygon class="cls-17" points="107.91 53.76 108.36 51.99 109.67 52.89 107.91 53.76"/>
  <path class="cls-17" d="M100.64,17.61c.28.15.28.29,0,.45v-.45Z"/>
  <path class="cls-10" d="M51.94,78.89c.14-.02.29.02.45,0,.73-.11,1.85-.41,2.2-.45.98-.09,3.07-.15,3.97,0,.09.01,1.07.63,1.77.88.14.05.32-.05.45,0,.3.43.56.9.88,1.32.22.4.02.59-.45.45-.25,1.02-.94.94-1.77.45h-1.32c-1.48-.02-2.83-.04-4.4,0-.12.2-.26.19-.45,0-.94.02-2.23.13-3.08,0-1.86-.27-1.7-1.01-2.65-1.77l-.88-2.2c.15-.2,2.56,2.32,4.47,1.98.39-.07.7-.64.81-.67h0Z"/>
  <path class="cls-22" d="M61.19,81.98c-.14.15-.3.28-.45.45-.52-.16-1-.43-1.32-.88.67,0,1.18-.08,1.77-.45.41-.07.41.22,0,.88Z"/>
  <path class="cls-41" d="M61.19,82.41c.68.25,1.07.04,1.11.06.09.05-.14.59-.05.69.36.41,1.08.56,1.14,1.45-.6-.66-1.82-1.16-2.2-2.2h0Z"/>
  <path class="cls-17" d="M61.64,128.26c.34-.32,1.29.23.88.43-.46.22-1.11-.22-.88-.43Z"/>
  <path class="cls-59" d="M55.46,12.33c.68.9,1.98.39,2.2.45.06.01.89.54.89.66-.08.35-.61.35-.89.66-.09.12.02.81-.42,1.11-.61.41-1.34.08-1.78.21-.28-.25-.41-.5-.88-.45.02-.14-.04-.3,0-.45.52-2.42.33-1.25.88-2.2h0Z"/>
  <path class="cls-42" d="M57.44,11.88c.28.15.28.29,0,.45v-.45Z"/>
  <path class="cls-1" d="M70.44,96.52c-.66-.04-.57-.61,0-.88v.88Z"/>
  <path class="cls-17" d="M32.54,38.77c-.21.23-.66-.42-.43-.88.2-.41.76.54.43.88Z"/>
  <path class="cls-24" d="M99.09,78.01c-.05.13.05.3,0,.45-3.35,2.73-3.64,2.11-7.5,2.65-.42.06-.9-.06-1.32,0-2.28.08-5.42.21-6.61,2.2-.96.63-1.7,1.37-2.2,2.2-.05.14.05.32,0,.45-.19.09-.89-.19-1.24.07-.41.3-.74,2.79-.97,3.02-1.22,1.22-.59-1.32-.43-1.76.05-.14-.05-.33,0-.45.8-1.8,3.41-4.27,3.97-5.73.68-.13,2.21-2.24,3.41-2.54s3.21-.15,4.52-.11c.59.02,1.17-.02,1.77,0,.73.02,1.78.64,3.33.45s2.05-1.36,3.29-.89h-.01Z"/>
  <path class="cls-29" d="M76.17,96.52c-.19.08-.62-.06-.88,0v-.45l.88-.45v.88h0Z"/>
  <path class="cls-17" d="M53.26,81.53h.45l-.22.43s-.22-.43-.22-.43Z"/>
  <path class="cls-17" d="M112.76,19.38c-.21.21-.7-.41-.22-.45.15,0,.32.34.22.45Z"/>
  <path class="cls-17" d="M111.44,59.05c-.23-.21.42-.66.88-.43.41.2-.54.76-.88.43Z"/>
  <path class="cls-69" d="M61.64,31.72l-.45-.45c.37.01.43.07.45.45Z"/>
  <path class="cls-17" d="M93.14,9.23c.28.15.28.29,0,.45v-.45Z"/>
  <path class="cls-16" d="M77.5,27.31c.07.08-.04.61,0,.88l-.88-.43s.85-.48.88-.45Z"/>
  <path class="cls-47" d="M76.62,27.75h-.45c.13-.39.3-.59.45-.88-.05.11-.02.84,0,.88Z"/>
  <path class="cls-55" d="M77.5,27.31c-.21-.21.41-.7.45-.22,0,.15-.34.32-.45.22Z"/>
  <path class="cls-17" d="M44,106.66c.34-.32,1.29.23.88.43-.46.22-1.11-.22-.88-.43Z"/>
  <path class="cls-60" d="M90.28,81.09c-2.39.36-4.51,1.02-6.61,2.2.13-.22-.3-1.02.26-1.37,1.42-.88,4.71-1.31,6.36-.83h-.01Z"/>
  <path class="cls-49" d="M79.71,24.23c-.88.82-.49.57-.88,1.32-.46.28-1.93.77-2.2,1.32.18-.36.13-.89.45-1.32.07-.11,1.66-1.7,1.77-1.77.07-.05.28.01.45,0,.05,0,.28.36.45.45h-.02Z"/>
  <path class="cls-17" d="M72.65,78.01v-.45l.43.22-.43.22Z"/>
  <path class="cls-17" d="M91.82,22.02c.28.15.28.29,0,.45v-.45Z"/>
  <path class="cls-17" d="M33.87,40.1c.21-.21.7.41.22.45-.15,0-.32-.34-.22-.45Z"/>
  <path class="cls-17" d="M37.39,42.3c.21.21-.41.7-.45.22,0-.15.34-.32.45-.22Z"/>
  <path class="cls-64" d="M55.46,19.81c-.14-.02-.29.01-.45,0l.22-.43s.22.43.22.43Z"/>
  <path class="cls-11" d="M83.67,83.3c-.49.9-1.34,1.66-2.2,2.2,0-.02-.4-.11-.23-.42.55-1.07,1.62-1.31,2.44-1.78h0Z"/>
  <path class="cls-41" d="M62.07,81.09c-.26.09-.64.63-.88.88v-.88c.15-.09.27-.33.45-.45.13.16.32.28.45.45h-.01Z"/>
  <path class="cls-41" d="M62.95,81.53l-.45-.45c.27.07.32.33.45.45Z"/>
  <path class="cls-22" d="M59.65,79.76c.28.15.28.29,0,.45v-.45Z"/>
  <path class="cls-34" d="M89.84,79.76c-.13.25-.28.23-.45,0-.02-.08-.04-.36,0-.45.35-.23.5,0,.45.45Z"/>
  <path class="cls-34" d="M93.37,79.76l-.45.45c-.11.05-.28-.02-.45,0-.18-.2-.32-.2-.45,0-.28.02-.6.01-.88,0l-.88-.45c-.39-.13-.37-.27,0-.45.95.04,1.91-.04,2.87,0l.22.43h0Z"/>
  <path class="cls-34" d="M90.28,80.21c-.15-.02-.33.04-.45,0-.21-.13-.21-.28,0-.45.11-.37.26-.36.45,0,.39.13.37.27,0,.45Z"/>
  <path class="cls-60" d="M91.16,80.21c-.29-.02-.6.04-.88,0v-.45c.36.06.74,0,.88.45Z"/>
  <path class="cls-60" d="M90.28,79.33v.45c-.14-.02-.29.01-.45,0l-.45-.45c.35-.86.43-.01.88,0h.01Z"/>
  <path class="cls-60" d="M89.84,80.21c-.37-.13-.34-.11-.45-.45h.45v.45Z"/>
  <path class="cls-60" d="M92.93,80.21l.45-.45c.02.49-.22.35-.45.45Z"/>
  <path class="cls-60" d="M92.49,80.21c-.14.02-.29-.01-.45,0l.22-.43.22.43Z"/>
  <path class="cls-60" d="M88.29,78.89c.28.15.28.29,0,.45v-.45Z"/>
</svg>