<?xml version="1.0" encoding="UTF-8"?>
<svg id="Livello_1" data-name="Livello 1" xmlns="http://www.w3.org/2000/svg" viewBox="0 0 141.73 141.73">
  <defs>
    <style>
      .cls-1 {
        fill: #b5afa7;
      }

      .cls-2 {
        fill: #dbd4d2;
      }

      .cls-3 {
        fill: #dad5d2;
      }

      .cls-4 {
        fill: #bcafa7;
      }

      .cls-5 {
        fill: #826d5f;
      }

      .cls-6 {
        fill: #c2b6b0;
      }

      .cls-7 {
        fill: #d7ddda;
      }

      .cls-8 {
        fill: #fefefe;
      }

      .cls-9 {
        fill: #e5e5e1;
      }

      .cls-10 {
        fill: #ddd7d1;
      }

      .cls-11 {
        fill: #c5b9b7;
      }

      .cls-12 {
        fill: #867268;
      }

      .cls-13 {
        fill: #a38e83;
      }

      .cls-14 {
        fill: #afa59e;
      }

      .cls-15 {
        fill: #b8b0a8;
      }

      .cls-16 {
        fill: #dbd6d5;
      }

      .cls-17 {
        fill: #dededa;
      }

      .cls-18 {
        fill: #fff;
      }

      .cls-19 {
        fill: #af897d;
      }

      .cls-20 {
        fill: #a3948a;
      }

      .cls-21 {
        fill: #947a6b;
      }

      .cls-22 {
        fill: #9b786a;
      }

      .cls-23 {
        fill: #9c8a7f;
      }

      .cls-24 {
        fill: #bcb5af;
      }

      .cls-25 {
        fill: #aa9588;
      }

      .cls-26 {
        fill: #ab998e;
      }

      .cls-27 {
        fill: #c5bfb9;
      }

      .cls-28 {
        fill: #fcfdfc;
      }

      .cls-29 {
        fill: #967f72;
      }

      .cls-30 {
        fill: #998174;
      }

      .cls-31 {
        fill: #806155;
      }

      .cls-32 {
        fill: #f0f8f8;
      }

      .cls-33 {
        fill: #dddbd8;
      }

      .cls-34 {
        fill: #cec8c4;
      }

      .cls-35 {
        fill: #995c55;
      }

      .cls-36 {
        fill: #937a6b;
      }

      .cls-37 {
        fill: #9c8577;
      }

      .cls-38 {
        fill: #d8d5cf;
      }

      .cls-39 {
        fill: #937f71;
      }

      .cls-40 {
        fill: #c5b9b2;
      }

      .cls-41 {
        fill: #c3bbb4;
      }

      .cls-42 {
        fill: #b2aaa3;
      }

      .cls-43 {
        fill: #a9a298;
      }

      .cls-44 {
        fill: #a3a297;
      }

      .cls-45 {
        fill: #e9e5e2;
      }

      .cls-46 {
        fill: #cecdc8;
      }

      .cls-47 {
        fill: #d3d6d0;
      }

      .cls-48 {
        fill: #8a6e5e;
      }

      .cls-49 {
        fill: #b19f98;
      }

      .cls-50 {
        fill: #f9fcfc;
      }

      .cls-51 {
        fill: #a69183;
      }

      .cls-52 {
        fill: #927765;
      }

      .cls-53 {
        fill: #d6d1cd;
      }

      .cls-54 {
        fill: #aa9f95;
      }

      .cls-55 {
        fill: #856557;
      }

      .cls-56 {
        fill: #d0c9c6;
      }

      .cls-57 {
        fill: #b4aca4;
      }

      .cls-58 {
        fill: #d0d6d1;
      }

      .cls-59 {
        fill: #9e8778;
      }

      .cls-60 {
        fill: #baaca5;
      }

      .cls-61 {
        fill: #998376;
      }

      .cls-62 {
        fill: #c1b8b3;
      }

      .cls-63 {
        fill: #e4e3df;
      }

      .cls-64 {
        fill: #92887f;
      }

      .cls-65 {
        fill: #b6aea6;
      }

      .cls-66 {
        fill: #907c6f;
      }

      .cls-67 {
        fill: #94928a;
      }

      .cls-68 {
        fill: #ac988e;
      }

      .cls-69 {
        fill: #d2cbc4;
      }

      .cls-70 {
        fill: #c7b7b2;
      }

      .cls-71 {
        fill: #eaf3f1;
      }

      .cls-72 {
        fill: #ae9895;
      }

      .cls-73 {
        fill: #c0b5af;
      }

      .cls-74 {
        fill: #958f85;
      }

      .cls-75 {
        fill: #8f6c5d;
      }

      .cls-76 {
        fill: #a1887c;
      }
    </style>
  </defs>
  <path class="cls-8" d="M68.82,79.61h-.96c-.93-.25-1.41-1.13-1.89-1.89.96.2.96-1.06,0-3.81-.88-1.54-.88-4.29,0-5.7-1.56-.81-.33-4.49.96-4.74-.43-.76-.76-1.34,0-1.89-.28.93-.58,1.24-.96.96-.38.81-.68.83-.96,0,.15-.61.81-1.29.96-1.89-1.69-1.99-1.56-2.22.96-1.89.38-.81.68-.83.96,0v.96l-.96,1.89.96-1.89c.18-.71.33-1.29.96-.96-1.87-1.77-1.56-2.42.96-1.89-2.12,2.45-5.7-2.75-4.74-5.7-2.32-1.16-4.16-5.93-3.81-8.55.15-1.84.48-3.43.96-4.74-1.24-1.29-.61-3.81,1.89-7.59-.83-.73-.13-1.46,2.14-2.22,1.39-2.32,2.87-3.48,4.49-3.48.86-1.71,1.61-1.82,1.89,0-2.12.93-2.02,2.95-2.85,4.74-.05.98-.35,1.61-.96,1.89,1.19,1.54-.33,5.04-1.89,5.7.05,1.11.35,1.74.96,1.89.83-2.37,1.41-2.52,1.89,0,.18,2.67.45,4.97.96,7.59-.91,1.94-2.22.61-1.89-.96h-.96c2.47,1.49,3.88,6.1,2.85,8.55,1.19.86.03,2.02-.96,2.85l5.7-6.63c-1.11,1.77-2.07,2.4-2.85,1.89-1.69.3-2.29-.88-.96-1.89,3.18,2.32,4.64-4.69,4.74-7.59-.81-.45-.86-.78,0-.96,3.25.83.86,6.3-.96,8.55,2.92-3.45,3.23-8.35.96-9.48-1.64.98-2.19.48-.96-.96-1.92-1.19-3.83-2.55-.96-3.81,1.34-.76,3.68-.98,4.74,0l.96-.96c2.24.53,4.16,2.52,4.74,4.74-1.71.53-1.71.86,0,.96,1.51.78.96,3.23.96,4.74-.3,1.41-.61,2.7-.96,3.81-2.82,5.4-3.48,7.59-1.89,6.63.81.53.86.86,0,.96-.63.25-1.29.81-1.89.96-.68.1-1.34.4-1.89.96-1.13,2.85-2.29,4.03-3.48,3.58-.88,2.12-1.94,3.15-3.15,3.08.55,1.34.13,1.87-.96.96l-.96,1.89v.96l-.58,10.24-1.31.2v-.05Z"/>
  <path class="cls-8" d="M84.96,51.17c-.71-.61-.43-1.16,0-1.89.38-.81.68-.83.96,0-.08.81-.03,1.64-.96,1.89Z"/>
  <path class="cls-30" d="M84.02,119.5c-.61-.35-.63-.68,0-.96l.61-2.14c3.93-1.29,5.82-2.27,1.08-3.86-2.42,5.42-5.65,1.59-5.5-2.52-1.54.96-2.04.4-.96-.96-.86-1.97-1.51-4.19-1.89-6.63-.61-.61-.48-1.24,0-1.89-.15-2.6,6.68-3.91,7.59-.96,2.24-.53,2.57-.38,2.85,1.89.18-.68.35-1.24.55-1.24,2.45-.1,5.22,15.1,2.29,17.37-1.46.83-4.82,1.71-6.63,1.89Z"/>
  <path class="cls-21" d="M60.27,117.61c-.98.45-1.87.45-2.85,0l-1.89-1.89-.96-.96c-1.97-.83-2.27-4.72,0-4.74v-.96c.33-1.87,1.26-4.72,2.85-8.55-2.57-2.57,3.25-3.81,3.81-1.89,1.21-.25,2.27-.58,2.42-1.94l1.39,1.94c2.27-1.46,3.23-1.16,2.85.96.38-.83.71-.86.96,0l.96.96c.38-.81.71-.83.96,0,.71.45.81,1.64,0,1.89-.03,1.34-.98,2.04-1.89.96-.78,1.97-2.04,1.34-3.81-1.89-.1,2.19-.43,4.41-.96,6.63.86.81,1.49,1.77,1.89,2.85,4.31,2.22-1.69,8.04-5.7,6.63h-.03Z"/>
  <path class="cls-39" d="M67.86,21.77c.35-.81.68-.81.96,0l.96-1.89,1.54-1.74c1.87,1.64,4.21,2.22,7.01,1.74,1.13-.61,2.57-.33,1.89.96,2.7.61,9.3,7.34,4.74,6.63-1.41-.3-3.53-.83-2.85-1.89-1.08,2.55-1.74,2.55-1.89,0l-.96-.96c-2.12-.2-4.46.08-6.63,0-.63,0-1.26.03-1.89,0l-2.29,1.16c-6.86,7.84-7.64-.5-.55-4.01h-.03Z"/>
  <path class="cls-12" d="M87.8,12.26c-3.88-.08-7.69-.38-11.4-.96-.45.81-.78.86-.96,0-.58.71-1.24.68-1.89,0-5.62-.81-11.42-.81-17.07,0-.35.38-.66.38-.96,0-.18-.4.13-1.31,0-1.89,0-.66.4-.83.96-.96.61.08,1.34-.13,1.89,0,1.24-.5,3.08-.35,5.5.43l23.47.08c6.18-1.84,7.89-.73,5.19,3.3-.61.23-3.76.1-4.74,0Z"/>
  <path class="cls-18" d="M79.26,73.01c-2.4-.86-2.5-2.09,0-2.85-.81-.45-.83-.78,0-.96,2.5,2.17,2.19-1.24,3.03-1.69,5.85-3.2,6.96,10.24-3.03,7.39-.45-.43-.45-1.06,0-1.89Z"/>
  <path class="cls-69" d="M63.72,121.57c1.36.86.88,2.04-.61,2.67-.38.76-.68.76-.96,0-1.74-.48-1.49-1.06,0-1.89l-.96-.96c.13-.28-.1-.68,0-.96l.96-.96c.05-.28,0-.68,0-.96.43-.28.43-.58,0-.96-.63.03-1.26-.05-1.89,0,2.42-.35,5.85-2.87,6.4-5.4.15-.68-.71-1.16-.71-1.24-1.99-1.46.35-8.9,2.85-6.63.83.38.83.71,0,.96v.96c.81.45.86.78,0,.96,1.61,1.94,1.51,2.52-.96,1.89.81.45.83.78,0,.96,1.79,2.55,2.12,4.14.96,4.74.43,1.89,0,2.22-1.89,1.89.25.88-.08,1.21-.96.96l-2.24,3.96Z"/>
  <path class="cls-18" d="M110.55,95.77c4.66,9.33-13.04,2.32-5.45-1.19,2.19-1.01,2.72-1.13,4.51.23l.96.96h-.03Z"/>
  <path class="cls-51" d="M90.65,92.95c-.4.66-.73.68-.96,0-.76-1.41-.33-1.92.96-.96.1.25-.1.66,0,.96Z"/>
  <path class="cls-51" d="M87.78,101.45c-1.41-.38-1.89.13-2.85-1.89-1.44-.43-2.4-1.39-2.85-2.85l.1-1.31c-2.62-4.49,4.82-5.67,6.56-2.47.4-.83.71-.86.96,0,1.06.61,1.94,1.97.96,2.85,0,.3.05.68,0,.96-1.46,1.31-2.4,2.87-2.85,4.74l-.03-.03Z"/>
  <path class="cls-18" d="M86.85,87.3c-.66.35-1.29.05-1.89-.96-.43.83-.73.86-.96,0-.91.1-1.84-.2-2.85-.96-.45.83-.78.86-.96,0-1.49.25-4.49.38-4.74-.96-.83-.35-.83-.68,0-.96l.96-.96c-.83-.33-.83-.66,0-.96.35-.43.66-.43.96,0,1.34.5,6.15-1.49,6.63-.96.13.15-.15,2.45.53,3.76.43.81,1.61,1.99,2.32,2.9v.05Z"/>
  <path class="cls-34" d="M74.57,85.31c-1.34,1.16-1.97,1.16-1.89,0-1.03-.76-1.34-1.39-.96-1.89-.43-.35-.43-.66,0-.96,2.65-1.94,2.32-6.96,2.09-10.16l1.69-1.24c1.36.78,2.62,1.41,3.81,1.89-.03.63.08,1.29,0,1.89s.1,1.34,0,1.89c-.35.48-.68.48-.96,0-.28-.1-.61.53-.96,1.89v1.92l-.96.96c-.13.28.1.68,0,.96l-.96.96c-.13.28.13.73,0,.96.38,1.26-.05,1.82-.96.96l.05-.03Z"/>
  <path class="cls-8" d="M55.56,93.81c-.38.81-.68.83-.96,0,.63-2.7,2.57-5.52,3.81-7.59,1.94-2.42,4.97-4.31,7.59-1.89.88.55,2.6.76,2.85.96l.96.96c.76.76.98,3.35,2.85,3.81.98.5.58-.2,0-.96.05-.61.03-1.29,0-1.89.35-.98.78-1.69,1.89-1.89.25-.38.78-.66.96-.96,1.74.03,3.38.71,4.74.96.86,1.54.63,1.59-.96.96l-2.95,1.46c-.2,4.24-.73,10.39-6.18,6.28.78-2.57-1.94-7.01-3.23-6.78l-1.36,1.89c-3.73-.61-6.13.03-7.19,1.92-.71,3.1-1.66,4.06-2.85,2.85l.03-.08Z"/>
  <path class="cls-8" d="M74.52,67.31c-1.21-1.19-.71-3.33.96-2.85.38-.81.68-.83.96,0,1.61-.2,2.12.48,2.85,1.89.03.33,0,.66,0,.96-.83.66-.83,1.59,0,2.85.05,1.21.08,1.54,0,2.85-2.32,4.14-2.77,1.51-3.81-1.89-.88-1.46-1.19-2.72-.96-3.81Z"/>
  <path class="cls-8" d="M92.52,113.8c-.28,2.22.35,2.52-1.89,3.81,1.79-5.42-.58-10.84-.96-16.14-.61-.1-1.39.15-1.89,0-1.79-2.04,1.19-3.61,2.85-4.74-.13.68-1.61,1.71-1.61,2.37.08,1.94,4.11,5.7,3.53,13.77-.43.28-.43.58,0,.96l-.03-.03Z"/>
  <path class="cls-56" d="M78.27,19.85c-1.94,2.75-6.93-.3-8.55,0-.18-.68.15-1.31.96-1.89-.83-.33-.83-.63,0-.96l.96-1.89c-.83-.38-.86-.71,0-.96l.96-.96c-.68-1.26-.2-1.71.96-.96.55-.66,1.77-.81,1.89,0,.45.38.48.71,0,.96-.98.76-1.61,1.69-1.89,2.85-.08.23,0,.63,0,.96-.48.43-.48,1.08,0,1.89,1.26.1,2.57-.15,3.81,0,.61.05.93.35.96.96h-.05Z"/>
  <path class="cls-2" d="M64.05,30.34c.2,1.08-1.54,5.75-1.89,7.59-.38.81-.68.83-.96,0-2.32.45-2.95-2.82-1.89-4.74-.83-.33-.83-.66,0-.96.05-.3-.08-.66,0-.96.45-.28.45-.58,0-.96.15-.61.81-1.29.96-1.89l.96-.96v-.96c0-.68.38-.83.96-.96-.58-.35-.61-.68,0-.96.35-.53.68-.53.96,0,.48,2.75.15,4.34-.96,4.74l1.89.96-.03.05Z"/>
  <path class="cls-18" d="M58.38,86.29c.83-1.41,1.13-4.03,3.5-4.64,2.87-.73,3.15,2.17,4.08,2.75l-7.59,1.89Z"/>
  <path class="cls-18" d="M83.06,21.75c-.86.2-1.19-.1-.96-.96-.98-.38-1.92-1.01-2.85-1.89-.1-3.81,4.64-3.76,6.25-.88.68,1.21-.55,1.84-.55,1.84.38,3.18-.25,3.81-1.89,1.89Z"/>
  <path class="cls-18" d="M47.01,132.31c-1.21,4.01-7.72-.93-4.72-3.28,1.16-.91,5.65.15,4.72,3.28Z"/>
  <path class="cls-38" d="M57.42,100.54c-.76.68-1.39.05-1.89-1.89-.81-.35-.81-.66,0-.96l-.96-.96c-.1-.71-.15-2.22,0-2.85h.96c1.11,1.54,2.27,2.32,3.48,2.32,5.09-2.85,8.47.68,2.22,2.45-1.13,0-2.34.86-3.78,0-.08.61.08,1.29,0,1.89h-.03Z"/>
  <path class="cls-18" d="M80.21,25.55c.58.1,1.41-.15,1.89,0,1.41,1.03,2.04,1.97,1.89,2.85-2.19,4.19-7.72,1.51-4.74-2.85.35-.43.66-.43.96,0Z"/>
  <path class="cls-2" d="M65.09,51.2c.05,1.36-.25,1.99-.96,1.89-.38.81-.68.83-.96,0,0-.61.08-1.31,0-1.89l-.96-.96c-.08-.3.08-.66,0-.96l-.96-1.89c-.08-.3.08-.68,0-.96l-.96-.96c-.15-.53.13-1.34,0-1.89l-.96-.96c-.23-1.46.15-3.23,0-4.74,1.11.13,1.74,1.08,1.89,2.85v1.89c.81,2.27,2.72,6.1,3.81,8.55l.05.03Z"/>
  <path class="cls-18" d="M70.76,17.94c-.76,1.29-1.71,1.89-2.85,1.89-3.25-6.68,3.05-4.11,3.81-8.55h1.89c.81.38.83.68,0,.96-.43.2-.63.68-.96.96l-.96.96c-.13.25.13.71,0,.96l-.96,1.89c-.13.28.13.71,0,.96l.03-.03Z"/>
  <path class="cls-33" d="M72.6,52.13c.5,1.24-.68,2.6-1.89,1.89l-2.85-8.55c.35-.58.68-.61.96,0,.55.33,1.01,1.06,1.89.96.13.55.81,1.26.96,1.89-.43.28-.43.58,0,.96.08.3-.08.66,0,.96.15.58.73,1.26.96,1.89h-.03Z"/>
  <path class="cls-62" d="M69.78,38.82c-.53-.13-1.64.18-1.89,0-.63-.25-.96-.88-.96-1.89-.28-1.34.18-3.25,0-4.74l1.79.83c.38-.55-.05-1.34.1-1.77.38-.71.68-.73.96,0,0,2.5-.18,5.09,0,7.59v-.03Z"/>
  <path class="cls-18" d="M66.93,58.76c-.08.53-.83,1.31-.96,1.89-5.88-1.79-2.8-3.91-2.85-7.59h.96c.78.33.78.66,0,.96l.96.96c.81.35.81.66,0,.96l1.89,1.89c.76.38.78.71,0,.96v-.03Z"/>
  <path class="cls-35" d="M59.36,11.33c-.71,1.03-2.52,1.16-2.85,0,4.61-1.59,12.61-1.59,17.07,0h-6.63c-1.21,1.84-2.62,1.84-3.81,0h-3.81.03Z"/>
  <path class="cls-18" d="M105.83,134.73c-.76.3-1.29,1.49-2.85.93l1.44-4.74c1.01-.2,3,1.64,3.3,2.37.86,2.02-1.34,1.19-1.89,1.41q-.18-.25,0,0v.03Z"/>
  <path class="cls-8" d="M54.6,109.09c.05-1.89-.13-3.83,0-5.7.05-1.74.25-4.29.96-4.74l1.89,1.89c-.28,2.04-.86,3.81-1.29,5.88s1.41,3.05-1.56,2.65v.03Z"/>
  <path class="cls-8" d="M63.14,74.9l-.96-.96c-.23-.86-.08-3.61,0-4.74.43-.93,1.06-1.56,1.89-1.89,1.51-1.16,1.94-.61.96.96.66,1.36.61,3.43,0,4.74-.71.45-1.03,1.89-1.89,1.89Z"/>
  <path class="cls-18" d="M52.23,72.05c4.82,4.51-6.81,5.52-2.37.96q.18.25,0,0c.76-.78.73-1.36,2.37-.96Z"/>
  <path class="cls-18" d="M62.16,12.26c0-.66.4-.83.96-.96h3.81c-.13,4.54-3.81,5.82-4.74.96h-.03Z"/>
  <path class="cls-18" d="M47.94,42.65c-.68-7.29,3.53-7.29,2.85,0h-2.85Z"/>
  <path class="cls-3" d="M75.5,64.43c-.3.88-1.03,1.01-.96,2.85-.38.71-.68.71-.96,0-1.19.03-1.44-.91-.96-1.89,2.04-2.77,3.93-4.51,6.63-6.63.35-.61.68-.63.96,0v.96c-.98.81-1.77,1.51-1.89,2.85.05.61-.08,1.29,0,1.89l.96.96c.05.3-.03.63,0,.93h-2.85c.63-.91.18-1.21,0-1.89-.05-.71-.35-.71-.96,0l.03-.03Z"/>
  <path class="cls-18" d="M88.76,124.24c-1.99-1.99,1.82-5.75,3.78-3.78,1.54,1.54-2.27,5.32-3.78,3.78Z"/>
  <path class="cls-8" d="M92.54,12.26c.71-6.1-1.21-2.87-5.17-2.8-8.65.18-20.98.83-29-1.01,1.13-2.8,3.93-2.85,1.89,0h29.88c.4,0,6.18-3.93,6.18.96-.68.2-1.92-.45-2.65.2-.43.4-.08,2.27-1.13,2.65h0Z"/>
  <path class="cls-18" d="M86.87,23.69c.33-1.92,2.29-.76,2.75.61.78,2.42-.86,3.63-.86,4.14-.38.81-.68.83-.96,0-1.84-.4-1.74-1.36,0-1.89l-.96-.96c-.81-.35-.81-.66,0-.96-.5-.33-.5-.63,0-.96l.03.03Z"/>
  <path class="cls-18" d="M51.72,111.46c0-2.22.63-1.36,2.87-1.44.05,1.39-.28,3.66,0,4.74-.71-.66-2.87.66-2.87-3.3Z"/>
  <path class="cls-18" d="M55.56,98.6c.93,3.91-.88,3.63-.96,4.74-.43-.45-1.03-1.34-.96-1.89l-.96-1.89c.18-1.21.33-2.7,1.89-2.85l.96.96c.1.25-.08.63,0,.96l.03-.03Z"/>
  <path class="cls-8" d="M87.8,12.26c-3.18.4-7.49-.58-10.44,0-1.26.5-1.71.05-.96-.96,4.24.08,7.59.61,11.4.96h0Z"/>
  <path class="cls-18" d="M62.21,24.57c-.13.25.13.73,0,.96h-.96c.28-1.34-.48-3.2.43-4.77,1.11-1.92,2.24.03,2.4.03,2.22.96-.35,2.77-1.89,3.81l.03-.03Z"/>
  <path class="cls-42" d="M85.91,49.3h-.96c.05-1.26-.48-3.15.96-3.81,0,1.26.1,2.57,0,3.81Z"/>
  <path class="cls-42" d="M83.09,55.91c-.5.03-1.16,1.08-1.89.96-.55-.83,2.62-6.66,3.78-7.59,0,.63.08,1.29,0,1.89s.1,1.31,0,1.89c-.28.96-.61,1.26-.96.96l-.96.96c-.08.28.03.63,0,.96l.03-.03Z"/>
  <path class="cls-8" d="M61.23,40.73c-.55-.91-1.49-1.89-1.89-2.85-.43-1.01-1.06-.91-.96-2.85-1.71-1.49-1.11-2.7.96-1.89-.33,2.22-.23,3.71,1.89,4.74.55.83.78,2.14,0,2.85Z"/>
  <path class="cls-18" d="M59.36,33.17c-.03.2-.91.93-.96,1.89h-.96c-.63.03-1.29-.3-1.89-.96-.18-.13-.78.15-.93-.48,1.08-1.61,2.9-1.59,4.72-1.44-.05.3.03.66,0,.96l.03.03Z"/>
  <path class="cls-8" d="M82.11,123.31c-3.05-1.64-4.39-8.7,0-3.81.73-.08.86.35.96.96v2.85h-.96Z"/>
  <path class="cls-53" d="M66.93,63.55c-.33,1.59-.91,3.05-.96,4.74-.38.81-.68.83-.96,0-.03-.61-.96-.88-.96-.96-.81-.45-.86-.78,0-.96l.96-.96c.13-.88-.18-2.07,0-2.85h.96c.71-.05.86.35.96.96v.03Z"/>
  <path class="cls-8" d="M67.91,21.8c-1.36,2.27-2.95,3.2-4.74,2.85h-.96c.68-1.24,1.84-2.22,1.89-3.81,1.71-.18,2.24-.25,3.81-.96.96-.43,1.87-1.39,2.85-1.89-.3.63-.63,1.26-.96,1.89l-.96,1.89c-.23.1-.63-.08-.96,0l.03.03Z"/>
  <path class="cls-18" d="M59.34,125.2c-.76-1.97,1.61-2.29,1.89-2.85.35-.4.66-.43.96,0,.13.55-.08,1.29,0,1.89.76.38.78.68,0,.96-.61-.23-2.02.18-2.85,0Z"/>
  <path class="cls-18" d="M76.41,42.62c-1.49-.18-2.7-.98-3.81-1.89-.68-.38-.71-.68,0-.96.53-2.77,1.87-1.34,2.85,0,.25.83.1.71.96.96.81.38.83.68,0,.96v.96-.03Z"/>
  <path class="cls-18" d="M95.87,129.03c1.61-.03,1.69,3.76,0,3.76-1.61.03-1.61-3.73,0-3.76Z"/>
  <path class="cls-18" d="M83.06,55.91c1.46-.05,2.92.63,2.85,2.37-2.85,1.44-2.7.68-2.85-1.41,0-.3-.03-.66,0-.96Z"/>
  <path class="cls-15" d="M67.88,78.23l-1.92-.45c-.13-.23.13-.68,0-.96l-.96-1.89c-.05-.33.05-.66,0-.96.38-.81.68-.83.96,0,.15.86,2.32,2.75,1.92,4.26Z"/>
  <path class="cls-16" d="M79.26,70.18c-3.83-.96-4.46-3.33,0-2.85.05.63-.05,1.26,0,1.89v.96Z"/>
  <path class="cls-8" d="M72.63,36.95c-.35,1.49-.66,2.75-.96,3.81l-.81-.66c-1.03-4.44,4.89-8.07,8.4-5.04-1.26.55-3.83.78-4.74,0-.5,1.11-1.13,1.74-1.89,1.89h0Z"/>
  <path class="cls-1" d="M65.97,73.96h-.96c-.05-.33.05-.66,0-.96-.2-1.41.03-3.23,0-4.74h.96c-.05,1.69-.25,4.16,0,5.7Z"/>
  <path class="cls-14" d="M84.96,43.58h-.93l-.98-4.26,1.92.45c.08.28,0,.63,0,.96.08.96,0,1.92,0,2.85Z"/>
  <path class="cls-18" d="M62.31,66.5c.4-.43,1.34,0,1.77-.13v.96c.23,2.02.13,2.12-1.89,1.89.05-.81-.33-2.22.13-2.72Z"/>
  <path class="cls-8" d="M87.83,38.84c-3.63.93-.98-1.69-.96-1.89.98.5.58-.2,0-.96.1-.98.18-2.95,0-3.81.66-1.21,1.89-1.49,1.89,0-.03.33.03.66,0,.96-.73.96-.63,1.89,0,2.85-.08.61.15,1.44,0,1.89l-.96.96h.03Z"/>
  <path class="cls-8" d="M90.63,95.78c-.03-1.03-.83-2.09-.96-2.85.3.1.71-.1.96,0l.96.96c.13.76.03,1.97-.96,1.89Z"/>
  <path class="cls-8" d="M90.68,91.97c-.58-.18-1.03.53-.96.96-.28-.08-.66.08-.96,0-2.24-1.03-2.6-1.54,0-1.89-.76-.66-1.39-1.29-1.89-1.89-.38.81-.68.83-.96,0-.81-.38-.83-.68,0-.96-1.74-.43-2.72-.68-.96-1.89.66.28,1.24.68,1.89.96,1.54,1.94,2.19,1.13,3.81,4.74l.03-.03Z"/>
  <path class="cls-18" d="M56.49,12.29c-.43-.35-.45-.66,0-.96h2.85c-.73,1.89-1.29,2.09-2.85.96Z"/>
  <path class="cls-8" d="M52.68,99.58c3.86-.23.98,1.66.96,1.89-.55-.43-1.06-1.21-.96-1.89Z"/>
  <path class="cls-66" d="M72.63,40.76c-.18-.15-.88.15-.96,0-.28-.68-.25-3.5.96-3.81,2.12,1.99,2.12,2.95,0,2.85v.96Z"/>
  <path class="cls-8" d="M86.87,23.64c.13.28-.13.71,0,.96-1.24,1.19-3.58-1.44-3.81-2.85l1.89-1.89c.4,3.68,1.46,2.87,1.89,3.81l.03-.03Z"/>
  <path class="cls-18" d="M77.34,12.26c-.1.03-1.82.88-1.89.96.13-.2-.08-.63,0-.96-.81-.38-.83-.68,0-.96h.96l.96.96h-.03Z"/>
  <path class="cls-43" d="M79.26,35.03c.33.05.68-.08.96,0,2.19,3.78-.55,1.01-.96.96-.81-.38-.83-.68,0-.96Z"/>
  <path class="cls-8" d="M57.47,35.06l-.48.93-1.44-1.89c.43.28,1.46.25,1.89.96h.03Z"/>
  <path class="cls-65" d="M88.76,35.99c-1.44-.13-1.44-2.72,0-2.85-.08.93.1,1.92,0,2.85Z"/>
  <path class="cls-72" d="M78.35,77.72c-.08.3.08.68,0,.96-.35.45-.68.45-.96,0,.08-.93-.08-1.92,0-2.85l.93.96c.4.35.43.66,0,.96l.03-.03Z"/>
  <path class="cls-41" d="M87.8,30.32c-.96.38-1.39,0-.96-.96,1.36-.76,1.87-.23.96.96Z"/>
  <path class="cls-41" d="M88.74,32.23h-1.89c-.08-.33.08-.71,0-.96-.86-1.69-.38-2.22.96-.96.38-.81.68-.83.96,0-.03.63.05,1.26,0,1.89l-.03.03Z"/>
  <path class="cls-41" d="M87.78,28.35c.45,1.01.05,1.44-.96.96-1.13.08-2.52-.93-1.89-1.89l.93-.45c-1.26-2.4-3.56-4.51-5.67-6.18.3-1.26,1.66-1.16,1.89,0,.3.33.66.63.96.96,1.08,1.19,2.45,2.04,3.81,2.85.1.25-.1.66,0,.96l.96.96c.13.53-.08,1.29,0,1.89l-.03-.05Z"/>
  <path class="cls-8" d="M87.83,30.29l-.96.96c-.28-.81-2.14-2.14-2.85-2.85-1.36-1.31-1.92-3.66-1.92,0-1.74.3-.86-1.64,0-2.85.73.23,2.09,1.34,2.85,1.89.33.23,1.19,1.29,1.89,1.89.25.23.35.93.96.96h.03Z"/>
  <path class="cls-8" d="M88.76,28.43c-.03.63.03,1.26,0,1.89h-.96c0-.93-.96-.88-.96-.96-.08-.71.25-1.06.96-.96h.96v.03Z"/>
  <path class="cls-18" d="M72.63,87.23c-.03-.61.13-1.41,0-1.89.43.18,1.31-.13,1.89,0-.53.78-.86,1.59-1.89,1.89Z"/>
  <path class="cls-8" d="M82.11,20.84h-1.89c-.76-.61-1.31-.63-1.89-.96-.38-.23-.68-.63-.96-.96.61.08,1.26-.05,1.89,0,4.44.35,2.14,1.08,2.85,1.89v.03Z"/>
  <path class="cls-8" d="M57.45,117.61c.43.15,2.24.1,2.85,0-1.21.1-.25,1.56-2.85,0Z"/>
  <path class="cls-4" d="M81.17,57.8l-.96.96h-.96c.28-.2.38-1.03.96-1.39.48-.28.96.45.96.45v-.03Z"/>
  <path class="cls-8" d="M81.17,133.75l.48-.93,1.41.93c-.35.23-1.54-.23-1.89,0Z"/>
  <path class="cls-18" d="M83.06,120.46l-.96-.96c-.96-1.49-.68-1.56.96-.96.63.33.63.66,0,.96.05.3,0,.66,0,.96Z"/>
  <path class="cls-37" d="M73.1,91.03l-.48-.93c0-.33-.03-.66,0-.96,1.24-.08,1.46,1.79.48,1.89Z"/>
  <path class="cls-49" d="M68.82,80.62c-.35.4-.66.4-.96,0v-.96c.05,0-.15-.78.48-.93l.48.93c.81.33.81.66,0,.96Z"/>
  <path class="cls-8" d="M65.99,76.79c-.15-.33-.71-.35-.96-1.89l.96,1.89Z"/>
  <path class="cls-18" d="M84.96,53.11c-.15.76.2,1.74-.96,1.89-.38-.35-.38-.66,0-.96.28-.28.43-.83.96-.96v.03Z"/>
  <path class="cls-8" d="M62.19,49.28c-.03-.1-.63-.66-.96-1.89l.96,1.89Z"/>
  <path class="cls-44" d="M87.33,37.88l-.48-.93c.05-.3-.03-.66,0-.96,1.24-.08,1.46,1.79.48,1.89Z"/>
  <path class="cls-60" d="M69.78,31.25h-.96c.33-.86.68-1.29.96-1.89v1.89Z"/>
  <path class="cls-8" d="M73.56,18.9l-.93-1.41.93-.48v1.89Z"/>
  <path class="cls-8" d="M73.58,16.07c-.45-1.92,1.59-2.4,1.89-2.85-.13.1-1.84,2.7-1.89,2.85Z"/>
  <path class="cls-18" d="M91.61,93.91c-.55-.05-.81-.91-.96-.96.03.08.76-.33.96.96Z"/>
  <path class="cls-18" d="M69.78,86.29l-.96-.96c.35.33.63.63.96.96Z"/>
  <path class="cls-8" d="M71.64,83.45c.33.45.83,1.41.96,1.89-1.82-.73-3.66-3.1-4.74-4.74h.96c1.41.78,2.34,1.71,2.85,2.85h-.03Z"/>
  <path class="cls-8" d="M77.37,81.55h-.96c.18-.4.58-.73.96-.96v.96Z"/>
  <path class="cls-8" d="M77.37,79.66c0-.33-.03-.66,0-.96h.96c-.15.45-.53.81-.96.96Z"/>
  <path class="cls-8" d="M78.3,77.77v-.96h.96c-.1.45-.5.83-.96.96Z"/>
  <path class="cls-18" d="M63.14,74.92l-.96-.96c.03.08.96.96.96.96Z"/>
  <path class="cls-8" d="M64.08,66.37c.25-.08.61-.76.96-.96-.05.3-.96.76-.96.96Z"/>
  <path class="cls-8" d="M79.28,65.42l-.96-.96c.03.08.88.35.96.96Z"/>
  <path class="cls-8" d="M78.32,62.57c-.15-1.61-.55-1.61,1.89-2.85l-1.89,2.85Z"/>
  <path class="cls-8" d="M84,54.98h-.96c.2-.63.71-.71.96-.96v.96Z"/>
  <path class="cls-8" d="M63.14,51.2c-.03-.08-.81-.3-.96-.96l.96.96Z"/>
  <path class="cls-8" d="M71.67,49.28l-.93-.48.93-.48c.08.3-.08.66,0,.96Z"/>
  <path class="cls-18" d="M61.25,46.46c-.03-.08-.76-.25-.96-.96l.96.96Z"/>
  <path class="cls-18" d="M60.3,43.61c-.03-.08-.83-.23-.96-.96l.96.96Z"/>
  <path class="cls-18" d="M87.8,38.84l.96-.96c-.25.81-.2.76-.96.96Z"/>
  <path class="cls-8" d="M60.27,30.77l-.93.48c.08-.3-.08-.66,0-.96l.93.48Z"/>
  <path class="cls-8" d="M60.27,28.4v-.96h.96c-.18.66-.96.96-.96.96Z"/>
  <path class="cls-18" d="M61.23,27.47h-.96c.23-.4.76-.66.96-.96-.08.3.08.66,0,.96Z"/>
  <path class="cls-8" d="M61.23,26.51c.08-.3-.08-.66,0-.96h.96c-.23.4-.76.66-.96.96Z"/>
  <path class="cls-8" d="M80.21,25.55h-.96v-.96c.43.05.86.5.96.96Z"/>
  <path class="cls-8" d="M56.49,12.29c-.4-.3-.73-.38-.96-.96h.96v.96Z"/>
  <polygon class="cls-8" points="62.19 12.26 62.19 11.33 63.12 11.33 62.19 12.26"/>
  <path class="cls-8" d="M103.01,10.35v.96c-.88-.48-3.25-2.19-3.81-2.85-.4-.45-.58-1.34-.96-1.89,1.56-1.26,4.92,2.12,4.74,3.81l.03-.03Z"/>
  <path class="cls-8" d="M55.53,9.44c-.05-.3,0-.66,0-.96h.96l-.96.96Z"/>
  <path class="cls-8" d="M65.01,127.12c-.96-.5-1.89-1.49-2.85-1.89v-.96h.96c1.61-.78,2.09,1.59,1.89,2.85Z"/>
  <path class="cls-8" d="M62.19,122.38h-.96c.13-.25-.13-.68,0-.96.45.15.86.5.96.96Z"/>
  <path class="cls-8" d="M61.23,120.46c.28-.71.96-.96.96-.96l-.96.96Z"/>
  <path class="cls-8" d="M84,119.53h-.96c-.05-.33.1-.88,0-.96.4-.78.73-.81.96,0v.96Z"/>
  <path class="cls-8" d="M63.12,118.09l-.93.48v-.96l.93.48Z"/>
  <path class="cls-18" d="M57.42,117.61c-1.16-.68-1.36-1.46-1.89-1.89.08.1,1.77,1.84,1.89,1.89Z"/>
  <path class="cls-8" d="M55.56,115.72c-.35-.28-.63-.66-.96-.96.03.1.68.58.96.96Z"/>
  <path class="cls-18" d="M92.54,113.83l-.93-.48.93-.48c0,.33.05.66,0,.96Z"/>
  <path class="cls-46" d="M71.67,81.58c-.91.96-2.02-.08-2.85-.96-.05-.3.05-.66,0-.96l1.89-10.44c.53.4.53,1.03,0,1.89,2.67,1.71,3.56,8.45.96,10.44v.03Z"/>
  <path class="cls-27" d="M68.82,58.81h-1.89c.03-.28.08-.71,0-.96-.91.48-1.54-.15-1.89-1.89-.15-.2.13-.71,0-.96l-.96-.96c-.05-.28,0-.66,0-.96,0-.81.08-1.59.96-1.89.86,1.97,1.41,6.13,4.74,5.7-.2.33-.76,1.46-.96,1.89v.03Z"/>
  <path class="cls-57" d="M76.38,40.73c.13.05,1.24-1.54,1.77.61,1.03,4.16.03,6.23-2.7,8.9.98-2.17,3.13-6.78.96-8.55v-.96h-.03Z"/>
  <path class="cls-73" d="M69.78,56.87c.35-.58.33-1.87.96-2.85.38-.58,1.31-1.34,1.89-1.89.76-.71,2.12-1.16,2.85-1.89-.86,1.87-3.58,6.35-5.7,6.63Z"/>
  <path class="cls-57" d="M75.5,39.8h-2.85c.15-.86-.23-2.14,0-2.85.28-.91.96-1.66,1.89-1.89.81.38.83.68,0,.96-2.09,2.62.2,1.54,1.44,2.82.35.38-.5.96-.5.96h.03Z"/>
  <path class="cls-22" d="M74.52,35.99v-.96c.83-.2,3.73-.13,4.74,0v.96c-1.46-.23-3.23.15-4.74,0Z"/>
  <path class="cls-64" d="M73.53,67.33c.48,4.26-3.38,2.82-1.89-.96.18-.3.71-.61.96-.96.96.33.73,1.19.96,1.89l-.03.03Z"/>
  <path class="cls-13" d="M70.73,71.12v-2.85c3.73.13,3.03,4.97,0,2.85Z"/>
  <path class="cls-28" d="M75.5,71.09c.61,2.65.5,6.93-.48,9.48-.63,1.59-1.26,3.71-3.33,1.92-.81-.33-.81-.63,0-.96-.38-3.45-1.08-6.93-.96-10.44,0-.15.78-.63.86-1.41.05-.66-.86-1.26-.86-1.44.05-1.64.71-1.44.96-1.89-.18,2.5-.03,2.22,1.89.96.83,1.01,1.46,2.27,1.89,3.81l.03-.03Z"/>
  <path class="cls-74" d="M66.93,61.63c-.15.48.13,1.31,0,1.89l-.96-.96c-.2-.81.71-.66.96-.96v.03Z"/>
  <path class="cls-54" d="M66.93,61.61c.35-1.11.81-1.51.96-1.89.55,1.79-.68,1.56-.96,1.89Z"/>
  <path class="cls-55" d="M67.86,59.74v-.96l.48-.93.48.93c-.18.35-.86.66-.96.96Z"/>
  <path class="cls-29" d="M80.24,127.12c-1.74,4.16-7.29,7.29-10.44,2.85-.33-.1-.73.1-.96,0-.88-.63-1.21-1.29-.96-1.89-.61-1.19.23-4.87,1.89-3.81q.79.84,0,0l-.38-1.31c-3.4,9.61-8.09-.03-3.43-5.35.3-.35.66-.63.96-.96.5-.81,1.46-.81,2.85,0,.35-.83.66-.83.96,0,3.03.15,6.05.55,9.08,1.24.5.88,2.12,7.51.4,8.27v.96h.03Z"/>
  <path class="cls-8" d="M69.78,129.94c5.98,1.71,5.02-1.21,10.44-2.85-.33,8.14-1.82,3.5-3.61,5.95-.45.63.2,2.37-.66,2.62-4.19,1.29-2.85-1.59-3.61-2.55s-2.92-1.01-2.57-3.18h0Z"/>
  <path class="cls-61" d="M66.93,128.05c-.63-.33-1.26-.63-1.89-.96-.43-.91-1.71-2.04-1.89-2.85-.66-2.85,1.41-4.89,2.85-6.63l-1.92,4.26,2.85-1.41c-.71,2.8-2.5,3.45-.93,6.63,2.67-.93.05-3.71,2.8-5.24.73-.4,2.47-.78,2.87-.45,1.41,1.13-1.36,2.17-1.89,2.85,1.01-1.01,2.95.83,1.89,1.89s-2.9-.88-1.89-1.89c-.55.76-1.84,3.45-1.89,3.81-.35.45-.68.48-.96,0Z"/>
  <path class="cls-61" d="M70.71,116.65c.35-.81.66-.81.96,0,1.89-3.38,7.69-4.99,7.59,0,2.14-1.82,4.49-.96,3.81,1.89-.38-.23-.88.96-.96.96-.48-.03-1.74-1.69-1.92-.45-.3,1.61,1.64,3.18,1.92,4.26.08.25,0,.66,0,.96l-.96,1.89h-.96c-.03-1.77.43-4.26-.48-5.7l-4.26,2.85,2.85.96c-.58,3.18-4.03.53-4.64,1.03-.45.38.58,2.19-1.03,1.79-.66-5.77,3.43-2.95,3.28-6.61,2.67,1.84,2.22.45,3.35-1.92-2.29,1.24-3.61-.4-5.19-.61-1.97-.25-3.86,4.19-3.33-1.29l-.03-.03Z"/>
  <path class="cls-8" d="M81.15,126.16l.96-1.89c-.03.88.23,1.71-.96,1.89Z"/>
  <path class="cls-8" d="M67.86,128.05c-.03.33.83,1.34.96,1.89-.88-.43-1.49-.98-1.89-1.89h.96-.03Z"/>
  <path class="cls-23" d="M64.05,30.29c-1.24.58-1.94.5-1.89-.96.53-1.51.86-3.13.96-4.74,2.4-1.77,2.47-2.32,4.74-2.85l-1.92,4.74-1.87-1.89-.96,3.78c4.44.71,4.19-4.06,4.77-4.74.13-.15,1.94.91,2.82.96-1.69,2.42-4.66,3.68-6.63,5.7h-.03Z"/>
  <path class="cls-11" d="M61.23,42.62c-.55-1.56-.1-.78,0-1.89.08-.93-.05-1.92,0-2.85h.96c-.28,1.49.23,3.28-.96,4.74Z"/>
  <path class="cls-6" d="M66.93,39.8v-2.85c.03.1.96,1.89.96,1.89l-.96.96Z"/>
  <path class="cls-70" d="M68.36,44.56c.61,0,.48.93.48.93h-.96l.48-.93Z"/>
  <path class="cls-36" d="M84.02,118.57c-.3,0-.68.05-.96,0-.23-.03-2.98-1.51-3.81-1.89-.91-1.97-1.24-3.56-.96-4.74.25-1.08.68-1.92,1.89-1.89,1.03.98.98,3.2,3.33,3.78-.1-6.48,8.7-1.39,6.71,1.94-.38.63-5.35,2.72-6.23,2.8h.03Z"/>
  <path class="cls-17" d="M75.5,104.32c1.61,1.54.76,3.93-.96,1.89-2.22,0-2.47-1.82-1.89-3.81.15-1.13,1.11-2.4,2.85-3.81-.71-2.9,5.72-4.61,6.63-1.89,4.46-.76,2.22,1.49,2.85,2.85-3.03-.63-4.89-.71-7.59.96-.25,1.24-.55,1.54-.96.96.71,1.36.4,2.32-.96,2.85h.03Z"/>
  <path class="cls-40" d="M71.62,116.7c-1.39-.61-2.52-2.98-.96-3.81-.61-.33-.61-.66,0-.96.66-1.21,1.92-1.21,3.81,0q.96.35,0,0c-2.37.03-4.16-1.51-3.81-3.81-1.03-1.06-.71-2.65.96-4.74-.81-.45-.83-.78,0-.96.38-.81.68-.81.96,0,.61,1.29,1.29,2.52,1.89,3.81,2.02-.13,2.5,1.03,2.85,2.85-1.26-1.08-1.89-2.67-1.89-4.74,0-1.34-1.06-.66.96-2.85.48-.13.81.18.96.96,3.45,1.01.48.45,1.24,1.69.15.25,1.46.1,1.56.78.08.38-.43,3.56-.91,4.16-.38,1.87-1.24,1.74-1.89,0,1.64.43,2.32,1.69.96,2.85.78,1.51,5.09,2.95.96,4.74-2.02-.91-2.19-1.94-2.34-1.89-2.24.63-1.31,2.29-5.24,1.89l-.05.03Z"/>
  <path class="cls-26" d="M77.37,109.06c.58.13,1.41-.15,1.89,0,.08.03.68.68.96.96.23,2.02.13,2.12-1.89,1.89-.5-.98-.73-1.77-.96-2.85Z"/>
  <path class="cls-5" d="M77.37,100.57v1.89c-.43-.13-.81-.53-.96-.96.3-.33.63-.76.96-.96v.03Z"/>
  <path class="cls-76" d="M72.65,102.43c-.25.13-.73-.13-.96,0-.63-.58-.78-1.77,0-1.89-1.44-.35-2.07-.98-1.89-1.89l-.96-.96c.48,1.49.15,2.12-.96,1.89-.98-.25-2.7-.96-2.85-.96q.76-1.46,0,0c-1.19-.13-2.57,0-3.81,0,.63-.2,3.15-1.92,1.89-2.85-2.8-2.07-6.68,6.56-7.59-1.89,2.29-.71,1.06-2.4,1.24-2.67.25-.38,1.54-.05,1.61-.18,1.29-3.3,8.12-2.67,8.55.96.35-.58.68-.61.96,0,1.54.18,2.14.76.96,1.89,2.27,1.31,4.49,2.9,6.63,4.74-.45,1.56-1.36,3.05-2.85,3.81h.03Z"/>
  <path class="cls-59" d="M65.06,101.5c3.2.98,1.29,6.96-.96,6.63-.1.1-1.34-.2-1.64.23-1.06,1.44-1.01,3.93-3.1,4.51l-.96-7.59c4.89-1.61,5.14,2.27,6.63-3.81l.03.03Z"/>
  <path class="cls-25" d="M65.94,110.98c-2.52.43-1.94-.61-1.89-2.85,1.13-1.51,2.32-4.99.96-6.63,1.97-.48,1.51.76,2.52,1.89h1.29c.81.33.81.66,0,.96-2.7,1.16-2.42,4.21-2.85,6.63h-.03Z"/>
  <path class="cls-47" d="M71.69,100.54c-.38.81-.68.83-.96,0-.3-.08-.68.1-.96,0l-.96-.96c-.28-.08-.63.08-.93,0v-1.41c.18-.53.5-.45.93-.48l.96.96c.81.58,1.51.73,1.89,1.89h.03Z"/>
  <path class="cls-63" d="M70.76,104.32l-.96.96h-.96c.08-.3-.08-.66,0-.96.1-.33-.13-.78,0-.96s1.41-.73,1.89-.96c.38-.81.71-.81.96,0v.96c-.05.71-.33,1.06-.96.96h.03Z"/>
  <path class="cls-59" d="M62.67,101.47c.81-.13.45,1.89.45,1.89-1.08,1.08-3.05-.4-.45-1.89Z"/>
  <path class="cls-75" d="M71.67,102.43c-.25.13-.71-.13-.96,0v-1.89h.96c.15.4-.03,1.29,0,1.89Z"/>
  <path class="cls-37" d="M69.78,100.54l-.96-.96c.33.1.66.86.96.96Z"/>
  <path class="cls-23" d="M68.84,21.75v-1.41c.15-.55.53-.4.93-.48-.35.71.35,1.29-.93,1.89Z"/>
  <path class="cls-8" d="M73.58,12.26v-.96h1.89v.96c-.58.13-1.49-.18-1.89,0Z"/>
  <path class="cls-9" d="M70.76,116.65c-.3-.13-.76.13-.96,0-1.71-.1-2.19-.63-.96-1.89-.53-1.34-.93-3.3-.96-4.74.35-.61.68-.61.96,0l1.89,2.85c.33,1.06,1.59,2.09.96,3.81-.35-.03-.76.1-.96,0l.03-.03Z"/>
  <path class="cls-68" d="M74.52,111.89c-.81-.05-2.5.96-3.81,0-.96-.13-1.46-1.06-.96-1.89l-1.89-.96c.03-.45.88-1.34.96-1.89,2.07-1.66,2.27-1.64,1.89.96,1.29,1.11,2.32,2.82,3.81,3.81v-.03Z"/>
  <path class="cls-45" d="M71.64,103.44c-.13,1.64-.5,3.18-.96,4.74-.45-.4-1.34-.58-1.89-.96.05-.33-.08-.68,0-.96l.96-.96.96-.96c.33-.33.63-.66.96-.96l-.03.05Z"/>
  <path class="cls-61" d="M69.78,120.49c-3.53-1.16.83-4.54-2.85-3.81.55-.55.81-1.64,1.89-1.89.23.58.43,1.54.96,1.89v3.81Z"/>
  <path class="cls-71" d="M69.8,110.02c-.38.81-.68.83-.96,0h-.96v-.96c.96-.05,1.31.33,1.89.96h.03Z"/>
  <path class="cls-19" d="M68.82,106.24c.08-.3-.08-.68,0-.96h.96c-.33.33-.63.66-.96.96Z"/>
  <path class="cls-8" d="M105.35,96.73c.61.33.61.63,0,.96v-.96Z"/>
  <path class="cls-8" d="M52.71,132.82c1.34-.68,2.55.61,1.89.93-1.34.68-2.55-.61-1.89-.93Z"/>
  <path class="cls-37" d="M68.82,93.91l-.48-2.5c-2.14-.1-3.13-2.7-1.41-4.16.28,0,1.01-1.11,1.92-.53.43.28,1.44,6.93,4.72,7.16,1.24-4.01.25-9.73,5.7-7.59,1.26-.76,3.3.73,3.81,1.89,1.94,2.17-2.55,2.9-2.85.96-1.69,1.01,0,2.87,1.89,1.89.53-1.21,1.79-1.84,3.81-1.89h.96c.76.55,1.39,1.19,1.89,1.89.18.15-.1,1.36,0,1.89-1.79-.38-3.5-1.54-5.7-.93-1.03,3.5,4.08,1.19,4.74,1.89v2.85c-3-1.46-3.83-.38-5.7,0-1.97.4-4.72,1.19-6.63,1.89-2.47.91-1.26,1.11-2.85,1.89,1.08-5.65-7.09-1.41-3.81-6.63v.03Z"/>
  <path class="cls-30" d="M86.37,97.67c.61.33.61.63,0,.96v-.96Z"/>
  <path class="cls-51" d="M83.04,88.19c-1.99-.3-2.57-1.41-3.81-1.89l.96-.96c.33.05.66-.08.96,0l2.85.96c.3.1.71-.1.96,0l.96,1.89c-.66,1.99-2.22,2.02-2.85,0h-.03Z"/>
  <path class="cls-8" d="M84,86.27l-.45.93-2.4-1.87c1.39.33,1.94.68,2.85.96v-.03Z"/>
  <path class="cls-8" d="M75.45,83.45c.18-.38.66-.68.96-.96-.18.4-.58.73-.96.96Z"/>
  <path class="cls-20" d="M71.67,82.46v.96c-.45-.68-2.5-1.11-2.85-2.85l2.85.96c.03.33-.03.66,0,.96v-.03Z"/>
  <path class="cls-48" d="M58.4,91.01c.25-.43-.73-2.34.61-2.87,2.22-.88,5.72-.98,7.94-.93,1.26,1.21,1.39,3.13,2.27,4.44.33.5,1.44.25,1.51.33.78.78-1.49,1.26-1.89,1.89-.88-.38-.71-1.51-.96-1.89-.2-.48-.53-.48-.96,0-1.08.35-6.38-2.22-6.63-1.89-.96,1.21.96,2.57,2.37,2.85,2.85.58,4.99-1.61,4.24,2.85-2.77-1.41-5.72-1.41-8.52,0v-4.74l.03-.03Z"/>
  <path class="cls-24" d="M74.49,67.31c.03.2.78,3.25.96,3.81-.05-.23-1.39-2.12-1.89-3.81h.96-.03Z"/>
  <path class="cls-67" d="M75.45,64.46c.23-.68-.48-1.92.48-1.92s.33,1.31.48,1.92h-.96Z"/>
  <path class="cls-8" d="M70.71,17l.96-1.89c-.3.61-.73,1.39-.96,1.89Z"/>
  <path class="cls-8" d="M71.67,14.18l.96-.96c-.3.28-.83.71-.96.96Z"/>
  <path class="cls-31" d="M60.3,35.03c-.25-2.12,1.29-3.93,1.89-5.7.93-.05,1.66-.33,1.89.96-1.59,1.61-1.79,3.86-3.78,4.74Z"/>
  <path class="cls-8" d="M55.56,97.69c-.45-.13-.91-.53-.96-.96,1.06-.1.78.55.96.96Z"/>
  <path class="cls-8" d="M65.04,58.79v-2.85c.35.48,1.54.63,1.89,1.89l-1.89.96Z"/>
  <path class="cls-8" d="M65.04,54.98c-.45-.15-.86-.5-.96-.96.3.3.78.61.96.96Z"/>
  <path class="cls-8" d="M104.87,134.23c.08-1.03,1.41.03.96.48-.23.2-.96-.15-.96-.48Z"/>
  <path class="cls-8" d="M50.81,73.49c-.08,1.03-1.41-.03-.96-.48.23-.2.96.15.96.48Z"/>
  <path class="cls-8" d="M87.8,26.51c-.45-.18-.83-.5-.96-.96.45.15.86.5.96.96Z"/>
  <path class="cls-52" d="M80.21,89.14c.76.2,2.77.18,2.85-.96.88.13,1.94-.1,2.85,0v.96c.61,3.23-2.7,1.36-3.81,1.89-3.25,3.03-3.68-1.13-1.89-1.89Z"/>
  <path class="cls-51" d="M86.87,89.14c1.46-.38,3.66,1.24,1.89,1.89-.4-.38-2.55,1.08-1.89-1.89Z"/>
  <path class="cls-50" d="M77.34,109.06c-1.66-.35-2.37.86-1.21-1.46l-1.54.4c-.33-.55.1-1.44-.08-1.79.93.08.96-1.21.96-1.89l1.89-.96c-.48,1.94-.43,3.76,0,5.7h-.03Z"/>
  <path class="cls-58" d="M64.08,96.73h2.85c.03.73-1.34,2.12-1.89,1.89-.1-.05-.96-1.89-.96-1.89Z"/>
  <path class="cls-10" d="M69.78,98.65l-.96-.96c.93-.05.68.76.96.96Z"/>
  <path class="cls-37" d="M67.41,91.06c.66.15.35.76.48.93h-.96l.48-.93Z"/>
  <path class="cls-21" d="M69.78,105.28l.96-.96-.96.96Z"/>
  <path class="cls-69" d="M70.71,111.91c.1.25-.1.66,0,.96-1.36-.4-1.89-1.46-1.89-2.85h.96c.86.91.63,1.11.96,1.89h-.03Z"/>
  <path class="cls-51" d="M77.37,93.88c-.43-1.56,1.69-.55,1.92-1.41.81-3.03-2.6-1.84-1.92-3.78,1.11-3.1,2.67.4,2.85.45-.23,2.02-.13,2.12,1.89,1.89-.71.35-2.45,3.58-4.74,2.85Z"/>
  <path class="cls-51" d="M75.95,89.14c.61.33.61.63,0,.96v-.96Z"/>
  <path class="cls-32" d="M72.63,115.72c-.28-1.99-.1-2.17,1.89-1.89l-1.89,1.89Z"/>
  <path class="cls-7" d="M76.41,111.91v.93c-.68.43-1.66-.93-1.89-.93.28.18,1.31-.13,1.89,0Z"/>
</svg>