<?xml version="1.0" encoding="UTF-8"?>
<svg id="Livello_1" data-name="Livello 1" xmlns="http://www.w3.org/2000/svg" viewBox="0 0 141.73 141.73">
  <defs>
    <style>
      .cls-1 {
        fill: #8b6f6b;
      }

      .cls-2 {
        fill: #a7978d;
      }

      .cls-3 {
        fill: #a08f88;
      }

      .cls-4 {
        fill: #b4aca7;
      }

      .cls-5 {
        fill: #dad4d0;
      }

      .cls-6 {
        fill: #846659;
      }

      .cls-7 {
        fill: #cebbb4;
      }

      .cls-8 {
        fill: #ada298;
      }

      .cls-9 {
        fill: #c0cfc9;
      }

      .cls-10 {
        fill: #917767;
      }

      .cls-11 {
        fill: #9a8a82;
      }

      .cls-12 {
        fill: #ab9991;
      }

      .cls-13 {
        fill: #cdc8c2;
      }

      .cls-14 {
        fill: #ac9f9a;
      }

      .cls-15 {
        fill: #f8f8f7;
      }

      .cls-16 {
        fill: #eae5e3;
      }

      .cls-17 {
        fill: #fefefe;
      }

      .cls-18 {
        fill: #e3e0dd;
      }

      .cls-19 {
        fill: #b0a89e;
      }

      .cls-20 {
        fill: #86695c;
      }

      .cls-21 {
        fill: #b1a6a1;
      }

      .cls-22 {
        fill: #a38a7b;
      }

      .cls-23 {
        fill: #fff;
      }

      .cls-24 {
        fill: #8d7566;
      }

      .cls-25 {
        fill: #e7e1dd;
      }

      .cls-26 {
        fill: #c7b9b3;
      }

      .cls-27 {
        fill: #958980;
      }

      .cls-28 {
        fill: #876d61;
      }

      .cls-29 {
        fill: #aa9b94;
      }

      .cls-30 {
        fill: #b4aca6;
      }

      .cls-31 {
        fill: #a28984;
      }

      .cls-32 {
        fill: #aca29b;
      }

      .cls-33 {
        fill: #968881;
      }

      .cls-34 {
        fill: #9f8775;
      }

      .cls-35 {
        fill: #aca09a;
      }

      .cls-36 {
        fill: #b0998f;
      }

      .cls-37 {
        fill: #9b8f85;
      }

      .cls-38 {
        fill: #bfb1ad;
      }

      .cls-39 {
        fill: #dbcec8;
      }

      .cls-40 {
        fill: #8d7063;
      }

      .cls-41 {
        fill: #92776b;
      }

      .cls-42 {
        fill: #998075;
      }

      .cls-43 {
        fill: #a6968d;
      }

      .cls-44 {
        fill: #cfc9c5;
      }

      .cls-45 {
        fill: #e7e9e7;
      }

      .cls-46 {
        fill: #9b8c82;
      }

      .cls-47 {
        fill: #e8e8e6;
      }

      .cls-48 {
        fill: #af9b91;
      }

      .cls-49 {
        fill: #e9edec;
      }

      .cls-50 {
        fill: #ac9f97;
      }

      .cls-51 {
        fill: #b2a49f;
      }

      .cls-52 {
        fill: #ac9c98;
      }

      .cls-53 {
        fill: #a99f96;
      }

      .cls-54 {
        fill: #8b7265;
      }

      .cls-55 {
        fill: #f6fbfc;
      }

      .cls-56 {
        fill: #a1938c;
      }

      .cls-57 {
        fill: #b3a9a0;
      }

      .cls-58 {
        fill: #e2dedb;
      }

      .cls-59 {
        fill: #92786b;
      }

      .cls-60 {
        fill: #937a6a;
      }

      .cls-61 {
        fill: #bfb7b1;
      }

      .cls-62 {
        fill: #a09086;
      }

      .cls-63 {
        fill: #a2988f;
      }

      .cls-64 {
        fill: #c9c4bf;
      }

      .cls-65 {
        fill: #988d81;
      }

      .cls-66 {
        fill: #b6aca6;
      }

      .cls-67 {
        fill: #b4aca2;
      }

      .cls-68 {
        fill: #b7aea9;
      }

      .cls-69 {
        fill: #8b665c;
      }

      .cls-70 {
        fill: #93766b;
      }

      .cls-71 {
        fill: #a7958e;
      }

      .cls-72 {
        fill: #bcada7;
      }

      .cls-73 {
        fill: #af9b93;
      }

      .cls-74 {
        fill: #93877f;
      }

      .cls-75 {
        fill: #e2e5e4;
      }
    </style>
  </defs>
  <path class="cls-23" d="M96.25,61.27c-.13-.01-1.7.91-2.2.43-.41-.39,1.38-3.68-.67-4.4-1.11.96-1.69,2.55-1.1,3.96-.16.32-.32.32-.45,0-.15.39-.3.39-.45,0l-.88-.45c-.21.37-.36.39-.45,0-.57-.07-.87-.22-.88-.45-.53-.64-.62-1.56-.32-2.73-.77.07-1.25-.19-1.45-.8-1.19.29-1.19.73,0,1.32,1.28.06,1.52,1.64.45,2.2.15.62-.43.82-.88.45-.28.28-.59.26-.88,0-1.41.83-4.63.45-4.4-1.77.69-.23,1.21-.75,2.2-.45-.88-1.02-1.23-1.46-1.77-2.64-.25-1.26-1.02-1.15-2.11-.88l-.09-.43q-.25-.48,0,0c1.84.27,2.44.71,1.77,1.32-4.52,2-4.85-5.17-1.46-6.11,1.71-.48,1.18,1.76,2.19,2.11s2.16-.53,2.95-.34c1.43.34.55,2.85,3.83,1.7q.37.39,0,0c3.51-1.23,1.46-2.01,1.3-3.34-.28-2.28,6-6.64,3.98-1.72-.32.75-1.87,1.5-1.32,1.98.34.29,2.53-1.19,3.67-.83.87.27.85,1.63,1.41,2.16.25.23,1.44,1.26,1.53,1.32q-.45.42,0,0c.29.19,1.64.28,1.76.46.22.32-.37,1.34-.3,1.91.08.62.69,1.21.76,2.04-1.66,1.73-3.57,3.06-5.73,3.97h-.01Z"/>
  <path class="cls-23" d="M80.36,141.95c-.18.37-.32.39-.45,0-1.96.23-2.11-1.49-.47-2.41-.28-1.58-.35-1.76-.64.11l-1.09.09c-.64.04-1.09-.11-1.32-.45-1.51.19-1.84-.77-.96-2.87-.57-.56-1.14-1.08-1.69-1.53-.19.37-.34.39-.45,0-.8-.63-1.7-.83-2.68-.61-.8-1.11-2.03-1.59-3.68-1.44l-.25-1.04c-.26-.48-.28-1.39,0-1.77l.69-.81c2.78,1.32,2.14-3.72-.34-3.37-.62-3.19-.01-4.23,1.83-3.14-1.86-.77-2.45-1.72-1.75-2.82-.7-.93-.69-2.59,0-3.53-.35-1.72-.4-3.56,0-5.29.05-.88,1.01-1.19,1.32-.45.37.16.37.3,0,.45l2.65,5.29c.37.18.37.32,0,.45l.88.88c.66.06,1.1.63.45.88.7.52,1.29,1.11,1.77,1.77.37.19.39.34,0,.45,1.39.96.95,1.55-1.32,1.77.35.18.36.33,0,.45.43,3.17,2.85,2.66,4.85.88-.39-.19-.4-.34,0-.45.21-.32.18-.55,0-.88-.49-.19-.55-.76,0-.88-1.03-.78-1.32-1.37-.88-1.77.18-.39.32-.39.45,0l.88.88c.19-.35.34-.36.45,0l.45.45c.18-.37.33-.39.45,0l.45.45c.15-.39.3-.39.45,0l.45.45c.18-.39.33-.4.45,0l1.77,1.77c.37.15.37.3,0,.45l.45.88c.28.18.29.33,0,.45.11,1.41-.2,1.7-.88.88-.75-.26-1.44-.21-2.2,0-.46,1.31-.9,1.46-1.32.45-1.55-.45-2.8-.15-1.91,1.69l-.29.52.39.49c-1.18.9-1.51,2.65-1.18,4.05l-.53.3.88.88c.15-.39.3-.39.45,0v.88c-.12.76-.95,2.12.22,2.64,1.02.45.48-1.5,1.32-1.76,2.85-.87,2.08,4.01,1.97,5.28h-.04Z"/>
  <path class="cls-23" d="M37.19,75.39l-.45-.45c-.13-.14-.39-.23-.45-.45.2-.13.2-.27,0-.45-.06-.26.07-.63,0-.88.2-.13.2-.27,0-.45-.08-.5-.54-1.11-.46-1.75-1.16-.28-1.77.32-2.62.87-.48.19-.63.46-.88.88-.62-.02-.76-1.29-.88-1.77-.4-.32-.82-.49-1.32-.45-.28,0-.6-.02-.88,0-.64.11-.84.13-.45-.45.7-.95.19-1.45-.88-1.77-.69-.78-.32-1.3.45-1.77,1.78.39,3.96.88,5.56.94.84.04,1.57.05,2.37.39.36.16.37.3,0,.45-.01,1.51.87.63,2.08,1.22.87.41,2.11,1.51,2.75,1.67.96.26,2.28-.83,2.66.19-1.37.7-1.37.84,0,.45.12.02,1.36,1.37,1.72,1.62-.48,1.3.18,2.85.06,3.89-.11.89-.75.88-.9,1.11q-.69-.38,0,0c-.16.25.47,1.04-.88.88l-.88-.45c-1.46-.73-1.16-1.17-1.35-1.3-.63-.45-2.89,3.15-5.27,1.53-2.17-1.48,1.53-1.97,1.67-2.08.22-.18.28-1.59.97-1.89-.34-.57-1.22.14-1.76.22v.02Z"/>
  <path class="cls-23" d="M27.5,71.41v-.45h.45c-.07.2-.25.42-.45.45Z"/>
  <path class="cls-23" d="M27.08,71.41c-2.35-.49-1.01-3.3-1.32-5.29.27-.07.68.08.88,0,.91.19,1.36.93,1.32,2.2,1.22-.5,1.83,1.31.88,1.77-.2.43-.64.73-1.32.88l-.45.45h.01Z"/>
  <path class="cls-23" d="M11.2,54.24c-.34-.26-.22-.54,0-.88.27-.41.7-.86,1.32-1.32.04-.53-.12-1.41,0-1.77.5-.09.95-.25,1.32-.45.2-.69.59-.83.88-2.65.22-.34-.07-.34-.88,0-1.44-.32-1.25-1.36-1.57-1.36-1.14-.04-1.73,1.28-2.4,1.79h-.88c-2.83-.95-.22-1.64.75-2.34.28-.2.37-1.04.82-1.16.73-.19,1.71,1.09,2.39,1.3.12-.15-1.36-3.81.89-2.87.57.25.98,1.31,1.31,1.55.45.93.74,1.08.88.45.78.15,1.82-.09,2.78.09.54.11,1.5.89,1.63.8.09-.07.45-2,1.55-1.76.55.13.57,1.24.67,1.32q-.3.16,0,0c.7.61,2.3.93,2.65,2.2l-.45.45c-.22.34-.37.88-.88.88l-.45-.45c-.26-.22-.41-.55-.88-.88-.22-.39-.45-.48-.88-.45-1.51-.67-.42-.07-1.18.45-.45.3-1.42.37-1.46.43-.15.18.95.93.88,1.76-.14.97.01.97.45,0,4.13,4.57-1.5,2.01-1.76,2.2-.19.13-.29,2.49-.87,2.9-.48.34-1.21-.13-1.55-.02-2.92.91-2.37,1.76-5.08-.25v.02Z"/>
  <path class="cls-23" d="M26.63,7.96c.54.05.54-.11,0-.45.04-.14-.06-.34,0-.45l.45-.45c.42-.52,1.32-1.03,1.32-1.11.01-.23-2.9-4.63,0-2.42q-.3.16,0,0c1.16.88.61,1.39,1.12,2.18.13.2,2.9,3.4,3.08,3.55.5.43,1.32.37,1.45.5.14.14.16,2.9.07,3.02-1.02.12.2.89.88.45,2.04,2.33-1.64,1.18-1.76,1.32-.22.27,1.08,2-.22,2.65-.93-.48-.12-2.13-.21-2.2-.13-.08-2.71-.41-2.9-.41-1.8.09-.67,2.8-3.71,2.61-.39,0-.71,0-.88.45-.08.14.07.62,0,.88-2.69-.2-.45-2.47-.48-2.87-.05-.43-1.64-.88-1.73-1.34-.09-.5.78-1.04.78-1.31.01-.5-1.99-1.31-1.66-2.64.36-1.46,2.11.25,2.65.01.68-.3,1.29-1.97,1.76-2v.02Z"/>
  <path class="cls-23" d="M88.34,74.46c-.21-.01-.61-.46-1.1-.41-.77.08-1.24,1.02-2.12.82-1.91-.45-1.04-3.83-.73-5.24.9-.56,2.66,1.15,3.06.87.09-.07.22-1.22.45-1.32-.12-.54,1.29-1.07,1.05-.63-.12.21-1.16.26-1.05-.25v-1.32h2.65l-.45-2.2c.02-1.11,2.44-.61,2.2.45l1.77,1.32c.19-.36.34-.37.45,0,.37.18.39.32,0,.45v.45c-1.67,1.63-3.08,1.19-3.08,3.97v.88c.02.54.89,1.22.23,2.23s-1.38.01-1.56-.01c.3-.86-.88-.46-1.77,0v-.04Z"/>
  <path class="cls-23" d="M82.59,78.03c.04.48.45,1.04.4,1.55-.2,2.07-3.22,5.29-5.25,5.77-1.38.33-3.68-.68-5.29-.26-.05-1.42-.32-2.92,1.32-3.36.81-.22,2.04,1.29,2.21.05.14-1-1.26-.88-1.35-1.34-.52-2.95,2.89-.28,3.77.68.48-.12.14-.91.22-1.32-.23-.6-.08-.88.45-.88.13-.09.37-.33.45-.45h0c.62-1.02-1.03-3.56.67-3.97.18-.05,2.49,1.99,2.67,2.21.23.3-.26.42-.26.42v.88h-.01Z"/>
  <path class="cls-23" d="M109.49,58.19c1.12.4,1.08,4.37.8,5.39s-2.47,3.4-2.52,3.71c-.08.53.64.93.77,1.37.4,1.37-2.18,3.37-3.9,2.53-1.86-.91-.16-2.2-.16-2.65,0-.33-.91-.96-.75-2.18.05-.36,1.32-2.24,1.58-2.44.69-.53,1.49-.36,1.94-.7.13-.09,1.65-1.49,1.71-1.59.5-.89-1.03-2.24-.81-3.22-.01-.39.59-.22.89-.22.13.2.27.2.45,0h0Z"/>
  <path class="cls-23" d="M80.84,100.94c-.8-3.02,2.01-.85,2.56-2.49s.46-2.76-.36-4.11c1.14-.63,1-.78-.45-.45-.11-.19-.75.14,0-.68.47-.53,2.87-2.75,3.38-2.79,3-.23-.34,4.15.15,4.78,3.22-.21.36-3.08,3.53-3.08,1.07.21.61,1.58,0,2.2-.41.28-1.28.39-1.32.45-.12.15,1.35,1.9.84,2.6-2.07.98-2.38,1.14-4.37.05-.26-.21-.55-.34-.45,0,1.52,2.69-.94,4.15-3.53,3.53Z"/>
  <path class="cls-5" d="M80.4,134.45c-1.14.57-1.97.59-3.08.88-.37.09-.59-.07-.45-.45-.14-.06-.36.06-.45,0l-.88-.88c-.36-1.65.48-3.47,1.32-4.85-.14-2.51.6-3.23,2.2-2.2.49-.13.97-.36,1.32-.45.49-.2.94-.2,1.32,0,.56.94.18,1.29-.77,1.53,1.44,1.1,2.28,2.2,2.54,3.31-.08.27.21.89-.08,1.22-.11.12-2.08,1.16-2.56,1.43h-.45q-.81-.45,0,0v.45h0Z"/>
  <path class="cls-23" d="M109.02,36.57c-.21.14-.21.29,0,.45.57,1.05,1.29,2.07.16,3.12-2.04.45-2.82-1.77-3.1-1.83-.83-.16-3.23,1.28-3.6-.69-.05-.26,1.17-3.61,1.49-3.68,1.34.18,1.15,2.03,2.64,2.21,1.26.16.2-1.8,1.56-2.46,2.1-1.01,1.92,1.29.88,2.89h-.02Z"/>
  <path class="cls-23" d="M78.23,65.68c.94-.04,3.63.27,3.91,1.14.25.76-.43,1.77-.42,2.59.01,1.02,1.19,3.23-.28,3.71-.82.27-4.29-1.38-4.51-2-.87-2.42,1.22-2.79,1.25-3.08.06-.43-.61-1.55.04-2.34h.01Z"/>
  <path class="cls-23" d="M43.82,133.12c.09.64.12,1.62-.22,2.19-.19.33-3.21,3.16-3.3,1.99-.07-.97.53-1.62.89-2.41-1.86-.87-2.72,1.32-2.93,1.36-1.09.2-3.51-1.41-2.6-2.71.47-.67,1.67.21.67-2.18.74-.78,1.98,3.55,4.84,1.52.55-.4.87-1.34,1.34-1.53.13.2.27.2.45,0,.82.12.68.86.88,1.32v.45h0Z"/>
  <path class="cls-70" d="M79.52,116.36c-.89,1.08-4.68.4-4.93-.63-.28-1.15,1.9-.62,2.73-.25l.12-.54c2.01-.16,2.89-3.13,1.21-3.88-.15.01-.3-.01-.45,0-1.48-.39-.88-1.18.29-1.72,1.52-.69,3.13.06,4.11,1.29.06.11-.05.3,0,.45l.45,1.32c0,.39.08,1.03,0,1.32-.3,1.57-2.14,3.24-3.53,2.65h0Z"/>
  <path class="cls-23" d="M103.81,43.55c.15.23,1.07.25,1.42.55.53.46.74,1.05,1.21,1.45s3.85,1.69,1.75,3.16c-1.67,1.18-2.13-1.01-2.65-1.34-1.23-.76-4.08,1.79-2.87-3.31-.9-1.19-1.52,2.55-1.99.23,1.62-1.1.69-3.01,3.08-2.44.07.49-.18,1.32.07,1.7h-.01Z"/>
  <path class="cls-40" d="M56.61,117.25c-.59-.02-1.21.07-1.77,0-1.97-.53-3.29-1.55-3.97-3.08-.02-.01-.01-.34,0-.45-.71-1.89,1.34-4.68,3.08-3.53.23-1.14,2.73-.01,2.24.47-1.44.2-2.51.57-2.24,2.18.55,1.08,1.08,1.7,2.2,2.2.61.01.82.39.45.88,1.1-.14,1.53.01,1.32.45-.26.41-.69.7-1.32.88h.01Z"/>
  <path class="cls-23" d="M90.97,137.53c.37.53-.52,2.08-1.16,2.17-.5.07-.95-.71-1.62-.74-1.67-.06-2.54,1.41-3.27,1.59-.34.08-1.83-.3-1.89-.39-.12-.15.75-3.02.9-3.71.78-3.49,3.98,1.36,4.6,1.41.23.02,1.87-1.09,2.42-.32h0Z"/>
  <path class="cls-23" d="M88.77,105.38c.36-.15.36-.29,0-.45,0-.08-.62-.28-.26-.87.41-.66,1.51-.88,1.98-1.6.56-.89.52-3,1.36-3.49,2.13-1.25,1.99.7,1.48,2.37-.28.89-1.01,1.3-1.03,1.38-.82-.05-.82.09,0,.45-.07.25-.43,2.71-.4,2.85.14.6,1.19.6,1.26.69.78,1.05-2.54,2.31-1.31-.46-2.14.4-2.13,1.15-3.08-.89v.02Z"/>
  <path class="cls-42" d="M55.3,135.32c-.21-.21-.5-.21-.88,0-.15-.01-.32.02-.45,0l-.45-.45c-.14-.05-.33.05-.45,0l-.45-.45c-.12-.07-.34.07-.45,0v-.45c-.47-1.24.28-3.63,1.77-3.08.18-1.32.52-2.35,1.32-.88-.13-1.17.16-1.41.88-.45.53.63.97,1.36,1.32,2.2.04.13-.02.29,0,.45v.45c0,.28.04.61,0,.88-.25,1.04-.54,1.48-.88,1.32-.15.01-.3-.02-.45,0-.39-.48-.53-.33-.45.45-.14.02-.3,0-.45,0h.02Z"/>
  <path class="cls-23" d="M22.44,22.47c1.15-.04-.14-2.28.88-2.62,1.97.64,3.38,4.38,1.36,5.32-3.05,1.41-2.34-.56-3.35-1.58-.33-.33-2.85-.88-1.76-1.98.64-.64,2.72.87,2.87.87Z"/>
  <path class="cls-23" d="M35.46,63.48c-1.56-.15-1.02-1.01-1.32-1.32-.22-.22-1.79-.07-1.32-1.53.23-.74,1.3-.53,1.76-.67.66.53.34,1.98-.45,2.2.46-.77.9-1.22,1.32-1.32,1.67-.05,3.81-1.6,5.12-1.76.97-.12,1.46.4,1.93.43.67.56.35.69-.45.88-1.86,2.8-5.13,1.25-5.73,2.2-.21.33-.53.63-.88.88h.01Z"/>
  <path class="cls-41" d="M60.56,59.08c-.26.59-.55.73-.88.45-.48-.13-.62-.71-.45-1.77.52-1.65,1.39-3.27,2.65-4.85.05-.13-.05-.32,0-.45.61-.91,1.19-1.65,1.77-2.2.3-2.35,2.48-3.67,1.32-.45.26,1-.34,2.18-.88,3.08-.05.14.05.32,0,.45-1,2.27-2.18,4.18-3.53,5.73h-.01Z"/>
  <path class="cls-23" d="M108.54,55.92c-.46.28-1.53-.02-2.14.07.42-2.86-.37-1.99-2.6-2.68-.55-1.41.91-2.9,2.3-2.55,1.14.28.94,1.66,1.31,2.03.29.28,1.15.15,1.45.53.4.49.02,2.41-.32,2.61h0Z"/>
  <path class="cls-23" d="M27.7,24.2c.83-3.42,3.61-2.41,4.22.47l-.88.45c-.15-.01-.3.02-.45,0-.33-.05-.48.09-.45.45.39,3.41-3.64,3.57-2.45-1.36Z"/>
  <path class="cls-23" d="M99.8,59.93c-.19-.93,1.44-2,2.2-2.2,1.3,1.99,1.43.87,2.69,1.11,1.52.29,1.43,1.99,1.22,3.26-1.97.28-6.14.67-6.13-2.16h.01Z"/>
  <path class="cls-23" d="M25.31,42.73c-.12.07-.21.66-.7.83-1.45.5-1.07-.53-1.07-1.71.54-.13.54-.27,0-.45-.07-.01-.33-.81-.89-1.09-.32-.16-2.16.09-2.18-.89-.01-.6,1.77-.59,2.19-.88.56-.39.52-1.44.88-1.98.23-.35.64-.32.88,0,.3.96-.14,3.84,0,3.97.12.12,1.76-.28,2.2.67.66,1.38-.81,1.03-.88,1.1-.29-.29-.45-.14-.45.45v-.02Z"/>
  <path class="cls-23" d="M102.43,74.95c.11.41.81.77.84,1.51s-.61,1.78-.4,2.67c-.06.22-.23.25-.43.22l-.45-.45c-1.86-.25-2.96.14-.88-2.2.57.14.57-.01,0-.45-4.32-1.11.76-5.97,1.72-2.75.18.61-.4.93-.4.98-.96.07-.96.22,0,.45h-.01Z"/>
  <path class="cls-23" d="M97.6,130.48c-.02.07-1.24,1.07-1.31,1.1-1.5.8-2.48-2.86-.22-3.31,1.82-.36,2.28.59,3.55.86.54.12,2.9-.75,2.39.91-.55.22-1,.52-1.32.88-.39.15-1.44.46-1.77.45-.66-.56-1.09-.87-1.32-.88h.01Z"/>
  <path class="cls-58" d="M60.13,117.69c-2.78,2.45-2.14-.19-.45-1.77-1.05-.42.05-.52,0-.48-1.1.68-1.83.62-3.08.48-.45-.2-.5-.4-.45-.88h.45c.28,0,.6.04.88,0l.88-.45c.26-.07.67.08.88,0l.45-.45c.14-.05.32.05.45,0l.88-.88c.12-.06.33.06.45,0,.49-.39.93-.53,1.32-.45,1.17-.85,1.6-.7,1.32.45-.15.16-.27.29-.45.45.29.6-1.04.59-.98.56.41-.16,1.17-.21.98.32-.01.15.04.33,0,.45l-.45.45c-.06.13.06.34,0,.45l-.45.45c-.28.29-.25.66-.88.88-.48.6-1.3,1.24-1.77.45h.01Z"/>
  <path class="cls-23" d="M49.53,60.38c-.35.57-1.82.68-2.2,0-.21-.9.43-1.91.45-2.65l-.45-.88c-.04-1.02.2-2.05,1.52-1.78.29.06.34.82.71,1.07.73.47,1.05.29,1.73,1.16-1.41.3-1.41.45,0,.45-.2,1.05-.5,1.69-.88,2.65-.3.27-.59.23-.88,0h-.01Z"/>
  <path class="cls-23" d="M27.52,59.07c.35-.11,2.59-.47,2.86-.45,2.59.21,1.39,4.17-.66,2.65.87-.69-.64-.37-.45,0,.05.28-.01.6,0,.88l-3.08-.45c0-.69.22-2.35.88-2.64.13.2.27.2.45,0Z"/>
  <path class="cls-23" d="M53.5,19.37c-.13-.21-.27-.21-.45,0-1.17-.67.9-2.48.71-3.76-.02-.2-.9-1.26-1.15-1.52-.12-.21-.27-.21-.45,0-.6-.36-.19-.69.2-.9.95-.52,1.45-.23,2.14-.43.53-.15.15-1.02.53-.87,1.41.57,0,1.99-.22,2.65q-.09-.12,0,0c-.42,1.22-.11.75.45,1.77-.2.11-.2.35,0,.45q.09.12,0,0c-.19-.15-.19-.29,0-.45.11.19.74.08.69.89s-.33,1.9-1.12,2.19c-.39-.25-.68-.25-.88,0-.14,0-.32.02-.45,0h-.01Z"/>
  <path class="cls-23" d="M97.59,86.39l-.88-.45c1.3-1.03,2.04-3.07,3.96-2.65l.9,3.31c-1.97,1.78-2.44,1.1-3.98-.22h0Z"/>
  <path class="cls-23" d="M74.67,66.98c-.2,1.07-2.52,1.55-1.32,3.53-.52-1.24-3.98-2.31-3.31-3.54.81-1.5,3.6-1.38,5.08-1.3,0,.29.01.59,0,.88l-.45.45h0Z"/>
  <path class="cls-23" d="M103.32,89.03q.65.97,0,0c.15-.29-.29-1.24.22-1.32,4.51-.52,1.53,6.25-.62,4.81-.33-.22-.57-2.17-.41-2.74.15-.52.76-.66.81-.74h0Z"/>
  <path class="cls-23" d="M92.86,124.51c.23-2.13,6.96-.91,5.61,1.11-.16.26-5.81.64-5.61-1.11Z"/>
  <path class="cls-28" d="M58.94,120.2c.12.48-.77,1.51-1.02.57-.3-.57.94-.9,1.02-.57Z"/>
  <path class="cls-28" d="M58.79,125.63c-.14.02-.3,0-.45,0-.98-.32-1.92-.86-2.65-1.32-.06-.2,0-.6,0-.88.23-1.69.82-2.56,1.77-2.65h.45c.82-.27.9.28.45.88v.45c.06.12-.06.32,0,.45,2.51.3,2.75,1.6.45,3.08h-.01Z"/>
  <path class="cls-23" d="M85.47,86.39c-7.09,1.26-1.21-7.13-.22-2.65-.04.43-1.1.74-1.11.67-.04-.13.89-.76,1.11-.22,1.11.71,1.9,1.9.22,2.2Z"/>
  <path class="cls-17" d="M39.85,68.76c-.29-.14-.57-.32-.88-.45-1.11-.08-1.85-.37-2.2-.88,1.01-.67,1.91-.37,2.82-.93,1.03-.62,1.11-1.92,1.58-2.6h.45c1.26.25.11,2.11-.9,3-.05.05.57-1.24.9-.35,2.07.53-.29,2.65-1.32,2.65,0,0-.45-.45-.45-.45Z"/>
  <path class="cls-23" d="M108.18,123.44c.06.08.4.06.43.22.29,1.85-3.17.49-3.46.14-.27-.33,0-1.19-.07-1.69l-1.15,2.23c-1.49-.05-2.59-.98-2.82-2.45l3.97-1.11c.05.43-.06.9,0,1.32.93-.13,2.49.59,3.08,1.32q-.12.09,0,0h.01Z"/>
  <path class="cls-17" d="M97.59,61.73c-.05-.06-1.25-.45-1.32-.45l-.45-1.76c3.17,1.69,3.16-2.12,6.17-2.21.01.14.02.32,0,.45-.3,1.62-1.29,1.64-2.2,2.2-.46.28-.82.86-.88.88-.37.46-.81.75-1.32.88h0Z"/>
  <path class="cls-23" d="M108.18,80.23c.23-.23.53-.41.81-.29.26.11-.25,2.33-.37-1.03.11-.25-.15-1.17.01-1.31.22-.19,1.66-.07,1.99.4.77,1.11.37,5.12-1.89,4.15-1.31-.56-.62-1.32-.56-1.92h.01Z"/>
  <path class="cls-17" d="M20.89,59.95c-.01-.82.4-1.31.45-1.77.2-.47.33-.9,0-1.32.14-.39.16-.53.45-.88,1.59-.8,2.83-.27,3.72,1.62l-.64,1.03-.88.88-2.72,1.02-.36-.57h-.01Z"/>
  <path class="cls-17" d="M54.85,61.27c-.41.84-.93.84-1.32,0-.55-.09-.7-.23-.45-.45,3.22-.63,5.75-3.37,7.05-6.17.08-.53.36-.78.88-.88.19-.13.41-.8.88-.88-.78,1.93-1.12,3.06-2.65,4.85.12.42-.02.57-.45.45-.66.84-1.35,1.66-2.2,2.2h-.45c.13.52-.32.81-1.32.88h.02Z"/>
  <path class="cls-23" d="M24.85,58.62v-.59c-1.37-.33-.66-1.76-.87-2.06-.06-.09-1.71.46-2.2,0,1.11-1.43,2.93-.25,4.81-.86,1.1,2.05-.63,2.38-1.73,3.5h-.01Z"/>
  <path class="cls-23" d="M53.96,56.42c-2.1.05-1.05-1.41-.88-2.2.16-.21.16-.35,0-.45.52-1.29,1.51-2.82,2.41-.88.36.8.96,4.24-1.1,3.53-.23-.36-.39-.39-.45,0h.01Z"/>
  <path class="cls-23" d="M57.04,14.53c-.01-.07-.62-.5-.45-1.07.81-2.6,4.04,3.27,1.98,4.16-1.69.73-1.46-2.21-1.53-3.08q.3-.16,0,0h0Z"/>
  <path class="cls-53" d="M68.5,40.54v6.62c-1.11.01-.78-2.67-.45-3.53-.36-2.37-.61-4.7,0-7.05v-8.37c.18-.37.32-.39.45,0l.59.29c-.71,2.8-.56,6.9.04,9.5l-.62,2.55h0Z"/>
  <path class="cls-45" d="M52.22,134.04h-.45c-.16-.13-.3-.3-.45-.45-.29-.77-.63-1.73-1.01-2.88l.56-.21c-.81-1.67,2.41-2.1,2.2-.45,1.64-.93,1.96-.7.88.88-.63.84-1.12,2.18-1.77,3.08l.02.02Z"/>
  <path class="cls-66" d="M63.65,50.28c-.27-.3-.18-.57,0-.88,0-.15-.02-.3,0-.45l.45-.88c.05-.14-.05-.32,0-.45l.45-.45c.05-.14-.05-.32,0-.45l.45-.45c.05-.14-.04-.32,0-.45l.45-1.32c.04-.14-.04-.3,0-.45l.45-.88c.07-.25-.07-.62,0-.88.97-1.41,1.29-.39.88.88-.05.28.05.6,0,.88l-.45,1.32c-.01.29.01.59,0,.88-.18.37-.32.39-.45,0-.27.26-.27.55,0,.88v.45c-.01.28.05.61,0,.88l-.45.88c-.04.14.04.3,0,.45-.18.37-.32.39-.45,0,.05-.43-.02-.89,0-1.32h-.43c.06.82-.54,1.22-.89,1.76v.04Z"/>
  <path class="cls-23" d="M27.95,104.03c.41.53,2.16,2.23,1.32,3.08-1.28,1.31-4.36-4.32-2.42-4.39,1.02-.04,1.04,1.24,1.1,1.31q-.16.29,0,0Z"/>
  <path class="cls-17" d="M57.46,120.78c-.7.81-1.19,1.76-1.77,2.65-.02-.68-.02-1.18.11-1.86.18-.86,1.03-.59.34-1.22-.71.09-1.15-.05-1.32-.45.11-.57.89-.45,1.32-.45l.45-.45c.61-.54,1.45-1.01,1.77-1.76-.59-.02-1.18.02-1.77,0,.2-.63.66-.91,1.32-.88.36-.41,1.31-.81,1.77-.45l.88.22-2.2,1.98c.62.04,1.22-.22,1.77-.43.36,1.36-.52,2.39-2.65,3.08h-.01Z"/>
  <path class="cls-13" d="M68.5,53.56c-.02.61.3,1.8-.45,1.98l-.45-3.53c-.21-2.64.02-5.67,0-8.37.18-.37.32-.39.45,0,.01,1.1-.34,2.8.45,3.53,0,2.12.08,4.27,0,6.39Z"/>
  <path class="cls-63" d="M68.94,17.21c0,1.17-.01,2.35,0,3.53-.18.37-.32.39-.45,0-.34-3.23-.36-6.48,0-9.7-.87-.69-.83-1.48,0-2.2-.19-.19-.2-.33,0-.45-.6-.37-.52-.84,0-1.32v-2.21c.02-.28-.01-.59,0-.88.75.08.8,1.64.45,2.2.45,3.06.29,6.17,0,9.25v1.78Z"/>
  <path class="cls-56" d="M78.64,117.26c-.57.06-1.65.08-2.2,0l-.45-.45c-.26-.07-.69.08-.88,0-.47.25-.91-.05-1.32-.88-.5-.57-1.17-1.5-.45-1.77.23-.42.52-.26.88,0,.15.01.32-.04.45,0l.45.45c.28.02.59,0,.88,0,1.49.12,1.92.41,1.32.88-.66.12-1.51-.09-2.2,0,.63,1.3,3.06,1.15,4.4.88.15.39-.14.68-.88.88h0Z"/>
  <path class="cls-7" d="M41.62,66.56c-.4.11-1.05,1.16-1.32.66.16-1.1,1.11-1.84,1.56-2.83.11-.22-.22-.47-.22-.47v-.45c.82-.98,1.25-1.12,1.32-.45l.48.48c1.16-1.48,5.12-1.75,3.92.4.28.57.11.7-.45.45h-.45c-.2-.22-.49-.22-.88,0-.28,0-.63-.05-.88,0l-.45.45c-.14.05-.34-.06-.45,0l-.45.45c-.27.21-.33.34-.45.45.19.4-.11.69-.88.88-.14.04-.3-.04-.45,0h.01Z"/>
  <path class="cls-37" d="M67.62,95.66c-.18.37-.32.39-.45,0-.34-4.11-.35-8.25,0-12.34v-3.09c.18-.37.32-.39.45,0,.53,1.87.3,3.82,0,5.73v.45c.36.87.36,1.77,0,2.65v6.62Z"/>
  <path class="cls-60" d="M95.41,66.11c.13.89-.25,1.09-.88.45-.12.05-.29-.04-.45,0-.6-.2-1.19-.63-1.77-1.32-.32-.16-.43-.53-1.09-.7-.59-.15-.95.27-1.11.27-.43.02-.89-.04-1.32,0-.13-.2-.27-.2-.45,0h-.45c-.37-.18-.39-.32,0-.45,1.08-2.72,4.73-.83,6.61.45.5.21,1.15.82.88,1.32h.02Z"/>
  <path class="cls-27" d="M67.17,111.09c0,1.76-.02,3.54,0,5.29-.8.39-.88-.83-.45-1.32-.46-2.95-.46-5.89,0-8.82v-4.86c.18-.37.32-.39.45,0,.09,2.72.25,5.46.45,8.25l-.45.13c.85.4.85.93,0,1.32h0Z"/>
  <path class="cls-17" d="M69.36,38.35c-.52.89-.3,1.57-.88,2.2v-12.34c-.25-.76-.12-1.01.45-.45.13.15,1.14-.43.89.66-.09.43-.82-.11-.93.86-.3,2.65.29,5.9.04,8.63.8-.21.94-.75,1.32,0-.42.71-.71.87-.88.45h-.01Z"/>
  <path class="cls-11" d="M76.87,56.88c-.71,1.93-1.9.09-2.2-1.35l-.45.02c-.22.35-.57.27-.88,0-.07-.09.06-.32,0-.45l-.45-.45c-.05-.13.04-.3,0-.45l-.45-.88c-.02-.15,0-.3,0-.45-.25-.3-.3-.61,0-.88-.39-.98-.87-2.48.45-2.2l1.77,3.08c.06.13-.06.33,0,.45l2.2,3.08c.05.14-.05.33,0,.45h0Z"/>
  <path class="cls-50" d="M70.7,46.28c-.18.37-.32.39-.45,0-.05-.26.05-.6,0-.88.01-.78-.14-1.51-.45-2.2-.02-.15.02-.3,0-.45l-.45-1.77c-.01-.15,0-.3,0-.45.2-.13.2-.27,0-.45v-1.77c.21-.36.48-.45.88-.45.05.09-.02.28,0,.45-.2.13-.2.27,0,.45.07.56-.09,1.24,0,1.77l.45,1.77c.02.14-.02.3,0,.45l.45,1.32c.02.15-.02.3,0,.45l.45.88c.04.28,0,.59,0,.88-.16.52-.75.46-.88,0Z"/>
  <path class="cls-17" d="M53.49,74.49c-2.26.45-1.64-1.73-2.01-2.23-.22-.29-1.77-.47-1.07-1.29.2-.23,3.01-.41,3.53-.45l-1.76.45c.9,1.56,2.81,1.96.45,2.86l.88.66h-.01Z"/>
  <path class="cls-9" d="M53.5,61.26c-.91,1.35-3.47,1.32-4.4,0-.13-.21-.27-.21-.45,0-.27,1.34-2.55,1.11-3.08,0-.88-.15-.82-.66,0-.88.56-.08,1.19.06,1.77,0,.71-.07,1.48.02,2.2,0,.69.15,1.28.29,1.77.45.41-.57.78-.69.88,0,.28-.04.62.05.88,0l.45.45h-.01Z"/>
  <path class="cls-46" d="M70.72,112.85c.48.68.41,1.31-.45.88-.74-.62-1.32-1.51-1.77-2.65-.05-.12.05-.3,0-.45-.77.02-.95-.33-.45-.88-1.59-3.15,1.15-.62,2.2.88.07.11-.07.34,0,.45.43.45.74.89.88,1.32.4.67.28.69-.45.45h.02Z"/>
  <path class="cls-23" d="M94.53,102.31c1.48-1.07,3.21,1.84,2.16,2.59-1.29.91-3.63-1.52-2.16-2.59Z"/>
  <path class="cls-74" d="M66.74,131.79c1.17.48,1.3,1.23,0,1.32-.18.37-.32.39-.45,0-.36-3.3-.26-6.79,0-10.14v-3.53c.6-.29.81-.09.45.45.47,1,.76,1.98.88,2.94-1.04.11-1.02,2.25,0,2.52.21.91.29,4.71-.88,4.68v1.77h0Z"/>
  <path class="cls-17" d="M67.62,70.08c.42.6.32,1.93-.45,1.32.01-3.6-.05-7.21,0-10.81,0-.74-.28-1.96.45-2.41.41,1.21.37,2.75,0,3.97.35,2.6.4,5.35,0,7.94h0Z"/>
  <path class="cls-23" d="M26.19,99.61c.18-.3-.53-1.21,1.07-.87,1.19.25,1.6,1.34,3.34.43-.55,1.75-1.7.83-2.65,1.09s-3.07,2.14-2.2-.21c.4-.13.55-.27.45-.45Z"/>
  <path class="cls-61" d="M68.94,27.75l-.45.45h-.45v-3.97c-.52-.54-.69-.97,0-1.32v-2.2c.18-.37.32-.39.45,0h.45v.45c-.34.56-.33,1.22,0,1.77,0,.8-.15,4.66,0,4.85h0Z"/>
  <path class="cls-23" d="M21.78,136.64c-1.79.14-3.21-1.38-3.53-3.08.35-.35,1.78,1.01,2.2,1.32.12.21.26.21.45,0l1.56.88c.48.46-.23.45-.23.45l-.45.45h0Z"/>
  <path class="cls-17" d="M67.17,83.31v12.34c-.18.34-.32.35-.45,0,0-3.08.01-6.17,0-9.25-.18-.25-1.12,1.11-1.31.88-.74-.88.88-.95,1.1-1.3.49-.78-.16-2.11.66-2.67h0Z"/>
  <path class="cls-30" d="M55.27,130.04c-.8-.54-1.53-.98-2.2-1.32-1.03-.2-1.77-.64-2.2-1.32-.22-1.25,1.42-1.32,2.2-.45.15,0,.3-.02.45,0,.2.22.49.22.88,0,.27.04.81-.07.88,0,.07.08-.06.61,0,.88.41.61.7,1.19.88,1.77-.29.13-.57.34-.88.45Z"/>
  <path class="cls-23" d="M96.27,72.74c1.94-.2,2.95.01,2.65,2.2-1.94.2-2.95-.01-2.65-2.2Z"/>
  <path class="cls-60" d="M86.13,60.82c.29-.02.59.02.88,0,.37.18.39.32,0,.45-.67.45-1.73.13-.88-.45Z"/>
  <path class="cls-60" d="M94.49,64.35c-1.03-.16-2.14-.57-3.34-1.23-2.14.06-3.53-.41-4.15-1.42-.37-.18-.39-.32,0-.45.8-.62,2.17-.77,3.08-.45h.45l.88.45c.14.04.3-.02.45,0l1.77,1.32c.37.16.37.32,0,.45l.88.88c.04.15-.05.32,0,.45h-.01Z"/>
  <path class="cls-44" d="M58.8,121.21c-.06.11.05.3,0,.45-.16.2-.3.2-.45,0-.11-.3-.33-.57-.45-.88.21.2.7-.41.22-.45-.15-.01-.32.35-.22.45h-.45c.93-1.05,2.27-1.6,2.65-3.08.89-.33,1.64-.4,1.77-.45v.45l-.88.88c-.07.11.07.35,0,.45l-2.2,2.2h0Z"/>
  <path class="cls-23" d="M106.84,83.76c.19-.36-.32-1.46,1.1-.88,2.62,1.09-3.89,6.28-1.1.88q.29.16,0,0Z"/>
  <path class="cls-23" d="M109.49,113.96l-1.99,2.86-1.1-1.1c.09-.33.94-.47,1.18-.81.53-.71.37-2.67,1.91-.95Z"/>
  <path class="cls-23" d="M107.73,127.83c1.44-.82,2.2,1.76,1.76,2.2-.16.16-3.36.55-2.2-1.76l.45-.45Z"/>
  <path class="cls-52" d="M53.95,112.85c-.64-1.9-.06-1.66,1.77-2.42-.01-.37-1.39-.27-1.77-.22-2.66-.36.6-2.06,2.2-.45.16.09.33.29.45.45.52.32.67.61.45.88l-.45.45c-.26.19-.55.05-.88-.45-.06-.04-.35-.02-.45,0-.57.47-1.01,1.05-1.32,1.77Z"/>
  <path class="cls-23" d="M33.22,29.97c.66.16.67.84,0,.88-1.29-.2-2.64-.6-3.97-.67.04-1.45,2.39-1.25,3.24-1.01.53.15.6.7.74.8h-.01Z"/>
  <path class="cls-23" d="M99.79,135.77c.49.06,1.98.35,2.33.53,1.35.69,1,2.81-.35,2.12-.39-.2-.49-1.03-.77-1.22-.42-.29-.97-.01-1.21-.11-.55-.41-.74-1.35,0-1.32Z"/>
  <path class="cls-60" d="M82.61,65.25c-.13-.21-.27-.21-.45,0-.15-.02-.3.04-.45,0l-.45-.45c-.14-.05-.33.06-.45,0l-1.93-1.57c-1.05-.22-2.13-1.42-.7-1.52l.56-.39c2.35,1.83,3.82,2.67,6.88,2.17l.49.87c.39.42.09.71-.88.88-.45.01-.89,0-1.32,0-.3.22-.57.14-.88,0-.15,0-.3.01-.45,0h.01Z"/>
  <path class="cls-23" d="M23.98,59.5c-.54.55-1.37,1.15-1.63,1.46s-.29,1.57-.8,1.62c-.39.04-.66-2.38-.66-2.64,1.58.08,1.41-1.65,3.08-.45Z"/>
  <path class="cls-23" d="M87.73,132.72c2.92-.16,2.92,2.3,0,2.13-1.02-.52-1.02-1.62,0-2.13Z"/>
  <path class="cls-23" d="M44.25,46.5c-.35,1.21-1.24.22-1.32.22.02-.46-.27-.46-.88,0-.53-.15-.73.21-1.32-.45-.06-.39-.06-.68,0-.88,1.03-.28,4.12-.95,3.53,1.1Z"/>
  <path class="cls-36" d="M50.88,130.49c.07.12-.08.93.11,1.41s1.42,1.64.33,1.67c-1.48-.6-2.18-1.5-2.2-3.08v-.89c0-.45-.01-.88,0-1.32.09-.86.67-.73.88,0,1.09.14,1.63,1.42.88,2.2h.01Z"/>
  <path class="cls-17" d="M66.29,133.11c.33.82.14,1.09-.45.45.01-3.42-.36-7.31.45-10.58,0,3.2.29,7.06,0,10.14h0Z"/>
  <path class="cls-11" d="M78.19,61.75c-.43,1.3-1.71-.49-2.2-1.32-.07-.11.07-.34,0-.45l-1.32-1.77c-.06-.12.06-.33,0-.45l-.45-.45c-.06-.13.06-.33,0-.45l-.45-.45v-.45c.16-.28.32-.29.45,0,.83.53,4.4,4.25,4.33,5.12-.01.21-.18.41-.36.61v.04Z"/>
  <path class="cls-17" d="M66.74,106.23c0,2.93-.09,5.89,0,8.82-.18.37-.32.39-.45,0-.01-1.67.36-3.98-.45-5.29-.61-.14-.09-.68-.09-.63-.15.75-.93,2.13-1.66,1.51.87-1.85,1.89-1.9,2.11-2.3.32-.57-.21-1.75.54-2.11h0Z"/>
  <path class="cls-67" d="M68.05,70.11v7.5c-.18.37-.32.39-.45,0-.19-.54-.33-1.12-.45-1.77v-.45c.21-.13.21-.27,0-.45v-1.32c.21-.13.21-.27,0-.45v-.45c.21-.13.21-.27,0-.45v-.88c.57-.21.43-.84.45-1.32.18-.37.32-.39.45,0v.02Z"/>
  <path class="cls-17" d="M68.27,108.45c-.52.12-.07,1.1-.22,1.32-.25.82-.94.89-.88,0v-8.37c.18-.37.32-.39.45,0,.04,1.64-.32,5.01,0,6.3.05.19,1.92,1.91,2.65,2.95l-1.99-2.2Z"/>
  <path class="cls-17" d="M50.86,113.73c-1.84-2.75,3.2-6.73,5.29-3.97-.85-.47-1.7-.5-2.65-.43l.45.88c-2.6.34-1.6,2.12-3.08,1.32.6,1.14.09,1.59,0,2.2h-.01Z"/>
  <path class="cls-72" d="M74.2,117.25c-.76.85-1.79-.46-2.2-1.32-.25-.49-.25-.78,0-.88.56-.14.76-.16.88.45q.09.12,0,0l-.88-.45c-.16.28-.32.29-.45,0-.61-.36-.9-1.1-.88-2.2.09-.19.29-.32.45-.45l1.32.88c.12.06.32-.06.45,0,.63.41.78.7.45.88.19.57.28,1.18.45,1.77.74.61.88,1.04.45,1.32h-.02Z"/>
  <path class="cls-23" d="M75.99,76.69c-.21,0-.34.01-.43-.22-.61-2.31,2.97-3.33,2.19,0-.08.23-.22.22-.43.22-.55.2-.98.2-1.32,0Z"/>
  <path class="cls-23" d="M42.5,32.18c.14-.01,1.3-.88,1.76-.43,1.23,1.21-2.49,2.95-3.51.66.67-1.17,1.21-.21,1.31-.22.26.28.42.32.45,0Z"/>
  <path class="cls-17" d="M68.5,20.71h-.45c0-2.78-.12-5.61,0-8.37.02-.48-.13-1.11.45-1.32v9.7Z"/>
  <path class="cls-18" d="M51.75,122.54c-.3.48-.6.62-.88.45-.18.22-.32.23-.45,0-.13-.37.16-.67.88-.88.07-.09-.07-.37,0-.45l.45-.45c.09-.07.35.07.45,0l1.32-.88c.12-.05.3.05.45,0l.45-.45c.13-.04.3,0,.45,0,.71.01.77-.07,1.32.45-.39.29-.95.28-1.32.45l-.45.45c-.12.06-.33-.06-.45,0l-.45.45c-.59.29-1.17.62-1.77.88h0Z"/>
  <path class="cls-23" d="M39.42,36.15q.3-.16,0,0c-.14-.09-.78.12-.88,0-.29-.34.21-1.09.73-1.25,2.24-.73,3.33,1.35,1.03,1.96-.69.19-.68-.56-.89-.7h.01Z"/>
  <path class="cls-3" d="M64.09,113.27l-1.32-.45c-.05-.47.11-.74.45-.45l.88-1.77c.54-.57,1.12-1.04,1.55-1.76.4-.02.21.57.22.88,0,.14.02.33,0,.45l-.88,1.32c-.06.13.06.34,0,.45l-.45.45-.45.45c-.07.08.07.36,0,.45h0Z"/>
  <path class="cls-17" d="M68.93,15.42c-.05-3.07.01-6.17,0-9.25h.45c-.01,2.96.37,6.44-.45,9.25Z"/>
  <path class="cls-23" d="M94.93,77.79c-.4,1.7-3.78.06-2.64-1.09.22-.23,2.93-.13,2.64,1.09Z"/>
  <path class="cls-17" d="M68.05,36.57c0,2.34-.01,4.71,0,7.05h-.45c-.01-.96.32-2.48-.45-3.08-.41-.88-.28-2.39.45-3.08.07-.35,0-.74.45-.88h0Z"/>
  <path class="cls-23" d="M25.75,111.08c-.6-2.73,3.68-2.3,2.64-.89-.08.12-2.39,1.11-2.64.89Z"/>
  <path class="cls-23" d="M104.64,134.45c-.21.13-.21.27,0,.45.12.18.87.4.87.66,0,.82-.89,1.55-1.77.9-1.14-.83-.01-3.35.9-2h0Z"/>
  <path class="cls-23" d="M99.79,68.31c-.39-.18-.81-.46-.88-.88.12-.01.62-.84,1.35-.25.4.33.42,1.97,1.72,2.24l-1.75.67c.02-.64-.16-1.21-.45-1.77h0Z"/>
  <path class="cls-29" d="M72.91,49.8c-.01.27-.4,1.24-.45,2.2-.18.37-.32.39-.45,0-.05-.13.05-.3,0-.45l-.45-.88c-.04-.14.04-.3,0-.45l-.45-.45c-.01-.14,0-.3,0-.45-.26-.32-.33-.62,0-.88-.21-.46-.11-.93.45-.88.25-.35.55-.2.88.45.05.12-.04.3,0,.45l.45.88v.45h.01Z"/>
  <path class="cls-17" d="M68.05,77.58c0,2.71.56,5.95-.45,8.37,0-1.9.01-3.82,0-5.73-.35-.82-.34-1.83,0-2.65h.45Z"/>
  <path class="cls-23" d="M94.52,86.61l-2.21.22c-.2-1.24,1.12-2.48,2.16-1.72.06.05.67,1.31.06,1.5Z"/>
  <path class="cls-17" d="M87,61.71c-.41,1.17-1.14,1.25-1.32,0-2.89.22-5.09-.52-6.61-2.2-.98-.64-1.72-1.37-2.2-2.2-.37-.15-.37-.3,0-.45,1.18.64,2.37,2.56,3.08,2.88.53.23,1.25-.5,1.77-.68l1.34.22-.45,1.53c1.17-.05,2.37.07,3.53,0,.12.43.5.42.88.45v.45h-.01Z"/>
  <path class="cls-17" d="M87.01,61.27v-.45c.41-.04.77-.43.88-.45.46-1.17.87-1.17,1.32,0,.37.04.76.01.88.45-.75.02-1.85.52-3.08.45Z"/>
  <path class="cls-51" d="M79.07,120.33c.28.59.19.73-.45.45-.07.02-.45,0-.45,0l-.88-.88c-.12-.06-.34.07-.45,0-.62.48-1.77-.83-1.77-1.32-.77.35-1.91-.98-.88-1.32.66.02,1.39.47,2.2,1.32.12.06.33-.06.45,0l1.77,1.32c.13.05.32-.05.45,0,.2.16.2.3,0,.45h0Z"/>
  <path class="cls-8" d="M66.74,137.55c-.14.04-.3-.02-.45,0h-.45v-3.97c.21-.05.42-.25.45-.45h.45c1.45.47,1.08,3.98,0,4.4h0Z"/>
  <path class="cls-23" d="M30.16,77.58c-.3.01-.9.16-.89-.22-.08-1.31,2.76-5.2,1.77-1.1-.36.15-.36.29,0,.45-.14.36.19.62-.45.88-.11-.2-.26-.2-.45,0h.01Z"/>
  <path class="cls-23" d="M100.01,95.21c-1.64.61-1.22-2.08-1.1-2.2.9-.88,2.87,1.53,1.1,2.2Z"/>
  <path class="cls-48" d="M97.16,68.33c-.27-.05-.64.07-.88,0l-.45-.45c-.13-.06-.34.06-.45,0-.45-.21-.74-.5-.88-.88v-.45c.3-.12.57-.32.88-.45.73.22,1.46.67,2.2,1.32.77.35.9.86,0,.88-.16.19-.3.2-.45,0h.01Z"/>
  <path class="cls-23" d="M35.88,126.94c-.56-.12-1.42-.32-1.32-.88.81-.67,2.04-2,2.65-.88-.2.11-.2.26,0,.45,0,.73-.52,1.39-1.32,1.32h0Z"/>
  <path class="cls-17" d="M68.51,63.47c-.04.71-.19.87-.45.45-.33-.59-.33-1.18,0-1.77-.14-1.73-.29-3.5-.45-5.29.2-.57.33-.5.88-.43.04,2.34-.05,4.71,0,7.05h.01Z"/>
  <path class="cls-17" d="M49.98,64.79c-.37-.18-.39-.32,0-.45.53-1.19,3.67-1.25,3.97,0,.37.18.39.32,0,.45-2.35.45-2.01.16-3.97,0Z"/>
  <path class="cls-17" d="M58.79,125.62c.26-.7,1.72-1.52,1.32-2.2-.06-.09-1.01.81-1.76-.88l2.2-.43c.08,1.79.32,3.13-1.76,3.53h-.01Z"/>
  <path class="cls-35" d="M67.17,119.9c-.18.37-.32.39-.45,0l-.45-.45v-4.4h.45c.02.48-.13,1.11.45,1.32.01,1.17-.04,2.35,0,3.53Z"/>
  <path class="cls-65" d="M68.05,67.89v2.2h-.45c.08-2.64-.04-5.31,0-7.94.18-.37.32-.39.45,0v1.77c.42.32.47.63,0,.88.19.19.2.33,0,.45.57.54.46,1.14,0,1.77.28.26.19.56,0,.88h0Z"/>
  <path class="cls-23" d="M36.78,31.06c-1.98-2.23,2.13-2.04,1.75.67-.21.23-1.5-.39-1.75-.67Z"/>
  <path class="cls-17" d="M79.31,108.84c1.5-.06,2.54.52,3.29,1.79-1.38-1-2.11-1.7-3.85-1-.74.3-1.25.68-.55,1.44-2.68.26-1.23-2.13,1.11-2.24Z"/>
  <path class="cls-23" d="M88.34,120.13c.22,1.07-1.71,1.75-2.2,1.09-.94-1.24,1.87-2.65,2.2-1.09Z"/>
  <path class="cls-23" d="M44.7,14.31c-.25-1.08,1.92-1.37,2.2-1.09,1.01,1.01-1.82,2.78-2.2,1.09Z"/>
  <path class="cls-23" d="M92.97,71.85c1.08-.25,1.37,1.92,1.09,2.2-1.01,1.01-2.78-1.82-1.09-2.2Z"/>
  <path class="cls-17" d="M95.39,35.26l-2.19-.89c-.35-.54,1.48-2.41,1.75-1.52l.45,2.41h0Z"/>
  <path class="cls-17" d="M42.92,63.03c-.21.18-1.1.19-1.32.45.69-1.01.54-1.36,1.77-2.2.29-.9,1.03-1.86,1.77-.88.14-.04.3.02.45,0v.88c-.35.88-1.77,2.59-2.65,1.77h-.01Z"/>
  <path class="cls-23" d="M50.87,15.43c.29.01.59-.02.88,0,.52,2.67-1.44,2.4-2.2.66-.37-.87.5-.6.88-.66.12.2.27.2.45,0Z"/>
  <path class="cls-23" d="M94.29,105.8c1.34-.5,1.46,1.17,1.05,1.71-1.05,1.38-2.76-1.07-1.05-1.71Z"/>
  <path class="cls-17" d="M77.32,115.5l-1.32-.88c2.48-.04,4.31-1.11,2.65-3.53.06-.01.11-.54.43-.45,1.16,2.07.9,4.36-1.76,4.85h0Z"/>
  <path class="cls-23" d="M96.48,71.4c-1.34.5-1.46-1.17-1.05-1.71,1.05-1.38,2.76,1.07,1.05,1.71Z"/>
  <path class="cls-19" d="M67.61,101.37h-.88v-4.4c.18-.37.32-.39.45,0,.18.4.32.83.45,1.32v1.32c-.2.13-.2.27,0,.45v1.32h-.01Z"/>
  <path class="cls-17" d="M48.84,132.71c-.12-.14.26-1.63.26-2.23.09.57,1.24.88,1.28.95.35.86-1.07.16.93,2.13-.27.01-2.3-.66-2.46-.86Z"/>
  <path class="cls-23" d="M100.01,80.23c1.52-.57,1.29,1.57,1.1,1.76-1.02,1.01-2.99-1.05-1.1-1.76Z"/>
  <path class="cls-17" d="M27.5,71.41c-.13.01-.33.02-.45,0,.14-.15.29-.3.45-.45v.45Z"/>
  <path class="cls-17" d="M27.95,68.31c-.08-.06-.61.16-.8-.07-.27-.36-.05-1.62-.53-2.13.09-.04.29,0,.45,0h.45c.22.04.59.39.88.45.71.78-.16,1.04-.45,1.77h0Z"/>
  <path class="cls-17" d="M29.27,70.51c-.07.01-.88.34-1.32.45-.14.04-.3-.02-.45,0,.5-.45.71-.6,1.32-.88.04.21.23.4.45.45h0Z"/>
  <path class="cls-17" d="M28.82,70.1c-.06-.37.13-.76-.11-1.22-.06-.12-.55-.37-.77-.55l2.2-.88c.21.75-.9.2-.9.68.01.45.75,1.6.47,1.96-.08.11-.68-.09-.88,0h-.01Z"/>
  <path class="cls-4" d="M49.99,127.84c-.48.08-.77-.36-.88-1.32,0-.15-.01-.3,0-.45v-.45c.05-.28-.07-.66,0-.88.53-1.58,1.7-1.78.88,0-.05.12.04.29,0,.45-.25.2-.25.49,0,.88.02.16-.04.33,0,.45.75-.14,1.14.12.88.88.47,1.24-.06,1.48-.88.45Z"/>
  <path class="cls-23" d="M41.62,16.07c-.85-2.33,2.93-.5,1.76.67-.26.26-1.55-.08-1.76-.67Z"/>
  <path class="cls-23" d="M29.71,46.72v-.45c1-1.58,1.77.23,1.77,1.32l-.45.45c-1,.22-1.04-.48-1.32-1.32Z"/>
  <path class="cls-21" d="M83.5,123.44c-.18.37-.32.39-.45,0-.63-.3-1.23-.75-1.77-1.32-.12-.06-.33.06-.45,0l-.45-.45c-.13-.06-.33.06-.45,0-.19-.16-.2-.3,0-.45-.37-.18-.39-.32,0-.45.16-.19.3-.19.45,0,.15.04.36-.06.45,0,1.05.67,2.19,1.48,2.65,2.65h.01Z"/>
  <path class="cls-23" d="M29.26,102.71q.12-.09,0,0c-.12-.16-.68-.05-.43-.88,1.28.06,2.6.11,2.2,1.76-1.11.18-1.21-.13-1.76-.88h-.01Z"/>
  <path class="cls-68" d="M67.16,40.56c-.06.42.06.9,0,1.32-.81,0-1.02-.05-.88-.88.04-.14-.04-.3,0-.45l.45-1.32c.09-.36-.11-1,0-1.32l.45-.45h.45c-.21,1.02-.32,2.05-.45,3.08h-.01Z"/>
  <path class="cls-23" d="M42.28,41.42c.39-.11.64.45.64.45l.45.45c.32.67.32,1.11,0,1.32-1.32-.2-2.48-1.28-1.09-2.21Z"/>
  <path class="cls-23" d="M43.37,41.89c1.15.62,2,2.1.45,2.2l-.45-1.77v-.45h0Z"/>
  <path class="cls-17" d="M54.83,117.24c-1.93-.23-3.77-.91-3.97-3.08.13.08.64-.12.81.06.09.11-.35.63-.28.75.28.45,2.93,1.58,3.44,2.28h0Z"/>
  <path class="cls-17" d="M48.67,69.64c-1.39-1.29,2.8-.63,3.08-.43,0,1.28-2.89.61-3.08.43Z"/>
  <path class="cls-23" d="M28.38,33.07c1.17-.16,2.2.18,2.65,1.31-1.18.07-2.75.23-2.65-1.31Z"/>
  <path class="cls-17" d="M55.71,63.47c.15-.37.3-.37.45,0,1.76-1.18,3.23-2.66,4.4-4.4,1.78-1.18,1.38-2.8,1.92-3.86.06-.12,1.32-1.19,1.6-1.87-1.14,3.29-2.92,6.47-5.28,9.04l.88.66c-1.84-.55-2.79,1.16-4.85,1.77-.25-.42.06-.87.88-1.32Z"/>
  <path class="cls-17" d="M76.87,88.16c1-.25,2.49,1.02,1.76,1.76-.59.59-2.3-.59-1.76-1.76Z"/>
  <path class="cls-23" d="M68.5,63.48c.02,1.21.82,1.32,0,3.53-.18.37-.32.39-.45,0v-1.77c.21-.13.21-.27,0-.45v-.88l.45-.45h0Z"/>
  <path class="cls-17" d="M84.14,85.51c-1.45.37-1.23-2.59,1.1-1.77.02.11.04.35,0,.45-.08.26-.88.97-1.1,1.32Z"/>
  <path class="cls-23" d="M23.77,102.72c1.03-.37,1.16.04,1.1.88l-.45.88c-1.19.28-1.84-1.31-.66-1.76Z"/>
  <path class="cls-17" d="M34.57,59.95c.06-.02.09-.53.43-.45-.12.46.45,1.08.45,1.32,0,.56-.6,1.73-1.32,1.32l.45-2.2Z"/>
  <path class="cls-23" d="M33.02,57.31c1.03.22.64,1.99-.43,1.76-1.03-.22-.6-1.98.43-1.76Z"/>
  <path class="cls-32" d="M67.62,56.87c.82,1.32.45,3.63.45,5.29h-.45c.01-1.31-.07-2.66,0-3.97.02-.4-.09-1.05,0-1.32h0Z"/>
  <path class="cls-23" d="M24.42,97.19c-.76-2.14,2.54-.76,1.76.22-.22.27-1.5.49-1.76-.22Z"/>
  <path class="cls-23" d="M28.37,53.33s.05-.64.66-.43c1.94.67-.84,2.96-1.09.88l.45-.45h-.01Z"/>
  <path class="cls-23" d="M98.25,62.58c-1.05.27-.5-.7-.66-.88.32-1.92,1.19-.81,1.32-.88.08.71-.06,1.32-.67,1.76Z"/>
  <path class="cls-23" d="M43.36,61.27c.05-.28-.06-.63,0-.88-.63-.41-.49-.7.45-.88.02,0,.11-.43.42-.23s.55.84.9,1.11c-.11.01-1.62.77-1.77.88Z"/>
  <path class="cls-23" d="M46.69,25.11c1.65.36.68.8.66.88-.21.13-.21.27,0,.45-1.45,1.31-1.93-.32-.66-1.32Z"/>
  <path class="cls-17" d="M55.71,124.3c.95-.82,1.83.77,2.65,1.32-1.12,0-2.27-.02-2.65-1.32Z"/>
  <path class="cls-23" d="M35.23,66.42c-.2.02-.64-.46-1.11-.3,1.66-2.97,2.92.13,1.11.3Z"/>
  <path class="cls-23" d="M39.61,25.99c-1.53.59-.16-2.65.67-1.76.27.29-.11,1.55-.67,1.76Z"/>
  <path class="cls-17" d="M54.41,56.42s-.29,0-.45,0c-1.52-2.16,2.28-2.2,1.31-.89-.04.05-.5-.06-.71.16-.23.26-.16.73-.16.73h.01Z"/>
  <path class="cls-23" d="M21.78,107.56c-2.46-.63,1.35-3.21.88-.45-.19.33-.53.43-.88.45Z"/>
  <path class="cls-23" d="M51.08,20.72c1.3-.47,1.43.98,1.1,1.31-.59.59-2.62-.76-1.1-1.31Z"/>
  <path class="cls-23" d="M31.47,101.38c-.2-1.36.4-1.96,1.76-1.76.25.84-.3.74-.43.88q-.09-.12,0,0c-.22.22-1.21,1.04-1.32.88Z"/>
  <path class="cls-17" d="M108.61,78.9c2-.21-.14,1.15.42,1.99l-.87-.67c.14-1.48.09-.55.45-1.32Z"/>
  <path class="cls-57" d="M67.62,77.57c.04.88,0,1.77,0,2.65h-.45v-4.4c.57.5.42,1.12.45,1.77h0Z"/>
  <path class="cls-23" d="M90.54,122.77c-.47-1.3.98-1.43,1.31-1.1.59.59-.76,2.62-1.31,1.1Z"/>
  <path class="cls-23" d="M71.16,77.81c-.47-1.3.98-1.43,1.31-1.1.59.59-.76,2.62-1.31,1.1Z"/>
  <path class="cls-17" d="M20.02,36.36l.88-1.1c.41.08,1.22.86,1.32,1.32-.53.11-1.36-.14-1.77,0,0,0-.43-.22-.43-.22Z"/>
  <path class="cls-17" d="M53.52,72.29c-.45-1.44,1.78-1.16,2.2,0h-2.2Z"/>
  <path class="cls-17" d="M72.24,91.24c-3.57-.12-.95-1.96-.22-1.31.05.05.35,1.26.22,1.31Z"/>
  <path class="cls-17" d="M61.88,52.45c.36-1,1.04-2.28,1.77-3.08v.88c-.46.69-.5,1.82-1.77,2.2Z"/>
  <path class="cls-23" d="M64.75,28.64c-1.31.01-.13-2.6.66-1.76.28.29-.2,1.76-.66,1.76Z"/>
  <path class="cls-17" d="M87.45,65.23c-.73.04-1.46-.02-2.2,0l.88-.88c.55-1.21,1.22-1.19,1.77,0v.45l-.45.45h0Z"/>
  <path class="cls-7" d="M48.67,64.78c-.28-.02-.59.02-.88,0-.48-.29-.57-.71,0-.88.55-1.18,2.19-.84,2.2.45v.45c-.29-.02-.59.02-.88,0-.13-.21-.27-.21-.45,0h0Z"/>
  <path class="cls-23" d="M60.12,20.71c.7-.69,2.03.62,1.32,1.32-.7.69-2.03-.63-1.32-1.32Z"/>
  <path class="cls-17" d="M78.64,117.25l.88-.88c1.52-.3,3.07-1,3.53-2.65-.28,2.32-2.32,3.29-4.4,3.53Z"/>
  <path class="cls-43" d="M68.06,55.54c-.89-.76-.3-2.42-.45-3.53.07.75.9,2.3.45,3.53Z"/>
  <path class="cls-23" d="M23.98,29.53c1.31-2.76,1.89-.53.88,0-.25.29-.73.4-.88,0Z"/>
  <path class="cls-23" d="M31.03,111.53c-.66-.75.57-1.99,1.32-1.32.47.42-.9,1.79-1.32,1.32Z"/>
  <path class="cls-17" d="M90.11,74.49c-.59-.06-1.19.06-1.77,0,.29-1,1.29-.94,2.2-.88l-.45.88h.01Z"/>
  <path class="cls-26" d="M38.97,68.33h-2.65c0-.15-.04-.35,0-.45.08-.22.26-.33.45-.45,1.04.09,1.58.62,2.2.88h0Z"/>
  <path class="cls-23" d="M107.94,41.44c.75-.01.78,1.75,0,1.75-.75.01-.75-1.73,0-1.75Z"/>
  <path class="cls-23" d="M85.03,66.13c.94-.36.78,1.18.66,1.31-.77.77-2.25-.7-.66-1.31Z"/>
  <path class="cls-23" d="M103.54,16.32c.75-.01.78,1.75,0,1.75-.75.01-.75-1.73,0-1.75Z"/>
  <path class="cls-23" d="M27.73,17.63c1.51.41-.11,2.86-.66.88.19-.11.19-.26,0-.45.16-.29.09-.59.66-.43Z"/>
  <path class="cls-23" d="M85.68,128.27c-.27-1.21,1.08-1.12,1.32-.88s.33,1.59-.88,1.32l-.45-.45Z"/>
  <path class="cls-17" d="M53.07,126.94c-1.29-.07-.57-1.01-2.2.45-.46-.13-.71-.43-.88-.88,1.02-.29,2.55-1,3.08.45h0Z"/>
  <path class="cls-25" d="M56.6,119.01l1.53-.45c.2,1.38-1.34.89-1.98.89.14-.15.29-.3.45-.45Z"/>
  <path class="cls-2" d="M67.63,95.66v2.65c-.62-.22-.36-.88-.45-1.32l-.45-.88v-.45h.89Z"/>
  <path class="cls-23" d="M89.65,92.13c.29,0,.59-.01.88,0,.13,1.28.07,1.56-.88,2.2.26-.76.54-1.51,0-2.2Z"/>
  <path class="cls-23" d="M93.62,115.93c-.41-1.56,1.19-2.27,1.32-.88l-.45.45c-.07.06-.02.69-.88.43Z"/>
  <path class="cls-17" d="M89.87,28.19c-.94.34-.81-1.15-.66-1.31.43-.47,2.01.82.66,1.31Z"/>
  <path class="cls-23" d="M21.33,56.87c1.31-.39,1.41,1.66,0,1.32.04-.27-.32-.41,0-1.32Z"/>
  <path class="cls-17" d="M100.24,74.06l2.2.43c0,.15-.04.32,0,.45-.83.06-1.96.09-2.2-.88Z"/>
  <path class="cls-17" d="M31.47,70.98c-.43.04-1.05-.45-1.32-.45l1.32-1.32c-.21.75-.19,1.04,0,1.76h0Z"/>
  <path class="cls-17" d="M61.89,70.52v-1.32c.84.46,1.59.25,1.31,1.32h-1.31Z"/>
  <path class="cls-17" d="M87.89,69.2v-.88l1.32-.43c-.07,2.18-.54.94-1.32,1.32h0Z"/>
  <path class="cls-39" d="M97.59,68.76c-.22-.16-.22-.32,0-.45-.06-.26.08-.71,0-.88.13.02.3,0,.45,0,.89.14,1.32.43,1.32.88-.14.04-.32-.05-.45,0l-.45.45c-.22.04-.67.05-.88,0Z"/>
  <path class="cls-22" d="M54.82,64.79c-.23.07-.61-.05-.88,0v-.45c-.3-1.25,1.17-2.08,1.77-.88l-.88,1.32h-.01Z"/>
  <path class="cls-17" d="M83.92,130.03c-.93-.83-1.36-2.01-1.32-3.53.26-.07.62-.67.88-.88.09.43.25-.01.45-1.32.88,0,1.11.73.45,1.32-.68,1.37.08,2.58-.45,4.4Z"/>
  <path class="cls-23" d="M38.53,22.47s-.08-.32.22-.43c2.1-.84.6,2.4-.22.88.19-.11.19-.26,0-.45Z"/>
  <path class="cls-17" d="M49.1,124.76c.35-1.09.88-2.59,2.2-2.65-.2.27-1.01.54-.88.88.13.2.27.2.45,0,.32-.05.59-.32.88-.45-.28.75-1.53,1.63-1.77,2.2.11-1.48-.37-.93-.88,0h0Z"/>
  <path class="cls-17" d="M67.62,89.04v-2.65c.7.42.73,2.2,0,2.65Z"/>
  <path class="cls-17" d="M59.24,83.76h1.32c-.52,1.67-1,1.78-1.32,0Z"/>
  <path class="cls-17" d="M59.02,82.42c-.29,0-.91-1.05-.66-1.31.66-.67,1.87,1.31.66,1.31Z"/>
  <path class="cls-17" d="M101.11,76.71v-.45c.07,0,1-.36,1.32,0,.22.25-1.14,1.55-1.32.43h0Z"/>
  <path class="cls-17" d="M45.14,57.3c2.24.26-.2,2.69-.45.45l.45-.45Z"/>
  <path class="cls-17" d="M60.79,72.3c1.04-.45.29,1.24.21,1.31-.83.68-1.39-.82-.21-1.31Z"/>
  <path class="cls-17" d="M89.65,72.07l1.77-.66c0,.29-.02.59,0,.88l-1.77-.22Z"/>
  <path class="cls-50" d="M71.59,47.6c-.01.76-.45.83-.45.88-.34.04-.39-.16-.45-.45v-.45c-.25-.32-.32-.62,0-.88.47-.35.8-.11.88.45.37.21.4.36,0,.45h.01Z"/>
  <path class="cls-17" d="M62.32,135.32l1.55-1.76c-.08.36.15,1.24.15,1.24-.23.18-1.24.16-1.7.52Z"/>
  <path class="cls-17" d="M97.59,130.49c.15-.43-.56-.98-.22-1.31l1.55,2.19c-.7-.02-1.1-.18-1.32-.88Z"/>
  <path class="cls-17" d="M74.22,117.25c-.47-.91-.32-.86-.45-1.32.56.05,1,.73,1.32.88-1.22.43,1.16.66,1.32,1.77-.7-.36-1.5-.9-2.2-1.32Z"/>
  <rect class="cls-23" x="37.2" y="65.24" width="1.32" height=".88"/>
  <path class="cls-17" d="M42.05,60.39c.19-.27.28-.6.45-.88.43.04.94-.07,1.32,0-.12.29-.37.6-.45.88h-1.32Z"/>
  <path class="cls-17" d="M77.75,43.86c0,.29-1.05.91-1.31.66-.67-.66,1.31-1.87,1.31-.66Z"/>
  <path class="cls-17" d="M71.14,62.37l1.76-.21c-.4,1.07-1.08,1.17-1.76.21Z"/>
  <path class="cls-17" d="M53.94,101.17c0,.29-1.05.91-1.31.66-.67-.66,1.31-1.87,1.31-.66Z"/>
  <path class="cls-73" d="M62.32,114.61c0-.81,1.11-.7,1.32-.88-.02.29.04.59,0,.88h-1.32Z"/>
  <path class="cls-17" d="M73.35,103.14l-1.32-.21c.41-.46.68-.8,1.32-.66v.88h0Z"/>
  <path class="cls-17" d="M92.3,102.71c-.04.14.04.3,0,.45-2.16.39-1.71-1.7,0-.45Z"/>
  <path class="cls-23" d="M30.58,79.79v-.88h1.32c-.15.64-.71,1.02-1.32.88Z"/>
  <path class="cls-17" d="M47.33,69.63l-1.32-.21c.41-.46.68-.8,1.32-.66v.88h0Z"/>
  <path class="cls-17" d="M46.91,67.44c-.16.14.34,1.07-.45.88-.19-1.96,2.07-.94,2.64,0-.78.43-2.07-1-2.2-.88h.01Z"/>
  <path class="cls-17" d="M42.06,66.56c.11-.53.6-.62.88-.88l.43.88c-.41.07-.97-.09-1.32,0h.01Z"/>
  <path class="cls-17" d="M75.99,60.39c1.24,1.83,1.48,1.19,2.2,1.32.08.21-.39.63-.25.9.21.39.91.07,1.12.26.61.54.97,1.48,1.77,1.92-2.18-1.01-3.74-2.26-4.85-4.4Z"/>
  <path class="cls-17" d="M70.26,45.4c-.09-.55-.33-1.3-.45-2.2.71.37.42,1.5.45,2.2Z"/>
  <path class="cls-23" d="M47.34,32.61v-.88c.61-.13,1.17.25,1.32.88h-1.32Z"/>
  <path class="cls-17" d="M31.02,25.14c.14-.45.55-.35.88-.45.12-.04.29,0,.45,0h.45c.06.05.52-.06.45.43-.73-.04-1.48.06-2.2,0h-.01Z"/>
  <path class="cls-17" d="M68.05,24.24c-1.1-.47-1.42-1.55,0-1.32v1.32Z"/>
  <path class="cls-17" d="M99.79,137.09c-.3-.12-.57-.33-.88-.45-.66-.15-.67-.84,0-.88.28,0,.6-.04.88,0v1.32Z"/>
  <path class="cls-17" d="M100.67,130.92c-.2-1.17.28-.9,1.32-.88-.28.89-.73.66-1.32.88Z"/>
  <path class="cls-17" d="M49.1,128.27c.01-.59-.05-1.18,0-1.77.2.35.82,1.02.88,1.32.37.15.37.3,0,.45h-.88Z"/>
  <path class="cls-23" d="M84.37,125.63l-.45-1.32c-.36-.19-.37-.34,0-.45.56.47,1.63.16,1.31,1.1-.11.34-.81.54-.87.67h0Z"/>
  <path class="cls-71" d="M79.52,121.22c-.14-.04-.32.05-.45,0l-.45-.45s-.06-.52.45-.45h.45c.14.04.32-.04.45,0,.21.16.21.32,0,.45v.45h-.45Z"/>
  <path class="cls-17" d="M76.87,94.54l1.32-.21c-.37.96-.74,1.04-1.32.21Z"/>
  <path class="cls-17" d="M66.73,43.2v-1.32l-.88.45c.14-.55.36-1.01.45-1.32l.88.88c-.08.7-.41,1.15-.45,1.32Z"/>
  <path class="cls-17" d="M70.71,42.32l-.45-1.77c.06.34.32,1.1.45,1.77Z"/>
  <path class="cls-17" d="M56.6,134.89l.88-1.32c-.15,1.11-.63,3.47-.88,1.32Z"/>
  <path class="cls-23" d="M98.03,136.43c-.14-.9.14-.62.88-.66v.88c-.23-.09-.9.23-.88-.22Z"/>
  <path class="cls-17" d="M47.33,56.87c.94-.22,1.36.35.45.88,0-.05-.42-.09-.45-.88Z"/>
  <path class="cls-23" d="M25.3,105.8c.48-.48,1.36.4.88.88s-1.36-.4-.88-.88Z"/>
  <path class="cls-17" d="M42.5,32.18l.43.22c.18,1.12-1.17,1.02-.88-.22.15-.02.3.01.45,0Z"/>
  <path class="cls-23" d="M55.72,23.8c.48-.48,1.36.4.88.88s-1.36-.4-.88-.88Z"/>
  <path class="cls-17" d="M53.95,112.85c.02-.74.6-1.63,1.32-1.77-1.76,2.03-.77,2.99,1.32,3.97-.14,0-.32.02-.45,0-1.48-.34-1.75-.86-2.2-2.2Z"/>
  <path class="cls-17" d="M98.47,113.73c.48-.48,1.36.4.88.88s-1.36-.4-.88-.88Z"/>
  <path class="cls-17" d="M33.23,29.97c.21.13.78-.27.89.22.16.75-.18.76-.89.66v-.88Z"/>
  <path class="cls-17" d="M25.3,17.18l-.45-.88c1.09-.35,1.24.43,1.32.43-.2.18-.8.3-.88.45Z"/>
  <path class="cls-23" d="M31.92,55.1c.48-.48,1.36.4.88.88s-1.36-.4-.88-.88Z"/>
  <path class="cls-17" d="M51.75,22.91c.48-.48,1.36.4.88.88s-1.36-.4-.88-.88Z"/>
  <path class="cls-63" d="M68.94,22.92c-.69-.19-.66-1.63,0-1.77v1.77Z"/>
  <path class="cls-17" d="M96.27,21.6c.48-.48,1.36.4.88.88s-1.36-.4-.88-.88Z"/>
  <path class="cls-17" d="M30.15,25.57s-.64-.28-.43-.88c.7-.23.88.43.88.43l-.45.45Z"/>
  <path class="cls-17" d="M64.97,33.5c.48-.48,1.36.4.88.88s-1.36-.4-.88-.88Z"/>
  <path class="cls-23" d="M52.19,60.84c-.27.04-.6,0-.88,0-.37-.18-.39-.32,0-.45.05-.01.59-.74.88-.45.07.06-.05.63,0,.88h0Z"/>
  <path class="cls-17" d="M51.31,60.82c-.59-.01-1.46.21-1.77-.45.29,0,.6.01.88,0s.62.05.88,0v.45h.01Z"/>
  <path class="cls-17" d="M93.62,62.59c-.26-.23-1.64-.29-1.77-1.32h.45c.04.08,1.1,1.12,1.32,1.32h0Z"/>
  <path class="cls-17" d="M36.32,62.59c-.28.45.62,1.02-.88.88-.15-.83.05-1.02.88-.88Z"/>
  <path class="cls-17" d="M43.37,42.32c-.09-.15-.33-.28-.45-.45.15.04.35-.06.45,0v.45Z"/>
  <path class="cls-17" d="M43.82,44.09c-.45.02-.37-.15-.45-.45-.09-.36.06-.91,0-1.32.41.64.63.91.45,1.77Z"/>
  <path class="cls-17" d="M43.82,71.4v.45c-.15-.04-2.89,1.02,0-.45Z"/>
  <path class="cls-17" d="M57.03,74.05c.55-.29,1.53.71,1.32.88-.55.29-1.53-.71-1.32-.88Z"/>
  <path class="cls-17" d="M76.25,77.09l-.26-.4h1.32l-1.07.4Z"/>
  <path class="cls-17" d="M62.32,77.14c.48-.48,1.36.4.88.88s-1.36-.4-.88-.88Z"/>
  <path class="cls-23" d="M87.01,78.46c.48-.48,1.36.4.88.88s-1.36-.4-.88-.88Z"/>
  <polygon class="cls-17" points="53.95 79.34 53.52 79.34 53.07 78.03 53.95 78.02 53.95 79.34"/>
  <path class="cls-17" d="M69.82,42.76c-.04-.22-.37-.87-.45-1.77l.45,1.77Z"/>
  <path class="cls-17" d="M53.95,19.39c-.16-1.34.35-1.03.88,0-.18.07-.6-.01-.88,0Z"/>
  <path class="cls-17" d="M64.32,57.3c.37-.06.21.88.21.88-.5.5-1.42-.19-.21-.88Z"/>
  <path class="cls-17" d="M42.05,46.72c.53-1.03,1.04-1.34.88,0-.28,0-.67.06-.88,0Z"/>
  <path class="cls-17" d="M27.95,92.13c-.13-.93-.05-1.01.88-.88l-.88.88Z"/>
  <path class="cls-17" d="M70.93,101.83c-1.21-.69-.3-1.38.21-.88.04.04.18.94-.21.88Z"/>
  <path class="cls-17" d="M23.53,41.89v-.45c.07.01,1.31-1.05.88.21-.14.43-.55.18-.88.22h0Z"/>
  <path class="cls-17" d="M97.38,14.98c.37-.06.21.88.21.88-.5.5-1.42-.19-.21-.88Z"/>
  <path class="cls-17" d="M66.29,40.55c.15-.61.36-1.02.45-1.32l-.45,1.32Z"/>
  <path class="cls-58" d="M64.08,110.65c-.35.76.26.64-.88,1.77-.15-.37,0-.81.45-1.32.15-.15.3-.29.45-.45h-.01Z"/>
  <path class="cls-17" d="M83.04,112.4l-.45-1.32c.14.39.45.34.45,1.32Z"/>
  <path class="cls-17" d="M64.09,52.88c.29-.81.8-2.28.88-3.08h.45c-.3,1.05-.39,2.33-1.32,3.08Z"/>
  <path class="cls-17" d="M96.27,37.9v.43c-1.84.22-1.84-.66,0-.43Z"/>
  <path class="cls-17" d="M44.92,125.19c-1.21-.69-.3-1.38.21-.88.04.04.18.94-.21.88Z"/>
  <path class="cls-17" d="M35.88,126.96c-.74.07-1.34-.05-1.76-.67-.04-.27.39-.19.43-.22.3.15,1.15.87,1.32.88h0Z"/>
  <path class="cls-17" d="M48.89,54.22c-1.21-.69-.3-1.38.21-.88.04.04.18.94-.21.88Z"/>
  <path class="cls-17" d="M71.14,49.36c-.59-.22-.42-.84-.45-1.32l.45.45v.88Z"/>
  <path class="cls-17" d="M21.78,46.72c.8-.56,1.01-.61.88.45-.04-.04-.75-.39-.88-.45Z"/>
  <path class="cls-23" d="M91.64,130.48c-1.21-.69-.3-1.38.21-.88.04.04.18.94-.21.88Z"/>
  <path class="cls-17" d="M29.72,61.27h-.45c-.06-.33-1.28-.52.88-.43l-.45.43h.01Z"/>
  <path class="cls-23" d="M94.5,63.48c-.29.09-.59-.06-.88-.45-.07-.08.07-.37,0-.45.29.26.57-.68.88.88h0Z"/>
  <path class="cls-17" d="M64.97,45.84c.14-.47.36-1.02.45-1.32l-.45,1.32Z"/>
  <path class="cls-23" d="M56.39,47.6c-1.21-.69-.3-1.38.21-.88.04.04.18.94-.21.88Z"/>
  <path class="cls-17" d="M23.53,29.96c-.07-.49.43-.41.45-.43.26-.06.71.08.88,0-.04.68-.81.42-1.32.43Z"/>
  <path class="cls-17" d="M47.77,64.81c-.42-.05-.81-.45-.88-.45l.45-.45c.19-.37.34-.39.45,0v.88h-.01Z"/>
  <path class="cls-23" d="M60.12,54.65c.07-.14-.14-.56.08-.8.2-.21.7-.01.8-.08l-.88.88Z"/>
  <path class="cls-17" d="M66.29,45.4c.04-.48-.14-1.1.45-1.32-.08.46.18,1.1-.45,1.32Z"/>
  <path class="cls-17" d="M72.46,48.05l-.88-.45v-.45c-.49-.4-.63-.68,0-.88.48.21.66,1.24.88,1.77Z"/>
  <path class="cls-17" d="M98.92,67.44c.46.16.67.46.88.88h-.45l-1.32-.88c.29,0,.59.02.88,0h.01Z"/>
  <path class="cls-17" d="M71.14,44.08l-.45-1.32c.01.07.33.6.45,1.32Z"/>
  <path class="cls-17" d="M54.84,70.09c-.13-.93-.05-1.01.88-.88l-.88.88Z"/>
  <path class="cls-17" d="M79.95,54.66c.22.15,1.78-.32,2.44.89.13.23-.22.43-.22.43h-.45c.4-1.9-1.7-.12-2.2-.45l.45-.88-.88-.22.88-.67c.06.25-.07.83,0,.88h-.01Z"/>
  <path class="cls-17" d="M32.35,72.72c-.15-.83.05-1.02.88-.88-.19.12-.33.95-.88.88Z"/>
  <path class="cls-17" d="M65.85,47.6v-.45c-.23-.26-.35-.67,0-.88h.45c-.04.48.14,1.1-.45,1.32Z"/>
  <path class="cls-17" d="M25.76,42.32c-.15.14-.27.34-.45.45-.41-.73-.84-.98.21-.88l.22.43h.01Z"/>
  <path class="cls-23" d="M29.71,42.54c.69-1.21,1.38-.3.88.21-.04.04-.94.18-.88-.21Z"/>
  <path class="cls-17" d="M47.79,79.34c-.13-.93-.05-1.01.88-.88l-.88.88Z"/>
  <path class="cls-17" d="M78.63,79.79l-.43-.88c.26-.06.76.08.88,0-.09.28-.4.61-.45.88Z"/>
  <path class="cls-17" d="M70.7,47.6c-.63-.22-.36-.89-.45-1.32h.45c.37.18.39.32,0,.45v.88Z"/>
  <path class="cls-17" d="M65.42,84.19c-.13-.93-.05-1.01.88-.88l-.88.88Z"/>
  <path class="cls-17" d="M54.39,135.32l.66-.43.22.43c-.28.01-.6.02-.88,0Z"/>
  <path class="cls-17" d="M56.15,134.88s-.14.4-.43.45v-.88l.43.45h0Z"/>
  <path class="cls-17" d="M30.15,134.45c.23-.07.91-.14.89.22.01.36-.67.29-.89.22-.27-.16-.28-.32,0-.45Z"/>
  <path class="cls-17" d="M43.82,133.13s-.36.07-.43-.22l.43-.22c.06.14.36.19,0,.45Z"/>
  <path class="cls-17" d="M57.48,131.81c-.74-.55-.89-1.46-1.32-2.2-.59-1-.67-.74-.88-1.77,1.09,1.3,1.77,2.31,2.2,3.97Z"/>
  <path class="cls-5" d="M83.92,130.92h-.45c-.78-.88-.71-1.1.45-.88,0,.28.04.6,0,.88Z"/>
  <path class="cls-17" d="M64.09,129.16c.62-.32,1.18.28.88.43-.62.32-1.18-.28-.88-.43Z"/>
  <path class="cls-17" d="M53.74,127.38l-.22-.43c.27.05.6-.05.88,0l-.66.43Z"/>
  <path class="cls-17" d="M49.98,126.07l-.43-.66.43-.22c-.05.21-.04.64,0,.88Z"/>
  <path class="cls-17" d="M80.85,120.79c1.34.59,2.79,1.56,3.08,3.08-.6.33-.81.11-.45-.45-.75-.68-1.76-2.05-2.65-2.65h.01Z"/>
  <path class="cls-17" d="M52.19,121.22c.49-.34.66-.59,1.32-.88-.19.63-.68.87-1.32.88Z"/>
  <path class="cls-17" d="M78.64,119.9c-.7-.29-1.43-.56-1.77-1.32.68.35,1.45.52,1.77,1.32Z"/>
  <path class="cls-17" d="M94.95,115.05c.04.45-.29.33-.45.45l-.45-.45h.89Z"/>
  <path class="cls-17" d="M57.48,115.05s.26-.28.88-.45l-.88.45Z"/>
  <path class="cls-17" d="M73.35,114.17c-.11-.29-.33-.57-.45-.88.5.22,1.01.39,1.32.88-.28-.04-.59.02-.88,0Z"/>
  <path class="cls-17" d="M62.78,112.84c-.48.28-1.04.29-1.32.45.88-.6,1.49-1.45,2.2-2.2l-.45,1.32c-.14.14-.32.37-.45.45h.01Z"/>
  <path class="cls-17" d="M56.61,110.2c1.3.48,1.1,1.57-.22,1.76-.29-.06-.53-.81-.67-.88.26.13.62.45.88.45l.45-.45c0-.18-.3-.69-.45-.88h.01Z"/>
  <path class="cls-17" d="M64.97,111.53l.88-1.32c-.29,1.22-.78,1.12-.88,1.32Z"/>
  <path class="cls-17" d="M79.52,107.56c.62-.32,1.18.28.88.43-.62.32-1.18-.28-.88-.43Z"/>
  <path class="cls-17" d="M21.78,107.56l.88-.45c-.08.52-.37.57-.88.45Z"/>
  <path class="cls-17" d="M88.77,104.91c1.25-.18,1.25.62,0,.45-.05-.09.02-.29,0-.45Z"/>
  <path class="cls-17" d="M24.41,104.46l.45-.88c-.04.52.18.74-.45.88Z"/>
  <path class="cls-17" d="M26.17,99.64l.67-.43c.41.56-.63.87-1.1.87.06-.15.35-.28.45-.45h-.01Z"/>
  <path class="cls-17" d="M75.55,98.3c.62-.32,1.18.28.88.43-.62.32-1.18-.28-.88-.43Z"/>
  <path class="cls-17" d="M84.35,97.41s-.27.08-.43-.22l.22-.22c.84.04.66.45.66.45h-.45Z"/>
  <path class="cls-17" d="M67.18,96.98h-.45v-.88c.46.12.37.53.45.88Z"/>
  <path class="cls-17" d="M69.37,93.9c.62-.32,1.18.28.88.43-.62.32-1.18-.28-.88-.43Z"/>
  <path class="cls-17" d="M82.61,93.89l1.31-.22-.88.67c-.09-.15-.34-.27-.45-.45h.01Z"/>
  <path class="cls-17" d="M79.07,91.69c.62-.32,1.18.28.88.43-.62.32-1.18-.28-.88-.43Z"/>
  <path class="cls-23" d="M102.88,87.28c-.32-.62.28-1.18.43-.88.32.62-.28,1.18-.43.88Z"/>
  <path class="cls-17" d="M96.71,85.95l.88.45c-.12-.11-.93.25-.88-.45Z"/>
  <path class="cls-17" d="M42.94,78.9l.88.45c-.49-.06-.6-.3-.88-.45Z"/>
  <path class="cls-17" d="M60.57,78.91c.62-.32,1.18.28.88.43-.62.32-1.18-.28-.88-.43Z"/>
  <path class="cls-17" d="M82.6,77.15c.05.26-.02.59,0,.88l-.43-.62.43-.27h0Z"/>
  <path class="cls-17" d="M31.03,76.25c-.04.15.05.33,0,.45-1.25.18-1.25-.62,0-.45Z"/>
  <path class="cls-17" d="M68.05,67.87v-.88h.45c-.12.3-.05.68-.45.88Z"/>
  <path class="cls-17" d="M97.59,67.45c-.8-.18-1.67-.75-2.2-1.32-.05-.06-.85-1.25-.88-1.32-.36-.2-.39-.35,0-.45.39.32,2.97,2.88,3.08,3.08h0Z"/>
  <path class="cls-17" d="M75.13,66.56c-.01.14-.32.33-.45.45,0-.04-.53.06-.45-.45h.89Z"/>
  <path class="cls-17" d="M83.7,65.67l-.66-.43c.29.02.59,0,.88,0l-.22.43Z"/>
  <path class="cls-17" d="M45.58,64.35l.66-.43.22.43c-.28-.01-.59,0-.88,0Z"/>
  <path class="cls-17" d="M75.99,59.96c-.81-.33-.98-1.1-1.32-1.77.86.3.93,1.17,1.32,1.77Z"/>
  <path class="cls-17" d="M49.97,57.08l1.34.22c.43.55.06.16,0,.45-1.36,1.11-3.13-.39-1.34-.67Z"/>
  <path class="cls-17" d="M64.97,57.31c.62-.32,1.18.28.88.43-.62.32-1.18-.28-.88-.43Z"/>
  <path class="cls-17" d="M74.24,55.98h-.45c-.28-.04-.32-.26-.45-.45h.88c.37.15.37.3,0,.45h.01Z"/>
  <path class="cls-17" d="M76.87,56.41c-1.23-.57-1.65-1.94-2.2-3.08.71.54,1.94,2.33,2.2,3.08Z"/>
  <path class="cls-17" d="M72.91,54.21c-.45-.14-.4-.5-.45-.88.47.14.36.54.45.88Z"/>
  <path class="cls-17" d="M44.25,53.34c.62-.32,1.18.28.88.43-.62.32-1.18-.28-.88-.43Z"/>
  <path class="cls-17" d="M72.47,52.89c-.49-.13-.34-.57-.45-.88h.45c-.01.28-.01.59,0,.88Z"/>
  <path class="cls-17" d="M74.67,52.88c-.96-.55-1.64-1.97-1.77-3.08.8.76,1.29,2.08,1.77,3.08Z"/>
  <path class="cls-17" d="M72.02,51.57s-.29-.32-.45-.88l.45.88Z"/>
  <path class="cls-17" d="M65.4,49.36l.45-.88c-.13.71-.45.88-.45.88Z"/>
  <path class="cls-17" d="M72.91,49.36l-.45-.88s.46.08.45.88Z"/>
  <path class="cls-17" d="M63.65,48.92c.14-.68.42-.81.45-.88l-.45.88Z"/>
  <path class="cls-17" d="M25.31,47.17c.01.28-.39.36-.45.45l-.45-.45h.89Z"/>
  <path class="cls-17" d="M30.14,46.5l-.43.22c-.02-.08-.37-.11-.37-.23-.01-.13.33-.14.37-.21l.43.22Z"/>
  <path class="cls-23" d="M61,45.84c.62-.32,1.18.28.88.43-.62.32-1.18-.28-.88-.43Z"/>
  <path class="cls-17" d="M71.59,45.4l-.45-.88s.36.12.45.88Z"/>
  <path class="cls-23" d="M27.07,44.08c.62-.32,1.18.28.88.43-.62.32-1.18-.28-.88-.43Z"/>
  <path class="cls-17" d="M65.4,44.08c.16-.57.45-.88.45-.88l-.45.88Z"/>
  <path class="cls-17" d="M79.52,43.2c.62-.32,1.18.28.88.43-.62.32-1.18-.28-.88-.43Z"/>
  <path class="cls-17" d="M79.07,42.32c.62-.32,1.18.28.88.43-.62.32-1.18-.28-.88-.43Z"/>
  <path class="cls-17" d="M23.55,36.58c.04-.06-.08-.36.22-.43.47-.13.52.01.66.43h-.88Z"/>
  <path class="cls-17" d="M99.79,30.85c.62-.32,1.18.28.88.43-.62.32-1.18-.28-.88-.43Z"/>
  <path class="cls-17" d="M65.19,22.47l-.22-.43c.25-.29.66-.34.88,0l-.66.43Z"/>
  <path class="cls-23" d="M64.97,22.03c-.29-.26.78-.9.88,0-.27-.04-.81.06-.88,0Z"/>
  <path class="cls-17" d="M69.25,16.66l-.3.53v-.88l.3.35Z"/>
  <path class="cls-17" d="M65.63,70.52c.28.15.28.29,0,.45v-.45Z"/>
  <path class="cls-17" d="M67.61,72.51l-.43.22v-.45l.43.22Z"/>
  <path class="cls-17" d="M36.76,72.96l-.43.22c-.04-.13.02-.29,0-.45l.43.22Z"/>
  <path class="cls-57" d="M67.61,73.39l-.43.22v-.45l.43.22Z"/>
  <path class="cls-17" d="M36.76,74.28l-.43.22c-.04-.14.04-.3,0-.45l.43.22Z"/>
  <path class="cls-17" d="M60.78,74.5c.45.29-.2.59-.45.87-.45-.3.23-.61.45-.87Z"/>
  <path class="cls-57" d="M67.61,75.16l-.43.22v-.45l.43.22Z"/>
  <path class="cls-17" d="M37.2,75.38c-.18.02-.39-.27-.45-.45.14.15.33.27.45.45Z"/>
  <path class="cls-17" d="M30.37,77.15l.22.43c-.09.04-.29,0-.45,0,0,0,.22-.43.22-.43Z"/>
  <path class="cls-23" d="M105.3,78.02c.28.15.28.29,0,.45v-.45Z"/>
  <path class="cls-17" d="M58.58,78.46c.28.15.28.29,0,.45v-.45Z"/>
  <path class="cls-17" d="M102.44,79.35l-.45-.45c.35.05.45.45.45.45Z"/>
  <path class="cls-23" d="M103.54,84.63c.28.15.28.29,0,.45v-.45Z"/>
  <path class="cls-17" d="M58.58,87.27c.28.15.28.29,0,.45v-.45Z"/>
  <path class="cls-17" d="M74.89,94.77c.28.15.28.29,0,.45v-.45Z"/>
  <path class="cls-17" d="M67.62,100.07l-.43-.22.43-.22v.45Z"/>
  <path class="cls-17" d="M68.27,106.67c.28.15.28.29,0,.45v-.45Z"/>
  <path class="cls-17" d="M64.32,107.56c.28.15.28.29,0,.45v-.45Z"/>
  <path class="cls-17" d="M23.32,110.2c.28.15.28.29,0,.45v-.45Z"/>
  <path class="cls-17" d="M74,110.64c.28.15.28.29,0,.45v-.45Z"/>
  <path class="cls-17" d="M72.47,113.28c-.36-.2-1.05-.61-1.32-.88-.29-.3-.61-.93-.88-1.32l2.2,2.2Z"/>
  <path class="cls-17" d="M60.78,111.09c.45.29-.2.59-.45.87-.45-.3.23-.61.45-.87Z"/>
  <path class="cls-17" d="M64.53,112.42c.15-.15.28-.32.45-.45-.11.19-.33.29-.45.45Z"/>
  <path class="cls-58" d="M64.08,112.85c.13-.18.29-.3.45-.45-.13.16-.3.29-.45.45Z"/>
  <path class="cls-17" d="M60.12,114.16c.06-.02.28-.57.88-.88l-.88.88Z"/>
  <path class="cls-17" d="M75.11,114.62l-.45-.45c.33.08.45.45.45.45Z"/>
  <path class="cls-17" d="M59.23,114.62c.07-.02.2-.35.45-.45l-.45.45Z"/>
  <path class="cls-17" d="M63.2,115.5l.45-.45c-.09.32-.45.45-.45.45Z"/>
  <path class="cls-17" d="M62.76,116.37l.45-.45c-.11.16-.3.3-.45.45Z"/>
  <path class="cls-17" d="M76.44,117.26l-.45-.45c.15.05.33.43.45.45Z"/>
  <path class="cls-17" d="M61.01,118.58l.88-.88c-.04.53-.77.71-.88.88Z"/>
  <path class="cls-17" d="M58.8,121.22c.52-.9,1.31-1.66,2.2-2.2-.64.84-1.22,1.7-2.2,2.2Z"/>
  <path class="cls-17" d="M79.52,120.35h-.45v-.45c.19.07.34.28.45.45Z"/>
  <path class="cls-17" d="M53.95,120.35c.07-.2.23-.4.45-.45-.11.18-.26.37-.45.45Z"/>
  <path class="cls-17" d="M80.41,120.79h-.45v-.45c.21.07.37.25.45.45Z"/>
  <path class="cls-17" d="M54.38,121.22l.45-.45c-.07.04-.2.32-.45.45Z"/>
  <path class="cls-17" d="M53.5,121.67l.45-.45c-.13.07-.26.35-.45.45Z"/>
  <path class="cls-17" d="M51.3,121.67c.16-.16.22-.27.45-.45l-.45.45Z"/>
  <path class="cls-17" d="M58.35,122.11c-.06-.12.05-.3,0-.45h.45c-.08.19-.28.34-.45.45Z"/>
  <path class="cls-17" d="M37.2,125.64l-.43-.22.43-.22c.04.07,0,.29,0,.45Z"/>
  <path class="cls-17" d="M49.1,126.07s-.06-.08,0-.45v.45Z"/>
  <path class="cls-17" d="M107.28,128.29c.08-.16.29-.35.45-.45l-.45.45Z"/>
  <path class="cls-17" d="M86.13,128.72c-.4-.09-.35-.05-.45-.45l.45.45Z"/>
  <path class="cls-17" d="M83.48,131.37v-.45h.45c-.02.13-.4.3-.45.45Z"/>
  <path class="cls-17" d="M32.58,130.92c.48.04-.01.66-.22.45-.09-.11.07-.45.22-.45Z"/>
  <path class="cls-17" d="M42.71,131.8l-.22-.43c.13-.05.32.04.45,0,0,0-.22.43-.22.43Z"/>
  <path class="cls-23" d="M32.13,131.81c-.48-.04.01-.66.22-.45.09.11-.07.45-.22.45Z"/>
  <path class="cls-17" d="M57.48,132.69v-.45c.07.42,0,.34,0,.45Z"/>
  <path class="cls-17" d="M80.4,134.46v-.45h.45c-.15.09-.28.36-.45.45Z"/>
  <path class="cls-17" d="M52.19,134.46c-.19-.13-.3-.33-.45-.45h.45v.45Z"/>
  <path class="cls-17" d="M104.64,134.89l-.43-.22.43-.22c.07.11-.07.35,0,.45Z"/>
  <path class="cls-17" d="M53.07,134.89c-.23-.11-.34-.37-.45-.45l.45.45Z"/>
  <path class="cls-23" d="M30.15,134.89c-.14-.05-.43.05-.43-.22.08-.28.28-.18.43-.22v.45Z"/>
  <path class="cls-17" d="M77.32,135.31c-.2.06-.36.26-.45.45,0-.04-.46-.5,0-.88.19.07.34.27.45.45h0Z"/>
  <path class="cls-17" d="M53.96,135.34l-.45-.45c.16.06.33.42.45.45Z"/>
  <path class="cls-17" d="M52.42,13.67l.22.43c-.07-.07-.34.07-.45,0,0,0,.22-.43.22-.43Z"/>
  <path class="cls-17" d="M80.17,14.98c.28.15.28.29,0,.45v-.45Z"/>
  <path class="cls-23" d="M65.4,16.75c-.28-.16-.28-.32,0-.45.16-.28.32-.28.45,0-.07.34-.02.45-.45.45Z"/>
  <path class="cls-23" d="M65.4,16.31c-.16.26-.32.27-.45,0,.06-.43.4-.61.67-.88l.22.43s-.45.45-.45.45Z"/>
  <path class="cls-17" d="M50.65,15.86l-.22-.43c.14-.02.3,0,.45,0,0,0-.22.43-.22.43Z"/>
  <path class="cls-17" d="M65.42,16.75c-.34,0-.49-.09-.45-.45h.45v.45Z"/>
  <path class="cls-17" d="M65.85,16.31h-.45c-.06-.3.22-.55.45-.45.02.01.01.36,0,.45Z"/>
  <path class="cls-17" d="M27.5,18.29l-.43.22c-.02-.08-.04-.39,0-.45l.43.22Z"/>
  <path class="cls-17" d="M53.29,18.95l.22.43c-.14-.02-.3.02-.45,0,0,0,.22-.43.22-.43Z"/>
  <path class="cls-23" d="M26.4,20.71c.28.15.28.29,0,.45v-.45Z"/>
  <path class="cls-17" d="M38.96,22.7l-.43.22s0-.45,0-.45l.43.22Z"/>
  <path class="cls-23" d="M32.8,24.68h-.45c.27,0-.09-.46.45,0Z"/>
  <path class="cls-17" d="M47.34,26.45l-.43-.22.43-.22c-.04.16,0,.45,0,.45Z"/>
  <path class="cls-17" d="M109.04,36.57v.45c-.05-.09-.41-.11-.41-.22s.35-.13.41-.21h0Z"/>
  <path class="cls-17" d="M66.73,37.9c.08-.26.14-.45.45-.45l-.45.45Z"/>
  <path class="cls-17" d="M70.26,38.79l-.43-.22.43-.22c.02.15-.02.3,0,.45Z"/>
  <path class="cls-17" d="M69.81,40.33l-.43.22v-.45l.43.22Z"/>
  <path class="cls-17" d="M28.6,43.63c.28.15.28.29,0,.45v-.45Z"/>
  <path class="cls-17" d="M40.73,45.39l.43.67-.43.22c-.4-.43-.57-.73,0-.88h0Z"/>
  <path class="cls-17" d="M64.53,46.72c.08-.25.45-.45.45-.45l-.45.45Z"/>
  <path class="cls-17" d="M82.38,47.16c.28.15.28.29,0,.45v-.45Z"/>
  <path class="cls-17" d="M64.08,47.61c.12-.32.45-.45.45-.45l-.45.45Z"/>
  <path class="cls-17" d="M31.03,48.05l.45-.45c0,.45-.13.37-.45.45Z"/>
  <path class="cls-17" d="M23.98,48.49c-.37.09-.32-.34-.45-.45l.45.45Z"/>
  <path class="cls-17" d="M71.59,50.25s-.41-.15-.45-.45l.45.45Z"/>
  <path class="cls-17" d="M27.94,53.77c-.06-.52.35-.39.45-.45l-.45.45Z"/>
  <path class="cls-17" d="M53.95,53.55l-.88.67c.04-.15-.05-.33,0-.45l.88-.22Z"/>
  <path class="cls-17" d="M73.35,55.1s-.34-.13-.45-.45l.45.45Z"/>
  <path class="cls-17" d="M74.24,56.87c-.05-.09-.41-.2-.45-.45l.45.45Z"/>
  <path class="cls-17" d="M74.67,57.74c-.05-.08-.33-.2-.45-.45,0,0,.45.45.45.45Z"/>
  <path class="cls-23" d="M44.69,57.74c-.04-.34.12-.48.45-.45l-.45.45Z"/>
  <path class="cls-17" d="M109.27,58.62l-.22-.43c.15,0,.34-.04.45,0l-.22.43Z"/>
  <path class="cls-17" d="M27.28,59.5l-.22-.43c.12-.05.3.05.45,0,0,0-.22.43-.22.43Z"/>
  <path class="cls-17" d="M52.42,59.5c.48.04-.01.66-.22.45-.09-.11.07-.45.22-.45Z"/>
  <path class="cls-17" d="M94.5,63.46c.02.14-.04.3,0,.45-.53-.11-.62-.59-.88-.88l.88.45h0Z"/>
  <path class="cls-23" d="M41.61,63.92h-.45c.12-.18.34-.29.45-.45-.06.07.05.29,0,.45Z"/>
  <path class="cls-23" d="M88.56,64.36l.22.43c-.15.01-.3,0-.45,0l.22-.43Z"/>
  <path class="cls-17" d="M48.89,64.36l.22.43c-.15-.01-.3.01-.45,0,0,0,.22-.43.22-.43Z"/>
  <path class="cls-17" d="M44.25,64.79l.45-.45s-.2.35-.45.45Z"/>
  <path class="cls-23" d="M87.45,65.24l.45-.45s-.01.42-.45.45Z"/>
  <path class="cls-17" d="M82.39,64.81l.22.43c-.15-.01-.3.02-.45,0l.22-.43Z"/>
  <path class="cls-17" d="M81.72,65.24l-.45-.45c.16.06.33.42.45.45Z"/>
  <path class="cls-17" d="M43.37,65.24l.45-.45c-.13.07-.28.32-.45.45Z"/>
  <path class="cls-23" d="M27.52,66.12h-.45c.16,0-.01-.05.45,0Z"/>
  <path class="cls-17" d="M48.45,66.12c.28.15.28.29,0,.45v-.45Z"/>
  <path class="cls-17" d="M94.5,67.01l.88.88c-.23-.14-.81-.35-.88-.45-.06-.08.04-.29,0-.45h0Z"/>
  <path class="cls-17" d="M96.27,68.33l-.45-.45c.18.08.33.41.45.45Z"/>
  <path class="cls-17" d="M98.47,68.76l.45-.45s-.12.4-.45.45Z"/>
  <path class="cls-17" d="M97.59,68.76c-.22-.05-.39-.23-.45-.45h.45v.45Z"/>
  <path class="cls-23" d="M40.29,69.21l-.45-.45c.2.09.45.45.45.45Z"/>
  <path class="cls-23" d="M89.22,60.39c-.4-.04-.94-.05-1.32,0-.27-.71-.32-1.46-.45-2.2-1.52-.01-1.44-1.71,0-1.32,2.99-.62,2.56,1.16,1.77,3.53h0Z"/>
  <path class="cls-17" d="M87.44,58.19c-1.34,1.09-1.86-.87-3.08-.89l3.31-1.3-.22.87c-.52.56-.08.89,0,1.32h-.01Z"/>
  <polygon class="cls-23" points="98.47 58.18 96.27 56.2 98.91 55.99 98.47 58.18"/>
  <path class="cls-17" d="M84.37,55.97c-1.42.95-.41-1.19-.47-1.28-.11-.16-1.32-.23-1.29-.91,3.64-1.26,1.55.56,1.79.86.15.19,1.03-.3.84.46-.88-.22-.89.88-.89.88h.01Z"/>
  <path class="cls-23" d="M93.62,53.77c.57.37,2.45,1.11,1.76,1.76-.42.4-2.05-.95-1.76-1.76Z"/>
  <path class="cls-17" d="M91.36,56.33c-.47.37-1.19-.29-1.26-.8.37.27,3.08-1.63,3.08-.22,0,.91-1.45.2-1.64.32-.15.11-.08.63-.18.71h0Z"/>
  <path class="cls-17" d="M97.13,58.41c0,.29-1.05.91-1.31.66-.67-.66,1.31-1.87,1.31-.66Z"/>
  <path class="cls-17" d="M91.85,58.17l-1.32-.21c.41-.46.68-.8,1.32-.66v.88h0Z"/>
  <path class="cls-17" d="M99.79,53.77h-1.32c.15-.64.71-1.01,1.32-.88v.88Z"/>
  <path class="cls-17" d="M94.94,52c-.73.76-.88-.63-1.1-.78-.08-.05-1.04.42-1.1-.53.52-.19,3.01.46,2.2,1.31h0Z"/>
  <path class="cls-17" d="M78.64,52.45c.48-.48,1.36.4.88.88s-1.36-.4-.88-.88Z"/>
  <path class="cls-17" d="M90.09,54.21c-.49.49-1.35-.41-.88-.88s1.37.39.88.88Z"/>
  <path class="cls-17" d="M80.42,52.89l-.23-1.76c.68.47.76.95.66,1.76h-.43.01Z"/>
  <path class="cls-17" d="M92.53,52.89c.37-.06.21.88.21.88-.5.5-1.42-.19-.21-.88Z"/>
  <path class="cls-17" d="M90.54,60.82l.88.45c-.66-.16-.88-.45-.88-.45Z"/>
  <path class="cls-17" d="M84.37,59.95c.62-.32,1.18.28.88.43-.62.32-1.18-.28-.88-.43Z"/>
  <path class="cls-17" d="M98.03,54.22c.62-.32,1.18.28.88.43-.62.32-1.18-.28-.88-.43Z"/>
  <path class="cls-17" d="M95.82,53.77c.62-.32,1.18.28.88.43-.62.32-1.18-.28-.88-.43Z"/>
  <path class="cls-17" d="M100.45,56.42c.28.15.28.29,0,.45v-.45Z"/>
  <path class="cls-17" d="M83.7,56.42c.28.15.28.29,0,.45v-.45Z"/>
  <path class="cls-17" d="M90.76,59.5c.28.15.28.29,0,.45v-.45Z"/>
  <path class="cls-23" d="M75.1,140.62c-.32.82-.35,2.4-2.2,2.2-.14-.62-.4-1.14-.74-1.64-.05-.06.84.85-.59.76-.82,1.09-2.76.6-3.08-.88-.28.04-.59-.02-.88,0,.23-.36-.16-3.2,0-3.97-.11-.15-.62.39-.88.45v-5.73c.97.54,2.35.2,3.21.43.55.15.42,1.1,1.01,1.24.85.21,1.75-1.05,2.39,1.41h.45c3.88.6.84,2.38,2.65,4.4-.49.45-.94.88-1.32,1.32h-.01Z"/>
  <path class="cls-23" d="M66.73,130.03v-10.14h.45c.02.35-.11,1.19.02,1.3.29.26,2-.35,2.54,1.22,1.05,3.02-2.3.28-2.55.57-.36,3.14.33,1.71,1.75,2.42,1.31.67.85,3.67,1.34,5.07l-3.53-.43h-.01Z"/>
  <path class="cls-17" d="M73.33,134.88c.15,0,.3-.02.45,0-.74,1.96,1.78.88,1.32,1.98-.29.7-1.3,1.37-1.76.45-.82-.43.19.88,0,1.1-.78.93-.87-.9-1.1-.88-.78,3.62-1.38-.35-2.05-.78-.11-.07-2.33.64-2.06-.69.22-1.08,1.04-1.6,2.13-1.6.21,2.16.52,3.13,2.2,1.1l-.88-.66c.59,0,1.17-.01,1.76,0h-.01Z"/>
  <path class="cls-54" d="M76.41,124.3c-1.08,2.06-3.55.83-3.53-1.32-.04-.08-.02-.35,0-.45.98-.14,1.87-.45,2.65-.88-.88-.83-.82-1.38.45-1.32.59-.41,1.45.78,1.32,1.32.35,1.34.32,1.9-.88,2.65h-.01Z"/>
  <path class="cls-23" d="M79.07,126.95c-.35.08-1.22-.11-1.32,0-.14.13.39.89.21,1.35s-.97.66-1.09.86c-2.24-1.82.07-4.63,2.2-2.2Z"/>
  <path class="cls-62" d="M72.46,117.25c.77,1.07.37,1.49-.45.45l-.88-.88c-.06-.12.06-.33,0-.45-.83-1.01-1.12-1.89-.88-2.65.39-.19.32-.63.45-.88.94.27.55,1.23.88,2.2.27.13.41.42.45.88.67.71.81,1.15.45,1.32h-.01Z"/>
  <path class="cls-14" d="M75.55,121.67c-.37.75-.81.46-1.32-.88-.02-.14.02-.3,0-.45-.22-.21-.25-.36,0-.45-.67-.75-.67-1.04,0-.88.18-.37.33-.37.45,0,.61-.28,1.76.78,1.32,1.32-.29.4-.3.88-.45,1.32Z"/>
  <path class="cls-23" d="M77.74,123.87c-.96,1.84-3.13,2.6-4.6.86-.14-.18-.96-1.64-.25-1.73.04.09.59.19.64.42.29,1.08-1.19,1.83,2.2,1.31.39-.06.57-.37.69-.41.33-.48,1.08-1.07,1.32-.45h-.01Z"/>
  <path class="cls-23" d="M72.9,122.56c.23-1.07,1.58-.74,1.77-.89.15-.13-.4-.6-.45-.88l1.32.88c-.47,1.55-.97,1.34-2.65.88h0Z"/>
  <path class="cls-38" d="M74.22,119.9l-1.77-1.32c-.19-.2-.27-.63-.45-.88.26.09.5-.14.45-.45.84-.34,2.31,1.17,1.77,1.77v.88Z"/>
  <path class="cls-12" d="M77.74,123.88c-.4.26-.87.32-1.31.45v-.6c1.22-.49.8-.63.54-1.79l.34-.27c.16-.23.32-.23.45,0,.07.22-.05.61,0,.88.2.3.21.59,0,.88-.05.15.06.34,0,.45h-.01Z"/>
  <path class="cls-23" d="M76.87,119.9c-.02.7.73,1.3.88,1.77h-.45c-.2-.73-.93-.93-1.32-1.32s-.6-1.12-1.32-1.32c-.45-.78-.19-1.05.45-.45.3.28,1.42,1.11,1.77,1.32h0Z"/>
  <path class="cls-23" d="M67.17,111.09v-1.32c.19-.05.83.07.88,0,.45.14.34.55.45.88l-1.32.45Z"/>
  <path class="cls-33" d="M83.91,124.3c.07.73-.04,1.48,0,2.2h-.43c-.05-.28.07-.66,0-.88-.04-.14.04-.3,0-.45l-.45-.88c-.02-.14.02-.3,0-.45v-.45h.45c.15.14.28.3.45.45.02.14-.01.3,0,.45h-.01Z"/>
  <path class="cls-23" d="M80.4,126.52c1.01-.22.57-.83,2.2,0-.21.88-.61.87-.88,0-.43.04-.89-.02-1.32,0Z"/>
  <path class="cls-23" d="M70.26,113.73c.28.61.35,1.63.88,2.65-1.42-1.11-1.78-3.63-2.65-5.29.36.77,1.36,1.78,1.77,2.65h0Z"/>
  <path class="cls-23" d="M79.52,123.2l1.32-.21c-.37.96-.74,1.04-1.32.21Z"/>
  <path class="cls-23" d="M83.49,125.18s-.3-.2-.45-.88l.45.88Z"/>
  <path class="cls-23" d="M78.08,123.09c-.01.16-.3.23-.33.34v-.88c.01.08.35.2.33.54Z"/>
  <path class="cls-23" d="M72.02,117.7c-.39-.14-.7-.5-.88-.88.02.05.55.42.88.88Z"/>
  <path class="cls-23" d="M74.22,120.35l-1.77-1.77c.39.43,1.29.9,1.77,1.32,0,.15-.02.3,0,.45Z"/>
  <path class="cls-23" d="M78.19,120.78l-.88-.88c.52.29.77.82.88.88Z"/>
  <path class="cls-23" d="M79.08,121.22l-.45-.45c.39-.11.45.45.45.45Z"/>
  <path class="cls-23" d="M79.96,121.67c-.2-.09-.34-.27-.45-.45h.45v.45Z"/>
  <path class="cls-23" d="M80.84,122.11c-.25-.14-.37-.41-.45-.45l.45.45Z"/>
  <path class="cls-23" d="M83.04,123.87l-1.77-1.77c.66.37,1.11.96,1.77,1.32v.45Z"/>
  <path class="cls-17" d="M76.43,134.89c-.33-.26-.75-.29-.88-.88l.88.88Z"/>
  <path class="cls-17" d="M36.77,72.08c1.24-.95,3.14-2,2.64.21l-2.64-.21Z"/>
  <path class="cls-17" d="M42.73,77.9c-.94-2.39,1.49-.64,1.97.56-1.5.47-1.08-1.16-1.97-.56Z"/>
  <path class="cls-17" d="M41.13,73.11c-.15.12-1.23.25-1.26-.16.57-.54.91-1.28,1.76-1.1-.2.25-.49,1.26-.49,1.26h0Z"/>
  <path class="cls-17" d="M41.62,73.61l.88.88c-.93.13-1.01.05-.88-.88Z"/>
  <path class="cls-17" d="M31.47,68.32c.62-.32,1.18.28.88.43-.62.32-1.18-.28-.88-.43Z"/>
  <path class="cls-17" d="M33.45,70.08c.28.15.28.29,0,.45v-.45Z"/>
  <path class="cls-17" d="M42.72,73.17c.28.15.28.29,0,.45v-.45Z"/>
  <path class="cls-17" d="M44.47,74.05c.28.15.28.29,0,.45v-.45Z"/>
  <path class="cls-17" d="M40.5,74.49c.28.15.28.29,0,.45v-.45Z"/>
  <path class="cls-17" d="M41.83,74.93c.28.15.28.29,0,.45v-.45Z"/>
  <path class="cls-17" d="M39.63,76.25c.28.15.28.29,0,.45v-.45Z"/>
  <path class="cls-17" d="M44.92,76.69c.28.15.28.29,0,.45v-.45Z"/>
  <path class="cls-17" d="M21.78,45.39c-.41-.2.54-.75.88-.43.23.21-.42.66-.88.43Z"/>
  <path class="cls-17" d="M25.97,14.1c.22-.11.39,1.02.66,1.31-1.08.14-1.72-.83-.66-1.31Z"/>
  <path class="cls-17" d="M31.03,13.66c-.21-.18.77-1.17,1.32-.88.21.18-.77,1.17-1.32.88Z"/>
  <path class="cls-17" d="M27.5,13.88c.69-1.21,1.38-.3.88.21-.04.04-.94.18-.88-.21Z"/>
  <path class="cls-17" d="M93.21,67c-.12-.09-.46-1.48-.91-1.76.66.34,1.48.26,1.77,1.32-.22.05-.73.54-.85.43Z"/>
  <path class="cls-17" d="M85.24,72.3c.46-.4,1.46.8,1.76,1.31-.56.37-1.94-1.16-1.76-1.31Z"/>
  <path class="cls-17" d="M86.79,71.85c.28.15.28.29,0,.45v-.45Z"/>
  <path class="cls-17" d="M92.52,67.44c.28.15.28.29,0,.45v-.45Z"/>
  <path class="cls-17" d="M76.43,84.19c.23-1.57.33-1.98,2.2-1.76l-2.2,1.76Z"/>
  <path class="cls-17" d="M79.52,81.99c-.21-2.38,1.77-1.08,1.76-.66s-1.19.54-1.31.66c-.18.37-.32.39-.45,0Z"/>
  <path class="cls-17" d="M72.9,83.31c.48-.48,1.36.4.88.88s-1.36-.4-.88-.88Z"/>
  <path class="cls-17" d="M81.72,78.91v.43c-.45.21-2.55-.59-2.2-.88l2.2.45Z"/>
  <path class="cls-17" d="M74.46,83.31c-1.21-.69-.3-1.38.21-.88.04.04.18.94-.21.88Z"/>
  <path class="cls-23" d="M79.52,81.99h.45c-.07.06-.25,2.13-.45,0Z"/>
  <path class="cls-17" d="M76.44,81.11c.62-.32,1.18.28.88.43-.62.32-1.18-.28-.88-.43Z"/>
  <polygon class="cls-17" points="104.64 69.65 106.17 68.32 106.84 70.09 104.64 69.65"/>
  <rect class="cls-17" x="105.96" y="64.79" width=".88" height="1.32"/>
  <path class="cls-17" d="M86.35,91.25c.08.23-.22,1.31-.22,1.31-.63.63-1.78-.76.22-1.31Z"/>
  <path class="cls-20" d="M77.53,130.05c.26,0,3.41,3.07,2.87,3.96-5.25,2.56-4.42-3.97-2.87-3.96Z"/>
  <path class="cls-6" d="M83.5,130.92c-.06.12.07.41,0,.45-1.16-1.23-3.01-1.5-3.48-3.37-.26-1.02,1.42-.61,1.71-1.48.28-.02.66.06.88,0,1.39.7,1.35,2.16,1.32,3.53-.04.09-.34.68-.45.88h.01Z"/>
  <path class="cls-15" d="M82.15,130.92c.08.08-.37,1.7-.45,1.76-1.48,1.21-.59-2.81.45-1.76Z"/>
  <path class="cls-17" d="M108.17,39.23c-.32-.62.28-1.18.43-.88.32.62-.28,1.18-.43.88Z"/>
  <path class="cls-17" d="M106.41,37.02c.08-.16,1.15.94,1.31,1.31-.83.15-1.46-.52-1.31-1.31Z"/>
  <path class="cls-17" d="M108.82,34.81c.28.15.28.29,0,.45v-.45Z"/>
  <path class="cls-17" d="M104.42,34.81c.28.15.28.29,0,.45v-.45Z"/>
  <path class="cls-17" d="M104.42,36.58c.28.15.28.29,0,.45v-.45Z"/>
  <path class="cls-17" d="M78.21,70.3c.87-.06,1.77.12,2.64.23-.54,1.53-1.91.53-2.64-.23Z"/>
  <path class="cls-17" d="M79.52,67.65l1.76-.21c-.4,1.07-1.08,1.17-1.76.21Z"/>
  <path class="cls-17" d="M77.97,68.76c.28.15.28.29,0,.45v-.45Z"/>
  <path class="cls-17" d="M36.77,134.89c.62-.32,1.18.28.88.43-.62.32-1.18-.28-.88-.43Z"/>
  <path class="cls-17" d="M37.87,133.57c.28.15.28.29,0,.45v-.45Z"/>
  <path class="cls-17" d="M107.51,47.16c.28.15.28.29,0,.45v-.45Z"/>
  <path class="cls-31" d="M57.91,116.37c-.11-.04-1.26-.42-1.32-.45l3.3-.89-.21.89c-.87.78-.89.67-1.77.45Z"/>
  <path class="cls-75" d="M53.07,130.04c.07-.55.07-.98,0-1.32,1.14-.89,2.08.08,2.2,1.32-.82.28-.68,0-1.32.88.11-.94.06-.98-.88-.88Z"/>
  <path class="cls-17" d="M22.66,23.37c.48-.43,2.11.56,2.2,1.31-.76,0-3.05-.55-2.2-1.31Z"/>
  <path class="cls-17" d="M37.42,60.82c.28.15.28.29,0,.45v-.45Z"/>
  <path class="cls-10" d="M57.92,61.7c-.19.39-.33.4-.45,0-.46.21-.75-.08-.88-.88-.42.12-.57-.02-.45-.45.14-.05.32.05.45,0,.83-.66,1.56-1.39,2.2-2.2.14-.15.32-.29.45-.45,2.88.07.64.88.57,1.01-.21.36-.09.7-.13.76.36.66-.59,2.05-1.32,1.77l-.45.45h0Z"/>
  <path class="cls-22" d="M60.56,59.09c-.62,2.34-2.31,3.51-4.4,4.4-.82-.98-.36-1.71.88-1.32-.12-.42.02-.56.45-.45.13.05.3-.04.45,0l.45-.45c.56-.5.93-1.15,1.32-1.77.28-.16.61-.27.88-.45v.02Z"/>
  <path class="cls-17" d="M29.93,23.36c.28.15.28.29,0,.45v-.45Z"/>
  <polygon class="cls-17" points="103.32 61.27 104.43 59.51 105.09 61.7 103.32 61.27"/>
  <path class="cls-17" d="M101.99,59.95c-.32-.62.28-1.18.43-.88.32.62-.28,1.18-.43.88Z"/>
  <path class="cls-17" d="M54.38,14.31c.04-.48.66.01.45.22-.11.09-.45-.07-.45-.22Z"/>
  <path class="cls-17" d="M55.27,16.75c-.41.18-.41-.63,0-.45.02.01.02.45,0,.45Z"/>
  <path class="cls-17" d="M55.72,16.96c-.04.48-.66-.01-.45-.22.11-.09.45.07.45.22Z"/>
  <rect class="cls-17" x="71.59" y="66.55" width=".88" height="1.32"/>
  <polygon class="cls-17" points="105.07 89.92 103.76 90.81 103.32 89.04 105.07 89.92"/>
  <path class="cls-17" d="M96.04,124.75c.28.15.28.29,0,.45v-.45Z"/>
  <path class="cls-10" d="M47.34,63.93c-.11-.02-.42-.6-.81-.67-1.91-.34-4.32,2.18-4.47,1.98l.88-2.2c.95-.76.78-1.5,2.65-1.77.85-.13,2.14-.02,3.08,0,.19-.19.33-.2.45,0,1.57.04,2.93.02,4.4,0h1.32c.83-.49,1.52-.57,1.77.45.47-.14.67.05.45.45-.32.42-.57.89-.88,1.32-.13.05-.3-.05-.45,0-.7.25-1.67.87-1.77.88-.9.15-2.99.09-3.97,0-.35-.04-1.48-.34-2.2-.45-.15-.02-.3.02-.45,0h0Z"/>
  <path class="cls-22" d="M56.6,61.7c-.59-.36-1.1-.45-1.77-.45.33-.45.81-.71,1.32-.88.14.16.3.29.45.45.41.66.41.95,0,.88Z"/>
  <path class="cls-41" d="M56.6,60.39c.39-1.04,1.6-1.55,2.2-2.2-.06.89-.77,1.04-1.14,1.45-.09.11.14.64.05.69-.05.02-.43-.19-1.11.06h0Z"/>
  <path class="cls-17" d="M57.92,14.1c.41.2-.54.75-.88.43-.23-.21.42-.66.88-.43Z"/>
  <path class="cls-59" d="M50.87,130.49c-.55-.95-.36.22-.88-2.2-.04-.14.02-.3,0-.45.47.06.6-.2.88-.45.45.13,1.17-.2,1.78.21.45.3.33,1,.42,1.11.28.3.81.3.89.66,0,.12-.83.64-.89.66-.22.06-1.52-.46-2.2.45h0Z"/>
  <path class="cls-42" d="M52.85,130.48c.28.15.28.29,0,.45v-.45Z"/>
  <path class="cls-1" d="M65.85,47.16c-.57-.27-.66-.84,0-.88v.88Z"/>
  <path class="cls-17" d="M27.52,104.91c-.22-.46.22-1.11.43-.88.33.34-.23,1.29-.43.88Z"/>
  <path class="cls-24" d="M94.51,64.78c-1.24.47-1.75-.69-3.29-.89s-2.6.42-3.33.45c-.6.02-1.18-.02-1.77,0-1.31.05-3.33.2-4.52-.11s-2.73-2.41-3.41-2.54c-.56-1.45-3.17-3.92-3.97-5.73-.05-.12.05-.3,0-.45-.15-.43-.78-2.97.43-1.76.23.23.56,2.72.97,3.02.35.26,1.05-.02,1.24.07.05.13-.05.3,0,.45.5.83,1.24,1.57,2.2,2.2,1.18,1.99,4.32,2.12,6.61,2.2.42.06.9-.06,1.32,0,3.85.54,4.15-.08,7.5,2.65.05.14-.05.32,0,.45h.01Z"/>
  <path class="cls-29" d="M71.58,46.29v.88l-.88-.45v-.45c.26.06.69-.08.88,0h0Z"/>
  <path class="cls-17" d="M48.89,60.84l.22.43h-.45s.22-.43.22-.43Z"/>
  <path class="cls-17" d="M107.94,123.87c-.48-.04.01-.66.22-.45.09.11-.07.45-.22.45Z"/>
  <path class="cls-17" d="M107.72,84.19c-.46.22-1.11-.22-.88-.43.34-.33,1.29.23.88.43Z"/>
  <path class="cls-69" d="M56.6,111.53l.45-.45c-.01.37-.07.43-.45.45Z"/>
  <path class="cls-17" d="M88.55,133.12c.28.15.28.29,0,.45v-.45Z"/>
  <path class="cls-16" d="M72.02,115.05l.88-.43c-.04.27.07.8,0,.88-.02.04-.88-.45-.88-.45Z"/>
  <path class="cls-47" d="M72.02,115.93c-.14-.29-.32-.49-.45-.88h.45s-.05.77,0,.88Z"/>
  <path class="cls-55" d="M73.35,115.72c-.04.48-.66-.01-.45-.22.11-.09.45.07.45.22Z"/>
  <path class="cls-17" d="M40.28,35.71c.41.2-.54.75-.88.43-.23-.21.42-.66.88-.43Z"/>
  <path class="cls-60" d="M85.7,61.71c-1.65.48-4.94.05-6.36-.83-.56-.35-.13-1.15-.26-1.37,2.1,1.18,4.22,1.84,6.61,2.2h.01Z"/>
  <path class="cls-49" d="M75.14,118.58c-.16.08-.4.45-.45.45-.16-.01-.37.05-.45,0-.11-.07-1.7-1.66-1.77-1.77-.32-.43-.27-.96-.45-1.32.27.55,1.75,1.04,2.2,1.32.39.75,0,.5.88,1.32h.02Z"/>
  <path class="cls-17" d="M68.48,65.02l-.43.22v-.45l.43.22Z"/>
  <path class="cls-17" d="M87.22,120.33c.28.15.28.29,0,.45v-.45Z"/>
  <path class="cls-17" d="M29.49,102.26c.48.04-.01.66-.22.45-.09-.11.07-.45.22-.45Z"/>
  <path class="cls-17" d="M32.35,100.28c.04-.48.66.01.45.22-.11.09-.45-.07-.45-.22Z"/>
  <path class="cls-64" d="M50.65,123.43l-.22-.43c.15-.01.3.02.45,0,0,0-.22.43-.22.43Z"/>
  <path class="cls-11" d="M79.07,59.5c-.82-.47-1.89-.71-2.44-1.78-.16-.32.23-.4.23-.42.87.54,1.71,1.3,2.2,2.2h0Z"/>
  <path class="cls-41" d="M57.49,61.71c-.13.16-.32.28-.45.45-.18-.12-.29-.35-.45-.45v-.88c.23.25.62.78.88.88h.01Z"/>
  <path class="cls-41" d="M57.91,61.71l.45-.45c-.13.12-.18.37-.45.45Z"/>
  <path class="cls-22" d="M55.05,62.59c.28.15.28.29,0,.45v-.45Z"/>
  <path class="cls-34" d="M84.8,63.48c-.04-.08-.02-.36,0-.45.16-.23.32-.25.45,0,.06.45-.09.68-.45.45Z"/>
  <path class="cls-34" d="M88.77,63.05l-.22.43c-.96.04-1.92-.04-2.87,0-.37-.18-.39-.32,0-.45l.88-.45c.28-.01.6-.02.88,0,.13.2.27.2.45,0,.16.02.34-.05.45,0l.45.45h0Z"/>
  <path class="cls-34" d="M85.69,63.04c-.19.36-.34.37-.45,0-.21-.16-.21-.32,0-.45.12-.04.29.02.45,0,.37.18.39.32,0,.45Z"/>
  <path class="cls-60" d="M85.69,63.04v-.45c.28-.04.59.02.88,0-.14.45-.52.39-.88.45Z"/>
  <path class="cls-60" d="M85.68,63.47c-.45.01-.53.86-.88,0l.45-.45c.15-.01.3.02.45,0v.45h-.01Z"/>
  <path class="cls-60" d="M85.24,63.04h-.45c.11-.34.07-.32.45-.45v.45Z"/>
  <path class="cls-60" d="M88.78,63.04l-.45-.45c.22.09.47-.05.45.45Z"/>
  <path class="cls-60" d="M87.67,63.03l-.22-.43c.15.01.3-.02.45,0l-.22.43Z"/>
  <path class="cls-60" d="M83.7,63.47c.28.15.28.29,0,.45v-.45Z"/>
</svg>