<?xml version="1.0" encoding="UTF-8"?>
<svg id="Livello_1" data-name="Livello 1" xmlns="http://www.w3.org/2000/svg" viewBox="0 0 141.73 141.73">
  <defs>
    <style>
      .cls-1 {
        fill: #a46b68;
      }

      .cls-2 {
        fill: #b8b2b2;
      }

      .cls-3 {
        fill: #b3d0d0;
      }

      .cls-4 {
        fill: #b3adac;
      }

      .cls-5 {
        fill: #c2bab8;
      }

      .cls-6 {
        fill: #ad9897;
      }

      .cls-7 {
        fill: #ba9a9b;
      }

      .cls-8 {
        fill: #a29a98;
      }

      .cls-9 {
        fill: #8d7b78;
      }

      .cls-10 {
        fill: #8d7c79;
      }

      .cls-11 {
        fill: #fefefe;
      }

      .cls-12 {
        fill: #a27e7b;
      }

      .cls-13 {
        fill: #a9908b;
      }

      .cls-14 {
        fill: #987e7a;
      }

      .cls-15 {
        fill: #fff;
      }

      .cls-16 {
        fill: #b7b3b3;
      }

      .cls-17 {
        fill: #dabcba;
      }

      .cls-18 {
        fill: #afa2a1;
      }

      .cls-19 {
        fill: #d8b6b5;
      }

      .cls-20 {
        fill: #b19895;
      }

      .cls-21 {
        fill: #d2d0d1;
      }

      .cls-22 {
        fill: #a6807e;
      }

      .cls-23 {
        fill: #9b9693;
      }

      .cls-24 {
        fill: #b0cbcb;
      }

      .cls-25 {
        fill: #b3b3af;
      }

      .cls-26 {
        fill: #a89895;
      }

      .cls-27 {
        fill: #a09591;
      }

      .cls-28 {
        fill: #a79d99;
      }

      .cls-29 {
        fill: #a29897;
      }

      .cls-30 {
        fill: #817670;
      }

      .cls-31 {
        fill: #a59c9c;
      }

      .cls-32 {
        fill: #998785;
      }

      .cls-33 {
        fill: #97928e;
      }

      .cls-34 {
        fill: #e8eeed;
      }

      .cls-35 {
        fill: #967c78;
      }

      .cls-36 {
        fill: #bab1b1;
      }

      .cls-37 {
        fill: #b0a9a9;
      }

      .cls-38 {
        fill: #b08e8c;
      }
    </style>
  </defs>
  <path class="cls-36" d="M95.34,74.57c-.12.64.23,1.56.08,2.18l-1.03,2.22c-.15.62.23,1.59.08,2.18l-1.07,1.14c-.18.59.26,1.62.08,2.18l-1.07,1.14c-.11.32.14.78.04,1.1l-1.07,1.14c-.13.32.17.78.04,1.1l-1.07,1.14c-.14.3.17.78.04,1.1l-1.07,1.14c-.14.3.17.81.04,1.1l-1.07,1.14c-.14.3.17.81.04,1.1l-1.07,1.14c-.14.27.2.81.04,1.1l-2.1,2.25c-.17.27.2.84.04,1.1l-2.1,2.25c-.17.24.2.84.04,1.1l-3.17,3.39c-.17.21.2.86.04,1.1l-1.07,1.14-6.33,6.79c-.23.18-.85-.15-1.1.04l-2.1,2.25-1.1.04-.28-1.41c8.73-9.84,17.19-19.84,22.08-32.16l-.04-1.1,1.03-2.22c.11-.32-.14-.78-.04-1.1l1.07-1.14c.11-.32-.14-.75-.04-1.1.6-2.96,1.62-5.2,3.05-6.68.29-.97.64-.95,1.1-.04-.05.35.08.75.04,1.1l-1.07,1.14.08-.12Z"/>
  <path class="cls-11" d="M96.84,23.1c-1.06.33-.97,1.28-1.03,2.22-.29.97-.64.95-1.1.04-5.66-13.23-20.46,3.41-6.45,3.51-1.26-2.11-.72-4.1,2.06-3.36,4.1,6.6-1.52,10.75-7.41,6.83-3.1-.5-6.27-6.47-3.58-8.63-.75-.73-.87-1.51-.08-2.18,1.02-3.99,6.62-7.76,9.69-4.73.27-.53.65-.52,1.1-.04.23-.97.61-.95,1.1-.04,1-.64,2.26-.25,2.22,1.03,1.47-.43,3.63,1.71,3.39,3.17,1.42.62,1.75,1.8.08,2.18Z"/>
  <path class="cls-27" d="M95.99,29.7l-1.07,1.14c-.1.35.17.84.04,1.1l-2.1,2.25c-.23.15-.76-.09-1.1.04l-2.14,1.18c-.96.12-2.32.17-3.28.11-1.75-.29-2.88-.98-3.36-2.06-.71-.3-.69-.67-.04-1.1,5.27.37,7.84-.33,7.41-6.83-.97-.29-.95-.64-.04-1.1,1.99-.56,2.79.95,1.18,2.14l1.18,2.14c-.35-.89-.01-2.01.99-3.32.29-.97.64-.95,1.1-.04l1.1-.04c-.07,1.37.37,3.21.15,4.38h-.03Z"/>
  <path class="cls-16" d="M59.17,72.54l-3.17,3.39c-.62.46-1.57.69-2.14,1.18l-5.27,5.65c-.31.42-.73.75-1.07,1.14-1.39,1.09-1.84.56-1.14-1.07,2.7-4.34,6.2-8.09,10.54-11.3.29-.16.76.09,1.1-.04l1.07-1.14,1.1-.04c.96-.03,1.39-.02,1.14,1.07.74.29.72.67.04,1.1-.49.25-1.75-.17-2.18.08l-.03-.03Z"/>
  <path class="cls-37" d="M48.96,125.39c-.73-.03-1.53.17-2.18.08-3.23-1.69-5.96-4.33-7.9-7.37-.1-.32.03-.73-.04-1.1.26-.79.63-1.16,1.07-1.14.3-.56.68-.55,1.1-.04.17.66-.14,1.78.08,2.18,1.82,2.23,4.2,3.89,6.75,5.23.29.11.75-.14,1.1-.04l6.6.88c.94.29.95.64.04,1.1-2.06.94-4.46,1.23-6.56.23h-.06Z"/>
  <path class="cls-4" d="M91.16,16.72c-.27-.11-.72.11-1.1.04-.45-.51-.8-.5-1.1.04-5.67-.18-5.57,1.18-9.69,4.73-.29.97-.64.95-1.1.04-.2-3.19,2.73-5.18,5.23-6.75.29-.13.73.06,1.1-.04,1.39-.86,2.91-.77,4.38-.15.7.09,1.68-.23,2.18-.08.8.29.78.67.04,1.1.97.29.95.64.04,1.1l.03-.03Z"/>
  <path class="cls-26" d="M47.56,84.98l-1.07,1.14c-.13.32.17.81.04,1.1l-1.07,1.14c-.35.74-.68,1.48-1.03,2.22l-1.07,1.14c-.14.3.17.78.04,1.1l-1.07,1.14c-.14.3.17.78.04,1.1l-1.07,1.14c.48.3.46.68.04,1.1l-1.07,1.14c-.29.97-.64.95-1.1.04-.5-.27-.49-.62-.04-1.1.08-.35-.14-.78-.04-1.1,1.6-5.06,4-9.53,7.18-13.39.61.12.98.46,1.14,1.07.07.26.09.81.04,1.1l.08-.09Z"/>
  <path class="cls-33" d="M74.54,74.19c-1.66-.15-3.15-1.2-4.5-3.13l-1.1.04c-1.91-.69-3.59-.43-5.46.19l-1.1.04c-.29.74-.67.72-1.1.04l-1.14-1.07c2.4-1.97,6.72-2.36,9.8-1.44.35-.01.75-.08,1.1-.04l1.14,1.07c.36.34.9.67,1.14,1.07.75.56,1.49,1.17,1.18,2.14.74.32.75.7.04,1.1Z"/>
  <path class="cls-25" d="M81.88,33.44c-2.21-.04-3.72-3.19-4.57-5.31-.22-.49.09-1.51-.08-2.18l-.04-1.1c.03-.7-.2-1.62-.08-2.18.29-.97.64-.95,1.1-.04.43-.31.82.06,1.14,1.07.13,3.89,1.07,5.69,3.58,8.63l-1.07,1.14v-.03Z"/>
  <path class="cls-29" d="M100.88,44.82l-.99,3.32c0,1.45.19,2.93.15,4.38-.29.97-.64.95-1.1.04-.29.97-.64.95-1.1.04l-.08-2.18c.03-.73-.11-1.45-.08-2.18.25-2.94.88-5.52,1.91-7.71.29-.97.64-.95,1.1-.04.05,1.45.16,2.93.15,4.38l.03-.06Z"/>
  <path class="cls-18" d="M75.03,88.39c-.11.32.17.81.04,1.1l-4.19,5.61c-.48.45-1.55.69-2.14,1.18l-1.1.04c-.3.62-.68.63-1.1.04,2.6-3.78,5.39-7.16,8.4-10.15.29-.97.64-.95,1.1-.04.01.35.08.75.04,1.1l-1.07,1.14.03-.03Z"/>
  <path class="cls-2" d="M66.36,121.51c-.26.15-.76-.09-1.1.04l-1.07,1.14c-.29.16-.82-.12-1.1.04l-1.07,1.14c-.29.13-.73-.06-1.1.04l-3.24,1.22c-.72.11-1.45.02-2.18.08.17-.15-.17-.78-.04-1.1-.19-.46.15-.82,1.07-1.14.35-.04.73.03,1.1-.04l2.14-1.18c.35-.1.76.06,1.1-.04l1.07-1.14c.32-.13.76.09,1.1-.04l1.07-1.14c.32-.07.75-.03,1.1-.04,4.14-2.27,3.86-1.03,1.18,2.14l-.03.03Z"/>
  <path class="cls-13" d="M76.9,78.47c.37.74.63,1.4.08,2.18-.01,1.34.37,3.24.15,4.38-.3.56-.68.58-1.1.04-.39.57-.75.2-1.14-1.07l-.04-1.1c.02-.35-.03-.73-.04-1.1.82-1.37.77-3.08-.15-4.38-.01-.38,0-.73-.04-1.1-.73-1.02-.76-1.78-.08-2.18-.07-.38.06-.76-.04-1.1.3-.68.67-.66,1.1-.04.15.26-.09.76.04,1.1l1.14,1.07c.21.92.02,2.21.11,3.28v.03Z"/>
  <path class="cls-31" d="M66.64,98.53c-.26.15-.76-.12-1.1.04l-1.07,1.14c-.35.07-.73,0-1.1.04l-1.98.74c-10.95-.58.04-3.11,5.12-4.13.32-.1.76.06,1.1-.04.31.57-.04,1.31-1.03,2.22h.06Z"/>
  <path class="cls-6" d="M99.19,59.12l-.99,3.32c-.09.7.2,1.56.08,2.18l-1.07,1.14c-.29.97-.64.95-1.1.04-.56-.3-.55-.65-.04-1.1l-.04-1.1c.28-2.92.91-5.5,1.91-7.71.29-.97.64-.95,1.1-.04.04,1.07.19,2.2.11,3.28h.03Z"/>
  <path class="cls-28" d="M99.09,24.09c.82.99.92,2.32.11,3.28.92.55.72,1.34.08,2.18-.29.97-.64.95-1.1.04,0-1.95-.42-3.76-1.29-5.42-.07-.35,0-.73-.04-1.1-.11-.69.11-1.84-.08-2.18.29-.97.64-.95,1.1-.04l1.14,1.07c.19.55-.04,1.48.08,2.18Z"/>
  <path class="cls-24" d="M38.51,107.15c.9,1.57,1,3.74.19,5.46.98.46.77,1.34.08,2.18-.29.97-.64.95-1.1.04-.21-.95.01-2.21-.11-3.28-.83-1.4-.74-2.91-.15-4.38.05-1.08-.25-2.29-.11-3.28.29-.97.64-.95,1.1-.04.87.81.93,2.41.11,3.28v.03Z"/>
  <path class="cls-17" d="M100.61,37.18c-.29.97-.64.95-1.1.04-.76-.21-.75-.58-.04-1.1-.85-1.95-.94-4.53-.23-6.56-.03-.73-.02-1.45-.08-2.18.29-.97.64-.95,1.1-.04.23,3.25.23,6.56.34,9.84Z"/>
  <path class="cls-11" d="M74.96,86.21c-.13.35-3.56,5.44-4.15,6.19-1.17,1.55-3.03,2.46-4.28,3.96-3.19,1.07-5.94,3.08-9.77,2.55.12,1.89,5.41,1.03,6.6.85-1.29,2.22-7.47,1.71-7.67-.84l1.07-1.14c1.27-.31,3.03.19,4.61-.42,7.38-2.76,9.84-8.07,13.48-14.45-.02.35.08.75.04,1.1.67.79.93,1.54.08,2.18v.03Z"/>
  <path class="cls-11" d="M68.46,119.25c-.8,1.28-.71,1.39-2.1,2.25l1.03-2.22-2.18.08c7.63-7.18,13.57-13.46,18.93-22.55l1.07-1.14c1.1-1.93,1.28-4.09,1.99-5.53l1.07-1.14c.38-.8.53-2.2.99-3.32l1.1-.04c-5.53,16.59-14.29,21.45-21.8,33.58l-.09.03Z"/>
  <path class="cls-5" d="M96.76,20.89c-.12-.2-3.19-3.03-3.39-3.17-.58-.94.07-1.25,1.07-1.14,1.13.8,1.4,1.11,2.25,2.1l1.14,1.07c.18.26-.12.79.04,1.1l-1.1.04Z"/>
  <path class="cls-11" d="M55.49,124.06c-2.76.82-4.37-.26-6.6-.88,2.52-.26,5.15.05,7.64-.26.02.7-.98.96-1.07,1.14h.03Z"/>
  <path class="cls-11" d="M60.19,70.3c-.45-.33-.46-.68-.04-1.1,2.43-1.07,7.73-2.48,9.84-.34-3.87-.04-6.17.5-9.8,1.44Z"/>
  <path class="cls-11" d="M97.86,52.6c.98.66.83,2.27.11,3.28-.16,2.19-.7,5.9-1.91,7.71.03-4.1.31-9.6,1.72-13.2-.03.73.11,1.45.08,2.18v.03Z"/>
  <path class="cls-11" d="M99.65,40.5c-.1,1.43-1.21,6.18-1.91,7.71.15-4.02.7-8.31.69-12.06.29-.97.64-.95,1.1-.04l.04,1.1c.98.66.83,2.27.11,3.28h-.03Z"/>
  <path class="cls-12" d="M39.47,103.83c.1,1.07.08,2.18.11,3.28-.29.97-.64.95-1.1.04-.04-1.1-.13-2.2-.11-3.28-2.13-5.13,2.83-5.68,1.1-.04Z"/>
  <path class="cls-11" d="M48.96,125.39c1.98.11,4.53-.04,6.56-.23-1.75,1.63-4.78,2.17-6.56.23Z"/>
  <path class="cls-3" d="M99.5,36.12l-1.1.04c-.02-2.15-.04-4.42-.23-6.56l1.1-.04c.13,2.15.27,4.41.23,6.56Z"/>
  <path class="cls-19" d="M39.77,112.57c-.29.97-.64.95-1.1.04-.15-1.8-.16-3.66-.19-5.46l1.1-.04c.12,1.8.21,3.66.19,5.46Z"/>
  <path class="cls-11" d="M63.51,71.29c2.87-1.03,1.62-1.92,5.46-.19-1.55-.21-3.77.13-5.46.19Z"/>
  <path class="cls-15" d="M103.64,124.58l-2.18.08-.11-3.28c1.58.32,2.56,1.68,2.29,3.21Z"/>
  <path class="cls-11" d="M98.17,29.62c-.01-.29-.98-3.95-1.29-5.42,1.8.87,1.15,3.68,1.29,5.42Z"/>
  <path class="cls-11" d="M95.26,72.37c-.25,1.26-2.26,5.22-3.05,6.68.96-3.32.8-7.99,2.9-11.03.97.23.98.61.04,1.1.81.81,1.02,2.46.11,3.28v-.03Z"/>
  <path class="cls-11" d="M74.81,81.83c.07-1.4-.04-2.96-.15-4.38,1.64.29,1.85,3.86.15,4.38Z"/>
  <path class="cls-15" d="M37.55,111.58c0-.23-1.13-.86-1.17-1.76-.06-1.65,1.02-2.42,1.01-2.62l.15,4.38Z"/>
  <path class="cls-14" d="M39.85,114.78c.51.33.52.68.04,1.1-.18.62.13,1.16-1.07,1.14-.81-.64-.83-1.42-.08-2.18-.08-.72-.02-1.45-.08-2.18l1.1-.04c0,.73.14,1.48.08,2.18v-.03Z"/>
  <path class="cls-7" d="M96.33,71.25c.01.35.08.75.04,1.1l-1.1.04c.17-.94-.25-2.26-.11-3.28.29-.97.64-.95,1.1-.04.94.2.6,1.37.08,2.18Z"/>
  <path class="cls-21" d="M96.25,69.05l-1.1.04c.05-.35-.03-.73-.04-1.1s-.05-.72-.04-1.1c.29-.97.64-.95,1.1-.04.43-.22.79.12,1.14,1.07-.05.35.05.72.04,1.1-.29.97-.64.95-1.1.04Z"/>
  <path class="cls-11" d="M98.2,62.44l.99-3.32c-.13,2.13-.97,3.14-.99,3.32Z"/>
  <path class="cls-32" d="M99.04,54.74l.04,1.1-1.1.04c.08-1.08-.13-2.2-.11-3.28l1.1-.04c.94.2.63,1.37.08,2.18Z"/>
  <path class="cls-11" d="M99.92,48.14c.02-1.19-.44-2.75.99-3.32-.02,1.19.44,2.75-.99,3.32Z"/>
  <path class="cls-22" d="M100.73,40.46l-1.1.04c.08-1.08-.13-2.2-.11-3.28l1.1-.04.11,3.28Z"/>
  <path class="cls-11" d="M100.27,27.34l-1.1.04c-.1-1.07.04-2.21-.11-3.28,1.44.47,1.12,2.05,1.22,3.24Z"/>
  <path class="cls-11" d="M39.47,103.83c-.09-1.01.35-3.3-.67-3.26-1.06.33-.41,2.31-.44,3.3l-1.1.04c.33-2.34,0-4.8,1.95-6.64-.05.29.03.78.04,1.1.47.27.85,1.02,1.18,2.14-.1,1.17.5,2.69-.99,3.32h.03Z"/>
  <path class="cls-11" d="M57.7,125.09l3.24-1.22c-.58.17-1.04.91-3.24,1.22Z"/>
  <path class="cls-11" d="M77.34,28.13c.63,1.46,3.08,4.25,4.57,5.31.33-.62.7-.63,1.1-.04,1.18.57,2.28,1.32,3.36,2.06-5.04-.35-8.01-2.14-9-7.33h-.03Z"/>
  <path class="cls-11" d="M122.27,61.58c-.77-.35.57-1.88,2.14-1.15.77.35-.57,1.88-2.14,1.15Z"/>
  <path class="cls-11" d="M99.04,54.74l-.08-2.18,1.1-.04c-.03.93.04,1.89-1.03,2.22Z"/>
  <path class="cls-15" d="M97.32,67.93c-.75-.61-.81-1.57-.08-2.18.33-.51.68-.49,1.1-.04-.14.96.54,2.22-1.03,2.22Z"/>
  <path class="cls-11" d="M96.33,71.25l-.08-2.18,1.1-.04c-.05.93.06,1.83-1.03,2.22Z"/>
  <path class="cls-11" d="M96.18,66.87l-1.1.04c.05-.93-.06-1.83,1.03-2.22.01.35-.03.76.04,1.1.71.32.72.67.04,1.1v-.03Z"/>
  <path class="cls-11" d="M91.12,15.62l-.04-1.1c2.76.89,1.93,1.07,3.36,2.06-.55.95-2.5-.09-3.32-.99v.03Z"/>
  <path class="cls-11" d="M94.42,78.97l1.03-2.22c-.35,1.52-.97,2.1-1.03,2.22Z"/>
  <path class="cls-11" d="M89.62,35.38l2.14-1.18c-.17.06-.32.91-2.14,1.18Z"/>
  <path class="cls-11" d="M90.22,84.58c.34-.97.89-1.89,1.03-2.22.33,1.06-.9,1.83-1.03,2.22Z"/>
  <path class="cls-11" d="M78.21,21.53c.71.3.69.64.04,1.1l-1.1.04c1.14-4.78,1.86-5.91,6.3-7.86-2.09,1.9-4.64,3.77-5.23,6.75v-.03Z"/>
  <path class="cls-15" d="M76.98,80.67c-.03-.73,0-1.48-.08-2.18l1.13,1.59-1.06.59Z"/>
  <path class="cls-11" d="M74.62,76.37c-1.43-1.75-2.66-2.9-4.54-4.23l-.04-1.1c1.5.38,2.91,2.54,4.5,3.13.11.69,0,1.48.08,2.18v.03Z"/>
  <path class="cls-11" d="M70.91,95.1l4.19-5.61c-1.49,3.22-1.78,3.29-4.19,5.61Z"/>
  <path class="cls-11" d="M57.63,122.91s.58-.75,2.14-1.18l-2.14,1.18Z"/>
  <path class="cls-11" d="M46.41,82.81c-1.55,2.29-6.53,11.19-7.18,13.39,2.42-9.04,7.36-16.51,14.54-22.39l1.07-1.14c.62-.46,1.45-.81,2.14-1.18-3.46,4.16-7.39,6.62-10.54,11.3l-.03.03Z"/>
  <path class="cls-11" d="M41.06,118.02l6.75,5.23c-2.94-1.03-5.19-2.23-6.75-5.23Z"/>
  <path class="cls-11" d="M38.89,118.1l7.9,7.37c-3.3-.53-7.03-4.09-7.9-7.37Z"/>
  <path class="cls-11" d="M40.42,99.44c-.71-.3-.69-.64-.04-1.1.13-.5.96-.88,1.07-1.14-.2.82.12,1.86-1.03,2.22v.03Z"/>
  <path class="cls-38" d="M40.46,100.52c-1.06-.31-1.06-1.21-1.18-2.14l1.1-.04c-.11.32.11.75.04,1.1-.08.29.08.72.04,1.1v-.03Z"/>
  <path class="cls-11" d="M38.85,117c-1.57.11-.97-1.22-1.18-2.14l1.1-.04c.08.72-.04,1.48.08,2.18Z"/>
  <path class="cls-11" d="M39.88,115.86c.08-.29-.08-.69-.04-1.1.5.13,1.01.55,1.14,1.07l-1.1.04Z"/>
  <path class="cls-15" d="M41.45,97.23c.08-.35-.11-.75-.04-1.1.33-.48.68-.49,1.1-.04-.19.5-.99.88-1.07,1.14Z"/>
  <path class="cls-11" d="M41.41,96.12c.13-.53.58-.92,1.07-1.14-.14.3.14.78.04,1.1l-1.1.04Z"/>
  <path class="cls-11" d="M42.41,93.91l1.07-1.14c-.27.62-.98.96-1.07,1.14Z"/>
  <path class="cls-11" d="M43.43,91.66l1.07-1.14c-.22.47-.93.82-1.07,1.14Z"/>
  <path class="cls-11" d="M45.5,88.31l1.07-1.14c-.27.62-.96.93-1.07,1.14Z"/>
  <path class="cls-11" d="M46.53,86.09l1.07-1.14c-.14.94-1.04,1.05-1.07,1.14Z"/>
  <path class="cls-11" d="M48.59,82.73c1.86-2.59,2.81-3.64,5.27-5.65l-5.27,5.65Z"/>
  <path class="cls-15" d="M53.74,73.81c.37-.33.67-.84,1.07-1.14-.31.42-.64.81-1.07,1.14Z"/>
  <path class="cls-15" d="M55.72,98.91c-.09-1.04.29-.94,1.07-1.14l-1.07,1.14Z"/>
  <path class="cls-11" d="M56,75.94l3.17-3.39c-.2.12-1.69,2.3-3.17,3.39Z"/>
  <path class="cls-11" d="M58.05,71.48c.31-.42.7-.75,1.07-1.14-.32.1-.66.95-1.07,1.14Z"/>
  <path class="cls-11" d="M60.87,121.7s.46-.92,1.07-1.14l-1.07,1.14Z"/>
  <path class="cls-15" d="M59.09,70.34c.34-.36.69-.98,1.07-1.14l.04,1.1c-.35.1-.76-.06-1.1.04Z"/>
  <path class="cls-11" d="M62.05,123.84l1.07-1.14s-.23.79-1.07,1.14Z"/>
  <path class="cls-11" d="M63.04,120.52s.32-.97,1.07-1.14l-1.07,1.14Z"/>
  <path class="cls-11" d="M61.37,72.47l-.04-1.1,1.1-.04.04,1.1c-.31.16-.82-.12-1.1.04Z"/>
  <path class="cls-11" d="M64.19,122.69c.25-.44.61-.95,1.07-1.14-.25.44-.58.89-1.07,1.14Z"/>
  <path class="cls-15" d="M62.45,72.43l-.04-1.1,1.1-.04c-.26.1-.61.92-1.07,1.14Z"/>
  <path class="cls-11" d="M64.5,99.68l1.07-1.14s-.32.97-1.07,1.14Z"/>
  <path class="cls-11" d="M66.64,98.53l1.03-2.22,1.1-.04c-.51.4-.7,1.48-2.1,2.25h-.03Z"/>
  <path class="cls-11" d="M69.56,119.22l2.1-2.25c-.4.28-.8,2.12-2.1,2.25Z"/>
  <path class="cls-15" d="M68.97,71.1c.38.04.78-.11,1.1-.04l.04,1.1c-.42-.31-.79-.9-1.14-1.07Z"/>
  <path class="cls-11" d="M72.74,116.93c1.5-2.84,3.9-4.79,6.33-6.79-2.29,2.72-3.42,4.39-6.33,6.79Z"/>
  <path class="cls-11" d="M71.07,68.84c.38.04.84.73,1.14,1.07-.36-.37-.84-.64-1.14-1.07Z"/>
  <path class="cls-11" d="M74.5,73.09c-.17-.6-.81-1.51-1.18-2.14,1.23.34,1.64,1.14,2.25,2.1l-1.1.04h.03Z"/>
  <path class="cls-11" d="M75.03,88.39l1.07-1.14c-.12.73-1.04,1.05-1.07,1.14Z"/>
  <path class="cls-11" d="M76.06,86.17c-.71-.24-.69-.59-.04-1.1l1.1-.04c-.12.64-.31,1.09-1.07,1.14Z"/>
  <path class="cls-11" d="M75.65,74.15l1.14,1.07c-.07-.29-.95-.66-1.14-1.07Z"/>
  <path class="cls-15" d="M79.07,110.14c.4-.33.67-.81,1.07-1.14-.31.42-.73.75-1.07,1.14Z"/>
  <path class="cls-11" d="M77.22,24.85l.04,1.1c-.24-.95-.08-.52-.04-1.1Z"/>
  <path class="cls-11" d="M80.1,107.92l3.17-3.39c-1.22,1.82-2.42,2.44-3.17,3.39Z"/>
  <path class="cls-11" d="M83.23,103.42l2.1-2.25c-.83,1.34-1.85,1.87-2.1,2.25Z"/>
  <path class="cls-15" d="M84.08,96.82c.28-.45.84-.79,1.07-1.14l-1.07,1.14Z"/>
  <path class="cls-11" d="M85.29,100.07l2.1-2.25c-.79,1.39-1.94,1.96-2.1,2.25Z"/>
  <path class="cls-11" d="M87.36,96.71l1.07-1.14c-.33.59-.93.9-1.07,1.14Z"/>
  <path class="cls-15" d="M87.13,90.15c.27-.59.96-.91,1.07-1.14l-1.07,1.14Z"/>
  <path class="cls-11" d="M88.39,94.49l1.07-1.14c-.3.62-.96.93-1.07,1.14Z"/>
  <path class="cls-11" d="M89.41,92.28l1.07-1.14c-.27.62-.96.93-1.07,1.14Z"/>
  <path class="cls-15" d="M89.19,85.72c.16-.41.93-.79,1.07-1.14-.11.32.14.78.04,1.1l-1.1.04Z"/>
  <path class="cls-15" d="M90.41,90.03l1.07-1.14c-.24.62-.99.94-1.07,1.14Z"/>
  <path class="cls-11" d="M91.44,87.82l1.07-1.14c-.24.62-.98.96-1.07,1.14Z"/>
  <path class="cls-11" d="M91.21,81.26c.26-.79,1.04-1.05,1.07-1.14l-1.07,1.14Z"/>
  <path class="cls-11" d="M92.47,85.6l1.07-1.14c-.26.82-1.04,1.05-1.07,1.14Z"/>
  <path class="cls-11" d="M93.43,82.28l1.07-1.14c-.23.85-1.04,1.05-1.07,1.14Z"/>
  <path class="cls-11" d="M92.86,34.17l2.1-2.25c-.8,1.34-.79,1.39-2.1,2.25Z"/>
  <path class="cls-11" d="M95.34,74.57l1.07-1.14c-.12.73-1.04,1.05-1.07,1.14Z"/>
  <path class="cls-11" d="M94.93,30.81l1.07-1.14c-.17.88-1.04,1.05-1.07,1.14Z"/>
  <path class="cls-11" d="M97.24,65.73c.1-.53.55-.95,1.07-1.14-.08.35.08.75.04,1.1l-1.1.04Z"/>
  <path class="cls-11" d="M96.69,18.71l1.14,1.07c-.25-.37-.81-.67-1.14-1.07Z"/>
  <path class="cls-11" d="M97.87,20.85c.19.34.87.64,1.14,1.07-.06-.17-1.01-.52-1.14-1.07Z"/>
  <path class="cls-8" d="M94.74,25.35l-1.1.04c-3.9-4.28-12.13-4.46-6.49,2.41,1.52-1.33,2.01-.74,1.14,1.07-5.07,4.65-10.57-5.51-3.3-8.9,4.35-2.04,9.68.01,9.75,5.42v-.03Z"/>
  <path class="cls-9" d="M90.38,25.5c-.75,1.01-1.19,2.54-2.06,3.36-.5-.13-.97-1.04-1.14-1.07-5.95-2.29,1.19-9.2,3.17-3.39l.04,1.1Z"/>
  <path class="cls-23" d="M93.37,17.75c-.57-.39-1.54-.73-2.22-1.03l-.04-1.1c.75-.03,3.11.71,3.32.99.33.42-.3,1.29-1.07,1.14Z"/>
  <path class="cls-35" d="M79.36,23.7c-.61-.07-1-.46-1.14-1.07-.07-.29-.09-.81-.04-1.1l1.1-.04.08,2.18v.03Z"/>
  <path class="cls-23" d="M88.98,16.8l.51-1.09.59,1.06c-.32-.08-.73.03-1.1.04Z"/>
  <path class="cls-34" d="M93.64,25.39c.36,1.12-.1,3.06.15,4.38-1.21.22-.99-.9-1.11-1.07l-1.18-2.14c-.37-.57.05-1.19-1.18-2.14-4.06-3.17-5.42-.51-3.17,3.39-1.02-.14-2.2.22-3.28.11-1.92-7.61,7.8-8.93,9.77-2.52v-.03Z"/>
  <path class="cls-1" d="M92.68,28.71c-.88-1.05-.78-1.54-1.18-2.14l1.18,2.14Z"/>
  <path class="cls-30" d="M81.88,33.44c-.23-.66.57-1.15,1.07-1.14l.04,1.1c-.3-.14-.87.2-1.1.04Z"/>
  <path class="cls-10" d="M76.06,86.17l-1.1.04c.19-.47-.17-1.51-.08-2.18.5.16.95.55,1.14,1.07.1.26.03.73.04,1.1v-.03Z"/>
  <path class="cls-20" d="M97.32,67.93c-.72.14-.86-.49-1.14-1.07-.13-.26.03-.7-.04-1.1l1.1-.04c-.12.64.17,1.48.08,2.18v.03Z"/>
</svg>