<?xml version="1.0" encoding="UTF-8"?>
<svg id="Livello_1" data-name="Livello 1" xmlns="http://www.w3.org/2000/svg" viewBox="0 0 141.73 141.73">
  <defs>
    <style>
      .cls-1 {
        fill: #57585d;
      }

      .cls-2 {
        fill: #404345;
      }

      .cls-3 {
        fill: #4e5052;
      }

      .cls-4 {
        fill: #505255;
      }

      .cls-5 {
        fill: #474a4d;
      }

      .cls-6 {
        fill: #5e6366;
      }

      .cls-7 {
        fill: #b9bbbb;
      }

      .cls-8 {
        fill: #3f3f42;
      }

      .cls-9 {
        fill: #626568;
      }

      .cls-10 {
        fill: #6c6f72;
      }

      .cls-11 {
        fill: #33383c;
      }

      .cls-12 {
        fill: #48494d;
      }

      .cls-13 {
        fill: #444649;
      }

      .cls-14 {
        fill: #69696c;
      }

      .cls-15 {
        fill: #3a3f44;
      }

      .cls-16 {
        fill: #696b6f;
      }

      .cls-17 {
        fill: #292b2d;
      }

      .cls-18 {
        fill: #909497;
      }

      .cls-19 {
        fill: #777a7b;
      }

      .cls-20 {
        fill: #6a6a6b;
      }

      .cls-21 {
        fill: #575759;
      }

      .cls-22 {
        fill: #a6a8aa;
      }

      .cls-23 {
        fill: #ececed;
      }

      .cls-24 {
        fill: #4f4e54;
      }

      .cls-25 {
        fill: #bdbec0;
      }

      .cls-26 {
        fill: #434446;
      }

      .cls-27 {
        fill: #56595d;
      }

      .cls-28 {
        fill: #686c6e;
      }

      .cls-29 {
        fill: #606365;
      }

      .cls-30 {
        fill: #414245;
      }

      .cls-31 {
        fill: #777a7d;
      }

      .cls-32 {
        fill: #f2f2f2;
      }

      .cls-33 {
        fill: #dddfe0;
      }

      .cls-34 {
        fill: #6a6c70;
      }

      .cls-35 {
        fill: #afb1b2;
      }

      .cls-36 {
        fill: #535355;
      }

      .cls-37 {
        fill: #585b5b;
      }

      .cls-38 {
        fill: #6e6f72;
      }

      .cls-39 {
        fill: #54575a;
      }

      .cls-40 {
        fill: #f7f8f7;
      }

      .cls-41 {
        fill: #f8f7f7;
      }

      .cls-42 {
        fill: #616361;
      }

      .cls-43 {
        fill: #515255;
      }

      .cls-44 {
        fill: #676766;
      }

      .cls-45 {
        fill: #494b4d;
      }

      .cls-46 {
        fill: #e6e7e7;
      }

      .cls-47 {
        fill: #b2b4b6;
      }

      .cls-48 {
        fill: #828487;
      }

      .cls-49 {
        fill: #53565b;
      }

      .cls-50 {
        fill: #2f3135;
      }

      .cls-51 {
        fill: #fff;
      }

      .cls-52 {
        fill: #565759;
      }

      .cls-53 {
        fill: #5a595f;
      }

      .cls-54 {
        fill: #494f53;
      }

      .cls-55 {
        fill: #fbfbfb;
      }

      .cls-56 {
        fill: #434545;
      }

      .cls-57 {
        fill: #2f3237;
      }

      .cls-58 {
        fill: #eaebec;
      }

      .cls-59 {
        fill: #575857;
      }

      .cls-60 {
        fill: #292b32;
      }

      .cls-61 {
        fill: #858688;
      }

      .cls-62 {
        fill: #36383b;
      }

      .cls-63 {
        fill: #8f9193;
      }

      .cls-64 {
        fill: #5c5e60;
      }

      .cls-65 {
        fill: #6e6e72;
      }

      .cls-66 {
        fill: #6c6e6e;
      }

      .cls-67 {
        fill: #46494c;
      }

      .cls-68 {
        fill: #5b5d61;
      }

      .cls-69 {
        fill: #4a4e51;
      }

      .cls-70 {
        fill: #454b4d;
      }

      .cls-71 {
        fill: #6c6f70;
      }

      .cls-72 {
        fill: #f3f4f4;
      }

      .cls-73 {
        fill: #cacbcc;
      }

      .cls-74 {
        fill: #616366;
      }

      .cls-75 {
        fill: #57595e;
      }

      .cls-76 {
        fill: #65696b;
      }

      .cls-77 {
        fill: #b6b7b8;
      }

      .cls-78 {
        fill: #d1d2d4;
      }

      .cls-79 {
        fill: #4f5254;
      }

      .cls-80 {
        fill: #36373c;
      }

      .cls-81 {
        fill: #56585d;
      }

      .cls-82 {
        fill: #7b7a7d;
      }

      .cls-83 {
        fill: #6b6c6f;
      }

      .cls-84 {
        fill: #444546;
      }

      .cls-85 {
        fill: #686c6d;
      }

      .cls-86 {
        fill: #e0e1e2;
      }

      .cls-87 {
        fill: #3d3e3d;
      }

      .cls-88 {
        fill: #c4c5c8;
      }

      .cls-89 {
        fill: #535356;
      }

      .cls-90 {
        fill: #737678;
      }

      .cls-91 {
        fill: #65666a;
      }

      .cls-92 {
        fill: #4b4c4d;
      }

      .cls-93 {
        fill: #575a5b;
      }

      .cls-94 {
        fill: #64666a;
      }

      .cls-95 {
        fill: #e7e6e6;
      }

      .cls-96 {
        fill: #585d60;
      }

      .cls-97 {
        fill: #848688;
      }

      .cls-98 {
        fill: #36393a;
      }

      .cls-99 {
        fill: #5e5e5e;
      }

      .cls-100 {
        fill: #95999a;
      }

      .cls-101 {
        fill: #6c6c6b;
      }

      .cls-102 {
        fill: #505153;
      }

      .cls-103 {
        fill: #3e4145;
      }

      .cls-104 {
        fill: #494849;
      }

      .cls-105 {
        fill: #acacae;
      }

      .cls-106 {
        fill: #45464e;
      }

      .cls-107 {
        fill: #5f6365;
      }

      .cls-108 {
        fill: #3d3f42;
      }

      .cls-109 {
        fill: #323439;
      }

      .cls-110 {
        fill: #444647;
      }

      .cls-111 {
        fill: #b5b8ba;
      }

      .cls-112 {
        fill: #797b7e;
      }

      .cls-113 {
        fill: #747678;
      }

      .cls-114 {
        fill: #505358;
      }

      .cls-115 {
        fill: #2a3234;
      }

      .cls-116 {
        fill: #d9dbdb;
      }

      .cls-117 {
        fill: #37383c;
      }

      .cls-118 {
        fill: #87878a;
      }

      .cls-119 {
        fill: #696a70;
      }

      .cls-120 {
        fill: #4f5155;
      }

      .cls-121 {
        fill: #7b7d80;
      }

      .cls-122 {
        fill: #505559;
      }

      .cls-123 {
        fill: #323638;
      }

      .cls-124 {
        fill: #3c3f40;
      }

      .cls-125 {
        fill: #45474a;
      }

      .cls-126 {
        fill: #35383d;
      }

      .cls-127 {
        fill: #959a9b;
      }

      .cls-128 {
        fill: #747476;
      }

      .cls-129 {
        fill: #dcddde;
      }

      .cls-130 {
        fill: #353639;
      }

      .cls-131 {
        fill: #818385;
      }

      .cls-132 {
        fill: #494a51;
      }

      .cls-133 {
        fill: #6b6e72;
      }

      .cls-134 {
        fill: #53585b;
      }

      .cls-135 {
        fill: #3a3d40;
      }

      .cls-136 {
        fill: #838788;
      }

      .cls-137 {
        fill: #6d7073;
      }

      .cls-138 {
        fill: #606467;
      }

      .cls-139 {
        fill: #70706f;
      }

      .cls-140 {
        fill: #55575b;
      }

      .cls-141 {
        fill: #3b3e42;
      }

      .cls-142 {
        fill: #44464b;
      }

      .cls-143 {
        fill: #2f3031;
      }

      .cls-144 {
        fill: #636668;
      }

      .cls-145 {
        fill: #56575b;
      }

      .cls-146 {
        fill: #b1b5b5;
      }

      .cls-147 {
        fill: #45464b;
      }

      .cls-148 {
        fill: #d4d6d6;
      }

      .cls-149 {
        fill: #5e6465;
      }

      .cls-150 {
        fill: #43494c;
      }

      .cls-151 {
        fill: #232627;
      }

      .cls-152 {
        fill: #34373c;
      }

      .cls-153 {
        fill: #282a2c;
      }

      .cls-154 {
        fill: #5d6468;
      }

      .cls-155 {
        fill: #353a3d;
      }

      .cls-156 {
        fill: #494a4d;
      }

      .cls-157 {
        fill: #f9f9f9;
      }

      .cls-158 {
        fill: #aaacb0;
      }

      .cls-159 {
        fill: #34373a;
      }

      .cls-160 {
        fill: #272b33;
      }

      .cls-161 {
        fill: #323437;
      }

      .cls-162 {
        fill: #7f8084;
      }

      .cls-163 {
        fill: #575a61;
      }

      .cls-164 {
        fill: #4c5052;
      }

      .cls-165 {
        fill: #2e2f34;
      }

      .cls-166 {
        fill: #515557;
      }

      .cls-167 {
        fill: #32353a;
      }

      .cls-168 {
        fill: #9f9fa2;
      }

      .cls-169 {
        fill: #6e6b6c;
      }

      .cls-170 {
        fill: #35363c;
      }

      .cls-171 {
        fill: #dbdddd;
      }

      .cls-172 {
        fill: #636667;
      }

      .cls-173 {
        fill: #3b3f43;
      }

      .cls-174 {
        fill: #767578;
      }

      .cls-175 {
        fill: #b3b5b7;
      }

      .cls-176 {
        fill: #252629;
      }

      .cls-177 {
        fill: #3b3c41;
      }

      .cls-178 {
        fill: #787b7b;
      }

      .cls-179 {
        fill: #717073;
      }

      .cls-180 {
        fill: #818487;
      }

      .cls-181 {
        fill: #3e4147;
      }

      .cls-182 {
        fill: #4e5152;
      }

      .cls-183 {
        fill: #4a4c4f;
      }

      .cls-184 {
        fill: #e3e4e4;
      }

      .cls-185 {
        fill: #4c4b4e;
      }

      .cls-186 {
        fill: #777c7d;
      }

      .cls-187 {
        fill: #414447;
      }

      .cls-188 {
        fill: #404044;
      }

      .cls-189 {
        fill: #cbcdcf;
      }

      .cls-190 {
        fill: #4b4c4f;
      }

      .cls-191 {
        fill: #6f7074;
      }

      .cls-192 {
        fill: #5a5a5f;
      }

      .cls-193 {
        fill: #d8d9da;
      }

      .cls-194 {
        fill: #4b4c53;
      }

      .cls-195 {
        fill: #424446;
      }

      .cls-196 {
        fill: #c1c3c5;
      }

      .cls-197 {
        fill: #3b4043;
      }

      .cls-198 {
        fill: #4a4b4e;
      }

      .cls-199 {
        fill: #606062;
      }

      .cls-200 {
        fill: #fbfcfc;
      }

      .cls-201 {
        fill: #b4b5b7;
      }

      .cls-202 {
        fill: #37393b;
      }

      .cls-203 {
        fill: #f4f3f4;
      }

      .cls-204 {
        fill: #393c41;
      }

      .cls-205 {
        fill: #38393d;
      }

      .cls-206 {
        fill: #545558;
      }

      .cls-207 {
        fill: #676b6c;
      }

      .cls-208 {
        fill: #dfdfe1;
      }
    </style>
  </defs>
  <path class="cls-51" d="M106.38,34.92c.18,0,1.27-1.12,2.76-1.18,6.28-.21,12.62.24,18.9.03-.73,10.29.97,21.78,0,31.89-.36.52-.73.49-1.15,0-1.43-.7-1.52-1.46,0-2.28-.15-9.56-.55-19.05-1.15-28.46-1.06.73-2.49.91-3.43,0-4.31.76-9.28.91-13.68,0-.39,1.7-1.24,1.49-2.28,0h.03Z"/>
  <path class="cls-59" d="M64.24,36.04c1.52-1.52,3.13-1.67,4.55,0,3.61-1,7.65-.55,11.38,0,3.03.36,2.88,1.43,0,2.28-3.82,3.82-14.11,3.49-18.23,0l-3.43-1.15c-1-.33-.97-.7,0-1.15h5.7l.03.03Z"/>
  <path class="cls-29" d="M39.18,100.97l2.18,2.03c-.85,4.55,1.85,6.13,8.07,4.79,1.67-.61,2,.91,1.15,2.28l.21,1.15-9.31,1.12c-1.27-.06-3.76.3-4.55,0-1-2.61-.91-5.31,0-7.98,0-.76-.06-1.52,0-2.28v-1.15c.55-1.37,2-1.67,2.28,0l-.03.03Z"/>
  <path class="cls-52" d="M76.77,105.52c3.09,1.03,3.09,2.4,0,3.43q-.22.3,0,0c.64-3.58,9.13-3.16,10.25,0l1.15,1.15c1,.33.97.7,0,1.15-1.52,0-3.03.03-4.55,0-1.03,1.24-2.79,1.73-3.43,0-2.4,1.24-7.37,1.09-5.7-2.28-1.27-1.21-2-4,0-4.55.27-1.03.67-1,1.15,0,.52-.58.88-.21,1.15,1.15l-.03-.06Z"/>
  <path class="cls-20" d="M28.92,37.2c3.03.46,6.07.82,9.1,1.15-3.49,3.85-15.72,5.1-19.36,1.15l-3.43-1.15c-.88-.33-.85-.7,0-1.15,2.91-.7,10.01.06,13.68,0Z"/>
  <path class="cls-110" d="M104.1,99.82c.79.91,1.18,2.43,1.15,4.55v3.43c.85,1.91.85,2.18-.97,2.85-2.79,1-10.95.27-13.87-.58-1.15-1.64-.58-2.25,1.15-1.15.94-2.18,3.97-2.97,9.1-2.37-1.24-3.64-.85-5.89,1.15-6.74.27-1.82,2.12-2.18,2.28,0Z"/>
  <path class="cls-45" d="M66.51,103.25v1.15l.46,7.4c-4.37.12-8.68-.06-12.99-.58-.88-.33-.88-.7,0-1.15,1.12-2.18,3.61-2.88,7.46-2.09-.42-3.16.52-5.1,2.79-5.89.52-1.37,1.24-2.46,2.28-1.15,1,.24.58,1.43,0,2.28v.03Z"/>
  <path class="cls-51" d="M15.24,38.32c-.52,9.86-.88,19.75-1.15,29.61-1.7-.06-1.06-1.58-1.15-2.82-.33-3.85-.49-24.85.58-26.85.3-.58,1.09-.91,1.73-1.09,0,0,0,1.15,0,1.15Z"/>
  <path class="cls-39" d="M38.02,92.99c1.03.21,1,.61,0,1.15-.82,1.37-1.58.97-2.28-1.15.42,2.76-.33,3.16-2.28,1.15h-1.15c-.21,1-.61.97-1.15,0-.27,1-.67.97-1.15,0-2.09,2.28-2.49,1.91-2.28-1.15-1.61-.3-1.94-2.28-1.15-3.43.33-1,.7-.97,1.15,0,3.13.67,5.31,0,6.58-1.94l2.55.82c.39-1,.76-1,1.15,0,.91,1.33.73,3.19,0,4.55Z"/>
  <path class="cls-66" d="M25.49,110.07c.27-1,.67-.97,1.15,0,1.09-2.25,1.73-.79,2.28,1.15v1.15c-3.03-.06-6.1.06-9.1,0-.55,1.85-2.52,1.79-3.43,0-.76-.06-1.52.03-2.28,0v-1.15c.03-1.03.42-1.43,1.15-1.15,1.06-3.22,9.22-3.64,10.25,0h-.03Z"/>
  <path class="cls-22" d="M75.62,91.87c.21-1.03.61-.97,1.15,0,.55,1.97.88,6.13-1.15,6.83-.33,1-.7.97-1.15,0-.91,0-1.67-.76-2.28-2.28-.12-.33.09-.76,0-1.15-1.12-.7-1.49-1.46-1.15-2.28-.03-1.64,3.79-3.46,4.55-1.15l.03.03Z"/>
  <path class="cls-51" d="M66.51,104.37l1.15,7.98c-8.65-.58-17.63.33-26.21,0l9.1-2.28c.21-1,.61-.97,1.15,0,1-1.03,1.64.03,2.28,1.15,4.16.03,8.37,0,12.53,0v-6.86Z"/>
  <path class="cls-51" d="M58.53,36.04v1.15c-1.94.82-4.67,1.43-6.83,1.15-.21,1-.61.97-1.15,0l-1.37.91c-6.67-1.09-13.44-1.76-20.27-2.03-.03-1.85,3.67-1.09,5.13-1.15,8.1-.33,16.38.03,24.48,0v-.03Z"/>
  <path class="cls-91" d="M126.89,63.38c.03.76-.03,1.52,0,2.28.67.27.64.64,0,1.15.06,1.12,0,2.28,0,3.43-.33,1-.7.97-1.15,0-.36-1.76-.76-3.67-1.15-5.7-3.85-1.91-3.7-13.41,1.15-13.65.7,4.04,1.09,8.19,1.15,12.53v-.03Z"/>
  <path class="cls-51" d="M90.42,36.04c.79.33.76.73,0,1.15-.82,2.94-2.73,1.12-3.43-1.15-2.06.73-5.92,2.03-6.83,0-3.76-.15-7.62.03-11.38,0-1.49-1.49-.88-1.52,1.15-1.15,6.8.21,13.93.94,20.51,1.15h-.03Z"/>
  <path class="cls-175" d="M30.04,94.14l1.15,2.28c0,.39.09.82,0,1.15l-1.15,1.15c-.15.33.15.85,0,1.15h-1.15c-.33,1-.7.97-1.15,0-.33,1-.7.97-1.15,0-1.33-1.24-1.7-3.37,0-4.55-1.85-1.52-.94-1.79,1.15-2.28.73.3,2.15,1.12,2.28,1.15l.03-.06Z"/>
  <path class="cls-43" d="M20.94,104.37c-.33.73-.73.7-1.15,0l-1.15-1.15v-3.43c-.06-.36.06-.76,0-1.15l-1.15-3.43v-1.15c-.61-.85-.88-1.61,0-2.28.33-1,.7-.97,1.15,0,3.82,2.49,5.01,8.86,2.28,12.53l.03.06Z"/>
  <path class="cls-14" d="M124.61,83.89c.58.27.55.67,0,1.15v1.15l-1.15,4.55v1.15c-.33,1-.7.97-1.15,0-.33,1-.7.97-1.15,0-3.22-1.64-1.24-10.98,2.28-11.38.76.33,1.12,1.49,1.15,3.43l.03-.06Z"/>
  <path class="cls-94" d="M125.74,70.21c1.06,2.94.91,6.16,0,9.1v1.15c-.33,1-.7.97-1.15,0l-1.15-3.43c-1-.27-.97-.67,0-1.15l1.15-4.55c-3.16-1-3.34-5.95,0-6.83,1.82.97,1.09,3.85,1.15,5.7Z"/>
  <path class="cls-51" d="M113.21,100.97l.7,5.76c.94,1.58.73,2.31-.7,2.21,1.58.42,3.09.79,4.55,1.15,1,.33.97.7,0,1.15-1.88.15-3.82-.09-5.7,0,.27-5.28.12-9.65-1.12-14.81.21-1.03.61-.97,1.15,0,2.49.91,2.88,2.58,1.15,4.55l-.03-.03Z"/>
  <path class="cls-51" d="M88.15,111.23v-1.15c1.09-1.55,2-2.18,2.28,0,2.28.12,14.23.46,14.81,0,.18-.15-.12-1.64,0-2.28,0,.21,2.73,2.18-.76,3.22-3.22.97-12.23.18-16.32.18v.03Z"/>
  <path class="cls-179" d="M17.51,80.46v1.15c-.33,1-.7.97-1.15,0-.33,1-.7.97-1.15,0v-2.28c-.82-1.79-1.09-4.1,0-5.7-1.18-.94-.67-3.49,1.15-2.28,3.46.79,4,7.31,1.15,9.1Z"/>
  <path class="cls-202" d="M28.92,104.37v2.28c.79,1.4,1.12,3.25,0,4.55-.88.09-1.91-1.09-2.28-1.15-1.03-1.24-.79-4.37,0-5.7.33-1,.7-.97,1.15,0,.33-1,.7-.97,1.15,0l-.03.03Z"/>
  <path class="cls-1" d="M126.89,108.95c.61.33.61.73,0,1.15-.42.21-1.55-.12-2.28,0h-2.28c-.76,0-1.55.06-2.28,0-.85.64-1.61.85-2.28,0-1.67-.21-3.91.82-4.55-1.15,0-1.15.46-1.88,1.24-1.52,3.34,1.55,8.31,1.73,11.71,0l.73,1.52h-.03Z"/>
  <path class="cls-51" d="M128.01,105.52c-.33,1-.7.97-1.15,0-.91-.39-.79-1.7,0-2.28-5.07-1.55-6.58-3.46-4.55-5.7-1.76-.82-.88-4.07,0-5.7h1.15c-.52,7.62,4.13,6.46,4.55,13.65v.03Z"/>
  <path class="cls-139" d="M106.38,34.92c-3.03,1.61-6.83,2-11.38,1.15-1-.33-.97-.7,0-1.15,3.76-.27,7.65.24,11.38,0Z"/>
  <path class="cls-199" d="M18.67,85.01c3.25.52,3.03,2.34,0,3.43-.12.82-.27,1.3-1.15,1.15-.33,1-.7.97-1.15,0-.03-1.12,0-2.28,0-3.43-.79-1.52-.88-3.09,0-4.55h1.15l1.15,3.43v-.03Z"/>
  <path class="cls-118" d="M16.39,71.36c-1.09.3-1.09,1.3-1.15,2.28-.33,1-.7.97-1.15,0-.03-1.88,0-3.79,0-5.7.33-.82.73-1.21,1.15-1.15,3.4-.12,4.19,3.06,1.15,4.55v.03Z"/>
  <path class="cls-121" d="M38.02,98.69c.97,1.33.36,1.94-1.15,1.15-.61.82-1.37.06-2.28-2.28-.12-.33.12-.79,0-1.15l-1.15-1.15v-1.15c.58-.03,1.64-1.12,2.28-1.15,1.24,1.58,2,3.46,2.28,5.7l.03.03Z"/>
  <path class="cls-51" d="M125.74,79.34c.03-3.03.06-6.1,0-9.1h1.15c0,2.82.88,7.25-1.15,9.1Z"/>
  <path class="cls-51" d="M69.91,34.92l-1.15,1.15h-4.55c1.52-4.46,4.7-1.18,5.7-1.15Z"/>
  <path class="cls-51" d="M109.78,92.99c1.03.27,1,.67,0,1.15l1.15,1.15c1,.3,1,.7,0,1.15-1.49.15-3.06-.09-4.55,0-.97-.3-.97-.7,0-1.15l1.15-1.15c-.97-.33-.97-.7,0-1.15.88-.49,1.7-.88,2.28,0h-.03Z"/>
  <path class="cls-197" d="M105.23,98.69v1.15c-.33,1-.7.97-1.15,0h-2.28c-1.03-.21-.97-.61,0-1.15v-1.15c.49-2.09,1.24-2.46,2.28-1.15.27-.91.67-.88,1.15,0,.94.24.55,1.46,0,2.28v.03Z"/>
  <path class="cls-51" d="M74.49,104.37c.12,1.49-.09,3.06,0,4.55-.33,1-.7.97-1.15,0-1.43-3.13-2.58-4.64,1.15-4.55Z"/>
  <path class="cls-51" d="M36.87,112.35c-1.85-.67-1.91-6.46,0-7.98v7.98Z"/>
  <path class="cls-51" d="M18.67,100.97v1.15l-1.15,1.15c-.49,1.3-1.64,2.82-3.43,4.55.97.85.58,2.31,0,3.43.06.36-.06.76,0,1.15-3.19-3.91-.82-6.22,1.15-9.1.46-1.06,1.24-1.73,2.28-2.28.33-.12.7-.88,1.15-1.15.06.33,0,.79,0,1.15v-.06Z"/>
  <path class="cls-74" d="M68.79,95.27v1.15l-1.15,1.15c.58.33.58.73,0,1.15-.09.3.06.76,0,1.15-.33.76-.73.73-1.15,0-1.46,1.37-1.76.73-1.15-1.15-.27-2.49-.46-4.98,2.28-3.43.27-1.03.64-1,1.15,0l.03-.03Z"/>
  <path class="cls-51" d="M15.24,79.34c-1.82-.97-1.09-3.85-1.15-5.7h1.15c-.12,1.88,0,3.82,0,5.7Z"/>
  <path class="cls-51" d="M74.49,108.95c-.7,3.55,3.13,2.18,5.7,2.28l-1.15,1.15c-1.4-.21-3.13.42-4.58-.55-1.24-.82-.76-2.12-1.09-2.88h1.15-.03Z"/>
  <path class="cls-51" d="M28.92,112.35c.03-.36-.03-.76,0-1.15.15-1.46-.03-3.06,0-4.55,1.79.76,1.79,4.95,0,5.7Z"/>
  <path class="cls-51" d="M17.51,91.87c-.03.76-.03,1.55,0,2.28-1.73-.79-1.09-3.06-1.15-4.55h1.15c.94.3.76,1.61,0,2.28Z"/>
  <path class="cls-51" d="M123.46,90.72l1.15-4.55c-.15,2.31-1.12,4.31-1.15,4.55Z"/>
  <path class="cls-51" d="M16.39,86.16c-1.73-.79-1.09-3.06-1.15-4.55h1.15v4.55Z"/>
  <path class="cls-51" d="M124.61,85.01v-1.15c-.46-1.37-.46-2.49,0-3.43h1.15c-.03,1.49.58,3.76-1.15,4.55v.03Z"/>
  <path class="cls-51" d="M105.23,104.37l-1.15-4.55h1.15v4.55Z"/>
  <path class="cls-114" d="M28.92,99.82c.52.36.52.73,0,1.15v1.15c-.33,1-.7.97-1.15,0-.94-.27-.85-1.67,0-2.28h1.15v-.03Z"/>
  <path class="cls-51" d="M17.51,100.97l-2.28,2.28c1.06-1.58-1.37-.85,2.28-2.28Z"/>
  <path class="cls-51" d="M74.49,98.69c1.7.24,1.97,2.18,1.15,3.43.82.73.79,1.52,0,2.28-.33-.06-.76,0-1.15,0-.24-2.91-1.4-5.28-2.28-7.98.61.73,1.91,1.52,2.28,2.28Z"/>
  <path class="cls-21" d="M128.01,108.95c-.36.52-.73.52-1.15,0-1.73-.06-1.73-1.18,0-3.43h1.15c.06.91.21,2.76,0,3.43Z"/>
  <path class="cls-51" d="M94.97,34.92v1.15c-1.18.67-2.34.88-3.43,0,.09-1.79,1.94-1.03,3.43-1.15Z"/>
  <path class="cls-51" d="M18.67,98.69c0-.18-.97-1.12-1.15-3.43l1.15,3.43Z"/>
  <path class="cls-51" d="M28.92,104.37h-1.15c-.94-.3-.82-1.67,0-2.28h1.15v2.28Z"/>
  <path class="cls-51" d="M66.51,103.25c-.06-.76.12-1.61,0-2.28.33-.76.73-.73,1.15,0-.12.97,0,1.91-1.15,2.28Z"/>
  <path class="cls-51" d="M36.87,99.82c.97.27.94.67,0,1.15-.06.36,0,.76,0,1.15-1.97-1.06-1.7-2.97-2.28-4.55l2.28,2.28v-.03Z"/>
  <path class="cls-51" d="M105.23,98.69v-2.28c.36-1,.76-1,1.15,0-.24.85.06,1.91-1.15,2.28Z"/>
  <path class="cls-51" d="M31.2,96.42c-.91-.61-.67-1.43,0-2.28h1.15v1.7c-.24.61-.61.58-1.15.58Z"/>
  <path class="cls-201" d="M69.91,94.14c-.09.33.12.82,0,1.15h-1.15c-1.18-.94-.7-3.28,1.15-2.28.91.33.88.7,0,1.15v-.03Z"/>
  <path class="cls-139" d="M92.7,37.2c1.52,1.55.85,2.15-1.15,1.15-1.55,1.24-2.18.61-1.15-1.15v-1.15h1.15c.85.33,1.24.73,1.15,1.15Z"/>
  <path class="cls-51" d="M126.89,66.81v-1.15h1.15c-.06.52-.61,1.03-1.15,1.15Z"/>
  <path class="cls-51" d="M72.19,95.27l-2.28-1.15v-1.15c.3-1.03.67-1,1.15,0,.27.76.94,1.55,1.15,2.28l-.03.03Z"/>
  <path class="cls-51" d="M34.6,96.42s-1.06-.55-1.15-1.15l1.15,1.15Z"/>
  <path class="cls-51" d="M68.79,96.42c.06-.36-.09-.79,0-1.15h1.15c-.24.52-1,.85-1.15,1.15Z"/>
  <path class="cls-201" d="M68.79,97.54c-.36.49-.73.49-1.15,0,.15-.49,1-.82,1.15-1.15-.06.36.09.79,0,1.15Z"/>
  <path class="cls-51" d="M30.04,98.69l1.15-1.15c-.21.79-1.09,1.06-1.15,1.15Z"/>
  <path class="cls-51" d="M67.64,98.69c.12-.33-.12-.79,0-1.15h1.15c-.12.52-.64.94-1.15,1.15Z"/>
  <path class="cls-51" d="M28.92,100.97v-1.15h1.15c-.27.49-.67.88-1.15,1.15Z"/>
  <path class="cls-51" d="M67.64,100.97h-1.15c-1.03-.21-1-.61,0-1.15h1.15c-.06.36.03.76,0,1.15Z"/>
  <path class="cls-51" d="M126.89,110.07v-1.15h1.15c-.27.88-.39.79-1.15,1.15Z"/>
  <path class="cls-53" d="M126.89,63.38c-.15-3.46-1-8.1-1.15-12.53-3.4-1.49-3-12.04-1.15-14.81-.46-.52-.06-.88,1.15-1.15,1.67.64,1.03,1.49,1.18,2.79.94,7.89-.79,17.57-.06,25.7h.03Z"/>
  <path class="cls-44" d="M108.66,34.92c2.46.33,4.73.73,6.83,1.15.3.85.7,2.03.18,2.58-1.21,1.27-18.11.91-20.96.58l-2-2c-.88.09-1.18-.27-1.15-1.15h3.43c4.28.06,8.56-1.06,11.38-1.15h2.31Z"/>
  <path class="cls-104" d="M122.31,34.92c1,.33.97.7,0,1.15-1.15,3.31-5.58,3.16-6.83,0-2.15-.15-5.55.88-6.83-1.15,4.34-.15,9.38-.27,13.68,0h-.03Z"/>
  <path class="cls-17" d="M125.74,34.92c-.15.52-.64,1.06-1.15,1.15-.64,2.21-1.64,2.21-2.28,0v-1.15c1,.06,2.79-.24,3.43,0Z"/>
  <path class="cls-51" d="M85.87,37.2c.97-.49,1.3-.03,1.15,1.15,1,11.53,1.52,24.15-1.15,35.32.76,1.43,1,3.31,0,4.55.85,1.49,0,3.46-1.15,4.55.91.67.88,2.58,0,3.43.61.94,0,2.09-1.15,2.28-.06,1.43-.42,2.55-1.15,3.43,1.67,1.03.64,4.85,0,6.83.79.15.73.55,0,1.15,1.3,1.73,2.82,3.28,4.55,4.55,1.03.76.76,3.43,0,4.55-3.16.42-6.98-.3-10.25,0,0-1.12.06-2.28,0-3.43-.67-1.09-.94-2.4,0-3.43-.85-.33-.82-.7,0-1.15l1.15-2.28c-1.7-.85-1.15-4.37,0-5.7,0-2.58-.49-4.25-1.4-4.98,1.67-.49,1.97-1.49,1.4-3-1.58.21-2.55-2-2.28-3.43-3.03-.94-6.1-.94-9.1,0,.06,1.46-2.06,3.34-3.43,2.28l-1.15,1.15c2.46-.06,2.46.7,0,2.28.52,4.43,1.27,9.01,2.28,13.65.73.39.73.76,0,1.15-1.55,8.31,1.85,8.56-10.25,7.98-2.31-.09-2.18-4.37,0-4.55.33-1,.7-.97,1.15,0,3-1.4,3.28-2.34,2.37-5.73l1.06-1.09c-1.55.85-1.64-.76-1.15-2.28-1.06-1.4-1.64-4.46,0-5.7-.39-1.37-.76-2.88-1.15-4.55-1.52-.42-1.37-1.43,0-2.28-.73-1.79-1.12-3.7-1.15-5.7-1.18-.18-1.73-2.31-1.15-3.43-1.12-1.43-.7-4.13,0-5.7-.76-2.85-1.12-6.25-1.15-10.25-2.18-5.46-1.12-13.74,0-19.36.94-1.76,4-2.09,5.7-1.15.91-1,2.4-.67,3.43,0,6.01-.12,12.29.39,18.23,0,.52-1.73,4.13-1.79,5.7-1.15l.06.06Z"/>
  <path class="cls-87" d="M87.02,36.04c1.49,1.76.85,2.43-1.15,1.15-1.7.64-3.85,1.03-5.7,1.15v-2.28c2.21.09,4.76-.27,6.83,0l.03-.03Z"/>
  <path class="cls-89" d="M61.93,38.32c-1.12,0-2.28-.06-3.43,0-1-.33-.97-.7,0-1.15,1.24.03,2.88-.33,3.43,1.15Z"/>
  <path class="cls-51" d="M49.4,62.26c.88,1.21.94,3.37,0,4.55.76,1.73.36,4.67-1.15,5.7l-1.15,6.83c1.09.67,1.06,1.52,0,2.28-.39,1.61-.76,3.13-1.15,4.55,1.55.64,1.49,1.55,0,2.28-.3,1.27-.7,2.4-1.15,3.43,1.4.85,1.55,1.64,0,2.28l-1.15,3.43c1.43,1.21,1.64,3.67.61,7.4,3.82-.85,5.52-.3,5.1,1.7.94.27.91.67,0,1.15.55,4.58-8.04,1.37-10.25,2.28.15-3-.18-6.1,0-9.13-1.64-.55-1.43-1.4,0-2.28-.49-1.58-.7-4.79,1.15-5.7-.49-3.79-1.61-7.59-3.43-11.38-.33.49-.73.46-1.15,0-1.82.12-3.73.12-5.7,0-.06,1.18-1.3,1.82-2.28,1.15-.36,1.76-1.43,4.58-3.43,4.55-.12,2.28-.12,4.55,0,6.83,1.79.33,1.49,1.15,0,2.28,1.03.21.97.61,0,1.15l1.15,2.28c.82,1.03.79,2.34,0,3.43.97,2,.88,4.92,0,6.83-2.7-.18-7.83-.42-10.25,0-1-.24-.85-1.67,0-2.28-.76-2.88,2.34-3.58,4.55-2.28l1.15-1.15c-.79-4.07-1.64-8.5-2.28-12.53-1.12-.58-.61-2.28,0-3.43-.15-1.09.15-2.34,0-3.43l-1.15-4.55c-.79-3-.76-6.07-1.15-9.1-.24-1.82-1.12-4.19-1.15-4.55-1.27-8.59-1.67-19.11,1.15-27.34.55-.82,1.67-.82,2.28,0,6.77.39,13.2-.88,19.36-1.15,1.91-.67,10.98-.46,11.86,1l.15,16.2c1.21,3.73,1.03,5.98-.61,6.74h.09Z"/>
  <path class="cls-146" d="M51.71,110.07h-1.15c.12-.85-1.12-1.97-1.15-2.28-.03-.33-.09-.88,0-1.15-1.21-2.12-.85-2.52,1.15-1.15.33-1,.7-.97,1.15,0,1.46.67,1.18,3.61,0,4.55v.03Z"/>
  <path class="cls-15" d="M39.18,100.97h-2.28c.06-.39-.09-.82,0-1.15.06-.18,1.03-.58,1.15-1.15.33-1,.7-.97,1.15,0-.09.73.06,1.52,0,2.28l-.03.03Z"/>
  <path class="cls-79" d="M76.77,105.52c-.42-.21-.88-1.09-1.15-1.15-.09-.73.15-1.61,0-2.28.33-1,.7-.97,1.15,0,0,1.12-.06,2.28,0,3.43Z"/>
  <path class="cls-79" d="M76.77,108.95c.55.55-1.06,1.82-1.15.58,0-.39.88-.82,1.15-.58Z"/>
  <path class="cls-17" d="M88.15,110.07c-.88-.21-.91-.27-1.15-1.15.3-1,.67-.97,1.15,0,1,.33.97.7,0,1.15Z"/>
  <path class="cls-36" d="M50.55,38.32c1.67,4.73,2.03,10.29,1.12,16.66l1.15,6.13c1.24,1.33,1.03,4.49-1.15,3.43-.46-.46-.82-1.21-1.15-2.28-.33,1-.7.97-1.15,0,.15-3.49.52-21.39-.49-22.85-1.18-1.73-8.43-1.18-10.89-1.06h-8.56l-.58-1.15c7.28-.09,15.02,1.06,21.63,1.15l.06-.03Z"/>
  <path class="cls-130" d="M18.67,39.47c-.73-.03-1.67.15-2.28,0-1.24.91-1.4.33-1.15-1.15h2.85l.58,1.15Z"/>
  <path class="cls-51" d="M122.31,36.04c.76,0,1.55.09,2.28,0,2.03,4.46,1,9.92,1.15,14.81-2.25,3.46-.94,9.28-1.15,13.65-.12,2.25.18,4.58,0,6.83l-1.15,4.55c-.03.36.03.76,0,1.15.7,1.09.94,2.49,0,3.43-.39,3.16-1.7,7.68-2.28,11.38.7,2.49.61,4.88-1.15,6.83,1.97,1.58,3.88,3.13,5.7,4.55.82.91,1,2.61,0,3.43l-1.15,1.15c-2.4,1.06-6.64,1.03-9.1,0-1.73-5.4-2.06-11.47,1.15-15.96l-.97-.64c.24-9.71-2.85-14.5-12.68-9.59.36,1.3-.91,2.82-2.28,2.28,1.43,2.25,1.24,3.16-.52,2.76.3,3.25.49,6.13.52,8.62.46.94.85,2.06,1.15,3.43v1.15c.06,2.52,2.46,7.01.06,8.62-2.06,1.37-7.62.09-10.32.52-2,.27-1.43-2.61,0-3.43-.46-1.91,1.43-2.67,5.7-2.28-1.88-2.43-2.28-4.31-1.15-5.7-1-.79-1.88-3.19-1.15-4.55-.94-.27-.79-1.58,0-2.28-1.61-4.13-2.94-9.13-2.28-13.65-.73-.3-.73-.7,0-1.15-1.09-1.18-1.82-4.1-1.15-5.7-.97-1.09-.85-3.4,0-4.55-.79-.24-.73-.64,0-1.15-.67-1.94-2.09-9.28-2.03-10.74,0-.27.67-.55,1.49-.79.03-4.88.24-9.77.55-14.68.24-.3,1.03-1.12,1.15-1.15,4.76-1.06,14.38.33,20.02.06,1.49-.06,2.55-1.18,2.76-1.18,2.25-.18,4.58.09,6.83,0h0Z"/>
  <path class="cls-131" d="M91.57,105.52c.15.73.12,2.64,0,3.43,0,.09-1.15.42-1.15,1.15-.73-.03-1.67.15-2.28,0v-1.15c.39-1.94.79-3.85,1.15-5.7.33-.94.73-.94,1.15,0,2.03-.49,2.61.73,1.15,2.28h-.03Z"/>
  <path class="cls-207" d="M53.98,105.52c0,1-1.76,2.85,0,4.55v1.15c-1.03,0-2.12-1.15-2.28-1.15.21-1.4-.3-3.34,0-4.55-1.58-1.73-.91-2.4,1.15-1.15,1-.76,1.46-.12,1.15,1.15h-.03Z"/>
  <path class="cls-109" d="M66.51,99.82c.09.36-.06.76,0,1.15l-2.28,1.15c.06-.36-.06-.76,0-1.15-.61-1.79-.88-2.76,1.15-2.28.06.27,1.03.73,1.15,1.15l-.03-.03Z"/>
  <path class="cls-24" d="M16.39,39.47c-1.58,8.16-1.76,18.93-1.15,27.34.09.88-.27,1.18-1.15,1.15-.06-9.62-.91-20.6,1.15-29.61-.12,1.09.39.94,1.15,1.15v-.03Z"/>
  <path class="cls-157" d="M34.6,82.74h1.15c2.37-.18,4.16,4.67,1.15,5.7-3.28,2.49-3.34,6.07-9.1,1.15-1.37-2.25-2.55-5.37,1.15-5.7-.85-1.09,1.21-1.97,2.28-1.15,0-1.85,3-1.67,3.43,0h-.06Z"/>
  <path class="cls-163" d="M40.3,92.99c-1.4,1.43-1.85.76-1.15-1.15-.42-1.03-.82-2.15-1.15-3.43-.39.09-.94-.15-1.15,0l-1.15-5.7c-.3-.39.09-.79,1.15-1.15,3.52,2.03,4.64,5.52,4.52,9.53,0,.88-1.06,1.58-1.12,1.85l.06.06Z"/>
  <path class="cls-177" d="M28.92,83.89c-1.18,1.43-1.18,3.88-1.15,5.7h-1.15l-1.15-1.15c-1.7,1.7-1.79,1.12-1.15-1.15.36-1,.24-1.85,1.09-2.91.7-.88,1.61-1.09,2.34-1.64,1.49-.64,1.91-.36,1.15,1.15h.03Z"/>
  <path class="cls-194" d="M40.3,92.99c-.27,2.18-1,4.49-1.15,5.7h-1.15c-1.06-2.06-1.06-3.61,0-4.55v-1.15c.12-.76.24-1.24,1.15-1.15.06.27.91.7,1.15,1.15Z"/>
  <path class="cls-88" d="M38.02,94.14c0,1.06.91,2.85,0,4.55-.88.91-2.64-4.55-2.28-5.7.52,0,1.61.91,2.28,1.15Z"/>
  <path class="cls-208" d="M26.65,89.56c.33,1.09,1.15,2.06,1.15,3.43-2.61,2.97-3.43.97-2.28-2.28-1.76.18-1.46-1.49,0-2.28.15,0,.49-1.12,1.12-1.15.15.73-.15,1.7,0,2.31v-.03Z"/>
  <path class="cls-193" d="M39.18,91.87l-1.15,1.15c-.09-1.52.06-3.03,0-4.55,1.67.21.91,2.43,1.15,3.43v-.03Z"/>
  <path class="cls-5" d="M31.2,96.42c-.55,0-.91,0-1.12-.58v-1.7c.36.06.76,0,1.12,0,0,.76.03,1.52,0,2.28Z"/>
  <path class="cls-51" d="M26.65,104.37v5.7c-.36-.06-.76,0-1.15,0-.09-2.28.12-4.58,0-6.83.33-1,.7-.97,1.15,0,.76.33.73.73,0,1.15v-.03Z"/>
  <path class="cls-164" d="M15.24,110.07c-.24.03-.7.94-1.15,1.15-.18-.82-.09-2.49,0-3.43.33-1,.7-.97,1.15,0v2.28Z"/>
  <path class="cls-190" d="M77.89,92.99c-.7.97-1.09.58-1.15-1.15-.42-1-.79-1.03-1.15,0-1.12.03-3.43.73-4.55,1.15-.36.12-.88-.15-1.15,0-1.55.88-.85,1.12-1.15,2.28-.39.09-.94-.15-1.15,0-2.85.82-1.21-3,0-3.43.27-.09-1.61,5.1-3.4,2.28-.64-.27-.58-.67,0-1.15-.7-.55-.33-1.3,1.15-2.28-1.03-.12-.97-.52,0-1.15.33-1,.7-.97,1.15,0,2.7-.33,4.88-1.33,6.52-3l2.61.73c.15-1.4.91-2.15,2.28-2.28,2.09,5.52.24,4.73,0,7.98v.03Z"/>
  <path class="cls-62" d="M77.89,92.99c-.15,1.88.12,3.82,0,5.7-.33,1-.7.97-1.15,0-.33,1-.7.97-1.15,0l1.15-6.83c.03.24.91.7,1.15,1.15v-.03Z"/>
  <path class="cls-167" d="M76.77,98.69c.97.24.61,1.46,0,2.28v1.15h-1.15c-.15-.67-.88-2.85-1.15-3.43h2.31Z"/>
  <path class="cls-51" d="M76.77,91.87h-1.15c.3-5.37.42-4.43,1.15,0Z"/>
  <path class="cls-68" d="M90.42,37.2c.55.33.94.36,1.15,1.15l-.42,14.47c-3.58,8.4-4.13-6.98-3.37-10.8l-.76-3.67c-.39-.36-.79-.73-1.15-1.15.46-.18.85-.73,1.15-1.15.27.03,3.28,1.03,3.43,1.15h-.03Z"/>
  <path class="cls-156" d="M25.49,90.72c-.58,3.52,1.06,1.79,2.28,2.28,0,.58-1.12,1.73-1.15,2.28-.49,2-.85,3.06-2.28,1.15,0-.76-.06-1.55,0-2.28-.91-1.58-.85-3.85,1.15-3.43Z"/>
  <path class="cls-114" d="M26.65,99.82c.85,1,.85,2.43,0,3.43h-1.15c-.06-1.12.09-2.31,0-3.43l-1.15-2.28v-1.15l2.28-1.15c0,1.52.06,3.03,0,4.55l.03.03Z"/>
  <path class="cls-60" d="M27.77,102.09v2.28h-1.15v-1.15c0-1.12-.06-2.28,0-3.43h1.15v2.31Z"/>
  <path class="cls-142" d="M18.67,91.87h-1.15c.03-.76-.12-1.58,0-2.28.06-.3.85-.76,1.15-1.15.15,1.09-.18,2.34,0,3.43Z"/>
  <path class="cls-151" d="M20.94,104.37c.03.15,1.43.21,1.12,1.12-.73.12-1.67-.15-2.28,0-1-.33-.97-.7,0-1.15h1.15v.03Z"/>
  <path class="cls-51" d="M19.79,104.37c-1.7,1.64-4.04,1.21-2.28-1.15h1.15c.79.15,1.24.09,1.15,1.15h-.03Z"/>
  <path class="cls-153" d="M18.67,102.09v-1.15c.76.52.61.61,0,1.15Z"/>
  <path class="cls-182" d="M18.67,103.25c-.36-.06-.76.06-1.15,0,.39-.33.73-.79,1.15-1.15v1.15Z"/>
  <path class="cls-183" d="M122.31,97.54c1.27,2.94-.24,3.46-2.28,1.15.39-2.28.79-4.58,1.15-6.83h1.15c.27,1.7-.39,4.22,0,5.7l-.03-.03Z"/>
  <path class="cls-30" d="M124.61,80.46c.06,1.12,0,2.28,0,3.43l-1.15-3.43c.15-1.09-.12-2.31,0-3.43,1.52.55,1.06,2.18,1.15,3.43Z"/>
  <path class="cls-91" d="M123.46,75.91c.21-2.03,1.12-4.31,1.15-4.55l-1.15,4.55Z"/>
  <path class="cls-185" d="M115.48,107.8c.61.21,8.34.21,9.1,0l1.15-1.15c.3-.7-.21-2.43,0-3.43.33-1,.7-.97,1.15,0,.12.67,0,1.52,0,2.28.03,1.12,0,2.28,0,3.43h-13.68c-.58-1.79.39-5.76,0-7.98,1.09,1.03,1.85,3.31,2.28,6.83v.03Z"/>
  <path class="cls-1" d="M115.48,107.8c-.97-.33-1.7-4.7-2.28-6.83-.42-1.52-.79-3.03-1.15-4.55.27-.46,1.03-.85,2.28-1.15-1.7-.58-2.06-2.03,0-2.28.52-1.3,1.24-2.4,2.28-1.15-.21,4.79-2.15,10.59-1.15,15.96h.03Z"/>
  <path class="cls-51" d="M18.67,85.01c-.06-.46-1.73-2.03-1.15-3.43v-1.15c.27,1.09,1.97,2.55,1.15,4.55v.03Z"/>
  <path class="cls-188" d="M122.31,97.54c.79,3,3.82,1.7,4.55,5.7h-7.98c-.06-1.61.88-3.03,1.12-4.55l2.28-1.15h.03Z"/>
  <path class="cls-63" d="M110.93,91.87c1.73.24,2.88,1.79,3.43,3.43-.55,1.58-1.18.91-2.28,1.15-.36.06-.76-.03-1.15,0-.09-.36.09-.79,0-1.15l-1.15-1.15c-.09-.39.12-.85,0-1.15-1-.33-1-.73,0-1.15.27-1.03.67-1,1.15,0v.03Z"/>
  <path class="cls-172" d="M107.5,92.99c-.18.18.15.76,0,1.15l-1.15,1.15c-.09.36.09.79,0,1.15-.36,0-.76-.03-1.15,0s-.79-.06-1.15,0c-1.97-.52-.76-3.67,1.15-3.43.36-.97.76-.97,1.15,0,.27-.97.67-.94,1.15,0v-.03Z"/>
  <path class="cls-51" d="M109.78,91.87c.15.27-.15.79,0,1.15h-2.28c-.85-2.58.33-2.7,2.28-1.15Z"/>
  <path class="cls-51" d="M106.38,95.27c.15-.55.61-.94,1.15-1.15-.18.49-.7.88-1.15,1.15Z"/>
  <path class="cls-51" d="M110.93,95.27c-.52-.18-1.03-.61-1.15-1.15.49.21,1,.64,1.15,1.15Z"/>
  <path class="cls-129" d="M105.23,92.99l-1.15,3.43c-.42.09-1.4,1.24-2.28,1.15-.88-.61-.61-1.43,0-2.28-1.3-1.27-1.15-3.94,1.15-3.43.33-.76.73-.73,1.15,0,1.61-.97,2.15-.39,1.15,1.15l-.03-.03Z"/>
  <path class="cls-85" d="M101.83,97.54v1.15c-1.58-.73-.85-2.34-1.15-3.43.33-1,.7-.97,1.15,0v2.28Z"/>
  <path class="cls-187" d="M19.79,104.37v1.15c-1.79.49-3.34.49-4.55,2.28h-1.15c.49-5.52.97-2.46,3.43-4.55l.58,1.12h1.7Z"/>
  <path class="cls-8" d="M58.53,37.2v1.15c-2,.09-3.91-.12-5.7,1.15-1.12,1.15-1.4.46-1.15-1.15.36,0,3.97-1.21,6.83-1.15h.03Z"/>
  <path class="cls-201" d="M67.64,95.27c-1.43,1.03-1.61,1.97-2.28,3.43-2.03.3-3.19-3.64-1.15-4.55l3.4-2.28v3.43l.03-.03Z"/>
  <path class="cls-141" d="M52.83,39.47c.58,5.76.09,13.38,0,19.36.39.76.52,1.49,0,2.28-5.28-6.04-.33-15.72-2.28-22.79h1.15c.49.21,1.09.64,1.15,1.15h-.03Z"/>
  <path class="cls-133" d="M87.02,38.32c3.61,3.52-.7,14.11,1.73,14.81,2.64.76,1.64-2.46,1.7-3.97.12-3.52-1-8.19,1.12-10.83,1.37,5.34-.33,19.39,0,26.18-.33.76-.73.73-1.15,0-1.82.36-1.85-3.06-1.15-4.55-.39-.76-.79-.76-1.15,0,1,1.58,1.58,3.46,0,4.55,2.49,6.52,2.12,10.35-1.15,11.38-.49-.3-.88-1.06-1.15-2.28,1.12-11.74,1.52-23.45,1.15-35.32l.06.03Z"/>
  <path class="cls-54" d="M72.19,67.93c.85,1.67,1.61,2.43,2.28,2.28.33-1,.7-.97,1.15,0,1.27,1.33,1.67,3.25,1.15,5.7v1.15c-3.13-.15-6.43-1-10.25-1.15h-1.15c-1-.33-.97-.7,0-1.15.39-1.55.88-2.28,2.28-1.15.27-3.06,1.21-2.85,2.28,0l1.15-3.43c-.82-.76-.82-1.58,0-2.28.33-1,.7-.97,1.15,0l-.03.03Z"/>
  <path class="cls-38" d="M81.32,70.21c-.94.82-1.3.06-1.15-2.28-2.79-1.64-1.67-8.98,1.15-10.25-1-.33-.97-.7,0-1.15,4.31,3.03,1.37,9.07,0,13.65v.03Z"/>
  <path class="cls-120" d="M66.51,81.61c1.76-.61,2.06-.55,1.15,1.15.88,2.03.82,5.46-1.15,6.83h-1.15c-1.61,1.18-1.79-.79-1.15-2.28-.64-.09-1.4-.09-2.28,0,.12-.73-.18-1.79,0-2.28l1.15-1.15c1.73-2.21,1.55-1.37,3.43-2.28Z"/>
  <path class="cls-137" d="M64.24,87.29c.33,1.88-.03,3.4-1.15,4.55.97.24.94.64,0,1.15l1.15,1.15c-.03,2.97.79,3.13,1.15,4.55-.33.7-1.03,1.67-1.15,2.28-2.85-3.64-2.94-9.22-2.28-13.65.64-.09,1.52-1.12,1.73-1.12.52.06.36.88.55,1.12v-.03Z"/>
  <path class="cls-108" d="M75.62,55.4c.42.42.06.82-1.15,1.15-.36.97-.76.97-1.15,0-.39,1-.76,1-1.15,0-.21,1-.61.97-1.15,0-.21,1-.61.97-1.15,0-.21,1-.61.97-1.15,0-.21,1-.61.97-1.15,0-.12,1.03-.52.97-1.15,0-.7,2.46-2.82.58-2.28-1.15,5.73-1.12,6.16-.76,11.38,0h.12Z"/>
  <path class="cls-152" d="M83.6,99.82c2.21-2.85,5.55.33,4.55,3.43.76.33.73.73,0,1.15-.33,1-.7.97-1.15,0h-5.7c-.94-1.94,1.06-3.88,1.15-4.55.46.49.85.49,1.15,0v-.03Z"/>
  <path class="cls-162" d="M59.66,58.83c3.31.82,3.16,7.04,0,7.98-.12.73-.27,1.21-1.15,1.15,0-.09-.91.15-1.09-1.7-.3-2.85.09-5.73-.03-8.56.33-.61.73-.61,1.15,0l1.15,1.15-.03-.03Z"/>
  <path class="cls-180" d="M53.98,69.08c-.12.76-.27,1.24-1.15,1.15-1.85,1.21-1.97-.52-1.15-2.28-.91-.85-.82-2.52,0-3.43,1.49-.58,1.06-2.15,1.15-3.43.03-.76,0-1.52,0-2.28,2.15,2.31,1,6.98,1.15,10.25Z"/>
  <path class="cls-90" d="M64.24,55.4c.36,1.12,1.3,1.03,2.28,1.15.85,2.28.85,4.58,0,6.83-.15.76-.27,1.24-1.15,1.15-3.37.42-4.13-1.85-2.28-6.83-1.27.12-1.67.09-1.15-1.15.12-.03.55-.79,2.28-1.15h.03Z"/>
  <path class="cls-206" d="M81.32,70.21c-.67,2.25-.18,5.89-3.43,6.83-.73,0-1.12-.39-1.15-1.15-1.09-1.97.64-8.28,3.43-7.98l1.15,2.28v.03Z"/>
  <path class="cls-166" d="M58.53,98.69c.42,2.25.97,4.52,1.12,6.83h-4.55c-1-.3-.97-.7,0-1.12.33-1,.7-.97,1.15,0,.64-.67.64-1.43,0-2.28-.67-.36-.67-.76,0-1.15-1-.21-.97-.61,0-1.15.55-2.37,1.3-2.76,2.28-1.15v.03Z"/>
  <path class="cls-99" d="M75.62,81.61l-1.15,1.15c-1.61,2.18-4.88,1.43-6.83,0l-1.15-1.15c3.91-1.88,4.85-3.31,9.1,0h.03Z"/>
  <path class="cls-37" d="M56.26,83.89c.06.76,0,1.52,0,2.28.79,1.52.88,3.09,0,4.55-.33,1-.7.97-1.15,0-2.58-2.31-2.97-5.07-1.15-7.98.33-1,.7-.97,1.15,0,.46-.42.85-.03,1.15,1.15Z"/>
  <path class="cls-181" d="M77.89,85.01c.82,3.28-1.82,1.91-2.28,2.28-2.76-.7-3.97-2.73-1.15-4.55l1.15-1.15c2.06,1.61,1.46,1.24,2.28,3.43Z"/>
  <path class="cls-75" d="M84.72,91.87c2.73,2.15,1.85,5.43-1.15,6.83-.33,1-.7.97-1.15,0,.18-2.18-.3-4.76,0-6.83.33-1,.7-.97,1.15,0,.33-1,.7-.97,1.15,0Z"/>
  <path class="cls-64" d="M57.38,90.72c.06,1.82-.24,4,0,5.7-.33,1-.7.97-1.15,0-3.31-.36-4.28-4.25-1.15-5.7h1.15c.33-1,.7-.97,1.15,0Z"/>
  <path class="cls-81" d="M87.02,79.34c2.79,2.03,2.28,3.73-1.15,3.43-.33,1-.7.97-1.15,0,.27-2.03,1.03-3.76,1.15-4.55.58-.7.94-.3,1.15,1.15v-.03Z"/>
  <path class="cls-10" d="M55.11,78.18v1.15c-.33,1-.7.97-1.15,0-3.4.61-3.67-2.4-1.15-4.55.33-1,.7-.97,1.15,0,.09.79.97,2.12,1.15,3.43v-.03Z"/>
  <path class="cls-97" d="M61.93,74.76c-.33.76-.73.73-1.15,0-.64-1.09-1.79-1.73-2.28-3.43.09-.79.24-1.24,1.15-1.15,3.09-1.67,5.22,2.88,2.28,4.55v.03Z"/>
  <path class="cls-27" d="M65.36,75.91h1.15c-3,2.18-3.7,3.03-5.7,0,.33-.76.73-.73,1.15,0,1.03-2.21,2.37-2.21,3.43,0h-.03Z"/>
  <path class="cls-16" d="M85.87,86.16c3.03,1.49,2.21,3.4-1.15,3.43-.33,1-.7.97-1.15,0v-1.15c.18-1.09,1.09-2.03,1.15-2.28.33-1,.7-.97,1.15,0Z"/>
  <path class="cls-157" d="M56.26,83.89l-1.15-1.15c-1.03-.3-.79-2.58,0-3.43v-1.15c.18,1.4.91,3.06,1.15,5.7v.03Z"/>
  <path class="cls-140" d="M87.02,75.91c3.13.58,2.88,2.09,0,3.43l-1.15-1.15c.18-1.46-.15-3.06,0-4.55,1.09.3,1.06,1.3,1.15,2.28Z"/>
  <path class="cls-69" d="M53.98,74.76h-1.15c-2.4-.64-1.94-3.58,0-4.55l1.15-1.15c.09,1.85-.18,3.88,0,5.7Z"/>
  <path class="cls-157" d="M57.38,90.72h-1.15v-4.55c1.73.79,1.09,3.06,1.15,4.55Z"/>
  <path class="cls-4" d="M59.66,70.21l-1.15,1.15c-.24-.88.18-2.37,0-3.43l1.15-1.15c3.22.55,3,2.37,0,3.43Z"/>
  <path class="cls-101" d="M81.32,56.55v1.15c-1,3.67-4.52,2.4-3.43-1.15-.64-.58-.24-.97,1.15-1.15.64.21,1.73.76,2.28,1.15Z"/>
  <path class="cls-84" d="M61.93,56.55c.42.24.82,1.03,1.15,1.15.49,3-1.61,3.64-3.43,1.15-.67-.33-.67-.73,0-1.15-1-.33-.97-.7,0-1.15.58-.21,1.64.18,2.28,0Z"/>
  <path class="cls-48" d="M88.15,108.95c-.24.12-.73-.06-1.15,0-.33-1.15.21-3.19,0-4.55h1.15c1.15.61.73,3.19,0,4.55Z"/>
  <path class="cls-204" d="M55.11,104.37v1.15h-1.15s-.97-.7-1.15-1.15c-1.49-1.7-.82-2.34,1.15-1.15,1.43-1.46,1.79-.82,1.15,1.15Z"/>
  <path class="cls-124" d="M79.04,55.4l-1.15,1.15c-.36.97-.76.97-1.15,0-.94,2.91-1.09,2.91-2.28,0,.06-.52.61-1.03,1.15-1.15,1.06.15,2.64-.27,3.43,0Z"/>
  <path class="cls-126" d="M85.87,86.16h-1.15c.15-1.06-.15-2.34,0-3.43h1.15c3.19.52,3.03,2.37,0,3.43Z"/>
  <path class="cls-55" d="M83.6,89.56c.94.3.85,1.7,0,2.28h-1.15c.27-1.79,1.09-3.06,1.15-3.43v1.15Z"/>
  <path class="cls-64" d="M58.53,98.69l-2.28,1.15c-3.28-.27-2.82-2.43,0-3.43h1.15c.03.3.94,1.24,1.15,2.28h-.03Z"/>
  <path class="cls-203" d="M59.66,56.55v1.15c-.33.67-.73.67-1.15,0h-1.15c.12-1.61,1.58-.88,2.28-1.15h.03Z"/>
  <path class="cls-159" d="M83.6,99.82s.18.94-.58,1.12l-.58-1.12c.03-.36-.03-.76,0-1.15h1.15c1,.33.97.7,0,1.15Z"/>
  <path class="cls-22" d="M76.77,100.97v-2.28h1.15c-.06.97-.03,1.97-1.15,2.28Z"/>
  <path class="cls-102" d="M61.93,75.91h-1.15c-.18-.27.18-.85,0-1.15h1.15c1,.33.97.7,0,1.15Z"/>
  <path class="cls-117" d="M77.89,77.06c-.27.09-.76,0-1.15,0v-1.15c.42.33.79.73,1.15,1.15Z"/>
  <path class="cls-137" d="M61.93,85.01c.18-.46.85-.76,1.15-1.15l-1.15,1.15Z"/>
  <path class="cls-150" d="M39.18,56.55c-.61.97-1.33,1.91-2.28,1.15-1.4.85-1.85,6.28-1.12,10.65,0,.06.52-.12,1.12-.39.33-1,.7-.97,1.15,0,3.28.88,2.82,1.76,0,3.43l-1.15,2.28c.97.27.97.67,0,1.15-.15.67-.36,1.15-1.15,1.15-1.27,1-4.37.76-3.43-1.15-.46-2.15-.06-3.67,1.15-4.55l-1.15-12.53c-.33,1-.7.97-1.15,0-3.03-.36-2.88-1.43,0-2.28,2.28-.24,6.58-.64,7.98,1.15l.03-.06Z"/>
  <path class="cls-120" d="M47.13,92.99c3.28.88,1.4,6.77,0,9.1q-.95,1.01,0,0c2.37-2.85,6.04.64,3.43,3.43.3,1-1.12,1.06-1.15,1.15-1.12-1.79-5.31-.79-5.7-1.15-.3-.27-.09-6.52,0-7.98l1.15-3.43c.09-.73-.12-1.58,0-2.28.33-1,.7-.97,1.15,0,.67-.91,1.03-.55,1.15,1.15h-.03Z"/>
  <path class="cls-125" d="M31.2,55.4v2.28c1,3.55.67,7.8,0,11.38-.33,1-.7.97-1.15,0-.3-3.94-.67-7.74-1.15-11.38-.46,3.82-2.06,3.37-3.43,0-1-.33-.97-.7,0-1.15,1.3-.39,4.34-1,5.7-1.15l.03.03Z"/>
  <path class="cls-134" d="M32.32,74.76c1.43,1.55,1.79.91,3.43,1.15h1.15c1,.33.97.7,0,1.15-2.18,0-4.76-.24-6.83,0l-2.28-1.15c-2.94-.76-2.88-3.28,0-4.55.33-1,.7-.97,1.15,0,.27,4.37.67,3.61,1.15-2.28h1.15c1.3,1.15,1.67,3.03,1.15,5.7l-.09-.03Z"/>
  <path class="cls-145" d="M43.73,69.08c-.33,1-.7.97-1.15,0-2.88-1.88-1.88-8.86,1.15-10.25-1-.33-.97-.7,0-1.15,3.03,2.88.46,8.34,0,11.38v.03Z"/>
  <path class="cls-26" d="M49.4,74.76c2.97,2,2.4,7.04-1.15,7.98-.33,1-.7.97-1.15,0-.67-.18-.61-.61,0-1.15.09-.73-.09-1.55,0-2.28l1.15-6.83c1.3-1.24,1.67-.49,1.15,2.28Z"/>
  <path class="cls-155" d="M39.18,56.55h1.15c1,.33.97.7,0,1.15l-.06,8.62-2.21,1.64h-1.15c-1.73-2.06-2.09-8.4,0-10.25.7-.3,1.18-1.06,2.28-1.15Z"/>
  <path class="cls-19" d="M50.55,67.93c1.64,1.97,1.61,6.67-1.15,6.83v-1.7c-.24-.49-.61-.73-1.15-.58.21-2.15,1.09-4.98,1.15-5.7.52-.64.91-.27,1.15,1.15Z"/>
  <path class="cls-147" d="M48.28,86.16c2.97,2.03,2.25,5.79-1.15,6.83l-1.15-1.15c-.82-1.09-.76-2.28,0-3.43v-2.28c.33-1,.7-.97,1.15,0,.33-1,.7-.97,1.15,0v.03Z"/>
  <path class="cls-71" d="M42.58,74.76c-3.22,5.01-2.91,2.28-5.7,2.28v-1.15c.3-2.15,2.52-2.64,4.55-2.28,1.46-1.46,1.7-.85,1.15,1.15Z"/>
  <path class="cls-107" d="M27.77,75.91c1,.33.97.7,0,1.15-2,.39-1.46,4.22-4.55,0-.91-1.85-.76-2.21,1.15-1.15,1.15-3.03,2.25-3.03,3.43,0h-.03Z"/>
  <path class="cls-92" d="M22.07,59.95c2.43,1.49,1.7,6.19-1.15,6.83-.33,1-.7.97-1.15,0-.18-2.7-.67-5.86,1.15-7.98,1.7-1.03,2.21-.64,1.15,1.15Z"/>
  <path class="cls-191" d="M35.75,81.61c.36.55,0,.94-1.15,1.15-1.09.12-2.52-.24-3.43,0-1.61.42-1.91.42-1.15-1.15.64-.24,1-1.27,2.85-1.27s2.21,1.06,2.85,1.27h.03Z"/>
  <path class="cls-61" d="M25.49,88.44c-.12.7.18,1.7,0,2.28-.33,1.09-1,1.33-1.15,3.43-2.76-2.03-.73-4.76,0-6.83-.21.67.67,1.21,1.15,1.15v-.03Z"/>
  <path class="cls-112" d="M24.34,75.91c-.52.06-1,.61-1.15,1.15-1.06-1.46-1.73-2.82-2.28-4.55.09-.76.3-1.21,1.15-1.15,3.22-1.18,5.37,2.76,2.28,4.55Z"/>
  <path class="cls-65" d="M25.49,57.67c.55.33.55.73,0,1.15.49,3.06-1.58,3.37-3.43,1.15l-1.15-1.15c1-1.15,3.09-1.85,4.55-2.28v1.15l.03-.03Z"/>
  <path class="cls-128" d="M22.07,70.21c-.33,1-.7.97-1.15,0-.15-.73-1-1.37-1.15-3.43h1.15c3.03-1.24,3.82,1.58,1.15,3.43Z"/>
  <path class="cls-157" d="M47.13,79.34c-.18-1.46-.24-6.49,1.15-6.83-.24,2.67-.97,5.19-1.15,6.83Z"/>
  <path class="cls-141" d="M50.55,67.93l-1.15-1.15c.09-1.52-.06-3.03,0-4.55h1.15c.85,1.79.91,3.91,0,5.7Z"/>
  <path class="cls-157" d="M47.13,82.74c.94.33.85,2.64,0,3.43h-1.15c.03-1.49-.58-3.76,1.15-4.55-.06.36,0,.76,0,1.15v-.03Z"/>
  <path class="cls-206" d="M30.04,81.61l1.15,1.15c-.42.12-2.12.94-2.28,1.15l-1.15-1.15c.85-.64,1.33-.79,2.28-1.15Z"/>
  <path class="cls-173" d="M43.73,71.36c-.09.36.12.82,0,1.15l-1.15,2.28-1.15-1.15c-2.61-1.37-1.79-2.94,1.15-2.28.33-1,.7-.97,1.15,0Z"/>
  <path class="cls-106" d="M43.73,57.67v1.15c-1.15,3.09-3.64,2.03-3.43-1.15v-1.15c.88.06,2.85.61,3.43,1.15Z"/>
  <path class="cls-157" d="M46,91.87h-1.15c.21-1.12-.49-2.85,1.15-3.43v3.43Z"/>
  <path class="cls-157" d="M43.73,97.54c.15-2.37,1.12-3.25,1.15-3.43l-1.15,3.43Z"/>
  <path class="cls-175" d="M25.49,99.82s-1.06-.3-1.15-2.28l1.15,2.28Z"/>
  <path class="cls-205" d="M36.87,81.61c-.18.52-.64,1.06-1.15,1.15-.36.06-.76-.03-1.15,0l1.15-1.15c.36.12.88-.15,1.15,0Z"/>
  <path class="cls-115" d="M30.04,77.06c-.73.09-1.61-.12-2.28,0v-1.15c.97.09,1.97,0,2.28,1.15Z"/>
  <path class="cls-32" d="M42.58,74.76l1.15-2.28c-.39,1.18-.52,1.3-1.15,2.28Z"/>
  <path class="cls-13" d="M22.07,71.36l-1.15,1.15c-.18-.58.15-1.58,0-2.28h1.15c1,.3,1,.7,0,1.15v-.03Z"/>
  <path class="cls-11" d="M43.73,71.36h-1.15c-2.18-.61-2.18-1.61,0-2.28h1.15c-.12.73.15,1.64,0,2.28Z"/>
  <path class="cls-157" d="M52.83,70.21c.21,1.43-.21,3.13,0,4.55.3,2.06,1,3.58,1.15,4.55,1.03.58.79,2.49,0,3.43.39,2.64.79,5.34,1.15,7.98.24,1.82.85,3.7,1.15,5.7s-.06,2.49,0,3.43v1.15c-.46,2.03-1.21,2.79-2.28,2.28-.36.36-.94.79-1.15,1.15-.15.27-1,.52-1.15,1.15h-1.15c-.15-1.76-3.09-2.85-3.43-3.43-2-3.55-.3-6.04,0-9.1.24-2.31.82-4.55,1.15-6.83-.82-1-.88-2.46,0-3.43.3-2.43.82-5.25,1.15-7.98.21-1.76,1.09-3.58,1.15-6.83.33-1,.7-.97,1.15,0,.18,1.06,1.09,1.97,1.15,2.28l-.06-.06Z"/>
  <path class="cls-171" d="M51.71,64.53c.21,1-.18,2.37,0,3.43h-1.15c.03-1.91,0-3.79,0-5.7,1.4.15.94,1.37,1.15,2.28Z"/>
  <path class="cls-198" d="M116.64,91.87l-2.28,1.15c-.97-.3-.94-.67,0-1.15-1.09-.24-.73-1,1.15-2.28.3-1.73-.46-1.33-2.28,1.15-.46.42-1.21.82-2.28,1.15-.36,0-.79-.06-1.15,0-2.25.27-2.88.21-2.28-2.28.27-3.4,2.43-2.94,3.43,0l1.15-1.15c-.03-4.13-1-5.98-2.91-5.46-2.21,1.24-3.91,1.18-5.07-.21-1.61,1.03-2.15.49-1.15-1.15,9.65-8.04,14.14.03,13.68,10.25l-.03-.03Z"/>
  <path class="cls-195" d="M116.64,54.28c1,.33.97.7,0,1.15-.33,2.25-.36,2.25-2.28,1.15-1.12,2.21-1.7,1.03-2.28-1.15-.27.97-.67.94-1.15,0-.36.97-.76.97-1.15,0-.21,1-.61.97-1.15,0-.12,1.03-.52.97-1.15,0-.52,3.03-1.37,2.85-2.28,0-.12.94-.49,1.33-1.15,1.15-.3,1-.7.97-1.15,0-.33,3.28-2.52,3.43-4.55,1.15-1.03.76-1.46.15-1.15-1.15,5.52-3.79,13.14-4.04,19.36-2.28l.09-.03Z"/>
  <path class="cls-70" d="M107.5,65.65c.36,2.12.73,4.04,1.15,5.7.33-.76.73-.73,1.15,0l2.28-1.15c.33-1,.7-.97,1.15,0,1.24.79,1.88,2.03,2.28,3.43l1.15,1.15c-4.07,1.49-6.92-.67-11.38,0-1.49.52-1.88.36-1.15-1.15-.76-.33-.73-.73,0-1.15h2.28c-2.21-1.33-2.46-1.91,0-3.43-.61-1.12-.97-2.52,0-3.43.33-1,.7-.97,1.15,0l-.06.03Z"/>
  <path class="cls-120" d="M104.1,86.16c-.15.88-.55,1.27-1.15,1.15-2.43-.15-1.7,1.33,0,3.43.76.3.73.7,0,1.15-.15.91-1.09,2.06-1.15,3.43h-1.15c-1.15-4.52-2.28-6.74,0-11.38,1.18-.61,2.31-.97,3.43-1.15,3.03,1.15,3,2.21,0,3.43l.03-.06Z"/>
  <path class="cls-34" d="M94.97,90.72c-.33,1-.7.97-1.15,0-3.73-1.3-5.4-8.89-2.28-11.38,0-1.21.39-1.97,1.15-2.28.49,4.16,1.61,9.19,2.28,13.65Z"/>
  <path class="cls-169" d="M116.64,54.28c7.89,2.21,4.22,3.94,3.43,10.25-.67.39-1.03-.36-1.15-2.28-2.25-1.18-3-3.46-2.28-6.83v-1.15Z"/>
  <path class="cls-83" d="M97.25,58.83c3.25.64,4.25,8.77,1.15,10.25-.12.73-.3,1.21-1.15,1.15-.79-2.82-2.94-9.77-1.15-12.53,1-.76,1.46-.12,1.15,1.15v-.03Z"/>
  <path class="cls-3" d="M93.85,100.97l2.28,1.15c.85-.09,1.24.27,1.15,1.15-.79,2.18-4.67.18-5.7,2.28-.06-.27-1.49-1.24-1.15-2.28-1.97-2.49.73-4.49,3.43-3.43,1,.33.97.7,0,1.15v-.03Z"/>
  <path class="cls-82" d="M92.7,75.91c-.33,1-.7.97-1.15,0-2.73-.27-2.82-4.19-1.15-5.7.33-1,.7-.97,1.15,0,.06.94.91,3.49,1.15,5.7Z"/>
  <path class="cls-56" d="M120.03,64.53c-.33,2.64-.49,3.25-1.15,5.7-1.49,1.52-1.76.88-1.15-1.15-2.88-1.4-1.91-6.31,1.15-6.83,0,0,1.15,2.28,1.15,2.28Z"/>
  <path class="cls-161" d="M97.25,103.25c-.42-.3-.73-.85-1.15-1.15-1.21.33-2.03.21-2.28-1.15v-1.15c-2.31-1.97-1.82-2.55,1.15-2.28.33-1,.7-.97,1.15,0,.27,1.55,1.85,3.76,1.15,5.7l-.03.03Z"/>
  <path class="cls-50" d="M118.91,70.21c-.18.67.21,1.73,0,2.28l-1.15,2.28c-.18.18-.76-.12-1.15,0l-1.15-1.15c-2.31-1.4-.7-5.64,2.28-4.55l1.15,1.15h.03Z"/>
  <path class="cls-160" d="M104.1,82.74c-.91.61-1.82,4.55-3.43,1.15.64-1.3,1.33-1.52,2.28-2.28.52.12,1.06.61,1.15,1.15v-.03Z"/>
  <path class="cls-174" d="M96.13,97.54h-1.15c-3,.3-3.52-1.46-1.15-3.43.12-.76.27-1.24,1.15-1.15.12.82.82,2.88,1.15,4.55v.03Z"/>
  <path class="cls-123" d="M102.95,74.76c.88.33.88.7,0,1.15-1.03.33-2,1.49-3.43,1.15-.18-.67.21-1.91,0-2.28.33-.94.7-.94,1.15,0,.36-3.03,1.43-2.88,2.28,0v-.03Z"/>
  <path class="cls-186" d="M100.68,74.76h-1.15c-.64-1.09-1.7-1.7-2.28-3.43.33-1,.7-.97,1.15,0,2.79-2.28,4.31,1.21,2.28,3.43Z"/>
  <path class="cls-132" d="M91.57,70.21h-1.15c-1-.27-1-.67,0-1.15-.7-1.49-.7-2.64,0-3.43.33-.76.73-.73,1.15,0,.09,1.52-.12,3.06,0,4.55v.03Z"/>
  <path class="cls-103" d="M98.4,57.67c1.18,1.64.58,2.18-1.15,1.15,0-.21-.94-.7-1.15-1.15.27-.39.76-.88,1.15-1.15l1.15,1.15Z"/>
  <path class="cls-122" d="M105.23,74.76s-1.43.85-2.28,1.15v-1.15c-1-.33-.97-.7,0-1.15.33-1,.7-.97,1.15,0l1.15,1.15h-.03Z"/>
  <path class="cls-135" d="M92.7,77.06l-1.15,2.28c-2.88-1.27-2.88-2.18,0-3.43h1.15c.03.36-.03.76,0,1.15Z"/>
  <path class="cls-192" d="M94.97,92.99l-1.15,1.15c-2.88-1.3-2.91-2.15,0-3.43h1.15c.12.73-.09,1.55,0,2.28Z"/>
  <path class="cls-95" d="M117.76,74.76l1.15-2.28c-.39,1.06.12,1.09-1.15,2.28Z"/>
  <path class="cls-144" d="M98.4,71.36h-1.15c-.12-.33.09-.79,0-1.15l1.15-1.15c3.06.27,2.85,1.21,0,2.28v.03Z"/>
  <path class="cls-119" d="M91.57,65.65h-1.15c-1-.39-1-.76,0-1.15h1.15v1.15Z"/>
  <path class="cls-21" d="M124.61,107.8s1.09-1.06,1.15-1.15l-1.15,1.15Z"/>
  <path class="cls-55" d="M90.42,69.08c.03.36-.03.76,0,1.15.27,2.37.94,4.25,1.15,5.7.15,1.09-.15,2.31,0,3.43.52,4.13,1.76,7.77,2.28,11.38.15,1.09-.12,2.31,0,3.43.09.82,1.21,2.03,1.15,3.43,0,.49-.82,1.67-1.15,2.28-.39.79-2.7,3.16-3.43,3.43-.24.09-.76,0-1.15,0-.33,1.03-.73,1.03-1.15,0-1.67-.64-2.85-2.73-4.55-3.43v-1.15c-.3-2.4.73-4.58,1.15-6.83-.97-.3-.73-1.52,0-2.28.12-.58.88-1.67,1.15-3.43.18-1.06-.15-2.34,0-3.43.06-.46.97-1.55,1.15-3.43.09-1.06.06-2.37,0-3.43,2.09-2.64,1.12-7.8,1.15-11.38,1.3-.12,2.06,1.4,2.28,4.55h-.03Z"/>
  <path class="cls-193" d="M88.15,108.95v-5.7c.24.09.76,0,1.15,0-.15,1.97.85,4.73-1.15,5.7Z"/>
  <path class="cls-41" d="M74.49,82.74c.06.94,1.58,3,1.15,4.55-3.09,2.46-3.43,5.49-9.1,2.28-1-2.61-1.52-5.07,1.15-6.83,2.21-1.49,4.58-1.4,6.83,0h-.03Z"/>
  <path class="cls-58" d="M65.36,89.56c.03.36,0,.76,0,1.15-.82,1.3-1.58,1.7-2.28,1.15-.06-1.49-.49-3.79,1.15-4.55.09.09,1.12,2.15,1.15,2.28l-.03-.03Z"/>
  <path class="cls-201" d="M64.24,92.99c-.33.73-.73.7-1.15,0-.09-.27,0-.76,0-1.15l2.28-1.15c0,.61-1.12,1.73-1.15,2.28l.03.03Z"/>
  <path class="cls-57" d="M64.24,94.14c-1.15.09-.94-.46-1.15-1.15h1.15v1.15Z"/>
  <path class="cls-184" d="M114.36,91.87c-.09.39.09.82,0,1.15-.18.61.21,1.7,0,2.28-1.76.94-3.61-2.21-3.43-3.43,1.03-.76,2.73-.97,3.43,0Z"/>
  <path class="cls-168" d="M123.46,100.97c.76.39-.67,1.94-2.28,1.12-.76-.39.67-1.94,2.28-1.12Z"/>
  <path class="cls-49" d="M104.1,87.29c2.28-1.06,3.55-.33,3.43,2.28.73.58,1.85,1.52,2.28,2.28-1.61.27-1.18,0-2.28,1.15-.36,0-.79.06-1.15,0-.46-.94-1.21-1.7-2.28-2.28-.3.76-.7.73-1.15,0-1.7-.06-1.61-1.76,0-2.28l1.15-1.15Z"/>
  <path class="cls-47" d="M104.1,90.72c2.4-.03,2.55-.46,2.28,2.28-.36-.06-.79.09-1.15,0-.09,0,.12-1.33-1.15-1.15-.76-.33-.73-.73,0-1.15l.03.03Z"/>
  <path class="cls-12" d="M104.1,91.87h-1.15c.06-.36-.06-.76,0-1.15.36-.06.76,0,1.15,0v1.15Z"/>
  <path class="cls-73" d="M90.42,64.53c.03.36-.03.76,0,1.15.12,1.12-.12,2.31,0,3.43l-2.28-4.55c0-1.52-.06-3.03,0-4.55.33-1,.7-.97,1.15,0,.24,1.73,1.03,3.61,1.15,4.55l-.03-.03Z"/>
  <path class="cls-158" d="M89.3,59.95h-1.15c.03-1.3-.49-5.7.58-5.7,1.27,1.21.33,4,.58,5.7Z"/>
  <path class="cls-203" d="M63.09,57.67c.58.18,1.85-.27,2.25.06.18.12-1,3.03-.91,4.28.09,1.37.94,2.34.94,2.49,1.06,2.37.88,5.52,0,7.98,1.88.09,1.3,1.12,0,2.28v1.15h-3.43v-1.15c.06-1.4-2.18-4.07-2.28-4.55-.18-1.03.12-2.31,0-3.43-.27-2.43,0-5.43,0-7.98.79-.06,2.28-1.21,3.43-1.15v.03Z"/>
  <path class="cls-23" d="M81.32,57.67c.46,3.64-.3,6.8-1.15,10.25-.73,3-1.4,5.52-3.43,7.98-4.16-3.4-1.24-3.13-1.15-5.7-1.33-5.37-.94-9.95,1.15-13.65.36.06.79-.09,1.15,0,.61.12,1.97,1.73,3.43,1.15v-.03Z"/>
  <path class="cls-28" d="M69.91,69.08c.76.33.76.73,0,1.15,1.03.3.73,2.43,0,3.43-.52.21-1.58-.15-2.28,0-1.97.24-.91-2.09,0-3.43-.91-4-.97-9.59,0-13.65h1.15c.33,4.1.73,8.25,1.15,12.53l-.03-.03Z"/>
  <path class="cls-7" d="M74.49,69.08c.76.3.76.7,0,1.15-.12.67-1.58,2.03-1.15,3.4h-1.12c-.06-1.88.06-3.79,0-5.67-.91-3.61-.94-7.8,0-11.38h1.15c.33,4.1.73,8.25,1.15,12.53l-.03-.03Z"/>
  <path class="cls-2" d="M76.77,56.55c-1.43,4.34-.97,9.16-1.15,13.65h-1.15c.06-.36-.03-.76,0-1.15-.79-4.07-1.15-8.68,0-12.53.76.06,1.55-.09,2.28,0l.03.03Z"/>
  <path class="cls-200" d="M71.06,67.93c-.03.76.09,1.55,0,2.28-.33,1-.7.97-1.15,0v-1.15c-1-4.13-.82-8.37,0-12.53h1.15c.91,3.55.97,7.77,0,11.38v.03Z"/>
  <path class="cls-76" d="M72.19,67.93h-1.15c.18-3.76-.12-7.62,0-11.38h1.15c.09,3.79-.12,7.62,0,11.38Z"/>
  <path class="cls-189" d="M67.64,73.63c-.7.15-1.52.88-2.28,1.15v-2.28l1.15-2.28c.33-1,.7-.97,1.15,0v3.43l-.03-.03Z"/>
  <path class="cls-116" d="M69.91,73.63v-3.43h1.15c-.18,1.52.67,2.7-1.15,3.43Z"/>
  <path class="cls-203" d="M67.64,70.21h-1.15c-.82-2-.82-4.76,0-6.83v-6.83c.36.03.76,0,1.15,0v13.65Z"/>
  <path class="cls-35" d="M69.91,69.08c-2.46-3.09-.61-8.59-1.15-12.53h1.15v12.53Z"/>
  <path class="cls-148" d="M74.49,69.08c-2.46-3.09-.61-8.59-1.15-12.53.36,0,.76-.03,1.15,0-.39,4.04.39,8.5,0,12.53Z"/>
  <path class="cls-51" d="M84.17,102.09c.73.39.73.76,0,1.15v-1.15Z"/>
  <path class="cls-170" d="M59.66,58.83c-.55.03-1.33-.46-1.15-1.15h1.15v1.15Z"/>
  <path class="cls-138" d="M66.51,70.21c-.06.97,0,1.97-1.15,2.28,0-2.64.12-5.34,0-7.98l1.15-1.15c0,2.25.18,4.61,0,6.83v.03Z"/>
  <path class="cls-64" d="M56.26,102.09c.58.82.85,1.64,0,2.28h-1.15l-1.15-1.15c.67-.73.97-1.94,2.28-2.28,0,.36-.06.79,0,1.15h.03Z"/>
  <path class="cls-157" d="M56.26,104.37v-2.28c0,.15,2.67,1.61,0,2.28Z"/>
  <path class="cls-143" d="M74.49,82.74c-.03-.76.33-1.27,1.15-1.15l-1.15,1.15Z"/>
  <path class="cls-67" d="M55.11,82.74h-1.15c-.15-1.09.15-2.34,0-3.43h1.15v3.43Z"/>
  <path class="cls-80" d="M84.72,91.87h-1.15v-2.28h1.15c-.12.7.12,1.58,0,2.28Z"/>
  <path class="cls-32" d="M40.3,57.67l3.43,1.15c.24,3.46-.46,6.92-1.15,10.25-.15.7.18,1.64,0,2.28-.03.15-.94,1.94-1.15,2.28-1.64,2.73-1.73,2.12-4.55,2.28-.64-.21-.55-.61,0-1.15,0-.36-.06-.76,0-1.15l1.15-2.28c.09-1.12,0-2.28,0-3.43.06-3.19-1.55-11.13,2.28-10.25v.03Z"/>
  <path class="cls-77" d="M36.87,57.67c-.24,3.34.33,7.01,0,10.25-.12,1.15-.67,5.73-2.28,5.7.55-2.82-.85-14.53.15-15.81.39-.52,1.73.06,2.12-.12v-.03Z"/>
  <path class="cls-25" d="M33.47,70.21c-.03,1.49.58,3.76-1.15,4.55-1.85-2.03-1-3.31-1.15-5.7-.21-3.76,0-7.62,0-11.38h1.15l1.15,12.53Z"/>
  <path class="cls-46" d="M33.47,70.21c-2.46-3.09-.61-8.59-1.15-12.53,2.03,2.79,1.24,8.74,1.15,12.53Z"/>
  <path class="cls-77" d="M36.87,73.63c.15-.94,0-1.91,1.15-2.28-.09.97,0,1.97-1.15,2.28Z"/>
  <path class="cls-77" d="M36.87,75.91c-.36,0-.79.06-1.15,0l1.15-1.15v1.15Z"/>
  <path class="cls-111" d="M47.13,102.09c1.21,1.21-1,3.55-2.28,2.28s1.06-3.49,2.28-2.28Z"/>
  <path class="cls-86" d="M30.04,69.08c-.06,1.88.06,3.79,0,5.7h-1.12c-.06-1.12.03-2.28,0-3.4-1-2.03-1.55-5.16,0-6.83-1.06-2.15-2.91-6.1,0-6.83.52,0,.94-.06,1.12.58-.06,3.61.12,7.22,0,10.83v-.06Z"/>
  <path class="cls-136" d="M28.92,57.67v6.83c-.64,1.37-1.4.61-2.28-2.28-3.06-.3-3.4-1.33-1.15-3.43-.09-.33.06-.79,0-1.15,1.24,1.3,2.76-.03,3.43,0v.03Z"/>
  <path class="cls-157" d="M25.49,58.83c.27,1.03.91,1.4,1.15,3.43,1.67,2.7,1.91,6.1,1.15,9.1.18,1.43-.12,3.06,0,4.55-1-.09-2.43-.12-3.43,0-.06-1.7-1.91-3.52-2.28-4.55-.12-.33.09-.79,0-1.15-.27-1.06-1.12-3.25-1.15-3.43-.12-1.85-.09-5.49,1.15-6.83.61-.67,2.46-.91,3.43-1.15l-.03.03Z"/>
  <path class="cls-113" d="M28.92,64.53c0,2.28-.09,4.58,0,6.83h-1.15c-.42-3.09-.79-6.01-1.15-9.1l2.28,2.28h.03Z"/>
  <path class="cls-108" d="M48.28,86.16h-1.15v-3.43h1.15c-.15,1.09.15,2.34,0,3.43Z"/>
  <path class="cls-40" d="M112.08,88.44l-1.15,1.15c-.85.27-2.4-.18-3.43,0-.39-.3-2.94-.12-3.43-2.28v-1.15c.06-1.03.12-2.4,0-3.43,7.25-4.82,12.35-.76,7.98,5.7h.03Z"/>
  <path class="cls-193" d="M115.48,89.56c-.7,1.18-1.46,1.55-2.28,1.15l1.73-3.4c.94-.06.7,1.58.58,2.28l-.03-.03Z"/>
  <path class="cls-9" d="M114.36,91.87c-1.12.03-2.28-.06-3.43,0,.24-1.67,1.64-.82,2.28-1.15.76-.36,1.52-.76,2.28-1.15-.15.73-1,1.58-1.15,2.28l.03.03Z"/>
  <path class="cls-9" d="M110.93,89.56l1.15-1.15c-.33.49-.52.94-1.15,1.15Z"/>
  <path class="cls-72" d="M102.95,56.55c.82,4.55.94,9.13,0,13.65,1.97-.58,1.97.58,0,3.43v1.15h-2.28c-.06-1.4-2-2.7-2.28-3.43-.21-.52.15-1.58,0-2.28-1-4.34-.73-6.34-1.15-10.25.18-.61.64-.85,1.15-1.15,1.82-1.03,3-.73,4.55-1.15v.03Z"/>
  <path class="cls-95" d="M116.64,55.4c2.97,1.15,2.31,4.25,2.28,6.83s-.52,4.43-1.15,6.83c-.36,1.43-2.21,3.34-2.28,4.55-1-.21-2.34.15-3.43,0,.46-1.12.82-2.21,1.12-3.4-.82-.76-.82-1.58,0-2.28-.58-2.91-.18-5.31,1.15-7.98-1.79,0-1.67-3,0-3.43.39-1.27,1.12-1.24,2.28-1.15l.03.03Z"/>
  <path class="cls-154" d="M104.1,67.93c2.12,1.09,1.18,3.88-1.15,2.28v-13.65c.36-.09.79.09,1.15,0,.85,3.46,1.06,8.01,0,11.38Z"/>
  <path class="cls-33" d="M105.23,58.83c.88,3,.82,6.07,0,9.1-.33,1-.7.97-1.15,0,.27-3.76-.21-7.62,0-11.38.33-.06.79-1.09,1.15-1.15,1.79-.12,1.64,3,0,3.43Z"/>
  <path class="cls-149" d="M110.93,65.65c.76.33.73.73,0,1.15-2.18,1.37-2.25-2.91-1.15-4.55-.91-2.12-.88-4.7,0-6.83.36,0,.76-.03,1.15,0,.97,2.73.91,7.25,0,10.25v-.03Z"/>
  <path class="cls-6" d="M107.5,55.4c.97,2,.88,5.86,0,7.98-.33,1-.7.97-1.15,0-.39-1.37-.76-2.88-1.15-4.55v-3.43c.7-.12,1.55.06,2.28,0h.03Z"/>
  <path class="cls-178" d="M114.36,56.55c-.24.79.09,2.37,0,3.43-.36,2.25-1.12,3.37-2.28,3.43-.97-2-.88-5.86,0-7.98.7.12,1.52.88,2.28,1.15v-.03Z"/>
  <path class="cls-40" d="M112.08,63.38c1.03.21.97.61,0,1.15v1.15c-.33,1-.7.97-1.15,0v-10.25c.36.03.79-.06,1.15,0v7.98-.03Z"/>
  <path class="cls-40" d="M108.66,62.26c.97.33.79,2.61,0,3.43-.33,1-.7.97-1.15,0-.82-.73-.85-1.52,0-2.28v-7.98c.36-.03.76,0,1.15,0,1,1.21.82,5.07,0,6.83Z"/>
  <path class="cls-127" d="M109.78,62.26c-.33,1-.7.97-1.15,0v-6.83h1.15c.03,2.28-.06,4.55,0,6.83Z"/>
  <path class="cls-196" d="M106.38,69.08c-.09,1.12.06,2.28,0,3.43h-2.28v1.15h-1.15v-3.43c1.12-.3,1.06-1.3,1.15-2.28h1.15c.55-.67.94-.27,1.15,1.15l-.03-.03Z"/>
  <path class="cls-18" d="M106.38,63.38c.82.73.85,1.52,0,2.28,0,1.12.09,2.31,0,3.43l-1.15-1.15v-9.1c1.73.79,1.09,3.06,1.15,4.55Z"/>
  <path class="cls-78" d="M108.66,70.21c.76.33.73.73,0,1.15-.21.03-.24,1.43-1.12,1.15-.06-2.28,0-4.55,0-6.83h1.15c1.58.67,1.82,3.97,0,4.55l-.03-.03Z"/>
  <path class="cls-100" d="M112.08,70.21c-.85,3.25-2.12,1.09-2.28,1.15-.76-.33-.73-.73,0-1.15.33-1,.7-.97,1.15,0,.33-1,.7-.97,1.15,0h-.03Z"/>
  <path class="cls-98" d="M113.21,70.21h-1.15c-.85-.73-.82-1.55,0-2.28.33-1,.7-.97,1.15,0-.12.73.15,1.64,0,2.28Z"/>
  <path class="cls-122" d="M107.5,65.65h-1.15v-2.28h1.15v2.28Z"/>
  <path class="cls-96" d="M109.78,71.36c-.33.09-.76-.09-1.15,0v-1.15c.33-1,.7-.97,1.15,0v1.15Z"/>
  <path class="cls-122" d="M106.38,72.48c0,1.4-1.43.67-2.28,0,.09-1.82,1.09-.79,2.28,0Z"/>
  <path class="cls-176" d="M116.64,74.76c-.88.09-1.18-.27-1.15-1.15.79.15,1.24.09,1.15,1.15Z"/>
  <path class="cls-51" d="M102.95,87.29c.58.33.58.73,0,1.15-.06.73.09,1.55,0,2.28-.7.12-2.12,2-2.28.58v-5.13c.27-.46,1.79,1.06,2.28,1.15v-.03Z"/>
  <path class="cls-165" d="M104.1,87.29c-.12.55-.61.97-1.15,1.15v-1.15s.67-.97,1.15-1.15c0,.39.09.82,0,1.15Z"/>
  <path class="cls-105" d="M96.13,102.09l-2.28,1.12v-2.28c1.15-.15,1.58.64,2.28,1.15Z"/>
  <path class="cls-42" d="M113.21,67.93c-.76-.76-1.15-1.88-1.15-3.43v-1.15l2.28-3.43c-.27,3.06-.7,5.37-1.15,7.98l.03.03Z"/>
  <path class="cls-31" d="M110.93,66.81c.97.3.85,2.64,0,3.43h-2.28v-7.98h1.15c.03,1.49-.58,3.76,1.15,4.55h-.03Z"/>
  <path class="cls-193" d="M112.08,67.93c-.09.73.15,1.67,0,2.28h-1.15v-4.55h1.15c.42.82.73,1.61,0,2.28Z"/>
  <path class="cls-93" d="M113.21,67.93h-1.15c.09-.73-.03-1.52,0-2.28v-1.15l1.15,3.43Z"/>
</svg>