<?xml version="1.0" encoding="UTF-8"?>
<svg id="Livello_1" data-name="Livello 1" xmlns="http://www.w3.org/2000/svg" viewBox="0 0 141.73 141.73">
  <defs>
    <style>
      .cls-1 {
        fill: #eeeceb;
      }

      .cls-2 {
        fill: #dbdddb;
      }

      .cls-3 {
        fill: #c6bfbb;
      }

      .cls-4 {
        fill: #988983;
      }

      .cls-5 {
        fill: #fdfefe;
      }

      .cls-6 {
        fill: #a28e86;
      }

      .cls-7 {
        fill: #e7eeec;
      }

      .cls-8 {
        fill: #a5948e;
      }

      .cls-9 {
        fill: #d1cecb;
      }

      .cls-10 {
        fill: #fefefe;
      }

      .cls-11 {
        fill: #8e766c;
      }

      .cls-12 {
        fill: #9e908f;
      }

      .cls-13 {
        fill: #a2968e;
      }

      .cls-14 {
        fill: #93786e;
      }

      .cls-15 {
        fill: #b8afaa;
      }

      .cls-16 {
        fill: #896f61;
      }

      .cls-17 {
        fill: #dbd0cc;
      }

      .cls-18 {
        fill: #b8b0a8;
      }

      .cls-19 {
        fill: #fff;
      }

      .cls-20 {
        fill: #c4b7b3;
      }

      .cls-21 {
        fill: #876a5b;
      }

      .cls-22 {
        fill: #aba59e;
      }

      .cls-23 {
        fill: #e3d7d6;
      }

      .cls-24 {
        fill: #9b8f89;
      }

      .cls-25 {
        fill: #b7a8a2;
      }

      .cls-26 {
        fill: #ada8a2;
      }

      .cls-27 {
        fill: #dde0dc;
      }

      .cls-28 {
        fill: #a29991;
      }

      .cls-29 {
        fill: #f5f6f5;
      }

      .cls-30 {
        fill: #b5a5a4;
      }

      .cls-31 {
        fill: #c2ada6;
      }

      .cls-32 {
        fill: #baa6a1;
      }

      .cls-33 {
        fill: #a69795;
      }

      .cls-34 {
        fill: #907a6f;
      }

      .cls-35 {
        fill: #e7f4f4;
      }

      .cls-36 {
        fill: #927e74;
      }

      .cls-37 {
        fill: #f7fbfa;
      }

      .cls-38 {
        fill: #927b70;
      }

      .cls-39 {
        fill: #f5f4f3;
      }

      .cls-40 {
        fill: #a79a95;
      }

      .cls-41 {
        fill: #9a6856;
      }

      .cls-42 {
        fill: #e8dad7;
      }

      .cls-43 {
        fill: #a89693;
      }

      .cls-44 {
        fill: #9e9893;
      }

      .cls-45 {
        fill: #a59790;
      }

      .cls-46 {
        fill: #907368;
      }

      .cls-47 {
        fill: #84685c;
      }

      .cls-48 {
        fill: #998b85;
      }

      .cls-49 {
        fill: #b18b82;
      }

      .cls-50 {
        fill: #b5a39c;
      }

      .cls-51 {
        fill: #94877f;
      }

      .cls-52 {
        fill: #968074;
      }

      .cls-53 {
        fill: #b5aea6;
      }

      .cls-54 {
        fill: #846b61;
      }

      .cls-55 {
        fill: #b5afa9;
      }

      .cls-56 {
        fill: #a8a299;
      }

      .cls-57 {
        fill: #958c84;
      }

      .cls-58 {
        fill: #dddcd9;
      }

      .cls-59 {
        fill: #a38983;
      }

      .cls-60 {
        fill: #999089;
      }

      .cls-61 {
        fill: #a29189;
      }

      .cls-62 {
        fill: #998479;
      }

      .cls-63 {
        fill: #feffff;
      }

      .cls-64 {
        fill: #a49d97;
      }

      .cls-65 {
        fill: #8c7a73;
      }

      .cls-66 {
        fill: #d3c2ba;
      }

      .cls-67 {
        fill: #96746b;
      }

      .cls-68 {
        fill: #c6b3af;
      }
    </style>
  </defs>
  <path class="cls-19" d="M103.97,81.36c-.54.73-1.03,3.52-1.99,3.84-1.39.45-2.57-1.44-3.34-1.54-1.55-.22-1.29,2.8-4.59-.63.16-1.38-.4-2.3-1.66-2.76.01-2.55,4.2-2.45,3.87.56l2.2-1.66c.35-.63-5.4-2.26-2.73-4.12.45-.32,3.21-.37,1.07-1.69-.54-.34-4.72,1.91-5.49-.59-.41-1.35,4.02-4.94,5.49-3.54-.21.73-.21,1.28,0,1.66,1.61.26,4.03,3.2,4.44.26.26-1.94-2.67-5.08,1.07-4.68.07.34-.09.84,0,1.1-.37.41-.37.6,0,.56.79.79,2.35.6,3.29,3.12.47,1.28-.12,3.36.03,3.51.34.34,3.81-1.04,4.42,1.97.4,1.97-1.58,1.5-3.05,2.44-.48.31-2.9,2.07-3.02,2.23-1.33-3.17-1.6-3.49-.79-.95l.79.95v-.04Z"/>
  <path class="cls-19" d="M98.97,64.27c-.1.06-.26.84-.92,1.03-1.39.4-3.52-.5-3.49-2.13,1.98.56,1.79.38-.56-.56-.31-.53-.23-1.54-1.1-2.76q.49-.46,0,0c-.38-.53-2.89-2.79-3.9-3.55-.69-.53-2.07-.81-2.14-.89-.44-.65,3.08-5.21,1.64-7.16q.15-.11,0,0c-.07-.09-1.88.34-.85-1.13.12-.15,2.51-2.39,2.85-2.67.59-.48,1.6-.41,1.88-.62h.56c.25,1.17,2.02,2.7,2.13,3.68.1,1.09-1.45,1.6-1.85,2.42-.43.89-.12,1.69-.28,2.19q-1.15.47,0,0c1.91.63,5.21.28,2.33,2.6-.66.54-1.67,1.33-2.33,1.82-.41.13-.4.31,0,.56,1.28.15,2.77-.18,3.89.84,1.19,1.09-1.17,3.11.79,3.04,5.15-2.29-1.35-7.1,6.37-6.07-.34,1.35.38,3.04.31,4.18-.06.85-.75,1.06-.87,1.33-1.25.84-1.5-1.67-1.39-1.53.28.43.89,2.23.84,2.63-.07.13.18.67-.09,1-.13.16-3.08,1.42-3.77,1.77q-.65-.79,0,0h-.03Z"/>
  <path class="cls-19" d="M82.43,137.74c.73-1.55-.56-8.23.84-8.83s1.1-.1,1.35.82c.6,2.29,2.02,6.15.57,8.01"/>
  <path class="cls-19" d="M80.73,13.56c.25.19,1.36,3.78,1.19,4.5-.09.37-1.7,1.26-2.1,1.35-3.01.66-4.42-.92-7.14-1.32-.63-.09-1.33.4-1.83.37h.03v-1.11"/>
  <path class="cls-19" d="M92.37,135.49c.85.03.85-.34,0-1.1-.06-1.69-.92-1.91-1.1-3.32,2.45-.44,1.23.7,1.79,1.48.16.23,2.48,3.07,2.63,3.21"/>
  <path class="cls-1" d="M63.67,132.75c-.15-.01-.43-.56-.56-.56v-.56c-1.03.51-1.38.18-.56-.56-2.16-.69-.19-.54-.28-.48-1.99,1.26-4.08-.82-1.94-2.27-.57-1.25-.76-2.16-.56-2.76l-1.1-.56c-.76.82-1.55.47-1.1-.56-1.64.84-2.55.65-2.76-.56-1.47.35-2.73-.94-1.66-2.22-1.89-2.23.79-2.48,2.22-1.66.97-.53,1.31-.23.56.56,1.25-.25,1.85,1.14,1.66,2.22.73-.03.84-.45.56-1.1-1.69-.13-1.32-1.06,1.1-2.76-.47-.21-.47-.38,0-.56-.25-.79-.16-1.04.56-.56.16-.28-.01-1,.53-1.39s1.13-.19,1.67-.26c.47.22.48.4,0,.56-.66,1.79-.22,2.49,1.33,2.1l.32,1.22c1.7,0,1.91,1.5.56,2.22.84,0,1.2.18,1.1.56.53.94.18,1.26-.56.56-.51.45-.91.82-.62,1.54,1.98,1.01,1.97,1.45.06,2.33.67.28.87.65.56,1.1-.69,1.17-1.41,3.34.19,3.59l-1.29.82h0Z"/>
  <path class="cls-29" d="M64.76,129.96v-.56c-1.1-.29-1.11-1.07,0-1.1-.13-.34-1-.47-1.07-.59-.25-.35.51-.45.53-.51.54-.97,1.57-1.42,3.1-1.38-.13-.85.12-1.31.78-1.38-.38-.97.88-3.29,1.66-2.22.22-.47.4-.48.56,0,.37.78,1.8-1.2,1.1-1.66-2.42-.44-.56-2.38,1.66-1.1.5-.12.69.06.56.56.54,1.26.91,1.44,1.1.56.03-1.42.88-1.94,1.66-.56.37-.01.73.03,1.1,0h1.1c.19.04.41-.06.56,0,.45.22.45.4,0,.56-.47,1.38-1.03,2.3-1.66,2.76.78,1.88-2.17,3.8-3.32,2.22-1.35.16-2.64.53-3.86,1.1l-.56,2.22c.47.19.47.38,0,.56.47.22.47.41,0,.56-1.04.47-2.13.32-3.26-.44-.45.81-.84,1.06-1.72.44v-.03Z"/>
  <path class="cls-19" d="M102.3,93.03c-.13,0-1.47,1.36-1.69-.84-.16-1.67,1.39-2.49,1.54-3.39.29-1.88-2.04-3.49,1.8-2.96v1.1c-1.01.09-1.01.26,0,.56.07.06-.22,1.04.35,1.14.66.1,2.63-.97,2.96-.6.15.15-.29,1.98.51,2.52,1.33.89,4.62-1,3.9,2.99-2.16.28-4.31-.91-6.37-1-.7-.03-1.33.4-1.91.44-.75-.16-1.11-2.3-.78-2.3.23,0,.45,2.26-.32,2.3v.03Z"/>
  <path class="cls-19" d="M107.27,102.94c-.69.07-1.64-.82-2.52-1.09-.98-.29-3.73.56-2.6-2.07,1-2.36,1.83-.85,2.93-.44,2.01.75.15-3.77.53-4.14.15-.15,3.89-.57,4.08-.51,1.89.51.35,2.46.35,2.71-.63,1.28-.63,2.54,0,3.86.48.23.5.43,0,.56l-1.72.98c-.47.89-.82.94-1.04.13h-.01Z"/>
  <path class="cls-19" d="M107.27,107.64l.56-3.59,1.29.26c-2.66-.45-.72-1.69.92-2.46.32-.15.31-.34,0-.56-.79-.37-.91-2.23,0-2.22,1.97,0,5.21.4,4.37,2.99-.29.92-1.41.7-1.61.88q-.36-.21,0,0c-2.07,1.77-3.01,5.46-5.53,4.69Z"/>
  <path class="cls-19" d="M89.61,104.59c-.1.01-.37.51-.82.51-.54-.01-2.82-1.2-3.24-1.58-1.99-1.8,1.73-2.17,2.38-2.57,1.39-.87,2.3-2.86,4.44-2.42.13.34-.07.85.01,1.09q-.15.11,0,0c.82,2.07.63,3.8-1.66,4.97-.26-.26-.63-.26-1.1,0h-.01Z"/>
  <path class="cls-19" d="M83.55,68.72c.38-2.11.37-3.99,0-6.07,1.57.12,2.32-2.24,3.59-2.23,1.01,0,1.36,1.14,1.95,1.41.79.34,1.19-.45,2.19.26l.56.56c.07,3.43-3.59.51-4.06.6-.59.1-1.25,1.39-2.01,1.6-.29-.37-.48-.4-.56,0,.48,1.79,1,1.76,1.09,2.04.62,2.02-1,2.66-2.74,1.82h0Z"/>
  <path class="cls-40" d="M78.59,69.8c.4.78.13,1.03-.56.56-.18-.04-.4.04-.56,0l-1.1-.56c-.35-.19-.81-.34-1.1-.56l-1.66-1.66c-.09-.12.09-.43,0-.56l-1.1-1.1c-.07-.15.07-.41,0-.56l-1.66-2.76c-.06-.16.06-.4,0-.56l-.56-.56c-.06-.16.06-.4,0-.56.03-.53-.16-.81-.56-1.1-.09-.29.09-.78,0-1.1.07-.4-.12-.76-.56-1.1-.04-.18.03-.38,0-.56.07-.79.26-1.16.56-1.1.22-.47.4-.48.56,0,.22-.47.4-.48.56,0,.03.19-.01.38,0,.56-.28.16-.28.34,0,.56,1.07,2.01,2.36,3.84,3.86,5.52.09.12-.09.45,0,.56l1.1,1.1c.13.07.4-.07.56,0,.37.21.38.4,0,.56-1.63.47-1.5,1.38.38,2.74,1.23.62,1.83,1.36,1.82,2.23h.01Z"/>
  <path class="cls-3" d="M71.96,132.22l-1.1,1.1c-.13.03-.44.03-.56,0l-.56-.56c-.57-.34-1.09-.76-1.66-1.1v-.56c-.29-2.68,1.72-.6,2.22,1.1.09-1.04,1.01-1.79,2.76-2.22-.13-.25-.31-.25-.56,0-1.23,1.7-1.91.75-2.76-.56-.04-.18.04-.38,0-.56.06-.67.62-1.04,1.66-1.1.23-.45.6-.84.82-.67,1.07.76,1.58.94,1.95-.43-.47-.22-.48-.41,0-.56-.47-.22-.48-.4,0-.56.92-.28,2.9-1.33,3.32-2.22,1.04-.32,1.97-.32,2.76,0-.28-1.31.54-1.76,1.1-.56-.06.19.06.43,0,.56l-.56.56c-.65.75-.85,1.66-2.22,1.66-.26.16-.26.34,0,.56h1.66c.31.19.31.37,0,.56-.38.81-1.67,1.36-2.45,1.28-1.04,1.85-2.67,1.72-4.53,1.22-.1-.03,2.27.1,1.47.82-.21,1.01-.59,1.92-1.1,2.76-.16-.06-.38.06-.56,0l-.56-.56c-.16-.01-.41-.04-.56,0v.03Z"/>
  <path class="cls-6" d="M70.27,122.28h-.56c-1.14-1.54-2.36-1.97-3.67-1.31-.92-.21.07-5.94,2.57-4.22h2.22c.18.06.38-.04.56,0,.54.73,1.28,1.28,2.22,1.66,1.03,1.09.94,1.38-.56,1.1-.66.4-1.45.53-2.22.56.06.28.54.45.56.54.72,1.03-.06,1.44-1.1,1.66h-.01Z"/>
  <path class="cls-19" d="M116.95,132.76c-2.83-.82.54-3.33,1.04-3.92.65-.78.41-2.71,2.26-2.16,2.24.66-1.16,6.66-3.29,6.06h-.01Z"/>
  <path class="cls-19" d="M111.16,84.72c-5.57.59-5.94-5.03-.56-3.32-.54-3.45,3.81-1.33,2.13.5-.4.43-2.3-1-1.58,2.82h.01Z"/>
  <path class="cls-52" d="M54.28,70.33c-.26-.26-.63-.26-1.1,0-.19-.04-.48.07-.56,0-3.08-1.14-4.05-7.45-.56-7.73l.56.56c.47.22.47.41,0,.56-.19,3.2.87,5.63,3.3,2.89,1.19.63,2.26.28,3.2-1.09l.67.41.56.56c.03.13.03.44,0,.56-1.22.84-2.32,1.76-3.32,2.76-.15.06-.38-.04-.56,0l-1.1.56c-.35.04-.73,0-1.1,0v-.03Z"/>
  <path class="cls-19" d="M89.05,81.41c-.13-.65-.29-.72-.56,0-2.88-.37-4,1.01-3.87-3.04.12-3.55,1.38-.18,1.66,0,.97.62,3.43.1,4.17,1.38,1.86,3.21-.53,1.77-1.38,1.66h-.01Z"/>
  <path class="cls-65" d="M62,116.73c.44-.25.98-.44,1.66-.56.19.03.38-.03.56,0,.47.59.84,1.14,1.1,1.66,1.8,1.64.16,4.93-1.66,2.22-.63-.06-1.09-.4-1.66-.56l.54,3.05c-1.36,1.53-2.1-3.61-1.97-4.46.1-.63.89-1.09,1.44-1.35h-.01Z"/>
  <path class="cls-22" d="M66.99,68.73c0,4.37-.21,8.89,0,13.25-.22.47-.4.48-.56,0-.28.03-.47-.16-.56-.56v-1.66c.26-.16.26-.34,0-.56v-.56c.35-4.99.54-10.14.56-15.46v-8.29c.82-.34.92.32.92,1.11.04,4.21-.01,8.46-.37,12.69v.03Z"/>
  <path class="cls-19" d="M78.99,54.2c-1.57-3.33,6.31-5.85,5.13-1.85-.19.63-1.45.51-2.08,1.06-.88.76-1.61,3.84-3.05.79Z"/>
  <path class="cls-19" d="M119.61,36.32c-.35.4-.34,1.85-1.01,2.02s-1.36-.53-1.29-1.28c.01-.25,1.41-4.61,1.61-4.75.79-.54,2.64-.01,2.76,1.33.18,1.97-1.31,1.8-2.07,2.66h0Z"/>
  <path class="cls-43" d="M60.94,65.93c-.21.18-.35.4-.56.56l-.56-.56c-.48-.23-.5-.41,0-.56l-.48-.67c1.32-1.31,2.22-2.73,2.7-4.28-.15-.45,1.32-5.52,1.57-5.69.45-.32,1.64,1.57,1.19,2.38-.07.32.09.78,0,1.1l-.56.56c-.04.18.06.4,0,.56l-.56,1.1c-.06.16.06.4,0,.56l-.56,1.1c-.07.16.07.41,0,.56l-1.1,1.66c-.22.32-.34.84-.56,1.1l-.56.56h.03Z"/>
  <path class="cls-19" d="M89.06,124.46c-3.64-9.55,5.68-2.93,3.86-.56-.72.26-1.04-.54-1.1-.54-.76-.6-1.31-.6-1.66,0-.07.03-.47,1.2-1.1,1.1Z"/>
  <path class="cls-19" d="M95.69,100.74c-1-1.11.12-1.26.43-2.63.18-.78-.92-2.93,1.5-2.35.6.15.7,3.9,1.44,4.68-.6,2.17-1.23,1.16-2.26.84l-1.1-.56h0Z"/>
  <path class="cls-10" d="M56.5,65.96c-.26.48-.45.5-.56,0-1.76.21-2.1-1.16,0-1.1,1.26-1.51,3.33-2.7,4.65-4.46,2.05-2.73,2.7-5.84,4.18-8.8.91.16.78,1.29,0,1.66-.03.78.15,1.53.56,2.22-.13.92-.47,1.26-.56,1.66l-1.1-2.22c0,1.5-.91,4.24-1.66,5.52-.51,2.85-3.45,4.68-5.52,5.52h0Z"/>
  <path class="cls-39" d="M62.57,132.19c-.16,0-.97.59-1.85.51-2.67-.22-3.24-.37-3.67-2.71-.75.04-.92-.7-.56-2.22-.22-1.13,2.76-1.83,2.76-.56,1.09.18,1.03,1.1,0,1.1-.1,1.86,1,2.79,3.32,2.76.1.19.43.35.56.56,0,.38-.23.48-.56.56h0Z"/>
  <path class="cls-19" d="M92.92,127.78c.12-.13.06-.91.56-1.35,3.24-2.77,4.65,1.7,1.5,3.17-1.28.59-1.33-.31-2.05-.72-.48-.4-.48-.76,0-1.1h0Z"/>
  <path class="cls-26" d="M64.8,132.74h-1.1c.72-.53-.73-4.27-.56-4.42h1.66c.1.26-.12.84,0,1.1-.26,1.76-.07,2.3.56,1.66q.69.28,0,0c-.75.03-.69-.43-.56-1.1l1.66-2.22c1.14,1.1,1.97,1.5,3.3,2.22.31.21.31.4,0,.56,1.45.15,1.86.98.56,1.66l-1.13-1.66c-.1-.07-.87.38-1.09.56l-1.1,1.66c-.15.06-.37-.04-.56,0-.16-.25-.34-.25-.56,0-.19.01-.38,0-.56,0-.16-.26-.34-.26-.56,0h.03Z"/>
  <path class="cls-8" d="M53.18,121.7c-1.25,2.14-2.27.04-1.66-1.66-1.77-2.66,1.13-1.77,2.85-1,.04.03-.91-.4-.09-.66-.01-.19,0-.38,0-.56.13-.7.44-.94,1.1-1.1.16-.04.37.03.56,0,1.45-.1,3.49,0,3.32,1.66-1.42.41-2.71.97-3.86,1.66-1.13.29-2.55.22-2.22,1.66h0Z"/>
  <path class="cls-10" d="M68.66,16.23c0,.53.09,1.17,0,1.66-.21.28-.4.29-.56,0-.44-3.65-.45-7.98,0-11.59"/>
  <path class="cls-19" d="M81.99,36.56c-.13-.07-1.72-2.24-1.75-2.39-.48-1.99,3.96-1.07,4.36.07.63,1.82-1.14,3.17-2.63,2.32h.01Z"/>
  <path class="cls-19" d="M86.83,44.43c-.15.04-.89,1.7-2.2,1.1-.37-2.33,2.6-5.57,4.15-2.77,1.36,2.45-.95,1.32-1.94,1.66q-.09-.48,0,0h-.01Z"/>
  <path class="cls-10" d="M66.42,96.31c-.6-1.72-.43-3.74,0-5.52-.44-1.98-.43-4.09,0-6.07-.4-.78-.45-2.08,0-2.76h.56c.07,1.5-.62,2.6,1.11,3.04-1.7.28-1.32,4.43-1.16,6.1.07.75,3.12,2.6.04,2.17l-.54,3.04h-.01Z"/>
  <path class="cls-57" d="M68.09,28.39c.03,3.39-.15,6.7-.56,9.95-.22.47-.4.48-.56,0-.31-1.26-.31-2.55,0-3.86v-6.63c.26-.16.26-.34,0-.56v-1.66c.41-.56.38-1.1,0-1.66v-.56c.22-.47.4-.48.56,0,.22-.47.4-.48.56,0-.03,1.66.03,3.32,0,4.97h0Z"/>
  <path class="cls-19" d="M79.1,113.72c.21-1.8,2.57-2.36,3.29-1.35,1.5,2.1-3.7,5.12-3.29,1.35Z"/>
  <path class="cls-51" d="M68.09,6.32v12.15h0c0,1.66.03,3.32,0,4.97h-.56c-.41-4.05-.72-8.63,0-12.7"/>
  <path class="cls-10" d="M52.08,127.79c.51.5.79,1.1,0,1.1-1.04-.95-2.3,0-1.66-3.32.37-.03.73.01,1.1,0-.6-1.73-1.53-1.41-1.98-2.73-1.01-2.95,1.83-5.98,4.74-4.46.03.34.87.92.28,1.09-.98.19-2.24-1.79-3.04-1.09-.18.16.16,1.33,0,1.66-.35,1.83.01,2.89,1.1,3.17l.56,1.26c1.35.51,1.45,1,0,1.1-.29.87-1.16.65-1.66,0,1.03.22,1.57.53.56,1.1.13.35.13.72,0,1.1h0Z"/>
  <path class="cls-10" d="M53.73,60.42c.51,1.16-.38,2.49-1.66,2.22-.23.29-.91.43-1.33,1.13-1.47,2.39.48,3.62.81,6.04,1.66-1.14.87.32,1.09.56-5.3-1.45-3.34-9.05,1.1-9.95Z"/>
  <path class="cls-10" d="M69.76,56.02c-.03.41-.01,1.14-.56,1.1-.5-2.41-1.19-3.96-1.1-6.63.22-1.13,1.1-1.16,1.1,0,.31,1.23.91,2.45,1.1,3.86l-.56,1.66h.01Z"/>
  <path class="cls-10" d="M66.43,75.6c0,.92.35,2.45-.56,3.02.01-4.14-.04-8.29,0-12.42,0-.92-.35-2.45.56-3.02,0,4.12.04,8.29,0,12.42Z"/>
  <path class="cls-10" d="M26.69,105.7c3.77.35,2.74,1.47,3.3,4.42h-2.76"/>
  <path class="cls-10" d="M67,56.24c-.01-.88-.57-1.26-.57-1.33-.1-.66.97-.69,1.1-.54.48.53.06,12.66-.54,14.35-.01-4.15.06-8.32.01-12.47Z"/>
  <path class="cls-10" d="M66.43,48.27c-.03.88.32,2.29-.56,2.76-.75-.32-.69-.72,0-1.1-.18-.41-.37-.41-.56,0,.41.95.19,1.26-.56.56,0-.5-.09-2.11,0-2.22.13-.15,1.23.12,1.66,0,.09-4.52-.66-9.4.56-13.8v3.86c.18,3.08.37,6.21.56,9.39-.19.79-.62.43-1.1.56h0Z"/>
  <path class="cls-10" d="M68.09,28.41c-.35,4.84.7,10.22-.56,14.9-.53-1.53-.44-3.42,0-4.97.07-3.3.48-6.88.56-9.95h0Z"/>
  <path class="cls-19" d="M105.36,42.21c2.58-.67,4.39,2.52,1.16,3.27-.81-.37-2.8-2.85-1.16-3.27Z"/>
  <path class="cls-4" d="M76.35,120.06c-.31.01-.97.59-1.66.56-.63.82-.95.35-1.1-.56-.22-.13-.38-.37-.56-.56.18-.1.35-.84.56-1.1-2.16-.75.65-1.85,1.66-.56.18.04.41-.06.56,0,.4.29.78.6.56,1.1-.07.31.04.75,0,1.1h-.01Z"/>
  <path class="cls-19" d="M117.76,106.8c-.06.62.13.79.56.56,2.08,3.78-3.23,3.24-2.2-1.1,1.04-.35,1.19.25,1.66.54h-.01Z"/>
  <path class="cls-10" d="M67.53,10.73v12.7h-.56c0-3.46-.23-6.98-.23-10.43"/>
  <path class="cls-19" d="M88.24,18.46c1.8-.53,2.42,2.08,1.91,2.74-1.36,1.75-4.24-2.05-1.91-2.74Z"/>
  <path class="cls-19" d="M77.46,132.75c-.07-.32.1-.51.56-.56.69-.57,1.14-.78,1.66,0-.1,1.14-1.22,1.42-2.22.56Z"/>
  <path class="cls-19" d="M73.59,132.75c.87-2.63,1.6-3.18,2.22-1.66.26-.45.45-.48.56,0,.53-.78,1.95-1.47,2.76-1.1.06.34-.09.81,0,1.1.21.56-.16.92-1.1,1.1-.35.32-.72.26-1.1,0-.22-.01-.84-.69-1.04-.51-1.06.89.48,2.02-2.27,1.07h-.01Z"/>
  <path class="cls-19" d="M87.96,127.23v2.76c-3.76.5-3.83-3.23,0-2.76Z"/>
  <path class="cls-19" d="M89.89,36.68c-2.51.76-2.8-3.67.84-2.76.09.82.09,2.48-.84,2.76Z"/>
  <path class="cls-10" d="M110.04,101.26c-.72-.06-1.47.06-2.2,0-.35-.66,2.39-.69,1.1-1.64-.21-.15-1.2.1-1.66,0l2.76-2.2c-.03.54.06,1.11,0,1.66-.07.72.1,1.53,0,2.22v-.03Z"/>
  <path class="cls-10" d="M110.04,101.84c.04-.15-.03-.37,0-.56.54.04,1.11-.04,1.66,0-.41,1.66-1.5.51-1.66.54h0Z"/>
  <path class="cls-10" d="M107.84,104.03c-.37-.34-.62-.54-.56-1.1.23-.03,1.42-.85,2.76-1.1-.34,1.03-2.54,1.14-1.66,2.22.06.09,2.17-1.07,2.19.28,0,.1-1.57-.22-1.36.82-.32-.51-1.01-.75-1.38-1.1h.01Z"/>
  <path class="cls-64" d="M66.44,108.44c-.12.7-.29.88-.56.56-.22.47-.4.48-.56,0,0-1.28.03-2.57,0-3.86.04-1.83.41-3.12,1.1-3.86-.03,2.38.04,4.78,0,7.17h.01Z"/>
  <path class="cls-10" d="M49.05,90.81c1.75.09-1.07,3.99-1.94,3.29-1.48-1.19.25-3.11,1.94-3.29Z"/>
  <path class="cls-10" d="M36.27,112.51c-.32.32-.91,1.77-1.29,1.47.18-.78-1.57-2.9-1.11-3.32.12-.1.92.18,1.2-.03.43-.31.72-1.89,1.55-1.07.28.26-1.54,1.29-1.1,2.2l2.2-.28c-.37.5-1.06.62-1.47,1.03h.01Z"/>
  <path class="cls-10" d="M94.04,83.05c-.82-.85-1.66-1.2-1.66-2.76,2.05-1.36,3.78,1.32,1.66,2.76Z"/>
  <path class="cls-19" d="M84.09,73.11c-.43.06-1.13.19-1.11-.28.38-4.68,4.34-2.74,2.22-.26-.43.03-.79.21-1.1.56h0Z"/>
  <path class="cls-19" d="M110.04,73.12v-.56h.56c-.13.41-.28.38-.56.56Z"/>
  <path class="cls-19" d="M109.5,73.11c-4.75,1.79-2.57-1.29-.03-1.98.73-.19.97.32,1.13.88-.01.37-.19.56-.56.56-.01.37-.23.5-.56.56h.01Z"/>
  <path class="cls-55" d="M66.43,96.31c-.04,1.45.1,2.96,0,4.42-.4.04-.72.06-.84-.1-.41-.56-.18-8.48.28-9.83.22-.47.4-.48.56,0,0,1.83.04,3.68,0,5.52h0Z"/>
  <path class="cls-10" d="M76.36,64.83v-.56c.54.22.97.7,1.66.56v-1.66l1.38,1.11c.59.03.13-.95.28-1.11.45-1.41.76-1.45,1.1,0,1.86,3.29-4.24,5.54-4.42,1.66Z"/>
  <path class="cls-19" d="M114.46,131.08c-2.27,4.42-3.39-2.92,0-1.38,1.14.53,0,.79,0,.84-.25.16-.25.34,0,.56h0Z"/>
  <path class="cls-10" d="M78.02,70.38l.56-.56.69-1.03c3.17.34,4.31-3.43,2.29-5.41l.34-1.29c-1.5.23-1.64-.06-.56-1.1.37.19,2.13,1.51,2.22,1.66.85,1.48.76,4.5,0,6.07-.69,1.39-3.17,2.27-4.68,2.22-.95-.04-.85-.57-.85-.57h0Z"/>
  <path class="cls-19" d="M115.01,69.8c-.78.1-.94-.48-.56-1.1,5.47-.48,3.02,4.06.56,1.1Z"/>
  <path class="cls-19" d="M118.59,118.39c1.5.34.7,2.73-.54,3.3-1.45-.65-.95-3.64.54-3.3Z"/>
  <path class="cls-19" d="M114.1,58.8c2.01.37,1.1,2.93-.4,2.67-2.01-.37-1.1-2.93.4-2.67Z"/>
  <path class="cls-19" d="M117.49,72.56c1.41.25.25,3.17-1.64,2.76-1.73-.38.7-2.92,1.64-2.76Z"/>
  <path class="cls-12" d="M53.74,63.2c0,.73-.18,1.1-.56,1.1-1,.54-1.33.22-.56-.56-.07-.15.07-.41,0-.56l-.56-.56c.59-.7,1.13-1.48,1.66-2.22.34-.07,1.32-.07,1.66,0-.01,1.06-.57,1.98-1.66,2.76v.03Z"/>
  <path class="cls-56" d="M67.53,47.71c-1.03-2.67-.56-6.4-.56-9.39h.56c-.03,1.66.04,3.32,0,4.97-.04,1.25.25,3.42,0,4.42Z"/>
  <path class="cls-19" d="M99.54,41.92c-.67.78-1.32,1.57-2.46,1.38-2.26-1.85,1.25-3.24,2.46-1.38Z"/>
  <path class="cls-10" d="M66.42,101.27c-.06.69-.72,3.11-1.1,3.86-.03-1.29.03-2.58,0-3.87l-1.1-.26c2.02-.54.79-1.82.87-3.32.1-2.35-.06-5.32.79-7.45.35.25.38.44,0,.56,0,3.23-.7,7.09.56,9.95,0,.19.01.38,0,.56h-.01Z"/>
  <path class="cls-59" d="M80.76,63.19c-.31.06-1.01-.1-1.1,0v-.56l-.56-.56c-.13-.09-.43.09-.56,0-.84-.6-.22-1.31.56-1.66.18-.03.38,0,.56,0l1.1.56c.18.07.43-.07.56,0,.22.34.32.79.56,1.1.06.76-.32,1.11-1.1,1.1h-.01Z"/>
  <path class="cls-10" d="M94.04,71.18c.1-.32,2.3-1.33,2.76-1.94.06.06.47-.04.5.32-.01.5-.22.95-.5,1.33-.72,1-3.26,1.85-2.76.28Z"/>
  <path class="cls-68" d="M55.97,130.53c-.51.06-1.8.1-2.22,0-.47-.53-.79-1.11,0-1.1.1-1.39.89-1.85,1.66-.56l1.1-1.1.54.28c.09.62-.1,1.35,0,1.92h-.56l-.56.56h.03Z"/>
  <path class="cls-19" d="M108.66,58.76c1.35.31.95,3.1-.54,2.76-1.35-.31-.95-3.1.54-2.76Z"/>
  <path class="cls-19" d="M90.72,39.44c1.16-1.16,3.34,1.06,2.2,2.2-.89.89-3.1-1.32-2.2-2.2Z"/>
  <path class="cls-19" d="M113.36,111.76s-.04.56-.26.54c-1.41-.13-.76-2.79.54-3.29.75.51,1.07,1.32.82,2.2l-1.1.56h0Z"/>
  <path class="cls-19" d="M95.14,32.53c-.5,2.23-3.29.67-2.2-.82.31-.44,2.52-.65,2.2.82Z"/>
  <path class="cls-19" d="M95.14,109.56c-1.95-2.05,1.33-1.97,1.66-1.66.4.4-.26,3.12-1.66,1.66q.15-.11,0,0Z"/>
  <path class="cls-19" d="M118.87,92.7c-.26-1.16,1.8-1.76,2.2-1.36,1.07,1.06-1.75,3.4-2.2,1.36Z"/>
  <path class="cls-10" d="M47.39,100.18c1.29,0,1.14,3.58-1.38,2.74.29-.57.84-2.74,1.38-2.74Z"/>
  <path class="cls-10" d="M79.12,130.01c-.41.43-2.1,1.06-2.76,1.1l-.59-1.6c1.61-.95,3.1-1.91,4.46-2.82.01-.19-.01-.38,0-.56l.54.31c.1.53-1.39,3.3-1.64,3.55h-.01Z"/>
  <path class="cls-10" d="M92.38,135.51c.07-.25,0-.76,0-1.1,1.79-.57,2.57,1.35,1.94,2.76"/>
  <path class="cls-19" d="M118.59,54.89c-1.72-1.35-.7-3.08,1.38-2.74-.03.35.07.79,0,1.1-.59.31-.84.45-1.1,1.1-.03.01.04.59-.28.54Z"/>
  <path class="cls-19" d="M112.52,17.36c1.29.28.81,2.49-.54,2.2-1.29-.28-.75-2.48.54-2.2"/>
  <path class="cls-10" d="M65.59,115.63c-.34-.09-.23-.32-.28-.54.13-2.08.32-4.11.56-6.07l.56-.56c-.03,1.35.44,7.06-.84,7.17Z"/>
  <path class="cls-19" d="M119.43,44.96c-.13-5.24,2.99-1.07,1.1,0-.45.28-.82.28-1.1,0Z"/>
  <path class="cls-60" d="M66.43,84.72c.03,2.02,0,4.05,0,6.07h-.56v-5.53c-.47-.26-.5-.45,0-.56.22-.47.4-.48.56,0h0Z"/>
  <path class="cls-19" d="M114.16,53.8c1.33.34.57,2.07-1.09,1.64-1.33-.34-.57-2.07,1.09-1.64Z"/>
  <path class="cls-28" d="M65.32,115.09c-.31-1.38,0-4.4,0-6.07h.56c-.26,1.91.65,4.58-.56,6.07Z"/>
  <path class="cls-10" d="M84.65,93c-.12-.7-.25-1.04-.56-1.66-.81-.6-.29-1.79.56-1.66.26.09.98-.15,1.1,0,.23.29-.59,1.61-.56,2.2l.56.56v.56c-.45,1.29-.95,1.38-1.1,0Z"/>
  <path class="cls-10" d="M103.4,93c-.37.03-.73-.03-1.1,0-.75-.44-.21-2.36.28-2.77.62.18-.29,1.67,1.38.56l-.54,2.22h-.01Z"/>
  <path class="cls-10" d="M65.87,85.25c-.94.78-2.36-.03-2.76-1.1h2.76c.35.25.38.44,0,.56v.56h0Z"/>
  <path class="cls-19" d="M109.21,63.19c1.09,0,1,2.55-.54,2.2-1.53-.35.13-2.2.54-2.2Z"/>
  <path class="cls-52" d="M55.94,65.93c.01,3.17-4.69.41-2.76-1.66-.03-.5.38-.78.56-1.1l1.1,1.66c.29.09.75-.06,1.1,0-.19.23-.29.62-.54.84l.54.28h0Z"/>
  <path class="cls-19" d="M118.87,134.41h2.2c0,2.17-2.2,2.2-2.2,0Z"/>
  <path class="cls-19" d="M91.82,110.12h2.2c0,2.17-2.2,2.2-2.2,0Z"/>
  <path class="cls-19" d="M110.58,35.85c.01,1.64-3.26.16-2.2-.82.37-.35,2.2.25,2.2.82Z"/>
  <path class="cls-19" d="M83.53,101.28c-4.33-1.14,4.68-2.52.56,0-.15-.23-.32-.23-.56,0Z"/>
  <path class="cls-19" d="M105.05,120.05c-.07.01-.13.54-.26.54-2.46-1.97.62-3.24,1.38-1.64-.34.43-.72.79-1.1,1.1h-.01Z"/>
  <path class="cls-10" d="M94.58,63.17c-.19-.19-.4-.26-.56-.56l3.32.56c-.25,1.63-2.14.59-2.76,0h0Z"/>
  <path class="cls-53" d="M65.32,53.24c-.22.47-.4.48-.56,0,.18-.98-.01-1.29,0-1.66s0-.73,0-1.1c.25-.09.5-.31.56-.56.22-.47.4-.48.56,0,.03.35,0,.73,0,1.1,0,.54.01,1.11,0,1.66-.1.72-.29.89-.56.56Z"/>
  <path class="cls-10" d="M38.82,35.86c1.29-1.66,1.72-1.61,2.76.26l-2.76-.26Z"/>
  <path class="cls-10" d="M55.38,82.51l-2.2-.56c0-.95,1.83-1.47,2.2-1.1.12.12-.06,1.22,0,1.66Z"/>
  <path class="cls-19" d="M93.2,21.22c1.17.28.63,1.92-.54,1.66-1.17-.28-.63-1.94.54-1.66Z"/>
  <path class="cls-19" d="M84.09,91.34c-.09-.18-1.07-.4-1.1-1.1l.56-.56c.94-.75.35-.26,1.1,0l-.56,1.66Z"/>
  <path class="cls-19" d="M84.93,95.21c-1.19-.65-.26-2.1-.28-2.22h1.1c-.01.47-.45,2.22-.82,2.22Z"/>
  <path class="cls-10" d="M51.8,109.02c.94-.01.98,2.19,0,2.19-.94.01-.94-2.17,0-2.19Z"/>
  <path class="cls-10" d="M73.62,118.39c-.13.15-1.6,1.17-1.66,1.1l-.56-2.76c.4.1.97.95,1.36.92.72-.06,1.61-2.05,2.49.18-2.85-.82-1.09-.19-1.66.56h.01Z"/>
  <path class="cls-19" d="M93.48,42.74c.47-.38,1.45-2.27,2.2-.26.45,1.23-.7.65-1.1.82-.79.18-1.64.29-1.1-.56Z"/>
  <path class="cls-10" d="M54.83,44.41c-.56-.59,1.1-2.22,1.66-1.66.56.59-1.1,2.24-1.66,1.66Z"/>
  <path class="cls-10" d="M94.59,43.28c-.48.21-.89.78-1.66.56h-.56c.19-.15.65-.73,1.1-1.1l1.1.56h.01Z"/>
  <path class="cls-10" d="M41.3,110.1c-1.17.43-1.01-1.44-.82-1.64.54-.59,2.52,1.03.82,1.64Z"/>
  <path class="cls-19" d="M85.47,19.55c-1.17.43-1.01-1.44-.82-1.64.54-.59,2.52,1.03.82,1.64Z"/>
  <path class="cls-10" d="M85.47,121.15l-1.38-.54c.72-2.05,3.11-.69,1.38.54Z"/>
  <path class="cls-19" d="M28.35,54.08c.6-1.7,2.22.29,1.64.82-.19.19-2.05.34-1.64-.82"/>
  <path class="cls-30" d="M65.33,54.9c0,.19.03.38,0,.56-2.01-.78-.65-1.67-.56-2.22h.56c.48.45.34,1.11,0,1.66h0Z"/>
  <path class="cls-10" d="M90.16,123.36l-.5-.45,2.16-1.2v1.66c-.34-.04-1.48-.07-1.66,0Z"/>
  <path class="cls-19" d="M99.55,122.82c1.07,2.54-3.3-.19-1.1-.56l1.1.56Z"/>
  <path class="cls-10" d="M91.81,128.07c.15-.62.97-.1,1.11-.28l.54.82-.54.28c-.4-.22-1.42.54-1.11-.82Z"/>
  <rect class="cls-19" x="117.21" y="110.66" width="1.1" height="1.66"/>
  <rect class="cls-19" x="87.96" y="111.22" width="1.66" height="1.1"/>
  <path class="cls-18" d="M68.09,50.49c.01-.48-.12-1.33,0-1.66.34-.44.78-.41,1.1,0,.13.4-.12,1.19,0,1.66h-1.1Z"/>
  <path class="cls-10" d="M57.04,69.8c-.09-1.82,2.19-1.69,3.32-2.76-.29.91-2.44,2.38-3.32,2.76Z"/>
  <path class="cls-10" d="M115,69.82c-.38.31-.7.84-1.1,1.1-.78-.26-.85-1.69,0-1.66.19-.1.41-.56.56-.56.22.32.32.82.56,1.1h-.01Z"/>
  <path class="cls-19" d="M112.78,69.53c-.01-.57.85-.15,1.11-.28v1.66c-.97.65-1.07.04-1.11-1.38Z"/>
  <rect class="cls-19" x="119.99" y="70.91" width="1.1" height="1.66"/>
  <path class="cls-19" d="M80.22,73.68c-.15-1.17,3.55-.63.56,1.1l-.56-1.1Z"/>
  <rect class="cls-10" x="71.4" y="25.08" width="1.66" height="1.1"/>
  <path class="cls-10" d="M79.15,60.4l-.56,1.66c-.38-.23-.84-.37-1.1-.82.47-.73.91-.7,1.64-.82h.01Z"/>
  <path class="cls-13" d="M66.43,81.97c.12.81,0,1.88,0,2.76h-.56v-2.22c-.47-.26-.5-.45,0-.56v-.56c.26.06.51.29.56.56h0Z"/>
  <path class="cls-10" d="M89.08,81.41c-.19-.03-.38.03-.56,0-1.07-2.33.26-2.49,1.09-.26l-.54.26h.01Z"/>
  <path class="cls-10" d="M69.75,80.29l1.66,1.66c-1.06.18-1.85-.65-1.66-1.66Z"/>
  <path class="cls-10" d="M67.53,81.95v-1.1c.76-.16,1.47.31,1.66,1.1h-1.66Z"/>
  <path class="cls-10" d="M65.87,81.95v.56c-2.14,1.55-2.7-1.04,0-.56Z"/>
  <path class="cls-10" d="M55.94,85.27v-1.1h1.66c-.19.81-.89,1.28-1.66,1.1Z"/>
  <path class="cls-10" d="M61.46,109.54l-1.66-.26c.51-.57.85-1,1.66-.82v1.1h0Z"/>
  <path class="cls-10" d="M65.33,117.85c-.79-.23-1.1-.85-1.1-1.66.34.03.97.94,1.38.94s.98-.85,1.38-.94c-.15.92-.81,2.68-1.66,1.66Z"/>
  <path class="cls-23" d="M53.2,129.43c-.21.23-.38.23-.56,0-.21-.12-.37-.38-.56-.56-.07-.31.1-.94,0-1.1,1.61-1.35,3.05,1.01,1.1,1.66h.01Z"/>
  <path class="cls-10" d="M75.8,34.47c-.54-.29-.72-.19-.54-1.1h1.38c.84.51.22.84-.28,1.1-.13-.23-.32-.23-.56,0Z"/>
  <path class="cls-10" d="M102.85,61.52c-1.22-.35-.84-1.76-1.1-2.76.82-.13.62,1.29,1.66,1.66-.04.1-.51,1.03-.56,1.1Z"/>
  <path class="cls-10" d="M55.93,60.96s.62-.04.54.28c-1.47,1.11-3.05,1.54-1.64,3.59-.82-.23-1.1-.84-1.1-1.66.53-.94,1-1.89,1.66-2.76.53.12.45.44.56.56q-.15.11,0,0h-.01Z"/>
  <path class="cls-19" d="M28.33,44.96c.6-.6,1.7.5,1.1,1.1"/>
  <path class="cls-10" d="M69.75,84.99l1.66-.26c-.47,1.2-.92,1.31-1.66.26Z"/>
  <path class="cls-10" d="M58.14,77.54c.69-.37,1.92.89,1.66,1.1-.69.37-1.92-.89-1.66-1.1Z"/>
  <path class="cls-10" d="M84.11,73.12c-.06-.94-.21-1.29.82-1.1l.28.54c-.43.5-.45.48-1.1.56Z"/>
  <path class="cls-10" d="M85.19,64.83c-.01-.09-1.11-.81-.26-1.1,1.01-.18.88.16.82,1.1h-.56Z"/>
  <path class="cls-10" d="M78.02,132.19c.32-.43.48-.94,1.1-1.1.1.32.57.87.56,1.1-.56-.03-1.11.04-1.66,0Z"/>
  <path class="cls-10" d="M78.03,132.19c-.16.21-.37.38-.56.56-.21-.18-.4-.35-.56-.56.37.03.73-.03,1.1,0h.01Z"/>
  <path class="cls-10" d="M64.23,62.63c.6-.6,1.7.5,1.1,1.1s-1.7-.5-1.1-1.1Z"/>
  <path class="cls-10" d="M64.77,26.19c.6-.6,1.7.5,1.1,1.1s-1.7-.5-1.1-1.1Z"/>
  <path class="cls-33" d="M69.73,56c.01-.26-.76-1.03.56-1.66.03.18,0,.38,0,.56.28.43.43.82,0,1.1h-.56Z"/>
  <path class="cls-10" d="M65.87,52.69c-.03.73.28,1.83-.56,2.22.01-.56,0-1.1,0-1.66l.56-.56h0Z"/>
  <path class="cls-10" d="M50.43,17.35c.6-.6,1.7.5,1.1,1.1s-1.7-.5-1.1-1.1"/>
  <path class="cls-10" d="M79.15,120.06c.79.32,2.08.97,2.52,1.69.5.81-.29.94-.32,1.07-.65-.35-1.29-.92-1.66-1.66-1.03.6-1.35.29-.56-.56v-.56h.01Z"/>
  <path class="cls-10" d="M106.17,118.95c.22,1.47-.31.92-1.1,1.1-.13-1.17-.07-1.23,1.1-1.1Z"/>
  <path class="cls-10" d="M59.81,117.85c-.18.31-.06.53-.56.56-1.19-2.16-1.61-.92-3.32-1.66,2.11-.37,1.85-.79,3.86,1.1h.01Z"/>
  <polygon class="cls-10" points="38.28 109 38.84 107.36 39.38 107.36 39.38 109 38.28 109"/>
  <path class="cls-10" d="M95.69,100.73l.28-.54c1.03-.19.88.16.82,1.1-.48-.16-.69-.1-1.1-.56Z"/>
  <path class="cls-10" d="M53.71,129.43v1.1c-.75-.19-.92-1-1.1-1.1h.56c.19-.47.37-.47.56,0h-.01Z"/>
  <path class="cls-10" d="M87.96,72.02c-.16-1.16-.06-1.26,1.1-1.1l-1.1,1.1Z"/>
  <path class="cls-10" d="M55.4,70.36c.59-1.6,1.01-.54,1.1-.56-.16.56-.63.51-1.1.56Z"/>
  <path class="cls-10" d="M66.99,25.64v-1.66c.84.07.84,1.58,0,1.66Z"/>
  <path class="cls-10" d="M71.39,17.61l-.54.84c-1.35-.07-.03-1.03,0-1.1"/>
  <path class="cls-10" d="M69.73,59.87c1.23-.23,1.61.29.56,1.1-.13-.37-.44-.72-.56-1.1Z"/>
  <path class="cls-10" d="M63.66,60.42c-.75-1.1-.88-1.2.56-1.1-.22.65-.5.95-.56,1.1Z"/>
  <path class="cls-10" d="M69.75,58.76c-.01-.06-.38-.31-.56-1.1.66.21,1.35.7.56,1.1Z"/>
  <path class="cls-10" d="M92.92,57.09c-.35-.03-.73.03-1.1,0,.29-1.35,1.1-.54,1.1-.54v.56h0Z"/>
  <path class="cls-10" d="M118.87,54.34c-.13-1.17-.07-1.23,1.1-1.1-.13.6-.6.84-1.1,1.1Z"/>
  <path class="cls-10" d="M64.77,46.07c-.16-1.16-.06-1.26,1.1-1.1l-1.1,1.1Z"/>
  <path class="cls-10" d="M78.58,45.51c-.16-1.16-.06-1.26,1.1-1.1l-1.1,1.1Z"/>
  <path class="cls-10" d="M47.67,29.51c-.16-1.16-.06-1.26,1.1-1.1l-1.1,1.1Z"/>
  <path class="cls-10" d="M54.28,117.83c-.01-1.77.12-.81,1.1-1.1l-1.1,1.1Z"/>
  <path class="cls-10" d="M62.01,116.75v-.56c.45-.06,1.2-.06,1.66,0-.31.81-1.31.38-1.66.56Z"/>
  <path class="cls-9" d="M68.09,124.48c-.97.59-1.31.28-.56-.56-.47-.19-.47-.38,0-.56l.56-.56c-.43-.54-.97-.91-1.66-1.1-.54.82-1.32.89-2.22.56-.6-.66.04-1.54-.56-2.22,2.88.25,1.13-.84,1.66-2.22.04-.12,1.61-.91,1.66-1.66.89-.19,1.38.51,1.66.56-.43.1-1.51-.15-1.64,0-.1.12-.67,3.18-.56,3.3.25.26,3.12-.1,3.32,2.22-.79.5-1.48,1.31-1.66,2.22h0Z"/>
  <path class="cls-10" d="M70.86,116.73c-.84.32-1.42.13-2.22,0,.41-.1.79-.51,1.39-.5.51.01.67.45.81.5h.01Z"/>
  <path class="cls-10" d="M70.85,38.34c-.16-1.16-.06-1.26,1.1-1.1l-1.1,1.1Z"/>
  <path class="cls-10" d="M113.36,111.77c-.1-1.48-.03-1.26,1.1-.56-.18.67-.75.44-1.1.56Z"/>
  <path class="cls-10" d="M57.6,110.12l1.1,1.1c-1.16.16-1.26.06-1.1-1.1Z"/>
  <path class="cls-10" d="M118.31,107.36l-.28.54c-1.31.13-.76-.19-.26-1.1.19.12.45.38.56.56h-.01Z"/>
  <path class="cls-10" d="M52.92,103.49c.47-.07.26,1.1.26,1.1-.63.63-1.77-.23-.26-1.1Z"/>
  <path class="cls-10" d="M66.99,132.75c.22-.66.54-1.22,1.1-1.66v.56c-.19.59-.54.88-1.1,1.1Z"/>
  <path class="cls-10" d="M98.45,122.26c.81-.13.84-.06,1.1.56l-1.1-.56Z"/>
  <path class="cls-10" d="M77.48,120.05c.48-.03-.06-.26,1.1,0h-1.1Z"/>
  <path class="cls-10" d="M33.31,110.12c-.4-.78.35-1.48.54-1.1.4.78-.35,1.48-.54,1.1Z"/>
  <path class="cls-10" d="M89.62,104.59l.82-.54.28.54c-.19.1-.75-.06-1.1,0Z"/>
  <path class="cls-10" d="M77.48,101.28c-.4-.78.35-1.48.54-1.1.4.78-.35,1.48-.54,1.1Z"/>
  <path class="cls-10" d="M103.97,86.92v.56c-.09-.09-2.68-.26,0-.56Z"/>
  <path class="cls-10" d="M60.36,82.51c.78-.4,1.48.35,1.1.54-.78.4-1.48-.35-1.1-.54Z"/>
  <path class="cls-10" d="M67.53,79.75c.78-.4,1.48.35,1.1.54-.78.4-1.48-.35-1.1-.54Z"/>
  <path class="cls-10" d="M64.77,76.44c-.4-.78.35-1.48.54-1.1.4.78-.35,1.48-.54,1.1Z"/>
  <path class="cls-10" d="M80.79,74.78l-.56-.28v-.82c.01.06.78.54.56,1.1Z"/>
  <path class="cls-10" d="M61.46,73.94c-.54.25-2.19-.56-1.64-.82.81-.19,1.16.22,1.64.82Z"/>
  <path class="cls-10" d="M67.54,72.56c-.4-.78.35-1.48.54-1.1.4.78-.35,1.48-.54,1.1Z"/>
  <path class="cls-10" d="M53.18,70.36l.82-.54.28.54c-.35,0-.84.07-1.1,0Z"/>
  <path class="cls-10" d="M76.38,69.8c.28.15.92.5,1.1.56l-1.1-.56Z"/>
  <path class="cls-10" d="M44.9,68.15c.78-.4,1.48.35,1.1.54-.78.4-1.48-.35-1.1-.54Z"/>
  <path class="cls-10" d="M102.31,68.13l-.28.56c-.57-.06-.44-1.13.28-1.1.06.19-.09.47,0,.56h0Z"/>
  <path class="cls-10" d="M72.5,65.39c-1.36-.48-1.25-1.76-1.66-2.76.88.7,1.17,1.8,1.66,2.76Z"/>
  <path class="cls-10" d="M62.01,64.29c.04-.79.31-1.42,1.1-1.66-.4.79-.72,1.07-1.1,1.66Z"/>
  <path class="cls-10" d="M63.11,62.07l.56-1.1c-.23.56-.43.79-.56,1.1Z"/>
  <path class="cls-10" d="M74.7,62.63c-2.16-1.1-2.79-3.54-3.86-5.52-.31-.21-.31-.4,0-.56,1.41,2.02,2.29,4.09,3.86,6.07Z"/>
  <path class="cls-10" d="M79.68,60.42c.91.06.97.51,1.1.56l-1.1-.56Z"/>
  <path class="cls-10" d="M70.85,56h-.56v-1.1c.56.18.48.65.56,1.1Z"/>
  <path class="cls-10" d="M43.8,48.27c.78-.4,1.48.35,1.1.54-.78.4-1.48-.35-1.1-.54Z"/>
  <path class="cls-10" d="M68.09,48.83c.29-.85.76-.95,1.1,0h-1.1Z"/>
  <path class="cls-10" d="M119.71,45.5l-.28-.54c.34-.06.94.09,1.1,0l-.82.54Z"/>
  <path class="cls-10" d="M64.77,43.31c.78-.4,1.48.35,1.1.54-.78.4-1.48-.35-1.1-.54Z"/>
  <path class="cls-10" d="M31.65,35.58c.78-.4,1.48.35,1.1.54-.78.4-1.48-.35-1.1-.54Z"/>
  <path class="cls-10" d="M42.14,35.02c.78-.4,1.48.35,1.1.54-.78.4-1.48-.35-1.1-.54Z"/>
  <path class="cls-10" d="M50.97,33.92c.78-.4,1.48.35,1.1.54-.78.4-1.48-.35-1.1-.54Z"/>
  <path class="cls-10" d="M60.36,23.98c.78-.4,1.48.35,1.1.54-.78.4-1.48-.35-1.1-.54Z"/>
  <path class="cls-19" d="M68.09,18.46v-.56h.56c-.04.26-.29.48-.56.56Z"/>
  <path class="cls-10" d="M36.9,26.18c.35.19.35.37,0,.56v-.56Z"/>
  <path class="cls-10" d="M67.53,27.57l-.54.28v-.56l.54.28Z"/>
  <path class="cls-10" d="M51.25,31.15c.35.19.35.37,0,.56v-.56Z"/>
  <path class="cls-10" d="M73.88,32.25c.35.19.35.37,0,.56v-.56Z"/>
  <path class="cls-66" d="M76.1,33.92l.28.54c-.06.03-.56,0-.56,0,0,0,.28-.54.28-.54Z"/>
  <path class="cls-10" d="M58.42,38.32c.35.19.35.37,0,.56v-.56Z"/>
  <path class="cls-10" d="M63.39,46.61c.35.19.35.37,0,.56v-.56Z"/>
  <path class="cls-10" d="M64.22,58.77l.56-.56c-.1.4-.56.56-.56.56Z"/>
  <path class="cls-10" d="M70.85,62.09s-.29.19-.56-.56l.56.56Z"/>
  <path class="cls-10" d="M91.82,62.63l-.56-.56c.18.13.56.07.56.56Z"/>
  <path class="cls-10" d="M79.69,62.63c-.23-.13-.38-.44-.56-.56l.56.56Z"/>
  <path class="cls-10" d="M75.8,64.27l-1.1-1.1c.13.15,1.1,1.1,1.1,1.1Z"/>
  <path class="cls-10" d="M60.9,65.95l.56-.56c-.18.21-.37.4-.56.56Z"/>
  <path class="cls-10" d="M73.6,67.05c-.12-.19-.69-.34-1.1-1.1l1.1,1.1Z"/>
  <path class="cls-10" d="M75.26,69.26c-.92-.66-1-.82-1.66-1.66l1.66,1.66Z"/>
  <path class="cls-10" d="M110.6,72.58h-.56c.19-.19.37-.38.56-.56.03.12.03.44,0,.56Z"/>
  <path class="cls-10" d="M110.04,73.12c-.12.07-.38-.06-.56,0l.56-.56v.56Z"/>
  <path class="cls-10" d="M57.88,75.88c.35.19.35.37,0,.56v-.56Z"/>
  <path class="cls-10" d="M66.42,79.47l-.54.28v-.56l.54.28Z"/>
  <path class="cls-10" d="M82.99,90.24c-.09-.6.47-.48.56-.56l-.56.56Z"/>
  <path class="cls-19" d="M85.76,92.45l-.56-.56s.57.21.56.56Z"/>
  <path class="cls-10" d="M55.66,96.3c.35.19.35.37,0,.56v-.56Z"/>
  <path class="cls-10" d="M83.83,100.74l.28.54c-.07.04-.45.03-.56,0l.28-.54Z"/>
  <path class="cls-10" d="M47.39,103.49c.35.19.35.37,0,.56v-.56Z"/>
  <path class="cls-19" d="M119.71,109.56c.35.19.35.37,0,.56v-.56Z"/>
  <path class="cls-10" d="M67.81,112.87c.35.19.35.37,0,.56v-.56Z"/>
  <path class="cls-10" d="M34.13,115.63c.35.19.35.37,0,.56v-.56Z"/>
  <path class="cls-10" d="M76.38,118.95l-.56-1.1c1.54.59.62.85.56,1.1Z"/>
  <path class="cls-10" d="M80.78,123.92l.56-.56c-.09.18-.4.37-.56.56Z"/>
  <polygon class="cls-10" points="78.58 126.12 78.03 125.86 78.58 125.58 78.58 126.12"/>
  <path class="cls-19" d="M81.61,128.88c.35.19.35.37,0,.56v-.56Z"/>
  <path class="cls-10" d="M55.94,130.55l.56-.56c-.06.26-.31.53-.56.56Z"/>
  <path class="cls-10" d="M114.46,131.09l-.54-.28.54-.28c-.03.21.06.44,0,.56Z"/>
  <path class="cls-10" d="M63.11,132.21h-.56l.56-.56v.56Z"/>
  <path class="cls-10" d="M73.06,132.75c-.23-.07-.45-.56-.56-.56l.56.56Z"/>
  <path class="cls-10" d="M70.85,133.29c.21-.51.53-.95,1.1-1.1-.21.51-.53.95-1.1,1.1Z"/>
  <path class="cls-41" d="M66.15,132.21l.28.54c-.18.03-.37-.01-.56,0,0,0,.28-.54.28-.54Z"/>
  <path class="cls-10" d="M65.05,132.21l.28.54h-.56s.28-.54.28-.54Z"/>
  <path class="cls-10" d="M70.3,133.31l-.56-.56c.23.15.44.53.56.56Z"/>
  <path class="cls-10" d="M104,81.39c-1.01.92-2.14-2.52-2.2-3.08-.07-.69.89-5,1.1-5.19,1.06-.95,1.42,2.67,2.76,2.48l-1.67,2.22c2.42.87.21.57-.21,1.53s.26,1.99.19,2.07h.03Z"/>
  <path class="cls-10" d="M95.96,82.49c.35.19.35.37,0,.56v-.56Z"/>
  <path class="cls-10" d="M100.93,83.61c.35.19.35.37,0,.56v-.56Z"/>
  <path class="cls-10" d="M92.92,52.14c-.19.6-.47,2.13-.56,2.2-1.54,1.32-3.59-3.08-.81-3.32.09,0,.01.66,1.36,1.11h0Z"/>
  <path class="cls-10" d="M103.41,56c.21.16-2.05,2.79-2.76,2.2l.26-2.2h2.49Z"/>
  <path class="cls-10" d="M91.54,46.08c1.57-.09,2.44,1.29,1.38,2.19-1.14.98-1.61-2.11-1.38-2.19Z"/>
  <polygon class="cls-10" points="97.9 64.29 97.9 62.07 98.44 62.07 99 64.29 97.9 64.29"/>
  <path class="cls-10" d="M94.02,58.77c.62.62-.51,1.69-1.1,1.1s.48-1.72,1.1-1.1Z"/>
  <path class="cls-10" d="M101.2,60.7l-1.38,1.38c-.47.07-.26-1.1-.26-1.1.06-.06,1.35-.38,1.64-.28Z"/>
  <path class="cls-10" d="M88.79,47.71c.6.04-.01.82-.28.56-.12-.13.09-.56.28-.56Z"/>
  <path class="cls-10" d="M90.44,55.44c.35.19.35.37,0,.56v-.56Z"/>
  <path class="cls-10" d="M95.42,59.32c.35.19.35.37,0,.56v-.56Z"/>
  <path class="cls-10" d="M84.09,136.07c-.16-1.16-.06-1.26,1.1-1.1l-1.1,1.1"/>
  <path class="cls-10" d="M76.64,17.91c.35.19.35.37,0,.56v-.56Z"/>
  <path class="cls-61" d="M68.07,124.48c-.03.22,1.23,1.67-.56,2.51-1.2.56-2.23-.4-3.3.25.13-.35.7-.98.56-1.1-3.42-.45-2.63-1.63,0-2.77.89.85-.38,1.06.03.53.44-.57,1.7-.59,2.17.01.22-.47.4-.48.56,0,.01.16.41.4.56.56h-.01Z"/>
  <path class="cls-11" d="M53.18,124.45c-2.04-.34-3.36-1.33-2.64-3.49.22-.66.94-.84.98-.92,1.17.07.6,1.51.69,1.58.28.22.88-.01.97.07.59.65,1.11,1.53,1.66,2.22.28,1.51-1.01,1.69-1.66.56h0Z"/>
  <path class="cls-34" d="M62.59,131.09c-1.42.97-2.9.45-4.4-.03-.57-1.28.94-2.27,1.09-2.74.65-1.29.94-1.51,1.1,0,.23,3.54,1.76,1.31,2.2,1.66.15.12-.12.88,0,1.11h.01Z"/>
  <path class="cls-20" d="M56.47,127.76c-.12.53-.57.79-1.1.56-1.61-.06-2.08-1.61-.56-2.22.19-.48.37-.48.56,0h.56c.4.16.73.26,1.1,0,.19-1.09,1.42-.84,2.22-.56h.56c.6.32.18,1.55,1.66.56.26.4-.72,1.95-1.1,2.22-.15.1-.78-.07-1.1,0,.09-.26-.04-.75,0-1.1q.15-.11,0,0c-1.25-.28-1.77.12-2.76.56h-.03Z"/>
  <path class="cls-54" d="M55.96,120.6c-.07-.18-.53-.38-.56-.56-.13-.65.07-1.53,0-2.22.09-.16,3.42.59,3.86.56.07.13-.06.38,0,.56-1.53,2.24-2.63,2.79-3.32,1.66h.01Z"/>
  <path class="cls-62" d="M58.14,121.72c.88,1.44.87,2.29-.56,1.1-.98-1.04-.95-.5-1.66-2.22l3.32-1.66c.12.34.73.97.56,1.1-2.66.18-1.79.38-1.66,1.66h0Z"/>
  <path class="cls-45" d="M52.1,126.68c-.16-.37-.43-.72-.56-1.1.53-.03,1.13-.04,1.66,0-.09-.28.06-.75,0-1.1.25.04,1.54-.56,1.66-.56.98.09,1.83.26,2.76.56.34.88-.41,1.44-2.22,1.66h-.56c-.32.95-.87.76-1.66-.56,2.63,1.44-.01,3.4-1.1,1.1h.01Z"/>
  <path class="cls-2" d="M57.04,126.1c-.38.29-.72.18-1.1,0h-.56l2.22-1.66c.35.12.73.4,1.1.56l.56.56c-.4.85-1.5.51-2.22.56h0Z"/>
  <path class="cls-27" d="M66.97,123.93l-2.76.54.56-1.1c.23-.1.41-.37.56-.56.21-.48.4-.48.56,0,1.47-.95,2.23-.34,1.1,1.1h-.01Z"/>
  <path class="cls-25" d="M57.58,122.82c.56.04.6-.69.56-1.1.48.48,2.14,2.24,1.66,2.76-.56.59-1.67-1.1-2.2-1.66h-.01Z"/>
  <path class="cls-50" d="M65.33,122.83c-.23-.15-.44.16-1.1-.56.67-.25,1.61-.28,2.22-.56.98.7.5,1.73-.56,1.1-.18-.07-.43.07-.56,0h0Z"/>
  <path class="cls-49" d="M59.81,125.58h-.56l-.56-.56c.44.21.69.34,1.1.56h.01Z"/>
  <path class="cls-17" d="M60.36,125.02c-.4-.78.35-1.48.54-1.1.4.78-.35,1.48-.54,1.1Z"/>
  <path class="cls-47" d="M77.46,123.35c-.22-.38.25-1.04-1.1-1.38.73-.92,1.51-1.54,2.76-1.38.07.32.34.4.56.56.92.57,1.53,1.47.56,2.22-.66.7-1.13,1.42-2.2,1.66.13-.7-.23-1.11-.56-1.66h-.01Z"/>
  <path class="cls-36" d="M69.73,130.53c.26-.18.26-.35,0-.56-.04-.18.04-.38,0-.56l2.76.56c.21-.29.4-.29.56,0,.19.38.19,1.14.56,1.66-.84-.44-3.15.62-3.32.56-.23-.07-.48-1.26-.56-1.66Z"/>
  <path class="cls-5" d="M70.27,122.26c.23-.89-.54-2.26.84-1.16.25-.01.32-.25.28-.5,3.64-.51-.41,2.96-1.38,3.32-.87-.43.18-1.25.28-1.66h-.01Z"/>
  <path class="cls-58" d="M69.75,128.91c-.03-.13-1.8-.6-.4-2.08.26-.26.82-.06.95-.13,1.44.19,1.8.56,1.1,1.1.29,2.01-.69.37-1.66,1.1h0Z"/>
  <path class="cls-15" d="M73.06,126.12c-.67,1.36-1.53,1.42-2.76.56.15-.1.25-.81.92-1,1.03-.28,2.3.07,2.93-.12v.56c-.25.78-1.06.82-1.1,0h0Z"/>
  <path class="cls-6" d="M74.7,120.6c.16,2.02-1.57,1.51-1.1-.56.25.16.94.56,1.1.56Z"/>
  <path class="cls-48" d="M65.33,131.09c-.29.04-.95.78-1.1.56l.54-2.22c.06.16-.06.4,0,.56.15.38.41.72.56,1.1h0Z"/>
  <path class="cls-6" d="M73.88,122.26c.35.19.35.37,0,.56v-.56Z"/>
  <path class="cls-32" d="M71.67,123.9c.35.19.35.37,0,.56v-.56Z"/>
  <path class="cls-10" d="M109.76,96.3c.35.19.35.37,0,.56v-.56Z"/>
  <path class="cls-10" d="M90.72,102.38c-.4-.78.35-1.48.54-1.1.4.78-.35,1.48-.54,1.1Z"/>
  <path class="cls-10" d="M92.1,100.18c-.6-.04.01-.82.28-.56.12.13-.09.56-.28.56Z"/>
  <path class="cls-16" d="M78.58,69.79c-2.45-.43-5.21-4.08-6.06-6.35l3.86,1.39c3.07,2.01,3.1.65,4.42-1.66.28-.48-.51-.95,1.1-1.1.5.66,1.31,1.19,1.53,2.05.91,3.55-1.14,6.32-4.84,5.68h0Z"/>
  <path class="cls-33" d="M70.85,57.12c-.03-.06-1.13-.26,0-.56v.56Z"/>
  <path class="cls-46" d="M76.36,131.08c-.18,0-.38.01-.56,0-.23-.48-.6-.85-1.1-1.1-.63-.31-1.75-.43-1.66-1.1,1,.41,3.37-.31,3.7-1.23.1-.25-.48-.89-.38-.97.21-.16,3.14.72,3.87,0-.15,1.2-.66,2.04-1.66,1.1.73,2.63-2.35,1.14-2.22,3.32h0Z"/>
  <path class="cls-37" d="M71.42,127.78c-.07-.03-1.14-.81-1.1-1.1.97.07,1.83-.43,2.76-.56-.28.67.09.87,1.1.56.1.37.91.75.54,1.66-.89-.44-2.66-.31-3.32-.56h.01Z"/>
  <path class="cls-44" d="M81.33,122.82c-.32.18-.88.32-1.1.56l-.56-2.22c.5.37,2.02.06,1.66,1.66h0Z"/>
  <path class="cls-42" d="M73.88,127.22h-1.38l.56-1.1c.35-.06.75.03,1.1,0,.03.18-.04.4,0,.56,0,0-.28.54-.28.54Z"/>
  <path class="cls-10" d="M72.8,129.52c.22.09.19.31.26.47h-.56l.29-.47Z"/>
  <path class="cls-10" d="M111.7,102.4c.57-.28,1.39.28,1.1.54-.43.41-1.61-.29-1.1-.54Z"/>
  <path class="cls-10" d="M109.48,82.51v.54c-2.3.28-2.3-.82,0-.54Z"/>
  <path class="cls-10" d="M110.32,83.05c.35.19.35.37,0,.56v-.56Z"/>
  <path class="cls-21" d="M52.61,63.73c.13.22.43.37.56.56.67.97.47,1.89,2.02,2.07.38.04.67-.41.73-.41h.56c2.32-1.83,3.42-2.01,3.32-.56-.06.18.04.38,0,.56-.91.09-1.92,2.71-3.61,1.11.84,1.51-3.37,2.51-4.09,1.61-.06-.06.54-.7.37-.95-.12-.16-.91-.03-.94-.45-.03-.35.56-.84.41-1.23-.06-.18-2.95-1.23.69-2.3h-.01Z"/>
  <path class="cls-21" d="M52.64,63.19l-.56-.56c.62-.07.47.38.56.56Z"/>
  <path class="cls-10" d="M60.36,66.5l-.56-.56c.47-.04.47.22.56.56Z"/>
  <path class="cls-10" d="M79.95,54.34l-.26-1.66c1.2.47,1.31.92.26,1.66Z"/>
  <path class="cls-10" d="M82.71,51.59c.35.19.35.37,0,.56v-.56Z"/>
  <path class="cls-52" d="M59.81,65.37c-2.35-1.17-1.67.56-2.26,1.09-.21.19-.87-.53-1.06-.53,1.69-1.61,4.33-3.51,5.52-5.52,1.13,1.2-1.88,3.92-2.22,4.97h.01Z"/>
  <path class="cls-10" d="M98.17,100.17c.35.19.35.37,0,.56v-.56Z"/>
  <path class="cls-67" d="M66.99,131.09c.18.82-.53.57-1.35.51l-.31-.51c.53-.07,1.11.03,1.66,0Z"/>
  <path class="cls-10" d="M70.29,130.27l-.54.28c-.04-.19.04-.4,0-.56.13.07.45-.09.54.28Z"/>
  <path class="cls-10" d="M83.27,35.02c.35.19.35.37,0,.56v-.56Z"/>
  <path class="cls-10" d="M87.41,43.31s-.56,1.1-.56,1.1c-1,.34-.6-2.05.56-1.1Z"/>
  <path class="cls-10" d="M107,43.3c.35.19.35.37,0,.56v-.56Z"/>
  <path class="cls-10" d="M73.62,132.75c1.13-1.51-.97-3.14,1.1-2.76.43.21,1.42-.48,1.1,1.1-.29-.03-.94-.78-1.1-.56,0,.88-.13,2.02-1.11,2.22h.01Z"/>
  <path class="cls-10" d="M98.17,41.64c.35.19.35.37,0,.56v-.56Z"/>
  <path class="cls-14" d="M55.38,128.88c-.72.34-.69.45-1.66.56-.19.01-.38-.01-.56,0,.01-.82-.32-1.39-1.1-1.66-.4-.59-2.35-1.14,0-1.11h1.66c.19-.15-.45-.78-.56-1.1.89.07,1.57.56,1.66.56l.56,2.22c.47.22.48.4,0,.56h0Z"/>
  <path class="cls-7" d="M55.38,128.91v-.56c.25-.47.75-.4,1.1-.56.18,1.36-.67.89-1.1,1.1h0Z"/>
  <path class="cls-10" d="M108.66,59.86c.35.19.35.37,0,.56v-.56Z"/>
  <path class="cls-10" d="M95.42,109c.6.04-.01.82-.28.56-.12-.13.09-.56.28-.56Z"/>
  <path class="cls-24" d="M65.32,49.93c.1-.41-.26-1.11.28-1.11.51,0,.25.73.28,1.11h-.56Z"/>
  <path class="cls-31" d="M55.66,61.53c-.6-.04.01-.82.28-.56.12.13-.09.56-.28.56Z"/>
  <path class="cls-63" d="M67.53,123.35c-.03.16-.01.4,0,.56h-.56c-.21-.53-.57-.89-1.1-1.1l.56-1.1c.21-.09.91-2.16,1.95,0,.22.43-.07.76-.29,1.1l-.56.56h0Z"/>
  <path class="cls-29" d="M67.53,123.38c.06-.25.34-.44.56-.56-.15.22-.35.4-.56.56Z"/>
  <path class="cls-38" d="M56.76,126.66l-.82-.54c.35.01.75.03,1.1,0l-.28.54Z"/>
  <path class="cls-35" d="M59.54,126.68c.6.04-.01.82-.28.56-.12-.13.09-.56.28-.56Z"/>
</svg>