<?xml version="1.0" encoding="UTF-8"?>
<svg id="Livello_1" data-name="Livello 1" xmlns="http://www.w3.org/2000/svg" viewBox="0 0 141.73 141.73">
  <defs>
    <style>
      .cls-1 {
        fill: #c0bcb6;
      }

      .cls-2 {
        fill: #b6a39c;
      }

      .cls-3 {
        fill: #ded5cf;
      }

      .cls-4 {
        fill: #af9e95;
      }

      .cls-5 {
        fill: #977a6b;
      }

      .cls-6 {
        fill: #a87f75;
      }

      .cls-7 {
        fill: #9e8a84;
      }

      .cls-8 {
        fill: #988a7d;
      }

      .cls-9 {
        fill: #cdc2bd;
      }

      .cls-10 {
        fill: #b6a9a1;
      }

      .cls-11 {
        fill: #9f948b;
      }

      .cls-12 {
        fill: #cdcdc9;
      }

      .cls-13 {
        fill: #ccbab3;
      }

      .cls-14 {
        fill: #b7aaa4;
      }

      .cls-15 {
        fill: #dbdcd9;
      }

      .cls-16 {
        fill: #98887d;
      }

      .cls-17 {
        fill: #d7c6c2;
      }

      .cls-18 {
        fill: #a28e86;
      }

      .cls-19 {
        fill: #aa9a8f;
      }

      .cls-20 {
        fill: #9e897d;
      }

      .cls-21 {
        fill: #9b8d80;
      }

      .cls-22 {
        fill: #bfaca5;
      }

      .cls-23 {
        fill: #af9891;
      }

      .cls-24 {
        fill: #b2a297;
      }

      .cls-25 {
        fill: #fefefe;
      }

      .cls-26 {
        fill: #af8379;
      }

      .cls-27 {
        fill: #b7aea5;
      }

      .cls-28 {
        fill: #92857a;
      }

      .cls-29 {
        fill: #beb0aa;
      }

      .cls-30 {
        fill: #d4d0c9;
      }

      .cls-31 {
        fill: #9d8f86;
      }

      .cls-32 {
        fill: #aca097;
      }

      .cls-33 {
        fill: #a69288;
      }

      .cls-34 {
        fill: #fff;
      }

      .cls-35 {
        fill: #fbfbfb;
      }

      .cls-36 {
        fill: #beb4ac;
      }

      .cls-37 {
        fill: #896a5a;
      }

      .cls-38 {
        fill: #99867a;
      }

      .cls-39 {
        fill: #957667;
      }

      .cls-40 {
        fill: #b4b5ae;
      }

      .cls-41 {
        fill: #e2f2f3;
      }

      .cls-42 {
        fill: #99776c;
      }

      .cls-43 {
        fill: #b1a79d;
      }

      .cls-44 {
        fill: #a0978b;
      }

      .cls-45 {
        fill: #d7ccc7;
      }

      .cls-46 {
        fill: #ae9e95;
      }

      .cls-47 {
        fill: #987c6d;
      }

      .cls-48 {
        fill: #dee4e1;
      }

      .cls-49 {
        fill: #a9837b;
      }

      .cls-50 {
        fill: #9d8178;
      }

      .cls-51 {
        fill: #f9f9f8;
      }

      .cls-52 {
        fill: #cfc3be;
      }

      .cls-53 {
        fill: #a9958e;
      }

      .cls-54 {
        fill: #b2958b;
      }

      .cls-55 {
        fill: #947b6f;
      }

      .cls-56 {
        fill: #9b877c;
      }

      .cls-57 {
        fill: #afa89e;
      }

      .cls-58 {
        fill: #e2dfdd;
      }

      .cls-59 {
        fill: #fbfaf9;
      }

      .cls-60 {
        fill: #a6978e;
      }

      .cls-61 {
        fill: #9b8473;
      }

      .cls-62 {
        fill: #ac9891;
      }

      .cls-63 {
        fill: #947869;
      }

      .cls-64 {
        fill: #cec7c3;
      }

      .cls-65 {
        fill: #9b8d7e;
      }

      .cls-66 {
        fill: #c7beb9;
      }

      .cls-67 {
        fill: #d0c2bd;
      }

      .cls-68 {
        fill: #958178;
      }

      .cls-69 {
        fill: #876a5e;
      }

      .cls-70 {
        fill: #cfc3bd;
      }

      .cls-71 {
        fill: #917768;
      }

      .cls-72 {
        fill: #d0c6c1;
      }

      .cls-73 {
        fill: #ad8f87;
      }

      .cls-74 {
        fill: #ac9387;
      }

      .cls-75 {
        fill: #c1b2aa;
      }

      .cls-76 {
        fill: #b7a79f;
      }

      .cls-77 {
        fill: #b6ada5;
      }

      .cls-78 {
        fill: #ab827a;
      }

      .cls-79 {
        fill: #cec8c4;
      }

      .cls-80 {
        fill: #d5cdc8;
      }

      .cls-81 {
        fill: #b29f97;
      }

      .cls-82 {
        fill: #947b6b;
      }

      .cls-83 {
        fill: #c1b7b1;
      }

      .cls-84 {
        fill: #d2cbc6;
      }

      .cls-85 {
        fill: #967c6e;
      }

      .cls-86 {
        fill: #9f6e64;
      }

      .cls-87 {
        fill: #d9d5d1;
      }

      .cls-88 {
        fill: #f2ebe9;
      }

      .cls-89 {
        fill: #c3bbb4;
      }

      .cls-90 {
        fill: #a19487;
      }

      .cls-91 {
        fill: #8d766a;
      }

      .cls-92 {
        fill: #c0b8b2;
      }

      .cls-93 {
        fill: #b2aaa3;
      }

      .cls-94 {
        fill: #c6bab4;
      }

      .cls-95 {
        fill: #bcb8b1;
      }

      .cls-96 {
        fill: #bba8a0;
      }

      .cls-97 {
        fill: #c6bab3;
      }

      .cls-98 {
        fill: #cec2bc;
      }

      .cls-99 {
        fill: #a7827a;
      }

      .cls-100 {
        fill: #a49d91;
      }

      .cls-101 {
        fill: #eae7e4;
      }

      .cls-102 {
        fill: #8b6c5c;
      }

      .cls-103 {
        fill: #95766c;
      }

      .cls-104 {
        fill: #d8bfbc;
      }

      .cls-105 {
        fill: #ccc4be;
      }

      .cls-106 {
        fill: #816d61;
      }

      .cls-107 {
        fill: #b1887a;
      }

      .cls-108 {
        fill: #967f79;
      }

      .cls-109 {
        fill: #aca499;
      }

      .cls-110 {
        fill: #a28b80;
      }

      .cls-111 {
        fill: #bfb7b1;
      }

      .cls-112 {
        fill: #a39d92;
      }

      .cls-113 {
        fill: #cec9c4;
      }

      .cls-114 {
        fill: #a28b84;
      }

      .cls-115 {
        fill: #f6f6f5;
      }

      .cls-116 {
        fill: #b4aba3;
      }

      .cls-117 {
        fill: #8f796d;
      }

      .cls-118 {
        fill: #b5a79f;
      }

      .cls-119 {
        fill: #b4aba1;
      }

      .cls-120 {
        fill: #957c72;
      }

      .cls-121 {
        fill: #b7b3aa;
      }

      .cls-122 {
        fill: #b3a89e;
      }

      .cls-123 {
        fill: #b4a69e;
      }

      .cls-124 {
        fill: #99847b;
      }

      .cls-125 {
        fill: #b09d94;
      }

      .cls-126 {
        fill: #a1948a;
      }

      .cls-127 {
        fill: #b8a29b;
      }

      .cls-128 {
        fill: #b19991;
      }

      .cls-129 {
        fill: #ac9d96;
      }

      .cls-130 {
        fill: #8a6a5a;
      }

      .cls-131 {
        fill: #c6b9b1;
      }

      .cls-132 {
        fill: #d3d5d0;
      }

      .cls-133 {
        fill: #d8c2be;
      }

      .cls-134 {
        fill: #dad7d3;
      }

      .cls-135 {
        fill: #cbbcb5;
      }

      .cls-136 {
        fill: #d2c8c3;
      }

      .cls-137 {
        fill: #9c7f73;
      }

      .cls-138 {
        fill: #926f66;
      }

      .cls-139 {
        fill: #ded9d6;
      }

      .cls-140 {
        fill: #ba9085;
      }

      .cls-141 {
        fill: #b2a295;
      }

      .cls-142 {
        fill: #b8afa6;
      }

      .cls-143 {
        fill: #ac988e;
      }

      .cls-144 {
        fill: #cec2bd;
      }
    </style>
  </defs>
  <path class="cls-25" d="M58.75,69.96c1.22,1.13,2.38,2.51,3.45,3.45-.73-.05-1.5-.43-2.31-1.15l-.58-.58c-.64-.69-.84-1.27-.58-1.73h.02Z"/>
  <path class="cls-25" d="M70.84,79.73l-3.04-1.12c-1.85.26-2.55-.14-2.14-1.18-1.09-.95-1.47-1.73-1.15-2.31,1.04.72,1.74,1.83,2.87,1.73.11-.09-1.47-1.94-1.73-2.29.99.15,2.08.89,3.26,2.19,2.08.15,5.01,4.63,1.91,3l.02-.02Z"/>
  <path class="cls-25" d="M61.6,92.96c-2.02,2.93-2.81-.08-3.03-2.2-3.56,1.38-4.72.95-3.48-1.3l-.4-1.1c-.24.47-.44.49-.58,0-.47.35-.86.73-1.15,1.15-.18-.03-.43-.55-.58-.58-.66-.55-1.42-.55-2.31,0-.18-.06-.46.09-.57-.29-.28-.72,2.28-2.23,2.87-3.16-.5-.21-.5-.4,0-.58.81-.75,2.6-1.77,3.45-1.15v-.58c-1.22.7-2.17.89-2.87.58-.76,1.1-2.28,1.71-3.45,1.15-.14.67-.47.96-1.15,1.15-.24.05-.84.44-1.73.58-1.21-.43-2.17-.61-2.87-.58.05.35-.15.53-.58.58-.08.02-.14.89-1.15.57.32-1.86,2.61-3.03.58-4.02-.15-.28-.35-.28-.58,0-.44-.2-.79-.43-1.15-.58-.34-.81.34-1.57,1.15-1.15.06-.55-.32-.73-1.15-.58.5.87-.32,1.48-1.15,1.15-1.12-.99,1.54-2.11,1.73-2.87l-2.29-1.16c-.02-1.5,1.48-2.49,2.87-1.73l.2-.83c3.65.37,4.74-.32,3.26-2.05-.5-.26-.52-.44,0-.58-.55-1.12.43-1.21,1.47-1.16,2.46.12,3.53-.11,1.54-2.22.09-.4.55-.58,1.01-.64,2.02-.67,1.6-1.83,2.31-2.31,1.02,1.22,1.21,1.99.58,2.31.15,2.02.92-.26.58-1.15h.58c-.43-.61-.14-1.07.58-1.15.37.05.86-.09,1.15,0v.58c1.47,1.44,2.81,2.96,4.02,4.6l.58.58c2.11,1.42,4.05,3.26,5.75,5.18.57,1.12.57,1.88,0,2.31.17.95.18,1.97,0,2.87,1.21.37,1.59,1.13,1.15,2.31-.92,1.02-.92,1.59,0,1.73.23-.49.41-.49.58,0l1.15-.58c.98-.58,1.3-.28.58.58.34.09.92-.11,1.73-.58,1.53-2.74,3.59,1.85.58,1.15-.92,1.19-1.88,2.15-2.87,2.87.11,1.57-.28,2.34-1.15,2.31-.06-.47-.05-.92-.58-1.15.67-1.76.08-1.15-1.79,1.83l-1.09-.69c-.2.35-.4.37-.58,0-.58.61-1.39,1.45-1.73.58h-.03Z"/>
  <path class="cls-25" d="M109.96,83.73c-.38,1.34-2.93,1.31-4.25,1.12-2.66-1.41-4.49-1.77-5.53-1.12-.38-.17-.4-.26-.58-.58-.89-.69-1.45-.69-1.73,0-1.15,0-2.32-.09-3.45,0-.43-.61-1.19-.73-2.29-.35-3.76,2.38-4.48-1.53-1.16-2.52.31-.24.32-.44,0-.58-.46.41-1.04.41-1.73,0-.67.63-2.12.14-1.15-.58,0-.73.2-1.31.58-1.73.18-.58.57-.95,1.15-1.15.58.14-.02.79,0,.75.53-1.3,2.29-2.75,3.44-3.62.78-2.6,4.17-6.39,6.91-6.91.6-.84,1.68-.32,1.15.58.43,1.21,1.76,1.68,3.94,1.42-1.31,3.26-1.47,4.13-.5,2.61.58-.43,1.12-.37,1.73,0,1.68-1.79,3.44,1.18,1.15,1.73-.32.69-.15.87.58.58.26-.37.44-.38.58,0,2.52-.7,8.1-1.15,4.6,2.31-.17.32-.5.46-.58.58-.57.23-.75.43-.58.58.37,1.51,4.11,2.26,2.31,3.45-.75-.64-1.31-.84-1.73-.58-.76,1.07-4.39,2.57-5.06,1.64-.09-.12,2.35-.12,2.77.09-.52,1.36,1.42,1.24,1.71,2.08.2.58-.57.81-.57.81l-1.73-.58.03-.03Z"/>
  <path class="cls-25" d="M84.05,49.27l1.15,1.15c-.35.35-.73.17-1.15-.58v-.58.02Z"/>
  <path class="cls-25" d="M71.97,53.84c-1.04-.49-2-.49-2.87,0-.98-.24-1.6-1.56-1.13-2.28.14-.21,2.92-.87,3.42-1.18.03.21.05.43-.05.58-.57,1.02,1.22-.75.05-.58,2.03-1.25,2.32-3.68,4.02-5.18,0,.66.18,1.24.58,1.73.79-.57.99-.58.79.21-.05.18-.21-3.24.93-.78.2.47.38.47.58,0-.49-.23-.5-.41,0-.58.89-1.6,1.68-1.21,1.73.58q-.23.45,0,0c-1.3-.84-2.31-3.99-.58-4.6.76,1.19.76,2.4,1.41,3.5.76,1.31,1.77,2.72,2.63,3.99l.58.58c.72.58,1.3,1.16,1.73,1.73.44,1.02-1.1,1.74-1.73,1.15-.81.31-1.76.12-2.31-.58-.87-1.36-2.03-.96-3.45,1.15-.21.5-.41.5-.58,0-.99-.2-1.96-1.16-2.87-2.87.08,1.16-.31,1.73-1.15,1.73.49.24.5.43,0,.58-.2.55-.58.93-1.15,1.15-.09.06-.37-.03-.58,0v-.02Z"/>
  <path class="cls-55" d="M81.16,107.34l-.58,1.73c-1.51,1.36-1.56-.52-1.15-1.73-.57-1.19-1.22-1.79-1.99-1.8-.08-2.41-1.54-5.3-3.19-7.4-.03-.2.03-.4,0-.58-.43-.86-.58-2.23,0-2.87-1.77,2.06-3.22-2.8,0-1.73,1.1.64,1.1,1.21,0,1.73.26-1.59.87-2.12,1.73-.58l.58.58c.21-.5.4-.5.58,0,.83.63,1.07.95,0,1.15l1.48.7c.86,2.32,1.7,4.39,2.55,6.2.26.43-.08.98-.58,1.15l.58,2.87c0,.2.02.4,0,.58h-.02Z"/>
  <path class="cls-35" d="M74.3,94.71c.87.72-.03,2.69,0,2.87-.96-.29-.99-2.14-1.16-2.31-.18-.18-.92.58-1.15.58-.72-.9-1.48-1.68-2.31-2.31-1.85,1.62-2.45-1.53-.58-2.31-.37-.2-.37-.4,0-.58-.11-1.13,1.18-2.67,2.31-2.87.43-1.3,1.38-1.12,2.87.58.41.67.41,1.64,0,2.87.83.31.84,1.45,0,1.73-2.28,2.45-.38,1.41,0,1.73l.02.02Z"/>
  <path class="cls-98" d="M88.65,87.83c-1.47-.32-3-1.97-2.87-3.45-.49-.23-.5-.41,0-.58-.03-.44.21-.5.58-.58,2.09-.64,2.48-1.04,1.15-1.15-.5-.2-.5-.4,0-.58l.58-.58c-.49-.23-.5-.41,0-.58.89-.12,1.28-.31,1.15-.58.09.02.4-.49.86-.5.43-.03.79.5.87.5.38.21.4.41,0,.58-.47.43.14,1.3-.11,1.6-.28.35-1.28-.26-1.04.69.58.83,6.43-1.9,4.6.58-.72.06-1.71-.14-2.31,0l-.58.58c.02.6-.57.98-1.73,1.15.31,1.16-1.39.58-1.3.58,5.75.35,2.63,5.65.15,2.29v.03Z"/>
  <path class="cls-70" d="M67.97,129.24c-.84-.09-.69-.18-1.15-.58v-.58c0-.2.03-.4,0-.58.28-.17.28-.35,0-.58-.53-.23-2.11.17-2.87,0l-.58-.58c-.18-.08-.49.09-.58,0l-.58-.58c.06-.35-.09-.84,0-1.15l1.42-1.21c-.89-.72-.6-1.09.87-1.1.86-1.04,4.98-1.13,4.6.58-.99.95-2.34,1.53-4.02,1.73.61,1.02,3.76.7,5.03,0,1.16.06,1.57.53,1.3,1.73.26,1.36-.89,2.32-3.45,2.87l.02.03Z"/>
  <path class="cls-121" d="M78.85,121.72c-1.94,1.42-2.9,1.22-2.87-.58-.18-.38.02-.76.58-1.15-.15-1.12,1.5-1.04,2.31-.58l.58-.58c-.41-.15-.76-.26-1.15,0-1.83.63-3.64,1.15-5.43,1.56-.52,1.85-3.41,2.98-3.77.75-1.77-1.19-2.95-2.87,0-3.45.18-.03.4,0,.58,0,.6.43,1.15.4,1.73,0,2.74,0,5.98-.26,8.62,0,.7.15,1.07.41,1.15,1.15v.58c-.18.84-.98,1.18-2.38,1.01l.09.72c.49.23.5.41,0,.58h-.03Z"/>
  <path class="cls-25" d="M78.87,107.34c-.95-2.92-1.31-1.1-3.74-1.1-3.99.02-7.46-4.84-2.87-5.81l-.29,2.31c-.79-1.19-.92-.15,0,.58,1.05.2,3.03,2.08,5.18,1.15-.75-1.91-2.54-4.36-2.87-6.33,1.39-.31,1.19.7,1.62,1.51,1.51,2.8,2.4,4.77,3.56,7.69-.23.49-.41.5-.58,0Z"/>
  <path class="cls-25" d="M72.54,129.78c-.69,1.25-2.32.31-2.89-.58v-.66c2.51-.24,4.81-.4,6.92-.49-.73-2.4,3-2.74,3.45-1.15,4.4,3.68-5.18,3.07-7.47,2.87h-.02Z"/>
  <path class="cls-34" d="M123.99,82.63l-.83-7.49c3.84-.29,1.16,2.46,1.77,4.23.26.76,1.39.79,1.54,1.04.95,1.56-.87,3.94-2.49,2.22Z"/>
  <path class="cls-10" d="M72.57,64.19c-.92.53-.98.35-1.15-.58-.12-.87.28-2.03,1.15-3.45.05-2.11-.03-4.22,0-6.33.14-.11-.37-1.65,1.15-1.15l.58,2.31c.37.29.4.5,0,.58-.49.98.15,3.85-.08,2.02l.64.29c.49.23.5.41,0,.58,2.19-.61-.93,6.13-1.31,6.13l-.99-.38.02-.02Z"/>
  <path class="cls-110" d="M76.6,128.07c-.26.37-.46.4-.58,0-.89-.57-1.02-.92-.79-1.77.17-.63,2.64-3.84,3.09-2.26,2.28-.86,10.16-.2,5.75,2.87h-.58c-1.1.05-2.35.08-3.45,0-1.59-.11-2.75-1.94-3.45,1.15l.03.02Z"/>
  <path class="cls-66" d="M61.05,94.72l-1.15.58c-.32-.05-.43-.46-.58-.58l-1.15-1.73c-.03-.18,0-.4,0-.58v-.58c.29-.43.11-.43-.58,0-1.09.44-2.29.89-3.45.58l-.58-1.15c-.05-.15,0-.38,0-.58.02-.38.21-.58.58-.58.14-.69.32-1.25.58-1.73.35.06.78-.05,1.15,0l-.57,2.29c.86.35,3.13-.61,3.48-.34,1.31,1.07-.55,3.84,2.84,2.63.86.11.58.84,0,1.15-.2.09-.38.5-.58.58v.03Z"/>
  <path class="cls-34" d="M105.32,102.74c-.24-1.12-.43-1.12-.58,0-.37-.05-.79.06-1.15,0l-1.73.58c-1.76,0-1.47-1.99-1.15-2.29.09-.08,1.7.05,2.43-.15.55-.15,1.04-.84,1.44-.92,1.1-.2,4.37,3.09,1.6,3.93-.4-.31-.61-.73-.86-1.15h-.02Z"/>
  <path class="cls-136" d="M45.55,73.98c-1.19,1.25-3.15-1.36-1.73-2.31.12-.08.4.08.58,0l1.15-.58c.53-.03,1.22-.06,1.73,0,.63-.37,1.01-.08,1.15.58.47-.5.26-1.82,0-1.15-.23.49-.43.49-.58,0-.21-.15-.47-.34-.58-.58-.06-.55.32-.93,1.15-1.15.31-.11.84.11,1.15,0l1.15,4.02c-.38.35-3.97-1.45-5.18,0q-.11-.15,0,0c-.09.11.08.4,0,.58.23.2.23.4,0,.58h.03Z"/>
  <path class="cls-25" d="M62.21,124.61c.15-.5.78-1.02,1.15-1.44.08-.21-2.35-.29-.63-2.35,1.28-1.51,4.16-.44,4.66-.81.12-.09-1.3-2.15.86-2.69.31-.08.73.4.86.38l-1.73,1.73,3.45.58-1.73,1.15-.34.73c-1.44-.26-6.39-.58-4.26.41-.34,1.34-.96,1.97-2.31,2.31h.02Z"/>
  <path class="cls-105" d="M91.55,94.69c-.89.31-1.47.31-1.73,0-.49-.2-.49-.4,0-.58-1.59-1.27-3.81-4.02-4.02-5.75-.49-.23-.5-.41,0-.58.28-.49.46-.5.58,0,1.83.53,3.27,1.82,4.32,3.85,1.64-1.16,3.74-.63,3.71,1.33.58.66.24,1.85-.58,1.15-.21-.08-.79,0-1.15,0-.17-.28-.35-.28-.58,0-.18.06-.38.53-.58.58h.02Z"/>
  <path class="cls-110" d="M83.47,123.45c-1.54.47-3.27.47-5.18,0-2.86.38-1.7-1.53.58-1.73v-.58c.96-1.65,5.33-.38,6.91.58.05.12,0,.38,0,.58-.12.73-.43,1.02-1.15,1.15-.37.05-.76,0-1.15,0h-.02Z"/>
  <path class="cls-134" d="M83.48,80.31c-.35-1.15.03-1.91,1.15-2.31-1.77-.26-1.3-2.41,0-2.31,1.04-.29,1.99-.29,2.87,0,.63-.38.81-.11.58.58-.06.18.06.41,0,.58-.49.52-.69,1.09-.58,1.73,1.21,1.18.83,1.74-1.15,1.73.26,1.22-1.48,1.9-1.73.58-1.42.61-2.15.86-1.15-.58Z"/>
  <path class="cls-8" d="M79.46,23.37c.03,2.87-.03,5.76,0,8.63-.23.49-.41.5-.58,0-.44-1.86-.46-3.88,0-5.75-.47-1.31-.44-2.67,0-4.02-.49-.28-.52-.47,0-.58-.49-.28-.52-.47,0-.58-.55-2.32-.55-4.43,0-6.33-.03-.31-.52-.79-.58-1.15.03-.75.58-.99,1.15-.58.31.08.55.14.55.21,0,3.36-.21,6.79-.55,10.13h.02Z"/>
  <path class="cls-94" d="M109.35,85.49c-.31-.23-3.12.17-4.02,0l-.58-.58c-.34-.08-.81.08-1.15,0l-.58-.58c-.89-.32-2.28-.32-2.87-.58-.24-1.73.63-1.22,1.74-.89,3.65,1.13,3.65,2.09,8.04.89,1.09-.08,1.27.12.58.58.23.21.23.4,0,.58-.21.49-.4.49-.58,0l-.58.58h0Z"/>
  <path class="cls-84" d="M82.33,96.98c.26.2.26.4,0,.58-.29.64-.67.46-1.15-.58-1.79.35-1.91-.18-1.15-1.73-.57-1.12.76-1.67,1.73-1.73l1.44.11c1.54-1.62,2.35-2.45,3.73-.11,1.41-.08,1.28,1.86,0,1.73h-.58c-.35-.12-.72-.63-1.15-.58l-.58.58c-.09.11.09.44,0,.58-1.48-.2-2.25-.02-2.31.58.06.17-.08.41,0,.58l.02-.02Z"/>
  <path class="cls-122" d="M76.56,43.52c-.23.47-.41.49-.58,0,.05-.18-.03-.4,0-.58.41-.86.61-1.82.58-2.87.11-.69.31-.89.58-.58.4-.31.78-.31,1.15,0-.38-.96-.38-1.73,0-2.31v-2.31c-.38-.26-.4-.46,0-.58.2-.9.38-1.67.58-2.31h.58c.02,2.11-.05,4.22,0,6.33-.43.58-.41,1.15,0,1.73.03.58-.05,1.16,0,1.73l-1.22.05c-.14,1.34-.69,1.9-1.65,1.68l-.02.03Z"/>
  <path class="cls-80" d="M72.55,80.89c-1.09,1.62-3,.23-1.73-1.15.4.06,1.77.14.86-.57l-6.04-4.6c-.09-.12.09-.46,0-.58l-1.73-1.73v-.58c.44-.63.76-.64,1.15,0l1.47.08c1.19,1.99,2.52,3.64,4.28,4.52,1.13-.03,1.73.72.58,1.15,1.05.17,2.32,1.16,2.31,2.31.66,1.47.28,1.94-1.15,1.15h0Z"/>
  <path class="cls-108" d="M46.68,86.64c-.72.11-1.56-.08-2.31,0-.61-.11-.81-.31-.58-.58-.17-1.13.67-2.86.58-3.67-.03-.38-2.49-.66-.35-.89l2.64.53-1.71,3.74,1.71.86h.02Z"/>
  <path class="cls-6" d="M67.95,129.21c-.35-2.46,3.13.35,3.45-2.87,1.83.11,3.36.69,4.6,1.73h.58c1.27-.03,3.33-1.47,2.87.57-2.8.09-5.61-.09-8.39-.02-.75.02-1.3.6-1.39.6-.55.03-1.19.05-1.73,0Z"/>
  <path class="cls-116" d="M100.17,91.25c.43.69.44,1.65,0,2.31-.12.06-.38-.03-.58,0-.63-.24-.83-1.01-.58-2.31-2.28-1.18-.69-4.02,1.67-3.27l.06-.76c-2.09-1.94-.05-1.82,1.73-.58.34.09.89-.11,1.15,0,.37.21.37.41,0,.58l-.58,1.15c-.43.47-.69.72-1.15,1.15l-1.15.58c-.09.53-.29.92-.58,1.15l.02.02Z"/>
  <path class="cls-89" d="M100.15,66.51c-3.13,1.85-4.69,4.22-6.91,6.91l-.58-.58c.05-.18-.08-.44,0-.58l1.73-1.73c.09-.12-.09-.47,0-.58,1.41-1.47,2.84-2.96,4.6-4.02.15-.06.38.05.58,0,.21-.29.41-.29.58,0,.49.23.5.41,0,.58h0Z"/>
  <path class="cls-43" d="M83.48,62.49c-.99.93-1.38.93-1.15,0-.49-.23-.5-.41,0-.58.28-.17.28-.35,0-.58-.49-.23-.5-.41,0-.58.43-.58.4-1.15,0-1.73-1.71-.41-1.57-5.2,0-5.75.18-.75,1.07-.73,1.15,0-.41,2.58.58,6.89,0,9.2v.02Z"/>
  <path class="cls-9" d="M52.44,88.94c-.7-.12-1.76.18-2.31,0,1.71-3.15,3.94-3.64,7.18-4.62,1.18.98.28.9-.52,1.22-1.53.61-4.92.89-4.37,3.39h.02Z"/>
  <path class="cls-34" d="M117.12,109.07c-2.08.86-2.22-3.22-2-3.44,1.51-1.5,4.63,2.37,2,3.44Z"/>
  <path class="cls-129" d="M77.72,113.67l-.58.58c-.14.08-.41-.08-.58,0-1.3-.41-1.16-.58,0-1.15l1.73-1.73c.06-.17-.06-.4,0-.58l.58-1.73c.12-.47-.08-1.19,0-1.73h.58c.2.52.5,1.73,1.15,1.73-.03.2.05.4,0,.58l-.58,1.15c-.08.18.08.44,0,.58l-1.15,1.15c-.43.47-.57.7-1.15,1.15h0Z"/>
  <path class="cls-81" d="M104.77,71.09c-.15.06-.79,1.73-1.16.86l1.15-3.15-4.6.57,1.15-2.29c.23-.49.41-.5.58,0,.02.2-.05.55,0,.58.26.31.64.31,1.15,0,.2.03.4-.03.58,0,.89-.02,1.67.18,2.31.58.08.18,0,.81,0,1.15-.09.52-.28.92-.58,1.15,0,.41-.24.49-.58.58l.02-.02Z"/>
  <path class="cls-25" d="M81.19,119.43c.06.02.5.75,1.1.89,1.39.34,2.95-.03,3.5,1.42-2.09-1.07-4.62-.44-6.91-.58-.76-.05-2.9-.14-1.73-1.15.15-.14,3.82-.61,4.02-.58h.02Z"/>
  <path class="cls-135" d="M113.97,75.71h-.58c.05-.11.31-1.9.57-2.29-1.7-.12-3.51.17-5.18,0-.49-.23-.5-.41,0-.58.87-.21,1.83-.4,2.87-.58.18.03.4-.03.58,0l1.15.58c.5.09,1.16-.03,1.73,0,.95.28.99.89.58,1.73-.09.09-.47-.09-.58,0l-1.15,1.15h.02Z"/>
  <path class="cls-76" d="M90.37,66.49c-3.39.32,1.31-1.83,2.87-2.31.73-.17,2.6-.17,2.87.58.31.21.31.41,0,.58-.15.18-.4.43-.58.58-.49.26-.87.26-1.15,0-1.68.89-3.03,1.07-4.02.58v-.02Z"/>
  <path class="cls-77" d="M97.86,85.49c-.49,1.48-1.09,1.57-1.15,0l-.58-.58c-.96,1.19-5.64,1.59-6.33,0,.55-.28,1.22-.96,1.73-1.15.21-.23.4-.24.58,0,1.28.11,2.77-.15,4.02,0,1.16.2,3.21,1.1,1.73,1.73h0Z"/>
  <path class="cls-136" d="M52.43,68.82l-.58-2.31c.11-.08.38.05.58,0,.37.21.38.41,0,.58.49.09.67.29.58.58.63.9,1.36,1.62,1.15,2.87-1.64.09-2.35-1.41-4.02-.58l2.29-1.15q.11.15,0,0Z"/>
  <path class="cls-25" d="M66.78,67.66c.52,3.22-4.71.24-4.02-1.73-1.47-.43-1.53-.96,0-1.15,2,.29,2.61,2.03,3.45,0,.05.96.24,1.93.58,2.87h-.02Z"/>
  <path class="cls-139" d="M70.83,79.73c-1.45.84-3.18.84-5.18,0l-1.15-1.44c-.15-.38,1.04-.44,1.15-.86,1.65.86,2.93.73,5.18,2.31v-.02Z"/>
  <path class="cls-139" d="M64.48,75.14c.38.63,1.33,1.56,1.15,2.31-2.83-1.45-3.71-3.36-5.75-5.18.38.29,1.82.44,2.31,1.15.44.4.83.87,1.15,1.15l.58.58c.12.09.44-.09.58,0h-.02Z"/>
  <path class="cls-139" d="M59.9,72.27c-.2-.17-.41-.38-.58-.58.21.18.38.41.58.58Z"/>
  <path class="cls-139" d="M59.32,71.69c-1.5-1.36-3.18-3.16-5.18-3.45l1.15-1.15h.58l1.73,1.73c.49.41.78.79,1.15,1.15.38.4.4,1.5.58,1.73Z"/>
  <path class="cls-34" d="M117.67,82.01c.98-1.45,4.62-.5,1.47,1.76q-.11-.15,0,0c-1.94,1.41-2.45-.31-1.47-1.76Z"/>
  <path class="cls-34" d="M122.59,123.18c.73-1.93,4.02-.08,2.87,2-1.22-.03-3.56-.18-2.87-2Z"/>
  <path class="cls-34" d="M120.28,31.15c.35,1.42-2.54,1.77-2.87,1.42-1.45-1.53,2.11-4.48,2.87-1.42Z"/>
  <path class="cls-25" d="M85.76,126.32c-.37,1.47-1.04,1.99-1.73.58l1.15-2.31-6.89-.58c-.49-.28-.5-.47,0-.58,1.33-.76,3.42.03,5.18,0,.31.84,1.34.4,1.73.58l.58.58c.11.43,0,1.21,0,1.73h-.02Z"/>
  <path class="cls-21" d="M77.72,21.66c.5,1.82.38,3.88,0,5.75-.23.49-.41.5-.58,0-.53-2.75-.35-5.81,0-8.63v-2.31h.58c.57,2.11.57,3.84,0,5.18v.02Z"/>
  <path class="cls-25" d="M88.66,64.2c-.15,1.33-.35,2.49-.58,3.45-.86.67-1.64.29-2.31-1.15-2.09.64-2.67.06-1.73-1.73,1.13,1.27,3.84-2.64,4.6-.58h.02Z"/>
  <path class="cls-67" d="M61.05,67.11c.31.21.31.41,0,.58l-1.73-1.15c-.23-.15-.4-.47-.58-.58-.72-.14-.92-.32-.58-.58.17-.18.4-.5.58-.58,1.24-.46,2.38-.46,3.45,0,.2.02.4-.03.58,0v1.15c-.34.57-.92.95-1.73,1.15v.02Z"/>
  <path class="cls-144" d="M112.81,79.73c.49.28.5.47,0,.58v.58c-.15.08-.4-.06-.58,0l-.58.58c-.31.09-.78-.06-1.15,0-2.09.34-.05.17-1.44,1.71l-1.73-2.28c1.8.79,3.71-.89,5.47-1.16v-.02Z"/>
  <path class="cls-60" d="M85.77,66.51c-1.77,4.57-3.74,1.02-3.45-2.31-.47-.78.34-1.56,1.15-1.73.2,0,.47-.05.58,0,.49.53.29,1.13,0,1.73,0,.2.02.4,0,.58-.08.57.03,1.16,0,1.73.29.35,2.09-2.6,1.73,0h0Z"/>
  <path class="cls-40" d="M108.77,72.84c-.35.43-.75.4-1.15,0,.02-.32.86-1.44.58-1.73-.17-.17-1.31.14-1.73,0-.78-.15-.98-.34-.58-.58-.31-.21-.31-.41,0-.58h1.73c1.65.23,2.22.61,1.73,1.15-.02.17-.03.41,0,.58-.26.17-.26.35,0,.58.73.08,1.62-.12,2.31,0-.49,1.02-2.03.43-2.87.58h-.02Z"/>
  <path class="cls-25" d="M79.45,23.37c-.02-2.28.47-8.85,0-10.36.6-.46.76-.79,1.15-1.15.5-.46,1.27-1.22,1.73-1.73-3.93,4.05-1.27,8.51-2.87,13.23Z"/>
  <path class="cls-90" d="M77.17,39.47s-.58.53-.58.58c.06-.57-.05-1.16,0-1.73v-.58c.09-1.9-.03-3.84,0-5.75.28-1.24,1.02-1.24,1.15,0,.43.58.41,1.18,0,1.73-.26,2.05-.44,3.97-.58,5.75h.02Z"/>
  <path class="cls-24" d="M76.01,46.95c-.5-.02-1.48,1.44-1.73,1.15.08-1.1.76-1.71,1.15-2.87.06-.17-.05-.4,0-.58.52-.78.9-.98,1.15-.58,1.25-.09,2.12.41,1.73,1.73v.58c-.23.49-.41.5-.58,0l-.58-.58v1.74c-.5.18-1.01-.58-1.15-.58q.21-.38,0,0h.02Z"/>
  <path class="cls-34" d="M111.1,89.54c-.57.35-.73.86-1.73.57-.28-2.89,1.05-3.88,2.86-1.44-.26.47-.75.6-1.15.86q-.11-.15,0,0l.02.02Z"/>
  <path class="cls-7" d="M65.65,93.53c-.09.12.09.46,0,.58-.79.6-1.73-.38-1.73-1.15-.37-.21-.38-.41,0-.58,1.85-.55,1.85-1.6,3.16-2.87.9.41-.14,1.27-.29,1.73-.06.18.06.43,0,.58l-1.15,1.73v-.02Z"/>
  <path class="cls-25" d="M100.73,87.22c-1.48,1.18-3.59.05-2.87-1.73-.11-.09-.05-1.51-1.73-1.73,2.28.29,4.54,1.44,6.33,2.87-1.27-.31-1.9-1.13-1.73.58h0Z"/>
  <path class="cls-34" d="M72.55,129.79c.75,3.93-3.81.29-2.87-.58,1.05-.38,2.2.52,2.87.58Z"/>
  <path class="cls-25" d="M77.15,27.37c.43,1.07.18,1.42-.58.58.02-2.92-.49-6.63.58-9.2,0,2.75.26,5.99,0,8.63v-.02Z"/>
  <path class="cls-131" d="M93.25,73.43c-.92,1.1-4.74,6.51-3.45,2.87.06-.18-.08-.44,0-.58.83-1.1,1.79-1.86,2.87-2.31.23-.34.43-.35.58,0v.02Z"/>
  <path class="cls-32" d="M89.81,73.94c-.44.58-.83.78-1.15.58-1.54-1.34.83-6.28,2.87-5.75.21-.29.41-.29.58,0v.58c-.05.18.06.41,0,.58l-1.73,2.31c-.08.17.08.43,0,.58l-.58.58c-.08.17.08.44,0,.58v-.05Z"/>
  <path class="cls-83" d="M67.37,94.69c-.5-.43-.32-1.18,0-1.73,0-.2.03-.4,0-.58.43-.76.7-1.56,1.15-2.31l.58,1.15c-1.27,3.39.28,1.93.58,2.31.5.2.5.38,0,.58.09.31-.09.49-.58.58-.24.28-.43.29-.58,0-.32.28-.78.24-1.15,0Z"/>
  <path class="cls-25" d="M69.68,65.94c-.95.6-1.91.4-2.87-.58-.05-1.01-.24-1.79-.58-2.31.57-1.57,2.95,1.8,4.6,1.15.09.76-.44,1.57-1.15,1.73v.02Z"/>
  <path class="cls-34" d="M54.72,36.6c.92-.93,3.22,1.36,2.29,2.29-1.19,1.19-3.48-1.09-2.29-2.29Z"/>
  <path class="cls-111" d="M82.33,100.99c-.08.35.11.9,0,1.15-.21.34-.41.34-.58,0-.38-.14-.58-.52-.58-1.15-1.5-.72-.99-2.98,0-4.02.21.23.84.35,1.15.58l.58,1.15v.58c-.26.17-.26.35,0,.58-.02.2.05.43,0,.58l-.58.58.02-.03Z"/>
  <path class="cls-45" d="M52.43,85.47c-.99.02-1.93.37-2.87.58-.78-.18-.47-.6,0-1.15,1.36-.72,2.14-.73,3.45-1.15.4.47.2.86-.58,1.15-.08.18.08.46,0,.58v-.02Z"/>
  <path class="cls-75" d="M112.24,76.84c-.52.75-.53,1.67-.6,1.73-.11.11-2.05-.96-2.86-.58l.57-.86,3.45-.86c-.14.23-.44.38-.58.58l.02-.02Z"/>
  <path class="cls-25" d="M73.68,132.9c-.05,1.57.53,3.85-.55,4.94.02-1.13-.23-6.65,0-6.89.15-.17,1.24-.12,1.15.57-.02.08-.57.47-.6,1.39Z"/>
  <path class="cls-29" d="M88.07,95.85v-.58c.2-.35.38-.35.58,0-.11.26-.32.52-.58.58Z"/>
  <path class="cls-29" d="M88.1,95.27c-.02.37-.24.5-.58.58-.2-.03-.43.05-.58,0v-.58c.95-1.01.14-1.3,0-1.73-1.8-.76-2-1.34-.58-1.73.21-.23.4-.23.58,0,.96-.21,2.29,1.65,1.73,2.31.84.73.44.9-.58,1.15h.02Z"/>
  <path class="cls-80" d="M64.5,70.54c.41,1.39-.95.81-1.73,0-.09-.12.09-.46,0-.58l-1.73-2.31v-.58c1.53-.98,4.68,1.82,3.45,3.45v.02Z"/>
  <path class="cls-121" d="M97.31,92.96c-.86.58-1.24.58-1.15,0-.24.5-.44.52-.58,0-2.64-.98.09-4.34,1.15-1.73l1.15.58c.43-1.47.99-1.53,1.15,0,.12.79.26,1.71-.58,1.15-.21.24-.4.26-.58,0h-.58.03Z"/>
  <path class="cls-126" d="M66.79,65.35c1.6.4,1.76,2.12,0,2.31-1.48-.38-.75-1.68-.58-2.87.08-.53-.14-1.36,0-1.73,2.06-.31.75.93.58,2.31v-.02Z"/>
  <path class="cls-34" d="M83.48,126.91c.2,0,.4.02.58,0,.61-.06,1.19-.28,1.73-.58-.02,3.32-1.15,3.44-2.31.58h0Z"/>
  <path class="cls-25" d="M96.13,94.69c-.96,1.79-2.11-.5-2.31-.58l.58-1.15c.6-1.41.92-1.56,1.15,0l.58,1.73h0Z"/>
  <path class="cls-34" d="M90.08,108.51c1.7-.61,1.86,1.28,1.44,1.71-.76.76-3.42-.99-1.44-1.71Z"/>
  <path class="cls-87" d="M84.05,49.84c-.11-.15-.4-.32-.58-.58h.58v.58Z"/>
  <path class="cls-87" d="M85.79,51.55c-2.15-.84-1.02-.64-1.73-1.73.38.18.76.4,1.15.58.17.08.43-.08.58,0l.58.58c.21.11.79-.09,1.15,0,.31,1.09-.44.95-.58,1.15-.67.31-1.19.43-1.15-.58Z"/>
  <path class="cls-25" d="M41.5,75.71c-.14.09-.44-.09-.58,0-.69.2-.98-.03-.58-.58.79-.31,1.79-1.73,3.45-1.16-.92-1.6-1.74-1.15,0-2.29-1.05,1.22.43,2.17,1.73,2.31.5.21.5.41,0,.58l-.12.83c-1.34-.11-2.64,0-3.91.32h.02Z"/>
  <path class="cls-64" d="M73.7,114.25c-.2-.05-.43.06-.58,0l-1.15-.58c-.17-.08-.44.08-.58,0l-.58-.58c-.09-.29.06-.78,0-1.15.35-.14.73.06,1.15.58.14.08.41-.08.58,0l.58.58c.18.03.4,0,.58,0,1.13.09.75.52,0,1.15Z"/>
  <path class="cls-97" d="M92.68,68.8h-1.15c-1.16-1.86,1.22-2.83,2.87-2.87.38.21.4.41,0,.58-.57.57-1.19,1.62-1.73,2.31v-.02Z"/>
  <path class="cls-25" d="M71.41,63.64c-.23.49-.41.5-.58,0,.11-.21-.18-.87.02-1.3s1.57-1.18,1.7-2.14c-.02.95.03,1.91,0,2.87-1.04-.63-1.31-.81-1.15.57h.02Z"/>
  <path class="cls-17" d="M74.27,114.83c-1.07-1.57.87-1.71,2.31-1.73-.08.34.11.95,0,1.15l-.58.58c-.26.08-1.38.06-1.73,0Z"/>
  <path class="cls-141" d="M77.7,27.39c.41,1.15.41,2.32,0,3.45-.63.18-1.01-.4-1.15-1.73v-1.15c.28-.06.55-.32.58-.58h.58-.02Z"/>
  <path class="cls-25" d="M63.6,93.51c-.46-.05-.99.46-1.41.61-.61-.83.46-1.53,1.15-1.15.23-.38.43-.4.58,0,.47.09,1.19.92,1.73,1.15-1.38,1.91-1.83-.6-2.05-.61Z"/>
  <path class="cls-34" d="M106.77,110.22c1.22.29.66,2-.57,1.73-1.22-.29-.66-2.02.57-1.73Z"/>
  <path class="cls-119" d="M69.67,65.94c-.4-1.04,1.01-1.38,1.15-1.73.06-.17-.08-.43,0-.58h.58c2.72,1.9-1.85,6.11-1.73,2.31Z"/>
  <path class="cls-12" d="M97.85,83.2l-1.15-.58v-.57c3.18-.29,2.15-.14,2.87,1.15h-1.73Z"/>
  <path class="cls-44" d="M70.83,103.91c.15-1.41-.75-3.33,1.15-2.87v2.29c-.08,0-.66.76-1.15.58Z"/>
  <path class="cls-33" d="M114.53,80.31c-.06.08-.83-.06-1.15,0-.21.26-.4.26-.58,0-.03-.18.05-.4,0-.58-.09-.37-.78-1.01-.58-1.15.98-.09,3.1.75,2.31,1.73h0Z"/>
  <path class="cls-34" d="M110.48,86.09c-1.82,1.3-.87-.38-1.15-.58l.58-.58c.15-.08.4.06.58,0l.58-.58c.32-.49.52-.52.58,0-.17.5-.21.7-.58,1.15l-.58.58-.02.02Z"/>
  <path class="cls-25" d="M76.57,32c.02-.95,0-1.91,0-2.87l1.15,1.73c.41.38.41.78,0,1.15h-1.15Z"/>
  <path class="cls-11" d="M89.21,67.09c.64,1.6-.08,1.96-1.15.58.09-1.09-.44-2.81.58-3.45.12.35-.05,1.21,0,1.73.43.08.63.46.58,1.15h-.02Z"/>
  <path class="cls-123" d="M85.77,53.29c-.37.11-1.21,0-1.73,0-.49-.23-.5-.41,0-.58l1.73-1.15c.23.09.6-.11.86,0l.29.57-1.15,1.15v.02Z"/>
  <path class="cls-34" d="M88.08,95.85c-.15.03-.43.03-.58,0,.15-.23.46-.38.58-.58v.58Z"/>
  <path class="cls-34" d="M89.81,95.26c-.32.08-.76-.05-1.15,0-.2.02-.4,0-.58,0,.23-.35.38-.78.58-1.15-.08-1.34.44-.95,1.15,0,.06.15-.05.4,0,.58.49.23.5.41,0,.58v-.02Z"/>
  <path class="cls-34" d="M116.84,78.29c-.41-1.83,2.8-1.41,1.15.29q-.11-.15,0,0c-.43.44-.9.76-1.15-.29Z"/>
  <path class="cls-52" d="M69.1,53.86c.46-1.59,1.9-.9,2.87,0-.55.09-2.38.12-2.87,0Z"/>
  <path class="cls-125" d="M101.88,67.09h-.58l-1.15-.58v-.58l.58-.58c.87.11.66.15,1.15.58v.58c0,.2-.02.4,0,.58Z"/>
  <path class="cls-73" d="M62.21,94.11c-.18.06-.43-.06-.58,0v-1.15c.58-.21,1.62-.53,1.73-.58.37.21.38.41,0,.58-.58.12-.93.61-1.15,1.15Z"/>
  <path class="cls-25" d="M74.3,114.83c-.64-.12-.58-.58-.58-.58v-1.15c2.03,0,3.04-.46,4.6-1.73-.34.89-.98,1.25-1.73,1.73-1.09.66-2.74.11-2.31,1.73h.02Z"/>
  <path class="cls-25" d="M58.74,64.78c1.05-.47,2.4-1.33,3.45,0-1.12-.12-2.32.08-3.45,0Z"/>
  <path class="cls-34" d="M118.55,125.77l.58-.58c.23-.17.67-1.02,1.15.29.75,2.09-1.57,1.7-1.73.28v.02Z"/>
  <path class="cls-2" d="M83.48,53.26h-1.15c-1.51.21-1.86-.31-.58-1.15.75.18,1.6.03,2.31.58v.58h-.58v-.02Z"/>
  <path class="cls-25" d="M44.08,37.73c-3.85-.81-1.3-2.58-.29-1.71.06.05.37,1.41.29,1.71Z"/>
  <path class="cls-25" d="M81.17,106.78c-.84-.43-.67-2.02-.58-2.87.21-.41.41-.41.58,0-.17.79.08,1.97,0,2.87Z"/>
  <path class="cls-25" d="M101.88,103.32c-.23-2.14.7-.76,1.73-.58-.28.73-1.1.58-1.73.58Z"/>
  <path class="cls-25" d="M107.63,69.96h2.29c.31.92-.57,1.15-.57,1.15l-1.73-1.15Z"/>
  <path class="cls-25" d="M71.97,95.87c-.03.26.05.46-.29.57-2.32.43-1.05-.79-1.44-1.73.66-.05,1.24.34,1.73,1.15v.02Z"/>
  <path class="cls-25" d="M84.64,95.85c-.81,1.19-1.45-.23-2.31.58-.12-.29-1.62-.57-1.15-1.73l3.44,1.15h.02Z"/>
  <path class="cls-25" d="M75.99,42.93c.14-.63.55-2.6.58-2.87-.2.78.46,2.4-.58,2.87Z"/>
  <path class="cls-79" d="M88.07,79.16c-.57.18-.66-.02-.58-.58-.28-.64-.12-1.09.58-1.15h.58c-.03.09.75,1.21-.58,1.73Z"/>
  <path class="cls-25" d="M69.67,117.71c.72-.02,1.04,0,1.73,0-.08.87-1.65.87-1.73,0Z"/>
  <path class="cls-34" d="M98.43,124.03c.63-.63,1.77.52,1.15,1.15s-1.77-.52-1.15-1.15Z"/>
  <path class="cls-25" d="M65.05,71.69c-.35-.08-.89.11-1.15,0-.81-.32-.75-.63-1.15-1.15l1.39.52.34-.52c1.56-.29,1.83.21.58,1.15h-.02Z"/>
  <path class="cls-93" d="M88.66,75.69l-.58.58c-.43.06-.64-.17-.58-.58-.83-1.45-.18-2.22,1.15-1.15.34.2.34.38,0,.58-.06.17.06.41,0,.58l.02-.02Z"/>
  <path class="cls-34" d="M86.35,115.98c.63-.63,1.77.52,1.15,1.15s-1.77-.52-1.15-1.15Z"/>
  <path class="cls-25" d="M90.37,66.49c.09,1.54-.21,1.86-1.15.58-.58-.15-.53-.66-.58-1.15l4.6-1.73c-.81.2-6.17,2.84-2.87,2.31v-.02Z"/>
  <path class="cls-25" d="M103.59,67.66c.89.15,1.85-.44,2.31.58l-2.31-.58Z"/>
  <path class="cls-25" d="M87.5,78.58c-.64-1.01-.93-.95.58-1.73-.06.18.06.41,0,.58-.15.4-.41.75-.58,1.15Z"/>
  <path class="cls-4" d="M103.61,87.78c-.15.23-.4.38-.58.58l-.57-.29c-.2-1.07.17-.92,1.15-.86.24.21.26.4,0,.58v-.02Z"/>
  <path class="cls-28" d="M95.55,92.96c.2.03.4-.02.58,0,.47.17.47.55,0,1.15-.02.21.06.47,0,.58-1.83.2-.9-.32-.58-1.73Z"/>
  <path class="cls-25" d="M100.15,93.54c.09-.73-.12-1.62,0-2.31.23-.49.41-.5.58,0-.2.86.47,1.77-.58,2.31Z"/>
  <path class="cls-25" d="M115.1,72.84c1.64.09,1.77.41.58,1.73l-.58-1.73Z"/>
  <path class="cls-22" d="M66.81,95.27s0-.38,0-.58c.23-.49.41-.5.58,0,.6-.63.98-.02,1.15,0v.58c-.14.05-.38,0-.58,0-.26.32-.64.32-1.15,0Z"/>
  <path class="cls-25" d="M48.38,71.71c-.7.09-1.01-.57-1.15-.58.23-.15.38-.47.58-.58.15-.08.43.08.58,0,.34.32.44.92,0,1.15l-.02.02Z"/>
  <path class="cls-25" d="M78.3,110.8c.15-.44.52-1.48.58-1.73l-.58,1.73Z"/>
  <path class="cls-25" d="M53.56,90.67v-1.15c-.41-.76-.12-1.04.58-.58.34.2.34.58,0,1.15-.15.23-.4.4-.58.58Z"/>
  <path class="cls-25" d="M101.88,31.42c-.17-1.21-.06-1.31,1.15-1.15l-1.15,1.15Z"/>
  <path class="cls-104" d="M54.15,88.93c-.35,0-.53.58-.58.58-.18.02-.41.03-.58,0-.18-1.64.12-.98,1.15-1.15.4.21.41.41,0,.58l.02-.02Z"/>
  <path class="cls-25" d="M82.9,98.72c-.58-.18-.5-.67-.58-1.15-.03-.21.06-.44,0-.58.76.29.53,1.1.58,1.73Z"/>
  <path class="cls-25" d="M89.81,95.27v-.58h1.73c-.43.12-.81.38-1.73.58Z"/>
  <path class="cls-25" d="M80.03,117.71c1.12.11,1.3-.41,1.15,1.15l-1.15-1.15Z"/>
  <path class="cls-34" d="M90.95,121.16c-.17-1.21-.06-1.31,1.15-1.15l-1.15,1.15Z"/>
  <path class="cls-25" d="M76.56,44.06l-1.15.58c.14-.52.53-.96.58-1.15h.58c.5.24.52.43,0,.58l-.02-.02Z"/>
  <path class="cls-25" d="M85.77,122.31c0,.38.03.76,0,1.15-.37.05-.78-.05-1.15,0l1.15-1.15Z"/>
  <path class="cls-25" d="M99.56,93.54c-.28.05-.87.06-1.15,0-.29-.21-.29-.41,0-.58l.58-1.15c-.49-.23-.5-.41,0-.58.03.4.58,1.7.58,2.31h-.02Z"/>
  <path class="cls-25" d="M84.05,64.2v-1.73c1.42.69,0,1.51,0,1.73Z"/>
  <path class="cls-25" d="M67.37,94.69h-.58c-.03-.63-.12-1.44.58-1.73.03.57-.03,1.16,0,1.73Z"/>
  <path class="cls-128" d="M48.39,86.07c.21-.58.61-.86,1.15-1.15v1.15c-.34.08-.78-.06-1.15,0Z"/>
  <path class="cls-136" d="M54.15,66.52l-.58,1.15c-.4-.09-.73-.21-.58-.58-.37-.21-.38-.41,0-.58.34-.03.81-.05,1.15,0l.02.02Z"/>
  <path class="cls-25" d="M80.59,109.07c.11-.6-.23-1.42.58-1.73-.08.72.32,1.71-.58,1.73Z"/>
  <path class="cls-25" d="M79.45,40.06c-.87-.08-.87-1.65,0-1.73,0,.58-.03,1.16,0,1.73Z"/>
  <path class="cls-25" d="M118.54,125.76c-.06-.69.49-.52.58-.58l.58.58h-1.16Z"/>
  <path class="cls-25" d="M87.5,124.03c.81-.41,1.54.37,1.15.57-.81.41-1.54-.37-1.15-.57Z"/>
  <path class="cls-25" d="M71.97,113.67c.38.18.9.49,1.15.58l-1.15-.58Z"/>
  <path class="cls-25" d="M80.03,110.8l.58-1.15c-.2.86-.5.96-.58,1.15Z"/>
  <path class="cls-25" d="M104.75,102.74c.32-2.66.41-.29.58,0h-.58Z"/>
  <path class="cls-25" d="M67.66,95.84l-.86-.57c.11.08.83,0,1.15,0l-.29.57Z"/>
  <path class="cls-25" d="M59.9,95.27l1.15-.58c-.15.08-.21.72-1.15.58Z"/>
  <path class="cls-35" d="M70.23,94.69c-.29-.09-.81.09-1.15,0,.17-.17.17-.6.58-.58.98-.52,1.33-.15.58.58h-.02Z"/>
  <path class="cls-25" d="M59.32,94.69c-.87-.69-.9-.46-1.15-1.73l1.15,1.73Z"/>
  <path class="cls-25" d="M96.13,94.11c.03-.37-.03-.76,0-1.15.15,0,.57-.05,1.15,0l-1.15,1.15Z"/>
  <path class="cls-25" d="M65.65,93.54c0-.84.31-1.48,1.15-1.73-.35.89-.66,1.09-1.15,1.73Z"/>
  <path class="cls-25" d="M54.15,92.38c-.83-.21-.44-.66-.58-1.15l.58,1.15Z"/>
  <path class="cls-34" d="M100.73,91.24h-.58c.14-.7.11-.64.58-1.15-.08.34.08.81,0,1.15Z"/>
  <path class="cls-25" d="M100.73,90.11c.09-.41.73-.58,1.15-.58-.43.41-1.1.53-1.15.58Z"/>
  <path class="cls-25" d="M103.61,87.78v-1.15c1.5.6.14.95,0,1.15Z"/>
  <path class="cls-86" d="M44.36,86.64c-.37.03-.81-.06-1.15,0l.58-.58c.02.11.47.35.58.58h-.02Z"/>
  <path class="cls-25" d="M112.24,72.26c.93.15,1.15.58,1.15.58l-1.15-.58Z"/>
  <path class="cls-25" d="M44.37,71.69c.11-.05.17-.52,1.15-.58l-1.15.58Z"/>
  <path class="cls-25" d="M90.37,72.27c.43-.9.69-1.88,1.73-2.31-.32.92-.78,1.88-1.73,2.31Z"/>
  <path class="cls-25" d="M105.9,69.95v.58c-.21.37-.41.37-.58,0,.18-.32.11-.89.58-1.15v.58-.02Z"/>
  <path class="cls-25" d="M48.38,68.82l-1.15,1.15c-.03-.06-1.15-.08,0-.89.41-.28.84-.15,1.16-.26h-.02Z"/>
  <path class="cls-25" d="M102.17,68.22l-.29-.57c.15.09.79-.05,1.15,0l-.86.57Z"/>
  <path class="cls-25" d="M94.41,69.95c1.44-1.73,2.38-3.12,4.6-4.02l-4.6,4.02Z"/>
  <path class="cls-25" d="M94.41,66.51v-.58c.31.09.78-.06,1.15,0-.4.35-1.04.47-1.15.58Z"/>
  <path class="cls-25" d="M58.72,65.91c-.2-.11-.79.08-1.15,0-.09-.63.58-.57.58-.57l.58.58-.02-.02Z"/>
  <path class="cls-25" d="M100.75,65.36c-.11.28-.31.5-.58.58-.18.05-.4-.05-.58,0,.11-.55.69-.64,1.15-.58h.02Z"/>
  <path class="cls-25" d="M86.93,95.85c-.23-.08-.43-.53-.58-.58h.58v.58Z"/>
  <path class="cls-25" d="M109.35,72.27l-.57-.29.57-.29c.03.2-.02.4,0,.58Z"/>
  <path class="cls-25" d="M92.68,72.26c.55-1.15,1.38-1.27,1.73-1.73l-1.73,1.73Z"/>
  <path class="cls-25" d="M82.9,99.87l-.57-.29.57-.29c0,.2.02.4,0,.58Z"/>
  <path class="cls-25" d="M82.32,101.03c.06-.26.32-.5.58-.58-.09.28-.32.49-.58.58Z"/>
  <path class="cls-115" d="M82.3,102.16c-.23.55-1.05,1.28-1.15,1.73h-.58c.05-.32.53-.81.58-1.15-.69-.08-.87.14-1.42-.58-.24-.29-2.46-5.69-2.61-6.31.18-.73,1.01-.63,1.15,0l.58.58c-.6-.79-.4-1.18.58-1.15.23-.49.41-.5.58,0,.41.5.72,1.28,1.15,1.73.72,1.68.15,2.71,0,4.02.32.73.32,1.3,0,1.73.17-.44.37-.64.58-.58h.58l-.02-.02Z"/>
  <path class="cls-25" d="M57.59,68.82l-1.73-1.73c1.05.64,1.16,1.24,1.73,1.73Z"/>
  <path class="cls-25" d="M62.77,69.96l-3.45-3.45c.52.34,1.34.76,1.73,1.15.58.58,1.21,1.62,1.73,2.31Z"/>
  <path class="cls-25" d="M65.65,73.98c-.31-.4-1.57-.78-1.73-1.73l1.73,1.73Z"/>
  <path class="cls-25" d="M78.88,112.52l1.15-1.15c-.44.76-.81.76-1.15,1.15Z"/>
  <path class="cls-25" d="M71.97,112.52l-1.15-.58c.34-1.34.75.34,1.15.58Z"/>
  <path class="cls-34" d="M92.97,111.94c.37.2.37.38,0,.58v-.58Z"/>
  <path class="cls-25" d="M73.13,113.11l-.58-.58c.26.11.47.57.58.58Z"/>
  <path class="cls-25" d="M71.41,113.69c-.34-.18-.43-.09-.58-.58l.58.58Z"/>
  <path class="cls-25" d="M77.14,114.25l.58-.58c-.21.17-.35.44-.58.58Z"/>
  <path class="cls-25" d="M75.99,114.83c.15-.23.34-.47.58-.58-.18.31,0,.4-.58.58Z"/>
  <path class="cls-25" d="M52.99,67.09h-.58v-.58c.18-.03.38.02.58,0v.58Z"/>
  <path class="cls-34" d="M55.88,67.09h-.58v-.58c.23.08.4.47.58.58Z"/>
  <path class="cls-25" d="M92.68,73.4c-.93.79-1.88,1.59-2.87,2.31.4-.75,2.15-2.81,2.87-2.87.37.21.37.41,0,.58v-.02Z"/>
  <path class="cls-25" d="M89.79,73.42l.58-.58c-.17.32-.53.49-.58.58Z"/>
  <path class="cls-34" d="M85.79,124.61l-.58-.58c.35.17.47.14.58.58Z"/>
  <path class="cls-25" d="M62.77,126.34c-.17-.15-.6-.15-.58-.58l.58.58Z"/>
  <path class="cls-25" d="M63.93,126.91c-.46-.11-.58-.58-.58-.58l.58.58Z"/>
  <path class="cls-25" d="M67.36,127.2l-.57.29c-.03-.2,0-.58,0-.58l.57.29Z"/>
  <path class="cls-25" d="M66.79,128.63c-.81-.72.02-.23,0-.58v.58Z"/>
  <path class="cls-25" d="M58.46,128.63c.37.2.37.38,0,.58v-.58Z"/>
  <path class="cls-25" d="M113.66,129.78c.37.2.37.38,0,.58v-.58Z"/>
  <path class="cls-25" d="M101.88,66.51v-.58c.79.72,0,.21,0,.58Z"/>
  <path class="cls-25" d="M96.13,65.36v-.58c1.16.29.14.41,0,.58Z"/>
  <path class="cls-25" d="M89.81,74c-.31.52-.49.95-1.15,1.15.06-.17-.06-.41,0-.58.32-.24.79-.37,1.15-.58v.02Z"/>
  <path class="cls-25" d="M113.97,75.71l1.15-1.15c-.28.26-.43,1.05-1.15,1.15Z"/>
  <path class="cls-25" d="M63.93,75.14l-.58-.58c.21.18.38.43.58.58Z"/>
  <path class="cls-25" d="M92.1,69.4v-.58h.58c-.17.21-.38.4-.58.58Z"/>
  <path class="cls-25" d="M88.07,76.29s.26-.57.58-.58c-.29.79-.58.53-.58.58Z"/>
  <path class="cls-25" d="M85.79,53.27l1.15-1.15c-.34.5-.47.95-1.15,1.15Z"/>
  <path class="cls-25" d="M112.81,80.89v-.58h.58c-.14.24-.34.44-.58.58Z"/>
  <path class="cls-25" d="M86.35,50.98l-.58-.58c.21.11.38.47.58.58Z"/>
  <path class="cls-25" d="M111.65,81.47l.58-.58s-.14.46-.58.58Z"/>
  <path class="cls-25" d="M63.93,45.51c-.02-.61,1.44.34.86.86l-.86-.86Z"/>
  <path class="cls-25" d="M92.1,83.78h-.58c.15-.06.35-.52.58-.58v.58Z"/>
  <path class="cls-25" d="M103.61,84.92c-.41-.11-.58-.58-.58-.58l.58.58Z"/>
  <path class="cls-25" d="M105.33,85.49l-.58-.58c.18.05.43.55.58.58Z"/>
  <path class="cls-25" d="M110.5,86.07l.58-.58c-.17.21-.37.43-.58.58Z"/>
  <path class="cls-25" d="M46.37,88.36c.37.2.37.38,0,.58v-.58Z"/>
  <path class="cls-25" d="M58.17,92.4l-.58-.58c.21-.31.41-.32.58,0-.05.15,0,.38,0,.58Z"/>
  <path class="cls-34" d="M98.43,93.54c-.28-.06-.5-.31-.58-.58h.58v.58Z"/>
  <path class="cls-25" d="M92.39,93.56l.29.57c-.2,0-.46-.05-.58,0l.29-.57Z"/>
  <path class="cls-25" d="M84.63,95.27l.58-.58s-.47.46-.58.58Z"/>
  <path class="cls-25" d="M68.52,95.27v-.58c.2.02.41-.05.58,0-.18.18-.31.49-.58.58Z"/>
  <path class="cls-63" d="M69.67,82.04c-.44,1.05-3.94,2.29-4.02.58-1.85-.99-1.53-1.64,0-2.87,2-1.62,2.96-.31,5.18,0,.46.32.67,1.01,1.73,1.15,1.05,1.07.92,1.57-.58,1.73.26,2.75-1.9,1.41-2.31-.58Z"/>
  <path class="cls-47" d="M74.25,88.38c-.76.23-1.48.64-2.31.57,1.05-1.82-.02-.84-.57-1.15-.52-.2-.52-.4,0-.58.03-.15.63-.44.63-.83,0-.5-1.16-.29-1.19-.34-.83-.44-1.21-1.21-1.15-2.31-1.56-.53-1.59-1.31,0-1.73.41.12.58,2.02,2.31.58,1.44-.31,3.24,1.53,2.31,2.87,1.5.08,1.88.46,1.15,1.15.58-.18.76.02.58.58.49.2.49.4,0,.58-.23.49-.41.5-.58,0-.43.86-.81,1.05-1.15.58l-.03.02Z"/>
  <path class="cls-140" d="M66.79,84.91c-.5-.93-1.5-.5-2.29-.58l1.15-1.15h-7.47l.28-1.13c2.05.4,5.12.57,7.2.57,1.21-.02,3.42-.75,4.02-.58.09.44-.14,1.54,0,1.73-.81,1.05-1.76,1.64-2.87,1.73-.47-.23-.49-.41,0-.58Z"/>
  <path class="cls-72" d="M42.07,76.31l-.58-.58c.06-.05-.28-1.05.37-1.19.96-.2,3.03.84,3.67.05q.11.15,0,0c.09-.12-.08-.41,0-.58.08-.15-.08-.41,0-.58l3.45,2.87c-2.87-.11-4.1-.64-6.91,0v.02Z"/>
  <path class="cls-63" d="M68.53,86.06l-1.15.58c-.17.08-.43-.08-.58,0-1.1-.32-1.09-.83,0-1.15.73-1.76.78-2.03,2.87-1.73.08.11,1.15.08,1.45.53s-.44,1.59-.31,1.77c-.72.41-1.28.61-1.73.58-.12,0-.41-.57-.58-.58l.02-.02Z"/>
  <path class="cls-53" d="M42.05,81.47l-1.15-.58c.96-1.07,1.51-2.69,3.45-2.29.05,1.33-1.31,1.7-2.29,2.87h-.02Z"/>
  <path class="cls-142" d="M71.41,87.8c-.46,1.05-1.83,1.99-2.31,2.87-.44.03-.5-.21-.58-.58.69-1.18,1.42-2.87,2.87-2.87-.02.11,0,.58,0,.58h.02Z"/>
  <path class="cls-5" d="M65.65,87.78c-.46-1.59-1.12-2.74,1.15-2.87.06.12-.03.37,0,.58.05.37-.03.76,0,1.15-.17.09-.75,1.5-1.15,1.15Z"/>
  <path class="cls-1" d="M58.17,78.6l4.02,1.15c-1.01-.31-3.61.15-4.02-1.15Z"/>
  <path class="cls-127" d="M55.85,83.75c-.98.58-2.34.89-3.45,1.15.17-.38.4-.76.58-1.15.84-.26,2.46-1.13,2.6-1.13.35-.03.26.53.29.57.37.21.37.41,0,.58l-.02-.02Z"/>
  <path class="cls-133" d="M59.32,84.92v-1.15h1.73c-.2.84-.93,1.33-1.73,1.15Z"/>
  <path class="cls-62" d="M54.14,90.09v-1.73c.17-.03.41-.03.58,0,.23.92-.21,1.16-.58,1.73Z"/>
  <path class="cls-5" d="M67.37,86.65c-.05-.64.67-.63,1.15-.58-.17.61-.81.41-1.15.58Z"/>
  <path class="cls-5" d="M69.39,87.22l-.29-.57c.28,0,.93-.9,1.73-.58,0,0-1.44,1.15-1.44,1.15Z"/>
  <path class="cls-114" d="M52.99,67.66c-.14-.2-.44-.35-.58-.58h.58l.58.58h-.58Z"/>
  <path class="cls-54" d="M56.43,83.49c-.02.38-.46.23-.57.29v-.58s.58-.09.57.29Z"/>
  <path class="cls-49" d="M63.92,92.98c-.15-.03-.44-.03-.58,0v-.58c.17-.06.4.06.58,0v.58Z"/>
  <path class="cls-36" d="M90.95,79.73c1.15-.18,2.58-1.45,4.02-1.15l-4.02,1.73v-.58Z"/>
  <path class="cls-38" d="M89.24,79.74l.57.29v.86c-.6-.2-1.07-.53-1.73-.58-.64,1.1-1.31,1.3-1.73,0,1.18-.43.89-1.09,1.15-1.73.09.14.46.5.58.58.32.2.17.55,1.15.58h.02Z"/>
  <path class="cls-118" d="M107.63,72.84l.58.58c-3.3,3.81-2.58-.06-.58-.58Z"/>
  <path class="cls-56" d="M111.1,84.34c-.23.29-.41.31-.58,0-.28-.09-.49-.32-.58-.58,1.42-.38,1.96-1.16,1.73.58-.2,0-.4-.02-.58,0h.02Z"/>
  <path class="cls-99" d="M106.47,71.11c-.49.11-1.39-.15-1.73,0,.15-.23.47-.4.58-.58h.58c.21.14.41.52.58.58h-.02Z"/>
  <path class="cls-42" d="M108.8,73.42c-.21-.02-.43.05-.58,0-.35-.11-.61.02-.58-.58.32-.08.79.06,1.15,0v.58h.02Z"/>
  <path class="cls-71" d="M80.03,46.4c-.15-.58-1.09-.34-1.73-.58-.72-.26-1.28-.87-2.31-.58-.17-.12.46-.79.58-1.15.06-.17-.05-.4,0-.58.58-2.23.98-4.71,2.87-1.73.17,2.14,1.15,3.15.58,4.6v.02Z"/>
  <path class="cls-58" d="M74.86,57.89c-.55.57-.44,1.33-1.15,1.15.08-1.09-.46-2.81.57-3.45.29,2.12.93-3.04-.58-3.45.11-.52.61-1.54,1.15-1.73,1.33.75,1.45,2.25.58,3.45.57,1.19.4,2.74,0,4.02-.21.29-.41.29-.58,0l.02.02Z"/>
  <path class="cls-14" d="M77.75,53.29c.75.29.66.73,0,1.15-.23.52-.41.53-.58,0-.29.05-.49-.15-.58-.58-.15-1.38-.35-1.38-.58,0-.23.49-.41.5-.58,0-.08-1.19-.17-2.32-.58-3.45,1.3-.46,1.73,1.85,2.87,2.87l.03.02Z"/>
  <path class="cls-95" d="M78.9,53.87c-.5.11-.69-.09-.58-.58l1.73-3.45c1.24.32,1.36,1.34,1.71,2.29-1.09,1.7-2.05,2.28-2.87,1.73l.02.02Z"/>
  <path class="cls-13" d="M72.54,50.4c.44.38-3.16,2.55-4.02,2.29.23-.63,2.46-2.15,2.87-2.29.28-.09.78.03,1.15,0Z"/>
  <path class="cls-46" d="M74.28,55.6c0-.2.02-.4,0-.58l-.58-2.31c.02-.2-.03-.41,0-.58,2.17-.49.81,3.39,1.15,5.18h-.57c-.03-.58.03-1.16,0-1.73v.02Z"/>
  <path class="cls-137" d="M78.87,53.84c.44,1.62-.53,2.12-1.15.58v-1.15c.11.09.41-.08.58,0,.24.12.44.37.58.58l-.02-.02Z"/>
  <path class="cls-74" d="M77.72,46.38h.58c.23,1.64-.81,1.64-.58,0Z"/>
  <path class="cls-107" d="M79.46,46.67c.06-.17.52-.15.57-.29.44,1.68-1.04,1.38-.57.29Z"/>
  <path class="cls-59" d="M77.17,94.69c-.18-.06-.46.08-.58,0-.81-1.62-.79-3.58,0-5.18-.49-.2-.49-.38,0-.58-.08-1.18.46-1.48,1.15-.58,1.15.17,1.73.43.73.95.67,1.54.81,2.75.41,3.65.47.14.67.34.58.58.49.23.5.41,0,.58-.08,2.02-1.44,2.03-2.31.58h.02Z"/>
  <path class="cls-69" d="M74.27,94.71c-.03-.57.05-1.16,0-1.73s0-1.16,0-1.73c0-1.47.38-2.61,1.15-3.45h.58c1.21-.26,1.53.35.58,1.15v.58c-.52,1.47-.72,3-.58,4.6l-1.73.58Z"/>
  <path class="cls-20" d="M76.57,94.71c-.24-.17-.43-.34-.58-.58-.89-1.48-.9-3.5.58-4.6.09,1.71-.06,3.47,0,5.18Z"/>
  <path class="cls-15" d="M79.43,95.29c-.05.29.09.63,0,.86l-.57.29-.58-.58c-.28-.09-.79.06-1.15,0-.08-.32.06-.78,0-1.15,1.34.5,1.44,1.15,2.31-.58.9.29.78.66,0,1.15l-.02.02Z"/>
  <path class="cls-19" d="M70.25,94.71c-.2-.47-.53-.5-.58-.58-.09-.14.09-.46,0-.58l.58-1.15h.57c-.23,1.21,1.27,2.52,1.16,3.45-1.51.05-1.33-1.01-1.73-1.15Z"/>
  <path class="cls-20" d="M74.28,91.25v-2.87c.38-.12.75-.44,1.15-.58l-1.15,3.45Z"/>
  <path class="cls-106" d="M69.1,90.66c-.08.15.06.4,0,.58l-.58-.29v-.86l.58.58v-.02Z"/>
  <path class="cls-34" d="M86.32,87.78c.43-1.88,1.3-1.27,2.31,0,.76.08,1.56-.05,2.31,0-.12-1.36-2.63-1.47-2.87-1.73-1.3-1.36,1.59-1.07,1.73-1.15,2.38-.14,3.94-.63,6.33,0l.58.58c.26.11.79-.06,1.15,0,.95.83,1.74,1.22,2.87,1.73.34.15,1.71-.34,1.15.86-.9,1.9-3.12-.96-2.87,3.18v.58c-.35-.06-.87.09-1.15,0l-1.15-.58c-.38-.03-.76,0-1.15,0-.09.55.11,1.24,0,1.73-.37-.05-.81.08-1.15,0-.87-.2-1.45-.41-2.02-1.15l-1.71,1.71-4.32-5.75-.03-.02Z"/>
  <path class="cls-39" d="M86.37,87.8c-.2,0-.41.03-.58,0-1.45,0-4.23-.43-2.87-2.31-1.71.06-1.91-.32-.58-1.15.24-1.18.63-1.74,1.15-1.73.23-.49.41-.5.58,0,.21.96.78,1.54,1.73,1.73,1.53.31,2.22,2.02,2.87,3.45-1.33-.14-1.79.03-2.31,0h.02Z"/>
  <path class="cls-130" d="M87.52,82.02c-.55.87-3.45,1.25-3.45.58h-.58c-.86-.98-.24-1.9,1.15-1.73.69-.05,1.42-.58,1.73-.58.57-.02,1.16-.05,1.73,0v.58l-.58.58c-.03.18.03.4,0,.58l.02-.02Z"/>
  <path class="cls-143" d="M83.47,84.34l.58-1.73,3.45-.58c3.1.75.78.99-1.15,1.15-.44.05-.67.23-.58.58v.58c-.69-.12-1.57.11-2.31,0Z"/>
  <path class="cls-41" d="M85.77,83.75h-1.15v-.57c.57-.03,1.16.05,1.73,0l-.58.58v-.02Z"/>
  <path class="cls-38" d="M87.5,81.47l.58-.58c-.05.31-.58.58-.58.58Z"/>
  <path class="cls-82" d="M76.01,128.02c-1.53.06-3.07-.03-4.6,0,.37-.96.69-1.07,0-1.73-1.38-1.33-5.98-.23-8.05-.58-.41-1.94,1.15-.83,1.73-1.15,1.71-.32,3.06-.89,4.02-1.73-1.07-1.05-3.09-.52-4.6-.58-.38,0-.76.02-1.15,0-1.41-1.74,4.4-1.09,5.75-1.15,1.74-.08,2.06.52,2.87-1.44l-1.73-.86c2.67.09,5.39-.12,8.05,0,.2-.37.38-.37.58,0,.49.23.5.41,0,.58-1.16.15-1.07-.17-2.31.58-.37.32-.64.63-.58,1.15.84.53,1.9.63,2.87.58l5.18.58h-6.33c-.24.63.57,1.09.57,1.15v.58c0,.06-.81.52-.57,1.15l5.75.58c-2.84.55-7.43-1.71-7.47,2.31l.02-.03Z"/>
  <path class="cls-48" d="M69.08,122.89c2.45,2.38-2.02,1.68-4.02,1.73,1.02-.55,2.02-2.12,4.02-1.73Z"/>
  <path class="cls-110" d="M78.87,119.45v-.58h.58c.31.11.66-.03.58.57-.37.03-.78-.05-1.15,0l-.02.02Z"/>
  <path class="cls-25" d="M79.46,118.85c-.15-.05-.38.02-.58,0s-.4,0-.58,0l.29-.57.86.57h.02Z"/>
  <path class="cls-110" d="M76.57,120.01l-.58,1.15c-.09-.06-.61.08-.57-.29.28-.46.73-.61,1.15-.87v.02Z"/>
  <path class="cls-25" d="M124.02,75.71c.37.2.37.38,0,.58v-.58Z"/>
  <path class="cls-34" d="M84.67,73.42c-.03.47-.86,3.91-1.02,4.05-.34.26-.86.12-1.28-.02-.84-.49-1.6-1.07-2.31-1.73.17,1.3-.03,1.48-.58.58-.23.61-.53.79-1.15.58-1.36-.03-2.86-.17-4.48-.4l-.12-3.06q-.3-1,0,0c.66,1.99.46,2.95-.58,2.87-.21.29-.41.31-.58,0-.5.5-1.34.76-1.73,0-.49.09-.73.76-1.7.31-1.41-.69-3.06-3.64-4.05-4.92-.14-.17-.24-.69-.58-1.15-.96-1.28-2.06-2.6-3.45-3.45l-.57-1.73c.7.58,1.77.37,2.29.58.95.4,3.51,3.26,4.02,1.73.17-.5-.09-1.62,0-2.31,1.27-1.07,1.85,0,2.87.58.28.17,1.01.7,1.15.58l.58-2.87c1.09-.29.96.46,1.15.58,1.39-1.01,1.93-.47,1.73,1.15.81-1.71,1.77-3.06,2.87-4.02-.17-1.27.63-1.83,1.15-.58,1.36.73,2.63,3.47,1.73,4.6.57-.2,1.12.03,1.15.58.23-1.44.61-2,1.15-1.73,1.97-.46.93,1.83,1.16,3.45.75-.38,1.56-.73,2.29-1.15.4-.23,1.6-1.31,1.73-1.15.06.76-.34,2.14.58,2.31.75.14.9-.47,1.15-.58.43-.18.84-.46,1.15-.58,2.02-.78,1.86-1.19,4.02-.58-1.24.6-2.09,1.8-2.87,2.87-1.42,1.96-2.03,3.51-2.87,5.75-.64.46-.78.83-1.15,1.15-1.02.92-1.38,2.43-2.87,0-.72-.52-.18-1.6.58-1.73l-.58-.58h.05Z"/>
  <path class="cls-25" d="M76.57,60.75c-.4,1.33-1.33,3.73-2.31,4.6-.79-.38-1.12-.75-1.73-1.15,1.82-.69,1.04-3,1.16-4.6l1.15.58v-1.73c1.05-1.28,1.82-1.48,2.31-.58-.31-1.09-.64-2.64,0-3.45.11.05.41.02.58,0s.99-.44,1.15-.58c1.02-.92,1.05-2.23,1.16-2.31.34-.28,1.31.49,1.71.58.14.37.53.84.58,1.15.24,1.6,0,3.99,0,5.75.44.49.46,1.27,0,1.73v.58c.32.21.34.41,0,.58v.58c.2,1.65-.79,2.55-1.73.58-.9-.63-1.67-1.59-2.31-2.87-.55.17-1.13.35-1.73.58v-.02Z"/>
  <path class="cls-58" d="M73.7,52.72l.52.35c.2.63-.02,1.33.06,1.94-.81-.38-.64-1.57-.58-2.31v.02Z"/>
  <path class="cls-88" d="M77.14,57.87c-.18.79-1.71.12-2.31.58v-.58c.09-.09.49.09.58,0,.21-1.38.41-2.72.58-4.02l.29-1.16.29,1.16c.18,1.31.38,2.66.58,4.02h-.02Z"/>
  <path class="cls-50" d="M57.59,91.82c.06-.03.52-1.34,1.15-.29-.17.32-.57.29-.57.29h-.58Z"/>
  <path class="cls-23" d="M48.39,71.67v-1.15s-.11-.37.29-.57l.28,1.44c-.11.34-.31.26-.57.29v-.02Z"/>
  <path class="cls-138" d="M44.94,72.55c.05-.63.86.02.58.29-.14.12-.58-.09-.58-.29Z"/>
  <path class="cls-3" d="M85.22,89.49h-.58c-1.59.66-2.54-.15-2.87-1.73-.28.49-.47.52-.58,0-.4-.37-.4-.75,0-1.15-2.02-.9.49-2.26,1.73-1.15.29.44,2.46,2.22,2.87,2.31v.58c-.18,1.01-1.34-.12-1.27-.08.5.28,1.31.73.69,1.24l.02-.03Z"/>
  <path class="cls-25" d="M89.81,94.14c-.49-.57-1.1.03-1.15,0-.32-.23-1.22-1.67-1.73-2.31-.76-.47-1.36-1.45-1.73-2.31-.46-.44-1.91-.81-1.15-1.73.06-.06,1.65.53,1.73.58.87.6,3.51,4.63,4.02,5.75v.02Z"/>
  <path class="cls-85" d="M83.45,80.32c-.26.52-.46.53-.58,0-1.07,1.51-3.94-.2-4.02-1.73-1.3-.53-1.12-1.31.58-2.31.12-.08.47-.44.58-.58.72.53,1.48,1.12,2.31,1.73,1.16-1.3,1.65-.76,2.31.58.34-.03.99-.81,1.15-.58.49.5-2.09,2.81-2.29,2.87l-.03.02Z"/>
  <path class="cls-57" d="M84.63,78c-1.39.12-1.5-.35-2.31-.58l2.31-4.02c.34-.11.53.08.58.58,0,.18-.49,1.16-.58,1.73-.08.52-.79,1.19,0,2.31v-.02Z"/>
  <path class="cls-143" d="M83.47,82.6c-.37.66-.44,1.22-1.15,1.73-1.83-.37-1.22-3.97.58-4.02.14.03.46.05.58,0,.06.57.69.61,1.15.58-1.18.34-.92,1.31-1.15,1.73l-.02-.02Z"/>
  <path class="cls-34" d="M78.31,37.14c-.08.73.15,1.68,0,2.31-1.51-.76-.99-4-.58-5.75v-6.33c0-1.91-.03-3.84,0-5.75h1.15v.58c-.23,1.44-.41,2.78-.58,4.02.44,2.66.44,5.39,0,8.05v2.89l.02-.03Z"/>
  <path class="cls-30" d="M78.88,32c-.02.76.28,1.91-.58,2.31,0-2.67-.03-5.38,0-8.05.23-.49.41-.5.58,0,0,1.91.05,3.84,0,5.75h0Z"/>
  <path class="cls-101" d="M78.88,26.24h-.58c.02-1.25-.41-3.24.58-4.02v4.02Z"/>
  <path class="cls-25" d="M110.5,84.92v-.58c.15.05.43.02.58,0-.12.24-.32.49-.58.58Z"/>
  <path class="cls-25" d="M109.35,85.49c-.08-.64.38-.47.58-.58l-.58.58Z"/>
  <path class="cls-25" d="M81.75,93.54c-.32-.21-.32-.41,0-.58-.67.03-1.24.03-1.73,0-2.2-3.1-2.49-4.43,1.73-5.18,1.1.23,2.11.96,2.87,1.73.83.41,1.74,1.51,1.73,2.31.14.24.46,1.3.58,1.73l-1.44-.58c-1.39,1.54-2.49,2.81-3.74.58h0Z"/>
  <path class="cls-18" d="M79.45,95.27c.06-.35-.05-.78,0-1.15v-.58c.81-.5,1.57-.7,2.31-.58.08.15-.08.43,0,.58l-1.73,1.73h-.58Z"/>
  <path class="cls-25" d="M78.28,39.47c-.26,1.13-.58,0-1.15,0,.26-1.8-.64-4.39.58-5.75.02,1.8-.47,4.42.58,5.75h-.02Z"/>
  <path class="cls-30" d="M78.3,37.18v-2.31c0,.87.18.72,0,2.31Z"/>
  <path class="cls-61" d="M75.43,79.16l-.49-.99c-1.73.58-2.9.34-3.53-.73-.08-.34-.46-.76-.58-1.15,1.09-.21.37-.72,1.73,0,.23.28.43.28.58,0,.58-.9.61-1.85.58-2.87.66,2.05.96,3.33,3.45,2.87l.57-5.18c.2.64-.5,5.93.58,5.75q.11.15,0,0c-.05-.64.84-.4,1.15-.58l-.58,2.31c-.15,1.68-2.77,2.12-3.45.58Z"/>
  <path class="cls-85" d="M73.71,79.74c-1.8-.29-2.03-.84-2.31-2.31l5.75-.57-1.73,2.29c-.18,1.59-.64,1.71-1.73.58h.02Z"/>
  <path class="cls-91" d="M93.26,73.42c-.06.09-.47-.09-.58,0v-.58c.44-.03.63.15.58.58Z"/>
  <path class="cls-109" d="M82.32,60.76v-1.73c.87.08.87,1.65,0,1.73Z"/>
  <path class="cls-25" d="M81.17,65.93c-.76-.29-.58-.64,0-1.15-.96.14-1.45-1.42-.58-1.73,1.19,1.13,1.5-.5,1.73-.58s.79,0,1.15,0c-.02.11-.92,1.38-1.15,1.73-.35.55-.4,1.51-1.15,1.73Z"/>
  <polygon class="cls-109" points="82.88 61.62 82.32 61.91 82.32 61.33 82.88 61.62"/>
  <path class="cls-25" d="M96.72,85.49l-.58-.58c.18.05.4.5.58.58Z"/>
  <path class="cls-120" d="M53.01,69.11c-.05.63-.86-.02-.58-.29.14-.12.58.09.58.29Z"/>
  <path class="cls-25" d="M118.55,83.47c.05-.63.86.02.58.29-.14.12-.58-.09-.58-.29Z"/>
  <path class="cls-78" d="M59.61,65.35c.37.2.37.38,0,.58v-.58Z"/>
  <path class="cls-132" d="M76.56,45.8c.29.6-.29,1.45-.57,1.15-.43-.44.31-1.68.57-1.15Z"/>
  <path class="cls-25" d="M110.5,89.23c.05-.63.86.02.58.29-.14.12-.58-.09-.58-.29Z"/>
  <path class="cls-68" d="M81.17,102.76c.06-.57-.06-1.16,0-1.73l.58,1.15c.08.37-.29.61-.58.58Z"/>
  <path class="cls-113" d="M86.35,91.82c-.2-.35-1.45-2.03-1.73-2.31h.58c1.24,1.21,1.07,1.47,1.73,2.31h-.58Z"/>
  <path class="cls-25" d="M96.72,91.24c.98.08,1.15.58,1.15.58l-1.15-.58Z"/>
  <path class="cls-25" d="M117.41,78.29c.05-.63.86.02.58.29-.14.12-.58-.09-.58-.29Z"/>
  <path class="cls-51" d="M74.3,85.51c-.64-.69-2.17-1.94-2.31-2.87-.06-.43.32-1.33.58-1.73.05-.06,1.09-1.1,1.15-1.15.57-.37,1.12-.43,1.73-.58.41-.11,3.29-.6,3.45-.58,1.65.17,2.84,1.51,4.02,1.73-.21.79-.66,3.45-.58,4.02-.6,1.04-2.4,2.63-3.51.99-1.18.49-3.29.55-4.54.15l.02.02Z"/>
  <path class="cls-20" d="M77.7,88.36c-.38.17-.75.41-1.15.58-.03-.24-.6-.98-.58-1.15.03-.2-.05-.55,0-.58.55-.63.35-.81-.58-.58-.52-.44-.72-.67-1.15-1.15l3.45-.58-.57-2.29c1.88-.41.86,1.96,2.28,2.61.47.21,2.45-.55,2.9-.89.03.21.41.9.58,1.15-1.25-.15-1.85-.21-1.73,1.15-.93.55-2.08,1.13-3.45,1.73h-.02Z"/>
  <path class="cls-37" d="M75.41,86.64l.29-.57c.87-.35,2.17.24,1.44,1.15-.11.12-.92-.12-1.15,0-.17-.23-.37-.4-.58-.58Z"/>
  <path class="cls-5" d="M72.26,84.33c.37.2.37.38,0,.58v-.58Z"/>
  <path class="cls-103" d="M46.1,74.85c-.05.63-.86-.02-.58-.29.14-.12.58.09.58.29Z"/>
  <path class="cls-31" d="M75.41,57.87c-.05-1.33.08-2.69,0-4.02h.58c-.12,1.5.5,2.87-.58,4.02Z"/>
  <path class="cls-16" d="M77.15,54.42c-.15,1.05.21,2.51,0,3.45-1.1-.81-.44-2.77-.58-4.02.35.03.58.58.58.58v-.02Z"/>
  <path class="cls-26" d="M78.88,96.43l-.58-.58c.24.09.46.35.58.58Z"/>
  <path class="cls-96" d="M80.01,92.96c-.32.46-.73.38-1.15,0-.11-.24-1.15-4.37-1.15-4.6.41-1.83,2.72-1.33,3.45-.58.2.02.4-.03.58,0,1.38,2.06-1.93.17.58,2.87-1.94.12-1.21-2.41-3.45-1.71l1.15,4.02h-.02Z"/>
  <path class="cls-15" d="M81.77,92.96c-.67.38-1.54.7-2.31.58-.5-.09-.41-.2-.58-.58.37-.06.83.08,1.15,0,.89-.23,1.07-1.12,1.73,0h.02Z"/>
  <path class="cls-92" d="M81.16,64.78c-.11.75-.63,1.13-1.15.58-.69-.87-.23-3.24-1.73-4.6-.49-.23-.5-.41,0-.58.98,1.12,1.48,1.07,2.31,2.87.17.35.49,1.33.58,1.73h-.02Z"/>
  <path class="cls-27" d="M77.14,61.33c-1.05,1.27-1.67,2.95-1.73,4.6-.12.14-.81-.41-1.15-.58.24-1.82,1.34-3.13,2.31-4.6,1.02-.52,1.34-.23.58.58h-.02Z"/>
  <path class="cls-100" d="M80.01,75.71c1.22-1.59-.18-3.27,1.15-4.02,0,2.17-.41,4.03,1.16,5.75-1.19-.34-1.83.55-2.31-1.73Z"/>
  <path class="cls-124" d="M77.15,61.34l-.58-.58c.4-.61.61-2.66,1.73-1.73.14.12-.12.99,0,1.15v.58c-.55-.03-.81.18-1.15.58Z"/>
  <path class="cls-117" d="M81.17,65.94c-.86.24-.81-.15-1.15-.58l1.15-.58c.08.32-.05.78,0,1.15v.02Z"/>
  <path class="cls-112" d="M73.13,71.69h.57c.09.53-.14,1.3,0,1.73,0-.09-.93-1.01-.57-1.73Z"/>
  <path class="cls-65" d="M85.21,74c-.02-.09-.47-.35-.58-.58l.58-.58v1.16Z"/>
  <path class="cls-85" d="M72.54,76.29h.58c-.26,1.18-.46.06-.58,0Z"/>
  <path class="cls-102" d="M77.72,88.38c-.05-.76.73-1.94.58-2.87,1.65,1.15.47,2.17,2.87,1.15,0,.08,1.05-.08,0,1.15-.7-.08-2.7.26-3.45.58Z"/>
  <path class="cls-85" d="M78.88,77.15c-.05.63-.86-.02-.58-.29.14-.12.58.09.58.29Z"/>
  <path class="cls-85" d="M78.01,78c.37.2.37.38,0,.58v-.58Z"/>
</svg>