<?xml version="1.0" encoding="UTF-8"?>
<svg id="Livello_1" data-name="Livello 1" xmlns="http://www.w3.org/2000/svg" viewBox="0 0 141.73 141.73">
  <defs>
    <style>
      .cls-1 {
        fill: #a9a8a9;
      }

      .cls-2 {
        fill: #b3b2b1;
      }

      .cls-3 {
        fill: #8f8b93;
      }

      .cls-4 {
        fill: #fafafa;
      }

      .cls-5 {
        fill: #ababac;
      }

      .cls-6 {
        fill: #cccaca;
      }

      .cls-7 {
        fill: #bab9bc;
      }

      .cls-8 {
        fill: #ebebec;
      }

      .cls-9 {
        fill: #83848b;
      }

      .cls-10 {
        fill: #a5a4a5;
      }

      .cls-11 {
        fill: #fbfafa;
      }

      .cls-12 {
        fill: #d8d6d8;
      }

      .cls-13 {
        fill: #efeeed;
      }

      .cls-14 {
        fill: #9c9b9e;
      }

      .cls-15 {
        fill: #cccbcd;
      }

      .cls-16 {
        fill: #bdbbbd;
      }

      .cls-17 {
        fill: #8a848b;
      }

      .cls-18 {
        fill: #98979b;
      }

      .cls-19 {
        fill: #fefefe;
      }

      .cls-20 {
        fill: #a3a1a1;
      }

      .cls-21 {
        fill: #faf9fa;
      }

      .cls-22 {
        fill: #8e8a94;
      }

      .cls-23 {
        fill: #807e83;
      }

      .cls-24 {
        fill: #9e9a9f;
      }

      .cls-25 {
        fill: #f0f0f0;
      }

      .cls-26 {
        fill: #8a8c8b;
      }

      .cls-27 {
        fill: #838083;
      }

      .cls-28 {
        fill: #f8f7f7;
      }

      .cls-29 {
        fill: #bebdc0;
      }

      .cls-30 {
        fill: #b9b6ba;
      }

      .cls-31 {
        fill: #a9a5aa;
      }

      .cls-32 {
        fill: #dfdfe2;
      }

      .cls-33 {
        fill: #eeeded;
      }

      .cls-34 {
        fill: #b8b6b7;
      }

      .cls-35 {
        fill: #a7a2a7;
      }

      .cls-36 {
        fill: #a09da5;
      }

      .cls-37 {
        fill: #b2b2b6;
      }

      .cls-38 {
        fill: #98979e;
      }

      .cls-39 {
        fill: #858288;
      }

      .cls-40 {
        fill: #a6a6aa;
      }

      .cls-41 {
        fill: #f2f1f2;
      }

      .cls-42 {
        fill: #bababc;
      }

      .cls-43 {
        fill: #aeaeb3;
      }

      .cls-44 {
        fill: #bebbbe;
      }

      .cls-45 {
        fill: #fff;
      }

      .cls-46 {
        fill: #fbfbfb;
      }

      .cls-47 {
        fill: #f6f4f5;
      }

      .cls-48 {
        fill: #98949a;
      }

      .cls-49 {
        fill: #9f9aa3;
      }

      .cls-50 {
        fill: #a59fa5;
      }

      .cls-51 {
        fill: #f3f3f3;
      }

      .cls-52 {
        fill: #e2e2e2;
      }

      .cls-53 {
        fill: #bab8bc;
      }

      .cls-54 {
        fill: #bbb9bc;
      }

      .cls-55 {
        fill: #a5a3a8;
      }

      .cls-56 {
        fill: #e9e9eb;
      }

      .cls-57 {
        fill: #8d8a8f;
      }

      .cls-58 {
        fill: #afafb1;
      }

      .cls-59 {
        fill: #b4b2b3;
      }

      .cls-60 {
        fill: #afaeaf;
      }

      .cls-61 {
        fill: #d8d6d9;
      }

      .cls-62 {
        fill: #a6a5a8;
      }

      .cls-63 {
        fill: #abaaad;
      }

      .cls-64 {
        fill: #8d898f;
      }

      .cls-65 {
        fill: #aaa9ab;
      }

      .cls-66 {
        fill: #87838b;
      }

      .cls-67 {
        fill: #97979c;
      }

      .cls-68 {
        fill: #88858c;
      }

      .cls-69 {
        fill: #f0eff0;
      }

      .cls-70 {
        fill: #a9a7aa;
      }

      .cls-71 {
        fill: #8e8c91;
      }

      .cls-72 {
        fill: #949297;
      }

      .cls-73 {
        fill: #b0afb2;
      }

      .cls-74 {
        fill: #88888c;
      }

      .cls-75 {
        fill: #eae9eb;
      }

      .cls-76 {
        fill: #8e8c90;
      }

      .cls-77 {
        fill: #f0f0f1;
      }

      .cls-78 {
        fill: #d2d0d1;
      }

      .cls-79 {
        fill: #c4c3c5;
      }

      .cls-80 {
        fill: #afacaf;
      }

      .cls-81 {
        fill: #888589;
      }

      .cls-82 {
        fill: #96969b;
      }

      .cls-83 {
        fill: #9c9a9d;
      }

      .cls-84 {
        fill: #89888b;
      }

      .cls-85 {
        fill: #cdcacc;
      }

      .cls-86 {
        fill: #99989d;
      }

      .cls-87 {
        fill: #a09ca3;
      }

      .cls-88 {
        fill: #a8a7aa;
      }

      .cls-89 {
        fill: #a2a1a5;
      }

      .cls-90 {
        fill: #bcbcbf;
      }

      .cls-91 {
        fill: #f8f7f9;
      }

      .cls-92 {
        fill: #98969a;
      }

      .cls-93 {
        fill: #b5b1b7;
      }

      .cls-94 {
        fill: #acaaaf;
      }

      .cls-95 {
        fill: #c7c6c7;
      }

      .cls-96 {
        fill: #bebbbc;
      }

      .cls-97 {
        fill: #cac9ca;
      }

      .cls-98 {
        fill: #95959a;
      }

      .cls-99 {
        fill: #acaaad;
      }

      .cls-100 {
        fill: #b4b2b4;
      }

      .cls-101 {
        fill: #e4e3e4;
      }

      .cls-102 {
        fill: #8d8b8e;
      }

      .cls-103 {
        fill: #959395;
      }

      .cls-104 {
        fill: #b5b5ba;
      }

      .cls-105 {
        fill: #9a9999;
      }

      .cls-106 {
        fill: #c6c5c7;
      }

      .cls-107 {
        fill: #f9f9fa;
      }

      .cls-108 {
        fill: #dcdbdd;
      }

      .cls-109 {
        fill: #dbd9db;
      }

      .cls-110 {
        fill: #e9e9e9;
      }

      .cls-111 {
        fill: #99979b;
      }

      .cls-112 {
        fill: #e0e0e1;
      }

      .cls-113 {
        fill: #e5e5e6;
      }

      .cls-114 {
        fill: #a4a3a8;
      }

      .cls-115 {
        fill: #aeadb3;
      }

      .cls-116 {
        fill: #e7e6e7;
      }

      .cls-117 {
        fill: #a4a3a7;
      }

      .cls-118 {
        fill: #bebdbe;
      }

      .cls-119 {
        fill: #8a868b;
      }

      .cls-120 {
        fill: #aba7ab;
      }

      .cls-121 {
        fill: #b1adb2;
      }

      .cls-122 {
        fill: #a29fa3;
      }

      .cls-123 {
        fill: #aaaaab;
      }

      .cls-124 {
        fill: #f9f9f9;
      }

      .cls-125 {
        fill: #9d98a0;
      }

      .cls-126 {
        fill: #9d999f;
      }

      .cls-127 {
        fill: #959398;
      }

      .cls-128 {
        fill: #b9b8ba;
      }

      .cls-129 {
        fill: #a8a6ac;
      }

      .cls-130 {
        fill: #9e9ca2;
      }

      .cls-131 {
        fill: #b2afb3;
      }

      .cls-132 {
        fill: #b1afb1;
      }

      .cls-133 {
        fill: #9a999d;
      }

      .cls-134 {
        fill: #86868d;
      }

      .cls-135 {
        fill: #cbc8ca;
      }

      .cls-136 {
        fill: #bab7ba;
      }

      .cls-137 {
        fill: #e8e7e8;
      }

      .cls-138 {
        fill: #878689;
      }

      .cls-139 {
        fill: #bbb9b9;
      }

      .cls-140 {
        fill: #a5a3a4;
      }

      .cls-141 {
        fill: #edebec;
      }

      .cls-142 {
        fill: #dadadb;
      }

      .cls-143 {
        fill: #8c898e;
      }

      .cls-144 {
        fill: #aba5a7;
      }

      .cls-145 {
        fill: #efeeef;
      }

      .cls-146 {
        fill: #bebcbd;
      }

      .cls-147 {
        fill: #bcbabb;
      }

      .cls-148 {
        fill: #cdcccd;
      }

      .cls-149 {
        fill: #f1f1f1;
      }

      .cls-150 {
        fill: #9e9aa0;
      }

      .cls-151 {
        fill: #c8c4c7;
      }

      .cls-152 {
        fill: #f4f3f4;
      }

      .cls-153 {
        fill: #a09d9f;
      }
    </style>
  </defs>
  <path class="cls-137" d="M93.39,93.12l1.74,4.36c1.5,2.33,2.53,5.2,1.74,7.86,1.89,4.6,2.49,5.2,1.74,1.74l.04-5.66c-.79-1.98-.51-3.3.84-3.96.24-.77.55-.75.88,0,.37,4.82.66,9.78.88,14.86-.11,1.15-.75,1.94-.88,2.62l.46,11.12c.15,2.07-.29,3.02-1.34,2.86-2.4.9-2.95-1.1-.88-2.62.29-5-.29-9.95-1.74-14.86-.64-1.81-.92-3.57-.88-5.24-.97-1.43-1.92-3.55-1.74-5.24-1.01-2.2-1.87-4.51-2.62-7-.59-.92-1.15-2.25,0-2.62.62-.2,1.21.37,1.74,1.74l.02.04Z"/>
  <path class="cls-19" d="M75.9,50.29c.77.24.75.55,0,.88,3.15.44,5.48,1.61,6.98,3.5l-.86.86c1.74-.18,2.16,1.23,2.62,2.64-2.07.02-6.43-1.98-7.86-3.5-1.54.59-3.3.88-5.24.88-3.04,3.22-3.92-5.29.88-3.5.22-.79.53-.77.88,0l.88-1.74c.46-2.29,1.06-2.29,1.74,0l-.02-.02Z"/>
  <path class="cls-114" d="M100.37,73.01l.88,12.24v.88c-.29,2.31-1.08,2.22-1.74,0-2.75-3.19-2.36-12.33,0-15.72-2.05-.31-4.27-4.84-2.6-5.17.57-.11,1.7,1.94-.88-.07-.77-.24-.75-.55,0-.88,1.28-.11,3.11-3.02,2.62,1.74h.86c.04-1.74-.04-3.5,0-5.24.24-.77.55-.75.88,0-.02,4.07,0,8.17,0,12.24l-.02-.02Z"/>
  <path class="cls-52" d="M84.64,45.91c1.12.46,1.04,1.23,0,1.74.09.55-.07,1.19,0,1.74-.59.62-1.21.64-1.74,0q-1.98-.48,0,0c.77.24.75.55,0,.88,0,2.18-7.99.48-5.24-1.74-.04-.68.24-1.26.88-1.74-1.48-1.08,1.37-2.11,2.62-1.74,1.7-.15,2.86.13,3.5.88l-.02-.02Z"/>
  <path class="cls-80" d="M90.77,55.53c.24-.77.55-.75.88,0-1.39,4.03-6.61.04-8.74-.88-2.36-1.04-4.62-2.88-7.86-2.64l.88-.86c1.06-1.43,5.99-.09,8.26.64,1.65.53,5.13,2.71,6.58,3.74Z"/>
  <path class="cls-79" d="M89.03,25.8c-.46,4.87-3.08,7.82-4.36,12.24-.13,1.23-.9,2.07-1.74.88h-.88c-.33-.95.81-2.11,1.74-2.62,1.01-3.26,2.05-6.61,3.11-10.02l1.26-.46c.24-.77.55-.75.88,0v-.02Z"/>
  <path class="cls-60" d="M84.64,58.15c2.16,1.28,5.04,5.35,8.74,6.12.57.46.29.75-.88.88l-1.39,1.43c-4.78-3.37-9.56-6.78-14.34-10.17-.75-.22-.73-.51,0-.88-.77-.24-.75-.55,0-.88.92.15,6.8,2.86,7.86,3.5Z"/>
  <path class="cls-14" d="M89.03,25.8h-.88c-2.14-1.83-3.13-8.65-.88-10.48-.11-.73.29-.77.88-.88.73,3.72,1.23,7.55.88,11.36Z"/>
  <path class="cls-127" d="M84.64,49.41c3.13.37,6.28-1.52,6.98,2.62-.24.77-.55.75-.88,0-3.44.62-6.06.02-7.86-1.74v-.88c.57.04,1.19-.07,1.74,0h.02Z"/>
  <path class="cls-56" d="M85.53,38.04c-.24,1.23-.84,2.4-1.74,3.5.51,1.21-.57,2.6-1.74,1.74-3.48-.22-1.5-3.39.88-4.36.26-.33,1.3-.53,1.74-.88h.88-.02Z"/>
  <path class="cls-90" d="M89.03,41.55c1.26.92-.37,2.29-1.74,2.62l-.88.88h-.88c-.75.64-1.63.11-1.74-.88-.81-.99-.37-1.59.88-1.74.84-.77,1.7-1.06,2.62-.88.44-.37,1.23-.53,1.74-.88,0,0,0,.88,0,.88Z"/>
  <path class="cls-113" d="M87.26,39.78c-.13.44.09,1.21,0,1.74-.79.66-.66,2.49-2.62.88-.15-.77-.15-1.34,0-1.74.29-2.58,3.39-3.94,2.62-.88Z"/>
  <path class="cls-29" d="M89.03,44.17c-1.32,1.26-2.03,3.06-4.36,3.5-.07-.37-.9-.46,0-1.74l1.74-.88.88-.88c1.3-1.28,1.87-1.28,1.74,0Z"/>
  <path class="cls-79" d="M94.27,32.8c.07,2.97-2.33,7.91-5.24,8.74v-.88l4.36-7.86c.26-.48.55-.46.88,0Z"/>
  <path class="cls-35" d="M93.39,32.8c1.54-2.75,5.57-12.4,3.5-1.74h-1.74c.59,1.1.37,1.78-.88,1.74,0,0-.88,0-.88,0Z"/>
  <path class="cls-7" d="M96.89,33.68c-1.21,3.79-3.08,5.24-5.24,7.86-.77-1.96,2.58-7.22,4.36-8.74.44-.48.73-.18.88.88Z"/>
  <path class="cls-148" d="M87.26,37.16c2.07,1.08.26,1.76,0,2.62-.9-2.2-1.87-.18-2.62.88.44.77,0,1.1-.88.88.46-.62.68-2.29,1.74-3.5.26-.31.35-.73.88-.88.37.37.66.37.88,0Z"/>
  <path class="cls-22" d="M91.65,55.53h-.88c-2.55,0-2.44-2.93,0-3.5h.88c.11.62.15,3.08,0,3.5Z"/>
  <path class="cls-71" d="M96.01,64.27v.88c.04,2.73-2.88,2.53-3.5,0l.88-.88c.62.13,1.89.07,2.62,0Z"/>
  <path class="cls-87" d="M96.89,33.68l-.88-.88c-1.26.15-.88-1.04,0-1.74.24-.77.55-.75.88,0-.15.79.2,1.98,0,2.62Z"/>
  <path class="cls-99" d="M89.03,44.17c-.68-.95-.24-1.34.88-.88-.29.29-.57.59-.88.88Z"/>
  <path class="cls-62" d="M89.89,43.29c-.22-.79.07-1.08.88-.88-.29.31-.57.59-.88.88Z"/>
  <path class="cls-140" d="M90.77,42.4c-.22-.84.07-1.12.88-.88-.26.31-.59.57-.88.88Z"/>
  <path class="cls-26" d="M86.38,37.16c.15-.04.75-.07.88,0l-.44.86-.44-.86Z"/>
  <path class="cls-19" d="M97.75,71.25c.84-2,1.41-2.29,1.74-.88.46,4.82-.04,10.72,0,15.72.04,3.79,0,7.58,0,11.36,0,3.02.73,7.31-.88,9.62-.99-.4-1.48-1.74-.88-2.62-.57-2.31-1.45-4.65-2.62-7l-1.74-4.36c-3.55-7.86-6.91-15.77-10.15-23.74l.55-.73c-1.59-2.09-1.59-3.26,0-3.5.29-.77.57-.77.88,0,4.03,3.94,8.15,5.29,13.1,6.12Z"/>
  <path class="cls-95" d="M85.53,77.37c1.85,2.88,3.3,6.1,4.36,9.62l1.74,4.36c.13.81-.15,1.83,0,2.62v.88c-2-4.01-3.81-8.17-5.66-12.24-1.01-2.22-.64-5.88-3.06-5.24-.66-.86-.33-2.07.88-1.74.95-.79,1.85.68,1.74,1.74Z"/>
  <path class="cls-128" d="M83.76,68.63c1.3,6.1,7.25,16.96,9.6,24.47-.44-.64-1.3-1.12-1.74-1.74l-1.74-4.36c-1.37-3.19-2.53-6.41-3.5-9.62-2.05-1.5-2.99-3.74-3.5-6.12-1.21-1.54-1.5-2.71-.88-3.5-1.12-3.39,1.37-2.11,1.74.88h.02Z"/>
  <path class="cls-28" d="M80.28,33.68c1.92.7,1.98,3.37.2,7.99l1.54,1.63c1.01-.7,1.04-.84,1.74-1.74.29-.29.64-.55.88-.88l.86.44c-.26.44-.64.86-.86,1.32-.26.59-.59,1.17-.88,1.74.57,1.39-1.48,1.32-2.62.88-1.39.44-2.47,1.7-2.62,1.74-1.48,1.72-3.22,2.88-5.24,3.5.75.29.48,1.23,0,1.74-.26.11-.66-.11-.88,0-.77-.24-.75-.55,0-.88l-1.74-1.74c-1.23-2.2-1.23-3.66,0-4.36l.88-.88c-.77-.24-.75-.55,0-.88.73-.35,1.59-.35,2.62,0-.44-1.89-.15-3.04.88-3.5-.86-1.01-.37-1.52.88-.88.24-3.08,2.58-4.23,1.74-.88.77-.31,1.63-1.48,2.62-3.5-.75-.22-.73-.51,0-.88v.02Z"/>
  <path class="cls-45" d="M77.66,48.53c-.75,2.77,2.77,1.65,5.24,1.74,2.64.11,6.56-1.04,7.86,1.74v3.5c-4.87,1.85-8.81-5.53-14.84-4.36v-.88c-1.12-2.05-.51-2.95,1.74-1.74Z"/>
  <path class="cls-42" d="M71.54,51.15c.24-.77.55-.75.88,0v.88c-.53.31-2.11,0-2.62,1.32-1.08,2.84,1.06,1.85,1.74,2.18,1.23-.55,2.11-.59,1.74.88.66,2.42-1.23,2.93-2.62.88-.42.95-2.42,1.39-2.62,0-.46-.29-.46-.57,0-.88l.24-1.67c-1.61-2.27-1.7-3.74-.24-4.45v-.88c1.26.18,2.42.75,3.5,1.74Z"/>
  <path class="cls-58" d="M78.52,46.79c1.43.88.4.79-.88,1.74-1.48,1.12-1.63,1.65-1.74,1.74-.24.18-1.26-.11-1.74,0-.24.77-.55.75-.88,0,.18-.37,1.43-.7,1.52-1.01.24-.75-1.01-2.16-.66-2.49.33-.31,3.37.26,4.36,0l.02.02Z"/>
  <path class="cls-65" d="M76.78,54.65v.88c-.75,2.29-1.78,2.75-3.5.88-.95-.99-1.12-.59-1.74-.88.77-1.28,3.83-1.1,5.24-.88Z"/>
  <path class="cls-45" d="M73.28,52.03c.11-.53-.18-1.41,0-1.74h.88c.09.92.07,1.37-.88,1.74Z"/>
  <path class="cls-11" d="M92.51,65.13c.77.15,2.66.11,3.5,0,.42-.07,1.48-1.19,1.74-.88.07,2.18,1.54,4.01,1.76,6.12-.55.18-1.28.84-1.74.88l-.79-.97c-4.23,1.15-9.25-1.76-11.45-5.13-1.17-.18-1.5-.64-1.74-1.74l-.88-.88-.88-.88c-.57,0-.86-.31-.88-.88l-.88-.88c-1.63-.53-2.8-1.41-3.5-2.62-.79-.22-.77-.51,0-.88,6.06-.07,10.26,7.66,15.72,8.74h.02Z"/>
  <path class="cls-38" d="M85.53,45.05l-.88.88c-1.04.15-2.97.31-3.5-.88.77-.24,2.05-.79,2.62-.88s1.83.07,1.74.88h.02Z"/>
  <path class="cls-82" d="M82.9,49.41h-3.48v-.86c1.54-.73,3.11.84,3.5.86h-.02Z"/>
  <path class="cls-46" d="M84.64,14.44c.92.09,1.81.4,2.62.88.57,3.44,1.32,6.98.88,10.48-.35,2.82-2.91,7.86-4.36,10.48-.26.42-.55.4-.88,0-1.08-1.17-.48-2.91,1.74-5.24l.07-5.75c-1.78-3.94-2.38-7.55-1.83-10.86.57,0,1.19-.07,1.74,0h.02Z"/>
  <path class="cls-110" d="M83.76,36.31c-.51.9-1.23,1.72-1.74,2.62-1.78,4.73-2.05-3.24.88-2.62h.88-.02Z"/>
  <path class="cls-104" d="M82.9,36.31c-.44.99-2.31,1.76-1.74,3.5l.86-.88h.88c-.88,1.08-1.96,3.24-.88,4.36-1.78,1.23-3.9,1.94-6.12,1.74,2.8-2.29,6.5-7.58,4.36-11.36-1.26-.53-1.26-1.23,0-1.74l2.62,1.74c-.11-.99.59-1.76.88-2.62.24-.77.55-.75.88,0-.37,1.54-1.12,3.83-1.74,5.24v.02Z"/>
  <path class="cls-51" d="M96.01,32.8c-.66,2.03-3.13,7.02-4.36,8.74-.2.29-.59.55-.88.88-.24.29-.59.66-.88.88-.33.26-.62.73-.88.88-.33.2-1.41-.2-1.74,0,.62-.62,1.17-1.83,1.74-2.62,2.09-2.8,3.61-5.68,5.24-8.74.31-.59.57-1.17.88-1.74.24-.77.55-.75.88,0-.09.55.15,1.3,0,1.74v-.02Z"/>
  <path class="cls-75" d="M86.38,45.05c-.66.42-.55.7-1.74.88.26-.4.48-.59.88-.88.2-.13.64.13.88,0h-.02Z"/>
  <path class="cls-77" d="M86.38,45.05c.29-.15.53-.66.88-.88-.26.29-.57.68-.88.88Z"/>
  <path class="cls-109" d="M96.89,31.04h-1.74c.42-.81.11-2.49,1.74-2.62v2.62Z"/>
  <path class="cls-55" d="M84.64,31.04h-.88c2.64-7.99-3.22-9.45-1.74-16.6h.88c.07,7.53,3.72,8.35,1.74,16.6Z"/>
  <path class="cls-19" d="M73.28,56.41c2.07-.55,2.93.62,2.62,3.5l.88.88v.88c1.45-.73,1.98,2.75.88,3.5,1.41-.18,1.39,1.48.88,2.62,2.07,1.76,4.73,4.1,3.5,7,1.23.66,1.01,1.81,0,2.62-.18,3.9-2.22,7.4-6.12,10.48,1.59,3.77-2.51,3.99-2.62-.88-1.28-4.47-.99-8.26.88-11.36,0-.62-.29-.92-.88-.88.4,1.28-.33,4.34-1.74,4.36.31,1.06.15,1.37-.88.88.46,2.8.86,6.21,0,8.74.79,2.31,1.54,5.04,0,7-2.64,4.25-5.86,7.16-9.6,8.74l-4.36,3.5c-.35.77-1.04.53-1.74,0-.77-.75-1.06-2.2-.88-4.36-1.37-.31-1.81-3.24-.88-3.5-.7-.46-1.28-.46-1.74,0,.2,1.3-1.48,2.64-2.62,2.62-3.99-.42-5.13-2.66-4.36-6.54.48-2.38,2.55-2.77,3.06-3.99,1.41-3.35.18-1.43,2.58-5.24.35-.55,1.3-5.09,1.19-5.59-.62-2.62-7.31-2.62-8.59-4.01,1.48-.55,4.21-.97,6.12-.88,1.41-.99,3.66-1.45,5.24-.88,0-1.26,3.02-2.95,4.36-2.62-1.32-1.87-.75-2.47,1.74-1.74l3.06-4.36c-.33-1.37-.57-3.88,1.32-4.38v-.88c.24-.77.55-.75.88,0,.81.09,1.17.92.88,1.74.9.97.88,4.03,0,5.24-.64,2.11-1.21,4.45-1.74,7,.75-.53,1.63,0,1.74.88,1.52-.26,3.26-2,5.24-5.24-.2-.15-.37-.29-.42-.46-.66-3.3-1.59-8.19-1.34-10.9-.35-.57-.07-1.17.88-1.74-.77-.24-.75-.55,0-.88.53-.09,1.81-.64,2.62-.88h-.04Z"/>
  <path class="cls-19" d="M51.46,67.77c1.45-.84,1.89-.57.88.88.22.79-.09,1.08-.88.88.7.99,1.3,1.87,1.74,2.62,2.38-1.56,3.55-1.56,3.5,0,.53,1.67-2.53,3.33-3.5,1.74-1.83.68-5.13,1.56-5.24-.88-.24.42-.53.4-.88,0v-.88c-2.22-.86-2.82-1.74-1.74-2.62,1.21-.51,3.24-1.5,4.36-1.74.29-.53.57-.53.88,0,.18-.66.46-.64.88,0Z"/>
  <path class="cls-139" d="M44.46,69.51c.24-.11.62.11.88,0,.51.9,1.23,1.72,1.74,2.62-.26.4-.55.4-.88,0l-1.45,2.33c1.83-.4,3.17,0,4.07,1.17.77.24.75.55,0,.88-1.67.31-3.68,1.61-6.12.88-1.52-1.67-1.28-6.69.88-7.86.35.42.64.42.88,0v-.02Z"/>
  <path class="cls-24" d="M43.6,59.03c.88-1.32,2.25-.57,1.74.88-1.1,1.54-2.27,3.02-3.5,4.36-.9-1.89-1.23-2.91-.88-5.24.86.04,1.76-.09,2.62,0h.02Z"/>
  <path class="cls-126" d="M50.58,66.89c.77.24.75.55,0,.88-.29.04-.59-.07-.88,0-3.61.64-3.94-.15-6.12-1.74,1.3-1.96,6.25-1.37,6.98.88l.02-.02Z"/>
  <path class="cls-132" d="M44.46,56.41c-.24.75-.53.73-.88,0-.24-.2-.75-.7-.88-.88-.55-.29-.55-.59,0-.88-.2-.26.24-.95-.88-1.74-.09-.55.11-1.26,0-1.74.24-.77.55-.75.88,0,2.66.53,4.51,4.03,1.74,5.24h.02Z"/>
  <path class="cls-142" d="M46.22,58.15l.88.88c.77.26.77.57,0,.88.77.24.75.55,0,.88h-.88l-.88-.88c-.18-.04-.55-.73-1.74-.88v-.88c-.53-.81-.09-1.1.88-.88l1.74.88Z"/>
  <path class="cls-19" d="M44.46,56.41v.88c-.04.4-.48.77-.88.88l-.81-1.21.81-.55c.15.15.75-.15.88,0Z"/>
  <path class="cls-27" d="M43.6,69.51c.22-.11.64.11.88,0l-.44.86s-.44-.86-.44-.86Z"/>
  <path class="cls-103" d="M43.6,66.01c-.77-.55-1.3-.79-1.74-1.74,2.16-1.19,2.71-.48,1.74,1.74Z"/>
  <path class="cls-135" d="M82.9,77.37c-.24,2.75-.07,3.35-.88,6.12-.88,1.28-1.17.99-.88-.88l-.88,1.74c-1.39,3.06-2.84,4.23-4.36,3.5,1.7-2.62,5.51-7.66,6.12-10.48.24-.77.55-.75.88,0Z"/>
  <path class="cls-53" d="M82.02,83.5c-1.19,4.01-3.41,8.15-6.98,10.48-.77-.18-.75-.46,0-.88-.86-1.76-.7-2.4.97-3.15l4.27-5.59.88-1.74.88.88h-.02Z"/>
  <path class="cls-40" d="M75.04,93.12c.07.24-.02.57,0,.88.24,2.51-.22,4.62-.88,7h-.88c-.24-2.93-.24-5.84,0-8.74-.9-.62-.97-1.26,0-1.74,2.53-.57,3.13.35,1.74,2.62l.02-.02Z"/>
  <path class="cls-15" d="M76.78,55.53c-.04.29.04.59,0,.88-.04.24-.02.62,0,.88.4.86,1.56,1.74,3.5,2.62l.88.88v.88l2.62,3.5c.2,1.06-.22,2.49,0,3.5-.88-.99-1.1-2.84-1.74-.88-1.28.24-2.14-.92-2.62-3.5-.33,1.5-.7,2.36-1.74.88-.26-.57-.37-2.25-.88-3.5v-.88l-.88-.88c-.11-.18-2.47-3.35-2.62-3.5,1.1-.31,2.14-1.1,3.5-.88h-.02Z"/>
  <path class="cls-92" d="M85.53,65.13c2.11,1.61,4.73,3.74,7.25,4.58,2.73.92,7.22-1.34,4.98,1.54-4.91.48-10.46-1.98-13.1-6.12,0,0,.88,0,.88,0Z"/>
  <path class="cls-76" d="M85.53,65.13h-.88c-.29.04-.59-.07-.88,0-1.67-.51-1.67-1.28,0-1.74.62.55,1.39,1.48,1.74,1.74h.02Z"/>
  <path class="cls-152" d="M89.89,87c-1.72-3.3-2.93-6.89-4.36-9.62.24-.66.55-.64.88,0,1.87,3.79,2.27,5.92,3.5,9.62h-.02Z"/>
  <path class="cls-69" d="M86.38,77.37h-.88c-.22-.42-1.28-1.3-1.74-1.74-1.08,1.26-1.37.73-.88-.88-.79-.88-1.15-2.8,0-3.5,1.59,2.07,2.36,3.85,3.5,6.12Z"/>
  <path class="cls-145" d="M91.65,91.36c-1.65-2.36-1.06-2.27-1.74-4.36,1.01,1.96,1.3,1.48,1.74,4.36Z"/>
  <path class="cls-52" d="M80.28,31.92c.07.55,0,1.19,0,1.74,0,.29.04.59,0,.88-.73,1.56-1.61,2.73-2.62,3.5-.37-1.83-1.12-.26-1.74.88-1.39.09-1.26-2.31,0-2.62-.66-2.31-.57-4.67,0-7,1.04.04,1.63,1.5,1.74,4.36.33-2.38.62-4.71.88-7,.44,1.3,1.61,4.14,1.74,5.24v.02Z"/>
  <path class="cls-123" d="M69.8,37.16c2.2.99,2.2,1.61,0,2.62.79,1.28,1.39,2.42,1.74,3.5v.88l-.88.88c-.11.66-.11,4.18,0,4.36-1.34,1.08-2.44-1.26-1.74-2.62-.95-2.16-2.64-6.96-.88-8.74-.24-1.45.04-2.03.88-1.74.59-.86.9-.55.88.88v-.02Z"/>
  <path class="cls-25" d="M71.54,39.78c2.18.75,0,.66.46.42,2.22-1.15,2.53,1.21,2.16,3.06-.42.68-.13,2.49-1.74,2.62.04-1.01,0-1.94-.88-2.62-1.12-.88-1.78,1.65-1.74-3.5.51-1.67,1.3-1.67,1.74,0v.02Z"/>
  <path class="cls-43" d="M74.16,39.78c.24-.77.55-.75.88,0-.33.92.99.37-.88,3.5-1.21-.95-.29-2.95-1.74-2.62.13,3.08-1.37,1.96-.88-.88-.42-3.13,2.47-3.26,2.62,0Z"/>
  <path class="cls-67" d="M75.9,36.31v2.62c-.11.22-.73.42-.88.88h-.88c-2.55-.26-2.44-3.81,0-4.36,1.12-1.3,1.37-.68,1.74.88l.02-.02Z"/>
  <path class="cls-79" d="M80.28,34.54c-.2,1.23-2.66,7.13-3.48,6.12-.33-1.26.44-1.74.86-2.62.57-1.21,1.37-2.88,2.62-3.5Z"/>
  <path class="cls-5" d="M70.66,49.41c.09.13,2.42-.4,1.74,1.74h-.88c-1.43.24-1.78-.55-.88-1.74h.02Z"/>
  <path class="cls-25" d="M70.66,45.05l.88-.88c-.07.44-.86.79-.88.88Z"/>
  <path class="cls-4" d="M48.84,37.16c.53.29.53.57,0,.88,1.01,1.41,1.52,3.13,1.54,5.13,1.21-.09,1.23.24.2.99.57.35,1.12.4,1.74,0-1.52,0-1.28-1.06,0-1.74-.22-1.12.44-2.75,1.74-2.62.26-.57.55-.57.88,0,.26,2.36.55,4.8.86,7.29,1.45,4.56,4.56,1.26,1.76,1.43-2.93-.55-2.58-6.23-1.74-8.74,1.7.29,2.86,1.76,3.5,4.36,1.1,1.43,1.67,2.88,1.74,4.36l.88-.88c-2.55-.62-.26-4.27,1.74-2.62.64.15,1.12.31,1.15.53.4,4.65-1.17,6.85-.18.18.09-.66.86-.84,1.65-.68.95,1.17,1.52,2.91,1.74,5.24.2,1.81,2.05,4.71,0,6.12-.75.15-1.34-.73-1.74-2.62-.68,2.27-2.53,3.88-2.62.88.97-2.38.66-2.38-.88,0,1.23,1.21.7,1.72-.88.88,1.26,4.54-6.85,6.67-9.6,5.24-1.03-.64-1.81-1.59,0-1.74,5.11-1.76,4.54-1.76-1.74,0-.66.75-2.6.75-3.5,0l-.88-.88-1.74-1.74c-.29-2-1.28-3.52-1.74-5.24-1.87-1.56-1.98-7.88.88-5.24,2.55,4.6,7.62,12.86,12.22,8.74.24-.59.59-1.17.88-1.74,1.92.31,1.92,0,0-.88-1.28-.26-2.91-2.22-3.5-3.5-.66.35-1.23.64-1.74,0-2.62.07-5.44-2.49-5.24-5.24-2.38-2.64-1.65-8.63,2.62-6.12v-.02Z"/>
  <path class="cls-88" d="M67.18,45.05l.88.88c.53.29.53.57,0,.88,1.06,1.06,1.63,2.27,0,2.62.04.29-.02.59,0,.88-1.5-1.26-1.04-3.81-1.74-5.24-1.17.84-2.05.84-2.62,0-.77-.15-.75-.46,0-.88-.92-.97-.42-1.76.88-1.74.59-.13,1.19-.44,1.74-.88,1.81-.66,2.11,2.49.88,3.5l-.02-.02Z"/>
  <path class="cls-116" d="M70.66,49.41c.33.55.57,1.17.88,1.74-1.78,1.56-2.31-.51-3.5-1.74-.11-.84.07-1.76,0-2.62.24-.77.55-.75.88,0,.09.42,1.34,1.94,1.74,2.62Z"/>
  <path class="cls-93" d="M68.04,56.41c.04.29-.04.59,0,.88l-1.74.88c.35,1.15-.22,1.15-1.74,0-1.39-.73-.81-2.2,1.74-4.36.04-.04-.11-1.01.86-.88.13,1.19.66,2.31.88,3.5v-.02Z"/>
  <path class="cls-73" d="M70.66,57.27v.88c-.64,1.01-1.23,1.32-1.74.88-.24.77-.55.75-.88,0-1.12-.64-1.19-1.26,0-1.74h2.62v-.02Z"/>
  <path class="cls-28" d="M57.56,27.56c.92-.07,1.45.9,1.74,1.74v.88c1.37.81,1.06,1.1-.88.88-3.61-.59-4.78-.59-3.5,0-.81.75-2.47,1.61-3.5,1.74l-5.24-.88c-2.62-2.09-.29-6.28,2.62-6.12,2.4-1.34,6.67-.15,8.74,1.74l.02.02Z"/>
  <path class="cls-25" d="M60.18,28.42c1.1-2.31,2.93.97,2.62,2.62,2.91.55,5.84,3.83,5.24,7,1.21,3.83.4,6.52.88,8.74h-.88c-.02-.31.07-.62,0-.88l-.88-.88c-.29-1.67-.37-1.94-.88-3.5-2.36-2.31-3.52-4.62-3.5-7-1.72.13-2.6-1.32-2.62-4.36l-.88-.88v-.88c.24.11.62-.07.88,0l.02.02Z"/>
  <path class="cls-120" d="M66.3,17.94c.57.26.55.55,0,.88-1.48.44-2.09,1.19-1.83,2.22,3.33,1.96,8.08,7.25,5.33,10.9.31,1.5.02,2.07-.88,1.74.35-7.66-9.47-9.45-6.94-16.56,1.89-.68,2.88.26,4.32.81Z"/>
  <path class="cls-146" d="M55.82,54.65c-.07.13,1.78,1.52-1.32,1.81-4.98.46-10.09-5.99-10.9-10.55-.77-.24-.75-.55,0-.88,3.39,2.71,4.4,11.8,12.22,9.62Z"/>
  <path class="cls-118" d="M59.32,31.92c3.94,1.54,1.76,2.62-1.74,2.62l-2.62,1.74c.92,1.06.46,1.08-.88.88-3.55-2.62,1.72-4.95,4.36-5.24.29-.79.57-.79.88,0Z"/>
  <path class="cls-63" d="M78.52,26.68v6.56l-.88.44c-.22-3.9-1.32-7.36-3.33-10.37l.7-1.87h.88c2.82,2.53,1.67,2.49,2.62,5.24Z"/>
  <path class="cls-28" d="M60.18,38.04c.59-.62,1.21-.64,1.74,0,1.23-.95,1.67-.48.88.88.46.26.44.55,0,.88-.33,1.06-1.19,1.06-2.62,0-.51.86-1.12.79-1.74,0-.86,1.37-1.87.29-2.62-.88-.22.75-.51.73-.88,0-.29.57-.57.57-.88,0-.24.77-.55.75-.88,0,.26-.31.68-1.28.88-1.74,1.92-.42,4.45-.18,6.12.88v-.02Z"/>
  <path class="cls-117" d="M68.04,34.54c1.61-.24,1.85.48.88,1.74l-.88,1.74c-1.78-5.68-2.05-3.96-5.24-7-.53-1.17-.31-1.5.88-.88,1.87,1.83,2.2.92,4.36,4.36v.04Z"/>
  <path class="cls-136" d="M48.84,37.16c-4.56-.24-3.9,2.73-2.62,6.12-.24.77-.55.75-.88,0-.75-2.51-2.18-6.89,1.74-7.86,1.23.13,2.4.42,1.74,1.74h.02Z"/>
  <path class="cls-70" d="M51.46,48.53c.22.37-.09.68-.88.88-3.59-2.16-3.94-1.74-5.24-6.12h.88c1.15,3.04,2.47,3.79,5.24,5.24Z"/>
  <path class="cls-50" d="M48.84,25.8c-2.05.55-4.62,4.87-2.62,6.12-3.81-2.42-.81-6.36,2.62-7,.77.24.75.55,0,.88Z"/>
  <path class="cls-17" d="M57.56,26.68c.4.26.37.57,0,.88-1.98-1.08-6.61-2.31-8.74-1.74v-.88c3.39-.64,5.86.29,8.74,1.74Z"/>
  <path class="cls-147" d="M50.58,40.67c.42.46.73,1.04.88,1.74.24-.77.55-.75.88,0-.15.44.11,1.21,0,1.74,0,1.39-.81.84-1.74,0-1.03-1.98-1.12-3.99-1.74-6.12.24-.77.55-.75.88,0,.24.81.62,1.3.88,2.62l-.04.02Z"/>
  <path class="cls-25" d="M69.8,37.16c-.22-.33-.68-.57-.88-.88-.33-.55-.53-1.21-.88-1.74.31-.26.62-.55.88-.88.46-.55.95-.88.88-1.74,2.09.24,3.37,5.31,0,5.24Z"/>
  <path class="cls-68" d="M75.9,21.44h-.88c.51,3.19-2.36,2.51-3.5,0,1.01-3.57,3.02-1.21,4.36,0h.02Z"/>
  <path class="cls-59" d="M56.7,52.03c.77.24.75.55,0,.88-1.65-.86-2.97-2.64-4.36-3.5-.51-.44-.22-.73.88-.88,1.87.57,2.91,3.17,3.5,3.5h-.02Z"/>
  <path class="cls-34" d="M63.68,30.18l-.88.88c-1.12-1.06-.44-3.26-2.62-2.62.57-5.22,2.49.77,3.5,1.74Z"/>
  <path class="cls-133" d="M58.44,31.04c.62.22.59.53,0,.88-.18.04-2.58-.7-3.5-.88-.53-.11-1.17.07-1.74,0v-.86c1.61.13,4.18-.73,5.24.86Z"/>
  <path class="cls-44" d="M54.08,38.93c.57.26.57.55,0,.88-.37.84-1.5,1.89-1.74,2.62h-.88c-.92-.73.07-1.96.88-2.62.26-.2.64-.59.88-.88h.88-.02Z"/>
  <path class="cls-144" d="M51.46,32.8c-2.11.29-3.5.24-5.24-.88.81.51,4.54-.92,5.24.88Z"/>
  <path class="cls-4" d="M51.46,42.4l-.86.88c-.11-.84.15-1.85,0-2.62.53-.33,1.28-.51,1.74-.88l-.88,2.62Z"/>
  <path class="cls-57" d="M47.08,35.42c3.72-.92,2.18,1.08,2.62,2.62h-.88c-.09-.29.11-.66,0-.88-.26-.57-1.3-1.19-1.74-1.74Z"/>
  <path class="cls-89" d="M59.32,28.42v.88c-.51-.46-1.63-1.7-1.74-1.74v-.88c1.17.59,1.63,1.7,1.74,1.74Z"/>
  <path class="cls-143" d="M53.2,48.53l-.88.88c-.33-.2-1.41.2-1.74,0,.11-.42.44-.79.88-.88.37-.07,1.45-.09,1.74,0Z"/>
  <path class="cls-72" d="M80.28,59.89c-.7-.31-1.72.11-3.11-.84-1.87-1.28-.37-1.67-.37-1.78,1.85.33,2.42,1.61,3.5,2.62h-.02Z"/>
  <path class="cls-138" d="M83.76,63.39c-1.28,1.12-1.76.62-.88-.88.18.33.81.62.88.88Z"/>
  <path class="cls-23" d="M82.9,62.51c-1.12,1.08-1.41.57-.88-.88.37.2.57.64.88.88Z"/>
  <path class="cls-102" d="M82.02,61.65c-.24.77-.55.75-.88,0,0-.31.07-.68,0-.88.26.31.64.55.88.88Z"/>
  <path class="cls-105" d="M81.14,60.77c-.26-.31-.57-.59-.88-.88.73.31.62.2.88.88Z"/>
  <path class="cls-85" d="M63.68,60.77c.48-.13.77.44.88,1.74.04,4.93-1.15,5.57-4.36,8.74q-.56-.44,0,0c-.62.62-.81,1.06-1.74,1.74-1.48.59-2.07.31-1.74-.88-2.36-.7-2.38.11-3.5,0l-.37-1.08c3.88-2.11,6.63-5.33,9.12-8.52-.77-.24-.75-.53,0-.88-.4-1.76.75-2.47,1.74-.88l-.02.02Z"/>
  <path class="cls-12" d="M64.56,58.15c1.43.37,2.99,1.41,1.74,2.62.13.99.11,1.28-.88.88h-.88c-.33-.88-.64-1.17-.88-.88-.46.26-1.34.18-1.74.88-1.04.75-1.5.33-.88-.88l-.97-.95c1.72-1.32,2.33-2.75,1.85-4.29.22-.33.68-.57.88-.88.26-.62.55-.59.88,0,.48,1.17,1.83-.26,2.62-.88.7,1.74-1.78,3.63-1.74,4.36v.02Z"/>
  <path class="cls-152" d="M75.04,93.12c-.15-.66-1.45-1.83-1.74-2.62-.37-1.21-.37-2.36,0-3.5,1.21.95.29,2.97,1.72,2.62.04-.68.31-1.34.9-1.74,1.45-.99,2.51-1.43,4.36-3.5-1.12,3.63-2.93,5.81-5.24,8.74Z"/>
  <path class="cls-131" d="M74.16,75.64c-1.34,3.46-.88,7.71-.88,11.36,0,1.17-.02,2.33,0,3.5-1.32-3.13-1.89-6.91-1.74-11.36.46-1.54,1.34-2.84,1.74-4.36,1.23-1.17,1.67-.66.88.88v-.02Z"/>
  <path class="cls-129" d="M69.8,59.89c.68,2.2,2.11,9.27,1.74,11.36-.24.68-.55.68-.88,0-1.89-.79-3.26-8.24-3.39-10.53,0-.26.33-.55.77-.84v-.88h.88c1.12-.4,1.39-.22.88.88Z"/>
  <path class="cls-101" d="M73.28,90.5v1.74c-.07.64-.13,1.01-.88.88-1.5-.07-1.45-3.08-.88-4.36-.35-2.82-.64-5.75-.88-8.74.04-.29.79-.62.88-.88,1.87,3.68.11,7.02,1.74,11.36h.02Z"/>
  <path class="cls-62" d="M72.42,93.12c1.06,2.16,1.37,5.81,0,7.86-.24.77-.55.75-.88,0,.02-.86.04-1.76,0-2.62-1.59.35-1.41-.44-.88-1.74v-.88c-.07-2.31,0-4.67,0-7,.24-.77.55-.75.88,0,.11,1.76.86,3.9.88,4.36v.02Z"/>
  <path class="cls-78" d="M67.18,68.63c2.86.66.51,6.1-1.74,6.12.59.9.09,1.15-.88.88-2.36-2.58,1.37-5.44,1.74-7,.24-.77.55-.75.88,0Z"/>
  <path class="cls-6" d="M74.16,75.64l-.88-.88,4.36-6.12c.53,2.84-2.73,5.04-3.48,6.98v.02Z"/>
  <path class="cls-97" d="M71.54,71.25c-.18.97-2.25,4.67-3.02,5.33-1.76,1.5-1.81.04-2.22-.09-1.01-1.06-.51-1.28.88-.88-.84-1.89.95-5.31,3.5-4.36h.88-.02Z"/>
  <path class="cls-106" d="M82.9,71.25c.15,1.12-.09,2.36,0,3.5-.24.77-.55.75-.88,0-.33-3.79-2.4-4.29-3.5-7,.24-.77.55-.75.88,0,1.45-.51,2.62.66,3.5,3.5Z"/>
  <path class="cls-34" d="M71.54,88.74h-.88c0-2.58-.42-6.47,0-8.74,1.72,2.07.68,5.95.88,8.74Z"/>
  <path class="cls-59" d="M58.44,73.01c-1.3.95-2.88,2.07-4.36,2.62-.97,0-1.34,0-.88-.88-.77-.24-.75-.55,0-.88,1.39-.11,2.69-.51,3.5-1.74.66.2,1.32.18,1.74.88Z"/>
  <path class="cls-122" d="M53.2,74.75c.4.02.79.46.88.88-1.83.68-3.52.55-5.24.88v-.88c-.59-1.96,2.95-1.39,4.36-.88Z"/>
  <path class="cls-1" d="M79.4,67.77h-.88c-.35-.88-.57-1.98-.88-2.62l1.74-.88c.9,1.37,1.81,3.08,0,3.5h.02Z"/>
  <path class="cls-30" d="M67.18,68.63h-.88c.22-.92.13-4.12,0-5.24.24-.77.55-.75.88,0,1.78.53,2.4,4.84,0,5.24Z"/>
  <path class="cls-54" d="M67.18,63.39h-.88c-.02-.26-.95-1.1-.88-1.74l.88-.88c1.43.04,1.98,1.67.88,2.62Z"/>
  <path class="cls-48" d="M67.18,75.64c-.31.26-.55.62-.88.88-.75-.24-1.1-.15-1.74-.88-.2-.86.86-.81.88-.88,1.21-2.14,2.22-1.45,1.74.88Z"/>
  <path class="cls-10" d="M83.76,75.64c-.15.55-.84,1.3-.88,1.74h-.88c.13-.62.07-1.92,0-2.62h.88c.2.37.57.59.88.88Z"/>
  <path class="cls-49" d="M64.56,61.65v.88l-.88-1.74s-.11-1.01.86-.88c.04.57,0,1.17,0,1.74h.02Z"/>
  <path class="cls-61" d="M70.66,58.15l-.88,1.74c-.07-.22-.7-.53-.88-.88l1.74-.88.02.02Z"/>
  <path class="cls-18" d="M76.78,61.65c-.11-.26.11-.66,0-.88.35.42.75.33,0,.88Z"/>
  <path class="cls-83" d="M76.78,60.77c-.15-.29-.66-.53-.88-.88.35.24.59.55.88.88Z"/>
  <path class="cls-13" d="M46.22,72.13l.88.88c.31.4.59.4.88,0,2,.64,2.97,1.08,5.24.88v.88c-2.14-.13-2.91.62-4.36.88-4.89.88-6.91,2.38-5.24-4.38l2.62.88-.02-.02Z"/>
  <path class="cls-47" d="M61.94,62.51c.46,2,.13,1.81-1.3,3.52l-7.44,6.1c-.64-.07-1.67-1.08-2.62-.88-.46-1.65.59-1.43.86-1.74,2.31-.92,4.93-2.66,7.86-5.24-.66-.37-.64-1.32,0-1.74.88-1.15,1.85-1.28,2.62,0l.02-.02Z"/>
  <path class="cls-151" d="M58.44,64.27c.24-.77.55-.75.88,0-1.59,3.02-4.62,4.51-7.44,6.1l-.42-.86c.26-.31.53-.62.88-.88,1.01-1.06,1.87-1.94,2.62-2.62-.4-1.21,2.73-3.19,3.5-1.74h-.02Z"/>
  <path class="cls-131" d="M58.44,64.27c-1.72-.26-2.55,1.26-3.5,1.74-.11,1.15-2.36,1.87-3.5,1.74-.24-.04-.62-.02-.88,0v-.88c-.46-2.93,3.74-3.92,6.12-3.5-.4-1.43.81-1.96,1.74-.88.73.24.64,1.34,0,1.74l.02.04Z"/>
  <path class="cls-141" d="M52.32,68.63c-.15-.4-.46-.79-.88-.88.9-1.1,2.36-1.15,3.5-1.74,2.16.86-1.92,2.07-2.62,2.62Z"/>
  <path class="cls-81" d="M47.08,73.01c.24.09.59-.09.88,0l-.44.86c-.44-.15-.29-.59-.44-.86Z"/>
  <path class="cls-119" d="M47.08,73.01c-.35-.13-.64-.57-.88-.88h.88c.13.22-.11.64,0,.88Z"/>
  <path class="cls-21" d="M45.34,59.89l.88.88c.9.02,1.48.33,1.74.88,2.42-.26,4.45,0,6.12.88,2.77-1.04,3.63-.75,2.62.88-1.54.66-4.6,3.22-6.12,3.5s-5.62-.13-6.98-.88c-.11-.07-1.72-1.63-1.74-1.74-.81-2.58.55-4.93,3.5-4.36l-.02-.04Z"/>
  <path class="cls-150" d="M50.58,59.03h1.74v1.74c2.22,1.56-3.26,1.98-1.74,0,1.28-.35.13-.64-3.5-.88-.07-.29.11-.66,0-.88.97.2,2.38-.04,3.5,0v.02Z"/>
  <path class="cls-91" d="M47.08,59.89h4.38l-.88.88c-.09,1.23-1.87.86-2.62,0-.2.51-.51.48-.88,0v-.88Z"/>
  <path class="cls-2" d="M47.96,60.77c.77.24.75.55,0,.88-.84-.29-1.23-.66-1.74-.88.26.07.59-.07.88,0s.59-.04.88,0h-.02Z"/>
  <path class="cls-153" d="M46.22,60.77c-.37-.15-.68-.84-.88-.88.31.09.64.81.88.88Z"/>
  <path class="cls-20" d="M47.08,59.03c-.31-.07-.59-.73-.88-.88.26.29.7.53.88.88Z"/>
  <path class="cls-132" d="M46.22,58.15c-.57-.29-1.15-.59-1.74-.88.02-.26.04-.62,0-.88.4.46,1.12,1.04,1.74,1.74v.02Z"/>
  <path class="cls-8" d="M73.28,100.98h-.88c.2-2.4.09-5.42,0-7.86l.88-.88c.09,2.71,1.52,5.4,0,8.74Z"/>
  <path class="cls-152" d="M80.28,84.38c.2-.66,0-1.43.88-1.74.02.75-.42,1.23-.88,1.74Z"/>
  <path class="cls-152" d="M82.02,67.77c.35,1.01.73,2.44.88,3.5-.79-1.01-2.44-2.6-3.5-3.5-.11-1.12.18-2.42,0-3.5-.09-.55-.86-1.34-.88-2.16l.88-.44c-.29,2.29,2.18,4.76,2.64,6.12l-.02-.02Z"/>
  <path class="cls-33" d="M82.02,61.65c.24.33.7.59.88.88.31.24.57.59.88.88.13.48-.11,1.21,0,1.74-3.52.84-2.42-.46-2.62-3.5h.88-.02Z"/>
  <path class="cls-11" d="M75.04,21.44c3.39,3.57,2.66,7.66,2.62,12.24l-.86-.44c.51-1.7-.48-2.73-.88-3.92-.84-1.87-2-3.61-3.5-5.24-.81.51-1.17-.92-.88-1.74-.04-.2-.07-.68,0-.88,1.01.48,2.47.66,3.5,0v-.02Z"/>
  <path class="cls-7" d="M75.9,29.3v7c-.57-.31-1.19-.53-1.74-.88-2.07,1.87-3.57.37-1.74-1.74,0-1.98.68-1.5,1.74,0,.59-2.73-.48-6.03-1.74-8.74-.68-.24-.66-.55,0-.88,2.36,2.6,1.7-.11,3.5,5.24h-.02Z"/>
  <path class="cls-4" d="M66.3,18.82c.9.84,3.92,2.77,4.36,3.5.9.46,1.39,1.74.88,2.62.59.55.88,1.41.88,2.62.42,1.37.42,2.53,0,3.5.66.97,1.26,2.25,0,2.62.26,1.04.97,1.26,1.74,1.74v4.36c-1.39-1.32-1.92-.18-2.62,0-.48.13-1.19-.09-1.74,0,0-.88-.04-1.76,0-2.62.11-2.18,1.17-1.21,0-5.24-.62-2.11-1.76-5.26-3.08-6.96-1.06-1.34-3.39-2.03-3.81-3.22-.84-2.44.79-4.98,3.39-2.93Z"/>
  <path class="cls-44" d="M61.06,60.77c-.24.75-.53.73-.88,0-1.72,1.1-3.77,1.67-6.12,1.74-2.88-.09-3.39.04-6.12-.88v-.88c.73.13,1.78,0,2.62,0,.04,0-.11.9.46.88,1.32-.04,1.21-.86,1.3-.88,3.41-.35,6.08-.22,8.79-3.04.7-.73.57-1.85.81-2.2,2.29,1.1-.75,3.46-.88,5.24l.02.02Z"/>
  <path class="cls-16" d="M55.82,39.78c.11,2.84-.77,6.72,1.74,8.74q.22.18,0,0l.86-2.62c.09,1.37,3.79,6.83-.31,5.13-3.88-1.61-3.24-7.82-3.17-11.25-.57-.26-.57-.55,0-.88.29.02.59-.04.88,0,.77.24.75.55,0,.88Z"/>
  <path class="cls-147" d="M50.58,59.03l8.28-3.5c-.35,3.11-4.18,3.33-6.54,3.5-.57.04-1.19.02-1.74,0Z"/>
  <path class="cls-37" d="M59.32,43.29h2.62l1.74.88v.88c-.37.13-1.32-.31-1.65.09-.44.48.07,1.89-.09,2.53l-.88.88c-1.41-.07-1.72-3.22-1.74-4.36v-.9Z"/>
  <path class="cls-100" d="M66.3,45.05c-1.65,1.41-.15,4.69-2.62,5.24.7-1.83-.04-3.59,0-5.24.66-.24,1.3-.92,2.16-.86.57.13.35.66.46.86Z"/>
  <path class="cls-130" d="M58.44,39.78c.77.24.75.55,0,.88,2.42.99,2.71,1.85.88,2.62v.88l-3.5-4.36v-.88c.99.18,2,.79,2.62.88v-.02Z"/>
  <path class="cls-96" d="M63.68,54.65h-.88c.62-.97.62-3.17,2.62-3.5.35,1.56-1.06,2.2-1.74,3.5Z"/>
  <path class="cls-66" d="M56.7,52.03c.9.51,3.3-1.19,2.62,1.74-1.12.22-1.76-.42-2.62-.88v-.88.02Z"/>
  <path class="cls-111" d="M52.32,44.17c-.11.53.07,1.19,0,1.74-.46.42-1.43-1.17-1.74-1.74h1.74Z"/>
  <path class="cls-39" d="M61.06,48.53l.88-.88c-.15.57,0,.92-.88.88Z"/>
  <path class="cls-130" d="M54.94,39.78h-.88v-.88c.29,0,.59-.02.88,0v.88Z"/>
  <path class="cls-112" d="M62.8,38.93c1.06-2.07,2.82,1.06,3.5,2.62.57,2.16-.26,1.89-1.74.88l-.88-.88c-1.26-.24-1.81-.7-.88-1.74,0,0,0-.88,0-.88Z"/>
  <path class="cls-32" d="M64.56,42.4c.13,1.21-.88,1.65-.88,1.74l-1.74-.88c-1.72-1.43-1.41-2,.88-1.74.22-.7.51-.68.88,0l.88.88h-.02Z"/>
  <path class="cls-116" d="M68.04,45.91c-.42-.11-.81-.46-.88-.88.4.13.77.46.88.88Z"/>
  <path class="cls-61" d="M68.04,57.27c.09.55-.11,1.23,0,1.74.07.29-.07.59,0,.88-.79,1.54-1.89-.46-1.74-1.74.15-.15-.22-1.23.11-1.63.31-.37,1.32.75,1.63.75Z"/>
  <path class="cls-115" d="M62.8,34.54c.4,1.17.2,1.56-.88.88-1.17,1.1-3.59.48-4.36-.88l2.62-.88s-.79-1.7-.88-1.74q.18-.22,0,0c-.11-.07-.62-.02-.88,0,.09,0-.11-.81,0-.88.33-.18.57-.62.88-.88h.88c1.39,1.63,1.65,2.8,2.62,4.36v.02Z"/>
  <path class="cls-98" d="M60.18,30.18h-.88v-.88c.31.26.62.57.88.88Z"/>
  <path class="cls-94" d="M66.3,41.55c-.42-1.61-2.69-1.98-3.5-2.62-.42-.33-.53-.13-.88-.88-.77-.26-.77-.55,0-.88-2.27-.64-2.27-1.08,0-1.74.02-.4.35-1.04.88-.88,2.05,3.33,2.2,3.04,3.5,7Z"/>
  <path class="cls-124" d="M57.56,34.54c1.54,0,3.02-.04,4.36.88v1.74c-.59.64-1.23.68-1.74,0-1.54.46-4.01.13-5.24-.88.2-1.3-3.3-1.83,2.62-1.74Z"/>
  <path class="cls-36" d="M60.18,37.16c.77.24.75.55,0,.88-1.87.02-4.56.29-6.12-.88.22-.57.86-.81.88-.88,2.22-.59,3.5.35,5.24.88Z"/>
  <path class="cls-86" d="M62.8,39.78c.35.51.51,1.32.88,1.74-.22-.09-.57.09-.88,0-.29.55-.57.55-.88,0-1.34-.42-1.92-1.01-1.74-1.74h2.62Z"/>
  <path class="cls-108" d="M60.18,39.78l1.74,1.74c-1.06,1.76-2.22,1.48-3.5-.88v-.88c.55.07,1.17,0,1.74,0l.02.02Z"/>
  <path class="cls-64" d="M61.94,37.16c.07.31-.09.66,0,.88h-1.74v-.88c.46.13,1.19-.09,1.74,0Z"/>
  <path class="cls-84" d="M72.42,24.06v.88c-.24.77-.55.75-.88,0-.4-.84-.64-2.27-.88-2.62h.88s.81,1.67.88,1.74Z"/>
  <path class="cls-149" d="M60.18,71.25c-.15.11-1.85.29-1.74-.44l4.36-4.8c.11.92-2.38,5.09-2.62,5.24Z"/>
  <path class="cls-125" d="M61.94,61.65c.11.15-.07.57,0,.88-.86.07-1.76-.09-2.62,0-1.56-.95-.66-1.34.88-1.74.31.07.7-.11.88,0,.2.13.75.66.88.88l-.02-.02Z"/>
  <path class="cls-4" d="M66.3,58.15l1.74,1.74c.81,3.79,2.69,7.36,2.62,11.36-1.43,1.61-1.7,2.82-3.5,4.36l-1.74-.88c.31-.88,1.65-5.44,1.74-6.12.18-1.34.15-3.85,0-5.24-.04-.48-.66-1.78-.88-2.62-.51-1.94-1.74-2.36-1.74-2.62.48-.11,1.61.15,1.74,0l.02.02Z"/>
  <path class="cls-3" d="M59.32,64.27h-.88v-1.74c.26-.77.57-.77.88,0-.13.53.18,1.43,0,1.74Z"/>
  <path class="cls-141" d="M60.18,60.77c-.2.57-.75,1.19-.88,1.74-.31.04-.64-.07-.88,0-.55.15-1.17.62-1.74.88-.42-1.15-1.65-.84-2.62-.88,1.85-1.15,4.29-2.14,6.12-1.74Z"/>
  <path class="cls-41" d="M72.42,24.94c3.52,1.92,2.55,6.32,2.62,9.62-.75.22-.79-.84-.86-.88-.77-.24-.75-.55,0-.88l-.88-.88c-.57-.29-.57-.57,0-.88-.55-.95-.84-2.11-.88-3.5-.35-1.06-.35-1.94,0-2.62v.02Z"/>
  <path class="cls-134" d="M73.28,31.92l.88.88v.88c-.4-.15-1.21.11-1.74,0-.18-.66.07-1.81,0-2.62.24-.77.55-.75.88,0,.04.29-.07.59,0,.88l-.02-.02Z"/>
  <path class="cls-31" d="M73.28,31.04h-.88c-.11-1.15,0-2.36,0-3.5.53,1.59.62,1.61.88,3.5Z"/>
  <path class="cls-121" d="M72.42,27.56c-.2-.62-.77-2.42-.88-2.62h.88v2.62Z"/>
  <path class="cls-90" d="M72.4,38.04h-.86c-.44-3.63,1.3-3.63.86,0Z"/>
  <path class="cls-41" d="M57.56,48.53c.42-.42,1.39.81.44.88-.31,0-.64-.68-.44-.88Z"/>
  <path class="cls-107" d="M61.94,41.55c.29.07.62-.07.88,0-.26.59-.59,1.17-.88,1.74-.42.88-.73,2.05-1.32,2.62-.35,0-1.01-1.92-1.32-2.62-.33-.77-.31-1.85-.88-2.62,1.17.26,2.31.64,3.5.88h.02Z"/>
  <path class="cls-9" d="M63.68,44.17c-.55.46-2.29-.42-1.74-.88s2.29.42,1.74.88Z"/>
  <path class="cls-74" d="M64.56,42.4c-.7-.48-.57-.53-.88-.88.44.2.77-.18.88.88Z"/>
  <path class="cls-137" d="M59.32,31.92c-.42-.42.81-1.39.88-.44,0,.31-.68.64-.88.44Z"/>
  <path class="cls-7" d="M74.16,32.8c-.42-.13-.79-.46-.88-.88l.88.88Z"/>
</svg>